<?xml version='1.0' encoding='UTF-8' standalone='no'?>
<svg height="314pt" viewBox="0 0 418 314" width="418pt" xmlns="http://www.w3.org/2000/svg" xmlns:xlink="http://www.w3.org/1999/xlink">
 <title>Figure 1</title>
 <desc>
Creator: GL2PS 1.4.2, (C) 1999-2020 C. Geuzaine
For: Octave
CreationDate: Fri Jul  5 21:52:48 2024
</desc>
 <defs/>
 <polygon fill="#ffffff" points="0,0 418,0 418,314 0,314"/>
 <g>
  <polygon fill="#ffffff" points="0,314 418,314 418,0 0,0" shape-rendering="crispEdges"/>
  <clipPath id="cp00418314">
   <polygon points="0,314 418,314 418,0 0,0"/>
  </clipPath>
  <g clip-path="url(#cp00418314)">
   <polygon fill="#ffffff" points="55.0026,86.9654 379.163,86.9654 379.163,27.5668 55.0026,27.5668" shape-rendering="crispEdges"/>
   <polyline fill="none" points="55.0026,86.9654 55.0026,83.7019" stroke="#262626" stroke-linecap="butt" stroke-linejoin="miter" stroke-width="0.5"/>
   <polyline fill="none" points="55.0026,27.5668 55.0026,30.8303" stroke="#262626" stroke-linecap="butt" stroke-linejoin="miter" stroke-width="0.5"/>
   <polyline fill="none" points="98.224,86.9654 98.224,83.7019" stroke="#262626" stroke-linecap="butt" stroke-linejoin="miter" stroke-width="0.5"/>
   <polyline fill="none" points="98.224,27.5668 98.224,30.8303" stroke="#262626" stroke-linecap="butt" stroke-linejoin="miter" stroke-width="0.5"/>
   <polyline fill="none" points="141.445,86.9654 141.445,83.7019" stroke="#262626" stroke-linecap="butt" stroke-linejoin="miter" stroke-width="0.5"/>
   <polyline fill="none" points="141.445,27.5668 141.445,30.8303" stroke="#262626" stroke-linecap="butt" stroke-linejoin="miter" stroke-width="0.5"/>
   <polyline fill="none" points="184.667,86.9654 184.667,83.7019" stroke="#262626" stroke-linecap="butt" stroke-linejoin="miter" stroke-width="0.5"/>
   <polyline fill="none" points="184.667,27.5668 184.667,30.8303" stroke="#262626" stroke-linecap="butt" stroke-linejoin="miter" stroke-width="0.5"/>
   <polyline fill="none" points="227.888,86.9654 227.888,83.7019" stroke="#262626" stroke-linecap="butt" stroke-linejoin="miter" stroke-width="0.5"/>
   <polyline fill="none" points="227.888,27.5668 227.888,30.8303" stroke="#262626" stroke-linecap="butt" stroke-linejoin="miter" stroke-width="0.5"/>
   <polyline fill="none" points="271.11,86.9654 271.11,83.7019" stroke="#262626" stroke-linecap="butt" stroke-linejoin="miter" stroke-width="0.5"/>
   <polyline fill="none" points="271.11,27.5668 271.11,30.8303" stroke="#262626" stroke-linecap="butt" stroke-linejoin="miter" stroke-width="0.5"/>
   <polyline fill="none" points="314.331,86.9654 314.331,83.7019" stroke="#262626" stroke-linecap="butt" stroke-linejoin="miter" stroke-width="0.5"/>
   <polyline fill="none" points="314.331,27.5668 314.331,30.8303" stroke="#262626" stroke-linecap="butt" stroke-linejoin="miter" stroke-width="0.5"/>
   <polyline fill="none" points="357.553,86.9654 357.553,83.7019" stroke="#262626" stroke-linecap="butt" stroke-linejoin="miter" stroke-width="0.5"/>
   <polyline fill="none" points="357.553,27.5668 357.553,30.8303" stroke="#262626" stroke-linecap="butt" stroke-linejoin="miter" stroke-width="0.5"/>
   <g font-family="FreeSans" font-size="10" font-style="normal" font-weight="normal" transform="translate(43.0026,102.516) rotate(-0,12,-8)" xml:space="preserve">
    <text fill="rgb(38,38,38)" x="0 3 9 12 18 " y="-0">-0.07</text>
   </g>
   <g font-family="FreeSans" font-size="10" font-style="normal" font-weight="normal" transform="translate(83.224,102.516) rotate(-0,15,-8)" xml:space="preserve">
    <text fill="rgb(38,38,38)" x="0 3 9 12 18 24 " y="-0">-0.068</text>
   </g>
   <g font-family="FreeSans" font-size="10" font-style="normal" font-weight="normal" transform="translate(126.445,102.516) rotate(-0,15,-8)" xml:space="preserve">
    <text fill="rgb(38,38,38)" x="0 3 9 12 18 24 " y="-0">-0.066</text>
   </g>
   <g font-family="FreeSans" font-size="10" font-style="normal" font-weight="normal" transform="translate(169.667,102.516) rotate(-0,15,-8)" xml:space="preserve">
    <text fill="rgb(38,38,38)" x="0 3 9 12 18 24 " y="-0">-0.064</text>
   </g>
   <g font-family="FreeSans" font-size="10" font-style="normal" font-weight="normal" transform="translate(212.888,102.516) rotate(-0,15,-8)" xml:space="preserve">
    <text fill="rgb(38,38,38)" x="0 3 9 12 18 24 " y="-0">-0.062</text>
   </g>
   <g font-family="FreeSans" font-size="10" font-style="normal" font-weight="normal" transform="translate(259.11,102.516) rotate(-0,12,-8)" xml:space="preserve">
    <text fill="rgb(38,38,38)" x="0 3 9 12 18 " y="-0">-0.06</text>
   </g>
   <g font-family="FreeSans" font-size="10" font-style="normal" font-weight="normal" transform="translate(299.331,102.516) rotate(-0,15,-8)" xml:space="preserve">
    <text fill="rgb(38,38,38)" x="0 3 9 12 18 24 " y="-0">-0.058</text>
   </g>
   <g font-family="FreeSans" font-size="10" font-style="normal" font-weight="normal" transform="translate(342.553,102.516) rotate(-0,15,-8)" xml:space="preserve">
    <text fill="rgb(38,38,38)" x="0 3 9 12 18 24 " y="-0">-0.056</text>
   </g>
   <polyline fill="none" points="55.0026,86.9654 58.2459,86.9654" stroke="#262626" stroke-linecap="butt" stroke-linejoin="miter" stroke-width="0.5"/>
   <polyline fill="none" points="379.163,86.9654 375.92,86.9654" stroke="#262626" stroke-linecap="butt" stroke-linejoin="miter" stroke-width="0.5"/>
   <polyline fill="none" points="55.0026,72.1158 58.2459,72.1158" stroke="#262626" stroke-linecap="butt" stroke-linejoin="miter" stroke-width="0.5"/>
   <polyline fill="none" points="379.163,72.1158 375.92,72.1158" stroke="#262626" stroke-linecap="butt" stroke-linejoin="miter" stroke-width="0.5"/>
   <polyline fill="none" points="55.0026,57.2661 58.2459,57.2661" stroke="#262626" stroke-linecap="butt" stroke-linejoin="miter" stroke-width="0.5"/>
   <polyline fill="none" points="379.163,57.2661 375.92,57.2661" stroke="#262626" stroke-linecap="butt" stroke-linejoin="miter" stroke-width="0.5"/>
   <polyline fill="none" points="55.0026,42.4164 58.2459,42.4164" stroke="#262626" stroke-linecap="butt" stroke-linejoin="miter" stroke-width="0.5"/>
   <polyline fill="none" points="379.163,42.4164 375.92,42.4164" stroke="#262626" stroke-linecap="butt" stroke-linejoin="miter" stroke-width="0.5"/>
   <polyline fill="none" points="55.0026,27.5668 58.2459,27.5668" stroke="#262626" stroke-linecap="butt" stroke-linejoin="miter" stroke-width="0.5"/>
   <polyline fill="none" points="379.163,27.5668 375.92,27.5668" stroke="#262626" stroke-linecap="butt" stroke-linejoin="miter" stroke-width="0.5"/>
   <g font-family="FreeSans" font-size="10" font-style="normal" font-weight="normal" transform="translate(44.0001,90.9654) rotate(-0,6,-4)" xml:space="preserve">
    <text fill="rgb(38,38,38)" x="0 " y="-0">0</text>
   </g>
   <g font-family="FreeSans" font-size="10" font-style="normal" font-weight="normal" transform="translate(20.0001,76.1157) rotate(-0,30,-4)" xml:space="preserve">
    <text fill="rgb(38,38,38)" x="0 6 12 18 24 " y="-0">10000</text>
   </g>
   <g font-family="FreeSans" font-size="10" font-style="normal" font-weight="normal" transform="translate(20.0001,61.2661) rotate(-0,30,-4)" xml:space="preserve">
    <text fill="rgb(38,38,38)" x="0 6 12 18 24 " y="-0">20000</text>
   </g>
   <g font-family="FreeSans" font-size="10" font-style="normal" font-weight="normal" transform="translate(20.0001,46.4164) rotate(-0,30,-4)" xml:space="preserve">
    <text fill="rgb(38,38,38)" x="0 6 12 18 24 " y="-0">30000</text>
   </g>
   <g font-family="FreeSans" font-size="10" font-style="normal" font-weight="normal" transform="translate(20.0001,31.5668) rotate(-0,30,-4)" xml:space="preserve">
    <text fill="rgb(38,38,38)" x="0 6 12 18 24 " y="-0">40000</text>
   </g>
   <polyline fill="none" points="55.0026,86.9654 379.163,86.9654" stroke="#262626" stroke-dasharray="16,0" stroke-linecap="square" stroke-linejoin="miter" stroke-width="0.5"/>
   <polyline fill="none" points="55.0026,27.5668 379.163,27.5668" stroke="#262626" stroke-dasharray="16,0" stroke-linecap="square" stroke-linejoin="miter" stroke-width="0.5"/>
   <polyline fill="none" points="55.0026,86.9654 55.0026,27.5668" stroke="#262626" stroke-dasharray="16,0" stroke-linecap="square" stroke-linejoin="miter" stroke-width="0.5"/>
   <polyline fill="none" points="379.163,86.9654 379.163,27.5668" stroke="#262626" stroke-dasharray="16,0" stroke-linecap="square" stroke-linejoin="miter" stroke-width="0.5"/>
   <g font-family="FreeSans" font-size="11" font-style="normal" font-weight="normal" transform="translate(-28.4999,57.2661) rotate(-90,43.5,0)" xml:space="preserve">
    <text fill="rgb(38,38,38)" x="0 3 10 17 24 28 33 35 41 " y="-3">|FFT(sig1</text>
    <text fill="rgb(38,38,38)" font-size="7.7" x="47 " y="-8">2</text>
    <text fill="rgb(38,38,38)" x="51 55 58 61 65 71 74 80 83 " y="-3">)| (a.u.)</text>
   </g>
   <polyline fill="none" points="54.6785,83.4956 54.7418,84.8537 54.9147,85.3612 55.0876,82.6785 55.2604,82.7502 55.4333,84.3062 55.6062,80.2738 55.779,85.723 55.9519,80.0244 56.1248,81.3316 56.2977,81.1521 56.4706,82.2937 56.6435,81.4748 56.8164,82.6109 56.9893,85.488 57.1621,81.9909 57.335,78.8614 57.5079,83.5521 57.6808,81.3434 57.8536,84.4066 58.0265,84.916 58.1994,81.3597 58.3725,83.9957 58.5452,81.5514 58.7181,85.3207 58.8911,80.2415 59.064,82.1918 59.2367,81.42 59.4097,80.2149 59.5826,85.9947 59.7555,84.405 59.9282,80.8965 60.1012,82.6555 60.2741,78.8996 60.4471,84.7756 60.6199,83.8173 60.7928,84.8716 60.9657,82.6193 61.1386,84.0646 61.3114,82.1497 61.4843,83.9644 61.6572,84.2661 61.83,86.3675 62.0029,80.7048 62.1758,81.2908 62.3487,78.4461 62.5215,85.2835 62.6945,84.5177 62.8674,84.2105 63.0403,84.0351 63.2131,83.8023 63.386,83.9623 63.5589,81.0038 63.7319,85.27 63.9046,81.2026 64.0775,82.7096 64.2505,74.2004 64.4234,84.5144 64.5961,82.6893 64.7691,82.9184 64.9421,83.2708 65.115,81.7915 65.2877,82.847 65.4607,84.2263 65.6336,80.1237 65.8065,82.4973 65.9793,85.6559 66.1522,85.1258 66.3251,80.4894 66.498,82.8351 66.6709,82.5446 66.8438,85.4883 67.0167,84.953 67.1896,85.8285 67.3624,83.9186 67.5353,81.6909 67.7082,80.9682 67.881,82.9223 68.0539,82.6741 68.2268,84.0951 68.3997,84.9404 68.5725,81.9393 68.7455,84.1162 68.9184,79.5579 69.0914,84.9272 69.2641,84.2036 69.437,84.9406 69.61,83.8796 69.7829,81.6566 69.9556,84.8605 70.1285,82.2871 70.3015,84.4622 70.4744,84.4178 70.6471,84.722 70.8202,82.2621 70.9931,84.4177 71.166,83.3687 71.3388,82.1888 71.5117,82.1517 71.6846,80.7434 71.8575,82.1639 72.0303,86.35 72.2032,84.0068 72.3761,82.0179 72.549,80.873 72.7218,83.5814 72.8948,84.5089 73.0677,82.6639 73.2406,80.9207 73.4134,83.8625 73.5863,84.3757 73.7592,84.6602 73.932,82.7528 74.1049,78.8847 74.2778,84.6595 74.4508,82.9778 74.6235,83.7479 74.7964,82.4073 74.9694,82.7811 75.1424,85.9145 75.3151,84.9415 75.488,83.7261 75.661,81.6621 75.8339,83.2625 76.0066,81.9197 76.1796,82.9107 76.3525,81.7548 76.5254,80.4981 76.6982,81.1726 76.8711,84.8033 77.0441,84.088 77.217,82.4616 77.3898,83.9392 77.5627,85.0591 77.7356,81.3272 77.9085,86.337 78.0813,85.8312 78.2542,84.3725 78.4271,84.2886 78.6,84.0529 78.7728,82.5537 78.9457,82.8965 79.1187,83.8349 79.2917,83.2563 79.4644,84.7057 79.6373,85.3163 79.8103,84.0369 79.983,83.2477 80.1559,82.0775 80.3288,82.5216 80.5018,83.2042 80.6745,78.5207 80.8474,83.971 81.0204,79.086 81.1934,80.8863 81.3661,79.1912 81.5391,81.7935 81.712,81.3601 81.8849,85.2649 82.0577,78.2315 82.2306,78.1856 82.4035,81.969 82.5764,82.3561 82.7492,85.8378 82.9221,84.254 83.095,84.6648 83.268,82.2756 83.4408,83.5549 83.6137,86.1971 83.7866,85.0284 83.9595,84.5229 84.1323,80.8716 84.3052,84.458 84.4781,82.8931 84.6511,78.9077 84.8238,85.5122 84.9967,85.5087 85.1696,81.102 85.3427,83.8759 85.5154,85.3012 85.6883,83.1983 85.8613,86.2574 86.034,83.7054 86.2069,84.0706 86.3799,84.2831 86.5528,86.3703 86.7255,86.5624 86.8985,86.5588 87.0714,83.5995 87.2443,84.4145 87.4172,85.4337 87.5901,85.6847 87.763,84.7492 87.9359,81.8223 88.1087,83.6265 88.2816,81.1662 88.4545,83.9569 88.6274,80.8175 88.8002,86.1524 88.9731,84.8076 89.146,81.3207 89.3189,84.6832 89.4918,85.5302 89.6647,82.0796 89.8376,85.9254 90.0106,77.9716 90.1833,85.0087 90.3562,84.0887 90.5291,84.4175 90.7021,81.2493 90.8748,84.7783 91.0477,80.6618 91.2207,85.098 91.3936,84.2471 91.5664,83.9421 91.7394,83.0314 91.9123,80.5786 92.085,82.0203 92.258,80.3788 92.4309,82.838 92.6038,83.8805 92.7765,84.7642 92.9495,81.2022 93.1224,83.7996 93.2953,81.9286 93.4682,83.146 93.6411,84.8265 93.814,83.954 93.9869,82.1032 94.1597,83.5726 94.3326,82.9004 94.5055,84.2248 94.6784,86.3526 94.8512,81.1611 95.0241,84.0658 95.197,85.1194 95.3699,84.2 95.5428,78.9572 95.7157,77.0762 95.8886,77.3884 96.0616,81.9031 96.2343,83.6099 96.4072,83.9904 96.5802,85.8341 96.7531,84.244 96.9258,84.8635 97.0988,82.0887 97.2717,84.6337 97.4446,83.5429 97.6174,82.0137 97.7904,84.0588 97.9633,82.9704 98.136,83.5589 98.309,83.6873 98.4819,83.1014 98.6548,84.3933 98.8276,82.9121 99.0005,79.9535 99.1734,80.8809 99.3463,79.3478 99.5191,80.6764 99.6921,82.1913 99.865,84.2368 100.038,80.0054 100.211,85.5286 100.384,82.8875 100.556,82.1886 100.729,79.9186 100.902,82.0627 101.075,81.387 101.248,83.937 101.421,82.8765 101.594,85.7136 101.767,82.0513 101.94,78.1895 102.113,85.0175 102.285,84.1628 102.458,81.1222 102.631,81.3282 102.804,79.3985 102.977,85.0024 103.15,82.7871 103.323,85.4592 103.496,85.9464 103.668,81.8298 103.841,84.9814 104.014,85.2628 104.187,79.814 104.36,85.5351 104.533,84.2566 104.706,85.1064 104.879,85.5592 105.052,81.7539 105.224,85.6752 105.397,80.0903 105.57,85.1082 105.743,79.0905 105.916,84.0913 106.089,81.4352 106.262,85.0696 106.435,82.0944 106.607,81.1258 106.78,83.4162 106.953,83.4661 107.126,82.5826 107.299,80.953 107.472,81.7572 107.645,85.7299 107.818,79.8815 107.991,84.3086 108.164,83.0223 108.336,81.6413 108.509,84.7446 108.682,84.8309 108.855,85.1503 109.028,85.1351 109.201,86.0685 109.374,83.5089 109.547,82.4011 109.719,80.952 109.892,81.807 110.065,81.4513 110.238,78.8542 110.411,82.2042 110.584,84.486 110.757,82.2865 110.93,80.2893 111.103,84.9682 111.275,82.9907 111.448,84.4757 111.621,84.7755 111.794,82.1446 111.967,80.0817 112.14,81.4689 112.313,83.0609 112.486,79.3843 112.659,82.6517 112.831,85.4767 113.004,83.2555 113.177,80.9796 113.35,81.4921 113.523,84.7778 113.696,85.8959 113.869,72.9377 114.042,85.6183 114.215,85.2275 114.387,83.8374 114.56,81.6812 114.733,81.2182 114.906,79.5542 115.079,80.4776 115.252,78.4771 115.425,85.9298 115.598,76.9024 115.77,84.595 115.943,82.363 116.116,83.8734 116.289,80.7479 116.462,82.5988 116.635,82.9842 116.808,83.1758 116.981,80.6359 117.154,83.9855 117.326,82.8646 117.499,84.7684 117.672,84.9044 117.845,83.4326 118.018,84.1777 118.191,81.4057 118.364,85.6087 118.537,83.4612 118.71,84.2229 118.882,86.8058 119.055,82.407 119.228,84.3049 119.401,80.3254 119.574,83.2471 119.747,85.7153 119.92,80.6337 120.093,82.1134 120.266,84.6249 120.438,83.3366 120.611,82.9317 120.784,82.1168 120.957,86.4889 121.13,85.4337 121.303,82.4408 121.476,76.0322 121.649,85.4775 121.821,84.6033 121.994,79.0747 122.167,85.283 122.34,84.9471 122.513,85.1202 122.686,82.7662 122.859,84.2529 123.032,82.582 123.204,82.6715 123.377,82.7103 123.55,84.3085 123.723,81.4539 123.896,84.7363 124.069,78.8133 124.242,82.572 124.415,82.5741 124.588,83.1695 124.761,81.6803 124.933,81.6182 125.106,83.6341 125.279,81.6938 125.452,83.2267 125.625,84.0154 125.798,82.5753 125.971,84.9616 126.144,80.9906 126.317,83.8275 126.489,82.002 126.662,83.3378 126.835,84.6458 127.008,81.9827 127.181,82.8633 127.354,82.8311 127.527,82.0773 127.7,85.65 127.872,85.6428 128.045,78.9932 128.218,82.6844 128.391,83.6331 128.564,85.0993 128.737,82.5573 128.91,82.4115 129.083,85.1612 129.255,85.3937 129.428,82.6628 129.601,82.6295 129.774,84.9717 129.947,85.3509 130.12,81.4626 130.293,84.0127 130.466,84.5633 130.639,83.1716 130.812,83.9361 130.984,80.6132 131.157,81.3661 131.33,78.9265 131.503,85.6942 131.676,82.993 131.849,79.1958 132.022,84.8969 132.195,82.8506 132.368,78.3441 132.54,82.212 132.713,83.5138 132.886,81.9832 133.059,85.9111 133.232,80.2484 133.405,84.0044 133.578,85.0304 133.751,83.8855 133.923,82.4906 134.096,84.3907 134.269,85.3763 134.442,85.7611 134.615,84.6495 134.788,84.0054 134.961,85.1439 135.134,84.4649 135.307,86.239 135.479,85.0556 135.652,83.5097 135.825,85.789 135.998,83.9707 136.171,83.9224 136.344,85.0516 136.517,82.2455 136.69,85.9342 136.863,83.6449 137.035,75.9173 137.208,86.2593 137.381,85.8231 137.554,82.5707 137.727,82.6653 137.9,84.5836 138.073,80.561 138.246,81.4583 138.419,80.8488 138.591,83.2909 138.764,81.9024 138.937,85.2201 139.11,84.4939 139.283,80.1016 139.456,83.0304 139.629,82.963 139.802,83.5421 139.974,83.632 140.147,82.2072 140.32,82.2468 140.493,79.6467 140.666,85.47 140.839,75.9136 141.012,85.3163 141.185,85.0921 141.358,86.5352 141.53,83.8292 141.703,76.049 141.876,81.846 142.049,80.4564 142.222,82.8375 142.395,85.86 142.568,80.7088 142.741,80.5492 142.914,81.5574 143.086,80.36 143.259,82.3797 143.432,83.4179 143.605,80.86 143.778,79.9422 143.951,80.5267 144.124,85.3248 144.297,84.5473 144.47,79.6177 144.642,81.1945 144.815,80.4973 144.988,83.7089 145.161,85.3651 145.334,84.5868 145.507,84.6541 145.68,84.3051 145.853,84.1605 146.025,84.2224 146.198,85.6447 146.371,82.0258 146.544,84.8502 146.717,80.6248 146.89,83.2516 147.063,84.1019 147.236,81.4187 147.409,84.7886 147.581,84.2455 147.754,81.731 147.927,80.4139 148.1,82.4607 148.273,83.0226 148.446,81.0138 148.619,81.2455 148.792,81.8215 148.965,85.5397 149.137,83.1979 149.31,84.0268 149.483,83.6237 149.656,85.2661 149.829,85.1245 150.002,83.8265 150.175,80.8179 150.348,85.1027 150.521,81.4278 150.693,82.0667 150.866,84.3424 151.039,84.6567 151.212,78.6497 151.385,79.4465 151.558,85.1147 151.731,79.9648 151.904,81.0565 152.076,83.2694 152.249,81.1147 152.422,82.6482 152.595,85.3715 152.768,84.1345 152.941,84.6264 153.114,79.738 153.287,84.4403 153.46,82.5357 153.632,83.9606 153.805,82.2263 153.978,84.1555 154.151,80.752 154.324,81.7786 154.497,84.4789 154.67,83.4501 154.843,84.9458 155.016,80.6021 155.189,80.1154 155.361,81.2723 155.534,83.233 155.707,82.6587 155.88,78.6168 156.053,85.7697 156.226,82.2756 156.399,82.9634 156.572,80.2833 156.744,84.8626 156.917,81.2039 157.09,82.1133 157.263,83.8355 157.436,83.3652 157.609,81.3657 157.782,85.047 157.955,84.4881 158.127,85.9956 158.3,83.3652 158.473,85.9778 158.646,84.6597 158.819,84.2316 158.992,82.9946 159.165,77.8135 159.338,83.3889 159.511,81.6462 159.683,83.6146 159.856,85.9707 160.029,86.291 160.202,78.5199 160.375,83.0038 160.548,85.545 160.721,82.8705 160.894,79.8248 161.067,83.0052 161.24,83.5146 161.412,85.3315 161.585,79.8215 161.758,80.2957 161.931,84.9866 162.104,83.8222 162.277,84.7057 162.45,84.1032 162.623,80.4215 162.795,76.9413 162.968,83.8817 163.141,82.787 163.314,81.0439 163.487,79.76 163.66,84.1997 163.833,84.9181 164.006,82.5495 164.178,83.2371 164.351,80.6898 164.524,80.9052 164.697,85.0425 164.87,82.8549 165.043,80.2178 165.216,85.3985 165.389,81.9573 165.562,82.9849 165.734,84.8315 165.907,86.5344 166.08,82.3377 166.253,83.4892 166.426,82.0867 166.599,85.081 166.772,82.97 166.945,83.6107 167.118,82.5413 167.291,82.9356 167.463,82.8288 167.636,84.2566 167.809,84.5004 167.982,81.0701 168.155,80.0531 168.328,78.5041 168.501,79.7672 168.674,83.8893 168.846,76.024 169.019,80.0179 169.192,84.8682 169.365,84.3831 169.538,82.1647 169.711,83.9164 169.884,82.972 170.057,79.115 170.229,83.444 170.402,83.0828 170.575,81.3817 170.748,84.7856 170.921,82.587 171.094,83.6579 171.267,82.7516 171.44,78.923 171.613,82.8587 171.785,80.5821 171.958,81.2034 172.131,80.5987 172.304,83.72 172.477,84.431 172.65,81.2514 172.823,84.1119 172.996,82.5441 173.169,85.7306 173.342,84.5092 173.514,79.0946 173.687,86.4169 173.86,83.4069 174.033,81.507 174.206,81.1311 174.379,82.8146 174.552,84.669 174.725,82.5313 174.897,79.6195 175.07,82.2611 175.243,84.6942 175.416,83.3394 175.589,81.4327 175.762,84.9118 175.935,81.0509 176.108,83.9875 176.28,85.0869 176.453,81.5684 176.626,83.0084 176.799,85.6877 176.972,81.4965 177.145,85.0425 177.318,83.2998 177.491,80.2469 177.664,83.5464 177.837,83.2892 178.009,80.0781 178.182,81.1785 178.355,85.1322 178.528,83.3417 178.701,84.338 178.874,84.9703 179.047,80.5107 179.22,82.2817 179.393,85.0742 179.565,81.4143 179.738,84.5373 179.911,79.8395 180.084,84.9099 180.257,81.1341 180.43,82.9937 180.603,85.9465 180.776,78.8494 180.948,82.5301 181.121,81.866 181.294,82.6514 181.467,85.8638 181.64,80.8222 181.813,81.8863 181.986,86.3736 182.159,79.8975 182.331,83.1519 182.504,83.7583 182.677,84.1183 182.85,85.4659 183.023,84.0431 183.196,80.0349 183.369,81.2906 183.542,78.0608 183.715,84.831 183.888,85.0124 184.06,83.8742 184.233,83.5951 184.406,83.0452 184.579,82.9319 184.752,83.7068 184.925,82.4397 185.098,85.8831 185.271,82.0447 185.444,85.1866 185.616,80.62 185.789,83.1059 185.962,84.7803 186.135,85.8434 186.308,80.9246 186.481,79.8728 186.654,78.8881 186.827,83.0077 186.999,81.6333 187.172,81.1106 187.345,83.015 187.518,84.9767 187.691,80.8316 187.864,82.3201 188.037,77.6202 188.21,80.0054 188.382,79.1377 188.555,83.2567 188.728,86.1524 188.901,85.202 189.074,83.2893 189.247,80.76 189.42,85.1456 189.593,83.1898 189.766,79.8994 189.939,79.9915 190.111,79.1879 190.284,84.9754 190.457,86.1548 190.63,84.0515 190.803,81.9261 190.976,84.8086 191.149,84.0062 191.322,79.8821 191.495,86.0199 191.667,82.3964 191.84,85.054 192.013,83.0076 192.186,85.0595 192.359,78.4945 192.532,82.0358 192.705,79.0388 192.878,83.7673 193.05,82.9132 193.223,85.7245 193.396,85.0666 193.569,63.4814 193.742,79.9812 193.915,82.3566 194.088,81.327 194.261,82.5811 194.433,81.6891 194.606,86.661 194.779,80.1718 194.952,71.7135 195.125,82.7879 195.298,82.6137 195.471,79.6557 195.644,81.6378 195.817,84.1736 195.99,86.5455 196.162,82.3055 196.335,81.5546 196.508,84.3125 196.681,82.6556 196.854,85.3696 197.027,83.8461 197.2,83.5325 197.373,80.1763 197.546,83.5974 197.718,82.7332 197.891,85.5763 198.064,82.2752 198.237,85.3563 198.41,83.3558 198.583,83.7556 198.756,85.0071 198.929,85.2339 199.101,85.7952 199.274,82.1961 199.447,84.4964 199.62,86.1826 199.793,82.7919 199.966,84.3933 200.139,82.1431 200.312,84.956 200.485,83.3929 200.657,80.5343 200.83,80.0193 201.003,84.233 201.176,79.6972 201.349,82.5484 201.522,80.6512 201.695,85.5927 201.868,83.784 202.041,79.1336 202.213,79.8726 202.386,85.6288 202.559,82.6413 202.732,78.8925 202.905,84.8752 203.078,82.3749 203.251,81.5829 203.424,80.8034 203.597,85.9255 203.769,80.6432 203.942,85.7589 204.115,80.2683 204.288,81.5113 204.461,84.7715 204.634,83.5601 204.807,80.1339 204.98,82.8246 205.152,85.9791 205.325,78.9212 205.498,83.9078 205.671,83.141 205.844,85.5507 206.017,85.9411 206.19,75.4001 206.363,80.5734 206.536,81.533 206.708,84.2935 206.881,86.4966 207.054,81.2088 207.227,76.5173 207.4,83.0782 207.573,83.9032 207.746,82.7022 207.919,82.7539 208.092,85.0466 208.264,82.3099 208.437,77.2435 208.61,81.9134 208.783,81.818 208.956,86.4276 209.129,83.1094 209.302,84.119 209.475,82.4747 209.648,84.6374 209.82,80.5044 209.993,83.162 210.166,83.2907 210.339,84.162 210.512,83.9004 210.685,80.8942 210.858,83.7068 211.031,80.4776 211.203,84.5201 211.376,83.175 211.549,82.0804 211.722,84.4378 211.895,82.398 212.068,84.2881 212.241,85.1577 212.414,82.1942 212.587,84.248 212.759,82.465 212.932,83.4742 213.105,79.478 213.278,85.0338 213.451,86.0975 213.624,85.9068 213.797,82.1964 213.97,81.7098 214.143,83.8229 214.315,81.5498 214.488,82.5911 214.661,85.9446 214.834,85.4696 215.007,84.3391 215.18,83.299 215.353,80.6242 215.526,83.9815 215.699,82.9008 215.871,79.1259 216.044,81.4177 216.217,85.2628 216.39,83.1393 216.563,84.5329 216.736,83.8173 216.909,80.8527 217.082,86.5135 217.254,81.4305 217.427,79.357 217.6,80.3279 217.773,72.2437 217.946,71.819 218.119,82.7806 218.292,78.3114 218.465,77.8333 218.638,85.0361 218.81,81.6561 218.983,84.1073 219.156,83.5545 219.329,82.8761 219.502,84.8409 219.675,79.1923 219.848,82.6815 220.021,85.6436 220.193,80.3304 220.366,78.8875 220.539,82.39 220.712,83.2059 220.885,84.6789 221.058,86.0428 221.231,82.3794 221.404,84.2701 221.577,81.863 221.749,83.3508 221.922,84.2131 222.095,83.3591 222.268,82.0854 222.441,78.9707 222.614,85.5501 222.787,85.2289 222.96,80.4615 223.133,82.4273 223.306,83.4641 223.478,86.3276 223.651,85.1073 223.824,85.9216 223.997,84.5901 224.17,84.4991 224.343,84.6759 224.516,82.2093 224.689,80.7896 224.861,84.1735 225.034,84.4327 225.207,85.6385 225.38,80.8533 225.553,85.2662 225.726,84.6864 225.899,83.1182 226.072,82.5948 226.245,81.6668 226.417,80.9374 226.59,81.2545 226.763,79.0632 226.936,77.2762 227.109,50.4843 227.282,67.183 227.455,76.2312 227.628,76.146 227.8,84.1017 227.973,82.9846 228.146,84.3237 228.319,80.6163 228.492,82.6938 228.665,84.9036 228.838,81.666 229.011,84.2003 229.184,86.1064 229.357,83.5116 229.529,83.087 229.702,83.6231 229.875,82.6298 230.048,86.2775 230.221,82.2926 230.394,83.1591 230.567,82.2026 230.74,85.3313 230.912,82.68 231.085,78.7677 231.258,81.471 231.431,81.7617 231.604,84.7192 231.777,83.5334 231.95,83.5943 232.123,81.4722 232.296,83.6479 232.468,80.4788 232.641,84.1607 232.814,86.4353 232.987,84.7991 233.16,77.6192 233.333,79.5938 233.506,80.1588 233.679,83.203 233.851,86.0292 234.024,85.4561 234.197,84.7543 234.37,82.9838 234.543,82.6657 234.716,84.4951 234.889,78.7565 235.062,86.0079 235.235,85.4377 235.408,83.1519 235.58,83.2872 235.753,81.7197 235.926,75.7693 236.099,84.7263 236.272,81.8095 236.445,77.9569 236.618,84.53 236.791,80.4154 236.963,82.7137 237.136,83.1698 237.309,85.3497 237.482,84.1034 237.655,83.9256 237.828,81.3378 238.001,84.0918 238.174,82.7994 238.347,81.8315 238.519,82.9769 238.692,83.159 238.865,84.7479 239.038,80.1293 239.211,57.2925 239.384,79.5094 239.557,82.6145 239.73,79.2646 239.902,81.6983 240.075,83.8138 240.248,86.2435 240.421,82.1779 240.594,84.6499 240.767,84.3958 240.94,84.407 241.113,79.5445 241.286,86.5463 241.459,81.205 241.631,81.9637 241.804,82.7292 241.977,83.2644 242.15,84.4218 242.323,82.6622 242.496,80.914 242.669,82.9427 242.842,81.7087 243.014,83.7994 243.187,85.1466 243.36,80.9293 243.533,80.8723 243.706,77.5878 243.879,81.2354 244.052,86.6152 244.225,81.5222 244.398,84.1169 244.57,82.9241 244.743,83.6194 244.916,80.0405 245.089,54.104 245.262,70.7329 245.435,84.7752 245.608,81.6085 245.781,83.918 245.954,83.8371 246.126,81.7348 246.299,82.8106 246.472,83.0765 246.645,81.1521 246.818,83.9199 246.991,83.3388 247.164,84.9047 247.337,83.0367 247.51,83.6729 247.682,85.1552 247.855,81.3759 248.028,83.0917 248.201,83.3323 248.374,81.4077 248.547,84.4569 248.72,81.0805 248.893,81.297 249.065,82.4211 249.238,82.2336 249.411,83.9572 249.584,83.2514 249.757,81.7818 249.93,86.3026 250.103,85.4174 250.276,85.6892 250.449,84.2968 250.621,80.6032 250.794,83.4344 250.967,82.8804 251.14,81.768 251.313,83.1973 251.486,81.8347 251.659,81.8888 251.832,83.617 252.005,82.8752 252.177,84.4341 252.35,79.222 252.523,85.8701 252.696,80.0486 252.869,81.0971 253.042,82.2904 253.215,81.8411 253.388,86.7088 253.561,81.5516 253.733,82.4848 253.906,78.2258 254.079,85.9567 254.252,84.5721 254.425,83.6123 254.598,85.3053 254.771,85.2018 254.944,79.6433 255.116,84.7291 255.289,81.3192 255.462,79.8257 255.635,82.6337 255.808,79.7925 255.981,79.0043 256.154,82.7615 256.327,77.427 256.5,80.2444 256.672,82.403 256.845,83.897 257.018,83.8107 257.191,81.2323 257.364,80.4294 257.537,82.2712 257.71,80.8412 257.883,75.3768 258.056,85.7198 258.228,80.3739 258.401,80.1531 258.574,84.8422 258.747,84.8597 258.92,83.9565 259.093,81.4281 259.266,82.4751 259.439,84.2333 259.612,82.935 259.784,82.7116 259.957,79.0496 260.13,84.2077 260.303,79.6327 260.476,45.2913 260.649,67.3309 260.822,82.2224 260.995,83.4588 261.167,79.835 261.34,78.4394 261.513,81.6696 261.686,84.0076 261.859,83.5882 262.032,83.775 262.205,81.0421 262.378,85.0498 262.551,82.2495 262.723,84.5525 262.896,86.4796 263.069,86.5154 263.242,82.3761 263.415,81.576 263.588,83.7382 263.761,79.6253 263.934,83.637 264.107,80.5988 264.279,79.8156 264.452,81.5019 264.625,82.3616 264.798,81.251 264.971,80.3881 265.144,82.3039 265.317,81.8595 265.49,85.1046 265.663,81.613 265.835,81.9468 266.008,80.0813 266.181,81.6988 266.354,84.8922 266.527,84.1658 266.7,81.895 266.873,80.6987 267.046,84.3927 267.218,85.349 267.391,82.6821 267.564,84.4972 267.737,79.4586 267.91,84.1678 268.083,84.0732 268.256,80.5924 268.429,81.3629 268.602,84.0331 268.774,85.7749 268.947,81.9448 269.12,84.8713 269.293,81.5707 269.466,83.4095 269.639,82.2761 269.812,82.6382 269.985,81.4635 270.158,84.9888 270.33,81.2974 270.503,84.4872 270.676,81.4819 270.849,82.2002 271.022,84.2211 271.195,84.5188 271.368,82.9619 271.541,84.2318 271.714,81.8637 271.886,82.7749 272.059,79.547 272.232,83.1434 272.405,83.071 272.578,86.011 272.751,82.6531 272.924,77.1504 273.097,79.7704 273.269,80.1987 273.442,85.8087 273.615,80.0232 273.788,82.3645 273.961,85.1082 274.134,86.2184 274.307,85.2358 274.48,82.7259 274.653,83.8758 274.825,81.7449 274.998,82.0688 275.171,82.636 275.344,84.3197 275.517,83.4096 275.69,81.2048 275.863,83.1324 276.036,84.8403 276.208,83.1861 276.381,81.7343 276.554,82.851 276.727,78.5872 276.9,82.9581 277.073,83.3459 277.246,83.7605 277.419,83.8447 277.592,83.0265 277.765,84.3617 277.937,82.7443 278.11,68.9444 278.283,84.3221 278.456,79.5807 278.629,83.5302 278.802,82.2675 278.975,81.0123 279.148,81.2596 279.32,80.9698 279.493,81.5256 279.666,82.704 279.839,81.3278 280.012,83.7845 280.185,81.2841 280.358,84.9267 280.531,81.0626 280.704,85.7864 280.876,86.1917 281.049,78.2251 281.222,82.4831 281.395,86.4969 281.568,82.7739 281.741,82.6743 281.914,79.667 282.087,85.2992 282.26,83.3097 282.432,82.0677 282.605,81.8685 282.778,82.6714 282.951,83.2608 283.124,83.1096 283.297,83.7112 283.47,83.5208 283.643,81.826 283.816,83.7654 283.988,84.1212 284.161,83.6029 284.334,84.9401 284.507,79.6976 284.68,83.5598 284.853,83.4544 285.026,86.3399 285.199,81.7211 285.371,82.7997 285.544,84.0025 285.717,85.1445 285.89,83.8053 286.063,81.6696 286.236,81.75 286.409,80.9331 286.582,80.5683 286.755,82.2951 286.927,81.8921 287.1,81.8727 287.273,85.2142 287.446,85.3573 287.619,83.4946 287.792,84.1011 287.965,83.149 288.138,82.9787 288.31,83.9751 288.484,84.0875 288.656,82.8255 288.829,82.6144 289.002,83.4315 289.175,85.9544 289.348,82.5073 289.521,83.8471 289.694,82.369 289.867,80.2083 290.039,83.3051 290.212,85.7231 290.385,81.9642 290.558,84.8242 290.731,85.3563 290.904,78.1086 291.077,82.9843 291.25,82.1982 291.423,81.1428 291.595,82.6494 291.768,84.2033 291.941,80.5896 292.114,82.9313 292.287,85.7787 292.46,83.885 292.633,82.9518 292.806,85.9384 292.978,84.3316 293.151,82.4826 293.324,82.438 293.497,81.6641 293.67,84.093 293.843,84.1113 294.016,81.738 294.189,81.254 294.362,80.8294 294.534,78.6788 294.707,86.6354 294.88,77.7327 295.053,83.1663 295.226,83.5297 295.399,85.309 295.572,85.1295 295.745,79.7224 295.918,78.5888 296.09,83.4874 296.263,78.1081 296.436,81.1054 296.609,83.1469 296.782,82.6286 296.955,83.1661 297.128,84.5805 297.301,83.4925 297.474,82.5967 297.646,82.7985 297.819,83.2676 297.992,85.6225 298.165,83.1239 298.338,82.7051 298.511,82.1261 298.684,83.2212 298.857,82.9482 299.029,85.9345 299.202,83.013 299.375,81.37 299.548,83.8115 299.721,81.7469 299.894,81.24 300.067,80.2473 300.24,85.6827 300.413,80.7486 300.586,80.9953 300.758,79.6326 300.931,84.8174 301.104,77.3966 301.277,82.7631 301.45,82.6584 301.623,82.4169 301.796,81.8332 301.969,81.8859 302.141,83.7215 302.314,81.7676 302.487,83.549 302.66,84.5262 302.833,80.9143 303.006,81.6702 303.179,85.1386 303.352,82.8881 303.525,81.4943 303.697,79.0999 303.87,82.2334 304.043,79.0679 304.216,84.8766 304.389,81.6244 304.562,82.6565 304.735,81.1171 304.908,79.4463 305.081,84.5645 305.253,83.833 305.426,83.1528 305.599,77.0042 305.772,83.089 305.945,86.2659 306.118,82.0882 306.291,79.745 306.464,82.7841 306.636,82.5927 306.809,82.8659 306.982,84.9302 307.155,84.0456 307.328,85.9369 307.501,78.8211 307.674,83.9785 307.847,80.6638 308.02,83.7903 308.192,84.2102 308.365,84.7154 308.538,84.8905 308.711,81.102 308.884,83.2413 309.057,85.3717 309.23,84.9563 309.403,85.4294 309.576,82.8185 309.748,84.7186 309.921,83.6783 310.094,79.7322 310.267,84.9279 310.44,80.4797 310.613,82.7075 310.786,78.3859 310.959,83.2329 311.132,86.0009 311.304,80.3761 311.477,84.1099 311.65,84.0041 311.823,82.5677 311.996,83.673 312.169,79.4259 312.342,79.4114 312.515,78.3026 312.687,76.8022 312.86,80.4899 313.033,82.8907 313.206,81.7923 313.379,84.7348 313.552,83.1368 313.725,83.224 313.898,82.0769 314.071,82.7775 314.243,84.8812 314.416,81.3874 314.589,81.8757 314.762,80.887 314.935,80.14 315.108,82.0451 315.281,84.4908 315.454,81.2351 315.627,84.0497 315.799,86.3817 315.972,84.738 316.145,83.2708 316.318,80.3228 316.491,83.6864 316.664,84.7387 316.837,85.5096 317.01,79.7607 317.182,80.8287 317.355,82.6155 317.528,81.5669 317.701,84.6755 317.874,85.6823 318.047,82.629 318.22,85.293 318.393,84.2641 318.566,81.9228 318.738,85.6096 318.911,83.0848 319.084,78.6282 319.257,82.5248 319.43,83.8772 319.603,85.2083 319.776,79.7056 319.949,81.8325 320.122,82.041 320.294,79.8004 320.467,80.8717 320.64,86.504 320.813,80.1021 320.986,84.3881 321.159,84.8009 321.332,83.8913 321.505,83.1515 321.678,81.057 321.85,81.8718 322.023,84.8788 322.196,85.6109 322.369,85.6044 322.542,84.9947 322.715,82.2262 322.888,81.9685 323.061,84.2562 323.234,84.2551 323.406,85.2988 323.579,85.8536 323.752,82.0999 323.925,79.3492 324.098,83.8523 324.271,75.6389 324.444,83.5776 324.617,84.2335 324.789,83.0439 324.962,82.9235 325.135,82.6917 325.308,79.2738 325.481,81.614 325.654,82.6333 325.827,81.6192 326,83.1142 326.173,84.4442 326.345,80.8696 326.518,85.4595 326.691,84.4937 326.864,84.8912 327.037,86.004 327.21,85.216 327.383,79.581 327.556,80.3739 327.729,86.266 327.902,81.6445 328.074,81.5772 328.247,82.9257 328.42,83.5995 328.593,81.1491 328.766,81.7734 328.939,84.3509 329.112,84.097 329.285,85.3639 329.457,79.752 329.63,81.2873 329.803,81.0318 329.976,83.5159 330.149,84.7978 330.322,80.2406 330.495,83.5209 330.668,81.698 330.84,83.9818 331.013,82.5955 331.186,79.4176 331.359,83.2559 331.532,81.2347 331.705,84.8477 331.878,78.1504 332.051,83.8861 332.224,85.2401 332.396,81.4644 332.569,82.4964 332.742,82.1368 332.915,81.3678 333.088,83.0249 333.261,81.5111 333.434,79.947 333.607,83.0073 333.78,82.907 333.953,86.0513 334.125,78.5808 334.298,84.0054 334.471,83.1508 334.644,85.0852 334.817,86.1516 334.99,82.2141 335.163,82.4411 335.336,84.7027 335.508,83.0902 335.681,86.2684 335.854,84.4695 336.027,80.2619 336.2,80.9501 336.373,85.1796 336.546,86.1506 336.719,84.5454 336.892,82.0344 337.064,84.4576 337.237,83.5669 337.41,81.5483 337.583,80.7556 337.756,82.5555 337.929,83.2155 338.102,84.0386 338.275,81.8734 338.447,85.6169 338.62,83.1555 338.793,82.1643 338.966,84.7343 339.139,82.4247 339.312,83.3443 339.485,82.3445 339.658,83.5562 339.831,86.4335 340.004,84.0062 340.176,84.2118 340.349,83.2954 340.522,82.1411 340.695,86.4679 340.868,81.3557 341.041,85.7491 341.214,81.8889 341.387,81.6929 341.559,81.344 341.732,82.4139 341.905,83.934 342.078,80.6938 342.251,81.063 342.424,84.202 342.597,84.906 342.77,79.5539 342.943,86.1527 343.115,81.9856 343.288,84.7065 343.461,83.8884 343.634,85.7023 343.807,80.4632 343.98,83.2743 344.153,85.8793 344.326,82.0208 344.498,81.8805 344.671,83.1587 344.844,79.9315 345.017,85.0648 345.19,85.358 345.363,81.5335 345.536,84.5919 345.709,85.2134 345.882,81.6223 346.055,81.8487 346.227,74.5563 346.4,85.7859 346.573,82.2627 346.746,83.421 346.919,78.6978 347.092,83.1346 347.265,83.6551 347.438,81.724 347.61,81.7043 347.783,84.4211 347.956,82.7435 348.129,85.2459 348.302,86.1715 348.475,84.0323 348.648,78.2313 348.821,80.0193 348.994,84.3142 349.166,84.8703 349.339,83.8852 349.512,81.4496 349.685,85.9103 349.858,84.6176 350.031,83.8528 350.204,81.9731 350.377,86.4025 350.549,79.3521 350.722,85.767 350.895,78.5754 351.068,84.6173 351.241,84.0939 351.414,85.24 351.587,80.346 351.76,83.2179 351.933,82.9119 352.105,83.7985 352.278,80.7474 352.451,85.0711 352.624,79.6081 352.797,81.0124 352.97,84.6388 353.143,82.2689 353.316,83.039 353.489,83.5423 353.661,85.359 353.834,83.4763 354.007,83.5342 354.18,82.5782 354.353,83.9238 354.526,81.5225 354.699,83.883 354.872,78.5478 355.045,83.2514 355.217,85.4988 355.39,80.3074 355.563,83.2614 355.736,77.4933 355.909,78.8573 356.082,81.5715 356.255,82.4752 356.428,82.7474 356.601,84.7104 356.773,82.9518 356.946,84.562 357.119,80.8588 357.292,84.8239 357.465,82.5307 357.638,81.0155 357.811,81.2384 357.984,84.4964 358.156,81.1206 358.329,84.2675 358.502,84.2484 358.675,84.7097 358.848,77.9115 359.021,83.8498 359.194,83.5402 359.367,85.8826 359.54,85.1922 359.712,80.7847 359.885,76.6374 360.058,79.6951 360.231,79.518 360.404,84.7888 360.577,81.3088 360.75,82.0973 360.923,84.6173 361.096,85.0543 361.268,85.3577 361.441,81.1977 361.614,84.7624 361.787,81.5155 361.96,80.4659 362.133,83.1423 362.306,81.7998 362.479,83.0958 362.651,84.5447 362.824,82.7067 362.997,83.0154 363.17,81.0415 363.343,83.715 363.516,79.829 363.689,81.6218 363.862,84.7478 364.035,83.5712 364.207,83.7421 364.38,82.2948 364.553,80.1739 364.726,81.548 364.899,84.7789 365.072,85.5475 365.245,83.2421 365.418,82.6375 365.591,84.4804 365.763,83.1902 365.936,80.9628 366.109,86.3548 366.282,85.5374 366.455,84.0633 366.628,81.8911 366.801,84.1442 366.974,83.7659 367.147,85.1286 367.319,80.5026 367.492,84.4705 367.665,76.7292 367.838,82.6513 368.011,80.9822 368.184,83.5258 368.357,86.3418 368.53,79.1317 368.703,79.6985 368.875,82.0491 369.048,83.7077 369.221,80.6008 369.394,83.0878 369.567,79.938 369.74,80.2659 369.913,86.3674 370.086,86.7415 370.258,85.4067 370.431,77.0467 370.604,85.5645 370.777,85.2075 370.95,80.5671 371.123,82.4289 371.296,81.9401 371.469,85.2385 371.642,84.2953 371.814,80.2268 371.987,84.7904 372.16,82.1599 372.333,81.479 372.506,77.6787 372.679,80.0325 372.852,81.1701 373.025,77.1515 373.198,86.1352 373.37,85.4728 373.543,81.112 373.716,77.6559 373.889,84.6781 374.062,84.1696 374.235,83.2773 374.408,85.6008 374.581,85.336 374.753,84.3962 374.926,82.4679 375.099,81.5727 375.272,82.8991 375.445,81.8038 375.618,83.0565 375.791,81.9613 375.964,83.9079 376.137,82.1686 376.309,78.3741 376.482,81.7396 376.655,83.2659 376.828,82.4217 377.001,85.8751 377.174,84.6026 377.347,83.4797 377.52,82.7935 377.693,85.094 377.865,81.5562 378.038,84.9775 378.211,83.0826 378.384,85.1956 378.557,83.2271 378.73,84.3641 378.903,81.2563 379.076,82.6847 379.249,80.0086 379.421,83.6109 379.487,84.6902" stroke="#0071bc" stroke-linecap="butt" stroke-linejoin="round" stroke-width="0.5"/>
  </g>
  <clipPath id="cp00418314">
   <polygon points="0,314 418,314 418,0 0,0"/>
  </clipPath>
  <g clip-path="url(#cp00418314)">
   <polygon fill="#ffffff" points="55.0026,183.312 379.163,183.312 379.163,123.914 55.0026,123.914" shape-rendering="crispEdges"/>
   <polyline fill="none" points="55.0026,183.312 55.0026,180.049" stroke="#262626" stroke-linecap="butt" stroke-linejoin="miter" stroke-width="0.5"/>
   <polyline fill="none" points="55.0026,123.914 55.0026,127.177" stroke="#262626" stroke-linecap="butt" stroke-linejoin="miter" stroke-width="0.5"/>
   <polyline fill="none" points="98.224,183.312 98.224,180.049" stroke="#262626" stroke-linecap="butt" stroke-linejoin="miter" stroke-width="0.5"/>
   <polyline fill="none" points="98.224,123.914 98.224,127.177" stroke="#262626" stroke-linecap="butt" stroke-linejoin="miter" stroke-width="0.5"/>
   <polyline fill="none" points="141.445,183.312 141.445,180.049" stroke="#262626" stroke-linecap="butt" stroke-linejoin="miter" stroke-width="0.5"/>
   <polyline fill="none" points="141.445,123.914 141.445,127.177" stroke="#262626" stroke-linecap="butt" stroke-linejoin="miter" stroke-width="0.5"/>
   <polyline fill="none" points="184.667,183.312 184.667,180.049" stroke="#262626" stroke-linecap="butt" stroke-linejoin="miter" stroke-width="0.5"/>
   <polyline fill="none" points="184.667,123.914 184.667,127.177" stroke="#262626" stroke-linecap="butt" stroke-linejoin="miter" stroke-width="0.5"/>
   <polyline fill="none" points="227.888,183.312 227.888,180.049" stroke="#262626" stroke-linecap="butt" stroke-linejoin="miter" stroke-width="0.5"/>
   <polyline fill="none" points="227.888,123.914 227.888,127.177" stroke="#262626" stroke-linecap="butt" stroke-linejoin="miter" stroke-width="0.5"/>
   <polyline fill="none" points="271.11,183.312 271.11,180.049" stroke="#262626" stroke-linecap="butt" stroke-linejoin="miter" stroke-width="0.5"/>
   <polyline fill="none" points="271.11,123.914 271.11,127.177" stroke="#262626" stroke-linecap="butt" stroke-linejoin="miter" stroke-width="0.5"/>
   <polyline fill="none" points="314.331,183.312 314.331,180.049" stroke="#262626" stroke-linecap="butt" stroke-linejoin="miter" stroke-width="0.5"/>
   <polyline fill="none" points="314.331,123.914 314.331,127.177" stroke="#262626" stroke-linecap="butt" stroke-linejoin="miter" stroke-width="0.5"/>
   <polyline fill="none" points="357.553,183.312 357.553,180.049" stroke="#262626" stroke-linecap="butt" stroke-linejoin="miter" stroke-width="0.5"/>
   <polyline fill="none" points="357.553,123.914 357.553,127.177" stroke="#262626" stroke-linecap="butt" stroke-linejoin="miter" stroke-width="0.5"/>
   <g font-family="FreeSans" font-size="10" font-style="normal" font-weight="normal" transform="translate(43.0026,198.863) rotate(-0,12,-8)" xml:space="preserve">
    <text fill="rgb(38,38,38)" x="0 3 9 12 18 " y="-0">-0.07</text>
   </g>
   <g font-family="FreeSans" font-size="10" font-style="normal" font-weight="normal" transform="translate(83.224,198.863) rotate(-0,15,-8)" xml:space="preserve">
    <text fill="rgb(38,38,38)" x="0 3 9 12 18 24 " y="-0">-0.068</text>
   </g>
   <g font-family="FreeSans" font-size="10" font-style="normal" font-weight="normal" transform="translate(126.445,198.863) rotate(-0,15,-8)" xml:space="preserve">
    <text fill="rgb(38,38,38)" x="0 3 9 12 18 24 " y="-0">-0.066</text>
   </g>
   <g font-family="FreeSans" font-size="10" font-style="normal" font-weight="normal" transform="translate(169.667,198.863) rotate(-0,15,-8)" xml:space="preserve">
    <text fill="rgb(38,38,38)" x="0 3 9 12 18 24 " y="-0">-0.064</text>
   </g>
   <g font-family="FreeSans" font-size="10" font-style="normal" font-weight="normal" transform="translate(212.888,198.863) rotate(-0,15,-8)" xml:space="preserve">
    <text fill="rgb(38,38,38)" x="0 3 9 12 18 24 " y="-0">-0.062</text>
   </g>
   <g font-family="FreeSans" font-size="10" font-style="normal" font-weight="normal" transform="translate(259.11,198.863) rotate(-0,12,-8)" xml:space="preserve">
    <text fill="rgb(38,38,38)" x="0 3 9 12 18 " y="-0">-0.06</text>
   </g>
   <g font-family="FreeSans" font-size="10" font-style="normal" font-weight="normal" transform="translate(299.331,198.863) rotate(-0,15,-8)" xml:space="preserve">
    <text fill="rgb(38,38,38)" x="0 3 9 12 18 24 " y="-0">-0.058</text>
   </g>
   <g font-family="FreeSans" font-size="10" font-style="normal" font-weight="normal" transform="translate(342.553,198.863) rotate(-0,15,-8)" xml:space="preserve">
    <text fill="rgb(38,38,38)" x="0 3 9 12 18 24 " y="-0">-0.056</text>
   </g>
   <polyline fill="none" points="55.0026,183.312 58.2459,183.312" stroke="#262626" stroke-linecap="butt" stroke-linejoin="miter" stroke-width="0.5"/>
   <polyline fill="none" points="379.163,183.312 375.92,183.312" stroke="#262626" stroke-linecap="butt" stroke-linejoin="miter" stroke-width="0.5"/>
   <polyline fill="none" points="55.0026,168.463 58.2459,168.463" stroke="#262626" stroke-linecap="butt" stroke-linejoin="miter" stroke-width="0.5"/>
   <polyline fill="none" points="379.163,168.463 375.92,168.463" stroke="#262626" stroke-linecap="butt" stroke-linejoin="miter" stroke-width="0.5"/>
   <polyline fill="none" points="55.0026,153.613 58.2459,153.613" stroke="#262626" stroke-linecap="butt" stroke-linejoin="miter" stroke-width="0.5"/>
   <polyline fill="none" points="379.163,153.613 375.92,153.613" stroke="#262626" stroke-linecap="butt" stroke-linejoin="miter" stroke-width="0.5"/>
   <polyline fill="none" points="55.0026,138.763 58.2459,138.763" stroke="#262626" stroke-linecap="butt" stroke-linejoin="miter" stroke-width="0.5"/>
   <polyline fill="none" points="379.163,138.763 375.92,138.763" stroke="#262626" stroke-linecap="butt" stroke-linejoin="miter" stroke-width="0.5"/>
   <polyline fill="none" points="55.0026,123.914 58.2459,123.914" stroke="#262626" stroke-linecap="butt" stroke-linejoin="miter" stroke-width="0.5"/>
   <polyline fill="none" points="379.163,123.914 375.92,123.914" stroke="#262626" stroke-linecap="butt" stroke-linejoin="miter" stroke-width="0.5"/>
   <g font-family="FreeSans" font-size="10" font-style="normal" font-weight="normal" transform="translate(44.0001,187.312) rotate(-0,6,-4)" xml:space="preserve">
    <text fill="rgb(38,38,38)" x="0 " y="-0">0</text>
   </g>
   <g font-family="FreeSans" font-size="10" font-style="normal" font-weight="normal" transform="translate(20.0001,172.463) rotate(-0,30,-4)" xml:space="preserve">
    <text fill="rgb(38,38,38)" x="0 6 12 18 24 " y="-0">10000</text>
   </g>
   <g font-family="FreeSans" font-size="10" font-style="normal" font-weight="normal" transform="translate(20.0001,157.613) rotate(-0,30,-4)" xml:space="preserve">
    <text fill="rgb(38,38,38)" x="0 6 12 18 24 " y="-0">20000</text>
   </g>
   <g font-family="FreeSans" font-size="10" font-style="normal" font-weight="normal" transform="translate(20.0001,142.763) rotate(-0,30,-4)" xml:space="preserve">
    <text fill="rgb(38,38,38)" x="0 6 12 18 24 " y="-0">30000</text>
   </g>
   <g font-family="FreeSans" font-size="10" font-style="normal" font-weight="normal" transform="translate(20.0001,127.914) rotate(-0,30,-4)" xml:space="preserve">
    <text fill="rgb(38,38,38)" x="0 6 12 18 24 " y="-0">40000</text>
   </g>
   <polyline fill="none" points="55.0026,183.312 379.163,183.312" stroke="#262626" stroke-dasharray="16,0" stroke-linecap="square" stroke-linejoin="miter" stroke-width="0.5"/>
   <polyline fill="none" points="55.0026,123.914 379.163,123.914" stroke="#262626" stroke-dasharray="16,0" stroke-linecap="square" stroke-linejoin="miter" stroke-width="0.5"/>
   <polyline fill="none" points="55.0026,183.312 55.0026,123.914" stroke="#262626" stroke-dasharray="16,0" stroke-linecap="square" stroke-linejoin="miter" stroke-width="0.5"/>
   <polyline fill="none" points="379.163,183.312 379.163,123.914" stroke="#262626" stroke-dasharray="16,0" stroke-linecap="square" stroke-linejoin="miter" stroke-width="0.5"/>
   <g font-family="FreeSans" font-size="11" font-style="normal" font-weight="normal" transform="translate(-28.4999,153.613) rotate(-90,43.5,0)" xml:space="preserve">
    <text fill="rgb(38,38,38)" x="0 3 10 17 24 28 33 35 41 " y="-3">|FFT(sig2</text>
    <text fill="rgb(38,38,38)" font-size="7.7" x="47 " y="-8">2</text>
    <text fill="rgb(38,38,38)" x="51 55 58 61 65 71 74 80 83 " y="-3">)| (a.u.)</text>
   </g>
   <polyline fill="none" points="54.6785,177.789 54.7418,178.404 54.9147,179.334 55.0876,180.192 55.2604,177.223 55.4333,180.61 55.6062,180.264 55.779,182.607 55.9519,181.46 56.1248,179.351 56.2977,179.353 56.4706,175.928 56.6435,178.882 56.8164,176.615 56.9893,177.373 57.1621,174.13 57.335,176.29 57.5079,177.254 57.6808,175.082 57.8536,180.016 58.0265,179.789 58.1994,181.473 58.3725,182.833 58.5452,181.464 58.7181,180.43 58.8911,179.973 59.064,180.47 59.2367,181.45 59.4097,181.842 59.5826,180.783 59.7555,175.266 59.9282,180.997 60.1012,179.114 60.2741,182.79 60.4471,180.413 60.6199,180.951 60.7928,174.953 60.9657,178.782 61.1386,178.787 61.3114,181.106 61.4843,178.076 61.6572,181.628 61.83,179.232 62.0029,177.656 62.1758,178.215 62.3487,179.29 62.5215,181.143 62.6945,178.816 62.8674,179.911 63.0403,177.593 63.2131,177.931 63.386,179.855 63.5589,176.687 63.7319,180.092 63.9046,178.704 64.0775,178.507 64.2505,180.17 64.4234,180.86 64.5961,179.875 64.7691,179.863 64.9421,179.197 65.115,177.29 65.2877,182.784 65.4607,176.247 65.6336,182.093 65.8065,180.028 65.9793,180.59 66.1522,177.27 66.3251,174.712 66.498,173.656 66.6709,177.521 66.8438,181.172 67.0167,175.693 67.1896,177.388 67.3624,177.051 67.5353,178.095 67.7082,177.275 67.881,179.206 68.0539,181.678 68.2268,173.759 68.3997,180.324 68.5725,179.096 68.7455,179.931 68.9184,176.908 69.0914,182.39 69.2641,178.162 69.437,180.866 69.61,177.36 69.7829,180.724 69.9556,174.531 70.1285,176.505 70.3015,182.554 70.4744,180.518 70.6471,176.325 70.8202,178.651 70.9931,182.686 71.166,180.983 71.3388,181.367 71.5117,180.636 71.6846,182.127 71.8575,175.826 72.0303,182.047 72.2032,178.114 72.3761,181.753 72.549,180.918 72.7218,179.174 72.8948,179.111 73.0677,180.923 73.2406,179.491 73.4134,178.689 73.5863,177.09 73.7592,180.539 73.932,181.742 74.1049,178.965 74.2778,180.921 74.4508,179.959 74.6235,174.824 74.7964,179.804 74.9694,173.137 75.1424,179.78 75.3151,177.928 75.488,177.714 75.661,180.752 75.8339,179.631 76.0066,179.375 76.1796,179.244 76.3525,181.317 76.5254,178.523 76.6982,176.869 76.8711,181.35 77.0441,182.998 77.217,180.361 77.3898,177.843 77.5627,180.858 77.7356,172.063 77.9085,179.047 78.0813,177.64 78.2542,179.342 78.4271,177.796 78.6,178.167 78.7728,180.338 78.9457,179.044 79.1187,181.62 79.2917,180.656 79.4644,179.464 79.6373,180.283 79.8103,180.098 79.983,175.229 80.1559,176.388 80.3288,181.124 80.5018,177.624 80.6745,178.122 80.8474,178.923 81.0204,181.529 81.1934,182.167 81.3661,176.575 81.5391,181.71 81.712,180.244 81.8849,179.46 82.0577,177.844 82.2306,174.615 82.4035,178.263 82.5764,180.643 82.7492,179.991 82.9221,180.146 83.095,179.637 83.268,179.439 83.4408,177.724 83.6137,178.194 83.7866,177.888 83.9595,179.149 84.1323,172.234 84.3052,178.401 84.4781,181.895 84.6511,179.824 84.8238,180.389 84.9967,180.912 85.1696,179.341 85.3427,179.784 85.5154,178.094 85.6883,177.394 85.8613,179.499 86.034,181.219 86.2069,176.525 86.3799,177.139 86.5528,181.306 86.7255,178.345 86.8985,177.928 87.0714,179.062 87.2443,175.686 87.4172,177.242 87.5901,180.869 87.763,178.773 87.9359,175.559 88.1087,181.074 88.2816,179.575 88.4545,179.49 88.6274,179.558 88.8002,180.049 88.9731,179.242 89.146,183.118 89.3189,178.309 89.4918,181.627 89.6647,179.353 89.8376,179.332 90.0106,179.503 90.1833,179.281 90.3562,182.576 90.5291,177.153 90.7021,179.923 90.8748,176.269 91.0477,181.271 91.2207,181.711 91.3936,179.497 91.5664,178.406 91.7394,180.281 91.9123,179.242 92.085,181.959 92.258,178.889 92.4309,181.969 92.6038,180.755 92.7765,182.596 92.9495,183.193 93.1224,182.461 93.2953,176.454 93.4682,181.489 93.6411,180.814 93.814,179.259 93.9869,181.393 94.1597,180.75 94.3326,180.39 94.5055,178.492 94.6784,177.973 94.8512,180.911 95.0241,177.673 95.197,175.199 95.3699,178.884 95.5428,178.567 95.7157,179.651 95.8886,181.404 96.0616,178.751 96.2343,179.918 96.4072,180.221 96.5802,176.589 96.7531,178.561 96.9258,181.872 97.0988,180.646 97.2717,177.931 97.4446,180.549 97.6174,176.977 97.7904,177.53 97.9633,177.096 98.136,180.592 98.309,183.135 98.4819,181.434 98.6548,180.503 98.8276,178.274 99.0005,179.786 99.1734,181.47 99.3463,176.92 99.5191,180.114 99.6921,182.858 99.865,179.887 100.038,180.386 100.211,180.627 100.384,178.905 100.556,182.29 100.729,182.791 100.902,180.626 101.075,178.174 101.248,177.318 101.421,176.67 101.594,177.993 101.767,181.478 101.94,177.273 102.113,180.498 102.285,179.383 102.458,181.518 102.631,180.248 102.804,180.521 102.977,179.725 103.15,178.245 103.323,179.266 103.496,180.014 103.668,176.391 103.841,180.343 104.014,182.206 104.187,181.692 104.36,179.105 104.533,180.469 104.706,178.454 104.879,181.21 105.052,181.005 105.224,179.428 105.397,179.967 105.57,181.637 105.743,179.087 105.916,180.805 106.089,180.1 106.262,179.803 106.435,180.009 106.607,177.884 106.78,181.454 106.953,182.277 107.126,182.224 107.299,178.039 107.472,181.183 107.645,181.853 107.818,180.631 107.991,179.218 108.164,180.568 108.336,180.273 108.509,177.995 108.682,181.968 108.855,178.769 109.028,180.553 109.201,180.411 109.374,181.536 109.547,179.678 109.719,181.291 109.892,180.633 110.065,182.563 110.238,179.373 110.411,177.026 110.584,175.79 110.757,179.599 110.93,176.199 111.103,174.494 111.275,175.005 111.448,181.848 111.621,181.072 111.794,179.319 111.967,176.467 112.14,178.952 112.313,177.932 112.486,180.759 112.659,179.301 112.831,181.181 113.004,174.02 113.177,181.351 113.35,178.248 113.523,180.024 113.696,179.157 113.869,180.753 114.042,175.545 114.215,177.058 114.387,180.359 114.56,181.064 114.733,182.236 114.906,177.608 115.079,179.421 115.252,175.248 115.425,181.973 115.598,178.178 115.77,179.983 115.943,181.76 116.116,180.992 116.289,174.398 116.462,180.636 116.635,181.955 116.808,178.672 116.981,179.921 117.154,180.093 117.326,180.892 117.499,180.818 117.672,177.548 117.845,180.15 118.018,181.65 118.191,180.24 118.364,180.17 118.537,176.851 118.71,181.867 118.882,182.397 119.055,175.716 119.228,176.748 119.401,180.664 119.574,180.292 119.747,181.838 119.92,178.985 120.093,181.095 120.266,178.218 120.438,176.689 120.611,180.974 120.784,177.982 120.957,182.969 121.13,177.679 121.303,176.5 121.476,180.587 121.649,179.872 121.821,174.283 121.994,182.323 122.167,177.631 122.34,181.345 122.513,182.039 122.686,178.728 122.859,180.762 123.032,182.66 123.204,179.109 123.377,180.732 123.55,178.396 123.723,171.629 123.896,181.401 124.069,180.394 124.242,181.533 124.415,179.107 124.588,174.54 124.761,181.601 124.933,180.379 125.106,181.34 125.279,179.528 125.452,178.273 125.625,178.531 125.798,179.376 125.971,181.633 126.144,178.822 126.317,180.387 126.489,176.9 126.662,180.56 126.835,177.648 127.008,182.587 127.181,177.182 127.354,180.017 127.527,177.412 127.7,177.637 127.872,179.314 128.045,178.702 128.218,179.525 128.391,181.857 128.564,179.042 128.737,180.712 128.91,176.01 129.083,181.492 129.255,180.288 129.428,178.65 129.601,179.102 129.774,176.169 129.947,182.742 130.12,178.282 130.293,179.44 130.466,177.39 130.639,180.747 130.812,182.449 130.984,181.059 131.157,178.838 131.33,178.09 131.503,176.319 131.676,178.858 131.849,179.621 132.022,177.11 132.195,181.135 132.368,175.213 132.54,176.979 132.713,179.895 132.886,179.03 133.059,179.761 133.232,176.552 133.405,179.16 133.578,178.863 133.751,182.389 133.923,179.82 134.096,181.031 134.269,179.028 134.442,178.493 134.615,180.112 134.788,175.837 134.961,177.442 135.134,179.453 135.307,181.643 135.479,181.337 135.652,179.658 135.825,179.463 135.998,181.975 136.171,181.279 136.344,180.077 136.517,181.718 136.69,180.352 136.863,181.452 137.035,175.01 137.208,179.834 137.381,178.827 137.554,179.974 137.727,181.551 137.9,181.466 138.073,179.762 138.246,175.739 138.419,178.175 138.591,180.741 138.764,180.392 138.937,177.966 139.11,178.885 139.283,179.362 139.456,181.707 139.629,176.318 139.802,176.263 139.974,179.719 140.147,179.663 140.32,180.508 140.493,179.276 140.666,178.285 140.839,180.726 141.012,182.389 141.185,179.652 141.358,179.673 141.53,178.389 141.703,182.519 141.876,179.518 142.049,180.772 142.222,180.888 142.395,181.158 142.568,180.235 142.741,181.129 142.914,181.146 143.086,180.742 143.259,178.792 143.432,178.563 143.605,179.736 143.778,178.939 143.951,176.551 144.124,181.439 144.297,179.443 144.47,174.411 144.642,176.703 144.815,175.404 144.988,182.106 145.161,181.499 145.334,175.404 145.507,178.925 145.68,176.234 145.853,175.503 146.025,176.966 146.198,178.251 146.371,181.148 146.544,180.835 146.717,177.185 146.89,180.497 147.063,180.529 147.236,174.449 147.409,182.52 147.581,177.332 147.754,181.796 147.927,176.73 148.1,177.828 148.273,178.475 148.446,179.089 148.619,177.085 148.792,180.157 148.965,180.964 149.137,177.153 149.31,176.232 149.483,180.012 149.656,179.276 149.829,176.217 150.002,179.191 150.175,179.501 150.348,179.96 150.521,182.1 150.693,180.851 150.866,177.462 151.039,181.081 151.212,177.482 151.385,178.251 151.558,179.698 151.731,178.198 151.904,182.142 152.076,178.688 152.249,180.664 152.422,180.513 152.595,181.529 152.768,174.804 152.941,177.707 153.114,178.595 153.287,177.372 153.46,176.567 153.632,182.137 153.805,176.09 153.978,178.514 154.151,177.529 154.324,177.192 154.497,180.595 154.67,177.734 154.843,181.52 155.016,180.228 155.189,179.26 155.361,177.499 155.534,175.027 155.707,178.989 155.88,181.086 156.053,175.876 156.226,180.676 156.399,180.284 156.572,179.958 156.744,182.132 156.917,177.127 157.09,180.3 157.263,181.687 157.436,180.594 157.609,181.713 157.782,178.776 157.955,175.07 158.127,177.021 158.3,174.963 158.473,179.348 158.646,180.931 158.819,179.39 158.992,179.236 159.165,180.717 159.338,182.576 159.511,181.608 159.683,179.887 159.856,179.826 160.029,178.027 160.202,177.991 160.375,174.974 160.548,182.262 160.721,181.275 160.894,179.666 161.067,180.557 161.24,181.355 161.412,180.538 161.585,177.114 161.758,179.176 161.931,181.111 162.104,175.691 162.277,179.427 162.45,175.121 162.623,181.496 162.795,176.005 162.968,177.841 163.141,179.559 163.314,180.572 163.487,178.912 163.66,180.847 163.833,174.89 164.006,178.199 164.178,180.778 164.351,178.369 164.524,181.6 164.697,179.029 164.87,179.654 165.043,178.858 165.216,179.637 165.389,178.892 165.562,179.216 165.734,181.637 165.907,179.229 166.08,182.602 166.253,176.674 166.426,180.941 166.599,178.105 166.772,180.562 166.945,180.886 167.118,175.91 167.291,179.539 167.463,174.826 167.636,181.154 167.809,179.168 167.982,180.192 168.155,181.39 168.328,176.777 168.501,180.448 168.674,175.189 168.846,177.144 169.019,177.917 169.192,178.145 169.365,181.88 169.538,180.634 169.711,180.97 169.884,179.601 170.057,179.106 170.229,177.378 170.402,179.903 170.575,176.813 170.748,177.773 170.921,181.12 171.094,179.856 171.267,174.23 171.44,179.27 171.613,181.364 171.785,179.173 171.958,182.403 172.131,180.212 172.304,180.409 172.477,182.129 172.65,179.278 172.823,180.41 172.996,180.722 173.169,177.83 173.342,176.381 173.514,178.918 173.687,181.449 173.86,179.432 174.033,181.14 174.206,179.743 174.379,178.987 174.552,179.844 174.725,176.18 174.897,175.825 175.07,177.314 175.243,176.783 175.416,174.144 175.589,178.449 175.762,180.833 175.935,178.298 176.108,178.893 176.28,179.265 176.453,174.049 176.626,179.729 176.799,178.258 176.972,180.869 177.145,177.721 177.318,181.644 177.491,182.376 177.664,179.193 177.837,179.378 178.009,179.07 178.182,178.18 178.355,180.932 178.528,180.865 178.701,177.797 178.874,182.917 179.047,182.012 179.22,180.131 179.393,177.751 179.565,178.08 179.738,172.588 179.911,181.036 180.084,177.525 180.257,180.639 180.43,179.439 180.603,176.954 180.776,181.962 180.948,178.245 181.121,181.032 181.294,181.214 181.467,182.886 181.64,181.734 181.813,179.206 181.986,177.378 182.159,176.152 182.331,178.15 182.504,181.035 182.677,176.558 182.85,180.223 183.023,178.612 183.196,177.633 183.369,179.408 183.542,176.069 183.715,180.27 183.888,178.56 184.06,178.063 184.233,179.057 184.406,178.229 184.579,180.269 184.752,179.79 184.925,178.839 185.098,180.288 185.271,178.139 185.444,181.938 185.616,178.178 185.789,182.028 185.962,177.352 186.135,179.456 186.308,178.939 186.481,179.755 186.654,178.583 186.827,179.41 186.999,179.421 187.172,181.293 187.345,179.427 187.518,180.165 187.691,179.714 187.864,176.777 188.037,176.034 188.21,177.145 188.382,177.235 188.555,178.282 188.728,181.196 188.901,177.919 189.074,178.903 189.247,177.762 189.42,176.576 189.593,176.106 189.766,180.502 189.939,178.988 190.111,179.08 190.284,180.119 190.457,180.323 190.63,177.321 190.803,174.469 190.976,180.574 191.149,181.084 191.322,182.21 191.495,177.312 191.667,182.301 191.84,179.467 192.013,177.508 192.186,174.827 192.359,179.352 192.532,178.99 192.705,174.335 192.878,182.799 193.05,175.162 193.223,179.262 193.396,177.13 193.569,147.408 193.742,175.524 193.915,178.877 194.088,179.423 194.261,178.677 194.433,175.669 194.606,180.599 194.779,178.67 194.952,179.499 195.125,182.251 195.298,174.636 195.471,177.957 195.644,178.537 195.817,182.964 195.99,178.561 196.162,178.193 196.335,181.145 196.508,182.147 196.681,178.39 196.854,179.396 197.027,180.507 197.2,177.675 197.373,180.585 197.546,178.66 197.718,178.692 197.891,178.053 198.064,182.041 198.237,181.273 198.41,181.585 198.583,181.626 198.756,182.65 198.929,179.171 199.101,180.242 199.274,176.451 199.447,181.802 199.62,178.857 199.793,180.884 199.966,180.829 200.139,180.474 200.312,180.594 200.485,173.989 200.657,174.651 200.83,179.686 201.003,182.131 201.176,177.889 201.349,179.506 201.522,177.498 201.695,180.77 201.868,181.599 202.041,179.61 202.213,179.066 202.386,176.164 202.559,180.654 202.732,177.061 202.905,181.744 203.078,176.807 203.251,182.43 203.424,179.451 203.597,172.229 203.769,179.964 203.942,178.293 204.115,181.153 204.288,177.731 204.461,178.628 204.634,181.961 204.807,177.851 204.98,175.364 205.152,182.176 205.325,180.675 205.498,181.494 205.671,177.448 205.844,180.708 206.017,177.93 206.19,182.902 206.363,178.478 206.536,177.402 206.708,179.69 206.881,180.797 207.054,177.896 207.227,177.549 207.4,178.39 207.573,178.55 207.746,178.625 207.919,181.532 208.092,181.293 208.264,182.135 208.437,180.258 208.61,172.864 208.783,180.659 208.956,176.662 209.129,177.838 209.302,180.968 209.475,181.339 209.648,180.613 209.82,181.75 209.993,179.617 210.166,181.854 210.339,180.783 210.512,180.241 210.685,182.368 210.858,175.727 211.031,179.567 211.203,179.244 211.376,180.891 211.549,179.896 211.722,179.354 211.895,180.993 212.068,179.148 212.241,183.032 212.414,180.983 212.587,181.138 212.759,180.635 212.932,180.996 213.105,180.985 213.278,180.335 213.451,182.939 213.624,179.92 213.797,181.572 213.97,182.285 214.143,182.084 214.315,181.974 214.488,180.297 214.661,181.394 214.834,178.507 215.007,179.225 215.18,177.387 215.353,178.261 215.526,178.17 215.699,180.762 215.871,181.485 216.044,179.095 216.217,181.262 216.39,180.764 216.563,179.742 216.736,177.84 216.909,176.209 217.082,176.889 217.254,179.206 217.427,181.217 217.6,180.239 217.773,176.318 217.946,180.038 218.119,181.075 218.292,178.827 218.465,178.956 218.638,180.17 218.81,179.409 218.983,179.974 219.156,180.753 219.329,182.033 219.502,181.934 219.675,181.217 219.848,178.693 220.021,180.355 220.193,182.503 220.366,178.38 220.539,181.161 220.712,182.011 220.885,180.153 221.058,180.667 221.231,178.955 221.404,180.018 221.577,176.623 221.749,180.745 221.922,176.802 222.095,179.559 222.268,177.214 222.441,175.3 222.614,176.52 222.787,180.049 222.96,173.964 223.133,180.173 223.306,179.673 223.478,177.701 223.651,180.426 223.824,179.475 223.997,182.269 224.17,180.64 224.343,178.224 224.516,177.954 224.689,178.926 224.861,181.171 225.034,182.561 225.207,180.952 225.38,182.019 225.553,176.999 225.726,179.996 225.899,176.867 226.072,180.27 226.245,176.895 226.417,178.336 226.59,180.063 226.763,182.003 226.936,179.761 227.109,162.136 227.282,174.771 227.455,178.79 227.628,179.486 227.8,180.423 227.973,178.389 228.146,177.488 228.319,179.604 228.492,180.273 228.665,180.618 228.838,180.831 229.011,180.273 229.184,179.925 229.357,182.519 229.529,178.488 229.702,176.628 229.875,180.527 230.048,179.843 230.221,179.213 230.394,181.506 230.567,176.595 230.74,181.197 230.912,181.523 231.085,179.358 231.258,179.887 231.431,180.523 231.604,181.42 231.777,177.423 231.95,177.637 232.123,180.072 232.296,177.525 232.468,179.762 232.641,182.783 232.814,182.203 232.987,179.705 233.16,180.454 233.333,180.845 233.506,180.221 233.679,177.558 233.851,181.727 234.024,181.09 234.197,178.29 234.37,179.437 234.543,179.049 234.716,181.365 234.889,179.888 235.062,179.418 235.235,182.057 235.408,176.396 235.58,176.086 235.753,180.693 235.926,181.584 236.099,178.136 236.272,180.51 236.445,180.996 236.618,181.891 236.791,179.218 236.963,181.257 237.136,180.929 237.309,180.94 237.482,177.928 237.655,178.26 237.828,176.577 238.001,180.219 238.174,180.397 238.347,182.045 238.519,177.217 238.692,180.933 238.865,179.896 239.038,181.998 239.211,140.574 239.384,174.943 239.557,178.303 239.73,178.985 239.902,175.274 240.075,177.149 240.248,178.913 240.421,175.554 240.594,181.407 240.767,173.525 240.94,179.978 241.113,178.579 241.286,178.708 241.459,177.972 241.631,176.914 241.804,181.551 241.977,179.179 242.15,180.247 242.323,177.411 242.496,178.544 242.669,180.094 242.842,177.617 243.014,175.702 243.187,177.298 243.36,179.705 243.533,174.864 243.706,181.763 243.879,182.684 244.052,178.677 244.225,178.928 244.398,182.414 244.57,179.894 244.743,176.672 244.916,179.274 245.089,144.509 245.262,164.256 245.435,178.468 245.608,178.335 245.781,178.9 245.954,180.485 246.126,175.473 246.299,179.284 246.472,175.025 246.645,178.494 246.818,182.679 246.991,174.557 247.164,182.63 247.337,181.118 247.51,178.186 247.682,178.777 247.855,180.721 248.028,178.995 248.201,180.823 248.374,177.793 248.547,180.828 248.72,174.846 248.893,182.52 249.065,181.558 249.238,177.937 249.411,179.756 249.584,177.68 249.757,176.78 249.93,177.528 250.103,180.186 250.276,181.389 250.449,178.427 250.621,179.871 250.794,179.612 250.967,177.587 251.14,177.431 251.313,179.048 251.486,181.462 251.659,179.96 251.832,175.374 252.005,181.813 252.177,182.959 252.35,179.628 252.523,182.028 252.696,175.827 252.869,179.376 253.042,179.922 253.215,181.763 253.388,178.634 253.561,177.113 253.733,180.768 253.906,180.732 254.079,179.233 254.252,180.086 254.425,181.954 254.598,177.188 254.771,182.196 254.944,179.069 255.116,178.482 255.289,181.798 255.462,181.661 255.635,178.084 255.808,179.641 255.981,179.615 256.154,179.554 256.327,180.074 256.5,174.015 256.672,178.311 256.845,180.738 257.018,179.56 257.191,179.964 257.364,175.502 257.537,180.015 257.71,180.089 257.883,172.174 258.056,176.852 258.228,179.027 258.401,179.035 258.574,177.034 258.747,179.032 258.92,180.221 259.093,178.865 259.266,182.233 259.439,179.86 259.612,181.941 259.784,178.071 259.957,181.853 260.13,175.485 260.303,177.824 260.476,167.841 260.649,175.082 260.822,178.643 260.995,175.645 261.167,178.529 261.34,179.228 261.513,181.42 261.686,182.347 261.859,179.604 262.032,178.736 262.205,177.541 262.378,181.754 262.551,177.744 262.723,180.92 262.896,179.479 263.069,181.05 263.242,182.11 263.415,181.123 263.588,179.097 263.761,181.313 263.934,181.388 264.107,179.46 264.279,180.25 264.452,178.793 264.625,177.17 264.798,180.425 264.971,179.967 265.144,180.433 265.317,181.273 265.49,180.505 265.663,177.094 265.835,179.978 266.008,179.5 266.181,180.542 266.354,179.531 266.527,179.393 266.7,179.961 266.873,178.98 267.046,181.709 267.218,179.421 267.391,176.103 267.564,180.485 267.737,180.69 267.91,179.359 268.083,179.971 268.256,182.093 268.429,181.538 268.602,182.129 268.774,180.162 268.947,177.752 269.12,176.933 269.293,178.43 269.466,182.13 269.639,180.763 269.812,178.138 269.985,178.37 270.158,178.79 270.33,182.581 270.503,180.741 270.676,177.709 270.849,180.362 271.022,181.441 271.195,178.7 271.368,177.411 271.541,181.551 271.714,176.767 271.886,180.023 272.059,179.67 272.232,177.051 272.405,179.641 272.578,179.767 272.751,178.952 272.924,174.845 273.097,179.408 273.269,178.521 273.442,179.729 273.615,179.554 273.788,177.913 273.961,175.382 274.134,178.086 274.307,180.507 274.48,177.479 274.653,180.84 274.825,180.402 274.998,182.429 275.171,177.535 275.344,178.425 275.517,180.09 275.69,178.181 275.863,177.401 276.036,179.714 276.208,181.812 276.381,179.273 276.554,178.236 276.727,178.166 276.9,180.935 277.073,180.679 277.246,178.175 277.419,178.69 277.592,182.037 277.765,179.91 277.937,173.719 278.11,138.627 278.283,181.878 278.456,181.47 278.629,174.468 278.802,178.818 278.975,174.837 279.148,181.986 279.32,177.776 279.493,176.712 279.666,182.673 279.839,179.477 280.012,180.884 280.185,180.563 280.358,181.681 280.531,178.488 280.704,177.583 280.876,177.908 281.049,179.697 281.222,180.05 281.395,180.136 281.568,182.019 281.741,180.641 281.914,180.875 282.087,178.728 282.26,178.287 282.432,180.162 282.605,176.519 282.778,176.589 282.951,178.546 283.124,180.402 283.297,181.391 283.47,178.527 283.643,178.995 283.816,179.247 283.988,176.649 284.161,178.363 284.334,182.324 284.507,177.565 284.68,181.889 284.853,179.521 285.026,180.368 285.199,179.671 285.371,177.765 285.544,179.963 285.717,180.275 285.89,177.998 286.063,177.368 286.236,182.122 286.409,181.949 286.582,179.609 286.755,179.797 286.927,178.41 287.1,181.376 287.273,179.907 287.446,180.036 287.619,182.808 287.792,182.76 287.965,179.612 288.138,177.179 288.31,178.885 288.484,182.553 288.656,181.508 288.829,179.257 289.002,181.945 289.175,176.594 289.348,180.486 289.521,178.87 289.694,175.193 289.867,177.102 290.039,180.999 290.212,177.587 290.385,179.307 290.558,178.14 290.731,182.259 290.904,179.295 291.077,179.882 291.25,179.891 291.423,176.81 291.595,178.899 291.768,180.078 291.941,180.759 292.114,181.321 292.287,182.973 292.46,177.956 292.633,181.32 292.806,179.781 292.978,178.161 293.151,178.244 293.324,178.019 293.497,180.426 293.67,180.029 293.843,179.812 294.016,178.496 294.189,182.404 294.362,180.374 294.534,180.986 294.707,179.581 294.88,180.426 295.053,180.963 295.226,176.79 295.399,180.32 295.572,180.027 295.745,182.21 295.918,180.011 296.09,178.431 296.263,182.531 296.436,179.688 296.609,178.355 296.782,180.775 296.955,179.641 297.128,181.251 297.301,178.841 297.474,182.402 297.646,181.993 297.819,180.732 297.992,180.814 298.165,182.388 298.338,179.163 298.511,175.985 298.684,176.548 298.857,181.323 299.029,181.083 299.202,178.349 299.375,175.141 299.548,181.075 299.721,181.041 299.894,180.35 300.067,177.802 300.24,178.041 300.413,175.375 300.586,181.879 300.758,181.249 300.931,181.13 301.104,178.931 301.277,177.108 301.45,179.643 301.623,177.387 301.796,177.639 301.969,179.816 302.141,179.53 302.314,179.97 302.487,179.309 302.66,178.751 302.833,178.68 303.006,179.471 303.179,177.165 303.352,181.685 303.525,178.756 303.697,178.781 303.87,179.154 304.043,177.753 304.216,180.568 304.389,181.333 304.562,180.614 304.735,179.088 304.908,179.174 305.081,177.382 305.253,181.61 305.426,177.112 305.599,167.011 305.772,181.681 305.945,178.008 306.118,181.395 306.291,179.904 306.464,170.552 306.636,177.636 306.809,179.451 306.982,175.625 307.155,178.458 307.328,181.924 307.501,180.289 307.674,182.762 307.847,180.148 308.02,177.489 308.192,181.997 308.365,176.902 308.538,179.804 308.711,180.87 308.884,174.379 309.057,179.756 309.23,176.703 309.403,180.159 309.576,181.262 309.748,180.17 309.921,177.754 310.094,177.691 310.267,178.347 310.44,176.519 310.613,181.191 310.786,177.725 310.959,178.758 311.132,178.416 311.304,181.928 311.477,177.782 311.65,176.274 311.823,181.955 311.996,177.883 312.169,180.486 312.342,181.866 312.515,180.669 312.687,180.425 312.86,176.571 313.033,179.494 313.206,175.117 313.379,180.714 313.552,178.24 313.725,179.788 313.898,176.117 314.071,178.423 314.243,179.52 314.416,179.455 314.589,181.325 314.762,178.728 314.935,176.858 315.108,177.158 315.281,177.844 315.454,182.482 315.627,181.897 315.799,174.065 315.972,179.65 316.145,179.955 316.318,180.488 316.491,178.61 316.664,182.414 316.837,175.527 317.01,182.553 317.182,181.185 317.355,182.032 317.528,175.811 317.701,178.596 317.874,178.817 318.047,179.662 318.22,178.201 318.393,181.681 318.566,181.398 318.738,178.367 318.911,181.821 319.084,180.54 319.257,180.599 319.43,180.439 319.603,182.41 319.776,180.391 319.949,175.928 320.122,180.567 320.294,181.876 320.467,180.034 320.64,176.688 320.813,180.349 320.986,177.616 321.159,179.536 321.332,179.306 321.505,180.851 321.678,180.231 321.85,182.397 322.023,177.249 322.196,179.971 322.369,175.539 322.542,175.67 322.715,180.257 322.888,181.212 323.061,176.431 323.234,177.072 323.406,175.743 323.579,178.631 323.752,174.709 323.925,149.729 324.098,170.825 324.271,178.188 324.444,179.442 324.617,176.105 324.789,182.024 324.962,180.827 325.135,178.866 325.308,182.086 325.481,181.262 325.654,173.307 325.827,179.381 326,183.067 326.173,176.73 326.345,180.017 326.518,178.48 326.691,177.532 326.864,177.313 327.037,176.537 327.21,178.86 327.383,175.815 327.556,176.49 327.729,178.996 327.902,180.778 328.074,179.149 328.247,178.644 328.42,177.095 328.593,181.9 328.766,180.069 328.939,180.386 329.112,179.576 329.285,177.236 329.457,182.323 329.63,179.465 329.803,179.312 329.976,181.015 330.149,177.659 330.322,181.861 330.495,182.421 330.668,178.282 330.84,177.39 331.013,181.546 331.186,180.908 331.359,179.869 331.532,177.054 331.705,172.975 331.878,181.296 332.051,181.543 332.224,172.04 332.396,176.046 332.569,181.249 332.742,176.713 332.915,176.295 333.088,177.803 333.261,179.344 333.434,179.762 333.607,182.234 333.78,180.562 333.953,181.157 334.125,181.179 334.298,179.583 334.471,180.939 334.644,180.128 334.817,177.482 334.99,176.532 335.163,180.362 335.336,177.188 335.508,179.62 335.681,176.559 335.854,178.646 336.027,178.426 336.2,180.932 336.373,181.58 336.546,182.333 336.719,180.529 336.892,173.731 337.064,179.631 337.237,180.546 337.41,179.95 337.583,176.44 337.756,181.14 337.929,181.206 338.102,179.898 338.275,178.893 338.447,181.299 338.62,179.461 338.793,178.771 338.966,179.529 339.139,178.815 339.312,177.39 339.485,175.546 339.658,179.749 339.831,180.025 340.004,179.781 340.176,180.408 340.349,179.702 340.522,180.02 340.695,178.602 340.868,180.443 341.041,179.349 341.214,180.553 341.387,180.038 341.559,180.731 341.732,181.768 341.905,180.721 342.078,177.457 342.251,181.961 342.424,178.773 342.597,178.542 342.77,176.742 342.943,181.158 343.115,179.295 343.288,180.297 343.461,181.778 343.634,179.062 343.807,176.039 343.98,179.179 344.153,182.734 344.326,178.465 344.498,178.222 344.671,180.63 344.844,179.893 345.017,177.574 345.19,180.459 345.363,180.966 345.536,177.207 345.709,175.99 345.882,181.027 346.055,177.187 346.227,157.206 346.4,172.641 346.573,175.509 346.746,179.006 346.919,181.176 347.092,178.329 347.265,182.827 347.438,177.363 347.61,177.83 347.783,181.568 347.956,174.37 348.129,180.198 348.302,175.399 348.475,176.753 348.648,181.031 348.821,179.255 348.994,182.662 349.166,178.488 349.339,181.693 349.512,178.916 349.685,181.229 349.858,180.67 350.031,178.367 350.204,180.377 350.377,179.225 350.549,176.037 350.722,178.83 350.895,179.933 351.068,180.191 351.241,178.767 351.414,180.481 351.587,178.506 351.76,178.626 351.933,182.526 352.105,178.393 352.278,179.461 352.451,182.335 352.624,178.872 352.797,177.558 352.97,181.311 353.143,180.713 353.316,182.389 353.489,181.292 353.661,176.706 353.834,177.977 354.007,181.149 354.18,177.047 354.353,179.663 354.526,174.899 354.699,176.341 354.872,177.506 355.045,176.757 355.217,182.375 355.39,179.929 355.563,182.061 355.736,177.687 355.909,174.729 356.082,177.645 356.255,182.118 356.428,181.279 356.601,178.915 356.773,181.721 356.946,180.838 357.119,179.456 357.292,180.062 357.465,180.925 357.638,178.514 357.811,178.977 357.984,180.155 358.156,181.245 358.329,180.919 358.502,175.821 358.675,177.928 358.848,180.628 359.021,174.011 359.194,179.332 359.367,179.928 359.54,175.245 359.712,173.267 359.885,181.123 360.058,174.304 360.231,178.636 360.404,174.894 360.577,176.25 360.75,175.954 360.923,175.345 361.096,179.604 361.268,181.47 361.441,177.468 361.614,176.509 361.787,180.376 361.96,179.136 362.133,180.648 362.306,181.093 362.479,178.412 362.651,180.533 362.824,178.922 362.997,180.8 363.17,181.465 363.343,181.585 363.516,178.7 363.689,179.804 363.862,180.482 364.035,178.871 364.207,179.16 364.38,182.532 364.553,181.193 364.726,178.538 364.899,179.658 365.072,178.46 365.245,176.348 365.418,181.996 365.591,180.975 365.763,182.765 365.936,178.448 366.109,177.179 366.282,181.048 366.455,178.685 366.628,180.715 366.801,176.825 366.974,179.629 367.147,174.023 367.319,177.026 367.492,181.359 367.665,181.392 367.838,182.566 368.011,180.173 368.184,175.954 368.357,176.441 368.53,181.219 368.703,178.538 368.875,175.214 369.048,173.609 369.221,179.757 369.394,180.771 369.567,178.612 369.74,176.685 369.913,176.759 370.086,180.522 370.258,178.723 370.431,174.524 370.604,176.466 370.777,179.012 370.95,177.406 371.123,179.73 371.296,179.716 371.469,182.208 371.642,181.164 371.814,178.259 371.987,181.674 372.16,175.792 372.333,180.539 372.506,179.097 372.679,180.281 372.852,179.571 373.025,178.917 373.198,176.285 373.37,180.448 373.543,179.54 373.716,180.486 373.889,178.737 374.062,180.481 374.235,179.595 374.408,180.919 374.581,178.022 374.753,179.58 374.926,178.806 375.099,176.46 375.272,181.86 375.445,178.101 375.618,176.054 375.791,176.725 375.964,176.489 376.137,179.438 376.309,180.507 376.482,181.707 376.655,173.559 376.828,181.718 377.001,178.562 377.174,179.422 377.347,180.942 377.52,180.636 377.693,177.049 377.865,177.34 378.038,180.602 378.211,178.132 378.384,179.414 378.557,181.727 378.73,180.342 378.903,180.772 379.076,176.925 379.249,179.092 379.421,180.839 379.487,180.129" stroke="#0071bc" stroke-linecap="butt" stroke-linejoin="round" stroke-width="0.5"/>
   <polyline fill="none" points="190.569,150.613 196.569,156.613" stroke="#ff0000" stroke-linecap="square" stroke-linejoin="miter" stroke-width="0.5"/>
   <polyline fill="none" points="190.569,156.613 196.569,150.613" stroke="#ff0000" stroke-linecap="square" stroke-linejoin="miter" stroke-width="0.5"/>
   <polyline fill="none" points="224.109,150.613 230.109,156.613" stroke="#ff0000" stroke-linecap="square" stroke-linejoin="miter" stroke-width="0.5"/>
   <polyline fill="none" points="224.109,156.613 230.109,150.613" stroke="#ff0000" stroke-linecap="square" stroke-linejoin="miter" stroke-width="0.5"/>
   <polyline fill="none" points="236.211,150.613 242.211,156.613" stroke="#ff0000" stroke-linecap="square" stroke-linejoin="miter" stroke-width="0.5"/>
   <polyline fill="none" points="236.211,156.613 242.211,150.613" stroke="#ff0000" stroke-linecap="square" stroke-linejoin="miter" stroke-width="0.5"/>
   <polyline fill="none" points="242.089,150.613 248.089,156.613" stroke="#ff0000" stroke-linecap="square" stroke-linejoin="miter" stroke-width="0.5"/>
   <polyline fill="none" points="242.089,156.613 248.089,150.613" stroke="#ff0000" stroke-linecap="square" stroke-linejoin="miter" stroke-width="0.5"/>
   <polyline fill="none" points="242.262,150.613 248.262,156.613" stroke="#ff0000" stroke-linecap="square" stroke-linejoin="miter" stroke-width="0.5"/>
   <polyline fill="none" points="242.262,156.613 248.262,150.613" stroke="#ff0000" stroke-linecap="square" stroke-linejoin="miter" stroke-width="0.5"/>
   <polyline fill="none" points="257.476,150.613 263.476,156.613" stroke="#ff0000" stroke-linecap="square" stroke-linejoin="miter" stroke-width="0.5"/>
   <polyline fill="none" points="257.476,156.613 263.476,150.613" stroke="#ff0000" stroke-linecap="square" stroke-linejoin="miter" stroke-width="0.5"/>
   <polyline fill="none" points="275.11,150.613 281.11,156.613" stroke="#ff0000" stroke-linecap="square" stroke-linejoin="miter" stroke-width="0.5"/>
   <polyline fill="none" points="275.11,156.613 281.11,150.613" stroke="#ff0000" stroke-linecap="square" stroke-linejoin="miter" stroke-width="0.5"/>
   <polyline fill="none" points="302.599,150.613 308.599,156.613" stroke="#ff0000" stroke-linecap="square" stroke-linejoin="miter" stroke-width="0.5"/>
   <polyline fill="none" points="302.599,156.613 308.599,150.613" stroke="#ff0000" stroke-linecap="square" stroke-linejoin="miter" stroke-width="0.5"/>
   <polyline fill="none" points="303.464,150.613 309.464,156.613" stroke="#ff0000" stroke-linecap="square" stroke-linejoin="miter" stroke-width="0.5"/>
   <polyline fill="none" points="303.464,156.613 309.464,150.613" stroke="#ff0000" stroke-linecap="square" stroke-linejoin="miter" stroke-width="0.5"/>
   <polyline fill="none" points="320.925,150.613 326.925,156.613" stroke="#ff0000" stroke-linecap="square" stroke-linejoin="miter" stroke-width="0.5"/>
   <polyline fill="none" points="320.925,156.613 326.925,150.613" stroke="#ff0000" stroke-linecap="square" stroke-linejoin="miter" stroke-width="0.5"/>
   <polyline fill="none" points="343.227,150.613 349.227,156.613" stroke="#ff0000" stroke-linecap="square" stroke-linejoin="miter" stroke-width="0.5"/>
   <polyline fill="none" points="343.227,156.613 349.227,150.613" stroke="#ff0000" stroke-linecap="square" stroke-linejoin="miter" stroke-width="0.5"/>
  </g>
  <clipPath id="cp00418314">
   <polygon points="0,314 418,314 418,0 0,0"/>
  </clipPath>
  <g clip-path="url(#cp00418314)">
   <polygon fill="#ffffff" points="55.0026,279.659 379.163,279.659 379.163,220.261 55.0026,220.261" shape-rendering="crispEdges"/>
   <polyline fill="none" points="55.0026,279.659 55.0026,276.396" stroke="#262626" stroke-linecap="butt" stroke-linejoin="miter" stroke-width="0.5"/>
   <polyline fill="none" points="55.0026,220.261 55.0026,223.524" stroke="#262626" stroke-linecap="butt" stroke-linejoin="miter" stroke-width="0.5"/>
   <polyline fill="none" points="98.224,279.659 98.224,276.396" stroke="#262626" stroke-linecap="butt" stroke-linejoin="miter" stroke-width="0.5"/>
   <polyline fill="none" points="98.224,220.261 98.224,223.524" stroke="#262626" stroke-linecap="butt" stroke-linejoin="miter" stroke-width="0.5"/>
   <polyline fill="none" points="141.445,279.659 141.445,276.396" stroke="#262626" stroke-linecap="butt" stroke-linejoin="miter" stroke-width="0.5"/>
   <polyline fill="none" points="141.445,220.261 141.445,223.524" stroke="#262626" stroke-linecap="butt" stroke-linejoin="miter" stroke-width="0.5"/>
   <polyline fill="none" points="184.667,279.659 184.667,276.396" stroke="#262626" stroke-linecap="butt" stroke-linejoin="miter" stroke-width="0.5"/>
   <polyline fill="none" points="184.667,220.261 184.667,223.524" stroke="#262626" stroke-linecap="butt" stroke-linejoin="miter" stroke-width="0.5"/>
   <polyline fill="none" points="227.888,279.659 227.888,276.396" stroke="#262626" stroke-linecap="butt" stroke-linejoin="miter" stroke-width="0.5"/>
   <polyline fill="none" points="227.888,220.261 227.888,223.524" stroke="#262626" stroke-linecap="butt" stroke-linejoin="miter" stroke-width="0.5"/>
   <polyline fill="none" points="271.11,279.659 271.11,276.396" stroke="#262626" stroke-linecap="butt" stroke-linejoin="miter" stroke-width="0.5"/>
   <polyline fill="none" points="271.11,220.261 271.11,223.524" stroke="#262626" stroke-linecap="butt" stroke-linejoin="miter" stroke-width="0.5"/>
   <polyline fill="none" points="314.331,279.659 314.331,276.396" stroke="#262626" stroke-linecap="butt" stroke-linejoin="miter" stroke-width="0.5"/>
   <polyline fill="none" points="314.331,220.261 314.331,223.524" stroke="#262626" stroke-linecap="butt" stroke-linejoin="miter" stroke-width="0.5"/>
   <polyline fill="none" points="357.553,279.659 357.553,276.396" stroke="#262626" stroke-linecap="butt" stroke-linejoin="miter" stroke-width="0.5"/>
   <polyline fill="none" points="357.553,220.261 357.553,223.524" stroke="#262626" stroke-linecap="butt" stroke-linejoin="miter" stroke-width="0.5"/>
   <g font-family="FreeSans" font-size="10" font-style="normal" font-weight="normal" transform="translate(43.0026,295.21) rotate(-0,12,-8)" xml:space="preserve">
    <text fill="rgb(38,38,38)" x="0 3 9 12 18 " y="-0">-0.07</text>
   </g>
   <g font-family="FreeSans" font-size="10" font-style="normal" font-weight="normal" transform="translate(83.224,295.21) rotate(-0,15,-8)" xml:space="preserve">
    <text fill="rgb(38,38,38)" x="0 3 9 12 18 24 " y="-0">-0.068</text>
   </g>
   <g font-family="FreeSans" font-size="10" font-style="normal" font-weight="normal" transform="translate(126.445,295.21) rotate(-0,15,-8)" xml:space="preserve">
    <text fill="rgb(38,38,38)" x="0 3 9 12 18 24 " y="-0">-0.066</text>
   </g>
   <g font-family="FreeSans" font-size="10" font-style="normal" font-weight="normal" transform="translate(169.667,295.21) rotate(-0,15,-8)" xml:space="preserve">
    <text fill="rgb(38,38,38)" x="0 3 9 12 18 24 " y="-0">-0.064</text>
   </g>
   <g font-family="FreeSans" font-size="10" font-style="normal" font-weight="normal" transform="translate(212.888,295.21) rotate(-0,15,-8)" xml:space="preserve">
    <text fill="rgb(38,38,38)" x="0 3 9 12 18 24 " y="-0">-0.062</text>
   </g>
   <g font-family="FreeSans" font-size="10" font-style="normal" font-weight="normal" transform="translate(259.11,295.21) rotate(-0,12,-8)" xml:space="preserve">
    <text fill="rgb(38,38,38)" x="0 3 9 12 18 " y="-0">-0.06</text>
   </g>
   <g font-family="FreeSans" font-size="10" font-style="normal" font-weight="normal" transform="translate(299.331,295.21) rotate(-0,15,-8)" xml:space="preserve">
    <text fill="rgb(38,38,38)" x="0 3 9 12 18 24 " y="-0">-0.058</text>
   </g>
   <g font-family="FreeSans" font-size="10" font-style="normal" font-weight="normal" transform="translate(342.553,295.21) rotate(-0,15,-8)" xml:space="preserve">
    <text fill="rgb(38,38,38)" x="0 3 9 12 18 24 " y="-0">-0.056</text>
   </g>
   <polyline fill="none" points="55.0026,279.659 58.2459,279.659" stroke="#262626" stroke-linecap="butt" stroke-linejoin="miter" stroke-width="0.5"/>
   <polyline fill="none" points="379.163,279.659 375.92,279.659" stroke="#262626" stroke-linecap="butt" stroke-linejoin="miter" stroke-width="0.5"/>
   <polyline fill="none" points="55.0026,269.759 58.2459,269.759" stroke="#262626" stroke-linecap="butt" stroke-linejoin="miter" stroke-width="0.5"/>
   <polyline fill="none" points="379.163,269.759 375.92,269.759" stroke="#262626" stroke-linecap="butt" stroke-linejoin="miter" stroke-width="0.5"/>
   <polyline fill="none" points="55.0026,259.86 58.2459,259.86" stroke="#262626" stroke-linecap="butt" stroke-linejoin="miter" stroke-width="0.5"/>
   <polyline fill="none" points="379.163,259.86 375.92,259.86" stroke="#262626" stroke-linecap="butt" stroke-linejoin="miter" stroke-width="0.5"/>
   <polyline fill="none" points="55.0026,249.96 58.2459,249.96" stroke="#262626" stroke-linecap="butt" stroke-linejoin="miter" stroke-width="0.5"/>
   <polyline fill="none" points="379.163,249.96 375.92,249.96" stroke="#262626" stroke-linecap="butt" stroke-linejoin="miter" stroke-width="0.5"/>
   <polyline fill="none" points="55.0026,240.06 58.2459,240.06" stroke="#262626" stroke-linecap="butt" stroke-linejoin="miter" stroke-width="0.5"/>
   <polyline fill="none" points="379.163,240.06 375.92,240.06" stroke="#262626" stroke-linecap="butt" stroke-linejoin="miter" stroke-width="0.5"/>
   <polyline fill="none" points="55.0026,230.16 58.2459,230.16" stroke="#262626" stroke-linecap="butt" stroke-linejoin="miter" stroke-width="0.5"/>
   <polyline fill="none" points="379.163,230.16 375.92,230.16" stroke="#262626" stroke-linecap="butt" stroke-linejoin="miter" stroke-width="0.5"/>
   <polyline fill="none" points="55.0026,220.261 58.2459,220.261" stroke="#262626" stroke-linecap="butt" stroke-linejoin="miter" stroke-width="0.5"/>
   <polyline fill="none" points="379.163,220.261 375.92,220.261" stroke="#262626" stroke-linecap="butt" stroke-linejoin="miter" stroke-width="0.5"/>
   <g font-family="FreeSans" font-size="10" font-style="normal" font-weight="normal" transform="translate(41.0001,283.659) rotate(-0,9,-4)" xml:space="preserve">
    <text fill="rgb(38,38,38)" x="0 3 " y="-0">-4</text>
   </g>
   <g font-family="FreeSans" font-size="10" font-style="normal" font-weight="normal" transform="translate(41.0001,273.759) rotate(-0,9,-4)" xml:space="preserve">
    <text fill="rgb(38,38,38)" x="0 3 " y="-0">-3</text>
   </g>
   <g font-family="FreeSans" font-size="10" font-style="normal" font-weight="normal" transform="translate(41.0001,263.86) rotate(-0,9,-4)" xml:space="preserve">
    <text fill="rgb(38,38,38)" x="0 3 " y="-0">-2</text>
   </g>
   <g font-family="FreeSans" font-size="10" font-style="normal" font-weight="normal" transform="translate(41.0001,253.96) rotate(-0,9,-4)" xml:space="preserve">
    <text fill="rgb(38,38,38)" x="0 3 " y="-0">-1</text>
   </g>
   <g font-family="FreeSans" font-size="10" font-style="normal" font-weight="normal" transform="translate(44.0001,244.06) rotate(-0,6,-4)" xml:space="preserve">
    <text fill="rgb(38,38,38)" x="0 " y="-0">0</text>
   </g>
   <g font-family="FreeSans" font-size="10" font-style="normal" font-weight="normal" transform="translate(44.0001,234.16) rotate(-0,6,-4)" xml:space="preserve">
    <text fill="rgb(38,38,38)" x="0 " y="-0">1</text>
   </g>
   <g font-family="FreeSans" font-size="10" font-style="normal" font-weight="normal" transform="translate(44.0001,224.261) rotate(-0,6,-4)" xml:space="preserve">
    <text fill="rgb(38,38,38)" x="0 " y="-0">2</text>
   </g>
   <polyline fill="none" points="55.0026,279.659 379.163,279.659" stroke="#262626" stroke-dasharray="16,0" stroke-linecap="square" stroke-linejoin="miter" stroke-width="0.5"/>
   <polyline fill="none" points="55.0026,220.261 379.163,220.261" stroke="#262626" stroke-dasharray="16,0" stroke-linecap="square" stroke-linejoin="miter" stroke-width="0.5"/>
   <polyline fill="none" points="55.0026,279.659 55.0026,220.261" stroke="#262626" stroke-dasharray="16,0" stroke-linecap="square" stroke-linejoin="miter" stroke-width="0.5"/>
   <polyline fill="none" points="379.163,279.659 379.163,220.261" stroke="#262626" stroke-dasharray="16,0" stroke-linecap="square" stroke-linejoin="miter" stroke-width="0.5"/>
   <g font-family="FreeSans" font-size="11" font-style="normal" font-weight="normal" transform="translate(-17.4999,249.96) rotate(-90,53.5,0)" xml:space="preserve">
    <text fill="rgb(38,38,38)" x="0 6 12 18 23 29 32 38 40 43 46 52 56 62 68 74 80 83 87 91 97 103 " y="-3">phase difference (rad)</text>
   </g>
   <g font-family="FreeSans" font-size="11" font-style="normal" font-weight="normal" transform="translate(156.583,312.21) rotate(-0,60.5,-12)" xml:space="preserve">
    <text fill="rgb(38,38,38)" x="0 6 11 18 24 30 34 36 42 46 49 52 56 62 68 74 80 86 92 97 100 104 112 117 " y="-3">2xFourier frequency (Hz)</text>
   </g>
   <polyline fill="none" points="190.569,237.972 196.569,243.972" stroke="#0071bc" stroke-linecap="square" stroke-linejoin="miter" stroke-width="0.5"/>
   <polyline fill="none" points="190.569,243.972 196.569,237.972" stroke="#0071bc" stroke-linecap="square" stroke-linejoin="miter" stroke-width="0.5"/>
   <polyline fill="none" points="224.109,252.595 230.109,258.595" stroke="#0071bc" stroke-linecap="square" stroke-linejoin="miter" stroke-width="0.5"/>
   <polyline fill="none" points="224.109,258.595 230.109,252.595" stroke="#0071bc" stroke-linecap="square" stroke-linejoin="miter" stroke-width="0.5"/>
   <polyline fill="none" points="236.211,253.357 242.211,259.357" stroke="#0071bc" stroke-linecap="square" stroke-linejoin="miter" stroke-width="0.5"/>
   <polyline fill="none" points="236.211,259.357 242.211,253.357" stroke="#0071bc" stroke-linecap="square" stroke-linejoin="miter" stroke-width="0.5"/>
   <polyline fill="none" points="242.089,248.464 248.089,254.465" stroke="#0071bc" stroke-linecap="square" stroke-linejoin="miter" stroke-width="0.5"/>
   <polyline fill="none" points="242.089,254.465 248.089,248.464" stroke="#0071bc" stroke-linecap="square" stroke-linejoin="miter" stroke-width="0.5"/>
   <polyline fill="none" points="242.262,248.112 248.262,254.112" stroke="#0071bc" stroke-linecap="square" stroke-linejoin="miter" stroke-width="0.5"/>
   <polyline fill="none" points="242.262,254.112 248.262,248.112" stroke="#0071bc" stroke-linecap="square" stroke-linejoin="miter" stroke-width="0.5"/>
   <polyline fill="none" points="257.476,225.512 263.476,231.512" stroke="#0071bc" stroke-linecap="square" stroke-linejoin="miter" stroke-width="0.5"/>
   <polyline fill="none" points="257.476,231.512 263.476,225.512" stroke="#0071bc" stroke-linecap="square" stroke-linejoin="miter" stroke-width="0.5"/>
   <polyline fill="none" points="275.11,242.824 281.11,248.824" stroke="#0071bc" stroke-linecap="square" stroke-linejoin="miter" stroke-width="0.5"/>
   <polyline fill="none" points="275.11,248.824 281.11,242.824" stroke="#0071bc" stroke-linecap="square" stroke-linejoin="miter" stroke-width="0.5"/>
   <polyline fill="none" points="302.599,236.802 308.599,242.802" stroke="#0071bc" stroke-linecap="square" stroke-linejoin="miter" stroke-width="0.5"/>
   <polyline fill="none" points="302.599,242.802 308.599,236.802" stroke="#0071bc" stroke-linecap="square" stroke-linejoin="miter" stroke-width="0.5"/>
   <polyline fill="none" points="303.464,235.143 309.464,241.143" stroke="#0071bc" stroke-linecap="square" stroke-linejoin="miter" stroke-width="0.5"/>
   <polyline fill="none" points="303.464,241.143 309.464,235.143" stroke="#0071bc" stroke-linecap="square" stroke-linejoin="miter" stroke-width="0.5"/>
   <polyline fill="none" points="320.925,276.472 326.925,282.472" stroke="#0071bc" stroke-linecap="square" stroke-linejoin="miter" stroke-width="0.5"/>
   <polyline fill="none" points="320.925,282.472 326.925,276.472" stroke="#0071bc" stroke-linecap="square" stroke-linejoin="miter" stroke-width="0.5"/>
   <polyline fill="none" points="343.227,273.931 349.227,279.931" stroke="#0071bc" stroke-linecap="square" stroke-linejoin="miter" stroke-width="0.5"/>
   <polyline fill="none" points="343.227,279.931 349.227,273.931" stroke="#0071bc" stroke-linecap="square" stroke-linejoin="miter" stroke-width="0.5"/>
  </g>
 </g>
</svg>
