<?xml version="1.0" standalone="no"?>
 <!DOCTYPE svg PUBLIC "-//W3C//DTD SVG 1.1//EN" 
 "http://www.w3.org/Graphics/SVG/1.1/DTD/svg11.dtd"> 
<svg
  xmlns:svg="http://www.w3.org/2000/svg"
  xmlns="http://www.w3.org/2000/svg"
  xmlns:xlink="http://www.w3.org/1999/xlink"
  version="1.1"
  width="297.0022mm" height="210.0072mm" viewBox="0.0000 0.0000 297.0022 210.0072">
<title>SVG Image created as max2771_fx2lp-In1_Cu.svg date 2024/06/12 18:04:55 </title>
  <desc>Image generated by PCBNEW </desc>
<g style="fill:#000000; fill-opacity:1.0000;stroke:#000000; stroke-opacity:1.0000;
stroke-linecap:round; stroke-linejoin:round;"
 transform="translate(0 0) scale(1 1)">
<path style="fill:#000000; fill-opacity:1.0000; stroke:none;fill-rule:evenodd;"
d="M 153.9111,121.7000
155.6111,121.7000
155.6111,123.4000
153.9111,123.4000
Z" /> 
</g>
<g style="fill:#000000; fill-opacity:1.0000; stroke:none;">
<circle cx="154.7611" cy="120.0100" r="0.8500" /> 
<circle cx="152.2211" cy="122.5500" r="0.8500" /> 
<circle cx="152.2211" cy="120.0100" r="0.8500" /> 
<circle cx="149.6811" cy="122.5500" r="0.8500" /> 
<circle cx="149.6811" cy="120.0100" r="0.8500" /> 
<circle cx="147.1411" cy="122.5500" r="0.8500" /> 
<circle cx="147.1411" cy="120.0100" r="0.8500" /> 
<circle cx="144.6011" cy="122.5500" r="0.8500" /> 
<circle cx="144.6011" cy="120.0100" r="0.8500" /> 
<circle cx="142.0611" cy="122.5500" r="0.8500" /> 
<circle cx="142.0611" cy="120.0100" r="0.8500" /> 
<circle cx="139.5211" cy="122.5500" r="0.8500" /> 
<circle cx="139.5211" cy="120.0100" r="0.8500" /> 
<circle cx="136.9811" cy="122.5500" r="0.8500" /> 
<circle cx="136.9811" cy="120.0100" r="0.8500" /> 
<circle cx="134.4411" cy="122.5500" r="0.8500" /> 
<circle cx="134.4411" cy="120.0100" r="0.8500" /> 
<circle cx="131.9011" cy="122.5500" r="0.8500" /> 
<circle cx="131.9011" cy="120.0100" r="0.8500" /> 
<path style="fill:#000000; fill-opacity:1.0000; stroke:none;fill-rule:evenodd;"
d="M 130.5511,107.3400
130.5511,109.0400
128.8511,109.0400
128.8511,107.3400
Z" /> 
<circle cx="129.7011" cy="105.6500" r="0.8500" /> 
<circle cx="139.5011" cy="103.6500" r="0.4290" /> 
</g>
<g style="fill:#000000; fill-opacity:1.0000; stroke:none;">
<circle cx="139.5011" cy="102.5500" r="0.4290" /> 
</g>
<g style="fill:#000000; fill-opacity:1.0000; stroke:none;">
<circle cx="139.5011" cy="101.4500" r="0.4290" /> 
</g>
<g style="fill:#000000; fill-opacity:1.0000; stroke:none;">
<circle cx="138.4011" cy="103.6500" r="0.4290" /> 
</g>
<g style="fill:#000000; fill-opacity:1.0000; stroke:none;">
<circle cx="138.4011" cy="102.5500" r="0.4290" /> 
</g>
<g style="fill:#000000; fill-opacity:1.0000; stroke:none;">
<circle cx="138.4011" cy="101.4500" r="0.4290" /> 
</g>
<g style="fill:#000000; fill-opacity:1.0000; stroke:none;">
<circle cx="137.3011" cy="103.6500" r="0.4290" /> 
</g>
<g style="fill:#000000; fill-opacity:1.0000; stroke:none;">
<circle cx="137.3011" cy="102.5500" r="0.4290" /> 
</g>
<g style="fill:#000000; fill-opacity:1.0000; stroke:none;">
<circle cx="137.3011" cy="101.4500" r="0.4290" /> 
</g>
<g style="fill:#000000; fill-opacity:1.0000; stroke:none;">
<circle cx="142.5011" cy="110.5500" r="0.4290" /> 
</g>
<g style="fill:#000000; fill-opacity:1.0000; stroke:none;">
<circle cx="142.5011" cy="109.4500" r="0.4290" /> 
</g>
<g style="fill:#000000; fill-opacity:1.0000; stroke:none;">
<circle cx="142.5011" cy="108.3500" r="0.4290" /> 
</g>
<g style="fill:#000000; fill-opacity:1.0000; stroke:none;">
<circle cx="141.4011" cy="110.5500" r="0.4290" /> 
</g>
<g style="fill:#000000; fill-opacity:1.0000; stroke:none;">
<circle cx="141.4011" cy="109.4500" r="0.4290" /> 
</g>
<g style="fill:#000000; fill-opacity:1.0000; stroke:none;">
<circle cx="141.4011" cy="108.3500" r="0.4290" /> 
</g>
<g style="fill:#000000; fill-opacity:1.0000; stroke:none;">
<circle cx="140.3011" cy="110.5500" r="0.4290" /> 
</g>
<g style="fill:#000000; fill-opacity:1.0000; stroke:none;">
<circle cx="140.3011" cy="109.4500" r="0.4290" /> 
</g>
<g style="fill:#000000; fill-opacity:1.0000; stroke:none;">
<circle cx="140.3011" cy="108.3500" r="0.4290" /> 
<path style="fill:#000000; fill-opacity:1.0000; stroke:none;fill-rule:evenodd;"
d="M 153.9311,93.7000
155.6311,93.7000
155.6311,95.4000
153.9311,95.4000
Z" /> 
</g>
<g style="fill:#000000; fill-opacity:1.0000; stroke:none;">
<circle cx="154.7811" cy="92.0100" r="0.8500" /> 
<circle cx="152.2411" cy="94.5500" r="0.8500" /> 
<circle cx="152.2411" cy="92.0100" r="0.8500" /> 
<circle cx="149.7011" cy="94.5500" r="0.8500" /> 
<circle cx="149.7011" cy="92.0100" r="0.8500" /> 
<circle cx="147.1611" cy="94.5500" r="0.8500" /> 
<circle cx="147.1611" cy="92.0100" r="0.8500" /> 
<circle cx="144.6211" cy="94.5500" r="0.8500" /> 
<circle cx="144.6211" cy="92.0100" r="0.8500" /> 
<circle cx="142.0811" cy="94.5500" r="0.8500" /> 
<circle cx="142.0811" cy="92.0100" r="0.8500" /> 
<circle cx="139.5411" cy="94.5500" r="0.8500" /> 
<circle cx="139.5411" cy="92.0100" r="0.8500" /> 
<circle cx="137.0011" cy="94.5500" r="0.8500" /> 
<circle cx="137.0011" cy="92.0100" r="0.8500" /> 
<circle cx="134.4611" cy="94.5500" r="0.8500" /> 
<circle cx="134.4611" cy="92.0100" r="0.8500" /> 
<circle cx="131.9211" cy="94.5500" r="0.8500" /> 
<circle cx="131.9211" cy="92.0100" r="0.8500" /> 
<circle cx="145.6011" cy="104.4500" r="0.3274" /> 
</g>
<g style="fill:#000000; fill-opacity:1.0000; stroke:none;">
<circle cx="152.3011" cy="112.4500" r="0.3274" /> 
</g>
<g style="fill:#000000; fill-opacity:1.0000; stroke:none;">
<circle cx="147.6451" cy="109.2152" r="0.3274" /> 
</g>
<g style="fill:#000000; fill-opacity:1.0000; stroke:none;">
<circle cx="151.9374" cy="107.1500" r="0.3274" /> 
</g>
<g style="fill:#000000; fill-opacity:1.0000; stroke:none;">
<circle cx="145.2393" cy="102.7749" r="0.3274" /> 
</g>
<g style="fill:#000000; fill-opacity:1.0000; stroke:none;">
<circle cx="137.1511" cy="106.7500" r="0.3274" /> 
</g>
<g style="fill:#000000; fill-opacity:1.0000; stroke:none;">
<circle cx="133.7011" cy="107.6500" r="0.3274" /> 
</g>
<g style="fill:#000000; fill-opacity:1.0000; stroke:none;">
<circle cx="134.5011" cy="109.0000" r="0.3274" /> 
</g>
<g style="fill:#000000; fill-opacity:1.0000; stroke:none;">
<circle cx="132.3011" cy="100.8500" r="0.3274" /> 
</g>
<g style="fill:#000000; fill-opacity:1.0000; stroke:none;">
<circle cx="130.8011" cy="117.8500" r="0.3274" /> 
</g>
<g style="fill:#000000; fill-opacity:1.0000; stroke:none;">
<circle cx="134.9011" cy="115.4000" r="0.3274" /> 
</g>
<g style="fill:#000000; fill-opacity:1.0000; stroke:none;">
<circle cx="136.1511" cy="109.0500" r="0.3274" /> 
</g>
<g style="fill:#000000; fill-opacity:1.0000; stroke:none;">
<circle cx="132.3407" cy="117.0673" r="0.3274" /> 
</g>
<g style="fill:#000000; fill-opacity:1.0000; stroke:none;">
<circle cx="132.4011" cy="109.9500" r="0.3274" /> 
</g>
<g style="fill:#000000; fill-opacity:1.0000; stroke:none;">
<circle cx="143.8511" cy="98.9000" r="0.3274" /> 
</g>
<g style="fill:#000000; fill-opacity:1.0000; stroke:none;">
<circle cx="132.3727" cy="117.9634" r="0.3274" /> 
</g>
<g style="fill:#000000; fill-opacity:1.0000; stroke:none;">
<circle cx="134.5011" cy="108.1500" r="0.3274" /> 
</g>
<g style="fill:#000000; fill-opacity:1.0000; stroke:none;">
<circle cx="130.7011" cy="100.8500" r="0.3274" /> 
</g>
<g style="fill:#000000; fill-opacity:1.0000; stroke:none;">
<circle cx="150.5011" cy="109.5500" r="0.3274" /> 
</g>
<g style="fill:#000000; fill-opacity:1.0000; stroke:none;">
<circle cx="133.5011" cy="115.8500" r="0.3274" /> 
</g>
<g style="fill:#000000; fill-opacity:1.0000; stroke:none;">
<circle cx="141.2011" cy="98.3500" r="0.3274" /> 
</g>
<g style="fill:#000000; fill-opacity:1.0000; stroke:none;">
<circle cx="132.9011" cy="104.3000" r="0.3274" /> 
</g>
<g style="fill:#000000; fill-opacity:1.0000; stroke:none;">
<circle cx="130.9011" cy="113.9500" r="0.3274" /> 
</g>
<g style="fill:#000000; fill-opacity:1.0000; stroke:none;">
<circle cx="148.5649" cy="114.1000" r="0.3274" /> 
</g>
<g style="fill:#000000; fill-opacity:1.0000; stroke:none;">
<circle cx="132.3011" cy="96.7500" r="0.3274" /> 
</g>
<g style="fill:#000000; fill-opacity:1.0000; stroke:none;">
<circle cx="127.7011" cy="118.6500" r="0.3274" /> 
</g>
<g style="fill:#000000; fill-opacity:1.0000; stroke:none;">
<circle cx="130.9011" cy="113.0500" r="0.3274" /> 
</g>
<g style="fill:#000000; fill-opacity:1.0000; stroke:none;">
<circle cx="135.2511" cy="112.9500" r="0.3274" /> 
</g>
<g style="fill:#000000; fill-opacity:1.0000; stroke:none;">
<circle cx="131.7011" cy="110.4500" r="0.3274" /> 
</g>
<g style="fill:#000000; fill-opacity:1.0000; stroke:none;">
<circle cx="140.6011" cy="114.1000" r="0.3274" /> 
</g>
<g style="fill:#000000; fill-opacity:1.0000; stroke:none;">
<circle cx="130.7213" cy="96.7500" r="0.3274" /> 
</g>
<g style="fill:#000000; fill-opacity:1.0000; stroke:none;">
<circle cx="132.3011" cy="98.3500" r="0.3274" /> 
</g>
<g style="fill:#000000; fill-opacity:1.0000; stroke:none;">
<circle cx="131.0011" cy="101.7500" r="0.3274" /> 
</g>
<g style="fill:#000000; fill-opacity:1.0000; stroke:none;">
<circle cx="148.5649" cy="110.5500" r="0.3274" /> 
</g>
<g style="fill:#000000; fill-opacity:1.0000; stroke:none;">
<circle cx="130.7011" cy="98.3500" r="0.3274" /> 
</g>
<g style="fill:#000000; fill-opacity:1.0000; stroke:none;">
<circle cx="148.4511" cy="104.4500" r="0.3274" /> 
</g>
<g style="fill:#000000; fill-opacity:1.0000; stroke:none;">
<circle cx="146.5011" cy="114.1500" r="0.3274" /> 
</g>
<g style="fill:#000000; fill-opacity:1.0000; stroke:none;">
<circle cx="148.5649" cy="113.1820" r="0.3274" /> 
</g>
<g style="fill:#000000; fill-opacity:1.0000; stroke:none;">
<circle cx="146.7011" cy="97.8000" r="0.3274" /> 
</g>
<g style="fill:#000000; fill-opacity:1.0000; stroke:none;">
<circle cx="133.6511" cy="104.3000" r="0.3274" /> 
</g>
<g style="fill:#000000; fill-opacity:1.0000; stroke:none;">
<circle cx="133.7011" cy="106.7500" r="0.3274" /> 
</g>
<g style="fill:#000000; fill-opacity:1.0000; stroke:none;">
<circle cx="145.5011" cy="114.1000" r="0.3274" /> 
</g>
<g style="fill:#000000; fill-opacity:1.0000; stroke:none;">
<circle cx="133.3511" cy="112.7500" r="0.3274" /> 
</g>
<g style="fill:#000000; fill-opacity:1.0000; stroke:none;">
<circle cx="132.2011" cy="103.0500" r="0.3274" /> 
</g>
<g style="fill:#000000; fill-opacity:1.0000; stroke:none;">
<circle cx="133.8011" cy="109.2500" r="0.3274" /> 
</g>
<g style="fill:#000000; fill-opacity:1.0000; stroke:none;">
<circle cx="145.7511" cy="97.8000" r="0.3274" /> 
</g>
<g style="fill:#000000; fill-opacity:1.0000; stroke:none;">
<circle cx="147.2011" cy="104.4500" r="0.3274" /> 
</g>
<g style="fill:#000000; fill-opacity:1.0000; stroke:none;">
<circle cx="130.7011" cy="97.5500" r="0.3274" /> 
</g>
<g style="fill:#000000; fill-opacity:1.0000; stroke:none;">
<circle cx="132.3011" cy="97.5500" r="0.3274" /> 
</g>
<g style="fill:#000000; fill-opacity:1.0000; stroke:none;">
<circle cx="132.3161" cy="112.0544" r="0.3274" /> 
</g>
<g style="fill:#000000; fill-opacity:1.0000; stroke:none;">
<circle cx="133.7011" cy="105.8500" r="0.3274" /> 
</g>
<g style="fill:#000000; fill-opacity:1.0000; stroke:none;">
<circle cx="143.3011" cy="97.8000" r="0.3274" /> 
</g>
<g style="fill:#000000; fill-opacity:1.0000; stroke:none;">
<circle cx="135.7511" cy="114.1000" r="0.3274" /> 
</g>
<g style="fill:#000000; fill-opacity:1.0000; stroke:none;">
<circle cx="142.4511" cy="112.9500" r="0.3274" /> 
</g>
<g style="fill:#000000; fill-opacity:1.0000; stroke:none;">
<circle cx="130.8011" cy="117.0500" r="0.3274" /> 
</g>
<g style="fill:#000000; fill-opacity:1.0000; stroke:none;">
<circle cx="133.7011" cy="105.0500" r="0.3274" /> 
</g>
<g style="fill:#000000; fill-opacity:1.0000; stroke:none;">
<circle cx="135.3511" cy="109.0500" r="0.3274" /> 
</g>
<g style="fill:#000000; fill-opacity:1.0000; stroke:none;">
<circle cx="134.0011" cy="114.1000" r="0.3274" /> 
</g>
<g style="fill:#000000; fill-opacity:1.0000; stroke:none;">
<circle cx="132.3011" cy="99.1500" r="0.3274" /> 
</g>
<g style="fill:#000000; fill-opacity:1.0000; stroke:none;">
<circle cx="142.3511" cy="114.1000" r="0.3274" /> 
</g>
<g style="fill:#000000; fill-opacity:1.0000; stroke:none;">
<circle cx="134.4011" cy="111.1000" r="0.3274" /> 
</g>
<g style="fill:#000000; fill-opacity:1.0000; stroke:none;">
<circle cx="148.4511" cy="98.9000" r="0.3274" /> 
</g>
<g style="fill:#000000; fill-opacity:1.0000; stroke:none;">
<circle cx="144.1011" cy="97.8000" r="0.3274" /> 
</g>
<g style="fill:#000000; fill-opacity:1.0000; stroke:none;">
<circle cx="148.4511" cy="99.9500" r="0.3274" /> 
</g>
<g style="fill:#000000; fill-opacity:1.0000; stroke:none;">
<circle cx="141.4511" cy="114.1000" r="0.3274" /> 
</g>
<g style="fill:#000000; fill-opacity:1.0000; stroke:none;">
<circle cx="135.2511" cy="111.1000" r="0.3274" /> 
</g>
<g style="fill:#000000; fill-opacity:1.0000; stroke:none;">
<circle cx="144.9011" cy="97.8000" r="0.3274" /> 
</g>
<g style="fill:#000000; fill-opacity:1.0000; stroke:none;">
<circle cx="131.1011" cy="111.2500" r="0.3274" /> 
</g>
<g style="fill:#000000; fill-opacity:1.0000; stroke:none;">
<circle cx="136.1011" cy="111.1000" r="0.3274" /> 
</g>
<g style="fill:#000000; fill-opacity:1.0000; stroke:none;">
<circle cx="148.5649" cy="112.2500" r="0.3274" /> 
</g>
<g style="fill:#000000; fill-opacity:1.0000; stroke:none;">
<circle cx="130.7011" cy="99.9500" r="0.3274" /> 
</g>
<g style="fill:#000000; fill-opacity:1.0000; stroke:none;">
<circle cx="144.5632" cy="102.3338" r="0.3274" /> 
</g>
<g style="fill:#000000; fill-opacity:1.0000; stroke:none;">
<circle cx="148.4511" cy="97.8000" r="0.3274" /> 
</g>
<g style="fill:#000000; fill-opacity:1.0000; stroke:none;">
<circle cx="132.2011" cy="103.8500" r="0.3274" /> 
</g>
<g style="fill:#000000; fill-opacity:1.0000; stroke:none;">
<circle cx="148.4511" cy="105.5000" r="0.3274" /> 
</g>
<g style="fill:#000000; fill-opacity:1.0000; stroke:none;">
<circle cx="134.9011" cy="114.1000" r="0.3274" /> 
</g>
<g style="fill:#000000; fill-opacity:1.0000; stroke:none;">
<circle cx="135.1011" cy="104.3000" r="0.3274" /> 
</g>
<g style="fill:#000000; fill-opacity:1.0000; stroke:none;">
<circle cx="133.1011" cy="109.5500" r="0.3274" /> 
</g>
<g style="fill:#000000; fill-opacity:1.0000; stroke:none;">
<circle cx="133.0511" cy="114.1000" r="0.3274" /> 
</g>
<g style="fill:#000000; fill-opacity:1.0000; stroke:none;">
<circle cx="143.2011" cy="114.1000" r="0.3274" /> 
</g>
<g style="fill:#000000; fill-opacity:1.0000; stroke:none;">
<circle cx="136.8011" cy="106.0500" r="0.3274" /> 
</g>
<g style="fill:#000000; fill-opacity:1.0000; stroke:none;">
<circle cx="132.2587" cy="112.9500" r="0.3274" /> 
</g>
<g style="fill:#000000; fill-opacity:1.0000; stroke:none;">
<circle cx="133.3011" cy="116.6500" r="0.3274" /> 
</g>
<g style="fill:#000000; fill-opacity:1.0000; stroke:none;">
<circle cx="131.7011" cy="102.4500" r="0.3274" /> 
</g>
<g style="fill:#000000; fill-opacity:1.0000; stroke:none;">
<circle cx="132.3011" cy="99.9500" r="0.3274" /> 
</g>
<g style="fill:#000000; fill-opacity:1.0000; stroke:none;">
<circle cx="145.2011" cy="111.8000" r="0.3274" /> 
</g>
<g style="fill:#000000; fill-opacity:1.0000; stroke:none;">
<circle cx="130.9011" cy="112.1500" r="0.3274" /> 
</g>
<g style="fill:#000000; fill-opacity:1.0000; stroke:none;">
<circle cx="134.3511" cy="104.3000" r="0.3274" /> 
</g>
<g style="fill:#000000; fill-opacity:1.0000; stroke:none;">
<circle cx="136.9511" cy="111.1000" r="0.3274" /> 
</g>
<g style="fill:#000000; fill-opacity:1.0000; stroke:none;">
<circle cx="132.2587" cy="113.9500" r="0.3274" /> 
</g>
<g style="fill:#000000; fill-opacity:1.0000; stroke:none;">
<circle cx="127.7011" cy="121.4500" r="0.3274" /> 
</g>
<g style="fill:#000000; fill-opacity:1.0000; stroke:none;">
<circle cx="147.6011" cy="97.8000" r="0.3274" /> 
</g>
<g style="fill:#000000; fill-opacity:1.0000; stroke:none;">
<circle cx="148.5649" cy="111.3500" r="0.3274" /> 
</g>
<g style="fill:#000000; fill-opacity:1.0000; stroke:none;">
<circle cx="147.2011" cy="105.3500" r="0.3274" /> 
</g>
<g style="fill:#000000; fill-opacity:1.0000; stroke:none;">
<circle cx="143.5511" cy="111.8000" r="0.3274" /> 
</g>
<g style="fill:#000000; fill-opacity:1.0000; stroke:none;">
<circle cx="144.0511" cy="115.0606" r="0.3274" /> 
</g>
<g style="fill:#000000; fill-opacity:1.0000; stroke:none;">
<circle cx="136.5000" cy="96.8464" r="0.3274" /> 
</g>
<g style="fill:#000000; fill-opacity:1.0000; stroke:none;">
<circle cx="142.6000" cy="96.8464" r="0.3274" /> 
</g>
<g style="fill:#000000; fill-opacity:1.0000; stroke:none;">
<circle cx="146.4011" cy="103.6500" r="0.3274" /> 
</g>
<g style="fill:#000000; fill-opacity:1.0000; stroke:none;">
<circle cx="140.5748" cy="104.6737" r="0.3274" /> 
</g>
<g style="fill:#000000; fill-opacity:1.0000; stroke:none;">
<circle cx="141.6129" cy="103.6382" r="0.3274" /> 
</g>
<g style="fill:#000000; fill-opacity:1.0000; stroke:none;">
<circle cx="138.0000" cy="115.0464" r="0.3274" /> 
</g>
<g style="fill:#000000; fill-opacity:1.0000; stroke:none;">
<circle cx="144.6011" cy="110.5060" r="0.3274" /> 
</g>
<g style="fill:#000000; fill-opacity:1.0000; stroke:none;">
<circle cx="144.6841" cy="109.1202" r="0.3274" /> 
</g>
<g style="fill:#000000; fill-opacity:1.0000; stroke:none;">
<circle cx="141.7011" cy="102.4945" r="0.3274" /> 
</g>
<g style="fill:#000000; fill-opacity:1.0000; stroke:none;">
<circle cx="138.9992" cy="98.3714" r="0.3274" /> 
</g>
<g style="fill:#000000; fill-opacity:1.0000; stroke:none;">
<circle cx="138.5011" cy="97.7362" r="0.3274" /> 
</g>
<g style="fill:#000000; fill-opacity:1.0000; stroke:none;">
<circle cx="136.6011" cy="114.0500" r="0.3274" /> 
</g>
<g style="fill:#000000; fill-opacity:1.0000; stroke:none;">
<circle cx="140.0011" cy="115.9468" r="0.3274" /> 
</g>
<g style="fill:#000000; fill-opacity:1.0000; stroke:none;">
<circle cx="137.5011" cy="108.4500" r="0.3274" /> 
</g>
<g style="fill:#000000; fill-opacity:1.0000; stroke:none;">
<circle cx="142.1168" cy="106.0947" r="0.3274" /> 
</g>
<g style="fill:#000000; fill-opacity:1.0000; stroke:none;">
<circle cx="141.8497" cy="105.3330" r="0.3274" /> 
</g>
<g style="fill:#000000; fill-opacity:1.0000; stroke:none;">
<circle cx="141.4083" cy="100.1500" r="0.3274" /> 
</g>
<g style="fill:#000000; fill-opacity:1.0000; stroke:none;">
<circle cx="144.4681" cy="106.8245" r="0.3274" /> 
</g>
<g style="fill:#000000; fill-opacity:1.0000; stroke:none;">
<circle cx="141.0425" cy="105.3330" r="0.3274" /> 
</g>
<g style="fill:#000000; fill-opacity:1.0000; stroke:none;">
<circle cx="140.6011" cy="99.0500" r="0.3274" /> 
</g>
<g style="fill:#000000; fill-opacity:1.0000; stroke:none;">
<circle cx="147.7011" cy="107.3500" r="0.3274" /> 
</g>
<g style="fill:#000000; fill-opacity:1.0000; stroke:none;">
<circle cx="140.3841" cy="105.8000" r="0.3274" /> 
</g>
<g style="fill:#000000; fill-opacity:1.0000; stroke:none;">
<circle cx="135.8091" cy="100.1580" r="0.3274" /> 
</g>
<g style="fill:#000000; fill-opacity:1.0000; stroke:none;">
<circle cx="144.7429" cy="105.3548" r="0.3274" /> 
</g>
<g style="fill:#000000; fill-opacity:1.0000; stroke:none;">
<circle cx="148.3011" cy="108.2500" r="0.3274" /> 
</g>
<g style="fill:#000000; fill-opacity:1.0000; stroke:none;">
<circle cx="140.6011" cy="100.1500" r="0.3274" /> 
</g>
<g style="fill:#000000; fill-opacity:1.0000; stroke:none;">
<circle cx="143.5571" cy="105.7000" r="0.3274" /> 
<path style="fill:#000000; fill-opacity:1.0000; stroke:none;fill-rule:evenodd;"
d="M 156.2854,90.0646
156.3000,90.0998
156.3000,124.2457
156.2854,124.2809
156.2502,124.2955
126.2509,124.2955
126.2157,124.2809
126.2011,124.2457
126.2011,122.5500
130.8933,122.5500
130.9127,122.7466
130.9701,122.9356
131.0632,123.1099
131.1885,123.2626
131.3412,123.3879
131.5154,123.4810
131.7045,123.5384
131.8518,123.5529
131.9011,123.5578
131.9011,123.5578
131.9011,123.5578
131.9459,123.5533
132.0977,123.5384
132.2867,123.4810
132.4610,123.3879
132.6137,123.2626
132.7390,123.1099
132.8321,122.9356
132.8895,122.7466
132.9089,122.5500
133.4333,122.5500
133.4527,122.7466
133.5101,122.9356
133.6032,123.1099
133.7285,123.2626
133.8812,123.3879
134.0555,123.4810
134.2445,123.5384
134.3918,123.5529
134.4411,123.5578
134.4411,123.5578
134.4411,123.5578
134.4859,123.5533
134.6377,123.5384
134.8268,123.4810
135.0010,123.3879
135.1537,123.2626
135.2790,123.1099
135.3721,122.9356
135.4295,122.7466
135.4489,122.5500
135.9733,122.5500
135.9927,122.7466
136.0501,122.9356
136.1432,123.1099
136.2685,123.2626
136.4212,123.3879
136.5954,123.4810
136.7845,123.5384
136.9318,123.5529
136.9811,123.5578
136.9811,123.5578
136.9811,123.5578
137.0259,123.5533
137.1777,123.5384
137.3667,123.4810
137.5410,123.3879
137.6937,123.2626
137.8190,123.1099
137.9121,122.9356
137.9695,122.7466
137.9889,122.5500
138.5133,122.5500
138.5327,122.7466
138.5901,122.9356
138.6832,123.1099
138.8085,123.2626
138.9612,123.3879
139.1354,123.4810
139.3245,123.5384
139.4718,123.5529
139.5211,123.5578
139.5211,123.5578
139.5211,123.5578
139.5659,123.5533
139.7177,123.5384
139.9067,123.4810
140.0810,123.3879
140.2337,123.2626
140.3590,123.1099
140.4521,122.9356
140.5095,122.7466
140.5289,122.5500
141.0533,122.5500
141.0727,122.7466
141.1301,122.9356
141.2232,123.1099
141.3485,123.2626
141.5012,123.3879
141.6754,123.4810
141.8645,123.5384
142.0118,123.5529
142.0611,123.5578
142.0611,123.5578
142.0611,123.5578
142.1059,123.5533
142.2577,123.5384
142.4467,123.4810
142.6210,123.3879
142.7737,123.2626
142.8990,123.1099
142.9921,122.9356
143.0495,122.7466
143.0689,122.5500
143.0538,122.3976
143.5065,122.3976
144.1243,122.3976
144.1011,122.4842
144.1011,122.6158
144.1243,122.7024
143.5065,122.7024
143.5112,122.7537
143.5112,122.7537
143.5672,122.9505
143.6584,123.1337
143.6584,123.1337
143.7817,123.2969
143.7817,123.2969
143.9329,123.4348
144.1069,123.5425
144.2977,123.6164
144.4487,123.6446
144.4487,123.6446
144.4487,123.0268
144.5353,123.0500
144.6669,123.0500
144.7535,123.0268
144.7535,123.6446
144.9045,123.6164
145.0953,123.5425
145.2693,123.4348
145.4205,123.2969
145.4205,123.2969
145.5438,123.1337
145.5438,123.1337
145.6350,122.9505
145.6909,122.7537
145.6910,122.7537
145.6957,122.7024
145.0779,122.7024
145.1011,122.6158
145.1011,122.5500
146.1333,122.5500
146.1527,122.7466
146.2101,122.9356
146.3032,123.1099
146.4285,123.2626
146.5812,123.3879
146.7554,123.4810
146.9445,123.5384
147.0918,123.5529
147.1411,123.5578
147.1411,123.5578
147.1411,123.5578
147.1859,123.5533
147.3377,123.5384
147.5267,123.4810
147.7010,123.3879
147.8537,123.2626
147.9790,123.1099
148.0721,122.9356
148.1295,122.7466
148.1489,122.5500
148.6733,122.5500
148.6927,122.7466
148.7501,122.9356
148.8432,123.1099
148.9685,123.2626
149.1212,123.3879
149.2954,123.4810
149.4845,123.5384
149.6318,123.5529
149.6811,123.5578
149.6811,123.5578
149.6811,123.5578
149.7259,123.5533
149.8777,123.5384
150.0667,123.4810
150.2410,123.3879
150.3937,123.2626
150.5190,123.1099
150.6121,122.9356
150.6695,122.7466
150.6889,122.5500
151.2133,122.5500
151.2327,122.7466
151.2901,122.9356
151.3832,123.1099
151.5085,123.2626
151.6612,123.3879
151.8354,123.4810
152.0245,123.5384
152.1718,123.5529
152.2211,123.5578
152.2211,123.5578
152.2211,123.5578
152.2659,123.5533
152.4177,123.5384
152.6068,123.4810
152.7810,123.3879
152.9337,123.2626
153.0590,123.1099
153.1521,122.9356
153.2095,122.7466
153.2289,122.5500
153.2095,122.3534
153.1521,122.1643
153.0590,121.9901
152.9337,121.8374
152.7810,121.7121
152.7302,121.6849
153.7582,121.6849
153.7582,123.4150
153.7582,123.4151
153.7671,123.4597
153.7671,123.4597
153.8009,123.5102
153.8009,123.5102
153.8514,123.5440
153.8960,123.5529
155.6262,123.5529
155.6708,123.5440
155.7213,123.5102
155.7551,123.4597
155.7640,123.4151
155.7640,121.6849
155.7551,121.6403
155.7551,121.6403
155.7551,121.6403
155.7213,121.5898
155.7213,121.5898
155.6708,121.5560
155.6262,121.5471
155.6262,121.5471
153.8960,121.5471
153.8960,121.5471
153.8626,121.5538
153.8514,121.5560
153.8514,121.5560
153.8514,121.5560
153.8009,121.5898
153.8009,121.5898
153.7671,121.6403
153.7671,121.6403
153.7582,121.6849
152.7302,121.6849
152.6068,121.6190
152.4177,121.5616
152.2211,121.5422
152.2211,121.5422
152.0245,121.5616
151.9422,121.5866
151.8354,121.6190
151.8354,121.6190
151.8354,121.6190
151.7489,121.6652
151.6612,121.7121
151.6612,121.7121
151.6612,121.7121
151.5085,121.8374
151.3832,121.9901
151.2901,122.1643
151.2901,122.1643
151.2901,122.1643
151.2327,122.3534
151.2133,122.5500
150.6889,122.5500
150.6695,122.3534
150.6121,122.1643
150.5190,121.9901
150.3937,121.8374
150.2410,121.7121
150.0667,121.6190
149.8777,121.5616
149.6811,121.5422
149.6811,121.5422
149.4845,121.5616
149.4022,121.5866
149.2954,121.6190
149.2954,121.6190
149.2954,121.6190
149.2089,121.6652
149.1212,121.7121
149.1212,121.7121
149.1212,121.7121
148.9685,121.8374
148.8432,121.9901
148.7501,122.1643
148.7501,122.1643
148.7501,122.1643
148.6927,122.3534
148.6733,122.5500
148.1489,122.5500
148.1295,122.3534
148.0721,122.1643
147.9790,121.9901
147.8537,121.8374
147.7010,121.7121
147.5267,121.6190
147.3377,121.5616
147.1411,121.5422
147.1411,121.5422
146.9445,121.5616
146.8622,121.5866
146.7554,121.6190
146.7554,121.6190
146.7554,121.6190
146.6689,121.6652
146.5812,121.7121
146.5812,121.7121
146.5812,121.7121
146.4285,121.8374
146.3032,121.9901
146.2101,122.1643
146.2101,122.1643
146.2101,122.1643
146.1527,122.3534
146.1333,122.5500
145.1011,122.5500
145.1011,122.4842
145.0779,122.3976
145.6957,122.3976
145.6910,122.3463
145.6909,122.3463
145.6350,122.1495
145.5438,121.9663
145.5438,121.9663
145.4205,121.8031
145.4205,121.8031
145.2693,121.6652
145.0953,121.5575
144.9045,121.4836
144.7535,121.4554
144.7535,122.0732
144.6669,122.0500
144.5353,122.0500
144.4487,122.0732
144.4487,121.4554
144.4487,121.4554
144.2977,121.4836
144.1069,121.5575
143.9329,121.6652
143.7817,121.8031
143.7817,121.8031
143.6584,121.9663
143.6584,121.9663
143.5672,122.1495
143.5112,122.3463
143.5112,122.3463
143.5065,122.3976
143.0538,122.3976
143.0495,122.3534
142.9921,122.1643
142.8990,121.9901
142.7737,121.8374
142.6210,121.7121
142.4467,121.6190
142.2577,121.5616
142.0611,121.5422
142.0611,121.5422
141.8645,121.5616
141.7822,121.5866
141.6754,121.6190
141.6754,121.6190
141.6754,121.6190
141.5889,121.6652
141.5012,121.7121
141.5012,121.7121
141.5012,121.7121
141.3485,121.8374
141.2232,121.9901
141.1301,122.1643
141.1301,122.1643
141.1301,122.1643
141.0727,122.3534
141.0533,122.5500
140.5289,122.5500
140.5095,122.3534
140.4521,122.1643
140.3590,121.9901
140.2337,121.8374
140.0810,121.7121
139.9067,121.6190
139.7177,121.5616
139.5211,121.5422
139.5211,121.5422
139.3245,121.5616
139.2422,121.5866
139.1354,121.6190
139.1354,121.6190
139.1354,121.6190
139.0489,121.6652
138.9612,121.7121
138.9612,121.7121
138.9612,121.7121
138.8085,121.8374
138.6832,121.9901
138.5901,122.1643
138.5901,122.1643
138.5901,122.1643
138.5327,122.3534
138.5133,122.5500
137.9889,122.5500
137.9695,122.3534
137.9121,122.1643
137.8190,121.9901
137.6937,121.8374
137.5410,121.7121
137.3667,121.6190
137.1777,121.5616
136.9811,121.5422
136.9811,121.5422
136.7845,121.5616
136.7022,121.5866
136.5954,121.6190
136.5954,121.6190
136.5954,121.6190
136.5089,121.6652
136.4212,121.7121
136.4212,121.7121
136.4212,121.7121
136.2685,121.8374
136.1432,121.9901
136.0501,122.1643
136.0501,122.1643
136.0501,122.1643
135.9927,122.3534
135.9733,122.5500
135.4489,122.5500
135.4295,122.3534
135.3721,122.1643
135.2790,121.9901
135.1537,121.8374
135.0010,121.7121
134.8268,121.6190
134.6377,121.5616
134.4411,121.5422
134.4411,121.5422
134.2445,121.5616
134.1622,121.5866
134.0555,121.6190
134.0554,121.6190
134.0554,121.6190
133.9689,121.6652
133.8812,121.7121
133.8812,121.7121
133.8812,121.7121
133.7285,121.8374
133.6032,121.9901
133.5101,122.1643
133.5101,122.1643
133.5101,122.1643
133.4527,122.3534
133.4333,122.5500
132.9089,122.5500
132.8895,122.3534
132.8321,122.1643
132.7390,121.9901
132.6137,121.8374
132.4610,121.7121
132.2867,121.6190
132.0977,121.5616
131.9011,121.5422
131.9011,121.5422
131.7045,121.5616
131.6222,121.5866
131.5154,121.6190
131.5154,121.6190
131.5154,121.6190
131.4289,121.6652
131.3412,121.7121
131.3412,121.7121
131.3412,121.7121
131.1885,121.8374
131.0632,121.9901
130.9701,122.1643
130.9701,122.1643
130.9701,122.1643
130.9127,122.3534
130.8933,122.5500
126.2011,122.5500
126.2011,120.0100
130.8933,120.0100
130.9127,120.2066
130.9701,120.3956
131.0632,120.5699
131.1885,120.7226
131.3412,120.8479
131.5154,120.9410
131.7045,120.9984
131.8526,121.0130
131.9011,121.0178
131.9011,121.0178
131.9011,121.0178
131.9459,121.0133
132.0977,120.9984
132.2867,120.9410
132.4610,120.8479
132.6137,120.7226
132.7390,120.5699
132.8321,120.3956
132.8895,120.2066
132.9089,120.0100
133.4333,120.0100
133.4527,120.2066
133.5101,120.3956
133.6032,120.5699
133.7285,120.7226
133.8812,120.8479
134.0555,120.9410
134.2445,120.9984
134.3926,121.0130
134.4411,121.0178
134.4411,121.0178
134.4411,121.0178
134.4859,121.0133
134.6377,120.9984
134.8268,120.9410
135.0010,120.8479
135.1537,120.7226
135.2790,120.5699
135.3721,120.3956
135.4295,120.2066
135.4489,120.0100
135.9733,120.0100
135.9927,120.2066
136.0501,120.3956
136.1432,120.5699
136.2685,120.7226
136.4212,120.8479
136.5954,120.9410
136.7845,120.9984
136.9326,121.0130
136.9811,121.0178
136.9811,121.0178
136.9811,121.0178
137.0259,121.0133
137.1777,120.9984
137.3667,120.9410
137.5410,120.8479
137.6937,120.7226
137.8190,120.5699
137.9121,120.3956
137.9695,120.2066
137.9889,120.0100
138.5133,120.0100
138.5327,120.2066
138.5901,120.3956
138.6832,120.5699
138.8085,120.7226
138.9612,120.8479
139.1354,120.9410
139.3245,120.9984
139.4726,121.0130
139.5211,121.0178
139.5211,121.0178
139.5211,121.0178
139.5659,121.0133
139.7177,120.9984
139.9067,120.9410
140.0810,120.8479
140.2337,120.7226
140.3590,120.5699
140.4521,120.3956
140.5095,120.2066
140.5289,120.0100
141.0533,120.0100
141.0727,120.2066
141.1301,120.3956
141.2232,120.5699
141.3485,120.7226
141.5012,120.8479
141.6754,120.9410
141.8645,120.9984
142.0126,121.0130
142.0611,121.0178
142.0611,121.0178
142.0611,121.0178
142.1059,121.0133
142.2577,120.9984
142.4467,120.9410
142.6210,120.8479
142.7737,120.7226
142.8990,120.5699
142.9921,120.3956
143.0495,120.2066
143.0689,120.0100
143.5933,120.0100
143.6127,120.2066
143.6701,120.3956
143.7632,120.5699
143.8885,120.7226
144.0412,120.8479
144.2155,120.9410
144.4045,120.9984
144.5526,121.0130
144.6011,121.0178
144.6011,121.0178
144.6011,121.0178
144.6459,121.0133
144.7977,120.9984
144.9868,120.9410
145.1610,120.8479
145.3137,120.7226
145.4390,120.5699
145.5321,120.3956
145.5895,120.2066
145.6089,120.0100
146.1333,120.0100
146.1527,120.2066
146.2101,120.3956
146.3032,120.5699
146.4285,120.7226
146.5812,120.8479
146.7554,120.9410
146.9445,120.9984
147.0926,121.0130
147.1411,121.0178
147.1411,121.0178
147.1411,121.0178
147.1859,121.0133
147.3377,120.9984
147.5267,120.9410
147.7010,120.8479
147.8537,120.7226
147.9790,120.5699
148.0721,120.3956
148.1295,120.2066
148.1489,120.0100
148.6733,120.0100
148.6927,120.2066
148.7501,120.3956
148.8432,120.5699
148.9685,120.7226
149.1212,120.8479
149.2954,120.9410
149.4845,120.9984
149.6326,121.0130
149.6811,121.0178
149.6811,121.0178
149.6811,121.0178
149.7259,121.0133
149.8777,120.9984
150.0667,120.9410
150.2410,120.8479
150.3937,120.7226
150.5190,120.5699
150.6121,120.3956
150.6695,120.2066
150.6889,120.0100
151.2133,120.0100
151.2327,120.2066
151.2901,120.3956
151.3832,120.5699
151.5085,120.7226
151.6612,120.8479
151.8354,120.9410
152.0245,120.9984
152.1726,121.0130
152.2211,121.0178
152.2211,121.0178
152.2211,121.0178
152.2659,121.0133
152.4177,120.9984
152.6068,120.9410
152.7810,120.8479
152.9337,120.7226
153.0590,120.5699
153.1521,120.3956
153.2095,120.2066
153.2289,120.0100
153.7533,120.0100
153.7727,120.2066
153.8301,120.3956
153.9232,120.5699
154.0485,120.7226
154.2012,120.8479
154.3755,120.9410
154.5645,120.9984
154.7126,121.0130
154.7611,121.0178
154.7611,121.0178
154.7611,121.0178
154.8059,121.0133
154.9577,120.9984
155.1467,120.9410
155.3210,120.8479
155.4737,120.7226
155.5990,120.5699
155.6921,120.3956
155.7495,120.2066
155.7689,120.0100
155.7495,119.8134
155.6921,119.6243
155.5990,119.4501
155.4737,119.2974
155.3210,119.1721
155.1467,119.0790
154.9577,119.0216
154.7611,119.0022
154.7611,119.0022
154.5645,119.0216
154.4822,119.0466
154.3755,119.0790
154.3754,119.0790
154.3754,119.0790
154.2625,119.1393
154.2012,119.1721
154.2012,119.1721
154.2012,119.1721
154.0485,119.2974
153.9232,119.4501
153.8301,119.6243
153.8301,119.6243
153.8301,119.6243
153.7727,119.8134
153.7533,120.0100
153.2289,120.0100
153.2095,119.8134
153.1521,119.6243
153.0590,119.4501
152.9337,119.2974
152.7810,119.1721
152.6068,119.0790
152.4177,119.0216
152.2211,119.0022
152.2211,119.0022
152.0245,119.0216
151.9422,119.0466
151.8354,119.0790
151.8354,119.0790
151.8354,119.0790
151.7225,119.1393
151.6612,119.1721
151.6612,119.1721
151.6612,119.1721
151.5085,119.2974
151.3832,119.4501
151.2901,119.6243
151.2901,119.6243
151.2901,119.6243
151.2327,119.8134
151.2133,120.0100
150.6889,120.0100
150.6695,119.8134
150.6121,119.6243
150.5190,119.4501
150.3937,119.2974
150.2410,119.1721
150.0667,119.0790
149.8777,119.0216
149.6811,119.0022
149.6811,119.0022
149.4845,119.0216
149.4022,119.0466
149.2954,119.0790
149.2954,119.0790
149.2954,119.0790
149.1825,119.1393
149.1212,119.1721
149.1212,119.1721
149.1212,119.1721
148.9685,119.2974
148.8432,119.4501
148.7501,119.6243
148.7501,119.6243
148.7501,119.6243
148.6927,119.8134
148.6733,120.0100
148.1489,120.0100
148.1295,119.8134
148.0721,119.6243
147.9790,119.4501
147.8537,119.2974
147.7010,119.1721
147.5267,119.0790
147.3377,119.0216
147.1411,119.0022
147.1411,119.0022
146.9445,119.0216
146.8622,119.0466
146.7554,119.0790
146.7554,119.0790
146.7554,119.0790
146.6425,119.1393
146.5812,119.1721
146.5812,119.1721
146.5812,119.1721
146.4285,119.2974
146.3032,119.4501
146.2101,119.6243
146.2101,119.6243
146.2101,119.6243
146.1527,119.8134
146.1333,120.0100
145.6089,120.0100
145.5895,119.8134
145.5321,119.6243
145.4390,119.4501
145.3137,119.2974
145.1610,119.1721
144.9868,119.0790
144.7977,119.0216
144.6011,119.0022
144.6011,119.0022
144.4045,119.0216
144.3222,119.0466
144.2155,119.0790
144.2154,119.0790
144.2154,119.0790
144.1025,119.1393
144.0412,119.1721
144.0412,119.1721
144.0412,119.1721
143.8885,119.2974
143.7632,119.4501
143.6701,119.6243
143.6701,119.6243
143.6701,119.6243
143.6127,119.8134
143.5933,120.0100
143.0689,120.0100
143.0495,119.8134
142.9921,119.6243
142.8990,119.4501
142.7737,119.2974
142.6210,119.1721
142.4467,119.0790
142.2577,119.0216
142.0611,119.0022
142.0611,119.0022
141.8645,119.0216
141.7822,119.0466
141.6754,119.0790
141.6754,119.0790
141.6754,119.0790
141.5625,119.1393
141.5012,119.1721
141.5012,119.1721
141.5012,119.1721
141.3485,119.2974
141.2232,119.4501
141.1301,119.6243
141.1301,119.6243
141.1301,119.6243
141.0727,119.8134
141.0533,120.0100
140.5289,120.0100
140.5095,119.8134
140.4521,119.6243
140.3590,119.4501
140.2337,119.2974
140.0810,119.1721
139.9067,119.0790
139.7177,119.0216
139.5211,119.0022
139.5211,119.0022
139.3245,119.0216
139.2422,119.0466
139.1354,119.0790
139.1354,119.0790
139.1354,119.0790
139.0225,119.1393
138.9612,119.1721
138.9612,119.1721
138.9612,119.1721
138.8085,119.2974
138.6832,119.4501
138.5901,119.6243
138.5901,119.6243
138.5901,119.6243
138.5327,119.8134
138.5133,120.0100
137.9889,120.0100
137.9695,119.8134
137.9121,119.6243
137.8190,119.4501
137.6937,119.2974
137.5410,119.1721
137.3667,119.0790
137.1777,119.0216
136.9811,119.0022
136.9811,119.0022
136.7845,119.0216
136.7022,119.0466
136.5954,119.0790
136.5954,119.0790
136.5954,119.0790
136.4825,119.1393
136.4212,119.1721
136.4212,119.1721
136.4212,119.1721
136.2685,119.2974
136.1432,119.4501
136.0501,119.6243
136.0501,119.6243
136.0501,119.6243
135.9927,119.8134
135.9733,120.0100
135.4489,120.0100
135.4295,119.8134
135.3721,119.6243
135.2790,119.4501
135.1537,119.2974
135.0010,119.1721
134.8268,119.0790
134.6377,119.0216
134.4411,119.0022
134.4411,119.0022
134.2445,119.0216
134.1622,119.0466
134.0555,119.0790
134.0554,119.0790
134.0554,119.0790
133.9425,119.1393
133.8812,119.1721
133.8812,119.1721
133.8812,119.1721
133.7285,119.2974
133.6032,119.4501
133.5101,119.6243
133.5101,119.6243
133.5101,119.6243
133.4527,119.8134
133.4333,120.0100
132.9089,120.0100
132.8895,119.8134
132.8321,119.6243
132.7390,119.4501
132.6137,119.2974
132.4610,119.1721
132.2867,119.0790
132.0977,119.0216
131.9011,119.0022
131.9011,119.0022
131.7045,119.0216
131.6222,119.0466
131.5154,119.0790
131.5154,119.0790
131.5154,119.0790
131.4025,119.1393
131.3412,119.1721
131.3412,119.1721
131.3412,119.1721
131.1885,119.2974
131.0632,119.4501
130.9701,119.6243
130.9701,119.6243
130.9701,119.6243
130.9127,119.8134
130.8933,120.0100
126.2011,120.0100
126.2011,115.9468
139.5159,115.9468
139.5159,115.9468
139.5355,116.0835
139.5355,116.0835
139.5929,116.2091
139.5929,116.2091
139.6833,116.3135
139.6833,116.3135
139.7995,116.3882
139.7995,116.3882
139.7995,116.3882
139.9320,116.4271
139.9320,116.4271
140.0702,116.4271
140.0702,116.4271
140.2027,116.3882
140.3189,116.3135
140.4093,116.2091
140.4667,116.0835
140.4863,115.9468
140.4667,115.8101
140.4093,115.6845
140.4093,115.6845
140.4093,115.6845
140.4093,115.6845
140.3189,115.5801
140.3189,115.5801
140.2027,115.5054
140.2027,115.5054
140.2027,115.5054
140.0702,115.4665
139.9320,115.4665
139.7995,115.5054
139.7995,115.5054
139.7995,115.5054
139.6833,115.5801
139.6833,115.5801
139.5929,115.6845
139.5929,115.6845
139.5355,115.8101
139.5355,115.8101
139.5159,115.9468
126.2011,115.9468
126.2011,115.0464
137.5148,115.0464
137.5148,115.0464
137.5344,115.1831
137.5344,115.1831
137.5918,115.3087
137.5918,115.3087
137.6822,115.4131
137.6822,115.4131
137.7984,115.4878
137.7984,115.4878
137.7984,115.4878
137.9309,115.5267
137.9309,115.5267
138.0691,115.5267
138.0691,115.5267
138.2016,115.4878
138.3178,115.4131
138.4082,115.3087
138.4656,115.1831
138.4832,115.0606
143.5659,115.0606
143.5659,115.0606
143.5855,115.1973
143.5855,115.1973
143.6429,115.3229
143.6429,115.3229
143.7333,115.4273
143.7333,115.4273
143.8495,115.5020
143.8495,115.5020
143.8495,115.5020
143.9820,115.5409
143.9820,115.5409
144.1202,115.5409
144.1202,115.5409
144.2527,115.5020
144.3689,115.4273
144.4593,115.3229
144.5167,115.1973
144.5363,115.0606
144.5343,115.0464
144.5298,115.0150
144.5167,114.9239
144.4593,114.7983
144.4593,114.7983
144.4593,114.7983
144.4593,114.7983
144.3689,114.6939
144.3689,114.6939
144.2527,114.6192
144.2527,114.6192
144.2527,114.6192
144.1202,114.5803
143.9820,114.5803
143.8495,114.6192
143.8495,114.6192
143.8495,114.6192
143.7333,114.6939
143.7333,114.6939
143.6429,114.7983
143.6429,114.7983
143.5855,114.9239
143.5855,114.9239
143.5659,115.0606
138.4832,115.0606
138.4852,115.0464
138.4656,114.9097
138.4082,114.7841
138.4082,114.7841
138.4082,114.7841
138.4082,114.7841
138.3178,114.6797
138.3178,114.6797
138.2016,114.6050
138.2016,114.6050
138.2016,114.6050
138.0691,114.5661
137.9309,114.5661
137.7984,114.6050
137.7984,114.6050
137.7984,114.6050
137.6822,114.6797
137.6822,114.6797
137.5918,114.7841
137.5918,114.7841
137.5344,114.9097
137.5344,114.9097
137.5148,115.0464
126.2011,115.0464
126.2011,114.0500
136.1159,114.0500
136.1159,114.0500
136.1355,114.1867
136.1355,114.1867
136.1929,114.3123
136.1929,114.3123
136.2833,114.4167
136.2833,114.4167
136.3995,114.4914
136.3995,114.4914
136.3995,114.4914
136.5320,114.5303
136.5320,114.5303
136.6702,114.5303
136.6702,114.5303
136.8027,114.4914
136.9189,114.4167
137.0093,114.3123
137.0667,114.1867
137.0863,114.0500
137.0667,113.9133
137.0093,113.7877
137.0093,113.7877
137.0093,113.7877
137.0093,113.7877
136.9189,113.6833
136.9189,113.6833
136.8027,113.6086
136.8027,113.6086
136.8027,113.6086
136.6702,113.5697
136.5320,113.5697
136.3995,113.6086
136.3995,113.6086
136.3995,113.6086
136.2833,113.6833
136.2833,113.6833
136.1929,113.7877
136.1929,113.7877
136.1355,113.9133
136.1355,113.9133
136.1159,114.0500
126.2011,114.0500
126.2011,112.4500
151.8159,112.4500
151.8159,112.4500
151.8355,112.5867
151.8355,112.5867
151.8929,112.7123
151.8929,112.7123
151.9833,112.8167
151.9833,112.8167
152.0995,112.8914
152.0995,112.8914
152.0995,112.8914
152.2320,112.9303
152.2320,112.9303
152.3702,112.9303
152.3702,112.9303
152.5027,112.8914
152.6189,112.8167
152.7093,112.7123
152.7667,112.5867
152.7863,112.4500
152.7667,112.3133
152.7093,112.1877
152.7093,112.1877
152.7093,112.1877
152.7093,112.1877
152.6189,112.0833
152.6189,112.0833
152.5027,112.0086
152.5027,112.0086
152.5027,112.0086
152.3702,111.9697
152.2320,111.9697
152.0995,112.0086
152.0995,112.0086
152.0995,112.0086
151.9833,112.0833
151.9833,112.0833
151.8929,112.1877
151.8929,112.1877
151.8355,112.3133
151.8355,112.3133
151.8159,112.4500
126.2011,112.4500
126.2011,111.8000
143.0659,111.8000
143.0659,111.8000
143.0855,111.9367
143.0855,111.9367
143.1429,112.0623
143.1429,112.0623
143.2333,112.1667
143.2333,112.1667
143.3495,112.2414
143.3495,112.2414
143.3495,112.2414
143.4820,112.2803
143.4820,112.2803
143.6202,112.2803
143.6202,112.2803
143.7527,112.2414
143.8689,112.1667
143.9593,112.0623
144.0167,111.9367
144.0363,111.8000
144.0167,111.6633
143.9593,111.5377
143.9593,111.5377
143.9593,111.5377
143.9593,111.5377
143.8689,111.4333
143.8689,111.4333
143.7527,111.3586
143.7527,111.3586
143.7527,111.3586
143.6202,111.3197
143.4820,111.3197
143.3495,111.3586
143.3495,111.3586
143.3495,111.3586
143.2333,111.4333
143.2333,111.4333
143.1429,111.5377
143.1429,111.5377
143.0855,111.6633
143.0855,111.6633
143.0659,111.8000
126.2011,111.8000
126.2011,110.5060
144.1159,110.5060
144.1159,110.5060
144.1355,110.6427
144.1355,110.6427
144.1929,110.7683
144.1929,110.7683
144.2833,110.8727
144.2833,110.8727
144.3995,110.9474
144.3995,110.9474
144.3995,110.9474
144.5320,110.9863
144.5320,110.9863
144.6702,110.9863
144.6702,110.9863
144.8027,110.9474
144.9189,110.8727
145.0093,110.7683
145.0667,110.6427
145.0863,110.5060
145.0667,110.3693
145.0093,110.2437
145.0093,110.2437
145.0093,110.2437
145.0093,110.2437
144.9189,110.1393
144.9189,110.1393
144.8027,110.0646
144.8027,110.0646
144.8027,110.0646
144.6702,110.0257
144.5320,110.0257
144.3995,110.0646
144.3995,110.0646
144.3995,110.0646
144.2833,110.1393
144.2833,110.1393
144.1929,110.2437
144.1929,110.2437
144.1355,110.3693
144.1355,110.3693
144.1159,110.5060
126.2011,110.5060
126.2011,107.3249
128.6982,107.3249
128.6982,109.0550
128.6982,109.0551
128.7071,109.0997
128.7071,109.0997
128.7409,109.1502
128.7409,109.1502
128.7914,109.1840
128.8360,109.1929
130.5662,109.1929
130.6108,109.1840
130.6613,109.1502
130.6814,109.1202
144.1989,109.1202
144.1989,109.1202
144.2185,109.2569
144.2185,109.2569
144.2759,109.3825
144.2759,109.3825
144.3663,109.4869
144.3663,109.4869
144.4825,109.5616
144.4825,109.5616
144.4825,109.5616
144.6150,109.6005
144.6150,109.6005
144.7532,109.6005
144.7532,109.6005
144.8857,109.5616
145.0019,109.4869
145.0923,109.3825
145.1497,109.2569
145.1557,109.2152
147.1599,109.2152
147.1599,109.2152
147.1795,109.3519
147.1795,109.3519
147.2369,109.4775
147.2369,109.4775
147.3273,109.5819
147.3273,109.5819
147.4435,109.6566
147.4435,109.6566
147.4435,109.6566
147.5760,109.6955
147.5760,109.6955
147.7142,109.6955
147.7142,109.6955
147.8467,109.6566
147.9629,109.5819
148.0533,109.4775
148.1107,109.3519
148.1303,109.2152
148.1107,109.0785
148.0533,108.9529
148.0533,108.9529
148.0533,108.9529
148.0533,108.9529
147.9629,108.8485
147.9629,108.8485
147.8467,108.7738
147.8467,108.7738
147.8467,108.7738
147.7142,108.7349
147.5760,108.7349
147.4435,108.7738
147.4435,108.7738
147.4435,108.7738
147.3273,108.8485
147.3273,108.8485
147.2369,108.9529
147.2369,108.9529
147.1795,109.0785
147.1795,109.0785
147.1599,109.2152
145.1557,109.2152
145.1693,109.1202
145.1664,109.0997
145.1600,109.0551
145.1497,108.9835
145.0923,108.8579
145.0923,108.8579
145.0923,108.8579
145.0923,108.8579
145.0019,108.7535
145.0019,108.7535
144.8857,108.6788
144.8857,108.6788
144.8857,108.6788
144.7532,108.6399
144.6150,108.6399
144.4825,108.6788
144.4825,108.6788
144.4825,108.6788
144.3663,108.7535
144.3663,108.7535
144.2759,108.8579
144.2759,108.8579
144.2185,108.9835
144.2185,108.9835
144.1989,109.1202
130.6814,109.1202
130.6951,109.0997
130.7040,109.0551
130.7040,108.4500
137.0159,108.4500
137.0159,108.4500
137.0355,108.5867
137.0355,108.5867
137.0929,108.7123
137.0929,108.7123
137.1833,108.8167
137.1833,108.8167
137.2995,108.8914
137.2995,108.8914
137.2995,108.8914
137.4320,108.9303
137.4320,108.9303
137.5702,108.9303
137.5702,108.9303
137.7027,108.8914
137.8189,108.8167
137.9093,108.7123
137.9667,108.5867
137.9863,108.4500
137.9667,108.3133
137.9378,108.2500
147.8159,108.2500
147.8159,108.2500
147.8355,108.3867
147.8355,108.3867
147.8929,108.5123
147.8929,108.5123
147.9833,108.6167
147.9833,108.6167
148.0995,108.6914
148.0995,108.6914
148.0995,108.6914
148.2320,108.7303
148.2320,108.7303
148.3702,108.7303
148.3702,108.7303
148.5027,108.6914
148.6189,108.6167
148.7093,108.5123
148.7667,108.3867
148.7863,108.2500
148.7667,108.1133
148.7093,107.9877
148.7093,107.9877
148.7093,107.9877
148.7093,107.9877
148.6189,107.8833
148.6189,107.8833
148.5027,107.8086
148.5027,107.8086
148.5027,107.8086
148.3702,107.7697
148.2320,107.7697
148.0995,107.8086
148.0995,107.8086
148.0995,107.8086
147.9833,107.8833
147.9833,107.8833
147.8929,107.9877
147.8929,107.9877
147.8355,108.1133
147.8355,108.1133
147.8159,108.2500
137.9378,108.2500
137.9093,108.1877
137.9093,108.1877
137.9093,108.1877
137.9093,108.1877
137.8189,108.0833
137.8189,108.0833
137.7027,108.0086
137.7027,108.0086
137.7027,108.0086
137.5702,107.9697
137.4320,107.9697
137.2995,108.0086
137.2995,108.0086
137.2995,108.0086
137.1833,108.0833
137.1833,108.0833
137.0929,108.1877
137.0929,108.1877
137.0355,108.3133
137.0355,108.3133
137.0159,108.4500
130.7040,108.4500
130.7040,107.3500
147.2159,107.3500
147.2159,107.3500
147.2355,107.4867
147.2355,107.4867
147.2929,107.6123
147.2929,107.6123
147.3833,107.7167
147.3833,107.7167
147.4995,107.7914
147.4995,107.7914
147.4995,107.7914
147.6320,107.8303
147.6320,107.8303
147.7702,107.8303
147.7702,107.8303
147.9027,107.7914
148.0189,107.7167
148.1093,107.6123
148.1667,107.4867
148.1863,107.3500
148.1827,107.3249
148.1763,107.2803
148.1667,107.2133
148.1378,107.1500
151.4522,107.1500
151.4522,107.1500
151.4718,107.2867
151.4718,107.2867
151.5292,107.4123
151.5292,107.4123
151.6196,107.5167
151.6196,107.5167
151.7358,107.5914
151.7358,107.5914
151.7358,107.5914
151.8683,107.6303
151.8683,107.6303
152.0065,107.6303
152.0065,107.6303
152.1390,107.5914
152.2552,107.5167
152.3456,107.4123
152.4030,107.2867
152.4226,107.1500
152.4030,107.0133
152.3456,106.8877
152.3456,106.8877
152.3456,106.8877
152.3456,106.8877
152.2552,106.7833
152.2552,106.7833
152.1390,106.7086
152.1390,106.7086
152.1390,106.7086
152.0065,106.6697
151.8683,106.6697
151.7358,106.7086
151.7358,106.7086
151.7358,106.7086
151.6196,106.7833
151.6196,106.7833
151.5292,106.8877
151.5292,106.8877
151.4718,107.0133
151.4718,107.0133
151.4522,107.1500
148.1378,107.1500
148.1093,107.0877
148.1093,107.0877
148.1093,107.0877
148.1093,107.0877
148.0189,106.9833
148.0189,106.9833
147.9027,106.9086
147.9027,106.9086
147.9027,106.9086
147.7702,106.8697
147.6320,106.8697
147.4995,106.9086
147.4995,106.9086
147.4995,106.9086
147.3833,106.9833
147.3833,106.9833
147.2929,107.0877
147.2929,107.0877
147.2355,107.2133
147.2355,107.2133
147.2159,107.3500
130.7040,107.3500
130.7040,107.3249
130.6951,107.2803
130.6951,107.2803
130.6951,107.2803
130.6613,107.2298
130.6613,107.2298
130.6108,107.1960
130.5662,107.1871
130.5662,107.1871
128.8360,107.1871
128.8360,107.1871
128.8026,107.1938
128.7914,107.1960
128.7914,107.1960
128.7914,107.1960
128.7409,107.2298
128.7409,107.2298
128.7071,107.2803
128.7071,107.2803
128.6982,107.3249
126.2011,107.3249
126.2011,106.8245
143.9829,106.8245
143.9829,106.8245
144.0025,106.9612
144.0025,106.9612
144.0599,107.0868
144.0599,107.0868
144.1503,107.1912
144.1503,107.1912
144.2665,107.2659
144.2665,107.2659
144.2665,107.2659
144.3990,107.3048
144.3990,107.3048
144.5372,107.3048
144.5372,107.3048
144.6697,107.2659
144.7859,107.1912
144.8763,107.0868
144.9337,106.9612
144.9533,106.8245
144.9337,106.6878
144.8763,106.5622
144.8763,106.5622
144.8763,106.5622
144.8763,106.5622
144.7859,106.4578
144.7859,106.4578
144.6697,106.3831
144.6697,106.3831
144.6697,106.3831
144.5372,106.3442
144.3990,106.3442
144.2665,106.3831
144.2665,106.3831
144.2665,106.3831
144.1503,106.4578
144.1503,106.4578
144.0599,106.5622
144.0599,106.5622
144.0025,106.6878
144.0025,106.6878
143.9829,106.8245
126.2011,106.8245
126.2011,105.4976
128.6065,105.4976
129.2243,105.4976
129.2011,105.5842
129.2011,105.7158
129.2243,105.8024
128.6065,105.8024
128.6112,105.8537
128.6112,105.8537
128.6672,106.0505
128.7584,106.2337
128.7584,106.2337
128.8817,106.3969
128.8817,106.3969
129.0329,106.5348
129.2069,106.6425
129.3977,106.7164
129.5487,106.7446
129.5487,106.7446
129.5487,106.1268
129.6353,106.1500
129.7669,106.1500
129.8535,106.1268
129.8535,106.7446
130.0045,106.7164
130.1953,106.6425
130.3693,106.5348
130.5205,106.3969
130.5205,106.3969
130.6438,106.2337
130.6438,106.2337
130.7350,106.0505
130.7909,105.8537
130.7910,105.8537
130.7957,105.8024
130.1779,105.8024
130.1785,105.8000
139.8989,105.8000
139.8989,105.8000
139.9185,105.9367
139.9185,105.9367
139.9759,106.0623
139.9759,106.0623
140.0663,106.1667
140.0663,106.1667
140.1825,106.2414
140.1825,106.2414
140.1825,106.2414
140.3150,106.2803
140.3150,106.2803
140.4532,106.2803
140.4532,106.2803
140.5857,106.2414
140.7019,106.1667
140.7923,106.0623
140.8497,105.9367
140.8635,105.8403
140.8830,105.8075
140.9199,105.7981
140.9269,105.7996
140.9734,105.8133
140.9734,105.8133
141.1116,105.8133
141.1116,105.8133
141.2441,105.7744
141.3603,105.6997
141.4085,105.6441
141.4425,105.6270
141.4787,105.6391
141.4837,105.6441
141.5319,105.6997
141.5319,105.6997
141.6481,105.7744
141.6481,105.7744
141.6481,105.7744
141.6696,105.7807
141.6993,105.8046
141.7034,105.8425
141.7009,105.8492
141.6609,105.9367
141.6512,105.9580
141.6512,105.9580
141.6315,106.0947
141.6315,106.0947
141.6512,106.2314
141.6512,106.2314
141.7086,106.3571
141.7086,106.3571
141.7990,106.4615
141.7990,106.4615
141.9152,106.5361
141.9152,106.5361
141.9152,106.5361
142.0477,106.5750
142.0477,106.5750
142.1858,106.5750
142.1858,106.5750
142.3184,106.5361
142.4345,106.4615
142.5250,106.3571
142.5824,106.2314
142.6020,106.0947
142.5824,105.9580
142.5250,105.8324
142.5250,105.8324
142.5250,105.8324
142.5250,105.8324
142.4346,105.7280
142.4345,105.7280
142.3910,105.7000
143.0719,105.7000
143.0719,105.7000
143.0915,105.8367
143.0915,105.8367
143.1489,105.9623
143.1489,105.9623
143.2393,106.0667
143.2393,106.0667
143.3555,106.1414
143.3555,106.1414
143.3555,106.1414
143.4880,106.1803
143.4880,106.1803
143.6262,106.1803
143.6262,106.1803
143.7587,106.1414
143.8749,106.0667
143.8787,106.0623
143.9653,105.9623
143.9653,105.9623
143.9653,105.9623
143.9653,105.9623
144.0227,105.8367
144.0423,105.7000
144.0423,105.6997
144.0318,105.6270
144.0227,105.5633
143.9653,105.4377
143.9653,105.4377
143.9653,105.4377
143.9653,105.4377
143.8935,105.3548
144.2576,105.3548
144.2576,105.3548
144.2773,105.4915
144.2773,105.4915
144.3347,105.6171
144.3347,105.6171
144.4251,105.7215
144.4251,105.7215
144.5413,105.7962
144.5413,105.7962
144.5413,105.7962
144.6738,105.8351
144.6738,105.8351
144.8119,105.8351
144.8119,105.8351
144.9444,105.7962
145.0606,105.7215
145.0793,105.7000
145.0908,105.6867
145.1511,105.6171
145.2084,105.4915
145.2281,105.3548
145.2264,105.3430
145.2143,105.2586
145.2084,105.2181
145.1511,105.0925
145.1511,105.0925
145.1511,105.0925
145.1511,105.0925
145.0606,104.9881
145.0606,104.9881
144.9444,104.9134
144.9444,104.9134
144.9444,104.9134
144.8119,104.8745
144.6738,104.8745
144.5413,104.9134
144.5413,104.9134
144.5413,104.9134
144.4251,104.9881
144.4251,104.9881
144.3347,105.0925
144.3347,105.0925
144.2773,105.2181
144.2773,105.2181
144.2576,105.3548
143.8935,105.3548
143.8749,105.3333
143.8749,105.3333
143.7587,105.2586
143.7587,105.2586
143.7587,105.2586
143.6262,105.2197
143.4880,105.2197
143.3555,105.2586
143.3555,105.2586
143.3555,105.2586
143.2393,105.3333
143.2393,105.3333
143.1489,105.4377
143.1489,105.4377
143.0915,105.5633
143.0915,105.5633
143.0719,105.7000
142.3910,105.7000
142.3184,105.6533
142.3184,105.6533
142.2968,105.6470
142.2672,105.6231
142.2631,105.5852
142.2656,105.5786
142.3153,105.4697
142.3349,105.3330
142.3153,105.1963
142.2579,105.0707
142.2579,105.0707
142.2579,105.0707
142.2579,105.0707
142.1675,104.9663
142.1675,104.9663
142.0513,104.8916
142.0513,104.8916
142.0513,104.8916
141.9188,104.8527
141.7806,104.8527
141.6481,104.8916
141.6481,104.8916
141.6481,104.8916
141.5319,104.9663
141.5319,104.9663
141.4837,105.0219
141.4496,105.0390
141.4135,105.0269
141.4085,105.0219
141.3603,104.9663
141.3603,104.9663
141.2441,104.8916
141.2441,104.8916
141.2441,104.8916
141.1116,104.8527
141.1116,104.8527
141.0918,104.8527
141.0566,104.8381
141.0420,104.8029
141.0425,104.7958
141.0601,104.6737
141.0601,104.6737
141.0471,104.5836
141.0404,104.5370
140.9830,104.4114
140.9830,104.4114
140.9830,104.4114
140.9830,104.4114
140.8926,104.3070
140.8926,104.3070
140.7764,104.2323
140.7764,104.2323
140.7764,104.2323
140.6439,104.1934
140.5058,104.1934
140.3732,104.2323
140.3732,104.2323
140.3732,104.2323
140.2571,104.3070
140.2571,104.3070
140.1666,104.4114
140.1666,104.4114
140.1092,104.5370
140.1092,104.5370
140.0896,104.6737
140.0896,104.6737
140.1092,104.8104
140.1092,104.8104
140.1666,104.9361
140.1666,104.9361
140.2571,105.0404
140.2571,105.0404
140.3732,105.1151
140.3732,105.1151
140.3732,105.1151
140.5058,105.1540
140.5255,105.1540
140.5607,105.1686
140.5753,105.2038
140.5748,105.2109
140.5631,105.2927
140.5436,105.3255
140.5067,105.3349
140.4997,105.3334
140.4728,105.3255
140.4532,105.3197
140.3150,105.3197
140.1825,105.3586
140.1825,105.3586
140.1825,105.3586
140.0663,105.4333
140.0663,105.4333
139.9759,105.5377
139.9759,105.5377
139.9185,105.6633
139.9185,105.6633
139.8989,105.8000
130.1785,105.8000
130.2011,105.7158
130.2011,105.5842
130.1779,105.4976
130.7957,105.4976
130.7910,105.4463
130.7909,105.4463
130.7350,105.2495
130.6438,105.0663
130.6438,105.0663
130.5205,104.9031
130.5205,104.9031
130.3693,104.7652
130.1953,104.6575
130.0045,104.5836
129.8535,104.5554
129.8535,105.1732
129.7669,105.1500
129.6353,105.1500
129.5487,105.1732
129.5487,104.5554
129.5487,104.5554
129.3977,104.5836
129.2069,104.6575
129.0329,104.7652
128.8817,104.9031
128.8817,104.9031
128.7584,105.0663
128.7584,105.0663
128.6672,105.2495
128.6112,105.4463
128.6112,105.4463
128.6065,105.4976
126.2011,105.4976
126.2011,103.6382
141.1276,103.6382
141.1276,103.6382
141.1473,103.7749
141.1473,103.7749
141.2047,103.9006
141.2047,103.9006
141.2951,104.0049
141.2951,104.0050
141.4113,104.0796
141.4113,104.0796
141.4113,104.0796
141.5438,104.1185
141.5438,104.1185
141.6819,104.1185
141.6819,104.1185
141.8144,104.0796
141.9306,104.0050
142.0211,103.9006
142.0785,103.7749
142.0964,103.6500
145.9159,103.6500
145.9159,103.6500
145.9355,103.7867
145.9355,103.7867
145.9929,103.9123
145.9929,103.9123
146.0833,104.0167
146.0833,104.0167
146.1995,104.0914
146.1995,104.0914
146.1995,104.0914
146.3320,104.1303
146.3320,104.1303
146.4702,104.1303
146.4702,104.1303
146.6027,104.0914
146.7189,104.0167
146.8093,103.9123
146.8667,103.7867
146.8863,103.6500
146.8667,103.5133
146.8093,103.3877
146.8093,103.3877
146.8093,103.3877
146.8093,103.3877
146.7189,103.2833
146.7189,103.2833
146.6027,103.2086
146.6027,103.2086
146.6027,103.2086
146.4702,103.1697
146.3320,103.1697
146.1995,103.2086
146.1995,103.2086
146.1995,103.2086
146.0833,103.2833
146.0833,103.2833
145.9929,103.3877
145.9929,103.3877
145.9355,103.5133
145.9355,103.5133
145.9159,103.6500
142.0964,103.6500
142.0981,103.6382
142.0785,103.5015
142.0211,103.3759
142.0211,103.3759
142.0211,103.3759
142.0211,103.3759
141.9306,103.2715
141.9306,103.2715
141.8144,103.1968
141.8144,103.1968
141.8144,103.1968
141.6819,103.1579
141.5438,103.1579
141.4113,103.1968
141.4113,103.1968
141.4113,103.1968
141.2951,103.2715
141.2951,103.2715
141.2047,103.3759
141.2047,103.3759
141.1473,103.5015
141.1473,103.5015
141.1276,103.6382
126.2011,103.6382
126.2011,102.4945
141.2159,102.4945
141.2159,102.4945
141.2355,102.6312
141.2355,102.6312
141.2929,102.7568
141.2929,102.7568
141.3833,102.8612
141.3833,102.8612
141.4995,102.9359
141.4995,102.9359
141.4995,102.9359
141.6320,102.9748
141.6320,102.9748
141.7702,102.9748
141.7702,102.9748
141.9027,102.9359
142.0189,102.8612
142.0937,102.7749
144.7540,102.7749
144.7540,102.7749
144.7737,102.9116
144.7737,102.9116
144.8311,103.0372
144.8311,103.0372
144.9215,103.1416
144.9215,103.1416
145.0377,103.2163
145.0377,103.2163
145.0377,103.2163
145.1702,103.2552
145.1702,103.2552
145.3083,103.2552
145.3083,103.2552
145.4408,103.2163
145.5570,103.1416
145.6475,103.0372
145.7049,102.9116
145.7245,102.7749
145.7219,102.7568
145.7180,102.7293
145.7049,102.6382
145.6475,102.5126
145.6475,102.5126
145.6475,102.5126
145.6475,102.5126
145.5570,102.4082
145.5570,102.4082
145.4408,102.3335
145.4408,102.3335
145.4408,102.3335
145.3083,102.2946
145.1702,102.2946
145.0377,102.3335
145.0377,102.3335
145.0377,102.3335
144.9215,102.4082
144.9215,102.4082
144.8311,102.5126
144.8311,102.5126
144.7737,102.6382
144.7737,102.6382
144.7540,102.7749
142.0937,102.7749
142.1093,102.7568
142.1667,102.6312
142.1863,102.4945
142.1667,102.3578
142.1093,102.2322
142.1093,102.2322
142.1093,102.2322
142.1093,102.2322
142.0189,102.1278
142.0189,102.1278
141.9027,102.0531
141.9027,102.0531
141.9027,102.0531
141.7702,102.0142
141.6320,102.0142
141.4995,102.0531
141.4995,102.0531
141.4995,102.0531
141.3833,102.1278
141.3833,102.1278
141.2929,102.2322
141.2929,102.2322
141.2355,102.3578
141.2355,102.3578
141.2159,102.4945
126.2011,102.4945
126.2011,100.1580
135.3238,100.1580
135.3238,100.1580
135.3435,100.2947
135.3435,100.2947
135.4008,100.4203
135.4008,100.4203
135.4913,100.5247
135.4913,100.5247
135.6075,100.5993
135.6075,100.5993
135.6075,100.5993
135.7400,100.6383
135.7400,100.6383
135.8781,100.6383
135.8781,100.6383
136.0106,100.5993
136.1268,100.5247
136.2173,100.4203
136.2746,100.2947
136.2943,100.1580
136.2931,100.1500
136.2931,100.1500
140.1159,100.1500
140.1159,100.1500
140.1355,100.2867
140.1355,100.2867
140.1929,100.4123
140.1929,100.4123
140.2833,100.5167
140.2833,100.5167
140.3995,100.5914
140.3995,100.5914
140.3995,100.5914
140.5320,100.6303
140.5320,100.6303
140.6702,100.6303
140.6702,100.6303
140.8027,100.5914
140.9189,100.5167
140.9671,100.4611
141.0011,100.4440
141.0373,100.4561
141.0423,100.4611
141.0905,100.5167
141.0905,100.5167
141.2067,100.5914
141.2067,100.5914
141.2067,100.5914
141.3392,100.6303
141.3392,100.6303
141.4774,100.6303
141.4774,100.6303
141.6099,100.5914
141.7261,100.5167
141.8165,100.4123
141.8739,100.2867
141.8935,100.1500
141.8739,100.0133
141.8165,99.8877
141.8165,99.8877
141.8165,99.8877
141.8165,99.8877
141.7261,99.7833
141.7261,99.7833
141.6099,99.7086
141.6099,99.7086
141.6099,99.7086
141.4774,99.6697
141.3392,99.6697
141.2067,99.7086
141.2067,99.7086
141.2067,99.7086
141.0905,99.7833
141.0905,99.7833
141.0423,99.8389
141.0083,99.8560
140.9721,99.8439
140.9671,99.8389
140.9189,99.7833
140.9189,99.7833
140.8027,99.7086
140.8027,99.7086
140.8027,99.7086
140.6702,99.6697
140.5320,99.6697
140.3995,99.7086
140.3995,99.7086
140.3995,99.7086
140.2833,99.7833
140.2833,99.7833
140.1929,99.8877
140.1929,99.8877
140.1355,100.0133
140.1355,100.0133
140.1159,100.1500
136.2931,100.1500
136.2877,100.1124
136.2746,100.0212
136.2173,99.8956
136.2173,99.8956
136.2173,99.8956
136.2173,99.8956
136.1268,99.7912
136.1268,99.7912
136.0106,99.7166
136.0106,99.7166
136.0106,99.7166
135.8781,99.6777
135.7400,99.6777
135.6075,99.7166
135.6075,99.7166
135.6075,99.7166
135.4913,99.7912
135.4913,99.7912
135.4008,99.8956
135.4008,99.8956
135.3435,100.0212
135.3435,100.0212
135.3238,100.1580
126.2011,100.1580
126.2011,99.0500
140.1159,99.0500
140.1159,99.0500
140.1355,99.1867
140.1355,99.1867
140.1929,99.3123
140.1929,99.3123
140.2833,99.4167
140.2833,99.4167
140.3995,99.4914
140.3995,99.4914
140.3995,99.4914
140.5320,99.5303
140.5320,99.5303
140.6702,99.5303
140.6702,99.5303
140.8027,99.4914
140.9189,99.4167
141.0093,99.3123
141.0667,99.1867
141.0863,99.0500
141.0667,98.9133
141.0093,98.7877
141.0093,98.7877
141.0093,98.7877
141.0093,98.7877
140.9189,98.6833
140.9189,98.6833
140.8027,98.6086
140.8027,98.6086
140.8027,98.6086
140.6702,98.5697
140.5320,98.5697
140.3995,98.6086
140.3995,98.6086
140.3995,98.6086
140.2833,98.6833
140.2833,98.6833
140.1929,98.7877
140.1929,98.7877
140.1355,98.9133
140.1355,98.9133
140.1159,99.0500
126.2011,99.0500
126.2011,97.7362
138.0159,97.7362
138.0159,97.7362
138.0355,97.8729
138.0355,97.8729
138.0929,97.9985
138.0929,97.9985
138.1833,98.1029
138.1833,98.1029
138.2995,98.1776
138.2995,98.1776
138.2995,98.1776
138.4320,98.2165
138.4788,98.2165
138.5140,98.2311
138.5286,98.2663
138.5281,98.2734
138.5140,98.3714
138.5140,98.3714
138.5337,98.5081
138.5337,98.5081
138.5910,98.6337
138.5910,98.6337
138.6815,98.7381
138.6815,98.7381
138.7977,98.8127
138.7977,98.8127
138.7977,98.8127
138.9302,98.8517
138.9302,98.8517
139.0683,98.8517
139.0683,98.8517
139.2008,98.8127
139.3170,98.7381
139.4075,98.6337
139.4648,98.5081
139.4845,98.3714
139.4648,98.2346
139.4075,98.1090
139.4075,98.1090
139.4075,98.1090
139.4075,98.1090
139.3170,98.0046
139.3170,98.0046
139.2008,97.9300
139.2008,97.9300
139.2008,97.9300
139.0683,97.8911
139.0683,97.8911
139.0215,97.8911
138.9863,97.8765
138.9717,97.8413
138.9723,97.8342
138.9863,97.7362
138.9863,97.7362
138.9798,97.6906
138.9667,97.5995
138.9093,97.4739
138.9093,97.4739
138.9093,97.4739
138.9093,97.4739
138.8189,97.3695
138.8189,97.3695
138.7027,97.2948
138.7027,97.2948
138.7027,97.2948
138.5702,97.2559
138.4320,97.2559
138.2995,97.2948
138.2995,97.2948
138.2995,97.2948
138.1833,97.3695
138.1833,97.3695
138.0929,97.4739
138.0929,97.4739
138.0355,97.5995
138.0355,97.5995
138.0159,97.7362
126.2011,97.7362
126.2011,96.8464
136.0148,96.8464
136.0148,96.8464
136.0344,96.9831
136.0344,96.9831
136.0918,97.1087
136.0918,97.1087
136.1822,97.2131
136.1822,97.2131
136.2984,97.2878
136.2984,97.2878
136.2984,97.2878
136.4309,97.3267
136.4309,97.3267
136.5691,97.3267
136.5691,97.3267
136.7016,97.2878
136.8178,97.2131
136.9082,97.1087
136.9656,96.9831
136.9852,96.8464
136.9852,96.8464
142.1148,96.8464
142.1148,96.8464
142.1344,96.9831
142.1344,96.9831
142.1918,97.1087
142.1918,97.1087
142.2822,97.2131
142.2822,97.2131
142.3984,97.2878
142.3984,97.2878
142.3984,97.2878
142.5309,97.3267
142.5309,97.3267
142.6691,97.3267
142.6691,97.3267
142.8016,97.2878
142.9178,97.2131
143.0082,97.1087
143.0656,96.9831
143.0852,96.8464
143.0656,96.7097
143.0082,96.5841
143.0082,96.5841
143.0082,96.5841
143.0082,96.5841
142.9178,96.4797
142.9178,96.4797
142.8016,96.4050
142.8016,96.4050
142.8016,96.4050
142.6691,96.3661
142.5309,96.3661
142.3984,96.4050
142.3984,96.4050
142.3984,96.4050
142.2822,96.4797
142.2822,96.4797
142.1918,96.5841
142.1918,96.5841
142.1344,96.7097
142.1344,96.7097
142.1148,96.8464
136.9852,96.8464
136.9656,96.7097
136.9082,96.5841
136.9082,96.5841
136.9082,96.5841
136.9082,96.5841
136.8178,96.4797
136.8178,96.4797
136.7016,96.4050
136.7016,96.4050
136.7016,96.4050
136.5691,96.3661
136.4309,96.3661
136.2984,96.4050
136.2984,96.4050
136.2984,96.4050
136.1822,96.4797
136.1822,96.4797
136.0918,96.5841
136.0918,96.5841
136.0344,96.7097
136.0344,96.7097
136.0148,96.8464
126.2011,96.8464
126.2011,94.3976
130.8265,94.3976
131.4443,94.3976
131.4211,94.4842
131.4211,94.6158
131.4443,94.7024
130.8265,94.7024
130.8312,94.7537
130.8312,94.7537
130.8872,94.9505
130.9784,95.1337
130.9784,95.1337
131.1017,95.2969
131.1017,95.2969
131.2529,95.4348
131.4269,95.5425
131.6177,95.6164
131.7687,95.6446
131.7687,95.6446
131.7687,95.0268
131.8553,95.0500
131.9869,95.0500
132.0735,95.0268
132.0735,95.6446
132.2245,95.6164
132.4153,95.5425
132.5893,95.4348
132.7405,95.2969
132.7405,95.2969
132.8638,95.1337
132.8638,95.1337
132.9550,94.9505
133.0109,94.7537
133.0110,94.7537
133.0157,94.7024
132.3979,94.7024
132.4211,94.6158
132.4211,94.5500
133.4533,94.5500
133.4727,94.7466
133.5301,94.9356
133.6232,95.1099
133.7485,95.2626
133.9012,95.3879
134.0754,95.4810
134.2645,95.5384
134.4118,95.5529
134.4611,95.5578
134.4611,95.5578
134.4611,95.5578
134.5059,95.5533
134.6577,95.5384
134.8467,95.4810
135.0210,95.3879
135.1737,95.2626
135.2990,95.1099
135.3921,94.9356
135.4495,94.7466
135.4689,94.5500
135.9933,94.5500
136.0127,94.7466
136.0701,94.9356
136.1632,95.1099
136.2885,95.2626
136.4412,95.3879
136.6154,95.4810
136.8045,95.5384
136.9518,95.5529
137.0011,95.5578
137.0011,95.5578
137.0011,95.5578
137.0459,95.5533
137.1977,95.5384
137.3868,95.4810
137.5610,95.3879
137.7137,95.2626
137.8390,95.1099
137.9321,94.9356
137.9895,94.7466
138.0089,94.5500
138.5333,94.5500
138.5527,94.7466
138.6101,94.9356
138.7032,95.1099
138.8285,95.2626
138.9812,95.3879
139.1555,95.4810
139.3445,95.5384
139.4918,95.5529
139.5411,95.5578
139.5411,95.5578
139.5411,95.5578
139.5859,95.5533
139.7377,95.5384
139.9267,95.4810
140.1010,95.3879
140.2537,95.2626
140.3790,95.1099
140.4721,94.9356
140.5295,94.7466
140.5489,94.5500
140.5338,94.3976
140.9865,94.3976
141.6043,94.3976
141.5811,94.4842
141.5811,94.6158
141.6043,94.7024
140.9865,94.7024
140.9912,94.7537
140.9912,94.7537
141.0472,94.9505
141.1384,95.1337
141.1384,95.1337
141.2617,95.2969
141.2617,95.2969
141.4129,95.4348
141.5869,95.5425
141.7777,95.6164
141.9287,95.6446
141.9287,95.6446
141.9287,95.0268
142.0153,95.0500
142.1469,95.0500
142.2335,95.0268
142.2335,95.6446
142.3845,95.6164
142.5753,95.5425
142.7493,95.4348
142.9005,95.2969
142.9005,95.2969
143.0238,95.1337
143.0238,95.1337
143.1150,94.9505
143.1710,94.7537
143.1710,94.7537
143.1757,94.7024
142.5579,94.7024
142.5811,94.6158
142.5811,94.4842
142.5579,94.3976
143.1757,94.3976
143.5265,94.3976
144.1443,94.3976
144.1211,94.4842
144.1211,94.6158
144.1443,94.7024
143.5265,94.7024
143.5312,94.7537
143.5312,94.7537
143.5872,94.9505
143.6784,95.1337
143.6784,95.1337
143.8017,95.2969
143.8017,95.2969
143.9529,95.4348
144.1269,95.5425
144.3177,95.6164
144.4687,95.6446
144.4687,95.6446
144.4687,95.0268
144.5553,95.0500
144.6869,95.0500
144.7735,95.0268
144.7735,95.6446
144.9245,95.6164
145.1153,95.5425
145.2893,95.4348
145.4405,95.2969
145.4405,95.2969
145.5638,95.1337
145.5638,95.1337
145.6550,94.9505
145.7109,94.7537
145.7110,94.7537
145.7157,94.7024
145.0979,94.7024
145.1211,94.6158
145.1211,94.5500
146.1533,94.5500
146.1727,94.7466
146.2301,94.9356
146.3232,95.1099
146.4485,95.2626
146.6012,95.3879
146.7755,95.4810
146.9645,95.5384
147.1118,95.5529
147.1611,95.5578
147.1611,95.5578
147.1611,95.5578
147.2059,95.5533
147.3577,95.5384
147.5468,95.4810
147.7210,95.3879
147.8737,95.2626
147.9990,95.1099
148.0921,94.9356
148.1495,94.7466
148.1689,94.5500
148.6933,94.5500
148.7127,94.7466
148.7701,94.9356
148.8632,95.1099
148.9885,95.2626
149.1412,95.3879
149.3154,95.4810
149.5045,95.5384
149.6518,95.5529
149.7011,95.5578
149.7011,95.5578
149.7011,95.5578
149.7459,95.5533
149.8977,95.5384
150.0867,95.4810
150.2610,95.3879
150.4137,95.2626
150.5390,95.1099
150.6321,94.9356
150.6895,94.7466
150.7089,94.5500
151.2333,94.5500
151.2527,94.7466
151.3101,94.9356
151.4032,95.1099
151.5285,95.2626
151.6812,95.3879
151.8554,95.4810
152.0445,95.5384
152.1918,95.5529
152.2411,95.5578
152.2411,95.5578
152.2411,95.5578
152.2859,95.5533
152.4377,95.5384
152.6267,95.4810
152.8010,95.3879
152.9537,95.2626
153.0790,95.1099
153.1721,94.9356
153.2295,94.7466
153.2489,94.5500
153.2295,94.3534
153.1721,94.1643
153.0790,93.9901
152.9537,93.8374
152.8010,93.7121
152.7502,93.6849
153.7782,93.6849
153.7782,95.4150
153.7782,95.4151
153.7871,95.4597
153.7871,95.4597
153.8209,95.5102
153.8209,95.5102
153.8714,95.5440
153.9160,95.5529
155.6462,95.5529
155.6908,95.5440
155.7413,95.5102
155.7751,95.4597
155.7840,95.4151
155.7840,93.6849
155.7751,93.6403
155.7751,93.6403
155.7751,93.6403
155.7413,93.5898
155.7413,93.5898
155.6908,93.5560
155.6462,93.5471
155.6462,93.5471
153.9160,93.5471
153.9160,93.5471
153.8826,93.5538
153.8714,93.5560
153.8714,93.5560
153.8714,93.5560
153.8209,93.5898
153.8209,93.5898
153.7871,93.6403
153.7871,93.6403
153.7782,93.6849
152.7502,93.6849
152.6267,93.6190
152.4377,93.5616
152.2411,93.5422
152.2411,93.5422
152.0445,93.5616
151.9622,93.5866
151.8554,93.6190
151.8554,93.6190
151.8554,93.6190
151.7689,93.6652
151.6812,93.7121
151.6812,93.7121
151.6812,93.7121
151.5285,93.8374
151.4032,93.9901
151.3101,94.1643
151.3101,94.1643
151.3101,94.1643
151.2527,94.3534
151.2333,94.5500
150.7089,94.5500
150.6895,94.3534
150.6321,94.1643
150.5390,93.9901
150.4137,93.8374
150.2610,93.7121
150.0867,93.6190
149.8977,93.5616
149.7011,93.5422
149.7011,93.5422
149.5045,93.5616
149.4222,93.5866
149.3154,93.6190
149.3154,93.6190
149.3154,93.6190
149.2289,93.6652
149.1412,93.7121
149.1412,93.7121
149.1412,93.7121
148.9885,93.8374
148.8632,93.9901
148.7701,94.1643
148.7701,94.1643
148.7701,94.1643
148.7127,94.3534
148.6933,94.5500
148.1689,94.5500
148.1495,94.3534
148.0921,94.1643
147.9990,93.9901
147.8737,93.8374
147.7210,93.7121
147.5468,93.6190
147.3577,93.5616
147.1611,93.5422
147.1611,93.5422
146.9645,93.5616
146.8822,93.5866
146.7755,93.6190
146.7754,93.6190
146.7754,93.6190
146.6889,93.6652
146.6012,93.7121
146.6012,93.7121
146.6012,93.7121
146.4485,93.8374
146.3232,93.9901
146.2301,94.1643
146.2301,94.1643
146.2301,94.1643
146.1727,94.3534
146.1533,94.5500
145.1211,94.5500
145.1211,94.4842
145.0979,94.3976
145.7157,94.3976
145.7110,94.3463
145.7109,94.3463
145.6550,94.1495
145.5638,93.9663
145.5638,93.9663
145.4405,93.8031
145.4405,93.8031
145.2893,93.6652
145.1153,93.5575
144.9245,93.4836
144.7735,93.4554
144.7735,94.0732
144.6869,94.0500
144.5553,94.0500
144.4687,94.0732
144.4687,93.4554
144.4687,93.4554
144.3177,93.4836
144.1269,93.5575
143.9529,93.6652
143.8017,93.8031
143.8017,93.8031
143.6784,93.9663
143.6784,93.9663
143.5872,94.1495
143.5312,94.3463
143.5312,94.3463
143.5265,94.3976
143.1757,94.3976
143.1710,94.3463
143.1710,94.3463
143.1150,94.1495
143.0238,93.9663
143.0238,93.9663
142.9005,93.8031
142.9005,93.8031
142.7493,93.6652
142.5753,93.5575
142.3845,93.4836
142.2335,93.4554
142.2335,94.0732
142.1469,94.0500
142.0153,94.0500
141.9287,94.0732
141.9287,93.4554
141.9287,93.4554
141.7777,93.4836
141.5869,93.5575
141.4129,93.6652
141.2617,93.8031
141.2617,93.8031
141.1384,93.9663
141.1384,93.9663
141.0472,94.1495
140.9912,94.3463
140.9912,94.3463
140.9865,94.3976
140.5338,94.3976
140.5295,94.3534
140.4721,94.1643
140.3790,93.9901
140.2537,93.8374
140.1010,93.7121
139.9267,93.6190
139.7377,93.5616
139.5411,93.5422
139.5411,93.5422
139.3445,93.5616
139.2622,93.5866
139.1555,93.6190
139.1554,93.6190
139.1554,93.6190
139.0689,93.6652
138.9812,93.7121
138.9812,93.7121
138.9812,93.7121
138.8285,93.8374
138.7032,93.9901
138.6101,94.1643
138.6101,94.1643
138.6101,94.1643
138.5527,94.3534
138.5333,94.5500
138.0089,94.5500
137.9895,94.3534
137.9321,94.1643
137.8390,93.9901
137.7137,93.8374
137.5610,93.7121
137.3868,93.6190
137.1977,93.5616
137.0011,93.5422
137.0011,93.5422
136.8045,93.5616
136.7222,93.5866
136.6154,93.6190
136.6154,93.6190
136.6154,93.6190
136.5289,93.6652
136.4412,93.7121
136.4412,93.7121
136.4412,93.7121
136.2885,93.8374
136.1632,93.9901
136.0701,94.1643
136.0701,94.1643
136.0701,94.1643
136.0127,94.3534
135.9933,94.5500
135.4689,94.5500
135.4495,94.3534
135.3921,94.1643
135.2990,93.9901
135.1737,93.8374
135.0210,93.7121
134.8467,93.6190
134.6577,93.5616
134.4611,93.5422
134.4611,93.5422
134.2645,93.5616
134.1822,93.5866
134.0754,93.6190
134.0754,93.6190
134.0754,93.6190
133.9889,93.6652
133.9012,93.7121
133.9012,93.7121
133.9012,93.7121
133.7485,93.8374
133.6232,93.9901
133.5301,94.1643
133.5301,94.1643
133.5301,94.1643
133.4727,94.3534
133.4533,94.5500
132.4211,94.5500
132.4211,94.4842
132.3979,94.3976
133.0157,94.3976
133.0110,94.3463
133.0109,94.3463
132.9550,94.1495
132.8638,93.9663
132.8638,93.9663
132.7405,93.8031
132.7405,93.8031
132.5893,93.6652
132.4153,93.5575
132.2245,93.4836
132.0735,93.4554
132.0735,94.0732
131.9869,94.0500
131.8553,94.0500
131.7687,94.0732
131.7687,93.4554
131.7687,93.4554
131.6177,93.4836
131.4269,93.5575
131.2529,93.6652
131.1017,93.8031
131.1017,93.8031
130.9784,93.9663
130.9784,93.9663
130.8872,94.1495
130.8312,94.3463
130.8312,94.3463
130.8265,94.3976
126.2011,94.3976
126.2011,92.0100
130.9133,92.0100
130.9327,92.2066
130.9901,92.3956
131.0832,92.5699
131.2085,92.7226
131.3612,92.8479
131.5354,92.9410
131.7245,92.9984
131.8726,93.0130
131.9211,93.0178
131.9211,93.0178
131.9211,93.0178
131.9659,93.0133
132.1177,92.9984
132.3067,92.9410
132.4810,92.8479
132.6337,92.7226
132.7590,92.5699
132.8521,92.3956
132.9095,92.2066
132.9289,92.0100
133.4533,92.0100
133.4727,92.2066
133.5301,92.3956
133.6232,92.5699
133.7485,92.7226
133.9012,92.8479
134.0754,92.9410
134.2645,92.9984
134.4126,93.0130
134.4611,93.0178
134.4611,93.0178
134.4611,93.0178
134.5059,93.0133
134.6577,92.9984
134.8467,92.9410
135.0210,92.8479
135.1737,92.7226
135.2990,92.5699
135.3921,92.3956
135.4495,92.2066
135.4689,92.0100
135.9933,92.0100
136.0127,92.2066
136.0701,92.3956
136.1632,92.5699
136.2885,92.7226
136.4412,92.8479
136.6154,92.9410
136.8045,92.9984
136.9526,93.0130
137.0011,93.0178
137.0011,93.0178
137.0011,93.0178
137.0459,93.0133
137.1977,92.9984
137.3868,92.9410
137.5610,92.8479
137.7137,92.7226
137.8390,92.5699
137.9321,92.3956
137.9895,92.2066
138.0089,92.0100
138.5333,92.0100
138.5527,92.2066
138.6101,92.3956
138.7032,92.5699
138.8285,92.7226
138.9812,92.8479
139.1555,92.9410
139.3445,92.9984
139.4926,93.0130
139.5411,93.0178
139.5411,93.0178
139.5411,93.0178
139.5859,93.0133
139.7377,92.9984
139.9267,92.9410
140.1010,92.8479
140.2537,92.7226
140.3790,92.5699
140.4721,92.3956
140.5295,92.2066
140.5489,92.0100
141.0733,92.0100
141.0927,92.2066
141.1501,92.3956
141.2432,92.5699
141.3685,92.7226
141.5212,92.8479
141.6954,92.9410
141.8845,92.9984
142.0326,93.0130
142.0811,93.0178
142.0811,93.0178
142.0811,93.0178
142.1259,93.0133
142.2777,92.9984
142.4667,92.9410
142.6410,92.8479
142.7937,92.7226
142.9190,92.5699
143.0121,92.3956
143.0695,92.2066
143.0889,92.0100
143.6133,92.0100
143.6327,92.2066
143.6901,92.3956
143.7832,92.5699
143.9085,92.7226
144.0612,92.8479
144.2354,92.9410
144.4245,92.9984
144.5726,93.0130
144.6211,93.0178
144.6211,93.0178
144.6211,93.0178
144.6659,93.0133
144.8177,92.9984
145.0067,92.9410
145.1810,92.8479
145.3337,92.7226
145.4590,92.5699
145.5521,92.3956
145.6095,92.2066
145.6289,92.0100
145.6138,91.8576
146.0665,91.8576
146.6843,91.8576
146.6611,91.9442
146.6611,92.0758
146.6843,92.1624
146.0665,92.1624
146.0712,92.2137
146.0712,92.2137
146.1272,92.4105
146.2184,92.5937
146.2184,92.5937
146.3417,92.7569
146.3417,92.7569
146.4929,92.8948
146.6669,93.0025
146.8577,93.0764
147.0087,93.1046
147.0087,93.1046
147.0087,92.4868
147.0953,92.5100
147.2269,92.5100
147.3135,92.4868
147.3135,93.1046
147.4645,93.0764
147.6553,93.0025
147.8293,92.8948
147.9805,92.7569
147.9805,92.7569
148.1038,92.5937
148.1038,92.5937
148.1950,92.4105
148.2509,92.2137
148.2510,92.2137
148.2557,92.1624
147.6379,92.1624
147.6611,92.0758
147.6611,91.9442
147.6379,91.8576
148.2557,91.8576
148.6065,91.8576
149.2243,91.8576
149.2011,91.9442
149.2011,92.0758
149.2243,92.1624
148.6065,92.1624
148.6112,92.2137
148.6112,92.2137
148.6672,92.4105
148.7584,92.5937
148.7584,92.5937
148.8817,92.7569
148.8817,92.7569
149.0329,92.8948
149.2069,93.0025
149.3977,93.0764
149.5487,93.1046
149.5487,93.1046
149.5487,92.4868
149.6353,92.5100
149.7669,92.5100
149.8535,92.4868
149.8535,93.1046
150.0045,93.0764
150.1953,93.0025
150.3693,92.8948
150.5205,92.7569
150.5205,92.7569
150.6438,92.5937
150.6438,92.5937
150.7350,92.4105
150.7909,92.2137
150.7910,92.2137
150.7957,92.1624
150.1779,92.1624
150.2011,92.0758
150.2011,91.9442
150.1779,91.8576
150.7957,91.8576
151.1465,91.8576
151.7643,91.8576
151.7411,91.9442
151.7411,92.0758
151.7643,92.1624
151.1465,92.1624
151.1512,92.2137
151.1512,92.2137
151.2072,92.4105
151.2984,92.5937
151.2984,92.5937
151.4217,92.7569
151.4217,92.7569
151.5729,92.8948
151.7469,93.0025
151.9377,93.0764
152.0887,93.1046
152.0887,93.1046
152.0887,92.4868
152.1753,92.5100
152.3069,92.5100
152.3935,92.4868
152.3935,93.1046
152.5445,93.0764
152.7353,93.0025
152.9093,92.8948
153.0605,92.7569
153.0605,92.7569
153.1838,92.5937
153.1838,92.5937
153.2750,92.4105
153.3310,92.2137
153.3310,92.2137
153.3357,92.1624
152.7179,92.1624
152.7411,92.0758
152.7411,92.0100
153.7733,92.0100
153.7927,92.2066
153.8501,92.3956
153.9432,92.5699
154.0685,92.7226
154.2212,92.8479
154.3954,92.9410
154.5845,92.9984
154.7326,93.0130
154.7811,93.0178
154.7811,93.0178
154.7811,93.0178
154.8259,93.0133
154.9777,92.9984
155.1667,92.9410
155.3410,92.8479
155.4937,92.7226
155.6190,92.5699
155.7121,92.3956
155.7695,92.2066
155.7889,92.0100
155.7695,91.8134
155.7121,91.6243
155.6190,91.4501
155.4937,91.2974
155.3410,91.1721
155.1667,91.0790
154.9777,91.0216
154.7811,91.0022
154.7811,91.0022
154.5845,91.0216
154.5022,91.0466
154.3954,91.0790
154.3954,91.0790
154.3954,91.0790
154.3089,91.1252
154.2212,91.1721
154.2212,91.1721
154.2212,91.1721
154.0685,91.2974
153.9432,91.4501
153.8501,91.6243
153.8501,91.6243
153.8501,91.6243
153.7927,91.8134
153.7733,92.0100
152.7411,92.0100
152.7411,91.9442
152.7179,91.8576
153.3357,91.8576
153.3310,91.8063
153.3310,91.8063
153.2750,91.6095
153.1838,91.4263
153.1838,91.4263
153.0605,91.2631
153.0605,91.2631
152.9093,91.1252
152.7353,91.0175
152.5445,90.9436
152.3935,90.9154
152.3935,91.5332
152.3069,91.5100
152.1753,91.5100
152.0887,91.5332
152.0887,90.9154
152.0887,90.9154
151.9377,90.9436
151.7469,91.0175
151.5729,91.1252
151.4217,91.2631
151.4217,91.2631
151.2984,91.4263
151.2984,91.4263
151.2072,91.6095
151.1512,91.8063
151.1512,91.8063
151.1465,91.8576
150.7957,91.8576
150.7910,91.8063
150.7909,91.8063
150.7350,91.6095
150.6438,91.4263
150.6438,91.4263
150.5205,91.2631
150.5205,91.2631
150.3693,91.1252
150.1953,91.0175
150.0045,90.9436
149.8535,90.9154
149.8535,91.5332
149.7669,91.5100
149.6353,91.5100
149.5487,91.5332
149.5487,90.9154
149.5487,90.9154
149.3977,90.9436
149.2069,91.0175
149.0329,91.1252
148.8817,91.2631
148.8817,91.2631
148.7584,91.4263
148.7584,91.4263
148.6672,91.6095
148.6112,91.8063
148.6112,91.8063
148.6065,91.8576
148.2557,91.8576
148.2510,91.8063
148.2509,91.8063
148.1950,91.6095
148.1038,91.4263
148.1038,91.4263
147.9805,91.2631
147.9805,91.2631
147.8293,91.1252
147.6553,91.0175
147.4645,90.9436
147.3135,90.9154
147.3135,91.5332
147.2269,91.5100
147.0953,91.5100
147.0087,91.5332
147.0087,90.9154
147.0087,90.9154
146.8577,90.9436
146.6669,91.0175
146.4929,91.1252
146.3417,91.2631
146.3417,91.2631
146.2184,91.4263
146.2184,91.4263
146.1272,91.6095
146.0712,91.8063
146.0712,91.8063
146.0665,91.8576
145.6138,91.8576
145.6095,91.8134
145.5521,91.6243
145.4590,91.4501
145.3337,91.2974
145.1810,91.1721
145.0067,91.0790
144.8177,91.0216
144.6211,91.0022
144.6211,91.0022
144.4245,91.0216
144.3422,91.0466
144.2354,91.0790
144.2354,91.0790
144.2354,91.0790
144.1489,91.1252
144.0612,91.1721
144.0612,91.1721
144.0612,91.1721
143.9085,91.2974
143.7832,91.4501
143.6901,91.6243
143.6901,91.6243
143.6901,91.6243
143.6327,91.8134
143.6133,92.0100
143.0889,92.0100
143.0695,91.8134
143.0121,91.6243
142.9190,91.4501
142.7937,91.2974
142.6410,91.1721
142.4667,91.0790
142.2777,91.0216
142.0811,91.0022
142.0811,91.0022
141.8845,91.0216
141.8022,91.0466
141.6954,91.0790
141.6954,91.0790
141.6954,91.0790
141.6089,91.1252
141.5212,91.1721
141.5212,91.1721
141.5212,91.1721
141.3685,91.2974
141.2432,91.4501
141.1501,91.6243
141.1501,91.6243
141.1501,91.6243
141.0927,91.8134
141.0733,92.0100
140.5489,92.0100
140.5295,91.8134
140.4721,91.6243
140.3790,91.4501
140.2537,91.2974
140.1010,91.1721
139.9267,91.0790
139.7377,91.0216
139.5411,91.0022
139.5411,91.0022
139.3445,91.0216
139.2622,91.0466
139.1555,91.0790
139.1554,91.0790
139.1554,91.0790
139.0689,91.1252
138.9812,91.1721
138.9812,91.1721
138.9812,91.1721
138.8285,91.2974
138.7032,91.4501
138.6101,91.6243
138.6101,91.6243
138.6101,91.6243
138.5527,91.8134
138.5333,92.0100
138.0089,92.0100
137.9895,91.8134
137.9321,91.6243
137.8390,91.4501
137.7137,91.2974
137.5610,91.1721
137.3868,91.0790
137.1977,91.0216
137.0011,91.0022
137.0011,91.0022
136.8045,91.0216
136.7222,91.0466
136.6154,91.0790
136.6154,91.0790
136.6154,91.0790
136.5289,91.1252
136.4412,91.1721
136.4412,91.1721
136.4412,91.1721
136.2885,91.2974
136.1632,91.4501
136.0701,91.6243
136.0701,91.6243
136.0701,91.6243
136.0127,91.8134
135.9933,92.0100
135.4689,92.0100
135.4495,91.8134
135.3921,91.6243
135.2990,91.4501
135.1737,91.2974
135.0210,91.1721
134.8467,91.0790
134.6577,91.0216
134.4611,91.0022
134.4611,91.0022
134.2645,91.0216
134.1822,91.0466
134.0754,91.0790
134.0754,91.0790
134.0754,91.0790
133.9889,91.1252
133.9012,91.1721
133.9012,91.1721
133.9012,91.1721
133.7485,91.2974
133.6232,91.4501
133.5301,91.6243
133.5301,91.6243
133.5301,91.6243
133.4727,91.8134
133.4533,92.0100
132.9289,92.0100
132.9095,91.8134
132.8521,91.6243
132.7590,91.4501
132.6337,91.2974
132.4810,91.1721
132.3067,91.0790
132.1177,91.0216
131.9211,91.0022
131.9211,91.0022
131.7245,91.0216
131.6422,91.0466
131.5354,91.0790
131.5354,91.0790
131.5354,91.0790
131.4489,91.1252
131.3612,91.1721
131.3612,91.1721
131.3612,91.1721
131.2085,91.2974
131.0832,91.4501
130.9901,91.6243
130.9901,91.6243
130.9901,91.6243
130.9327,91.8134
130.9133,92.0100
126.2011,92.0100
126.2011,90.0998
126.2157,90.0646
126.2509,90.0500
156.2502,90.0500
Z" /> 
</g> 
</svg>
