<?xml version="1.0" encoding="UTF-8" standalone="no"?>
<svg
   version="1.1"
   width="30.0989mm"
   height="33.691002mm"
   viewBox="0 0 30.0989 33.691002"
   id="svg980"
   sodipodi:docname="max2771_fx2lp-B_Cu.svg"
   inkscape:version="1.2.2 (b0a8486541, 2022-12-01)"
   xmlns:inkscape="http://www.inkscape.org/namespaces/inkscape"
   xmlns:sodipodi="http://sodipodi.sourceforge.net/DTD/sodipodi-0.dtd"
   xmlns="http://www.w3.org/2000/svg"
   xmlns:svg="http://www.w3.org/2000/svg">
  <defs
     id="defs984" />
  <sodipodi:namedview
     id="namedview982"
     pagecolor="#ffffff"
     bordercolor="#000000"
     borderopacity="0.25"
     inkscape:showpageshadow="2"
     inkscape:pageopacity="0.0"
     inkscape:pagecheckerboard="0"
     inkscape:deskcolor="#d1d1d1"
     inkscape:document-units="mm"
     showgrid="false"
     inkscape:zoom="0.29733107"
     inkscape:cx="-68.946713"
     inkscape:cy="57.175323"
     inkscape:window-width="1024"
     inkscape:window-height="723"
     inkscape:window-x="1675"
     inkscape:window-y="-5"
     inkscape:window-maximized="1"
     inkscape:current-layer="svg980" />
  <title
     id="title2">SVG Image created as max2771_fx2lp-B_Cu.svg date 2024/06/15 08:23:39 </title>
  <desc
     id="desc4">Image generated by PCBNEW </desc>
  <g
     style="fill:#000000;fill-opacity:1;stroke:#000000;stroke-linecap:round;stroke-linejoin:round;stroke-opacity:1"
     id="g12"
     transform="translate(-126.2011,-90.3045)">
    <path
       style="fill:#4d7fc4;fill-opacity:1;fill-rule:evenodd;stroke:none"
       d="m 126.2028,97.89 v -1 h 4 v 1 z"
       id="path6" />
    <path
       style="fill:#4d7fc4;fill-opacity:1;fill-rule:evenodd;stroke:none"
       d="m 126.2028,92.39 v -1 h 4 v 1 z"
       id="path8" />
    <path
       style="fill:#4d7fc4;fill-opacity:1;fill-rule:evenodd;stroke:none"
       d="m 130.5511,107.34 v 1.7 h -1.7 v -1.7 z"
       id="path10" />
  </g>
  <g
     style="fill:#4d7fc4;fill-opacity:1;stroke:none"
     id="g18"
     transform="translate(-126.2011,-90.3045)">
    <circle
       cx="129.7011"
       cy="105.65"
       r="0.85000002"
       id="circle14" />
    <circle
       cx="139.5011"
       cy="103.65"
       r="0.42899999"
       id="circle16" />
  </g>
  <g
     style="fill:#4d7fc4;fill-opacity:1;stroke:none"
     id="g22"
     transform="translate(-126.2011,-90.3045)">
    <circle
       cx="139.5011"
       cy="102.55"
       r="0.42899999"
       id="circle20" />
  </g>
  <g
     style="fill:#4d7fc4;fill-opacity:1;stroke:none"
     id="g26"
     transform="translate(-126.2011,-90.3045)">
    <circle
       cx="139.5011"
       cy="101.45"
       r="0.42899999"
       id="circle24" />
  </g>
  <g
     style="fill:#4d7fc4;fill-opacity:1;stroke:none"
     id="g30"
     transform="translate(-126.2011,-90.3045)">
    <circle
       cx="138.40109"
       cy="103.65"
       r="0.42899999"
       id="circle28" />
  </g>
  <g
     style="fill:#4d7fc4;fill-opacity:1;stroke:none"
     id="g34"
     transform="translate(-126.2011,-90.3045)">
    <circle
       cx="138.40109"
       cy="102.55"
       r="0.42899999"
       id="circle32" />
  </g>
  <g
     style="fill:#4d7fc4;fill-opacity:1;stroke:none"
     id="g38"
     transform="translate(-126.2011,-90.3045)">
    <circle
       cx="138.40109"
       cy="101.45"
       r="0.42899999"
       id="circle36" />
  </g>
  <g
     style="fill:#4d7fc4;fill-opacity:1;stroke:none"
     id="g42"
     transform="translate(-126.2011,-90.3045)">
    <circle
       cx="137.3011"
       cy="103.65"
       r="0.42899999"
       id="circle40" />
  </g>
  <g
     style="fill:#4d7fc4;fill-opacity:1;stroke:none"
     id="g46"
     transform="translate(-126.2011,-90.3045)">
    <circle
       cx="137.3011"
       cy="102.55"
       r="0.42899999"
       id="circle44" />
  </g>
  <g
     style="fill:#4d7fc4;fill-opacity:1;stroke:none"
     id="g50"
     transform="translate(-126.2011,-90.3045)">
    <circle
       cx="137.3011"
       cy="101.45"
       r="0.42899999"
       id="circle48" />
  </g>
  <g
     style="fill:#4d7fc4;fill-opacity:1;stroke:none"
     id="g54"
     transform="translate(-126.2011,-90.3045)">
    <circle
       cx="142.5011"
       cy="110.55"
       r="0.42899999"
       id="circle52" />
  </g>
  <g
     style="fill:#4d7fc4;fill-opacity:1;stroke:none"
     id="g58"
     transform="translate(-126.2011,-90.3045)">
    <circle
       cx="142.5011"
       cy="109.45"
       r="0.42899999"
       id="circle56" />
  </g>
  <g
     style="fill:#4d7fc4;fill-opacity:1;stroke:none"
     id="g62"
     transform="translate(-126.2011,-90.3045)">
    <circle
       cx="142.5011"
       cy="108.35"
       r="0.42899999"
       id="circle60" />
  </g>
  <g
     style="fill:#4d7fc4;fill-opacity:1;stroke:none"
     id="g66"
     transform="translate(-126.2011,-90.3045)">
    <circle
       cx="141.40109"
       cy="110.55"
       r="0.42899999"
       id="circle64" />
  </g>
  <g
     style="fill:#4d7fc4;fill-opacity:1;stroke:none"
     id="g70"
     transform="translate(-126.2011,-90.3045)">
    <circle
       cx="141.40109"
       cy="109.45"
       r="0.42899999"
       id="circle68" />
  </g>
  <g
     style="fill:#4d7fc4;fill-opacity:1;stroke:none"
     id="g74"
     transform="translate(-126.2011,-90.3045)">
    <circle
       cx="141.40109"
       cy="108.35"
       r="0.42899999"
       id="circle72" />
  </g>
  <g
     style="fill:#4d7fc4;fill-opacity:1;stroke:none"
     id="g78"
     transform="translate(-126.2011,-90.3045)">
    <circle
       cx="140.3011"
       cy="110.55"
       r="0.42899999"
       id="circle76" />
  </g>
  <g
     style="fill:#4d7fc4;fill-opacity:1;stroke:none"
     id="g82"
     transform="translate(-126.2011,-90.3045)">
    <circle
       cx="140.3011"
       cy="109.45"
       r="0.42899999"
       id="circle80" />
  </g>
  <g
     style="fill:#4d7fc4;fill-opacity:1;stroke:none"
     id="g92"
     transform="translate(-126.2011,-90.3045)">
    <circle
       cx="140.3011"
       cy="108.35"
       r="0.42899999"
       id="circle84" />
    <path
       style="fill:#4d7fc4;fill-opacity:1;fill-rule:evenodd;stroke:none"
       d="m 156.2511,97.45 v 1 h -4 v -1 z"
       id="path86" />
    <path
       style="fill:#4d7fc4;fill-opacity:1;fill-rule:evenodd;stroke:none"
       d="m 156.2511,102.95 v 1 h -4 v -1 z"
       id="path88" />
    <path
       style="fill:#4d7fc4;fill-opacity:1;fill-rule:evenodd;stroke:none"
       d="m 153.4011,107.04 v -1.7 h 1.7 v 1.7 z"
       id="path90" />
  </g>
  <g
     style="fill:#4d7fc4;fill-opacity:1;stroke:none"
     id="g186"
     transform="translate(-126.2011,-90.3045)">
    <circle
       cx="154.2511"
       cy="108.73"
       r="0.85000002"
       id="circle94" />
    <circle
       cx="154.2511"
       cy="111.27"
       r="0.85000002"
       id="circle96" />
    <circle
       cx="154.2511"
       cy="113.81"
       r="0.85000002"
       id="circle98" />
    <circle
       cx="154.2511"
       cy="116.35"
       r="0.85000002"
       id="circle100" />
    <path
       style="fill:#4d7fc4;fill-opacity:1;fill-rule:evenodd;stroke:none"
       d="m 126.2011,123.3 v -1 h 4 v 1 z"
       id="path102" />
    <path
       style="fill:#4d7fc4;fill-opacity:1;fill-rule:evenodd;stroke:none"
       d="m 126.2011,117.8 v -1 h 4 v 1 z"
       id="path104" />
    <path
       style="fill:#4d7fc4;fill-opacity:1;fill-rule:evenodd;stroke:none"
       d="m 155.5911,120.85 h -1.7 v -1.7 h 1.7 z"
       id="path106" />
    <circle
       cx="154.7411"
       cy="122.54"
       r="0.85000002"
       id="circle108" />
    <circle
       cx="152.2011"
       cy="120"
       r="0.85000002"
       id="circle110" />
    <circle
       cx="152.2011"
       cy="122.54"
       r="0.85000002"
       id="circle112" />
    <circle
       cx="149.6611"
       cy="120"
       r="0.85000002"
       id="circle114" />
    <circle
       cx="149.6611"
       cy="122.54"
       r="0.85000002"
       id="circle116" />
    <circle
       cx="147.12109"
       cy="120"
       r="0.85000002"
       id="circle118" />
    <circle
       cx="147.12109"
       cy="122.54"
       r="0.85000002"
       id="circle120" />
    <circle
       cx="144.5811"
       cy="120"
       r="0.85000002"
       id="circle122" />
    <circle
       cx="144.5811"
       cy="122.54"
       r="0.85000002"
       id="circle124" />
    <circle
       cx="142.04111"
       cy="120"
       r="0.85000002"
       id="circle126" />
    <circle
       cx="142.04111"
       cy="122.54"
       r="0.85000002"
       id="circle128" />
    <circle
       cx="139.5011"
       cy="120"
       r="0.85000002"
       id="circle130" />
    <circle
       cx="139.5011"
       cy="122.54"
       r="0.85000002"
       id="circle132" />
    <circle
       cx="136.96111"
       cy="120"
       r="0.85000002"
       id="circle134" />
    <circle
       cx="136.96111"
       cy="122.54"
       r="0.85000002"
       id="circle136" />
    <circle
       cx="134.4211"
       cy="120"
       r="0.85000002"
       id="circle138" />
    <circle
       cx="134.4211"
       cy="122.54"
       r="0.85000002"
       id="circle140" />
    <circle
       cx="131.8811"
       cy="120"
       r="0.85000002"
       id="circle142" />
    <circle
       cx="131.8811"
       cy="122.54"
       r="0.85000002"
       id="circle144" />
    <path
       style="fill:#4d7fc4;fill-opacity:1;fill-rule:evenodd;stroke:none"
       d="m 155.6511,92.9 h -1.7 v -1.7 h 1.7 z"
       id="path146" />
    <circle
       cx="154.8011"
       cy="94.589996"
       r="0.85000002"
       id="circle148" />
    <circle
       cx="152.26109"
       cy="92.050003"
       r="0.85000002"
       id="circle150" />
    <circle
       cx="152.26109"
       cy="94.589996"
       r="0.85000002"
       id="circle152" />
    <circle
       cx="149.7211"
       cy="92.050003"
       r="0.85000002"
       id="circle154" />
    <circle
       cx="149.7211"
       cy="94.589996"
       r="0.85000002"
       id="circle156" />
    <circle
       cx="147.18111"
       cy="92.050003"
       r="0.85000002"
       id="circle158" />
    <circle
       cx="147.18111"
       cy="94.589996"
       r="0.85000002"
       id="circle160" />
    <circle
       cx="144.6411"
       cy="92.050003"
       r="0.85000002"
       id="circle162" />
    <circle
       cx="144.6411"
       cy="94.589996"
       r="0.85000002"
       id="circle164" />
    <circle
       cx="142.1011"
       cy="92.050003"
       r="0.85000002"
       id="circle166" />
    <circle
       cx="142.1011"
       cy="94.589996"
       r="0.85000002"
       id="circle168" />
    <circle
       cx="139.5611"
       cy="92.050003"
       r="0.85000002"
       id="circle170" />
    <circle
       cx="139.5611"
       cy="94.589996"
       r="0.85000002"
       id="circle172" />
    <circle
       cx="137.0211"
       cy="92.050003"
       r="0.85000002"
       id="circle174" />
    <circle
       cx="137.0211"
       cy="94.589996"
       r="0.85000002"
       id="circle176" />
    <circle
       cx="134.48109"
       cy="92.050003"
       r="0.85000002"
       id="circle178" />
    <circle
       cx="134.48109"
       cy="94.589996"
       r="0.85000002"
       id="circle180" />
    <circle
       cx="131.9411"
       cy="92.050003"
       r="0.85000002"
       id="circle182" />
    <circle
       cx="131.9411"
       cy="94.589996"
       r="0.85000002"
       id="circle184" />
  </g>
  <g
     style="fill:#ececec;fill-opacity:1;stroke:none"
     id="g190"
     transform="translate(-126.2011,-90.3045)">
    <circle
       cx="133.7011"
       cy="107.65"
       r="0.3274"
       id="circle188" />
  </g>
  <g
     style="fill:#ececec;fill-opacity:1;stroke:none"
     id="g194"
     transform="translate(-126.2011,-90.3045)">
    <circle
       cx="134.5011"
       cy="109"
       r="0.3274"
       id="circle192" />
  </g>
  <g
     style="fill:#ececec;fill-opacity:1;stroke:none"
     id="g198"
     transform="translate(-126.2011,-90.3045)">
    <circle
       cx="133.6011"
       cy="104.25"
       r="0.3274"
       id="circle196" />
  </g>
  <g
     style="fill:#ececec;fill-opacity:1;stroke:none"
     id="g202"
     transform="translate(-126.2011,-90.3045)">
    <circle
       cx="132.3011"
       cy="100.85"
       r="0.3274"
       id="circle200" />
  </g>
  <g
     style="fill:#ececec;fill-opacity:1;stroke:none"
     id="g206"
     transform="translate(-126.2011,-90.3045)">
    <circle
       cx="130.8011"
       cy="117.85"
       r="0.3274"
       id="circle204" />
  </g>
  <g
     style="fill:#ececec;fill-opacity:1;stroke:none"
     id="g210"
     transform="translate(-126.2011,-90.3045)">
    <circle
       cx="134.90109"
       cy="115.4"
       r="0.3274"
       id="circle208" />
  </g>
  <g
     style="fill:#ececec;fill-opacity:1;stroke:none"
     id="g214"
     transform="translate(-126.2011,-90.3045)">
    <circle
       cx="136.15109"
       cy="109.05"
       r="0.3274"
       id="circle212" />
  </g>
  <g
     style="fill:#ececec;fill-opacity:1;stroke:none"
     id="g218"
     transform="translate(-126.2011,-90.3045)">
    <circle
       cx="132.3407"
       cy="117.0673"
       r="0.3274"
       id="circle216" />
  </g>
  <g
     style="fill:#ececec;fill-opacity:1;stroke:none"
     id="g222"
     transform="translate(-126.2011,-90.3045)">
    <circle
       cx="139.90109"
       cy="114.05"
       r="0.3274"
       id="circle220" />
  </g>
  <g
     style="fill:#ececec;fill-opacity:1;stroke:none"
     id="g226"
     transform="translate(-126.2011,-90.3045)">
    <circle
       cx="132.40109"
       cy="109.95"
       r="0.3274"
       id="circle224" />
  </g>
  <g
     style="fill:#ececec;fill-opacity:1;stroke:none"
     id="g230"
     transform="translate(-126.2011,-90.3045)">
    <circle
       cx="143.8511"
       cy="98.900002"
       r="0.3274"
       id="circle228" />
  </g>
  <g
     style="fill:#ececec;fill-opacity:1;stroke:none"
     id="g234"
     transform="translate(-126.2011,-90.3045)">
    <circle
       cx="132.3727"
       cy="117.9634"
       r="0.3274"
       id="circle232" />
  </g>
  <g
     style="fill:#ececec;fill-opacity:1;stroke:none"
     id="g238"
     transform="translate(-126.2011,-90.3045)">
    <circle
       cx="134.5011"
       cy="108.15"
       r="0.3274"
       id="circle236" />
  </g>
  <g
     style="fill:#ececec;fill-opacity:1;stroke:none"
     id="g242"
     transform="translate(-126.2011,-90.3045)">
    <circle
       cx="130.7011"
       cy="100.85"
       r="0.3274"
       id="circle240" />
  </g>
  <g
     style="fill:#ececec;fill-opacity:1;stroke:none"
     id="g246"
     transform="translate(-126.2011,-90.3045)">
    <circle
       cx="150.40109"
       cy="107.15"
       r="0.3274"
       id="circle244" />
  </g>
  <g
     style="fill:#ececec;fill-opacity:1;stroke:none"
     id="g250"
     transform="translate(-126.2011,-90.3045)">
    <circle
       cx="133.5011"
       cy="115.85"
       r="0.3274"
       id="circle248" />
  </g>
  <g
     style="fill:#ececec;fill-opacity:1;stroke:none"
     id="g254"
     transform="translate(-126.2011,-90.3045)">
    <circle
       cx="141.2011"
       cy="98.349998"
       r="0.3274"
       id="circle252" />
  </g>
  <g
     style="fill:#ececec;fill-opacity:1;stroke:none"
     id="g258"
     transform="translate(-126.2011,-90.3045)">
    <circle
       cx="136.40331"
       cy="107.2502"
       r="0.3274"
       id="circle256" />
  </g>
  <g
     style="fill:#ececec;fill-opacity:1;stroke:none"
     id="g262"
     transform="translate(-126.2011,-90.3045)">
    <circle
       cx="130.90109"
       cy="113.95"
       r="0.3274"
       id="circle260" />
  </g>
  <g
     style="fill:#ececec;fill-opacity:1;stroke:none"
     id="g266"
     transform="translate(-126.2011,-90.3045)">
    <circle
       cx="148.5649"
       cy="114.1"
       r="0.3274"
       id="circle264" />
  </g>
  <g
     style="fill:#ececec;fill-opacity:1;stroke:none"
     id="g270"
     transform="translate(-126.2011,-90.3045)">
    <circle
       cx="133.4511"
       cy="97.699997"
       r="0.3274"
       id="circle268" />
  </g>
  <g
     style="fill:#ececec;fill-opacity:1;stroke:none"
     id="g274"
     transform="translate(-126.2011,-90.3045)">
    <circle
       cx="127.7011"
       cy="118.65"
       r="0.3274"
       id="circle272" />
  </g>
  <g
     style="fill:#ececec;fill-opacity:1;stroke:none"
     id="g278"
     transform="translate(-126.2011,-90.3045)">
    <circle
       cx="130.90109"
       cy="113.05"
       r="0.3274"
       id="circle276" />
  </g>
  <g
     style="fill:#ececec;fill-opacity:1;stroke:none"
     id="g282"
     transform="translate(-126.2011,-90.3045)">
    <circle
       cx="135.2511"
       cy="112.95"
       r="0.3274"
       id="circle280" />
  </g>
  <g
     style="fill:#ececec;fill-opacity:1;stroke:none"
     id="g286"
     transform="translate(-126.2011,-90.3045)">
    <circle
       cx="131.7011"
       cy="110.45"
       r="0.3274"
       id="circle284" />
  </g>
  <g
     style="fill:#ececec;fill-opacity:1;stroke:none"
     id="g290"
     transform="translate(-126.2011,-90.3045)">
    <circle
       cx="130.7213"
       cy="96.75"
       r="0.3274"
       id="circle288" />
  </g>
  <g
     style="fill:#ececec;fill-opacity:1;stroke:none"
     id="g294"
     transform="translate(-126.2011,-90.3045)">
    <circle
       cx="132.3011"
       cy="98.349998"
       r="0.3274"
       id="circle292" />
  </g>
  <g
     style="fill:#ececec;fill-opacity:1;stroke:none"
     id="g298"
     transform="translate(-126.2011,-90.3045)">
    <circle
       cx="130.7011"
       cy="101.85"
       r="0.3274"
       id="circle296" />
  </g>
  <g
     style="fill:#ececec;fill-opacity:1;stroke:none"
     id="g302"
     transform="translate(-126.2011,-90.3045)">
    <circle
       cx="148.5649"
       cy="110.55"
       r="0.3274"
       id="circle300" />
  </g>
  <g
     style="fill:#ececec;fill-opacity:1;stroke:none"
     id="g306"
     transform="translate(-126.2011,-90.3045)">
    <circle
       cx="130.7011"
       cy="98.349998"
       r="0.3274"
       id="circle304" />
  </g>
  <g
     style="fill:#ececec;fill-opacity:1;stroke:none"
     id="g310"
     transform="translate(-126.2011,-90.3045)">
    <circle
       cx="148.4511"
       cy="104.45"
       r="0.3274"
       id="circle308" />
  </g>
  <g
     style="fill:#ececec;fill-opacity:1;stroke:none"
     id="g314"
     transform="translate(-126.2011,-90.3045)">
    <circle
       cx="146.2011"
       cy="113.85"
       r="0.3274"
       id="circle312" />
  </g>
  <g
     style="fill:#ececec;fill-opacity:1;stroke:none"
     id="g318"
     transform="translate(-126.2011,-90.3045)">
    <circle
       cx="148.5649"
       cy="113.182"
       r="0.3274"
       id="circle316" />
  </g>
  <g
     style="fill:#ececec;fill-opacity:1;stroke:none"
     id="g322"
     transform="translate(-126.2011,-90.3045)">
    <circle
       cx="146.7011"
       cy="97.800003"
       r="0.3274"
       id="circle320" />
  </g>
  <g
     style="fill:#ececec;fill-opacity:1;stroke:none"
     id="g326"
     transform="translate(-126.2011,-90.3045)">
    <circle
       cx="133.6011"
       cy="105.05"
       r="0.3274"
       id="circle324" />
  </g>
  <g
     style="fill:#ececec;fill-opacity:1;stroke:none"
     id="g330"
     transform="translate(-126.2011,-90.3045)">
    <circle
       cx="133.7011"
       cy="106.75"
       r="0.3274"
       id="circle328" />
  </g>
  <g
     style="fill:#ececec;fill-opacity:1;stroke:none"
     id="g334"
     transform="translate(-126.2011,-90.3045)">
    <circle
       cx="146.2011"
       cy="112.85"
       r="0.3274"
       id="circle332" />
  </g>
  <g
     style="fill:#ececec;fill-opacity:1;stroke:none"
     id="g338"
     transform="translate(-126.2011,-90.3045)">
    <circle
       cx="133.3511"
       cy="112.75"
       r="0.3274"
       id="circle336" />
  </g>
  <g
     style="fill:#ececec;fill-opacity:1;stroke:none"
     id="g342"
     transform="translate(-126.2011,-90.3045)">
    <circle
       cx="131.8011"
       cy="104.25"
       r="0.3274"
       id="circle340" />
  </g>
  <g
     style="fill:#ececec;fill-opacity:1;stroke:none"
     id="g346"
     transform="translate(-126.2011,-90.3045)">
    <circle
       cx="145.6011"
       cy="104.45"
       r="0.3274"
       id="circle344" />
  </g>
  <g
     style="fill:#ececec;fill-opacity:1;stroke:none"
     id="g350"
     transform="translate(-126.2011,-90.3045)">
    <circle
       cx="133.8011"
       cy="109.25"
       r="0.3274"
       id="circle348" />
  </g>
  <g
     style="fill:#ececec;fill-opacity:1;stroke:none"
     id="g354"
     transform="translate(-126.2011,-90.3045)">
    <circle
       cx="145.7511"
       cy="97.800003"
       r="0.3274"
       id="circle352" />
  </g>
  <g
     style="fill:#ececec;fill-opacity:1;stroke:none"
     id="g358"
     transform="translate(-126.2011,-90.3045)">
    <circle
       cx="147.2011"
       cy="104.45"
       r="0.3274"
       id="circle356" />
  </g>
  <g
     style="fill:#ececec;fill-opacity:1;stroke:none"
     id="g362"
     transform="translate(-126.2011,-90.3045)">
    <circle
       cx="130.7011"
       cy="97.550003"
       r="0.3274"
       id="circle360" />
  </g>
  <g
     style="fill:#ececec;fill-opacity:1;stroke:none"
     id="g366"
     transform="translate(-126.2011,-90.3045)">
    <circle
       cx="132.3011"
       cy="97.550003"
       r="0.3274"
       id="circle364" />
  </g>
  <g
     style="fill:#ececec;fill-opacity:1;stroke:none"
     id="g370"
     transform="translate(-126.2011,-90.3045)">
    <circle
       cx="132.3161"
       cy="112.0544"
       r="0.3274"
       id="circle368" />
  </g>
  <g
     style="fill:#ececec;fill-opacity:1;stroke:none"
     id="g374"
     transform="translate(-126.2011,-90.3045)">
    <circle
       cx="136.44099"
       cy="106.2313"
       r="0.3274"
       id="circle372" />
  </g>
  <g
     style="fill:#ececec;fill-opacity:1;stroke:none"
     id="g378"
     transform="translate(-126.2011,-90.3045)">
    <circle
       cx="143.3011"
       cy="97.800003"
       r="0.3274"
       id="circle376" />
  </g>
  <g
     style="fill:#ececec;fill-opacity:1;stroke:none"
     id="g382"
     transform="translate(-126.2011,-90.3045)">
    <circle
       cx="135.7511"
       cy="114.1"
       r="0.3274"
       id="circle380" />
  </g>
  <g
     style="fill:#ececec;fill-opacity:1;stroke:none"
     id="g386"
     transform="translate(-126.2011,-90.3045)">
    <circle
       cx="130.8011"
       cy="117.05"
       r="0.3274"
       id="circle384" />
  </g>
  <g
     style="fill:#ececec;fill-opacity:1;stroke:none"
     id="g390"
     transform="translate(-126.2011,-90.3045)">
    <circle
       cx="133.7011"
       cy="105.95"
       r="0.3274"
       id="circle388" />
  </g>
  <g
     style="fill:#ececec;fill-opacity:1;stroke:none"
     id="g394"
     transform="translate(-126.2011,-90.3045)">
    <circle
       cx="135.3511"
       cy="109.05"
       r="0.3274"
       id="circle392" />
  </g>
  <g
     style="fill:#ececec;fill-opacity:1;stroke:none"
     id="g398"
     transform="translate(-126.2011,-90.3045)">
    <circle
       cx="134.0011"
       cy="114.1"
       r="0.3274"
       id="circle396" />
  </g>
  <g
     style="fill:#ececec;fill-opacity:1;stroke:none"
     id="g402"
     transform="translate(-126.2011,-90.3045)">
    <circle
       cx="132.3011"
       cy="99.150002"
       r="0.3274"
       id="circle400" />
  </g>
  <g
     style="fill:#ececec;fill-opacity:1;stroke:none"
     id="g406"
     transform="translate(-126.2011,-90.3045)">
    <circle
       cx="134.3011"
       cy="111.35"
       r="0.3274"
       id="circle404" />
  </g>
  <g
     style="fill:#ececec;fill-opacity:1;stroke:none"
     id="g410"
     transform="translate(-126.2011,-90.3045)">
    <circle
       cx="148.4511"
       cy="98.900002"
       r="0.3274"
       id="circle408" />
  </g>
  <g
     style="fill:#ececec;fill-opacity:1;stroke:none"
     id="g414"
     transform="translate(-126.2011,-90.3045)">
    <circle
       cx="144.1011"
       cy="97.800003"
       r="0.3274"
       id="circle412" />
  </g>
  <g
     style="fill:#ececec;fill-opacity:1;stroke:none"
     id="g418"
     transform="translate(-126.2011,-90.3045)">
    <circle
       cx="148.4511"
       cy="99.949997"
       r="0.3274"
       id="circle416" />
  </g>
  <g
     style="fill:#ececec;fill-opacity:1;stroke:none"
     id="g422"
     transform="translate(-126.2011,-90.3045)">
    <circle
       cx="135.1011"
       cy="111.35"
       r="0.3274"
       id="circle420" />
  </g>
  <g
     style="fill:#ececec;fill-opacity:1;stroke:none"
     id="g426"
     transform="translate(-126.2011,-90.3045)">
    <circle
       cx="144.90109"
       cy="97.800003"
       r="0.3274"
       id="circle424" />
  </g>
  <g
     style="fill:#ececec;fill-opacity:1;stroke:none"
     id="g430"
     transform="translate(-126.2011,-90.3045)">
    <circle
       cx="131.1011"
       cy="111.25"
       r="0.3274"
       id="circle428" />
  </g>
  <g
     style="fill:#ececec;fill-opacity:1;stroke:none"
     id="g434"
     transform="translate(-126.2011,-90.3045)">
    <circle
       cx="135.90109"
       cy="111.35"
       r="0.3274"
       id="circle432" />
  </g>
  <g
     style="fill:#ececec;fill-opacity:1;stroke:none"
     id="g438"
     transform="translate(-126.2011,-90.3045)">
    <circle
       cx="148.5649"
       cy="112.25"
       r="0.3274"
       id="circle436" />
  </g>
  <g
     style="fill:#ececec;fill-opacity:1;stroke:none"
     id="g442"
     transform="translate(-126.2011,-90.3045)">
    <circle
       cx="130.7011"
       cy="99.949997"
       r="0.3274"
       id="circle440" />
  </g>
  <g
     style="fill:#ececec;fill-opacity:1;stroke:none"
     id="g446"
     transform="translate(-126.2011,-90.3045)">
    <circle
       cx="130.7011"
       cy="103.55"
       r="0.3274"
       id="circle444" />
  </g>
  <g
     style="fill:#ececec;fill-opacity:1;stroke:none"
     id="g450"
     transform="translate(-126.2011,-90.3045)">
    <circle
       cx="144.5632"
       cy="102.3338"
       r="0.3274"
       id="circle448" />
  </g>
  <g
     style="fill:#ececec;fill-opacity:1;stroke:none"
     id="g454"
     transform="translate(-126.2011,-90.3045)">
    <circle
       cx="148.4511"
       cy="97.800003"
       r="0.3274"
       id="circle452" />
  </g>
  <g
     style="fill:#ececec;fill-opacity:1;stroke:none"
     id="g458"
     transform="translate(-126.2011,-90.3045)">
    <circle
       cx="132.7011"
       cy="104.25"
       r="0.3274"
       id="circle456" />
  </g>
  <g
     style="fill:#ececec;fill-opacity:1;stroke:none"
     id="g462"
     transform="translate(-126.2011,-90.3045)">
    <circle
       cx="148.4511"
       cy="105.5"
       r="0.3274"
       id="circle460" />
  </g>
  <g
     style="fill:#ececec;fill-opacity:1;stroke:none"
     id="g466"
     transform="translate(-126.2011,-90.3045)">
    <circle
       cx="134.90109"
       cy="114.1"
       r="0.3274"
       id="circle464" />
  </g>
  <g
     style="fill:#ececec;fill-opacity:1;stroke:none"
     id="g470"
     transform="translate(-126.2011,-90.3045)">
    <circle
       cx="133.1011"
       cy="109.55"
       r="0.3274"
       id="circle468" />
  </g>
  <g
     style="fill:#ececec;fill-opacity:1;stroke:none"
     id="g474"
     transform="translate(-126.2011,-90.3045)">
    <circle
       cx="133.0511"
       cy="114.1"
       r="0.3274"
       id="circle472" />
  </g>
  <g
     style="fill:#ececec;fill-opacity:1;stroke:none"
     id="g478"
     transform="translate(-126.2011,-90.3045)">
    <circle
       cx="142.90109"
       cy="112.95"
       r="0.3274"
       id="circle476" />
  </g>
  <g
     style="fill:#ececec;fill-opacity:1;stroke:none"
     id="g482"
     transform="translate(-126.2011,-90.3045)">
    <circle
       cx="142.90109"
       cy="114.05"
       r="0.3274"
       id="circle480" />
  </g>
  <g
     style="fill:#ececec;fill-opacity:1;stroke:none"
     id="g486"
     transform="translate(-126.2011,-90.3045)">
    <circle
       cx="132.2587"
       cy="112.95"
       r="0.3274"
       id="circle484" />
  </g>
  <g
     style="fill:#ececec;fill-opacity:1;stroke:none"
     id="g490"
     transform="translate(-126.2011,-90.3045)">
    <circle
       cx="133.3011"
       cy="116.65"
       r="0.3274"
       id="circle488" />
  </g>
  <g
     style="fill:#ececec;fill-opacity:1;stroke:none"
     id="g494"
     transform="translate(-126.2011,-90.3045)">
    <circle
       cx="130.7011"
       cy="102.75"
       r="0.3274"
       id="circle492" />
  </g>
  <g
     style="fill:#ececec;fill-opacity:1;stroke:none"
     id="g498"
     transform="translate(-126.2011,-90.3045)">
    <circle
       cx="132.3011"
       cy="99.949997"
       r="0.3274"
       id="circle496" />
  </g>
  <g
     style="fill:#ececec;fill-opacity:1;stroke:none"
     id="g502"
     transform="translate(-126.2011,-90.3045)">
    <circle
       cx="145.2011"
       cy="111.8"
       r="0.3274"
       id="circle500" />
  </g>
  <g
     style="fill:#ececec;fill-opacity:1;stroke:none"
     id="g506"
     transform="translate(-126.2011,-90.3045)">
    <circle
       cx="130.90109"
       cy="112.15"
       r="0.3274"
       id="circle504" />
  </g>
  <g
     style="fill:#ececec;fill-opacity:1;stroke:none"
     id="g510"
     transform="translate(-126.2011,-90.3045)">
    <circle
       cx="136.7011"
       cy="111.35"
       r="0.3274"
       id="circle508" />
  </g>
  <g
     style="fill:#ececec;fill-opacity:1;stroke:none"
     id="g514"
     transform="translate(-126.2011,-90.3045)">
    <circle
       cx="132.2587"
       cy="113.95"
       r="0.3274"
       id="circle512" />
  </g>
  <g
     style="fill:#ececec;fill-opacity:1;stroke:none"
     id="g518"
     transform="translate(-126.2011,-90.3045)">
    <circle
       cx="127.7011"
       cy="121.45"
       r="0.3274"
       id="circle516" />
  </g>
  <g
     style="fill:#ececec;fill-opacity:1;stroke:none"
     id="g522"
     transform="translate(-126.2011,-90.3045)">
    <circle
       cx="147.6011"
       cy="97.800003"
       r="0.3274"
       id="circle520" />
  </g>
  <g
     style="fill:#ececec;fill-opacity:1;stroke:none"
     id="g526"
     transform="translate(-126.2011,-90.3045)">
    <circle
       cx="148.5649"
       cy="111.35"
       r="0.3274"
       id="circle524" />
  </g>
  <g
     style="fill:#ececec;fill-opacity:1;stroke:none"
     id="g530"
     transform="translate(-126.2011,-90.3045)">
    <circle
       cx="147.2011"
       cy="105.35"
       r="0.3274"
       id="circle528" />
  </g>
  <g
     style="fill:#ececec;fill-opacity:1;stroke:none"
     id="g534"
     transform="translate(-126.2011,-90.3045)">
    <circle
       cx="143.5511"
       cy="111.8"
       r="0.3274"
       id="circle532" />
  </g>
  <g
     style="fill:#ececec;fill-opacity:1;stroke:none"
     id="g538"
     transform="translate(-126.2011,-90.3045)">
    <circle
       cx="144.0511"
       cy="115.0606"
       r="0.3274"
       id="circle536" />
  </g>
  <g
     style="fill:#ececec;fill-opacity:1;stroke:none"
     id="g542"
     transform="translate(-126.2011,-90.3045)">
    <circle
       cx="136.5"
       cy="96.846397"
       r="0.3274"
       id="circle540" />
  </g>
  <g
     style="fill:#ececec;fill-opacity:1;stroke:none"
     id="g546"
     transform="translate(-126.2011,-90.3045)">
    <circle
       cx="142.60001"
       cy="96.846397"
       r="0.3274"
       id="circle544" />
  </g>
  <g
     style="fill:#ececec;fill-opacity:1;stroke:none"
     id="g550"
     transform="translate(-126.2011,-90.3045)">
    <circle
       cx="146.40109"
       cy="103.65"
       r="0.3274"
       id="circle548" />
  </g>
  <g
     style="fill:#ececec;fill-opacity:1;stroke:none"
     id="g554"
     transform="translate(-126.2011,-90.3045)">
    <circle
       cx="136.1011"
       cy="104.95"
       r="0.3274"
       id="circle552" />
  </g>
  <g
     style="fill:#ececec;fill-opacity:1;stroke:none"
     id="g558"
     transform="translate(-126.2011,-90.3045)">
    <circle
       cx="140.3924"
       cy="104.6598"
       r="0.3274"
       id="circle556" />
  </g>
  <g
     style="fill:#ececec;fill-opacity:1;stroke:none"
     id="g562"
     transform="translate(-126.2011,-90.3045)">
    <circle
       cx="141.6129"
       cy="103.6382"
       r="0.3274"
       id="circle560" />
  </g>
  <g
     style="fill:#ececec;fill-opacity:1;stroke:none"
     id="g566"
     transform="translate(-126.2011,-90.3045)">
    <circle
       cx="138"
       cy="115.0464"
       r="0.3274"
       id="circle564" />
  </g>
  <g
     style="fill:#ececec;fill-opacity:1;stroke:none"
     id="g570"
     transform="translate(-126.2011,-90.3045)">
    <circle
       cx="144.6011"
       cy="110.506"
       r="0.3274"
       id="circle568" />
  </g>
  <g
     style="fill:#ececec;fill-opacity:1;stroke:none"
     id="g574"
     transform="translate(-126.2011,-90.3045)">
    <circle
       cx="144.6841"
       cy="109.1202"
       r="0.3274"
       id="circle572" />
  </g>
  <g
     style="fill:#ececec;fill-opacity:1;stroke:none"
     id="g578"
     transform="translate(-126.2011,-90.3045)">
    <circle
       cx="141.7011"
       cy="102.4945"
       r="0.3274"
       id="circle576" />
  </g>
  <g
     style="fill:#ececec;fill-opacity:1;stroke:none"
     id="g582"
     transform="translate(-126.2011,-90.3045)">
    <circle
       cx="138.99921"
       cy="98.371399"
       r="0.3274"
       id="circle580" />
  </g>
  <g
     style="fill:#ececec;fill-opacity:1;stroke:none"
     id="g586"
     transform="translate(-126.2011,-90.3045)">
    <circle
       cx="138.5011"
       cy="97.736198"
       r="0.3274"
       id="circle584" />
  </g>
  <g
     style="fill:#ececec;fill-opacity:1;stroke:none"
     id="g590"
     transform="translate(-126.2011,-90.3045)">
    <circle
       cx="150.9511"
       cy="107.9"
       r="0.3274"
       id="circle588" />
  </g>
  <g
     style="fill:#ececec;fill-opacity:1;stroke:none"
     id="g594"
     transform="translate(-126.2011,-90.3045)">
    <circle
       cx="145.2393"
       cy="102.7749"
       r="0.3274"
       id="circle592" />
  </g>
  <g
     style="fill:#ececec;fill-opacity:1;stroke:none"
     id="g598"
     transform="translate(-126.2011,-90.3045)">
    <circle
       cx="150.9511"
       cy="112.2"
       r="0.3274"
       id="circle596" />
  </g>
  <g
     style="fill:#ececec;fill-opacity:1;stroke:none"
     id="g602"
     transform="translate(-126.2011,-90.3045)">
    <circle
       cx="147.6451"
       cy="109.2152"
       r="0.3274"
       id="circle600" />
  </g>
  <g
     style="fill:#ececec;fill-opacity:1;stroke:none"
     id="g606"
     transform="translate(-126.2011,-90.3045)">
    <circle
       cx="148.2571"
       cy="117.5923"
       r="0.3274"
       id="circle604" />
  </g>
  <g
     style="fill:#ececec;fill-opacity:1;stroke:none"
     id="g610"
     transform="translate(-126.2011,-90.3045)">
    <circle
       cx="136.6011"
       cy="114.05"
       r="0.3274"
       id="circle608" />
  </g>
  <g
     style="fill:#ececec;fill-opacity:1;stroke:none"
     id="g614"
     transform="translate(-126.2011,-90.3045)">
    <circle
       cx="140.0011"
       cy="115.9468"
       r="0.3274"
       id="circle612" />
  </g>
  <g
     style="fill:#ececec;fill-opacity:1;stroke:none"
     id="g618"
     transform="translate(-126.2011,-90.3045)">
    <circle
       cx="137.5011"
       cy="108.45"
       r="0.3274"
       id="circle616" />
  </g>
  <g
     style="fill:#ececec;fill-opacity:1;stroke:none"
     id="g622"
     transform="translate(-126.2011,-90.3045)">
    <circle
       cx="142.4451"
       cy="105.8"
       r="0.3274"
       id="circle620" />
  </g>
  <g
     style="fill:#ececec;fill-opacity:1;stroke:none"
     id="g626"
     transform="translate(-126.2011,-90.3045)">
    <circle
       cx="139.15109"
       cy="116.5028"
       r="0.3274"
       id="circle624" />
  </g>
  <g
     style="fill:#ececec;fill-opacity:1;stroke:none"
     id="g630"
     transform="translate(-126.2011,-90.3045)">
    <circle
       cx="141.5511"
       cy="105.45"
       r="0.3274"
       id="circle628" />
  </g>
  <g
     style="fill:#ececec;fill-opacity:1;stroke:none"
     id="g634"
     transform="translate(-126.2011,-90.3045)">
    <circle
       cx="141.40829"
       cy="100.15"
       r="0.3274"
       id="circle632" />
  </g>
  <g
     style="fill:#ececec;fill-opacity:1;stroke:none"
     id="g638"
     transform="translate(-126.2011,-90.3045)">
    <circle
       cx="144.46809"
       cy="106.8245"
       r="0.3274"
       id="circle636" />
  </g>
  <g
     style="fill:#ececec;fill-opacity:1;stroke:none"
     id="g642"
     transform="translate(-126.2011,-90.3045)">
    <circle
       cx="140.964"
       cy="106.1664"
       r="0.3274"
       id="circle640" />
  </g>
  <g
     style="fill:#ececec;fill-opacity:1;stroke:none"
     id="g646"
     transform="translate(-126.2011,-90.3045)">
    <circle
       cx="140.6011"
       cy="99.050003"
       r="0.3274"
       id="circle644" />
  </g>
  <g
     style="fill:#ececec;fill-opacity:1;stroke:none"
     id="g650"
     transform="translate(-126.2011,-90.3045)">
    <circle
       cx="147.7011"
       cy="107.35"
       r="0.3274"
       id="circle648" />
  </g>
  <g
     style="fill:#ececec;fill-opacity:1;stroke:none"
     id="g654"
     transform="translate(-126.2011,-90.3045)">
    <circle
       cx="140.4875"
       cy="105.513"
       r="0.3274"
       id="circle652" />
  </g>
  <g
     style="fill:#ececec;fill-opacity:1;stroke:none"
     id="g658"
     transform="translate(-126.2011,-90.3045)">
    <circle
       cx="135.8091"
       cy="100.158"
       r="0.3274"
       id="circle656" />
  </g>
  <g
     style="fill:#ececec;fill-opacity:1;stroke:none"
     id="g662"
     transform="translate(-126.2011,-90.3045)">
    <circle
       cx="148.3511"
       cy="115.9468"
       r="0.3274"
       id="circle660" />
  </g>
  <g
     style="fill:#ececec;fill-opacity:1;stroke:none"
     id="g666"
     transform="translate(-126.2011,-90.3045)">
    <circle
       cx="144.7429"
       cy="105.3548"
       r="0.3274"
       id="circle664" />
  </g>
  <g
     style="fill:#ececec;fill-opacity:1;stroke:none"
     id="g670"
     transform="translate(-126.2011,-90.3045)">
    <circle
       cx="148.3011"
       cy="108.25"
       r="0.3274"
       id="circle668" />
  </g>
  <g
     style="fill:#ececec;fill-opacity:1;stroke:none"
     id="g674"
     transform="translate(-126.2011,-90.3045)">
    <circle
       cx="140.6011"
       cy="100.15"
       r="0.3274"
       id="circle672" />
  </g>
  <g
     style="fill:#ececec;fill-opacity:1;stroke:none"
     id="g678"
     transform="translate(-126.2011,-90.3045)">
    <circle
       cx="143.5571"
       cy="105.7"
       r="0.3274"
       id="circle676" />
  </g>
  <g
     style="fill:#ececec;fill-opacity:1;stroke:none"
     id="g682"
     transform="translate(-126.2011,-90.3045)">
    <circle
       cx="152.3443"
       cy="118.2068"
       r="0.3274"
       id="circle680" />
  </g>
  <g
     style="fill:none;stroke:#4d7fc4;stroke-width:0.2032;stroke-linecap:round;stroke-linejoin:round;stroke-opacity:1"
     id="g686"
     transform="translate(-126.2011,-90.3045)">
    <path
       d="m 127.7411,92.59 v -0.5"
       id="path684" />
  </g>
  <g
     style="fill:none;stroke:#4d7fc4;stroke-width:0.1524;stroke-linecap:round;stroke-linejoin:round;stroke-opacity:1"
     id="g712"
     transform="translate(-126.2011,-90.3045)">
    <path
       d="m 154.7811,94.23 v 0.32"
       id="path688" />
    <path
       d="M 141.7011,102.4945 V 102.15"
       id="path690" />
    <path
       d="M 142.0811,95.17 V 94.55"
       id="path692" />
    <path
       d="m 141.7011,102.55 1.3,1.3"
       id="path694" />
    <path
       d="m 144.8841,108.9202 -0.2,0.2"
       id="path696" />
    <path
       d="m 143.0011,103.85 v 3.2"
       id="path698" />
    <path
       d="M 141.7011,102.4945 V 102.55"
       id="path700" />
    <path
       d="m 143.0011,107.05 1.683,1.683"
       id="path702" />
    <path
       d="m 144.6841,108.733 v 0.3872"
       id="path704" />
    <path
       d="m 139.9011,100.35 v -3"
       id="path706" />
    <path
       d="m 139.9011,97.35 2.18,-2.18"
       id="path708" />
    <path
       d="m 141.7011,102.15 -1.8,-1.8"
       id="path710" />
  </g>
  <g
     style="fill:none;stroke:#4d7fc4;stroke-width:0.2032;stroke-linecap:round;stroke-linejoin:round;stroke-opacity:1"
     id="g730"
     transform="translate(-126.2011,-90.3045)">
    <path
       d="m 138.9779,98.35 h -3.4797"
       id="path714" />
    <path
       d="m 134.4611,97.3129 1.0371,1.0371"
       id="path716" />
    <path
       d="m 134.4611,94.55 v 2.7629"
       id="path718" />
    <path
       d="M 138.9992,98.3714 138.9779,98.35"
       id="path720" />
    <path
       d="m 134.4611,92.01 1.29,1.29"
       id="path722" />
    <path
       d="m 138.5011,97.7362 h -2.4"
       id="path724" />
    <path
       d="m 135.7511,97.3862 0.35,0.35"
       id="path726" />
    <path
       d="m 135.7511,93.3 v 4.0862"
       id="path728" />
  </g>
  <g
     style="fill:none;stroke:#4d7fc4;stroke-width:0.1524;stroke-linecap:round;stroke-linejoin:round;stroke-opacity:1"
     id="g978"
     transform="translate(-126.2011,-90.3045)">
    <path
       d="m 150.9571,107.894 v -1.7243"
       id="path732" />
    <path
       d="m 147.5623,102.7749 h -2.323"
       id="path734" />
    <path
       d="m 150.9511,107.9 0.006,-0.006"
       id="path736" />
    <path
       d="m 150.9571,106.1697 -3.3948,-3.3948"
       id="path738" />
    <path
       d="m 149.0663,109.2152 h -1.4212"
       id="path740" />
    <path
       d="m 150.9511,111.1 -1.8848,-1.8848"
       id="path742" />
    <path
       d="m 150.9511,112.2 v -1.1"
       id="path744" />
    <path
       d="m 137.5071,111.644 -0.906,0.906"
       id="path746" />
    <path
       d="m 147.8797,117.5923 -1.6455,-1.6455"
       id="path748" />
    <path
       d="m 136.6011,112.55 v 1.5"
       id="path750" />
    <path
       d="m 148.2571,117.5923 h -0.3774"
       id="path752" />
    <path
       d="m 137.5071,108.456 v 3.188"
       id="path754" />
    <path
       d="m 137.5011,108.45 0.006,0.006"
       id="path756" />
    <path
       d="m 146.2342,115.9468 h -6.2331"
       id="path758" />
    <path
       d="m 139.6435,112.6576 -0.4924,0.4924"
       id="path760" />
    <path
       d="m 142.0511,107.4 h -0.15"
       id="path762" />
    <path
       d="m 141.9011,107.4 h -1.7"
       id="path764" />
    <path
       d="m 139.6435,107.9576 v 4.7"
       id="path766" />
    <path
       d="m 139.1511,113.15 v 3.25"
       id="path768" />
    <path
       d="m 142.4451,105.8 0.006,0.006"
       id="path770" />
    <path
       d="m 139.7011,107.9 -0.0576,0.0576"
       id="path772" />
    <path
       d="m 142.4451,105.8 0.006,-0.006"
       id="path774" />
    <path
       d="M 142.4511,105.806 V 107"
       id="path776" />
    <path
       d="m 140.2011,107.4 -0.5,0.5"
       id="path778" />
    <path
       d="m 142.4511,107 -0.4,0.4"
       id="path780" />
    <path
       d="m 139.1511,116.4 v 0.1028"
       id="path782" />
    <path
       d="m 134.4411,119.61 v 0.4"
       id="path784" />
    <path
       d="m 141.1511,106.9 h -1.05"
       id="path786" />
    <path
       d="m 138.8463,108.1548 v 6.95"
       id="path788" />
    <path
       d="m 141.5511,105.45 v 1.05"
       id="path790" />
    <path
       d="m 141.5511,106.5 -0.4,0.4"
       id="path792" />
    <path
       d="m 140.1011,106.9 -1.2548,1.2548"
       id="path794" />
    <path
       d="m 138.8463,115.1048 -3.1452,3.1452"
       id="path796" />
    <path
       d="m 135.7011,121.29 -1.26,1.26"
       id="path798" />
    <path
       d="m 135.7011,118.25 v 3.04"
       id="path800" />
    <path
       d="m 144.5011,105.8993 v 0.8922"
       id="path802" />
    <path
       d="m 141.4083,100.15 v 0.007"
       id="path804" />
    <path
       d="m 147.5011,114.15 4.75,4.75"
       id="path806" />
    <path
       d="m 153.0511,115.01 v 3.04"
       id="path808" />
    <path
       d="m 144.4681,106.8245 3.033,3.033"
       id="path810" />
    <path
       d="M 147.5011,109.8575 V 114.15"
       id="path812" />
    <path
       d="m 144.1011,104.45 v 1.0493"
       id="path814" />
    <path
       d="m 153.5011,118.9 v 0.65"
       id="path816" />
    <path
       d="m 144.5011,106.7915 -0.033,0.033"
       id="path818" />
    <path
       d="m 154.2511,113.81 -1.2,1.2"
       id="path820" />
    <path
       d="m 153.5011,121.29 1.26,1.26"
       id="path822" />
    <path
       d="m 152.2511,118.9 h 1.25"
       id="path824" />
    <path
       d="m 141.4083,100.1572 1.3928,1.3928"
       id="path826" />
    <path
       d="m 153.5011,119.55 v 1.74"
       id="path828" />
    <path
       d="m 142.8011,103.15 1.3,1.3"
       id="path830" />
    <path
       d="m 144.1011,105.4993 0.4,0.4"
       id="path832" />
    <path
       d="m 153.0511,118.05 0.45,0.45"
       id="path834" />
    <path
       d="m 142.8011,101.55 v 1.6"
       id="path836" />
    <path
       d="m 153.5011,118.5 v 1.05"
       id="path838" />
    <path
       d="m 139.0724,107.3713 -0.7105,0.7105"
       id="path840" />
    <path
       d="M 133.6011,118.7411 V 118.8"
       id="path842" />
    <path
       d="m 140.549,106.25 h -0.3479"
       id="path844" />
    <path
       d="m 137.4619,114.8803 -3.8608,3.8608"
       id="path846" />
    <path
       d="m 138.3619,108.0818 v 3.6385"
       id="path848" />
    <path
       d="m 137.4619,112.6203 v 2.26"
       id="path850" />
    <path
       d="m 138.3619,111.7203 -0.9,0.9"
       id="path852" />
    <path
       d="m 140.964,106.1664 h -0.3314"
       id="path854" />
    <path
       d="M 140.6326,106.1664 140.549,106.25"
       id="path856" />
    <path
       d="m 133.6011,118.8 -0.45,0.45"
       id="path858" />
    <path
       d="m 140.2011,106.25 -1.1213,1.1213"
       id="path860" />
    <path
       d="m 139.0798,107.3713 h -0.007"
       id="path862" />
    <path
       d="m 133.1511,119.25 v 2.05"
       id="path864" />
    <path
       d="m 133.1511,121.3 -1.25,1.25"
       id="path866" />
    <path
       d="m 143.9011,102.95 v -2"
       id="path868" />
    <path
       d="M 144.8059,103.8548 143.9011,102.95"
       id="path870" />
    <path
       d="M 144.8059,104.4548 V 104.35"
       id="path872" />
    <path
       d="m 142.0011,99.05 h -1.4"
       id="path874" />
    <path
       d="m 143.9011,100.95 -1.9,-1.9"
       id="path876" />
    <path
       d="m 144.8059,104.35 v -0.4952"
       id="path878" />
    <path
       d="m 147.7011,107.35 -2.8952,-2.8952"
       id="path880" />
    <path
       d="m 138.0571,111.594 -0.906,0.906"
       id="path882" />
    <path
       d="m 137.1571,114.754 -5.256,5.256"
       id="path884" />
    <path
       d="m 137.1511,112.5 v 0.3"
       id="path886" />
    <path
       d="m 140.4875,105.5252 -2.4304,2.4304"
       id="path888" />
    <path
       d="m 140.4875,105.513 v 0.0122"
       id="path890" />
    <path
       d="m 131.9011,120.01 v -0.26"
       id="path892" />
    <path
       d="m 137.1571,112.806 v 1.948"
       id="path894" />
    <path
       d="m 137.1511,112.8 0.006,0.006"
       id="path896" />
    <path
       d="m 138.0571,107.9556 v 3.6384"
       id="path898" />
    <path
       d="M 139.5963,99.2548 V 97.3452"
       id="path900" />
    <path
       d="m 135.8091,100.158 h 2.884"
       id="path902" />
    <path
       d="M 138.4011,96.15 V 91.6246"
       id="path904" />
    <path
       d="M 138.4011,91.6246 139.4757,90.55"
       id="path906" />
    <path
       d="m 135.8091,100.158 h -0.016"
       id="path908" />
    <path
       d="M 139.5963,97.3452 138.4011,96.15"
       id="path910" />
    <path
       d="m 139.4757,90.55 h 13.8454"
       id="path912" />
    <path
       d="m 138.6931,100.158 0.9032,-0.9032"
       id="path914" />
    <path
       d="m 153.3211,90.55 1.46,1.46"
       id="path916" />
    <path
       d="m 144.7429,105.3548 0.5582,0.5582"
       id="path918" />
    <path
       d="m 152.2211,119.82 -3.87,-3.87"
       id="path920" />
    <path
       d="m 152.2211,120.01 v -0.44"
       id="path922" />
    <path
       d="m 141.2011,99.55 -0.6,0.6"
       id="path924" />
    <path
       d="m 144.7429,105.3548 h -0.037"
       id="path926" />
    <path
       d="m 145.3011,105.913 v 1.037"
       id="path928" />
    <path
       d="m 143.4011,103.25 v -2"
       id="path930" />
    <path
       d="m 144.5011,104.35 -1.1,-1.1"
       id="path932" />
    <path
       d="m 148.3511,115.95 v -0.003"
       id="path934" />
    <path
       d="m 143.4011,101.25 -1.7,-1.7"
       id="path936" />
    <path
       d="m 141.7011,99.55 h -0.5"
       id="path938" />
    <path
       d="m 140.7011,100.25 -0.1,-0.1"
       id="path940" />
    <path
       d="m 146.6011,108.25 h 1.7"
       id="path942" />
    <path
       d="m 146.4511,108.1 0.15,0.15"
       id="path944" />
    <path
       d="m 152.2211,120.01 v -0.19"
       id="path946" />
    <path
       d="m 145.3011,106.95 1.15,1.15"
       id="path948" />
    <path
       d="m 144.5011,105.15 v -0.8"
       id="path950" />
    <path
       d="M 144.7059,105.3548 144.5011,105.15"
       id="path952" />
    <path
       d="m 152.2211,122.55 -1.27,-1.27"
       id="path954" />
    <path
       d="M 143.5571,106.806 V 105.7"
       id="path956" />
    <path
       d="M 150.9511,121.28 V 119.5"
       id="path958" />
    <path
       d="m 147.1011,115.65 v -5.3"
       id="path960" />
    <path
       d="m 147.1011,110.35 -3.544,-3.544"
       id="path962" />
    <path
       d="m 150.9511,119.5 -3.85,-3.85"
       id="path964" />
    <path
       d="m 152.3443,118.2068 -0.5932,-0.5931"
       id="path966" />
    <path
       d="M 151.7511,117.6137 V 111.23"
       id="path968" />
    <path
       d="m 151.7511,111.23 2.5,-2.5"
       id="path970" />
    <path
       style="fill:#4d7fc4;fill-opacity:1;fill-rule:evenodd;stroke:none"
       d="m 139.3122,90.3191 0.0146,0.0352 -0.0146,0.0352 -1.1053,1.1054 -0.0199,0.048 v 0 l -0.015,0.0362 v 4.6165 l 0.0349,0.0842 1.1457,1.1457 0.0146,0.0352 v 0.485 l -0.0146,0.0352 -0.0352,0.0146 -0.0269,-0.0079 -0.0897,-0.0576 v 0 0 l -0.1325,-0.0389 v 0 h -0.0468 l -0.0352,-0.0146 -0.0146,-0.0352 6e-4,-0.0071 0.014,-0.098 v 0 l -0.006,-0.0456 -0.0131,-0.0911 -0.0574,-0.1256 v 0 0 0 l -0.0904,-0.1044 v 0 l -0.1162,-0.0747 v 0 0 l -0.1325,-0.0389 h -0.1382 L 138.3,97.2948 v 0 0 l -0.1162,0.0747 v 0 l -0.0823,0.095 -0.0341,0.0171 -0.004,1e-4 h -1.8363 l -0.0352,-0.0146 -0.1717,-0.1717 -0.0146,-0.0352 v -0.1174 l 0.0146,-0.0352 0.0352,-0.0146 0.0352,0.0146 0.002,0.0026 0.0892,0.1029 v 0 l 0.1162,0.0747 v 0 0 l 0.1325,0.0389 v 0 h 0.1382 v 0 l 0.1325,-0.0389 0.1162,-0.0747 0.0904,-0.1044 0.0574,-0.1256 0.0196,-0.1367 -0.0196,-0.1367 -0.0574,-0.1256 v 0 0 0 l -0.0904,-0.1044 v 0 l -0.1162,-0.0747 v 0 0 l -0.1325,-0.0389 h -0.1382 l -0.1325,0.0389 v 0 0 l -0.1162,0.0747 v 0 l -0.0892,0.1029 -0.034,0.0171 -0.0362,-0.0121 -0.0171,-0.034 -1e-4,-0.0036 v -1.5335 l 0.0146,-0.0353 0.0352,-0.0145 0.0352,0.0145 0.009,0.0118 0.0839,0.1569 0.1253,0.1527 0.1527,0.1253 0.1742,0.0931 0.1891,0.0574 0.1481,0.0146 0.0485,0.0048 v 0 0 l 0.0448,-0.0045 0.1518,-0.0149 0.189,-0.0574 0.1743,-0.0931 0.1527,-0.1253 0.1253,-0.1527 0.0931,-0.1742 0.0574,-0.1891 0.0194,-0.1966 -0.0194,-0.1966 -0.0574,-0.1891 -0.0931,-0.1742 -0.1253,-0.1527 -0.1527,-0.1253 -0.1743,-0.0931 -0.189,-0.0574 -0.1966,-0.0194 v 0 l -0.1966,0.0194 -0.0823,0.025 -0.1068,0.0324 v 0 0 l -0.0865,0.0462 -0.0877,0.0469 v 0 0 l -0.1527,0.1253 -0.1253,0.1527 v 0 0 l -0.0102,0.0191 -0.0737,0.1378 -0.0294,0.0242 -0.038,-0.0037 -0.0242,-0.0295 -0.002,-0.0145 v -0.9141 0 l -0.0387,-0.0936 -0.0745,-0.0744 v 0 l -0.5118,-0.5118 -0.0146,-0.0352 0.006,-0.0235 0.0402,-0.0753 0.0574,-0.189 0.0194,-0.1966 h 0.5244 l 0.0194,0.1966 0.0574,0.189 0.0931,0.1743 0.1253,0.1527 0.1527,0.1253 0.1742,0.0931 0.1891,0.0574 0.1473,0.0145 0.0493,0.0049 v 0 0 l 0.0448,-0.0045 0.1518,-0.0149 0.189,-0.0574 0.1743,-0.0931 0.1527,-0.1253 0.1253,-0.1527 0.0931,-0.1743 0.0574,-0.189 0.0194,-0.1966 -0.0194,-0.1966 -0.0574,-0.1891 -0.0931,-0.1742 -0.1253,-0.1527 -0.1527,-0.1253 -0.1743,-0.0931 -0.189,-0.0574 -0.1966,-0.0194 v 0 l -0.1966,0.0194 -0.0823,0.025 -0.1068,0.0324 v 0 0 l -0.0865,0.0462 -0.0877,0.0469 v 0 0 l -0.1527,0.1253 -0.1253,0.1527 -0.0931,0.1742 v 0 0 l -0.0574,0.1891 -0.0194,0.1966 h -0.5244 l -0.0194,-0.1966 -0.0574,-0.1891 -0.0931,-0.1742 -0.1253,-0.1527 -0.1527,-0.1253 -0.1743,-0.0931 -0.189,-0.0574 -0.1966,-0.0194 v 0 l -0.1966,0.0194 -0.0823,0.025 -0.1068,0.0324 v 0 0 l -0.0865,0.0462 -0.0877,0.0469 v 0 0 l -0.1527,0.1253 -0.1253,0.1527 -0.0931,0.1742 v 0 0 l -0.0574,0.1891 -0.0194,0.1966 0.0194,0.1966 0.0574,0.189 0.0931,0.1743 0.1253,0.1527 0.1527,0.1253 0.1742,0.0931 0.1891,0.0574 0.1473,0.0145 0.0493,0.0049 v 0 0 l 0.0448,-0.0045 0.1518,-0.0149 0.189,-0.0574 0.1014,-0.0541 0.0379,-0.0038 0.0208,0.0125 0.4552,0.4552 0.0146,0.0352 v 0.7375 l -0.0146,0.0353 -0.0352,0.0145 -0.0352,-0.0145 -0.009,-0.0118 -0.0337,-0.0629 -0.0502,-0.094 -0.1253,-0.1527 -0.1527,-0.1253 -0.1743,-0.0931 -0.189,-0.0574 -0.1966,-0.0194 v 0 l -0.1966,0.0194 -0.0823,0.025 -0.1068,0.0324 v 0 0 l -0.0865,0.0462 -0.0877,0.0469 v 0 0 l -0.1527,0.1253 -0.1253,0.1527 v 0 0 l -0.0102,0.0191 -0.0829,0.1551 v 0 0 l -0.0574,0.1891 -0.0194,0.1966 0.0194,0.1966 0.0574,0.1891 0.0931,0.1742 0.1253,0.1527 0.1527,0.1253 0.1742,0.0931 0.0759,0.023 0.0294,0.0242 0.006,0.0235 v 1.7718 l 0.0387,0.0936 1.0343,1.0342 v 0 l 0.0744,0.0745 0.0936,0.0387 v 0 0 h 0.1012 2.9969 l 0.0352,0.0146 0.008,0.0117 1e-4,-10e-5 0.002,0.0026 2e-4,3e-4 v 1e-4 0 l 0.0905,0.1044 v 0 l 0.1162,0.0746 v 0 0 l 0.1325,0.039 v 0 h 0.1381 v 0 l 0.1325,-0.039 0.0897,-0.0576 0.0375,-0.0067 0.0313,0.0217 0.008,0.0269 v 0.3423 l -0.0146,0.0352 -0.7398,0.7398 -0.0352,0.0146 h -2.3132 l -0.0352,-0.0146 -0.0101,-0.0146 -0.002,-0.0041 -0.0169,-0.0194 -0.0736,-0.085 v 0 l -0.1162,-0.0746 v 0 0 l -0.1325,-0.0389 H 135.74 l -0.1325,0.0389 v 0 0 l -0.1162,0.0746 v 0 l -0.0905,0.1044 v 0 l -0.0573,0.1256 v 0 l -0.0197,0.1368 v 0 l 0.0197,0.1367 v 0 l 0.0573,0.1256 v 0 l 0.0905,0.1044 v 0 l 0.1162,0.0746 v 0 0 l 0.1325,0.039 v 0 h 0.1381 v 0 l 0.1325,-0.039 0.1162,-0.0746 0.0905,-0.1044 0.002,-0.004 0.0279,-0.026 0.0174,-0.003 h 2.4743 l 0.0156,-0.007 0.009,-0.004 v 0 l 0.0421,-0.0174 0.0174,-0.007 0.7641,-0.7641 0.0352,-0.0146 0.0352,0.0146 0.0146,0.0352 v 0.7723 l 0.0349,0.0842 1.6304,1.6304 0.0146,0.0353 -0.0121,0.0326 -0.0469,0.0541 v 0 l -0.0574,0.1256 v 0 l -0.0196,0.1367 v 0 l 0.0196,0.1367 v 0 l 0.0574,0.1256 v 0 l 0.0904,0.1044 v 0 l 0.1162,0.0747 v 0 0 l 0.1325,0.0389 v 0 h 0.1382 v 0 0 l 0.003,-4e-4 0.037,0.009 0.005,0.005 0.5131,0.5131 0.4288,0.4288 0.0146,0.0352 v 1.3824 l -0.0146,0.0353 -0.0352,0.0146 -0.0269,-0.008 -0.0486,-0.0312 v 0 0 l -0.1325,-0.0389 h -0.1382 l -0.1325,0.0389 v 0 0 l -0.1162,0.0747 v 0 l -0.009,0.01 -0.034,0.0171 -0.0362,-0.0121 -0.0167,-0.0305 -0.004,-0.0264 -0.0112,-0.0781 -0.0574,-0.1256 v 0 0 0 l -0.0904,-0.1044 v 0 l -0.1162,-0.0747 v 0 0 l -0.1325,-0.0389 h -0.1382 l -0.1325,0.0389 v 0 0 l -0.1162,0.0747 v 0 l -0.0904,0.1044 v 0 l -0.0574,0.1256 v 0 l -0.0196,0.1367 v 0 l 0.0193,0.1342 3e-4,0.002 0.0152,0.0333 0.001,0.0381 -0.026,0.0279 -0.0347,0.002 -0.008,-0.002 v 0 h -0.0278 l -0.0352,-0.0146 -0.0146,-0.0352 5e-4,-0.007 0.0167,-0.1162 v 0 l -0.0165,-0.1152 -0.003,-0.0215 -0.0574,-0.1256 v 0 0 0 l -0.0904,-0.1044 v 0 l -0.0795,-0.051 -0.0217,-0.0313 0.007,-0.0376 0.004,-0.006 0.0106,-0.0122 0.0749,-0.0865 0.0574,-0.1256 0.0196,-0.1367 -0.0196,-0.1367 -0.0574,-0.1256 v 0 0 0 l -0.0905,-0.1044 v 0 l -0.1161,-0.0747 v 0 0 l -0.1326,-0.0389 h -0.1381 l -0.1325,0.0389 v 0 0 l -0.1162,0.0747 v 0 l -0.0904,0.1044 v 0 l -0.0574,0.1256 v 0 l -0.0197,0.1367 v 0 l 0.0197,0.1367 v 0 l 0.0574,0.1256 v 0 l 0.0904,0.1044 v 0 l 0.0794,0.0511 0.0218,0.0313 -0.007,0.0375 -0.004,0.006 -0.0854,0.0986 -0.0574,0.1256 v 0 l -0.0196,0.1367 v 0 l 0.0182,0.127 -0.009,0.0369 -0.005,0.005 -2.1435,2.1435 -0.0228,0.0549 -10e-4,0.003 -0.0111,0.0267 v 0.0879 l -0.0146,0.0353 -0.0352,0.0145 -0.0269,-0.008 -0.0486,-0.0312 v 0 0 l -0.1325,-0.0389 h -0.1382 l -0.1325,0.0389 v 0 0 l -0.1162,0.0747 v 0 l -0.0904,0.1044 v 0 l -0.0574,0.1256 v 0 l -0.0196,0.1367 v 0 l 0.0196,0.1367 v 0 l 0.0574,0.1256 v 0 l 0.0904,0.1044 v 0 l 0.0718,0.0462 0.0218,0.0313 0.001,0.0105 v 2.6238 l -0.0146,0.0352 -0.8565,0.8565 -0.0175,0.0421 v 0 l -0.0174,0.0421 v 1.0947 l -0.0146,0.0352 -0.008,0.007 -0.0658,0.0423 -0.0904,0.1044 v 0 l -0.0574,0.1256 v 0 l -0.0196,0.1367 v 0 l 0.0196,0.1367 v 0 l 0.0574,0.1256 v 0 l 0.0904,0.1044 v 0 l 0.1162,0.0747 v 0 0 l 0.1325,0.0389 v 0 h 0.1382 v 0 l 0.1325,-0.0389 0.0253,-0.0163 0.0233,-0.0149 0.0375,-0.007 0.0313,0.0217 0.008,0.0269 v 0.1365 l -0.0146,0.0352 -4.4567,4.4567 -0.0352,0.0146 -0.0235,-0.006 -0.1312,-0.0701 v 0 0 l -0.1891,-0.0574 -0.1966,-0.0194 v 0 l -0.1966,0.0194 -0.0583,0.0177 -0.1307,0.0397 h -10e-5 v 0 l -0.0865,0.0462 -0.0877,0.0469 v 0 0 l -0.1527,0.1253 -0.1253,0.1527 v 0 0 l -0.0125,0.0234 -0.0806,0.1508 v 0 0 l -0.0574,0.1891 -0.0194,0.1966 0.0194,0.1966 0.0574,0.189 0.0931,0.1743 0.1253,0.1527 0.1527,0.1253 0.1743,0.0931 0.189,0.0574 0.1473,0.0145 0.0493,0.005 v 0 0 l 0.0448,-0.005 0.1518,-0.0149 0.1891,-0.0574 0.1742,-0.0931 0.1527,-0.1253 0.1253,-0.1527 0.0931,-0.1743 0.0124,-0.0408 0.0242,-0.0295 0.038,-0.004 0.0294,0.0241 0.006,0.0235 v 0.8253 l -0.0146,0.0352 -0.4507,0.4507 -0.0352,0.0146 -0.0235,-0.006 -0.1312,-0.0701 v 0 0 l -0.1891,-0.0574 -0.1966,-0.0194 v 0 l -0.1966,0.0194 -0.0823,0.025 -0.1067,0.0324 h -1e-4 v 0 l -0.1129,0.0603 -0.0613,0.0328 v 0 0 l -0.1527,0.1253 -0.1253,0.1527 -0.0931,0.1742 v 0 0 l -0.0574,0.1891 -0.0194,0.1966 0.0194,0.1966 0.0574,0.189 0.0931,0.1743 0.1253,0.1527 0.1527,0.1253 0.1743,0.0931 0.189,0.0574 0.1481,0.0146 0.0485,0.005 v 0 0 l 0.0448,-0.004 0.1518,-0.0149 0.1891,-0.0574 0.1742,-0.0931 0.1527,-0.1253 0.1253,-0.1527 0.0931,-0.1743 0.0574,-0.189 0.0194,-0.1966 -0.0194,-0.1966 -0.0574,-0.1891 -0.0492,-0.0921 -0.004,-0.0379 0.0125,-0.0208 0.5737,-0.5737 0.0349,-0.0842 v -0.0912 -0.8952 l 0.0146,-0.0352 0.0352,-0.0146 0.0352,0.0146 0.0125,0.0208 0.0124,0.0408 0.0931,0.1743 0.1253,0.1527 0.1527,0.1253 0.1742,0.0931 0.1891,0.0574 0.1473,0.0145 0.0493,0.005 v 0 0 l 0.0448,-0.005 0.1518,-0.0149 0.189,-0.0574 0.1743,-0.0931 0.1527,-0.1253 0.1253,-0.1527 0.0931,-0.1743 0.0224,-0.0738 0.0242,-0.0295 0.038,-0.004 0.0294,0.0242 0.006,0.0235 v 0.8482 l -0.0146,0.0352 -0.4607,0.4607 -0.0352,0.0146 -0.0235,-0.006 -0.1312,-0.0701 v 0 h -1e-4 l -0.189,-0.0574 -0.1966,-0.0194 v 0 l -0.1966,0.0194 -0.0823,0.025 -0.1068,0.0324 v 0 0 l -0.1129,0.0603 -0.0613,0.0328 v 0 0 l -0.1527,0.1253 -0.1253,0.1527 -0.0931,0.1742 v 0 0 l -0.0574,0.1891 -0.0194,0.1966 0.0194,0.1966 0.0574,0.189 0.0931,0.1743 0.1253,0.1527 0.1527,0.1253 0.1742,0.0931 0.1891,0.0574 0.1481,0.0146 0.0485,0.005 v 0 0 l 0.0448,-0.004 0.1518,-0.0149 0.189,-0.0574 0.1743,-0.0931 0.1527,-0.1253 0.1253,-0.1527 0.0931,-0.1743 0.0574,-0.189 0.0194,-0.1966 h 0.5244 l 0.0194,0.1966 0.0574,0.189 0.0931,0.1743 0.1253,0.1527 0.1527,0.1253 0.1742,0.0931 0.1891,0.0574 0.1481,0.0146 0.0485,0.005 v 0 0 l 0.0448,-0.004 0.1518,-0.0149 0.189,-0.0574 0.1743,-0.0931 0.1527,-0.1253 0.1253,-0.1527 0.0931,-0.1743 0.0574,-0.189 0.0194,-0.1966 h 0.5244 l 0.0194,0.1966 0.0574,0.189 0.0931,0.1743 0.1253,0.1527 0.1527,0.1253 0.1742,0.0931 0.1891,0.0574 0.1481,0.0146 0.0485,0.005 v 0 0 l 0.0448,-0.004 0.1518,-0.0149 0.1891,-0.0574 0.1742,-0.0931 0.1527,-0.1253 0.1253,-0.1527 0.0931,-0.1743 0.0574,-0.189 0.0194,-0.1966 h 0.5244 l 0.0194,0.1966 0.0574,0.189 0.0931,0.1743 0.1253,0.1527 0.1527,0.1253 0.1743,0.0931 0.189,0.0574 0.1481,0.0146 0.0485,0.005 v 0 0 l 0.0448,-0.004 0.1518,-0.0149 0.189,-0.0574 0.1743,-0.0931 0.1527,-0.1253 0.1253,-0.1527 0.0931,-0.1743 0.0574,-0.189 0.0194,-0.1966 h 0.5244 l 0.0194,0.1966 0.0574,0.189 0.0931,0.1743 0.1253,0.1527 0.1527,0.1253 0.1742,0.0931 0.1891,0.0574 0.1481,0.0146 0.0485,0.005 v 0 0 l 0.0448,-0.004 0.1518,-0.0149 0.189,-0.0574 0.1743,-0.0931 0.1527,-0.1253 0.1253,-0.1527 0.0931,-0.1743 0.0574,-0.189 0.0194,-0.1966 h 0.5244 l 0.0194,0.1966 0.0574,0.189 0.0931,0.1743 0.1253,0.1527 0.1527,0.1253 0.1742,0.0931 0.1891,0.0574 0.1481,0.0146 0.0485,0.005 v 0 0 l 0.0448,-0.004 0.1518,-0.0149 0.189,-0.0574 0.1743,-0.0931 0.1527,-0.1253 0.1253,-0.1527 0.0931,-0.1743 0.0574,-0.189 0.0194,-0.1966 h 0.5244 l 0.0194,0.1966 0.0574,0.189 0.0931,0.1743 0.1253,0.1527 0.1527,0.1253 0.1743,0.0931 0.189,0.0574 0.1481,0.0146 0.0485,0.005 v 0 0 l 0.0448,-0.004 0.1518,-0.0149 0.1891,-0.0574 0.1742,-0.0931 0.1527,-0.1253 0.1253,-0.1527 0.0931,-0.1743 0.0574,-0.189 0.0194,-0.1966 -0.0194,-0.1966 -0.0574,-0.1891 -0.0931,-0.1742 -0.1253,-0.1527 -0.1527,-0.1253 -0.1742,-0.0931 -0.1891,-0.0574 -0.1966,-0.0194 v 0 l -0.1966,0.0194 -0.0823,0.025 -0.1067,0.0324 h -10e-5 v 0 l -0.1129,0.0603 -0.0613,0.0328 v 0 0 l -0.1527,0.1253 -0.1253,0.1527 -0.0931,0.1742 v 0 0 l -0.0574,0.1891 -0.0194,0.1966 h -0.5244 l -0.0194,-0.1966 -0.0574,-0.1891 -0.0931,-0.1742 -0.1253,-0.1527 -0.1527,-0.1253 -0.1743,-0.0931 -0.189,-0.0574 -0.1966,-0.0194 v 0 l -0.1966,0.0194 -0.0823,0.025 -0.1068,0.0324 v 0 0 l -0.1129,0.0603 -0.0613,0.0328 v 0 0 l -0.1527,0.1253 -0.1253,0.1527 -0.0931,0.1742 v 0 0 l -0.0574,0.1891 -0.0194,0.1966 h -0.5244 l -0.0194,-0.1966 -0.0574,-0.1891 -0.0931,-0.1742 -0.1253,-0.1527 -0.1527,-0.1253 -0.1743,-0.0931 -0.189,-0.0574 -0.1966,-0.0194 v 0 l -0.1966,0.0194 -0.0823,0.025 -0.1068,0.0324 v 0 0 l -0.1129,0.0603 -0.0613,0.0328 v 0 0 l -0.1527,0.1253 -0.1253,0.1527 -0.0931,0.1742 v 0 0 l -0.0574,0.1891 -0.0194,0.1966 h -0.5244 l -0.0194,-0.1966 -0.0574,-0.1891 -0.0931,-0.1742 -0.1253,-0.1527 -0.1527,-0.1253 -0.1743,-0.0931 -0.189,-0.0574 -0.1966,-0.0194 v 0 l -0.1966,0.0194 -0.0823,0.025 -0.1067,0.0324 h -1e-4 v 0 l -0.1129,0.0603 -0.0613,0.0328 v 0 0 l -0.1527,0.1253 -0.1253,0.1527 -0.0931,0.1742 v 0 0 l -0.0574,0.1891 -0.0194,0.1966 h -0.5244 l -0.0194,-0.1966 -0.0574,-0.1891 -0.0931,-0.1742 -0.1253,-0.1527 -0.1527,-0.1253 -0.1742,-0.0931 -0.1891,-0.0574 -0.1966,-0.0194 v 0 l -0.1966,0.0194 -0.0823,0.025 -0.1068,0.0324 v 0 0 l -0.1129,0.0603 -0.0613,0.0328 v 0 0 l -0.1527,0.1253 -0.1253,0.1527 -0.0931,0.1742 v 0 0 l -0.0574,0.1891 -0.0194,0.1966 h -0.5244 l -0.0194,-0.1966 -0.0574,-0.1891 -0.0931,-0.1742 -0.1253,-0.1527 -0.1527,-0.1253 -0.1743,-0.0931 -0.189,-0.0574 -0.1966,-0.0194 v 0 l -0.1966,0.0194 -0.0823,0.025 -0.1068,0.0324 v 0 0 l -0.1129,0.0603 -0.0613,0.0328 v 0 0 l -0.1527,0.1253 -0.1253,0.1527 -0.0931,0.1742 v 0 0 l -0.0574,0.1891 -0.0194,0.1966 h -0.5244 l -0.0194,-0.1966 -0.0574,-0.1891 -0.0492,-0.0921 -0.004,-0.0379 0.0125,-0.0208 0.5837,-0.5837 0.0349,-0.0842 v -0.0912 -0.8522 l 0.0146,-0.0352 0.0352,-0.0146 0.0352,0.0146 0.0125,0.0207 0.002,0.008 0.0931,0.1743 0.1253,0.1527 0.1527,0.1253 0.1742,0.0931 0.1891,0.0574 0.1473,0.0145 0.0493,0.005 v 0 0 l 0.0448,-0.005 0.1518,-0.0149 0.189,-0.0574 0.1743,-0.0931 0.1527,-0.1253 0.1253,-0.1527 0.0931,-0.1743 0.0574,-0.189 0.0194,-0.1966 h 0.5244 l 0.0194,0.1966 0.0574,0.189 0.0931,0.1743 0.1253,0.1527 0.1527,0.1253 0.1742,0.0931 0.1891,0.0574 0.1473,0.0145 0.0493,0.005 v 0 0 l 0.0448,-0.005 0.1518,-0.0149 0.1891,-0.0574 0.1742,-0.0931 0.1527,-0.1253 0.1253,-0.1527 0.0931,-0.1743 0.0574,-0.189 0.0194,-0.1966 h 0.5244 l 0.0194,0.1966 0.0574,0.189 0.0931,0.1743 0.1253,0.1527 0.1527,0.1253 0.1743,0.0931 0.189,0.0574 0.1473,0.0145 0.0493,0.005 v 0 0 l 0.0448,-0.005 0.1518,-0.0149 0.189,-0.0574 0.1743,-0.0931 0.1527,-0.1253 0.1253,-0.1527 0.0931,-0.1743 0.0574,-0.189 0.0194,-0.1966 -0.0151,-0.1524 h 0.4527 0.6178 l -0.0232,0.0866 v 0.1316 l 0.0232,0.0866 h -0.6178 l 0.005,0.0513 v 0 l 0.056,0.1968 0.0912,0.1832 v 0 l 0.1233,0.1632 v 0 l 0.1512,0.1379 0.174,0.1077 0.1908,0.0739 0.151,0.0282 v 0 -0.6178 l 0.0866,0.0232 h 0.1316 l 0.0866,-0.0232 v 0.6178 l 0.151,-0.0282 0.1908,-0.0739 0.174,-0.1077 0.1512,-0.1379 v 0 l 0.1233,-0.1632 v 0 l 0.0912,-0.1832 0.056,-0.1968 v 0 l 0.005,-0.0513 h -0.6178 l 0.0232,-0.0866 V 120 h 1.0322 l 0.0194,0.1966 0.0574,0.189 0.0931,0.1743 0.1253,0.1527 0.1527,0.1253 0.1742,0.0931 0.1891,0.0574 0.1473,0.0145 0.0493,0.005 v 0 0 l 0.0448,-0.005 0.1518,-0.0149 0.189,-0.0574 0.1743,-0.0931 0.1527,-0.1253 0.1253,-0.1527 0.0931,-0.1743 0.0574,-0.189 0.0194,-0.1966 -0.0194,-0.1966 -0.0574,-0.1891 -0.0931,-0.1742 -0.1253,-0.1527 -0.1527,-0.1253 -0.1743,-0.0931 -0.189,-0.0574 -0.1966,-0.0194 v 0 l -0.1966,0.0194 -0.0583,0.0177 -0.1308,0.0397 v 0 0 l -0.0865,0.0462 -0.0877,0.0469 v 0 0 l -0.1527,0.1253 -0.1253,0.1527 v 0 0 l -0.0125,0.0234 -0.0806,0.1508 v 0 0 l -0.0574,0.1891 -0.0194,0.1966 h -1.0322 v -0.0658 l -0.0232,-0.0866 h 0.6178 l -0.005,-0.0513 v 0 l -0.056,-0.1968 -0.0912,-0.1832 v 0 L 145.4,119.2527 v 0 l -0.1512,-0.1379 -0.174,-0.1077 -0.1908,-0.0739 -0.151,-0.0282 v 0.6178 L 144.6469,119.5 h -0.1316 l -0.0866,0.0232 v -0.6178 0 l -0.151,0.0282 -0.1908,0.0739 -0.174,0.1077 -0.1512,0.1379 v 0 l -0.1233,0.1632 v 0 l -0.0912,0.1832 -0.056,0.1968 v 0 l -0.005,0.0513 h -0.4527 l -0.004,-0.0442 -0.0574,-0.1891 -0.0931,-0.1742 -0.1253,-0.1527 -0.1527,-0.1253 -0.1743,-0.0931 -0.189,-0.0574 -0.1966,-0.0194 v 0 l -0.1966,0.0194 -0.0583,0.0177 -0.1307,0.0397 h -1e-4 v 0 l -0.0865,0.0462 -0.0877,0.0469 v 0 0 l -0.1527,0.1253 -0.1253,0.1527 v 0 0 l -0.0125,0.0234 -0.0806,0.1508 v 0 0 l -0.0574,0.1891 -0.0194,0.1966 h -0.5244 l -0.0194,-0.1966 -0.0574,-0.1891 -0.0931,-0.1742 -0.1253,-0.1527 -0.1527,-0.1253 -0.1742,-0.0931 -0.1891,-0.0574 -0.1966,-0.0194 v 0 l -0.1966,0.0194 -0.0583,0.0177 -0.1308,0.0397 v 0 0 l -0.0865,0.0462 -0.0877,0.0469 v 0 0 l -0.1527,0.1253 -0.1253,0.1527 v 0 0 l -0.0125,0.0234 -0.0806,0.1508 v 0 0 l -0.0574,0.1891 -0.0194,0.1966 h -0.5244 l -0.0194,-0.1966 -0.0574,-0.1891 -0.0931,-0.1742 -0.1253,-0.1527 -0.1527,-0.1253 -0.1743,-0.0931 -0.189,-0.0574 -0.1966,-0.0194 v 0 l -0.1966,0.0194 -0.0583,0.0177 -0.1308,0.0397 v 0 0 l -0.0865,0.0462 -0.0877,0.0469 v 0 0 l -0.1527,0.1253 -0.1253,0.1527 v 0 0 l -0.0125,0.0234 -0.0806,0.1508 v 0 0 l -0.002,0.008 -0.0242,0.0294 -0.038,0.004 -0.0294,-0.0242 -0.006,-0.0235 v -1.2423 l 0.0146,-0.0352 2.8922,-2.8922 0.0352,-0.0146 0.0352,0.0146 0.0146,0.0352 v 0.5786 l -0.0146,0.0352 -0.008,0.007 -0.0658,0.0423 -0.0904,0.1044 v 0 l -0.0574,0.1256 v 0 l -0.0196,0.1367 v 0 l 0.0196,0.1367 v 0 l 0.0574,0.1256 v 0 l 0.0904,0.1044 v 0 l 0.1162,0.0747 v 0 0 l 0.1325,0.0389 v 0 h 0.1382 v 0 l 0.1325,-0.0389 0.1162,-0.0747 0.0904,-0.1044 0.0574,-0.1256 0.0196,-0.1367 -0.0192,-0.1339 0.009,-0.0369 0.0328,-0.0195 0.034,0.007 0.1062,0.0683 v 0 0 l 0.1325,0.0389 v 0 h 0.1382 v 0 l 0.1325,-0.0389 0.1162,-0.0747 8e-4,-10e-4 0.0625,-0.072 0.0271,-0.0314 0.002,-0.004 0.0279,-0.026 0.0174,-0.003 h 5.6622 l 0.0352,0.0146 1.596,1.596 0.0517,0.0214 0.0139,0.006 0.0262,0.0253 0.007,0.0156 v 0 l 0.0904,0.1044 v 0 l 0.1162,0.0747 v 0 0 l 0.1325,0.0389 v 0 h 0.1382 v 0 l 0.1325,-0.0389 0.1162,-0.0747 0.0904,-0.1044 0.0574,-0.1256 0.003,-0.0182 0.0194,-0.0328 0.037,-0.009 0.0281,0.0141 1.3203,1.3203 0.0146,0.0352 -0.0146,0.0352 -0.0352,0.0146 -0.0235,-0.006 -0.0246,-0.0131 v 0 0 l -0.1891,-0.0574 -0.1966,-0.0194 v 0 l -0.1966,0.0194 -0.0583,0.0177 -0.1307,0.0397 h -1e-4 v 0 l -0.0865,0.0462 -0.0877,0.0469 v 0 0 l -0.1527,0.1253 -0.1253,0.1527 v 0 0 l -0.0125,0.0234 -0.0806,0.1508 v 0 0 l -0.0574,0.1891 -0.0194,0.1966 0.0194,0.1966 0.0574,0.189 0.0931,0.1743 0.1253,0.1527 0.1527,0.1253 0.1743,0.0931 0.189,0.0574 0.1473,0.0145 0.0493,0.005 v 0 0 l 0.0448,-0.005 0.1518,-0.0149 0.1891,-0.0574 0.1742,-0.0931 0.1527,-0.1253 0.1253,-0.1527 0.0931,-0.1743 0.0324,-0.1068 0.0242,-0.0294 0.038,-0.004 0.0294,0.0242 0.006,0.0235 v 1.0323 l 0.0349,0.0842 0.5676,0.5676 0.0146,0.0353 -0.006,0.0234 -0.0631,0.1182 v 0 0 l -0.0574,0.1891 -0.0194,0.1966 0.0194,0.1966 0.0574,0.189 0.0931,0.1743 0.1253,0.1527 0.1527,0.1253 0.1742,0.0931 0.1891,0.0574 0.1481,0.0146 0.0485,0.005 v 0 0 l 0.0448,-0.004 0.1518,-0.0149 0.189,-0.0574 0.1743,-0.0931 0.1527,-0.1253 0.1253,-0.1527 0.0931,-0.1743 0.0574,-0.189 0.0194,-0.1966 -0.0194,-0.1966 -0.0574,-0.1891 -0.0931,-0.1742 -0.1253,-0.1527 -0.1527,-0.1253 -0.1743,-0.0931 -0.189,-0.0574 -0.1966,-0.0194 v 0 l -0.1966,0.0194 -0.0823,0.025 -0.1068,0.0324 v 0 0 0 l -0.1051,0.0562 -0.038,0.004 -0.0207,-0.0124 -0.4568,-0.4568 -0.0146,-0.0352 v -0.7482 l 0.0146,-0.0352 0.0352,-0.0146 0.0352,0.0146 0.009,0.0118 0.0893,0.167 0.1253,0.1527 0.1527,0.1253 0.1742,0.0931 0.1891,0.0574 0.1473,0.0145 0.0493,0.005 v 0 0 l 0.0448,-0.005 0.1518,-0.0149 0.189,-0.0574 0.1743,-0.0931 0.1527,-0.1253 0.1253,-0.1527 0.0931,-0.1743 0.0424,-0.1397 0.0242,-0.0295 0.038,-0.004 0.0294,0.0241 0.006,0.0235 v 1.0753 l 0.0349,0.0842 0.5576,0.5576 0.0146,0.0353 -0.006,0.0234 -0.0631,0.1182 v 0 0 l -0.0574,0.1891 -0.0194,0.1966 0.0194,0.1966 0.0574,0.189 0.0931,0.1743 0.1253,0.1527 0.1527,0.1253 0.1742,0.0931 0.1891,0.0574 0.1481,0.0146 0.0485,0.005 v 0 0 l 0.0448,-0.004 0.1518,-0.0149 0.189,-0.0574 0.1743,-0.0931 0.1527,-0.1253 0.1253,-0.1527 0.0931,-0.1743 0.0574,-0.189 0.0194,-0.1966 -0.0194,-0.1966 -0.0574,-0.1891 -0.0931,-0.1742 -0.1253,-0.1527 -0.1527,-0.1253 -0.1743,-0.0931 -0.189,-0.0574 -0.1966,-0.0194 v 0 l -0.1966,0.0194 -0.0823,0.025 -0.1068,0.0324 v 0 0 0 l -0.1051,0.0562 -0.038,0.004 -0.0207,-0.0124 -0.4468,-0.4468 -0.0146,-0.0352 v -0.155 l 0.0146,-0.0352 0.0352,-0.0146 0.0277,0.008 0.0237,0.0159 0.0446,0.009 h 1.7302 l 0.0446,-0.009 0.0505,-0.0338 0.0338,-0.0505 0.009,-0.0446 v -1.7302 l -0.009,-0.0446 v 0 0 l -0.0338,-0.0505 v 0 l -0.0505,-0.0338 -0.0446,-0.009 v 0 h -1.7302 v 0 l -0.0297,0.006 -0.0149,0.003 -0.0237,0.0159 -0.0374,0.007 -0.0317,-0.0212 -0.008,-0.0277 v -0.526 0 l -0.0221,-0.0533 -0.0128,-0.0309 -0.4005,-0.4005 -0.0146,-0.0352 v -1.0746 l 0.0146,-0.0352 0.0352,-0.0146 0.0352,0.0146 0.009,0.0117 0.0393,0.0735 0.1253,0.1527 0.1527,0.1253 0.1742,0.0931 0.1891,0.0574 0.1481,0.0146 0.0485,0.005 v 0 0 l 0.0448,-0.004 0.1518,-0.0149 0.1891,-0.0574 0.1742,-0.0931 0.1527,-0.1253 0.1253,-0.1527 0.0931,-0.1743 0.0574,-0.189 0.0194,-0.1966 -0.0194,-0.1966 -0.0574,-0.1891 -0.0931,-0.1742 -0.1253,-0.1527 -0.1176,-0.0965 -0.0351,-0.0288 v 0 0 l -0.1742,-0.0931 -0.1891,-0.0574 -0.1966,-0.0194 v 0 l -0.1966,0.0194 -0.0655,0.0199 -0.1236,0.0375 v 0 0 l -0.0616,0.0329 -0.1126,0.0602 v 0 0 l -0.1527,0.1253 -0.1168,0.1424 -0.008,0.0103 -0.0107,0.02 -0.0286,0.0535 -0.0294,0.0242 -0.038,-0.004 -0.0242,-0.0294 -0.002,-0.0145 v -0.7146 l 0.0146,-0.0352 0.4003,-0.4003 0.0352,-0.0145 0.0234,0.006 0.1117,0.0597 0.1891,0.0574 0.1481,0.0146 0.0485,0.005 v 0 0 l 0.0448,-0.005 0.1518,-0.0149 0.1891,-0.0574 0.1742,-0.0931 0.1527,-0.1253 0.1253,-0.1527 0.0931,-0.1742 0.0574,-0.1891 0.0194,-0.1966 -0.002,-0.0223 -0.0103,-0.1044 -0.007,-0.0699 -0.0574,-0.1891 -0.0931,-0.1742 -0.1253,-0.1527 -0.1527,-0.1253 -0.1742,-0.0931 -0.1891,-0.0574 -0.1966,-0.0194 v 0 l -0.1966,0.0194 -0.0319,0.01 -0.1572,0.0477 v 0 0 l -0.1129,0.0603 -0.0613,0.0328 v 0 0 l -0.1527,0.1253 -0.1253,0.1527 -0.0931,0.1742 v 0 l -0.0574,0.1891 -0.0194,0.1966 v 0 l 0.0102,0.1033 0.009,0.0933 0.0574,0.1891 v 0 0 l 0.0597,0.1117 0.004,0.0379 -0.0124,0.0207 -0.5142,0.5142 -0.0247,0.0596 v 0 l -0.0102,0.0246 v 2.9268 l -0.0146,0.0353 -0.0352,0.0145 -0.0352,-0.0145 -0.002,-0.003 -0.0726,-0.0838 v 0 l -0.1162,-0.0746 v 0 0 l -0.1325,-0.039 h -0.1381 v 0 l -0.0391,0.0115 -0.0379,-0.004 -0.0113,-0.008 -0.1921,-0.1921 -0.0146,-0.0352 v -6.1527 l 0.0146,-0.0352 0.0403,-0.0403 h 1.2082 v 0 l 0.009,0.0886 0.0106,0.108 0.0574,0.189 0.0931,0.1743 0.1253,0.1527 0.1527,0.1253 0.1742,0.0931 0.1891,0.0574 0.1481,0.0146 0.0485,0.005 v 0 0 l 0.0448,-0.004 0.1518,-0.0149 0.1891,-0.0574 0.1742,-0.0931 0.1527,-0.1253 0.1253,-0.1527 0.0931,-0.1743 0.0574,-0.189 0.0194,-0.1966 -0.0194,-0.1966 -0.0574,-0.1891 -0.0931,-0.1742 -0.1253,-0.1527 -0.1527,-0.1253 -0.1742,-0.0931 -0.1891,-0.0574 -0.1966,-0.0194 v 0 l -0.1966,0.0194 -0.0823,0.025 -0.1068,0.0324 v 0 0 l -0.0567,0.0303 -0.1175,0.0628 v 0 0 l -0.1527,0.1253 -0.1253,0.1527 -0.0931,0.1742 v 0 0 l -0.0192,0.0631 -0.0382,0.126 -0.0194,0.1966 h -1.2082 l 1.66,-1.66 0.0352,-0.0145 0.0234,0.006 0.1117,0.0597 0.1891,0.0574 0.1481,0.0146 0.0485,0.005 v 0 0 l 0.0448,-0.004 0.1518,-0.0149 0.1891,-0.0574 0.1742,-0.0931 0.1527,-0.1253 0.1253,-0.1527 0.0931,-0.1743 0.0574,-0.189 0.0162,-0.1642 0.003,-0.0324 v 0 l -0.008,-0.0812 -0.0114,-0.1154 -0.0574,-0.1891 -0.0931,-0.1742 -0.006,-0.008 -0.0402,-0.049 -0.0787,-0.0959 -0.136,-0.1116 -0.0167,-0.0137 v 0 0 l -0.1742,-0.0931 -0.1891,-0.0574 -0.1966,-0.0194 v 0 l -0.1966,0.0194 -0.0715,0.0217 -0.1176,0.0357 v 0 0 l -0.1129,0.0603 -0.0613,0.0328 v 0 0 l -0.1527,0.1253 -0.1253,0.1527 v 0 0 l -0.009,0.0176 -0.0837,0.1566 v 0 0 l -0.0129,0.0424 -0.0445,0.1467 -0.0194,0.1966 v 0 l 0.004,0.0438 0.015,0.1528 0.0574,0.189 v 1e-4 0 l 0.0597,0.1117 0.004,0.0379 -0.0124,0.0207 -1.8142,1.8142 v 0 l -0.0188,0.0454 v 0 l -0.0161,0.0388 v 0.9151 l -0.0146,0.0352 -0.0352,0.0146 -0.0352,-0.0146 -0.0141,-0.0281 -0.001,-0.007 -0.005,-0.0362 -0.0574,-0.1256 v 0 0 0 l -0.0904,-0.1044 -0.0658,-0.0423 -0.0218,-0.0313 -0.001,-0.0106 v -0.6947 0 l -0.0102,-0.0246 -0.0247,-0.0596 -1.9492,-1.9492 v 0 l -0.0596,-0.0247 -0.0246,-0.0102 v 0 h -1.0114 l -0.0352,-0.0146 -0.0101,-0.0145 -0.002,-0.004 v 0 l -0.0904,-0.1044 v 0 l -0.1162,-0.0747 v 0 0 l -0.1325,-0.0389 h -0.1382 l -0.1325,0.0389 v 0 0 l -0.1162,0.0747 v 0 l -0.0904,0.1044 v 0 l -0.0574,0.1256 v 0 l -0.003,0.0182 -0.0194,0.0328 -0.037,0.009 -0.0281,-0.0141 -0.5607,-0.5607 -0.0146,-0.0352 0.0146,-0.0352 0.0352,-0.0146 h 0.0798 1.199 l 0.0352,0.0146 0.0101,0.0145 0.002,0.004 v 0 0 l 0.0904,0.1044 v 0 l 0.1162,0.0747 v 0 0 l 0.1325,0.0389 v 0 h 0.1382 v 0 l 0.1325,-0.0389 0.1162,-0.0747 0.0117,-0.0135 0.0184,-0.0213 0.0603,-0.0696 0.0574,-0.1256 0.0196,-0.1367 v -3e-4 l -0.0143,-0.0992 -0.005,-0.0372 -0.0574,-0.1256 v 0 0 0 l -0.0904,-0.1044 v 0 l -0.1162,-0.0747 v 0 0 l -0.1325,-0.0389 h -0.1382 l -0.1325,0.0389 v 0 0 l -0.1162,0.0747 v 0 l -0.0904,0.1044 v 0 0 0 l -0.002,0.004 -0.0279,0.026 -0.0174,0.003 h -1.1291 l -0.0352,-0.0146 -0.1034,-0.1034 v 0 l -1.0332,-1.0332 -0.0146,-0.0352 v -0.967 0 l -0.021,-0.0508 -0.0139,-0.0334 -0.2698,-0.2699 -0.0146,-0.0352 5e-4,-0.007 0.0167,-0.1163 -0.005,-0.0315 0.009,-0.037 0.0328,-0.0194 0.0369,0.009 0.005,0.005 1.9104,1.9104 0.0146,0.0352 -5e-4,0.007 -0.0167,0.1163 v 0 l 0.0196,0.1367 v 0 l 0.0574,0.1256 v 0 l 0.0904,0.1044 v 0 l 0.1162,0.0747 v 0 0 l 0.1325,0.0389 v 0 h 0.1382 v 0 l 0.1325,-0.0389 0.1162,-0.0747 0.0904,-0.1044 0.0574,-0.1256 0.0164,-0.1139 0.003,-0.0228 v 0 l -0.01,-0.0697 -0.01,-0.067 -0.0574,-0.1256 v 0 0 0 l -0.0904,-0.1044 v 0 l -0.1162,-0.0747 v 0 0 l -0.1325,-0.0389 h -0.1382 v 0 l -0.0391,0.0115 -0.0378,-0.004 -0.0114,-0.008 -2.4941,-2.4941 -0.0146,-0.0352 v -0.5301 0 l -0.0349,-0.0842 -0.0644,-0.0644 -0.0106,-0.0106 h 0.9908 v 0 l 0.0196,0.1367 v 0 l 0.0574,0.1256 v 0 l 0.0904,0.1044 v 0 l 0.1162,0.0747 v 0 0 l 0.1325,0.0389 v 0 h 0.1382 v 0 l 0.1325,-0.0389 0.1162,-0.0747 0.0904,-0.1044 0.0574,-0.1256 0.0196,-0.1367 -0.0196,-0.1367 -0.0574,-0.1256 v 0 0 0 l -0.0904,-0.1044 v 0 l -0.1162,-0.0747 v 0 0 l -0.1325,-0.0389 h -0.1382 l -0.1325,0.0389 v 0 0 l -0.1162,0.0747 v 0 l -0.0904,0.1044 v 0 l -0.0574,0.1256 v 0 l -0.0196,0.1367 h -0.9908 l -0.7803,-0.7803 -0.0146,-0.0352 v -0.0596 h 0.6238 v 0 l 0.0197,0.1367 v 0 l 0.0574,0.1256 v 0 l 0.0904,0.1044 v 0 l 0.1162,0.0747 v 0 0 l 0.1325,0.0389 v 0 h 0.1381 v 0 l 0.1325,-0.0389 0.1162,-0.0747 0.0905,-0.1044 0.002,-0.004 0.0279,-0.026 0.0174,-0.003 h 1.7521 l 0.0352,0.0146 3.2314,3.2314 0.0146,0.0352 v 1.1601 l -0.0146,0.0352 -0.008,0.007 -0.0718,0.0462 -0.0904,0.1044 v 0 l -0.0574,0.1256 v 0 l -0.0196,0.1367 v 0 l 0.0196,0.1367 v 0 l 0.0574,0.1256 v 0 l 0.0904,0.1044 v 0 l 0.1162,0.0747 v 0 0 l 0.1325,0.0389 v 0 h 0.1382 v 0 l 0.1325,-0.0389 0.1162,-0.0747 0.0904,-0.1044 0.0574,-0.1256 0.0164,-0.1139 0.003,-0.0228 v 0 l -0.0145,-0.101 -0.005,-0.0357 -0.0574,-0.1256 v 0 0 0 l -0.0904,-0.1044 -0.0598,-0.0384 -0.0218,-0.0314 -0.001,-0.0105 v -1.3289 0 l -0.0256,-0.0618 v 0 l -0.005,-0.0131 -0.004,-0.009 -0.7249,-0.7249 h 2.7207 v 0.7226 h 0.6272 l -0.0232,0.0866 v 0.1316 l 0.0232,0.0866 h -0.6272 v 0.7226 l 0.0147,0.0741 v 0 l 0.0562,0.084 v 0 l 0.084,0.0562 v 0 l 0.0741,0.0147 h 0.7226 v -0.6272 l 0.0866,0.0232 h 0.1316 l 0.0866,-0.0232 v 0.6272 h 0.7226 v 0 l 0.0741,-0.0147 v 0 l 0.084,-0.0562 v 0 l 0.0562,-0.084 v 0 l 0.0147,-0.0741 v 0 -0.7226 h -0.6272 l 0.0232,-0.0866 v -0.1316 l -0.0232,-0.0866 h 0.6272 v -0.7226 0 l -0.0147,-0.0741 v 0 l -0.0562,-0.084 v 0 l -0.084,-0.0562 v 0 l -0.0741,-0.0147 h -0.7226 v 0.6272 l -0.0866,-0.0232 h -0.1316 l -0.0866,0.0232 v -0.6272 h -0.7226 v 0 l -0.0741,0.0147 v 0 l -0.084,0.0562 v 0 l -0.0562,0.084 v 0 l -0.0147,0.0741 h -2.7207 l -2.7343,-2.7343 v 0 l -0.0596,-0.0247 -0.0246,-0.0102 v 0 h -1.9132 l -0.0353,-0.0146 -0.01,-0.0145 -0.002,-0.004 -0.0157,-0.0181 -0.0748,-0.0863 v 0 l -0.1162,-0.0747 v 0 0 l -0.1325,-0.0389 h -0.1381 l -0.1325,0.0389 v 0 0 l -0.1162,0.0747 v 0 l -0.0904,0.1044 v 0 l -0.0574,0.1256 v 0 l -0.0197,0.1367 h -0.6238 v -1.8705 l -0.0144,-0.0348 -0.0205,-0.0494 -1.9644,-1.9644 v 0 l -0.0596,-0.0247 -0.0246,-0.0102 v 0 h -0.9902 l -0.0352,-0.0146 -0.0101,-0.0145 -0.002,-0.0041 -0.01,-0.0115 -0.0804,-0.0929 v 0 l -0.1162,-0.0747 v 0 0 l -0.1325,-0.0389 h -0.1382 l -0.1325,0.0389 v 0 0 l -0.1162,0.0747 v 0 l -0.0657,0.0758 -0.034,0.0171 -0.0362,-0.0121 -0.0171,-0.0341 -1e-4,-0.0035 v -1.261 l 0.0146,-0.0352 0.5839,-0.5839 h 1.3861 v 0 l 0.0196,0.1367 v 0 l 0.0574,0.1256 v 0 l 0.0904,0.1044 v 0 l 0.1162,0.0747 v 0 0 l 0.1325,0.0389 v 0 h 0.1382 v 0 l 0.1325,-0.0389 0.1162,-0.0747 0.0904,-0.1044 0.0574,-0.1256 0.0196,-0.1367 -0.0196,-0.1367 -0.0574,-0.1256 v 0 0 0 l -0.0904,-0.1044 v 0 l -0.1162,-0.0747 v 0 0 L 142.6712,96.37 h -0.1382 l -0.1325,0.0389 v 0 0 l -0.1162,0.0747 v 0 l -0.0904,0.1044 v 0 l -0.0574,0.1256 v 0 l -0.0196,0.1367 h -1.3861 l 1.2431,-1.2431 0.0352,-0.0146 0.005,3e-4 0.0805,0.0079 0.009,9e-4 v 0 0 l 0.0324,-0.0032 0.1642,-0.0162 0.1891,-0.0574 0.1742,-0.0931 0.1527,-0.1253 0.1253,-0.1527 0.0931,-0.1742 0.0574,-0.1891 0.0194,-0.1966 h 0.5244 l 0.0194,0.1966 0.0574,0.1891 0.0931,0.1742 0.1253,0.1527 0.1527,0.1253 0.1742,0.0931 0.1891,0.0574 0.1481,0.0146 0.0485,0.0048 v 0 0 l 0.0448,-0.0045 0.1518,-0.0149 0.189,-0.0574 0.1743,-0.0931 0.1527,-0.1253 0.1253,-0.1527 0.0931,-0.1742 0.0574,-0.1891 0.0194,-0.1966 -0.0151,-0.1524 h 0.4527 0.6178 l -0.0232,0.0866 v 0.1316 l 0.0232,0.0866 h -0.6178 l 0.005,0.0513 v 0 l 0.056,0.1968 0.0912,0.1832 v 0 l 0.1233,0.1632 v 0 l 0.1512,0.1379 0.174,0.1077 0.1908,0.0739 0.151,0.0282 v 0 -0.6178 l 0.0866,0.0232 h 0.1316 l 0.0866,-0.0232 v 0.6178 l 0.151,-0.0282 0.1908,-0.0739 0.174,-0.1077 0.1512,-0.1379 v 0 l 0.1233,-0.1632 v 0 l 0.0912,-0.1832 0.0559,-0.1968 h 1e-4 l 0.005,-0.0513 h -0.6178 l 0.0232,-0.0866 v -0.1316 l -0.0232,-0.0866 h 0.6178 0.3508 0.6178 l -0.0232,0.0866 v 0.1316 l 0.0232,0.0866 h -0.6178 l 0.005,0.0513 v 0 l 0.056,0.1968 0.0912,0.1832 v 0 l 0.1233,0.1632 v 0 l 0.1512,0.1379 0.174,0.1077 0.1908,0.0739 0.151,0.0282 v 0 -0.6178 l 0.0866,0.0232 h 0.1316 l 0.0866,-0.0232 v 0.6178 l 0.151,-0.0282 0.1908,-0.0739 0.174,-0.1077 0.1512,-0.1379 v 0 l 0.1233,-0.1632 v 0 l 0.0912,-0.1832 0.0559,-0.1968 h 1e-4 l 0.005,-0.0513 h -0.6178 l 0.0232,-0.0866 v -0.1316 l -0.0232,-0.0866 h 0.6178 0.3508 0.6178 l -0.0232,0.0866 v 0.1316 l 0.0232,0.0866 h -0.6178 l 0.005,0.0513 v 0 l 0.056,0.1968 0.0912,0.1832 v 0 l 0.1233,0.1632 v 0 l 0.1512,0.1379 0.174,0.1077 0.1908,0.0739 0.151,0.0282 v 0 -0.6178 l 0.0866,0.0232 h 0.1316 l 0.0866,-0.0232 v 0.6178 l 0.151,-0.0282 0.1908,-0.0739 0.174,-0.1077 0.1512,-0.1379 v 0 l 0.1233,-0.1632 v 0 l 0.0912,-0.1832 0.0559,-0.1968 h 1e-4 l 0.005,-0.0513 h -0.6178 l 0.0232,-0.0866 V 94.59 h 1.0322 l 0.0194,0.1966 0.0574,0.1891 0.0931,0.1742 0.1253,0.1527 0.1527,0.1253 0.1742,0.0931 0.1891,0.0574 0.1481,0.0146 0.0485,0.0048 v 0 0 l 0.0448,-0.0045 0.1518,-0.0149 0.189,-0.0574 0.1743,-0.0931 0.1527,-0.1253 0.1253,-0.1527 0.0931,-0.1742 0.0574,-0.1891 0.0194,-0.1966 -0.0194,-0.1966 -0.0574,-0.1891 -0.0931,-0.1742 -0.1253,-0.1527 -0.1527,-0.1253 -0.1743,-0.0931 -0.189,-0.0574 -0.1966,-0.0194 v 0 l -0.1966,0.0194 -0.0823,0.025 -0.1068,0.0324 v 0 0 l -0.0865,0.0462 -0.0877,0.0469 v 0 0 l -0.1527,0.1253 -0.1253,0.1527 v 0 0 l -0.0102,0.0191 -0.0829,0.1551 v 0 0 l -0.0574,0.1891 -0.0194,0.1966 h -1.0322 v -0.0658 l -0.0232,-0.0866 h 0.6178 l -0.005,-0.0513 h -1e-4 l -0.0559,-0.1968 -0.0912,-0.1832 v 0 l -0.1233,-0.1632 v 0 l -0.1512,-0.1379 -0.174,-0.1077 -0.1908,-0.0739 -0.151,-0.0282 v 0.6178 L 152.3269,94.09 h -0.1316 l -0.0866,0.0232 v -0.6178 0 l -0.151,0.0282 -0.1908,0.0739 -0.174,0.1077 -0.1512,0.1379 v 0 l -0.1233,0.1632 v 0 l -0.0912,0.1832 -0.056,0.1968 v 0 l -0.005,0.0513 h -0.3508 l -0.005,-0.0513 h -10e-5 l -0.0559,-0.1968 -0.0912,-0.1832 v 0 l -0.1233,-0.1632 v 0 l -0.1512,-0.1379 -0.174,-0.1077 -0.1908,-0.0739 -0.151,-0.0282 v 0.6178 l -0.086,-0.0232 h -0.1316 l -0.0866,0.0232 v -0.6178 0 l -0.151,0.0282 -0.1908,0.0739 -0.174,0.1077 -0.1512,0.1379 v 0 l -0.1233,0.1632 v 0 l -0.0912,0.1832 -0.056,0.1968 v 0 l -0.005,0.0513 h -0.3508 l -0.005,-0.0513 h -1e-4 l -0.0559,-0.1968 -0.0912,-0.1832 v 0 l -0.1233,-0.1632 v 0 l -0.1512,-0.1379 -0.174,-0.1077 -0.1908,-0.0739 -0.151,-0.0282 v 0.6178 l -0.086,-0.0232 h -0.1316 l -0.0866,0.0232 v -0.6178 0 l -0.151,0.0282 -0.1908,0.0739 -0.174,0.1077 -0.1512,0.1379 v 0 l -0.1233,0.1632 v 0 l -0.0912,0.1832 -0.056,0.1968 v 0 l -0.005,0.0513 h -0.4527 l -0.004,-0.0442 -0.0574,-0.1891 -0.0931,-0.1742 -0.1253,-0.1527 -0.1527,-0.1253 -0.1743,-0.0931 -0.189,-0.0574 -0.1966,-0.0194 v 0 l -0.1966,0.0194 -0.0823,0.025 -0.1068,0.0324 v 0 0 l -0.0865,0.0462 -0.0877,0.0469 v 0 0 l -0.1527,0.1253 -0.1253,0.1527 v 0 0 l -0.0102,0.0191 -0.0829,0.1551 v 0 0 l -0.0574,0.1891 -0.0194,0.1966 h -0.5244 l -0.0194,-0.1966 -0.0574,-0.1891 -0.0931,-0.1742 -0.1253,-0.1527 -0.1527,-0.1253 -0.1742,-0.0931 -0.1891,-0.0574 -0.1966,-0.0194 v 0 l -0.1966,0.0194 -0.0823,0.025 -0.1067,0.0324 h -1e-4 v 0 l -0.0865,0.0462 -0.0877,0.0469 v 0 0 l -0.1527,0.1253 -0.1253,0.1527 v 0 0 l -0.0102,0.0191 -0.0829,0.1551 v 0 0 l -0.0574,0.1891 -0.0194,0.1966 0.0194,0.1966 0.0574,0.1891 0.0931,0.1742 0.1253,0.1527 0.0872,0.0715 0.0179,0.0336 -0.011,0.0365 -0.003,0.0036 -1.693,1.693 -0.0352,0.0146 -0.0352,-0.0146 -1.0711,-1.0711 -0.0146,-0.0352 v -0.8598 l 0.0146,-0.0352 0.0352,-0.0146 0.0352,0.0146 0.006,0.0085 3e-4,-2e-4 0.001,0.0021 v 0 l 0.1253,0.1527 0.1527,0.1253 0.1742,0.0931 0.1891,0.0574 0.1481,0.0146 0.0485,0.0048 v 0 0 l 0.0448,-0.0045 0.1518,-0.0149 0.189,-0.0574 0.1743,-0.0931 0.1527,-0.1253 0.1253,-0.1527 0.0931,-0.1742 0.0574,-0.1891 0.0194,-0.1966 -0.0194,-0.1966 -0.0574,-0.1891 -0.0931,-0.1742 -0.1253,-0.1527 -0.1527,-0.1253 -0.1743,-0.0931 -0.189,-0.0574 -0.1966,-0.0194 v 0 l -0.1966,0.0194 -0.0823,0.025 -0.1068,0.0324 v 0 0 l -0.0865,0.0462 -0.0877,0.0469 v 0 0 l -0.1527,0.1253 -0.1253,0.1527 -0.001,0.0021 -0.001,-8e-4 -0.0262,0.0215 -0.038,-0.0037 -0.0242,-0.0295 -0.002,-0.0144 v -1.3706 l 0.0146,-0.0352 0.0352,-0.0146 0.0352,0.0146 0.006,0.0085 3e-4,-2e-4 0.001,0.0021 v 0 l 0.1253,0.1527 0.1527,0.1253 0.1742,0.0931 0.1891,0.0574 0.1473,0.0145 0.0493,0.0049 v 0 0 l 0.0448,-0.0045 0.1518,-0.0149 0.189,-0.0574 0.1743,-0.0931 0.1527,-0.1253 0.1253,-0.1527 0.0931,-0.1743 0.0574,-0.189 0.0194,-0.1966 -0.0151,-0.1524 h 0.4527 0.6178 l -0.0232,0.0866 v 0.1316 l 0.0232,0.0866 h -0.6178 l 0.005,0.0513 v 0 l 0.056,0.1968 0.0912,0.1832 v 0 l 0.1233,0.1632 v 0 l 0.1512,0.1379 0.174,0.1077 0.1908,0.0739 0.151,0.0282 v 0 -0.6178 l 0.0866,0.0232 h 0.1316 l 0.0866,-0.0232 v 0.6178 l 0.151,-0.0282 0.1908,-0.0739 0.174,-0.1077 0.1512,-0.1379 v 0 l 0.1233,-0.1632 v 0 l 0.0912,-0.1832 0.0559,-0.1968 h 1e-4 l 0.005,-0.0513 h -0.6178 l 0.0232,-0.0866 v -0.1316 l -0.0232,-0.0866 h 0.6178 0.3508 0.6178 l -0.0232,0.0866 v 0.1316 l 0.0232,0.0866 h -0.6178 l 0.005,0.0513 v 0 l 0.056,0.1968 0.0912,0.1832 v 0 l 0.1233,0.1632 v 0 l 0.1512,0.1379 0.174,0.1077 0.1908,0.0739 0.151,0.0282 v 0 -0.6178 l 0.0866,0.0232 h 0.1316 l 0.0866,-0.0232 v 0.6178 l 0.151,-0.0282 0.1908,-0.0739 0.174,-0.1077 0.1512,-0.1379 v 0 l 0.1233,-0.1632 v 0 l 0.0912,-0.1832 0.056,-0.1968 v 0 l 0.005,-0.0513 h -0.6178 l 0.0232,-0.0866 V 92.05 h 1.0322 l 0.0194,0.1966 0.0574,0.189 0.0931,0.1743 0.1253,0.1527 0.1527,0.1253 0.1742,0.0931 0.1891,0.0574 0.1473,0.0145 0.0493,0.0049 v 0 0 l 0.0448,-0.0045 0.1518,-0.0149 0.189,-0.0574 0.1743,-0.0931 0.1527,-0.1253 0.1253,-0.1527 0.0931,-0.1743 0.0574,-0.189 0.0194,-0.1966 h 0.5244 l 0.0194,0.1966 0.0574,0.189 0.0931,0.1743 0.1253,0.1527 0.1527,0.1253 0.1742,0.0931 0.1891,0.0574 0.1473,0.0145 0.0493,0.0049 v 0 0 l 0.0448,-0.0045 0.1518,-0.0149 0.1891,-0.0574 0.1742,-0.0931 0.1527,-0.1253 0.1253,-0.1527 0.0931,-0.1743 0.0574,-0.189 0.0194,-0.1966 h 0.5244 l 0.0194,0.1966 0.0574,0.189 0.0931,0.1743 0.1253,0.1527 0.1527,0.1253 0.1743,0.0931 0.189,0.0574 0.1473,0.0145 0.0493,0.0049 v 0 0 l 0.0448,-0.0045 0.1518,-0.0149 0.189,-0.0574 0.1743,-0.0931 0.1527,-0.1253 0.1253,-0.1527 0.0931,-0.1743 0.0574,-0.189 0.0194,-0.1966 -0.0194,-0.1966 -0.0574,-0.1891 -0.0931,-0.1742 -0.1253,-0.1527 -0.1527,-0.1253 -0.1743,-0.0931 -0.189,-0.0574 -0.1966,-0.0194 v 0 l -0.1966,0.0194 -0.0823,0.025 -0.1067,0.0324 h -1e-4 v 0 l -0.0865,0.0462 -0.0877,0.0469 v 0 0 l -0.1527,0.1253 -0.1253,0.1527 -0.0931,0.1742 v 0 0 l -0.0574,0.1891 -0.0194,0.1966 h -0.5244 l -0.0194,-0.1966 -0.0574,-0.1891 -0.0931,-0.1742 -0.1253,-0.1527 -0.1527,-0.1253 -0.1742,-0.0931 -0.1891,-0.0574 -0.1966,-0.0194 v 0 l -0.1966,0.0194 -0.0823,0.025 -0.1068,0.0324 v 0 0 l -0.0865,0.0462 -0.0877,0.0469 v 0 0 l -0.1527,0.1253 -0.1253,0.1527 -0.0931,0.1742 v 0 0 l -0.0574,0.1891 -0.0194,0.1966 h -0.5244 l -0.0194,-0.1966 -0.0574,-0.1891 -0.0931,-0.1742 -0.1253,-0.1527 -0.1527,-0.1253 -0.1743,-0.0931 -0.189,-0.0574 -0.1966,-0.0194 v 0 l -0.1966,0.0194 -0.0823,0.025 -0.1068,0.0324 v 0 0 l -0.0865,0.0462 -0.0877,0.0469 v 0 0 l -0.1527,0.1253 -0.1253,0.1527 -0.0931,0.1742 v 0 0 l -0.0574,0.1891 -0.0194,0.1966 h -1.0322 v -0.0658 l -0.0232,-0.0866 h 0.6178 l -0.005,-0.0513 v 0 l -0.056,-0.1968 -0.0912,-0.1832 v 0 l -0.1233,-0.1632 v 0 l -0.1512,-0.1379 -0.174,-0.1077 -0.1908,-0.0739 -0.151,-0.0282 v 0.6178 l -0.087,-0.0232 h -0.1316 l -0.0866,0.0232 v -0.6178 0 l -0.151,0.0282 -0.1908,0.0739 -0.174,0.1077 -0.1512,0.1379 v 0 l -0.1233,0.1632 v 0 l -0.0912,0.1832 -0.056,0.1968 v 0 l -0.005,0.0513 h -0.3508 l -0.005,-0.0513 h -1e-4 l -0.0559,-0.1968 -0.0912,-0.1832 v 0 l -0.1233,-0.1632 v 0 l -0.1512,-0.1379 -0.174,-0.1077 -0.1908,-0.0739 -0.151,-0.0282 v 0.6178 l -0.086,-0.0232 h -0.1316 l -0.0866,0.0232 v -0.6178 0 l -0.151,0.0282 -0.1908,0.0739 -0.174,0.1077 -0.1512,0.1379 v 0 l -0.1233,0.1632 v 0 l -0.0912,0.1832 -0.056,0.1968 v 0 l -0.005,0.0513 h -0.4527 l -0.004,-0.0442 -0.0574,-0.1891 -0.0931,-0.1742 -0.1253,-0.1527 -0.1527,-0.1253 -0.1743,-0.0931 -0.189,-0.0574 -0.1966,-0.0194 v 0 l -0.1428,0.0141 -0.0365,-0.0111 -0.018,-0.0336 0.0111,-0.0364 0.003,-0.0036 0.1778,-0.1779 0.0353,-0.0146 h 13.6143 l 0.0352,0.0146 0.5428,0.5428 0.0146,0.0352 v 1.5433 10e-5 l 0.009,0.0446 v 0 l 0.0338,0.0505 v 0 l 0.0505,0.0338 0.0446,0.0089 h 1.7302 l 0.0446,-0.0089 0.0505,-0.0338 0.0338,-0.0505 0.009,-0.0446 v -1.7302 l -0.009,-0.0446 v 0 0 l -0.0338,-0.0505 v 0 l -0.0505,-0.0338 -0.0446,-0.0089 h -1.5034 l -0.0352,-0.0146 -0.643,-0.643 -0.0146,-0.0352 0.0146,-0.0352 0.0352,-0.0146 h 2.7304 l 0.0352,0.0146 0.0146,0.0352 v 33.5914 l -0.0146,0.0352 -0.0352,0.0146 h -29.9993 l -0.0352,-0.0146 -0.0146,-0.0352 v -16.6208 h 2.4971 v 1.7301 10e-5 l 0.009,0.0446 v 0 l 0.0338,0.0505 v 0 l 0.0505,0.0338 0.0446,0.009 h 1.7302 l 0.0446,-0.009 0.0505,-0.0338 0.0338,-0.0505 0.009,-0.0446 v -1.7302 l -0.009,-0.0446 v 0 0 l -0.0338,-0.0505 v 0 l -0.0505,-0.0338 -0.0446,-0.009 v 0 h -1.7302 v 0 l -0.0334,0.007 -0.0112,0.002 v 0 0 l -0.0505,0.0338 v 0 l -0.0338,0.0505 v 0 l -0.009,0.0446 h -2.4971 v -1.8273 h 2.4054 0.6178 l -0.0232,0.0866 v 0.1316 l 0.0232,0.0866 h -0.6178 l 0.005,0.0513 v 0 l 0.056,0.1968 0.0912,0.1832 v 0 l 0.1233,0.1632 v 0 l 0.1512,0.1379 0.174,0.1077 0.1908,0.0739 0.151,0.0282 v 0 -0.6178 l 0.0866,0.0232 h 0.1316 l 0.0866,-0.0232 v 0.6178 l 0.151,-0.0282 0.1908,-0.0739 0.174,-0.1077 0.1512,-0.1379 v 0 l 0.1233,-0.1632 v 0 l 0.0912,-0.1832 0.0559,-0.1968 h 1e-4 l 0.005,-0.0513 h -0.6178 l 0.0232,-0.0866 v -0.1316 l -0.0232,-0.0866 h 0.6178 l -0.005,-0.0513 h -1e-4 l -0.0559,-0.1968 -0.0912,-0.1832 v 0 L 130.556,104.95 h 5.06 v 0 l 0.0196,0.1367 v 0 l 0.0574,0.1256 v 0 l 0.0904,0.1044 v 0 l 0.1162,0.0747 v 0 0 l 0.1325,0.0389 v 0 h 0.1382 v 0 l 0.1325,-0.0389 0.1162,-0.0747 0.003,-0.003 0.0628,-0.0724 0.0247,-0.0286 0.0574,-0.1256 0.0196,-0.1367 -0.0196,-0.1367 -0.0574,-0.1256 v 0 0 0 l -0.0904,-0.1044 v 0 l -0.1162,-0.0747 v 0 0 l -0.1325,-0.0389 h -0.1382 l -0.1325,0.0389 v 0 0 l -0.1162,0.0747 v 0 l -0.0904,0.1044 v 0 l -0.0574,0.1256 v 0 l -0.0196,0.1367 h -5.06 l -0.0354,-0.0469 v 0 l -0.1512,-0.1379 -0.174,-0.1077 -0.1908,-0.0739 -0.151,-0.0282 v 0.6178 l -0.0866,-0.0232 h -0.1316 l -0.0866,0.0232 v -0.6178 0 l -0.151,0.0282 -0.1908,0.0739 -0.174,0.1077 -0.1512,0.1379 v 0 l -0.1233,0.1632 v 0 l -0.0912,0.1832 -0.056,0.1968 v 0 l -0.005,0.0513 h -2.4054 v -1.8594 h 14.9265 v 0 l 0.0197,0.1367 v 0 l 0.0574,0.1257 v 0 l 0.0904,0.1043 v 10e-5 l 0.1162,0.0746 v 0 0 l 0.1325,0.0389 v 0 h 0.1381 v 0 l 0.1325,-0.0389 0.1162,-0.0746 0.0905,-0.1044 0.0574,-0.1257 0.0196,-0.1367 -0.0196,-0.1367 -0.0574,-0.1256 v 0 0 0 l -0.0905,-0.1044 v 0 l -0.1162,-0.0747 v 0 0 l -0.1325,-0.0389 h -0.1381 l -0.1325,0.0389 v 0 0 l -0.1162,0.0747 v 0 l -0.0904,0.1044 v 0 l -0.0574,0.1256 v 0 l -0.0197,0.1367 H 126.2011 V 94.59 h 4.7322 l 0.0194,0.1966 0.0574,0.1891 0.0931,0.1742 0.1253,0.1527 0.1527,0.1253 0.1743,0.0931 0.189,0.0574 0.1481,0.0146 0.0485,0.0048 v 0 0 l 0.0448,-0.0045 0.1518,-0.0149 0.1891,-0.0574 0.1742,-0.0931 0.1527,-0.1253 0.1253,-0.1527 0.0931,-0.1742 0.0574,-0.1891 0.0194,-0.1966 -0.0194,-0.1966 -0.0574,-0.1891 -0.0931,-0.1742 -0.1253,-0.1527 -0.1527,-0.1253 -0.1742,-0.0931 -0.1891,-0.0574 -0.1966,-0.0194 v 0 l -0.1966,0.0194 -0.0823,0.025 -0.1067,0.0324 h -1e-4 v 0 l -0.0865,0.0462 -0.0877,0.0469 v 0 0 l -0.1527,0.1253 -0.1253,0.1527 v 0 0 l -0.0102,0.0191 -0.0829,0.1551 v 0 0 l -0.0574,0.1891 -0.0194,0.1966 h -4.7322 v -2.6924 h 4.6454 0.6178 l -0.0232,0.0866 v 0.1316 l 0.0232,0.0866 h -0.6178 l 0.005,0.0513 v 0 l 0.056,0.1968 0.0912,0.1832 v 0 l 0.1233,0.1632 v 0 l 0.1512,0.1379 0.174,0.1077 0.1908,0.0739 0.151,0.0282 v 0 -0.6178 l 0.0866,0.0232 h 0.1316 l 0.0866,-0.0232 v 0.6178 l 0.151,-0.0282 0.1908,-0.0739 0.174,-0.1077 0.1512,-0.1379 v 0 l 0.1233,-0.1632 v 0 l 0.0912,-0.1832 0.0559,-0.1968 h 10e-5 l 0.005,-0.0513 h -0.6178 l 0.0232,-0.0866 v -0.1316 l -0.0232,-0.0866 h 0.6178 l -0.005,-0.0513 h -10e-5 l -0.0559,-0.1968 -0.0912,-0.1832 v 0 l -0.1233,-0.1632 v 0 l -0.1512,-0.1379 -0.174,-0.1077 -0.1908,-0.0739 -0.151,-0.0282 v 0.6178 L 132.0069,91.55 h -0.1316 l -0.0866,0.0232 v -0.6178 0 l -0.151,0.0282 -0.1908,0.0739 -0.174,0.1077 -0.1512,0.1379 v 0 l -0.1233,0.1632 v 0 l -0.0912,0.1832 -0.056,0.1968 v 0 l -0.005,0.0513 h -4.6454 v -1.5433 l 0.0146,-0.0352 0.0352,-0.0146 h 13.0261 z"
       id="path972" />
    <path
       style="fill:#4d7fc4;fill-opacity:1;fill-rule:evenodd;stroke:none"
       d="m 148.986,109.4589 1.7214,1.7214 0.0146,0.0352 v 0.5336 l -0.0146,0.0352 -0.008,0.007 -0.0658,0.0423 -0.0904,0.1044 v 0 l -0.0574,0.1256 v 0 l -0.0196,0.1367 v 0 l 0.0196,0.1367 v 0 l 0.0574,0.1256 0.0904,0.1044 v 0 l 0.1162,0.0747 v 0 0 l 0.1325,0.0389 v 0 h 0.1382 v 0 l 0.1325,-0.0389 0.1162,-0.0747 0.0118,-0.0136 0.0786,-0.0908 0.0192,-0.0421 0.0382,-0.0835 0.006,-0.0433 0.0195,-0.0328 0.0369,-0.009 0.0328,0.0195 0.01,0.0298 v 5.3588 l 0.0368,0.0887 -0.002,0.001 0.006,0.0283 -0.0212,0.0317 -0.0374,0.007 -0.0254,-0.0136 -1.6852,-1.6852 -2.0479,-2.0479 -0.0146,-0.0352 v -4.2226 l -0.0144,-0.0348 v -1e-4 l -0.009,-0.0219 v -0.0381 l 0.0269,-0.0269 0.005,-0.002 0.1081,-0.0317 0.1162,-0.0747 0.0904,-0.1044 0.002,-0.004 0.0279,-0.026 0.0174,-0.003 h 0.8503 z"
       id="path974" />
    <path
       style="fill:#4d7fc4;fill-opacity:1;fill-rule:evenodd;stroke:none"
       d="m 142.7682,107.0553 0.004,0.019 v 0.0213 l 0.0349,0.0842 1.5333,1.5333 0.0146,0.0352 -0.0122,0.0326 -0.0667,0.077 -0.0574,0.1256 v 0 l -0.0196,0.1367 v 0 l 0.0196,0.1367 v 0 l 0.0574,0.1256 v 0 l 0.0904,0.1044 v 0 l 0.1162,0.0747 v 0 0 l 0.1325,0.0389 v 0 h 0.1382 v 0 l 0.1325,-0.0389 0.1162,-0.0747 0.0904,-0.1044 0.0574,-0.1256 0.0183,-0.1274 10e-4,-0.009 v 0 l -0.009,-0.0651 -0.0103,-0.0716 -0.0121,-0.0265 -0.0199,-0.0435 -0.005,-0.0207 v -0.0182 0 l -0.0368,-0.0887 0.001,-5e-4 -0.006,-0.0315 0.0212,-0.0317 0.0373,-0.007 0.0255,0.0136 1.7019,1.7019 0.0146,0.0352 v 5.2301 l 0.003,0.008 0.006,0.0146 v 0 l 0.0257,0.0621 1.2613,1.2613 0.0145,0.0352 -0.0145,0.0352 -0.0212,0.0126 -0.0915,0.0268 v 0 l -0.1162,0.0747 v 0 l -0.0125,0.0144 -0.034,0.0171 -0.0362,-0.0121 -0.003,-0.002 -1.49,-1.49 -0.0596,-0.0247 -0.0246,-0.0102 v 0 h -5.8233 l -0.0352,-0.0146 -0.0101,-0.0145 -0.002,-0.004 -0.0408,-0.0471 -0.0496,-0.0573 v 0 l -0.1162,-0.0747 v 0 0 l -0.1325,-0.0389 h -0.1382 l -0.1325,0.0389 v 0 0 l -0.1162,0.0747 v 0 l -0.0904,0.1044 v 0 l -0.0574,0.1256 v 0 l -0.0196,0.1367 v 0 l 0.0192,0.1339 -0.009,0.0369 -0.0328,0.0195 -0.034,-0.007 -0.0558,-0.0359 -0.0218,-0.0313 -10e-4,-0.0106 v -0.9913 h 4.1857 v 0 l 0.0196,0.1367 v 0 l 0.0574,0.1256 v 0 l 0.0904,0.1044 v 0 l 0.1162,0.0747 v 0 0 l 0.1325,0.0389 v 0 h 0.1382 v 0 l 0.1325,-0.0389 0.1162,-0.0747 0.003,-0.004 0.0871,-0.1006 v 0 0 0 l 0.0574,-0.1256 0.0196,-0.1367 -0.002,-0.0142 -0.0153,-0.1066 -0.002,-0.0159 -0.0574,-0.1256 v 0 0 0 l -0.0904,-0.1044 v 0 l -0.1162,-0.0747 v 0 0 l -0.1325,-0.0389 h -0.1382 l -0.1325,0.0389 v 0 0 l -0.1162,0.0747 v 0 l -0.0904,0.1044 v 0 l -0.0574,0.1256 v 0 l -0.0196,0.1367 h -4.1857 v -1.7951 l 0.0146,-0.0352 0.1329,-0.1329 0.31,-0.31 0.0349,-0.0842 V 112.612 111.8 h 3.1933 v 0 l 0.0196,0.1367 v 0 l 0.0574,0.1256 v 0 l 0.0904,0.1044 v 0 l 0.1162,0.0747 v 0 0 l 0.1325,0.0389 v 0 h 0.1382 v 0 l 0.1325,-0.0389 0.1162,-0.0747 0.0904,-0.1044 0.0574,-0.1256 0.0196,-0.1367 -0.0196,-0.1367 -0.0574,-0.1256 v 0 0 0 l -0.0904,-0.1044 v 0 l -0.1162,-0.0747 v 0 0 l -0.1325,-0.0389 h -0.1382 l -0.1325,0.0389 v 0 0 l -0.1162,0.0747 v 0 l -0.0904,0.1044 v 0 l -0.0574,0.1256 v 0 l -0.0196,0.1367 h -3.1933 v -1.294 h 4.2433 v 0 l 0.0196,0.1367 v 0 l 0.0574,0.1256 v 0 l 0.0904,0.1044 v 0 l 0.1162,0.0747 v 0 0 l 0.1325,0.0389 v 0 h 0.1382 v 0 l 0.1325,-0.0389 0.1162,-0.0747 0.0904,-0.1044 0.0574,-0.1256 0.0196,-0.1367 -0.006,-0.0405 -7e-4,-0.005 -0.0131,-0.0911 -0.0574,-0.1256 v 0 0 0 l -0.0904,-0.1044 v 0 l -0.1162,-0.0747 v 0 0 l -0.1325,-0.0389 h -0.1382 l -0.1325,0.0389 v 0 0 l -0.1162,0.0747 v 0 l -0.0904,0.1044 v 0 l -0.0574,0.1256 v 0 l -0.0196,0.1367 h -4.2433 v -2.4329 l 0.0146,-0.0352 0.3942,-0.3942 0.0352,-0.0146 h 1.7801 v 0 0 l 0.0404,-0.0168 0.0438,-0.0181 0.4644,-0.4644 0.0142,-0.0342 0.0167,-0.0404 0.0269,-0.0269 h 0.0382 z"
       id="path976" />
  </g>
</svg>
