<?xml version="1.0" encoding="UTF-8" standalone="no"?>
<svg
   version="1.1"
   width="30.0989mm"
   height="33.691002mm"
   viewBox="0 0 30.0989 33.691002"
   id="svg11011"
   sodipodi:docname="max2771_fx2lp-In1_Cu.svg"
   inkscape:version="1.2.2 (b0a8486541, 2022-12-01)"
   xmlns:inkscape="http://www.inkscape.org/namespaces/inkscape"
   xmlns:sodipodi="http://sodipodi.sourceforge.net/DTD/sodipodi-0.dtd"
   xmlns="http://www.w3.org/2000/svg"
   xmlns:svg="http://www.w3.org/2000/svg">
  <defs
     id="defs11015" />
  <sodipodi:namedview
     id="namedview11013"
     pagecolor="#ffffff"
     bordercolor="#000000"
     borderopacity="0.25"
     inkscape:showpageshadow="2"
     inkscape:pageopacity="0.0"
     inkscape:pagecheckerboard="0"
     inkscape:deskcolor="#d1d1d1"
     inkscape:document-units="mm"
     showgrid="false"
     inkscape:zoom="0.29733107"
     inkscape:cx="-68.946713"
     inkscape:cy="57.175323"
     inkscape:window-width="1024"
     inkscape:window-height="723"
     inkscape:window-x="-5"
     inkscape:window-y="-5"
     inkscape:window-maximized="1"
     inkscape:current-layer="svg11011" />
  <title
     id="title10351">SVG Image created as max2771_fx2lp-In1_Cu.svg date 2024/06/13 14:42:13 </title>
  <desc
     id="desc10353">Image generated by PCBNEW </desc>
  <g
     style="fill:#000000;fill-opacity:1;stroke:#000000;stroke-linecap:round;stroke-linejoin:round;stroke-opacity:1"
     id="g10357"
     transform="translate(-126.2011,-90.3045)">
    <path
       style="fill:#7fc87f;fill-opacity:1;fill-rule:evenodd;stroke:none"
       d="m 153.9111,121.7 h 1.7 v 1.7 h -1.7 z"
       id="path10355" />
  </g>
  <g
     style="fill:#7fc87f;fill-opacity:1;stroke:none"
     id="g10403"
     transform="translate(-126.2011,-90.3045)">
    <circle
       cx="154.76109"
       cy="120.01"
       r="0.85000002"
       id="circle10359" />
    <circle
       cx="152.2211"
       cy="122.55"
       r="0.85000002"
       id="circle10361" />
    <circle
       cx="152.2211"
       cy="120.01"
       r="0.85000002"
       id="circle10363" />
    <circle
       cx="149.68111"
       cy="122.55"
       r="0.85000002"
       id="circle10365" />
    <circle
       cx="149.68111"
       cy="120.01"
       r="0.85000002"
       id="circle10367" />
    <circle
       cx="147.1411"
       cy="122.55"
       r="0.85000002"
       id="circle10369" />
    <circle
       cx="147.1411"
       cy="120.01"
       r="0.85000002"
       id="circle10371" />
    <circle
       cx="144.6011"
       cy="122.55"
       r="0.85000002"
       id="circle10373" />
    <circle
       cx="144.6011"
       cy="120.01"
       r="0.85000002"
       id="circle10375" />
    <circle
       cx="142.0611"
       cy="122.55"
       r="0.85000002"
       id="circle10377" />
    <circle
       cx="142.0611"
       cy="120.01"
       r="0.85000002"
       id="circle10379" />
    <circle
       cx="139.5211"
       cy="122.55"
       r="0.85000002"
       id="circle10381" />
    <circle
       cx="139.5211"
       cy="120.01"
       r="0.85000002"
       id="circle10383" />
    <circle
       cx="136.98109"
       cy="122.55"
       r="0.85000002"
       id="circle10385" />
    <circle
       cx="136.98109"
       cy="120.01"
       r="0.85000002"
       id="circle10387" />
    <circle
       cx="134.4411"
       cy="122.55"
       r="0.85000002"
       id="circle10389" />
    <circle
       cx="134.4411"
       cy="120.01"
       r="0.85000002"
       id="circle10391" />
    <circle
       cx="131.90109"
       cy="122.55"
       r="0.85000002"
       id="circle10393" />
    <circle
       cx="131.90109"
       cy="120.01"
       r="0.85000002"
       id="circle10395" />
    <path
       style="fill:#7fc87f;fill-opacity:1;fill-rule:evenodd;stroke:none"
       d="m 130.5511,107.34 v 1.7 h -1.7 v -1.7 z"
       id="path10397" />
    <circle
       cx="129.7011"
       cy="105.65"
       r="0.85000002"
       id="circle10399" />
    <circle
       cx="139.5011"
       cy="103.65"
       r="0.42899999"
       id="circle10401" />
  </g>
  <g
     style="fill:#7fc87f;fill-opacity:1;stroke:none"
     id="g10407"
     transform="translate(-126.2011,-90.3045)">
    <circle
       cx="139.5011"
       cy="102.55"
       r="0.42899999"
       id="circle10405" />
  </g>
  <g
     style="fill:#7fc87f;fill-opacity:1;stroke:none"
     id="g10411"
     transform="translate(-126.2011,-90.3045)">
    <circle
       cx="139.5011"
       cy="101.45"
       r="0.42899999"
       id="circle10409" />
  </g>
  <g
     style="fill:#7fc87f;fill-opacity:1;stroke:none"
     id="g10415"
     transform="translate(-126.2011,-90.3045)">
    <circle
       cx="138.40109"
       cy="103.65"
       r="0.42899999"
       id="circle10413" />
  </g>
  <g
     style="fill:#7fc87f;fill-opacity:1;stroke:none"
     id="g10419"
     transform="translate(-126.2011,-90.3045)">
    <circle
       cx="138.40109"
       cy="102.55"
       r="0.42899999"
       id="circle10417" />
  </g>
  <g
     style="fill:#7fc87f;fill-opacity:1;stroke:none"
     id="g10423"
     transform="translate(-126.2011,-90.3045)">
    <circle
       cx="138.40109"
       cy="101.45"
       r="0.42899999"
       id="circle10421" />
  </g>
  <g
     style="fill:#7fc87f;fill-opacity:1;stroke:none"
     id="g10427"
     transform="translate(-126.2011,-90.3045)">
    <circle
       cx="137.3011"
       cy="103.65"
       r="0.42899999"
       id="circle10425" />
  </g>
  <g
     style="fill:#7fc87f;fill-opacity:1;stroke:none"
     id="g10431"
     transform="translate(-126.2011,-90.3045)">
    <circle
       cx="137.3011"
       cy="102.55"
       r="0.42899999"
       id="circle10429" />
  </g>
  <g
     style="fill:#7fc87f;fill-opacity:1;stroke:none"
     id="g10435"
     transform="translate(-126.2011,-90.3045)">
    <circle
       cx="137.3011"
       cy="101.45"
       r="0.42899999"
       id="circle10433" />
  </g>
  <g
     style="fill:#7fc87f;fill-opacity:1;stroke:none"
     id="g10439"
     transform="translate(-126.2011,-90.3045)">
    <circle
       cx="142.5011"
       cy="110.55"
       r="0.42899999"
       id="circle10437" />
  </g>
  <g
     style="fill:#7fc87f;fill-opacity:1;stroke:none"
     id="g10443"
     transform="translate(-126.2011,-90.3045)">
    <circle
       cx="142.5011"
       cy="109.45"
       r="0.42899999"
       id="circle10441" />
  </g>
  <g
     style="fill:#7fc87f;fill-opacity:1;stroke:none"
     id="g10447"
     transform="translate(-126.2011,-90.3045)">
    <circle
       cx="142.5011"
       cy="108.35"
       r="0.42899999"
       id="circle10445" />
  </g>
  <g
     style="fill:#7fc87f;fill-opacity:1;stroke:none"
     id="g10451"
     transform="translate(-126.2011,-90.3045)">
    <circle
       cx="141.40109"
       cy="110.55"
       r="0.42899999"
       id="circle10449" />
  </g>
  <g
     style="fill:#7fc87f;fill-opacity:1;stroke:none"
     id="g10455"
     transform="translate(-126.2011,-90.3045)">
    <circle
       cx="141.40109"
       cy="109.45"
       r="0.42899999"
       id="circle10453" />
  </g>
  <g
     style="fill:#7fc87f;fill-opacity:1;stroke:none"
     id="g10459"
     transform="translate(-126.2011,-90.3045)">
    <circle
       cx="141.40109"
       cy="108.35"
       r="0.42899999"
       id="circle10457" />
  </g>
  <g
     style="fill:#7fc87f;fill-opacity:1;stroke:none"
     id="g10463"
     transform="translate(-126.2011,-90.3045)">
    <circle
       cx="140.3011"
       cy="110.55"
       r="0.42899999"
       id="circle10461" />
  </g>
  <g
     style="fill:#7fc87f;fill-opacity:1;stroke:none"
     id="g10467"
     transform="translate(-126.2011,-90.3045)">
    <circle
       cx="140.3011"
       cy="109.45"
       r="0.42899999"
       id="circle10465" />
  </g>
  <g
     style="fill:#7fc87f;fill-opacity:1;stroke:none"
     id="g10473"
     transform="translate(-126.2011,-90.3045)">
    <circle
       cx="140.3011"
       cy="108.35"
       r="0.42899999"
       id="circle10469" />
    <path
       style="fill:#7fc87f;fill-opacity:1;fill-rule:evenodd;stroke:none"
       d="m 153.9311,93.7 h 1.7 v 1.7 h -1.7 z"
       id="path10471" />
  </g>
  <g
     style="fill:#7fc87f;fill-opacity:1;stroke:none"
     id="g10523"
     transform="translate(-126.2011,-90.3045)">
    <circle
       cx="154.7811"
       cy="92.010002"
       r="0.85000002"
       id="circle10475" />
    <circle
       cx="152.2411"
       cy="94.550003"
       r="0.85000002"
       id="circle10477" />
    <circle
       cx="152.2411"
       cy="92.010002"
       r="0.85000002"
       id="circle10479" />
    <circle
       cx="149.7011"
       cy="94.550003"
       r="0.85000002"
       id="circle10481" />
    <circle
       cx="149.7011"
       cy="92.010002"
       r="0.85000002"
       id="circle10483" />
    <circle
       cx="147.1611"
       cy="94.550003"
       r="0.85000002"
       id="circle10485" />
    <circle
       cx="147.1611"
       cy="92.010002"
       r="0.85000002"
       id="circle10487" />
    <circle
       cx="144.62109"
       cy="94.550003"
       r="0.85000002"
       id="circle10489" />
    <circle
       cx="144.62109"
       cy="92.010002"
       r="0.85000002"
       id="circle10491" />
    <circle
       cx="142.0811"
       cy="94.550003"
       r="0.85000002"
       id="circle10493" />
    <circle
       cx="142.0811"
       cy="92.010002"
       r="0.85000002"
       id="circle10495" />
    <circle
       cx="139.54111"
       cy="94.550003"
       r="0.85000002"
       id="circle10497" />
    <circle
       cx="139.54111"
       cy="92.010002"
       r="0.85000002"
       id="circle10499" />
    <circle
       cx="137.0011"
       cy="94.550003"
       r="0.85000002"
       id="circle10501" />
    <circle
       cx="137.0011"
       cy="92.010002"
       r="0.85000002"
       id="circle10503" />
    <circle
       cx="134.46111"
       cy="94.550003"
       r="0.85000002"
       id="circle10505" />
    <circle
       cx="134.46111"
       cy="92.010002"
       r="0.85000002"
       id="circle10507" />
    <circle
       cx="131.9211"
       cy="94.550003"
       r="0.85000002"
       id="circle10509" />
    <circle
       cx="131.9211"
       cy="92.010002"
       r="0.85000002"
       id="circle10511" />
    <path
       style="fill:#7fc87f;fill-opacity:1;fill-rule:evenodd;stroke:none"
       d="m 153.4011,107.04 v -1.7 h 1.7 v 1.7 z"
       id="path10513" />
    <circle
       cx="154.2511"
       cy="108.73"
       r="0.85000002"
       id="circle10515" />
    <circle
       cx="154.2511"
       cy="111.27"
       r="0.85000002"
       id="circle10517" />
    <circle
       cx="154.2511"
       cy="113.81"
       r="0.85000002"
       id="circle10519" />
    <circle
       cx="154.2511"
       cy="116.35"
       r="0.85000002"
       id="circle10521" />
  </g>
  <g
     style="fill:#ececec;fill-opacity:1;stroke:none"
     id="g10527"
     transform="translate(-126.2011,-90.3045)">
    <circle
       cx="133.7011"
       cy="107.65"
       r="0.3274"
       id="circle10525" />
  </g>
  <g
     style="fill:#ececec;fill-opacity:1;stroke:none"
     id="g10531"
     transform="translate(-126.2011,-90.3045)">
    <circle
       cx="134.5011"
       cy="109"
       r="0.3274"
       id="circle10529" />
  </g>
  <g
     style="fill:#ececec;fill-opacity:1;stroke:none"
     id="g10535"
     transform="translate(-126.2011,-90.3045)">
    <circle
       cx="133.6011"
       cy="104.25"
       r="0.3274"
       id="circle10533" />
  </g>
  <g
     style="fill:#ececec;fill-opacity:1;stroke:none"
     id="g10539"
     transform="translate(-126.2011,-90.3045)">
    <circle
       cx="132.3011"
       cy="100.85"
       r="0.3274"
       id="circle10537" />
  </g>
  <g
     style="fill:#ececec;fill-opacity:1;stroke:none"
     id="g10543"
     transform="translate(-126.2011,-90.3045)">
    <circle
       cx="130.8011"
       cy="117.85"
       r="0.3274"
       id="circle10541" />
  </g>
  <g
     style="fill:#ececec;fill-opacity:1;stroke:none"
     id="g10547"
     transform="translate(-126.2011,-90.3045)">
    <circle
       cx="134.90109"
       cy="115.4"
       r="0.3274"
       id="circle10545" />
  </g>
  <g
     style="fill:#ececec;fill-opacity:1;stroke:none"
     id="g10551"
     transform="translate(-126.2011,-90.3045)">
    <circle
       cx="136.15109"
       cy="109.05"
       r="0.3274"
       id="circle10549" />
  </g>
  <g
     style="fill:#ececec;fill-opacity:1;stroke:none"
     id="g10555"
     transform="translate(-126.2011,-90.3045)">
    <circle
       cx="132.3407"
       cy="117.0673"
       r="0.3274"
       id="circle10553" />
  </g>
  <g
     style="fill:#ececec;fill-opacity:1;stroke:none"
     id="g10559"
     transform="translate(-126.2011,-90.3045)">
    <circle
       cx="139.90109"
       cy="114.05"
       r="0.3274"
       id="circle10557" />
  </g>
  <g
     style="fill:#ececec;fill-opacity:1;stroke:none"
     id="g10563"
     transform="translate(-126.2011,-90.3045)">
    <circle
       cx="132.40109"
       cy="109.95"
       r="0.3274"
       id="circle10561" />
  </g>
  <g
     style="fill:#ececec;fill-opacity:1;stroke:none"
     id="g10567"
     transform="translate(-126.2011,-90.3045)">
    <circle
       cx="143.8511"
       cy="98.900002"
       r="0.3274"
       id="circle10565" />
  </g>
  <g
     style="fill:#ececec;fill-opacity:1;stroke:none"
     id="g10571"
     transform="translate(-126.2011,-90.3045)">
    <circle
       cx="132.3727"
       cy="117.9634"
       r="0.3274"
       id="circle10569" />
  </g>
  <g
     style="fill:#ececec;fill-opacity:1;stroke:none"
     id="g10575"
     transform="translate(-126.2011,-90.3045)">
    <circle
       cx="134.5011"
       cy="108.15"
       r="0.3274"
       id="circle10573" />
  </g>
  <g
     style="fill:#ececec;fill-opacity:1;stroke:none"
     id="g10579"
     transform="translate(-126.2011,-90.3045)">
    <circle
       cx="130.7011"
       cy="100.85"
       r="0.3274"
       id="circle10577" />
  </g>
  <g
     style="fill:#ececec;fill-opacity:1;stroke:none"
     id="g10583"
     transform="translate(-126.2011,-90.3045)">
    <circle
       cx="150.40109"
       cy="107.15"
       r="0.3274"
       id="circle10581" />
  </g>
  <g
     style="fill:#ececec;fill-opacity:1;stroke:none"
     id="g10587"
     transform="translate(-126.2011,-90.3045)">
    <circle
       cx="133.5011"
       cy="115.85"
       r="0.3274"
       id="circle10585" />
  </g>
  <g
     style="fill:#ececec;fill-opacity:1;stroke:none"
     id="g10591"
     transform="translate(-126.2011,-90.3045)">
    <circle
       cx="141.2011"
       cy="98.349998"
       r="0.3274"
       id="circle10589" />
  </g>
  <g
     style="fill:#ececec;fill-opacity:1;stroke:none"
     id="g10595"
     transform="translate(-126.2011,-90.3045)">
    <circle
       cx="136.40331"
       cy="107.2502"
       r="0.3274"
       id="circle10593" />
  </g>
  <g
     style="fill:#ececec;fill-opacity:1;stroke:none"
     id="g10599"
     transform="translate(-126.2011,-90.3045)">
    <circle
       cx="130.90109"
       cy="113.95"
       r="0.3274"
       id="circle10597" />
  </g>
  <g
     style="fill:#ececec;fill-opacity:1;stroke:none"
     id="g10603"
     transform="translate(-126.2011,-90.3045)">
    <circle
       cx="148.5649"
       cy="114.1"
       r="0.3274"
       id="circle10601" />
  </g>
  <g
     style="fill:#ececec;fill-opacity:1;stroke:none"
     id="g10607"
     transform="translate(-126.2011,-90.3045)">
    <circle
       cx="132.3011"
       cy="96.75"
       r="0.3274"
       id="circle10605" />
  </g>
  <g
     style="fill:#ececec;fill-opacity:1;stroke:none"
     id="g10611"
     transform="translate(-126.2011,-90.3045)">
    <circle
       cx="127.7011"
       cy="118.65"
       r="0.3274"
       id="circle10609" />
  </g>
  <g
     style="fill:#ececec;fill-opacity:1;stroke:none"
     id="g10615"
     transform="translate(-126.2011,-90.3045)">
    <circle
       cx="130.90109"
       cy="113.05"
       r="0.3274"
       id="circle10613" />
  </g>
  <g
     style="fill:#ececec;fill-opacity:1;stroke:none"
     id="g10619"
     transform="translate(-126.2011,-90.3045)">
    <circle
       cx="135.2511"
       cy="112.95"
       r="0.3274"
       id="circle10617" />
  </g>
  <g
     style="fill:#ececec;fill-opacity:1;stroke:none"
     id="g10623"
     transform="translate(-126.2011,-90.3045)">
    <circle
       cx="131.7011"
       cy="110.45"
       r="0.3274"
       id="circle10621" />
  </g>
  <g
     style="fill:#ececec;fill-opacity:1;stroke:none"
     id="g10627"
     transform="translate(-126.2011,-90.3045)">
    <circle
       cx="130.7213"
       cy="96.75"
       r="0.3274"
       id="circle10625" />
  </g>
  <g
     style="fill:#ececec;fill-opacity:1;stroke:none"
     id="g10631"
     transform="translate(-126.2011,-90.3045)">
    <circle
       cx="132.3011"
       cy="98.349998"
       r="0.3274"
       id="circle10629" />
  </g>
  <g
     style="fill:#ececec;fill-opacity:1;stroke:none"
     id="g10635"
     transform="translate(-126.2011,-90.3045)">
    <circle
       cx="130.7011"
       cy="101.85"
       r="0.3274"
       id="circle10633" />
  </g>
  <g
     style="fill:#ececec;fill-opacity:1;stroke:none"
     id="g10639"
     transform="translate(-126.2011,-90.3045)">
    <circle
       cx="148.5649"
       cy="110.55"
       r="0.3274"
       id="circle10637" />
  </g>
  <g
     style="fill:#ececec;fill-opacity:1;stroke:none"
     id="g10643"
     transform="translate(-126.2011,-90.3045)">
    <circle
       cx="130.7011"
       cy="98.349998"
       r="0.3274"
       id="circle10641" />
  </g>
  <g
     style="fill:#ececec;fill-opacity:1;stroke:none"
     id="g10647"
     transform="translate(-126.2011,-90.3045)">
    <circle
       cx="148.4511"
       cy="104.45"
       r="0.3274"
       id="circle10645" />
  </g>
  <g
     style="fill:#ececec;fill-opacity:1;stroke:none"
     id="g10651"
     transform="translate(-126.2011,-90.3045)">
    <circle
       cx="146.2011"
       cy="113.85"
       r="0.3274"
       id="circle10649" />
  </g>
  <g
     style="fill:#ececec;fill-opacity:1;stroke:none"
     id="g10655"
     transform="translate(-126.2011,-90.3045)">
    <circle
       cx="148.5649"
       cy="113.182"
       r="0.3274"
       id="circle10653" />
  </g>
  <g
     style="fill:#ececec;fill-opacity:1;stroke:none"
     id="g10659"
     transform="translate(-126.2011,-90.3045)">
    <circle
       cx="146.7011"
       cy="97.800003"
       r="0.3274"
       id="circle10657" />
  </g>
  <g
     style="fill:#ececec;fill-opacity:1;stroke:none"
     id="g10663"
     transform="translate(-126.2011,-90.3045)">
    <circle
       cx="133.6011"
       cy="105.05"
       r="0.3274"
       id="circle10661" />
  </g>
  <g
     style="fill:#ececec;fill-opacity:1;stroke:none"
     id="g10667"
     transform="translate(-126.2011,-90.3045)">
    <circle
       cx="133.7011"
       cy="106.75"
       r="0.3274"
       id="circle10665" />
  </g>
  <g
     style="fill:#ececec;fill-opacity:1;stroke:none"
     id="g10671"
     transform="translate(-126.2011,-90.3045)">
    <circle
       cx="146.2011"
       cy="112.85"
       r="0.3274"
       id="circle10669" />
  </g>
  <g
     style="fill:#ececec;fill-opacity:1;stroke:none"
     id="g10675"
     transform="translate(-126.2011,-90.3045)">
    <circle
       cx="133.3511"
       cy="112.75"
       r="0.3274"
       id="circle10673" />
  </g>
  <g
     style="fill:#ececec;fill-opacity:1;stroke:none"
     id="g10679"
     transform="translate(-126.2011,-90.3045)">
    <circle
       cx="131.8011"
       cy="104.25"
       r="0.3274"
       id="circle10677" />
  </g>
  <g
     style="fill:#ececec;fill-opacity:1;stroke:none"
     id="g10683"
     transform="translate(-126.2011,-90.3045)">
    <circle
       cx="145.6011"
       cy="104.45"
       r="0.3274"
       id="circle10681" />
  </g>
  <g
     style="fill:#ececec;fill-opacity:1;stroke:none"
     id="g10687"
     transform="translate(-126.2011,-90.3045)">
    <circle
       cx="133.8011"
       cy="109.25"
       r="0.3274"
       id="circle10685" />
  </g>
  <g
     style="fill:#ececec;fill-opacity:1;stroke:none"
     id="g10691"
     transform="translate(-126.2011,-90.3045)">
    <circle
       cx="145.7511"
       cy="97.800003"
       r="0.3274"
       id="circle10689" />
  </g>
  <g
     style="fill:#ececec;fill-opacity:1;stroke:none"
     id="g10695"
     transform="translate(-126.2011,-90.3045)">
    <circle
       cx="147.2011"
       cy="104.45"
       r="0.3274"
       id="circle10693" />
  </g>
  <g
     style="fill:#ececec;fill-opacity:1;stroke:none"
     id="g10699"
     transform="translate(-126.2011,-90.3045)">
    <circle
       cx="130.7011"
       cy="97.550003"
       r="0.3274"
       id="circle10697" />
  </g>
  <g
     style="fill:#ececec;fill-opacity:1;stroke:none"
     id="g10703"
     transform="translate(-126.2011,-90.3045)">
    <circle
       cx="132.3011"
       cy="97.550003"
       r="0.3274"
       id="circle10701" />
  </g>
  <g
     style="fill:#ececec;fill-opacity:1;stroke:none"
     id="g10707"
     transform="translate(-126.2011,-90.3045)">
    <circle
       cx="132.3161"
       cy="112.0544"
       r="0.3274"
       id="circle10705" />
  </g>
  <g
     style="fill:#ececec;fill-opacity:1;stroke:none"
     id="g10711"
     transform="translate(-126.2011,-90.3045)">
    <circle
       cx="136.44099"
       cy="106.2313"
       r="0.3274"
       id="circle10709" />
  </g>
  <g
     style="fill:#ececec;fill-opacity:1;stroke:none"
     id="g10715"
     transform="translate(-126.2011,-90.3045)">
    <circle
       cx="143.3011"
       cy="97.800003"
       r="0.3274"
       id="circle10713" />
  </g>
  <g
     style="fill:#ececec;fill-opacity:1;stroke:none"
     id="g10719"
     transform="translate(-126.2011,-90.3045)">
    <circle
       cx="135.7511"
       cy="114.1"
       r="0.3274"
       id="circle10717" />
  </g>
  <g
     style="fill:#ececec;fill-opacity:1;stroke:none"
     id="g10723"
     transform="translate(-126.2011,-90.3045)">
    <circle
       cx="130.8011"
       cy="117.05"
       r="0.3274"
       id="circle10721" />
  </g>
  <g
     style="fill:#ececec;fill-opacity:1;stroke:none"
     id="g10727"
     transform="translate(-126.2011,-90.3045)">
    <circle
       cx="133.7011"
       cy="105.95"
       r="0.3274"
       id="circle10725" />
  </g>
  <g
     style="fill:#ececec;fill-opacity:1;stroke:none"
     id="g10731"
     transform="translate(-126.2011,-90.3045)">
    <circle
       cx="135.3511"
       cy="109.05"
       r="0.3274"
       id="circle10729" />
  </g>
  <g
     style="fill:#ececec;fill-opacity:1;stroke:none"
     id="g10735"
     transform="translate(-126.2011,-90.3045)">
    <circle
       cx="134.0011"
       cy="114.1"
       r="0.3274"
       id="circle10733" />
  </g>
  <g
     style="fill:#ececec;fill-opacity:1;stroke:none"
     id="g10739"
     transform="translate(-126.2011,-90.3045)">
    <circle
       cx="132.3011"
       cy="99.150002"
       r="0.3274"
       id="circle10737" />
  </g>
  <g
     style="fill:#ececec;fill-opacity:1;stroke:none"
     id="g10743"
     transform="translate(-126.2011,-90.3045)">
    <circle
       cx="134.3011"
       cy="111.35"
       r="0.3274"
       id="circle10741" />
  </g>
  <g
     style="fill:#ececec;fill-opacity:1;stroke:none"
     id="g10747"
     transform="translate(-126.2011,-90.3045)">
    <circle
       cx="148.4511"
       cy="98.900002"
       r="0.3274"
       id="circle10745" />
  </g>
  <g
     style="fill:#ececec;fill-opacity:1;stroke:none"
     id="g10751"
     transform="translate(-126.2011,-90.3045)">
    <circle
       cx="144.1011"
       cy="97.800003"
       r="0.3274"
       id="circle10749" />
  </g>
  <g
     style="fill:#ececec;fill-opacity:1;stroke:none"
     id="g10755"
     transform="translate(-126.2011,-90.3045)">
    <circle
       cx="148.4511"
       cy="99.949997"
       r="0.3274"
       id="circle10753" />
  </g>
  <g
     style="fill:#ececec;fill-opacity:1;stroke:none"
     id="g10759"
     transform="translate(-126.2011,-90.3045)">
    <circle
       cx="135.1011"
       cy="111.35"
       r="0.3274"
       id="circle10757" />
  </g>
  <g
     style="fill:#ececec;fill-opacity:1;stroke:none"
     id="g10763"
     transform="translate(-126.2011,-90.3045)">
    <circle
       cx="144.90109"
       cy="97.800003"
       r="0.3274"
       id="circle10761" />
  </g>
  <g
     style="fill:#ececec;fill-opacity:1;stroke:none"
     id="g10767"
     transform="translate(-126.2011,-90.3045)">
    <circle
       cx="131.1011"
       cy="111.25"
       r="0.3274"
       id="circle10765" />
  </g>
  <g
     style="fill:#ececec;fill-opacity:1;stroke:none"
     id="g10771"
     transform="translate(-126.2011,-90.3045)">
    <circle
       cx="135.90109"
       cy="111.35"
       r="0.3274"
       id="circle10769" />
  </g>
  <g
     style="fill:#ececec;fill-opacity:1;stroke:none"
     id="g10775"
     transform="translate(-126.2011,-90.3045)">
    <circle
       cx="148.5649"
       cy="112.25"
       r="0.3274"
       id="circle10773" />
  </g>
  <g
     style="fill:#ececec;fill-opacity:1;stroke:none"
     id="g10779"
     transform="translate(-126.2011,-90.3045)">
    <circle
       cx="130.7011"
       cy="99.949997"
       r="0.3274"
       id="circle10777" />
  </g>
  <g
     style="fill:#ececec;fill-opacity:1;stroke:none"
     id="g10783"
     transform="translate(-126.2011,-90.3045)">
    <circle
       cx="130.7011"
       cy="103.55"
       r="0.3274"
       id="circle10781" />
  </g>
  <g
     style="fill:#ececec;fill-opacity:1;stroke:none"
     id="g10787"
     transform="translate(-126.2011,-90.3045)">
    <circle
       cx="144.5632"
       cy="102.3338"
       r="0.3274"
       id="circle10785" />
  </g>
  <g
     style="fill:#ececec;fill-opacity:1;stroke:none"
     id="g10791"
     transform="translate(-126.2011,-90.3045)">
    <circle
       cx="148.4511"
       cy="97.800003"
       r="0.3274"
       id="circle10789" />
  </g>
  <g
     style="fill:#ececec;fill-opacity:1;stroke:none"
     id="g10795"
     transform="translate(-126.2011,-90.3045)">
    <circle
       cx="132.7011"
       cy="104.25"
       r="0.3274"
       id="circle10793" />
  </g>
  <g
     style="fill:#ececec;fill-opacity:1;stroke:none"
     id="g10799"
     transform="translate(-126.2011,-90.3045)">
    <circle
       cx="148.4511"
       cy="105.5"
       r="0.3274"
       id="circle10797" />
  </g>
  <g
     style="fill:#ececec;fill-opacity:1;stroke:none"
     id="g10803"
     transform="translate(-126.2011,-90.3045)">
    <circle
       cx="134.90109"
       cy="114.1"
       r="0.3274"
       id="circle10801" />
  </g>
  <g
     style="fill:#ececec;fill-opacity:1;stroke:none"
     id="g10807"
     transform="translate(-126.2011,-90.3045)">
    <circle
       cx="133.1011"
       cy="109.55"
       r="0.3274"
       id="circle10805" />
  </g>
  <g
     style="fill:#ececec;fill-opacity:1;stroke:none"
     id="g10811"
     transform="translate(-126.2011,-90.3045)">
    <circle
       cx="133.0511"
       cy="114.1"
       r="0.3274"
       id="circle10809" />
  </g>
  <g
     style="fill:#ececec;fill-opacity:1;stroke:none"
     id="g10815"
     transform="translate(-126.2011,-90.3045)">
    <circle
       cx="142.90109"
       cy="112.95"
       r="0.3274"
       id="circle10813" />
  </g>
  <g
     style="fill:#ececec;fill-opacity:1;stroke:none"
     id="g10819"
     transform="translate(-126.2011,-90.3045)">
    <circle
       cx="142.90109"
       cy="114.05"
       r="0.3274"
       id="circle10817" />
  </g>
  <g
     style="fill:#ececec;fill-opacity:1;stroke:none"
     id="g10823"
     transform="translate(-126.2011,-90.3045)">
    <circle
       cx="132.2587"
       cy="112.95"
       r="0.3274"
       id="circle10821" />
  </g>
  <g
     style="fill:#ececec;fill-opacity:1;stroke:none"
     id="g10827"
     transform="translate(-126.2011,-90.3045)">
    <circle
       cx="133.3011"
       cy="116.65"
       r="0.3274"
       id="circle10825" />
  </g>
  <g
     style="fill:#ececec;fill-opacity:1;stroke:none"
     id="g10831"
     transform="translate(-126.2011,-90.3045)">
    <circle
       cx="130.7011"
       cy="102.75"
       r="0.3274"
       id="circle10829" />
  </g>
  <g
     style="fill:#ececec;fill-opacity:1;stroke:none"
     id="g10835"
     transform="translate(-126.2011,-90.3045)">
    <circle
       cx="132.3011"
       cy="99.949997"
       r="0.3274"
       id="circle10833" />
  </g>
  <g
     style="fill:#ececec;fill-opacity:1;stroke:none"
     id="g10839"
     transform="translate(-126.2011,-90.3045)">
    <circle
       cx="145.2011"
       cy="111.8"
       r="0.3274"
       id="circle10837" />
  </g>
  <g
     style="fill:#ececec;fill-opacity:1;stroke:none"
     id="g10843"
     transform="translate(-126.2011,-90.3045)">
    <circle
       cx="130.90109"
       cy="112.15"
       r="0.3274"
       id="circle10841" />
  </g>
  <g
     style="fill:#ececec;fill-opacity:1;stroke:none"
     id="g10847"
     transform="translate(-126.2011,-90.3045)">
    <circle
       cx="136.7011"
       cy="111.35"
       r="0.3274"
       id="circle10845" />
  </g>
  <g
     style="fill:#ececec;fill-opacity:1;stroke:none"
     id="g10851"
     transform="translate(-126.2011,-90.3045)">
    <circle
       cx="132.2587"
       cy="113.95"
       r="0.3274"
       id="circle10849" />
  </g>
  <g
     style="fill:#ececec;fill-opacity:1;stroke:none"
     id="g10855"
     transform="translate(-126.2011,-90.3045)">
    <circle
       cx="127.7011"
       cy="121.45"
       r="0.3274"
       id="circle10853" />
  </g>
  <g
     style="fill:#ececec;fill-opacity:1;stroke:none"
     id="g10859"
     transform="translate(-126.2011,-90.3045)">
    <circle
       cx="147.6011"
       cy="97.800003"
       r="0.3274"
       id="circle10857" />
  </g>
  <g
     style="fill:#ececec;fill-opacity:1;stroke:none"
     id="g10863"
     transform="translate(-126.2011,-90.3045)">
    <circle
       cx="148.5649"
       cy="111.35"
       r="0.3274"
       id="circle10861" />
  </g>
  <g
     style="fill:#ececec;fill-opacity:1;stroke:none"
     id="g10867"
     transform="translate(-126.2011,-90.3045)">
    <circle
       cx="147.2011"
       cy="105.35"
       r="0.3274"
       id="circle10865" />
  </g>
  <g
     style="fill:#ececec;fill-opacity:1;stroke:none"
     id="g10871"
     transform="translate(-126.2011,-90.3045)">
    <circle
       cx="143.5511"
       cy="111.8"
       r="0.3274"
       id="circle10869" />
  </g>
  <g
     style="fill:#ececec;fill-opacity:1;stroke:none"
     id="g10875"
     transform="translate(-126.2011,-90.3045)">
    <circle
       cx="144.0511"
       cy="115.0606"
       r="0.3274"
       id="circle10873" />
  </g>
  <g
     style="fill:#ececec;fill-opacity:1;stroke:none"
     id="g10879"
     transform="translate(-126.2011,-90.3045)">
    <circle
       cx="136.5"
       cy="96.846397"
       r="0.3274"
       id="circle10877" />
  </g>
  <g
     style="fill:#ececec;fill-opacity:1;stroke:none"
     id="g10883"
     transform="translate(-126.2011,-90.3045)">
    <circle
       cx="142.60001"
       cy="96.846397"
       r="0.3274"
       id="circle10881" />
  </g>
  <g
     style="fill:#ececec;fill-opacity:1;stroke:none"
     id="g10887"
     transform="translate(-126.2011,-90.3045)">
    <circle
       cx="146.40109"
       cy="103.65"
       r="0.3274"
       id="circle10885" />
  </g>
  <g
     style="fill:#ececec;fill-opacity:1;stroke:none"
     id="g10891"
     transform="translate(-126.2011,-90.3045)">
    <circle
       cx="136.1011"
       cy="104.95"
       r="0.3274"
       id="circle10889" />
  </g>
  <g
     style="fill:#ececec;fill-opacity:1;stroke:none"
     id="g10895"
     transform="translate(-126.2011,-90.3045)">
    <circle
       cx="140.5748"
       cy="104.6737"
       r="0.3274"
       id="circle10893" />
  </g>
  <g
     style="fill:#ececec;fill-opacity:1;stroke:none"
     id="g10899"
     transform="translate(-126.2011,-90.3045)">
    <circle
       cx="141.6129"
       cy="103.6382"
       r="0.3274"
       id="circle10897" />
  </g>
  <g
     style="fill:#ececec;fill-opacity:1;stroke:none"
     id="g10903"
     transform="translate(-126.2011,-90.3045)">
    <circle
       cx="138"
       cy="115.0464"
       r="0.3274"
       id="circle10901" />
  </g>
  <g
     style="fill:#ececec;fill-opacity:1;stroke:none"
     id="g10907"
     transform="translate(-126.2011,-90.3045)">
    <circle
       cx="144.6011"
       cy="110.506"
       r="0.3274"
       id="circle10905" />
  </g>
  <g
     style="fill:#ececec;fill-opacity:1;stroke:none"
     id="g10911"
     transform="translate(-126.2011,-90.3045)">
    <circle
       cx="144.6841"
       cy="109.1202"
       r="0.3274"
       id="circle10909" />
  </g>
  <g
     style="fill:#ececec;fill-opacity:1;stroke:none"
     id="g10915"
     transform="translate(-126.2011,-90.3045)">
    <circle
       cx="141.7011"
       cy="102.4945"
       r="0.3274"
       id="circle10913" />
  </g>
  <g
     style="fill:#ececec;fill-opacity:1;stroke:none"
     id="g10919"
     transform="translate(-126.2011,-90.3045)">
    <circle
       cx="138.99921"
       cy="98.371399"
       r="0.3274"
       id="circle10917" />
  </g>
  <g
     style="fill:#ececec;fill-opacity:1;stroke:none"
     id="g10923"
     transform="translate(-126.2011,-90.3045)">
    <circle
       cx="138.5011"
       cy="97.736198"
       r="0.3274"
       id="circle10921" />
  </g>
  <g
     style="fill:#ececec;fill-opacity:1;stroke:none"
     id="g10927"
     transform="translate(-126.2011,-90.3045)">
    <circle
       cx="150.9511"
       cy="107.9"
       r="0.3274"
       id="circle10925" />
  </g>
  <g
     style="fill:#ececec;fill-opacity:1;stroke:none"
     id="g10931"
     transform="translate(-126.2011,-90.3045)">
    <circle
       cx="145.2393"
       cy="102.7749"
       r="0.3274"
       id="circle10929" />
  </g>
  <g
     style="fill:#ececec;fill-opacity:1;stroke:none"
     id="g10935"
     transform="translate(-126.2011,-90.3045)">
    <circle
       cx="150.9511"
       cy="112.2"
       r="0.3274"
       id="circle10933" />
  </g>
  <g
     style="fill:#ececec;fill-opacity:1;stroke:none"
     id="g10939"
     transform="translate(-126.2011,-90.3045)">
    <circle
       cx="147.6451"
       cy="109.2152"
       r="0.3274"
       id="circle10937" />
  </g>
  <g
     style="fill:#ececec;fill-opacity:1;stroke:none"
     id="g10943"
     transform="translate(-126.2011,-90.3045)">
    <circle
       cx="136.6011"
       cy="114.05"
       r="0.3274"
       id="circle10941" />
  </g>
  <g
     style="fill:#ececec;fill-opacity:1;stroke:none"
     id="g10947"
     transform="translate(-126.2011,-90.3045)">
    <circle
       cx="140.0011"
       cy="115.9468"
       r="0.3274"
       id="circle10945" />
  </g>
  <g
     style="fill:#ececec;fill-opacity:1;stroke:none"
     id="g10951"
     transform="translate(-126.2011,-90.3045)">
    <circle
       cx="137.5011"
       cy="108.45"
       r="0.3274"
       id="circle10949" />
  </g>
  <g
     style="fill:#ececec;fill-opacity:1;stroke:none"
     id="g10955"
     transform="translate(-126.2011,-90.3045)">
    <circle
       cx="142.11681"
       cy="106.0947"
       r="0.3274"
       id="circle10953" />
  </g>
  <g
     style="fill:#ececec;fill-opacity:1;stroke:none"
     id="g10959"
     transform="translate(-126.2011,-90.3045)">
    <circle
       cx="141.8497"
       cy="105.333"
       r="0.3274"
       id="circle10957" />
  </g>
  <g
     style="fill:#ececec;fill-opacity:1;stroke:none"
     id="g10963"
     transform="translate(-126.2011,-90.3045)">
    <circle
       cx="141.40829"
       cy="100.15"
       r="0.3274"
       id="circle10961" />
  </g>
  <g
     style="fill:#ececec;fill-opacity:1;stroke:none"
     id="g10967"
     transform="translate(-126.2011,-90.3045)">
    <circle
       cx="144.46809"
       cy="106.8245"
       r="0.3274"
       id="circle10965" />
  </g>
  <g
     style="fill:#ececec;fill-opacity:1;stroke:none"
     id="g10971"
     transform="translate(-126.2011,-90.3045)">
    <circle
       cx="141.0425"
       cy="105.333"
       r="0.3274"
       id="circle10969" />
  </g>
  <g
     style="fill:#ececec;fill-opacity:1;stroke:none"
     id="g10975"
     transform="translate(-126.2011,-90.3045)">
    <circle
       cx="140.6011"
       cy="99.050003"
       r="0.3274"
       id="circle10973" />
  </g>
  <g
     style="fill:#ececec;fill-opacity:1;stroke:none"
     id="g10979"
     transform="translate(-126.2011,-90.3045)">
    <circle
       cx="147.7011"
       cy="107.35"
       r="0.3274"
       id="circle10977" />
  </g>
  <g
     style="fill:#ececec;fill-opacity:1;stroke:none"
     id="g10983"
     transform="translate(-126.2011,-90.3045)">
    <circle
       cx="140.38409"
       cy="105.8"
       r="0.3274"
       id="circle10981" />
  </g>
  <g
     style="fill:#ececec;fill-opacity:1;stroke:none"
     id="g10987"
     transform="translate(-126.2011,-90.3045)">
    <circle
       cx="135.8091"
       cy="100.158"
       r="0.3274"
       id="circle10985" />
  </g>
  <g
     style="fill:#ececec;fill-opacity:1;stroke:none"
     id="g10991"
     transform="translate(-126.2011,-90.3045)">
    <circle
       cx="144.7429"
       cy="105.3548"
       r="0.3274"
       id="circle10989" />
  </g>
  <g
     style="fill:#ececec;fill-opacity:1;stroke:none"
     id="g10995"
     transform="translate(-126.2011,-90.3045)">
    <circle
       cx="148.3011"
       cy="108.25"
       r="0.3274"
       id="circle10993" />
  </g>
  <g
     style="fill:#ececec;fill-opacity:1;stroke:none"
     id="g10999"
     transform="translate(-126.2011,-90.3045)">
    <circle
       cx="140.6011"
       cy="100.15"
       r="0.3274"
       id="circle10997" />
  </g>
  <g
     style="fill:#ececec;fill-opacity:1;stroke:none"
     id="g11003"
     transform="translate(-126.2011,-90.3045)">
    <circle
       cx="143.5571"
       cy="105.7"
       r="0.3274"
       id="circle11001" />
  </g>
  <g
     style="fill:#ececec;fill-opacity:1;stroke:none"
     id="g11009"
     transform="translate(-126.2011,-90.3045)">
    <circle
       cx="151.5011"
       cy="116.75"
       r="0.3274"
       id="circle11005" />
    <path
       style="fill:#7fc87f;fill-opacity:1;fill-rule:evenodd;stroke:none"
       d="m 156.2854,90.3191 0.0146,0.0352 v 33.5914 l -0.0146,0.0352 -0.0352,0.0146 h -29.9993 l -0.0352,-0.0146 -0.0146,-0.0352 V 122.55 h 4.6922 l 0.0194,0.1966 0.0574,0.189 0.0931,0.1743 0.1253,0.1527 0.1527,0.1253 0.1742,0.0931 0.1891,0.0574 0.1473,0.0145 0.0493,0.005 v 0 0 l 0.0448,-0.005 0.1518,-0.0149 0.189,-0.0574 0.1743,-0.0931 0.1527,-0.1253 0.1253,-0.1527 0.0931,-0.1743 0.0574,-0.189 0.0194,-0.1966 h 0.5244 l 0.0194,0.1966 0.0574,0.189 0.0931,0.1743 0.1253,0.1527 0.1527,0.1253 0.1743,0.0931 0.189,0.0574 0.1473,0.0145 0.0493,0.005 v 0 0 l 0.0448,-0.005 0.1518,-0.0149 0.1891,-0.0574 0.1742,-0.0931 0.1527,-0.1253 0.1253,-0.1527 0.0931,-0.1743 0.0574,-0.189 0.0194,-0.1966 h 0.5244 l 0.0194,0.1966 0.0574,0.189 0.0931,0.1743 0.1253,0.1527 0.1527,0.1253 0.1742,0.0931 0.1891,0.0574 0.1473,0.0145 0.0493,0.005 v 0 0 l 0.0448,-0.005 0.1518,-0.0149 0.189,-0.0574 0.1743,-0.0931 0.1527,-0.1253 0.1253,-0.1527 0.0931,-0.1743 0.0574,-0.189 0.0194,-0.1966 h 0.5244 l 0.0194,0.1966 0.0574,0.189 0.0931,0.1743 0.1253,0.1527 0.1527,0.1253 0.1742,0.0931 0.1891,0.0574 0.1473,0.0145 0.0493,0.005 v 0 0 l 0.0448,-0.005 0.1518,-0.0149 0.189,-0.0574 0.1743,-0.0931 0.1527,-0.1253 0.1253,-0.1527 0.0931,-0.1743 0.0574,-0.189 0.0194,-0.1966 h 0.5244 l 0.0194,0.1966 0.0574,0.189 0.0931,0.1743 0.1253,0.1527 0.1527,0.1253 0.1742,0.0931 0.1891,0.0574 0.1473,0.0145 0.0493,0.005 v 0 0 l 0.0448,-0.005 0.1518,-0.0149 0.189,-0.0574 0.1743,-0.0931 0.1527,-0.1253 0.1253,-0.1527 0.0931,-0.1743 0.0574,-0.189 0.0194,-0.1966 -0.0151,-0.1524 h 0.4527 0.6178 l -0.0232,0.0866 v 0.1316 l 0.0232,0.0866 h -0.6178 l 0.005,0.0513 v 0 l 0.056,0.1968 0.0912,0.1832 v 0 l 0.1233,0.1632 v 0 l 0.1512,0.1379 0.174,0.1077 0.1908,0.0739 0.151,0.0282 v 0 -0.6178 l 0.0866,0.0232 h 0.1316 l 0.0866,-0.0232 v 0.6178 l 0.151,-0.0282 0.1908,-0.0739 0.174,-0.1077 0.1512,-0.1379 v 0 l 0.1233,-0.1632 v 0 l 0.0912,-0.1832 0.0559,-0.1968 h 1e-4 l 0.005,-0.0513 h -0.6178 l 0.0232,-0.0866 V 122.55 h 1.0322 l 0.0194,0.1966 0.0574,0.189 0.0931,0.1743 0.1253,0.1527 0.1527,0.1253 0.1742,0.0931 0.1891,0.0574 0.1473,0.0145 0.0493,0.005 v 0 0 l 0.0448,-0.005 0.1518,-0.0149 0.189,-0.0574 0.1743,-0.0931 0.1527,-0.1253 0.1253,-0.1527 0.0931,-0.1743 0.0574,-0.189 0.0194,-0.1966 h 0.5244 l 0.0194,0.1966 0.0574,0.189 0.0931,0.1743 0.1253,0.1527 0.1527,0.1253 0.1742,0.0931 0.1891,0.0574 0.1473,0.0145 0.0493,0.005 v 0 0 l 0.0448,-0.005 0.1518,-0.0149 0.189,-0.0574 0.1743,-0.0931 0.1527,-0.1253 0.1253,-0.1527 0.0931,-0.1743 0.0574,-0.189 0.0194,-0.1966 h 0.5244 l 0.0194,0.1966 0.0574,0.189 0.0931,0.1743 0.1253,0.1527 0.1527,0.1253 0.1742,0.0931 0.1891,0.0574 0.1473,0.0145 0.0493,0.005 v 0 0 l 0.0448,-0.005 0.1518,-0.0149 0.1891,-0.0574 0.1742,-0.0931 0.1527,-0.1253 0.1253,-0.1527 0.0931,-0.1743 0.0574,-0.189 0.0194,-0.1966 -0.0194,-0.1966 -0.0574,-0.1891 -0.0931,-0.1742 -0.1253,-0.1527 -0.1527,-0.1253 -0.0508,-0.0272 h 1.028 v 1.7301 1e-4 l 0.009,0.0446 v 0 l 0.0338,0.0505 v 0 l 0.0505,0.0338 0.0446,0.009 h 1.7302 l 0.0446,-0.009 0.0505,-0.0338 0.0338,-0.0505 0.009,-0.0446 v -1.7302 l -0.009,-0.0446 v 0 0 l -0.0338,-0.0505 v 0 l -0.0505,-0.0338 -0.0446,-0.009 v 0 h -1.7302 v 0 l -0.0334,0.007 -0.0112,0.002 v 0 0 l -0.0505,0.0338 v 0 l -0.0338,0.0505 v 0 l -0.009,0.0446 h -1.028 l -0.1234,-0.0659 -0.1891,-0.0574 -0.1966,-0.0194 v 0 l -0.1966,0.0194 -0.0823,0.025 -0.1068,0.0324 v 0 0 l -0.0865,0.0462 -0.0877,0.0469 v 0 0 l -0.1527,0.1253 -0.1253,0.1527 -0.0931,0.1742 v 0 0 l -0.0574,0.1891 -0.0194,0.1966 h -0.5244 l -0.0194,-0.1966 -0.0574,-0.1891 -0.0931,-0.1742 -0.1253,-0.1527 -0.1527,-0.1253 -0.1743,-0.0931 -0.189,-0.0574 -0.1966,-0.0194 v 0 l -0.1966,0.0194 -0.0823,0.025 -0.1068,0.0324 v 0 0 l -0.0865,0.0462 -0.0877,0.0469 v 0 0 l -0.1527,0.1253 -0.1253,0.1527 -0.0931,0.1742 v 0 0 l -0.0574,0.1891 -0.0194,0.1966 h -0.5244 l -0.0194,-0.1966 -0.0574,-0.1891 -0.0931,-0.1742 -0.1253,-0.1527 -0.1527,-0.1253 -0.1743,-0.0931 -0.189,-0.0574 -0.1966,-0.0194 v 0 l -0.1966,0.0194 -0.0823,0.025 -0.1068,0.0324 v 0 0 l -0.0865,0.0462 -0.0877,0.0469 v 0 0 l -0.1527,0.1253 -0.1253,0.1527 -0.0931,0.1742 v 0 0 l -0.0574,0.1891 -0.0194,0.1966 h -1.0322 v -0.0658 l -0.0232,-0.0866 h 0.6178 l -0.005,-0.0513 h -1e-4 l -0.0559,-0.1968 -0.0912,-0.1832 v 0 l -0.1233,-0.1632 v 0 l -0.1512,-0.1379 -0.174,-0.1077 -0.1908,-0.0739 -0.151,-0.0282 v 0.6178 l -0.0866,-0.0232 h -0.1316 l -0.0866,0.0232 v -0.6178 0 l -0.151,0.0282 -0.1908,0.0739 -0.174,0.1077 -0.1512,0.1379 v 0 l -0.1233,0.1632 v 0 l -0.0912,0.1832 -0.056,0.1968 v 0 l -0.005,0.0513 h -0.4527 l -0.004,-0.0442 -0.0574,-0.1891 -0.0931,-0.1742 -0.1253,-0.1527 -0.1527,-0.1253 -0.1743,-0.0931 -0.189,-0.0574 -0.1966,-0.0194 v 0 l -0.1966,0.0194 -0.0823,0.025 -0.1068,0.0324 v 0 0 l -0.0865,0.0462 -0.0877,0.0469 v 0 0 l -0.1527,0.1253 -0.1253,0.1527 -0.0931,0.1742 v 0 0 l -0.0574,0.1891 -0.0194,0.1966 h -0.5244 l -0.0194,-0.1966 -0.0574,-0.1891 -0.0931,-0.1742 -0.1253,-0.1527 -0.1527,-0.1253 -0.1743,-0.0931 -0.189,-0.0574 -0.1966,-0.0194 v 0 l -0.1966,0.0194 -0.0823,0.025 -0.1068,0.0324 v 0 0 l -0.0865,0.0462 -0.0877,0.0469 v 0 0 l -0.1527,0.1253 -0.1253,0.1527 -0.0931,0.1742 v 0 0 l -0.0574,0.1891 -0.0194,0.1966 h -0.5244 l -0.0194,-0.1966 -0.0574,-0.1891 -0.0931,-0.1742 -0.1253,-0.1527 -0.1527,-0.1253 -0.1743,-0.0931 -0.189,-0.0574 -0.1966,-0.0194 v 0 l -0.1966,0.0194 -0.0823,0.025 -0.1068,0.0324 v 0 0 l -0.0865,0.0462 -0.0877,0.0469 v 0 0 l -0.1527,0.1253 -0.1253,0.1527 -0.0931,0.1742 v 0 0 l -0.0574,0.1891 -0.0194,0.1966 h -0.5244 l -0.0194,-0.1966 -0.0574,-0.1891 -0.0931,-0.1742 -0.1253,-0.1527 -0.1527,-0.1253 -0.1742,-0.0931 -0.1891,-0.0574 -0.1966,-0.0194 v 0 l -0.1966,0.0194 -0.0823,0.025 -0.1067,0.0324 h -1e-4 v 0 l -0.0865,0.0462 -0.0877,0.0469 v 0 0 l -0.1527,0.1253 -0.1253,0.1527 -0.0931,0.1742 v 0 0 l -0.0574,0.1891 -0.0194,0.1966 h -0.5244 l -0.0194,-0.1966 -0.0574,-0.1891 -0.0931,-0.1742 -0.1253,-0.1527 -0.1527,-0.1253 -0.1743,-0.0931 -0.189,-0.0574 -0.1966,-0.0194 v 0 l -0.1966,0.0194 -0.0823,0.025 -0.1068,0.0324 v 0 0 l -0.0865,0.0462 -0.0877,0.0469 v 0 0 l -0.1527,0.1253 -0.1253,0.1527 -0.0931,0.1742 v 0 0 l -0.0574,0.1891 -0.0194,0.1966 h -4.6922 v -2.54 h 4.6922 l 0.0194,0.1966 0.0574,0.189 0.0931,0.1743 0.1253,0.1527 0.1527,0.1253 0.1742,0.0931 0.1891,0.0574 0.1481,0.0146 0.0485,0.005 v 0 0 l 0.0448,-0.004 0.1518,-0.0149 0.189,-0.0574 0.1743,-0.0931 0.1527,-0.1253 0.1253,-0.1527 0.0931,-0.1743 0.0574,-0.189 0.0194,-0.1966 h 0.5244 l 0.0194,0.1966 0.0574,0.189 0.0931,0.1743 0.1253,0.1527 0.1527,0.1253 0.1743,0.0931 0.189,0.0574 0.1481,0.0146 0.0485,0.005 v 0 0 l 0.0448,-0.004 0.1518,-0.0149 0.1891,-0.0574 0.1742,-0.0931 0.1527,-0.1253 0.1253,-0.1527 0.0931,-0.1743 0.0574,-0.189 0.0194,-0.1966 h 0.5244 l 0.0194,0.1966 0.0574,0.189 0.0931,0.1743 0.1253,0.1527 0.1527,0.1253 0.1742,0.0931 0.1891,0.0574 0.1481,0.0146 0.0485,0.005 v 0 0 l 0.0448,-0.004 0.1518,-0.0149 0.189,-0.0574 0.1743,-0.0931 0.1527,-0.1253 0.1253,-0.1527 0.0931,-0.1743 0.0574,-0.189 0.0194,-0.1966 h 0.5244 l 0.0194,0.1966 0.0574,0.189 0.0931,0.1743 0.1253,0.1527 0.1527,0.1253 0.1742,0.0931 0.1891,0.0574 0.1481,0.0146 0.0485,0.005 v 0 0 l 0.0448,-0.004 0.1518,-0.0149 0.189,-0.0574 0.1743,-0.0931 0.1527,-0.1253 0.1253,-0.1527 0.0931,-0.1743 0.0574,-0.189 0.0194,-0.1966 h 0.5244 l 0.0194,0.1966 0.0574,0.189 0.0931,0.1743 0.1253,0.1527 0.1527,0.1253 0.1742,0.0931 0.1891,0.0574 0.1481,0.0146 0.0485,0.005 v 0 0 l 0.0448,-0.004 0.1518,-0.0149 0.189,-0.0574 0.1743,-0.0931 0.1527,-0.1253 0.1253,-0.1527 0.0931,-0.1743 0.0574,-0.189 0.0194,-0.1966 h 0.5244 l 0.0194,0.1966 0.0574,0.189 0.0931,0.1743 0.1253,0.1527 0.1527,0.1253 0.1743,0.0931 0.189,0.0574 0.1481,0.0146 0.0485,0.005 v 0 0 l 0.0448,-0.004 0.1518,-0.0149 0.1891,-0.0574 0.1742,-0.0931 0.1527,-0.1253 0.1253,-0.1527 0.0931,-0.1743 0.0574,-0.189 0.0194,-0.1966 h 0.5244 l 0.0194,0.1966 0.0574,0.189 0.0931,0.1743 0.1253,0.1527 0.1527,0.1253 0.1742,0.0931 0.1891,0.0574 0.1481,0.0146 0.0485,0.005 v 0 0 l 0.0448,-0.004 0.1518,-0.0149 0.189,-0.0574 0.1743,-0.0931 0.1527,-0.1253 0.1253,-0.1527 0.0931,-0.1743 0.0574,-0.189 0.0194,-0.1966 h 0.5244 l 0.0194,0.1966 0.0574,0.189 0.0931,0.1743 0.1253,0.1527 0.1527,0.1253 0.1742,0.0931 0.1891,0.0574 0.1481,0.0146 0.0485,0.005 v 0 0 l 0.0448,-0.004 0.1518,-0.0149 0.189,-0.0574 0.1743,-0.0931 0.1527,-0.1253 0.1253,-0.1527 0.0931,-0.1743 0.0574,-0.189 0.0194,-0.1966 h 0.5244 l 0.0194,0.1966 0.0574,0.189 0.0931,0.1743 0.1253,0.1527 0.1527,0.1253 0.1742,0.0931 0.1891,0.0574 0.1481,0.0146 0.0485,0.005 v 0 0 l 0.0448,-0.004 0.1518,-0.0149 0.1891,-0.0574 0.1742,-0.0931 0.1527,-0.1253 0.1253,-0.1527 0.0931,-0.1743 0.0574,-0.189 0.0194,-0.1966 h 0.5244 l 0.0194,0.1966 0.0574,0.189 0.0931,0.1743 0.1253,0.1527 0.1527,0.1253 0.1743,0.0931 0.189,0.0574 0.1481,0.0146 0.0485,0.005 v 0 0 l 0.0448,-0.004 0.1518,-0.0149 0.189,-0.0574 0.1743,-0.0931 0.1527,-0.1253 0.1253,-0.1527 0.0931,-0.1743 0.0574,-0.189 0.0194,-0.1966 -0.0194,-0.1966 -0.0574,-0.1891 -0.0931,-0.1742 -0.1253,-0.1527 -0.1527,-0.1253 -0.1743,-0.0931 -0.189,-0.0574 -0.1966,-0.0194 v 0 l -0.1966,0.0194 -0.0823,0.025 -0.1067,0.0324 h -1e-4 v 0 l -0.1129,0.0603 -0.0613,0.0328 v 0 0 l -0.1527,0.1253 -0.1253,0.1527 -0.0931,0.1742 v 0 0 l -0.0574,0.1891 -0.0194,0.1966 h -0.5244 l -0.0194,-0.1966 -0.0574,-0.1891 -0.0931,-0.1742 -0.1253,-0.1527 -0.1527,-0.1253 -0.1742,-0.0931 -0.1891,-0.0574 -0.1966,-0.0194 v 0 l -0.1966,0.0194 -0.0823,0.025 -0.1068,0.0324 v 0 0 l -0.1129,0.0603 -0.0613,0.0328 v 0 0 l -0.1527,0.1253 -0.1253,0.1527 -0.0931,0.1742 v 0 0 l -0.0574,0.1891 -0.0194,0.1966 h -0.5244 l -0.0194,-0.1966 -0.0574,-0.1891 -0.0931,-0.1742 -0.1253,-0.1527 -0.1527,-0.1253 -0.1743,-0.0931 -0.189,-0.0574 -0.1966,-0.0194 v 0 l -0.1966,0.0194 -0.0823,0.025 -0.1068,0.0324 v 0 0 l -0.1129,0.0603 -0.0613,0.0328 v 0 0 l -0.1527,0.1253 -0.1253,0.1527 -0.0931,0.1742 v 0 0 l -0.0574,0.1891 -0.0194,0.1966 h -0.5244 l -0.0194,-0.1966 -0.0574,-0.1891 -0.0931,-0.1742 -0.1253,-0.1527 -0.1527,-0.1253 -0.1743,-0.0931 -0.189,-0.0574 -0.1966,-0.0194 v 0 l -0.1966,0.0194 -0.0823,0.025 -0.1068,0.0324 v 0 0 l -0.1129,0.0603 -0.0613,0.0328 v 0 0 l -0.1527,0.1253 -0.1253,0.1527 -0.0931,0.1742 v 0 0 l -0.0574,0.1891 -0.0194,0.1966 h -0.5244 l -0.0194,-0.1966 -0.0574,-0.1891 -0.0931,-0.1742 -0.1253,-0.1527 -0.1527,-0.1253 -0.1742,-0.0931 -0.1891,-0.0574 -0.1966,-0.0194 v 0 l -0.1966,0.0194 -0.0823,0.025 -0.1067,0.0324 h -1e-4 v 0 l -0.1129,0.0603 -0.0613,0.0328 v 0 0 l -0.1527,0.1253 -0.1253,0.1527 -0.0931,0.1742 v 0 0 l -0.0574,0.1891 -0.0194,0.1966 h -0.5244 l -0.0194,-0.1966 -0.0574,-0.1891 -0.0931,-0.1742 -0.1253,-0.1527 -0.1527,-0.1253 -0.1743,-0.0931 -0.189,-0.0574 -0.1966,-0.0194 v 0 l -0.1966,0.0194 -0.0823,0.025 -0.1068,0.0324 v 0 0 l -0.1129,0.0603 -0.0613,0.0328 v 0 0 l -0.1527,0.1253 -0.1253,0.1527 -0.0931,0.1742 v 0 0 l -0.0574,0.1891 -0.0194,0.1966 h -0.5244 l -0.0194,-0.1966 -0.0574,-0.1891 -0.0931,-0.1742 -0.1253,-0.1527 -0.1527,-0.1253 -0.1743,-0.0931 -0.189,-0.0574 -0.1966,-0.0194 v 0 l -0.1966,0.0194 -0.0823,0.025 -0.1068,0.0324 v 0 0 l -0.1129,0.0603 -0.0613,0.0328 v 0 0 l -0.1527,0.1253 -0.1253,0.1527 -0.0931,0.1742 v 0 0 l -0.0574,0.1891 -0.0194,0.1966 h -0.5244 l -0.0194,-0.1966 -0.0574,-0.1891 -0.0931,-0.1742 -0.1253,-0.1527 -0.1527,-0.1253 -0.1743,-0.0931 -0.189,-0.0574 -0.1966,-0.0194 v 0 l -0.1966,0.0194 -0.0823,0.025 -0.1068,0.0324 v 0 0 l -0.1129,0.0603 -0.0613,0.0328 v 0 0 l -0.1527,0.1253 -0.1253,0.1527 -0.0931,0.1742 v 0 0 l -0.0574,0.1891 -0.0194,0.1966 h -0.5244 l -0.0194,-0.1966 -0.0574,-0.1891 -0.0931,-0.1742 -0.1253,-0.1527 -0.1527,-0.1253 -0.1742,-0.0931 -0.1891,-0.0574 -0.1966,-0.0194 v 0 l -0.1966,0.0194 -0.0823,0.025 -0.1067,0.0324 h -1e-4 v 0 l -0.1129,0.0603 -0.0613,0.0328 v 0 0 l -0.1527,0.1253 -0.1253,0.1527 -0.0931,0.1742 v 0 0 l -0.0574,0.1891 -0.0194,0.1966 h -0.5244 l -0.0194,-0.1966 -0.0574,-0.1891 -0.0931,-0.1742 -0.1253,-0.1527 -0.1527,-0.1253 -0.1743,-0.0931 -0.189,-0.0574 -0.1966,-0.0194 v 0 l -0.1966,0.0194 -0.0823,0.025 -0.1068,0.0324 v 0 0 l -0.1129,0.0603 -0.0613,0.0328 v 0 0 l -0.1527,0.1253 -0.1253,0.1527 -0.0931,0.1742 v 0 0 l -0.0574,0.1891 -0.0194,0.1966 h -4.6922 v -3.26 h 24.8148 v 0 l 0.0196,0.1367 v 0 l 0.0574,0.1256 v 0 l 0.0904,0.1044 v 0 l 0.1162,0.0747 v 0 0 l 0.1325,0.0389 v 0 h 0.1382 v 0 l 0.1325,-0.0389 0.1162,-0.0747 0.0904,-0.1044 0.0574,-0.1256 0.0196,-0.1367 -0.0196,-0.1367 -0.0574,-0.1256 v 0 0 0 l -0.0904,-0.1044 v 0 l -0.0518,-0.0333 h 1.4762 v 0 l 0.0194,0.1966 0.0574,0.189 0.0931,0.1743 0.1253,0.1527 0.1527,0.1253 0.1742,0.0931 0.1891,0.0574 0.1481,0.0146 0.0485,0.005 v 0 0 l 0.0448,-0.004 0.1518,-0.0149 0.1891,-0.0574 0.1742,-0.0931 0.1527,-0.1253 0.1253,-0.1527 0.0931,-0.1743 0.0574,-0.189 0.0194,-0.1966 -0.004,-0.0414 -0.01,-0.0995 -0.006,-0.0557 -0.0574,-0.1891 -0.0931,-0.1742 -0.1253,-0.1527 -0.1349,-0.1107 -0.0178,-0.0146 v 0 0 l -0.1742,-0.0931 -0.1891,-0.0574 -0.1966,-0.0194 v 0 l -0.1966,0.0194 -0.0823,0.025 -0.1068,0.0324 v 0 0 l -0.0889,0.0475 -0.0853,0.0456 v 0 0 l -0.1527,0.1253 -0.1253,0.1527 v 0 0 l -0.0107,0.02 -0.0824,0.1542 v 0 l -0.0574,0.1891 -0.0194,0.1966 h -1.4762 l -0.0644,-0.0414 v 0 0 l -0.1325,-0.0389 h -0.1382 l -0.1325,0.0389 v 0 0 l -0.1162,0.0747 v 0 l -0.0904,0.1044 v 0 l -0.0574,0.1256 v 0 l -0.0196,0.1367 h -24.8148 v -0.8032 h 13.3148 v 0 l 0.0196,0.1367 v 0 l 0.0574,0.1256 v 0 l 0.0904,0.1044 v 0 l 0.1162,0.0747 v 0 0 l 0.1325,0.0389 v 0 h 0.1382 v 0 l 0.1325,-0.0389 0.1162,-0.0747 0.0904,-0.1044 0.0574,-0.1256 0.0196,-0.1367 -0.0196,-0.1367 -0.0574,-0.1256 v 0 0 0 l -0.0904,-0.1044 v 0 l -0.1162,-0.0747 v 0 0 l -0.1325,-0.0389 h -0.1382 l -0.1325,0.0389 v 0 0 l -0.1162,0.0747 v 0 l -0.0904,0.1044 v 0 l -0.0574,0.1256 v 0 l -0.0196,0.1367 h -13.3148 v -0.9004 h 11.3137 v 0 l 0.0196,0.1367 v 0 l 0.0574,0.1256 v 0 l 0.0904,0.1044 v 0 l 0.1162,0.0747 v 0 0 l 0.1325,0.0389 v 0 h 0.1382 v 0 l 0.1325,-0.0389 0.1162,-0.0747 0.0904,-0.1044 0.0574,-0.1256 0.0176,-0.1225 h 5.0827 v 0 l 0.0196,0.1367 v 0 l 0.0574,0.1256 v 0 l 0.0904,0.1044 v 0 l 0.1162,0.0747 v 0 0 l 0.1325,0.0389 v 0 h 0.1382 v 0 l 0.1325,-0.0389 0.1162,-0.0747 0.0904,-0.1044 0.0574,-0.1256 0.0196,-0.1367 -0.002,-0.0142 -0.005,-0.0314 -0.0131,-0.0911 -0.0574,-0.1256 v 0 0 0 l -0.0904,-0.1044 v 0 l -0.1162,-0.0747 v 0 0 l -0.1325,-0.0389 h -0.1382 l -0.1325,0.0389 v 0 0 l -0.1162,0.0747 v 0 l -0.0904,0.1044 v 0 l -0.0574,0.1256 v 0 l -0.0196,0.1367 h -5.0827 l 0.002,-0.0142 -0.0196,-0.1367 -0.0574,-0.1256 v 0 0 0 l -0.0904,-0.1044 v 0 l -0.1162,-0.0747 v 0 0 l -0.1325,-0.0389 h -0.1382 l -0.1325,0.0389 v 0 0 l -0.1162,0.0747 v 0 l -0.0904,0.1044 v 0 l -0.0574,0.1256 v 0 l -0.0196,0.1367 H 126.2011 V 114.05 h 9.9148 v 0 l 0.0196,0.1367 v 0 l 0.0574,0.1256 v 0 l 0.0904,0.1044 v 0 l 0.1162,0.0747 v 0 0 l 0.1325,0.0389 v 0 h 0.1382 v 0 l 0.1325,-0.0389 0.1162,-0.0747 0.0904,-0.1044 0.0574,-0.1256 0.0196,-0.1367 -0.0196,-0.1367 -0.0472,-0.1033 h 16.2238 v 0 l 0.0102,0.1033 0.009,0.0933 0.0574,0.1891 0.0931,0.1742 0.1253,0.1527 0.1527,0.1253 0.1742,0.0931 0.1891,0.0574 0.1481,0.0146 0.0485,0.005 v 0 0 l 0.0448,-0.005 0.1518,-0.0149 0.1891,-0.0574 0.1742,-0.0931 0.1527,-0.1253 0.1253,-0.1527 0.0931,-0.1742 0.0574,-0.1891 0.0194,-0.1966 -0.002,-0.0223 -0.0103,-0.1044 -0.007,-0.0699 -0.0574,-0.1891 -0.0931,-0.1742 -0.1253,-0.1527 -0.1527,-0.1253 -0.1742,-0.0931 -0.1891,-0.0574 -0.1966,-0.0194 v 0 l -0.1966,0.0194 -0.0823,0.025 -0.1068,0.0324 v 0 0 l -0.1129,0.0603 -0.0613,0.0328 v 0 0 l -0.1527,0.1253 -0.1253,0.1527 -0.0931,0.1742 v 0 l -0.0574,0.1891 -0.0194,0.1966 h -16.2238 l -0.0102,-0.0223 v 0 0 0 l -0.0904,-0.1044 v 0 l -0.1162,-0.0747 v 0 0 l -0.1325,-0.0389 h -0.1382 l -0.1325,0.0389 v 0 0 l -0.1162,0.0747 v 0 l -0.0904,0.1044 v 0 l -0.0574,0.1256 v 0 l -0.0196,0.1367 h -9.9148 v -2.25 h 16.8648 v 0 l 0.0196,0.1367 v 0 l 0.0574,0.1256 v 0 l 0.0904,0.1044 v 0 l 0.1162,0.0747 v 0 0 l 0.1325,0.0389 v 0 h 0.1382 v 0 l 0.1325,-0.0389 0.0644,-0.0414 h 6.6488 v 0 l 0.0196,0.1367 v 0 l 0.0574,0.1256 v 0 l 0.0904,0.1044 v 0 l 0.1162,0.0747 v 0 0 l 0.1325,0.0389 v 0 h 0.1382 v 0 l 0.1325,-0.0389 0.1162,-0.0747 0.0904,-0.1044 0.0574,-0.1256 0.0195,-0.1357 1e-4,-10e-4 v 0 l -0.0132,-0.0921 -0.006,-0.0446 -0.0574,-0.1256 v 0 0 0 l -0.0904,-0.1044 v 0 l -0.1162,-0.0747 v 0 0 l -0.1325,-0.0389 h -0.1382 l -0.1325,0.0389 v 0 0 l -0.1162,0.0747 v 0 l -0.0904,0.1044 v 0 l -0.0574,0.1256 v 0 l -0.0196,0.1367 h -6.6488 l 0.0518,-0.0333 0.0904,-0.1044 0.0574,-0.1256 0.0196,-0.1367 -0.006,-0.0414 -0.006,-0.0389 -0.008,-0.0564 -0.0574,-0.1256 v 0 0 0 l -0.0904,-0.1044 v 0 l -0.1162,-0.0747 v 0 0 l -0.1325,-0.0389 h -0.1382 l -0.1325,0.0389 v 0 0 l -0.1162,0.0747 v 0 l -0.0904,0.1044 v 0 l -0.0574,0.1256 v 0 l -0.0196,0.1367 H 126.201 v -0.53 h 27.0422 v 0 l 0.009,0.0886 0.0106,0.108 0.0574,0.189 0.0931,0.1743 0.1253,0.1527 0.1527,0.1253 0.1742,0.0931 0.1891,0.0574 0.1481,0.0146 0.0485,0.005 v 0 0 l 0.0448,-0.004 0.1518,-0.0149 0.1891,-0.0574 0.1742,-0.0931 0.1527,-0.1253 0.1253,-0.1527 0.0931,-0.1743 0.0574,-0.189 0.0194,-0.1966 -0.0194,-0.1966 -0.0574,-0.1891 -0.0931,-0.1742 -0.1253,-0.1527 -0.1527,-0.1253 -0.1742,-0.0931 -0.1891,-0.0574 -0.1966,-0.0194 v 0 l -0.1966,0.0194 -0.0823,0.025 -0.1068,0.0324 v 0 0 l -0.0567,0.0303 -0.1175,0.0628 v 0 0 l -0.1527,0.1253 -0.1253,0.1527 -0.0931,0.1742 v 0 0 l -0.0192,0.0631 -0.0382,0.126 -0.0194,0.1966 h -27.0422 v -0.764 h 17.9148 v 0 l 0.0196,0.1367 v 0 l 0.0574,0.1256 v 0 l 0.0904,0.1044 v 0 l 0.1162,0.0747 v 0 0 l 0.1325,0.0389 v 0 h 0.1382 v 0 l 0.1325,-0.0389 0.1162,-0.0747 0.0904,-0.1044 0.0574,-0.1256 0.0196,-0.1367 -0.0196,-0.1367 -0.0574,-0.1256 v 0 0 0 l -0.0904,-0.1044 v 0 l -0.1162,-0.0747 v 0 0 l -0.1325,-0.0389 h -0.1382 l -0.1325,0.0389 v 0 0 l -0.1162,0.0747 v 0 l -0.0904,0.1044 v 0 l -0.0574,0.1256 v 0 l -0.0196,0.1367 h -17.9148 v -3.1811 h 2.4971 v 1.7301 10e-5 l 0.009,0.0446 v 0 l 0.0338,0.0505 v 0 l 0.0505,0.0338 0.0446,0.009 h 1.7302 l 0.0446,-0.009 0.0505,-0.0338 0.0201,-0.03 h 13.5175 v 0 l 0.0196,0.1367 v 0 l 0.0574,0.1256 v 0 l 0.0904,0.1044 v 0 l 0.1162,0.0747 v 0 0 l 0.1325,0.0389 v 0 h 0.1382 v 0 l 0.1325,-0.0389 0.1162,-0.0747 0.0904,-0.1044 0.0574,-0.1256 0.006,-0.0417 h 2.0042 v 0 l 0.0196,0.1367 v 0 l 0.0574,0.1256 v 0 l 0.0904,0.1044 v 0 l 0.1162,0.0747 v 0 0 l 0.1325,0.0389 v 0 h 0.1382 v 0 l 0.1325,-0.0389 0.1162,-0.0747 0.0904,-0.1044 0.0574,-0.1256 0.0196,-0.1367 -0.0196,-0.1367 -0.0574,-0.1256 v 0 0 0 l -0.0904,-0.1044 v 0 l -0.1162,-0.0747 v 0 0 l -0.1325,-0.0389 h -0.1382 l -0.1325,0.0389 v 0 0 l -0.1162,0.0747 v 0 l -0.0904,0.1044 v 0 l -0.0574,0.1256 v 0 l -0.0196,0.1367 h -2.0042 l 0.0136,-0.095 -0.003,-0.0205 -0.006,-0.0446 -0.0103,-0.0716 -0.0574,-0.1256 v 0 0 0 l -0.0904,-0.1044 v 0 l -0.1162,-0.0747 v 0 0 l -0.1325,-0.0389 h -0.1382 l -0.1325,0.0389 v 0 0 l -0.1162,0.0747 v 0 l -0.0904,0.1044 v 0 l -0.0574,0.1256 v 0 l -0.0196,0.1367 h -13.5175 l 0.0137,-0.0205 0.009,-0.0446 V 108.45 h 6.3119 v 0 l 0.0196,0.1367 v 0 l 0.0574,0.1256 v 0 l 0.0904,0.1044 v 0 l 0.1162,0.0747 v 0 0 l 0.1325,0.0389 v 0 h 0.1382 v 0 l 0.1325,-0.0389 0.1162,-0.0747 0.0904,-0.1044 0.0574,-0.1256 0.0196,-0.1367 -0.0196,-0.1367 -0.0289,-0.0633 h 9.8781 v 0 l 0.0196,0.1367 v 0 l 0.0574,0.1256 v 0 l 0.0904,0.1044 v 0 l 0.1162,0.0747 v 0 0 l 0.1325,0.0389 v 0 h 0.1382 v 0 l 0.001,-3e-4 h 4.8721 v 0 l 0.002,0.0235 0.017,0.1731 0.0574,0.189 v 1e-4 0 l 0.007,0.0129 0.0862,0.1613 0.1253,0.1527 0.1384,0.1136 0.007,0.005 0.008,0.006 0.1742,0.0931 0.1891,0.0574 0.1481,0.0146 0.0485,0.005 v 0 0 l 0.0448,-0.004 0.1518,-0.0149 0.1891,-0.0574 0.1742,-0.0931 0.1527,-0.1253 0.1253,-0.1527 0.0931,-0.1743 0.0574,-0.189 0.017,-0.1731 0.002,-0.0235 v 0 l -0.009,-0.0901 -0.0105,-0.1065 -0.0574,-0.1891 -0.0931,-0.1742 -0.006,-0.008 -0.0402,-0.049 -0.0787,-0.0959 -0.1527,-0.1253 -0.1742,-0.0931 -0.1891,-0.0574 -0.1966,-0.0194 v 0 l -0.1966,0.0194 -0.0715,0.0217 -0.1176,0.0357 v 0 0 l -0.1129,0.0603 -0.0613,0.0328 v 0 0 l -0.1527,0.1253 -0.1253,0.1527 v 0 0 l -0.009,0.0176 -0.0837,0.1566 v 0 0 l -0.0129,0.0424 -0.0445,0.1467 -0.0194,0.1966 h -4.8721 l 0.1315,-0.0386 0.1162,-0.0747 0.0904,-0.1044 0.0574,-0.1256 0.0196,-0.1367 -0.0196,-0.1367 -0.0574,-0.1256 v 0 0 0 L 148.6334,107.9 h 1.8325 v 0 l 0.0196,0.1367 v 0 l 0.0574,0.1256 v 0 l 0.0904,0.1044 v 0 l 0.1162,0.0747 v 0 0 l 0.1325,0.0389 v 0 h 0.1382 v 0 l 0.1325,-0.0389 0.1162,-0.0747 0.0904,-0.1044 0.0574,-0.1256 0.0196,-0.1367 -0.0196,-0.1367 -0.0574,-0.1256 v 0 0 0 l -0.0904,-0.1044 v 0 l -0.1162,-0.0747 v 0 0 l -0.1325,-0.0389 h -0.1382 l -0.1325,0.0389 v 0 0 l -0.1162,0.0747 v 0 l -0.0904,0.1044 v 0 l -0.0574,0.1256 v 0 l -0.0196,0.1367 h -1.8325 l -0.0145,-0.0167 v 0 l -0.1162,-0.0747 v 0 0 l -0.1325,-0.0389 h -0.1382 l -0.1325,0.0389 v 0 0 l -0.1162,0.0747 v 0 l -0.0904,0.1044 v 0 l -0.0574,0.1256 v 0 l -0.0196,0.1367 h -9.8781 l -0.0285,-0.0623 v 0 0 0 l -0.0904,-0.1044 v 0 l -0.1162,-0.0747 v 0 0 l -0.1325,-0.0389 h -0.1382 l -0.1325,0.0389 v 0 0 l -0.1162,0.0747 v 0 l -0.0904,0.1044 v 0 l -0.0574,0.1256 v 0 l -0.0196,0.1367 h -6.3119 v -1.1 h 16.5119 v 0 l 0.0196,0.1367 v 0 l 0.0574,0.1256 v 0 l 0.0904,0.1044 v 0 l 0.1162,0.0747 v 0 0 l 0.1325,0.0389 v 0 h 0.1382 v 0 l 0.1325,-0.0389 0.1162,-0.0747 0.0904,-0.1044 0.0574,-0.1256 0.0196,-0.1367 -0.004,-0.0251 -0.006,-0.0446 -0.01,-0.067 -0.0574,-0.1256 v 0 0 0 l -0.0904,-0.1044 v 0 l -0.1162,-0.0747 v 0 0 l -0.1325,-0.0389 h -0.1382 l -0.1325,0.0389 v 0 0 l -0.1162,0.0747 v 0 l -0.0904,0.1044 v 0 l -0.0574,0.1256 v 0 l -0.0196,0.1367 H 130.704 v -0.0251 l -0.009,-0.0446 v 0 0 l -0.0338,-0.0505 v 0 l -0.0505,-0.0338 -0.0446,-0.009 v 0 h -1.7302 v 0 l -0.0334,0.007 -0.0112,0.002 v 0 0 l -0.0505,0.0338 v 0 l -0.0338,0.0505 v 0 l -0.009,0.0446 h -2.4971 v -0.5004 h 17.7818 v 0 l 0.0196,0.1367 v 0 l 0.0574,0.1256 v 0 l 0.0904,0.1044 v 0 l 0.1162,0.0747 v 0 0 l 0.1325,0.0389 v 0 h 0.1382 v 0 l 0.1325,-0.0389 0.1162,-0.0747 0.0904,-0.1044 0.0574,-0.1256 0.0196,-0.1367 -0.0196,-0.1367 -0.0574,-0.1256 v 0 0 0 l -0.0904,-0.1044 v 0 l -0.1162,-0.0747 v 0 0 l -0.1325,-0.0389 h -0.1382 l -0.1325,0.0389 v 0 0 l -0.1162,0.0747 v 0 l -0.0904,0.1044 v 0 l -0.0574,0.1256 v 0 l -0.0196,0.1367 h -17.7818 v -1.3269 h 2.4054 0.6178 l -0.0232,0.0866 v 0.1316 l 0.0232,0.0866 h -0.6178 l 0.005,0.0513 v 0 l 0.056,0.1968 0.0912,0.1832 v 0 l 0.1233,0.1632 v 0 l 0.1512,0.1379 0.174,0.1077 0.1908,0.0739 0.151,0.0282 v 0 -0.6178 l 0.0866,0.0232 h 0.1316 l 0.0866,-0.0232 v 0.6178 l 0.151,-0.0282 0.1908,-0.0739 0.174,-0.1077 0.1512,-0.1379 v 0 l 0.1233,-0.1632 v 0 l 0.0912,-0.1832 0.0559,-0.1968 h 1e-4 l 0.005,-0.0513 h -0.6178 l 6e-4,-0.002 h 9.7204 v 0 l 0.0196,0.1367 v 0 l 0.0574,0.1256 v 0 l 0.0904,0.1044 v 0 l 0.1162,0.0747 v 0 0 l 0.1325,0.0389 v 0 h 0.1382 v 0 l 0.1325,-0.0389 0.1162,-0.0747 0.0904,-0.1044 0.0574,-0.1256 0.0138,-0.0964 0.0195,-0.0328 0.0369,-0.009 0.007,10e-4 0.0465,0.0137 v 0 h 0.1382 v 0 l 0.1325,-0.0389 0.1162,-0.0747 0.0482,-0.0556 0.034,-0.0171 0.0362,0.0121 0.005,0.005 0.0482,0.0556 v 0 l 0.1162,0.0747 v 0 0 l 0.0215,0.006 0.0297,0.0239 0.004,0.0379 -0.002,0.007 -0.0154,0.0338 -0.0343,0.075 v 0 l -0.0197,0.1367 v 0 l 0.0197,0.1367 v 0 l 0.0574,0.1257 v 0 l 0.0904,0.1044 v 0 l 0.1162,0.0746 v 0 0 l 0.1325,0.0389 v 0 h 0.1381 v 0 l 0.1326,-0.0389 0.1161,-0.0746 0.0905,-0.1044 0.0574,-0.1257 0.0196,-0.1367 -0.0196,-0.1367 -0.0574,-0.1256 v 0 0 0 l -0.0904,-0.1044 h -10e-5 L 142.391,105.7 h 0.6809 v 0 l 0.0196,0.1367 v 0 l 0.0574,0.1256 v 0 l 0.0904,0.1044 v 0 l 0.1162,0.0747 v 0 0 l 0.1325,0.0389 v 0 h 0.1382 v 0 l 0.1325,-0.0389 0.1162,-0.0747 0.004,-0.004 0.0866,-0.1 v 0 0 0 l 0.0574,-0.1256 0.0196,-0.1367 v -3e-4 l -0.0105,-0.0727 -0.009,-0.0637 -0.0574,-0.1256 v 0 0 0 l -0.0718,-0.0829 h 0.3641 v 0 l 0.0197,0.1367 v 0 l 0.0574,0.1256 v 0 l 0.0904,0.1044 v 0 l 0.1162,0.0747 v 0 0 l 0.1325,0.0389 v 0 h 0.1381 v 0 l 0.1325,-0.0389 0.1162,-0.0747 0.0187,-0.0215 0.0115,-0.0133 0.0603,-0.0696 0.0573,-0.1256 0.0197,-0.1367 -0.002,-0.0118 -0.004,-0.028 h 7.9247 v 0.7226 h 0.6272 l -0.0232,0.0866 v 0.1316 l 0.0232,0.0866 h -0.6272 v 0.7226 l 0.0147,0.0741 v 0 l 0.0562,0.084 v 0 l 0.084,0.0562 v 0 l 0.0741,0.0147 h 0.7226 v -0.6272 l 0.0866,0.0232 h 0.1316 l 0.0866,-0.0232 v 0.6272 h 0.7226 v 0 l 0.0741,-0.0147 v 0 l 0.084,-0.0562 v 0 l 0.0562,-0.084 v 0 l 0.0147,-0.0741 v 0 -0.7226 h -0.6272 l 0.0232,-0.0866 v -0.1316 l -0.0232,-0.0866 h 0.6272 v -0.7226 0 l -0.0147,-0.0741 v 0 l -0.0562,-0.084 v 0 l -0.084,-0.0562 v 0 l -0.0741,-0.0147 h -0.7226 v 0.6272 l -0.0866,-0.0232 h -0.1316 l -0.0866,0.0232 v -0.6272 h -0.7226 v 0 l -0.0741,0.0147 v 0 l -0.084,0.0562 v 0 l -0.0562,0.084 v 0 l -0.0147,0.0741 h -7.9247 l -0.008,-0.0564 -0.006,-0.0405 -0.0573,-0.1256 v 0 0 0 l -0.0905,-0.1044 v 0 l -0.1162,-0.0747 v 0 0 l -0.1325,-0.0389 h -0.1381 l -0.1325,0.0389 v 0 0 l -0.1162,0.0747 v 0 l -0.0904,0.1044 v 0 l -0.0574,0.1256 v 0 l -0.0197,0.1367 h -0.3641 l -0.0186,-0.0215 v 0 l -0.1162,-0.0747 v 0 0 l -0.1325,-0.0389 h -0.1382 l -0.1325,0.0389 v 0 0 l -0.1162,0.0747 v 0 l -0.0904,0.1044 v 0 l -0.0574,0.1256 v 0 l -0.0196,0.1367 h -0.6809 l -0.0726,-0.0467 v 0 l -0.0216,-0.006 -0.0296,-0.0239 -0.004,-0.0379 0.002,-0.007 0.0497,-0.1089 0.0196,-0.1367 -0.003,-0.018 -0.0106,-0.0741 -0.006,-0.0446 -0.0574,-0.1256 v 0 0 0 l -0.0904,-0.1044 v 0 l -0.1162,-0.0747 v 0 0 l -0.1325,-0.0389 h -0.1382 l -0.1325,0.0389 v 0 0 l -0.1162,0.0747 v 0 l -0.0482,0.0556 -0.0341,0.0171 -0.0361,-0.0121 -0.005,-0.005 -0.0482,-0.0556 v 0 l -0.1162,-0.0747 v 0 0 l -0.1325,-0.0389 v 0 h -0.0198 l -0.0352,-0.0146 -0.0146,-0.0352 5e-4,-0.007 0.0176,-0.1221 v 0 l -0.013,-0.0904 -0.007,-0.0463 -0.0574,-0.1256 v 0 0 0 l -0.0904,-0.1044 v 0 l -0.1162,-0.0747 v 0 0 l -0.1325,-0.0389 h -0.1381 l -0.1326,0.0389 v 0 0 l -0.1161,0.0747 v 0 l -0.0905,0.1044 v 0 l -0.0574,0.1256 v 0 l -0.0196,0.1367 v 0 l 0.0196,0.1367 v 0 l 0.0574,0.1257 v 0 l 0.0905,0.1043 v 0 l 0.1161,0.0747 v 0 0 l 0.1326,0.0389 h 0.0197 l 0.0352,0.0146 0.0146,0.0352 -5e-4,0.007 -0.0117,0.0818 -0.0195,0.0328 -0.0369,0.009 -0.007,-0.002 -0.0269,-0.008 -0.0196,-0.006 h -0.1382 l -0.1325,0.0389 v 0 0 l -0.1162,0.0747 v 0 l -0.0904,0.1044 v 0 l -0.0574,0.1256 v 0 l -0.0196,0.1367 h -9.7204 l 0.0226,-0.0842 v -0.1316 l -0.0232,-0.0866 h 0.6178 l -0.005,-0.0513 h -1e-4 l -0.0559,-0.1968 -0.0912,-0.1832 v 0 l -0.0879,-0.1163 h 5.06 v 0 l 0.0196,0.1367 v 0 l 0.0574,0.1256 v 0 l 0.0904,0.1044 v 0 l 0.1162,0.0747 v 0 0 l 0.1325,0.0389 v 0 h 0.1382 v 0 l 0.1325,-0.0389 0.1162,-0.0747 0.0904,-0.1044 0.0574,-0.1256 0.0196,-0.1367 -0.0196,-0.1367 -0.0574,-0.1256 v 0 0 0 l -0.0904,-0.1044 v 0 l -0.1162,-0.0747 v 0 0 l -0.1325,-0.0389 h -0.1382 l -0.1325,0.0389 v 0 0 l -0.1162,0.0747 v 0 l -0.0904,0.1044 v 0 l -0.0574,0.1256 v 0 l -0.0196,0.1367 h -5.06 l -0.0354,-0.0469 v 0 l -0.1512,-0.1379 -0.174,-0.1077 -0.1908,-0.0739 -0.151,-0.0282 v 0.6178 l -0.0866,-0.0232 h -0.1316 l -0.0866,0.0232 v -0.6178 0 l -0.151,0.0282 -0.1908,0.0739 -0.174,0.1077 -0.1512,0.1379 v 0 l -0.1233,0.1632 v 0 l -0.0912,0.1832 -0.056,0.1968 v 0 l -0.005,0.0513 h -2.4054 v -1.8594 h 14.9265 v 0 l 0.0197,0.1367 v 0 l 0.0574,0.1257 v 0 l 0.0904,0.1043 v 10e-5 l 0.1162,0.0746 v 0 0 l 0.1325,0.0389 v 0 h 0.1381 v 0 l 0.1325,-0.0389 0.1162,-0.0746 0.0905,-0.1044 0.0574,-0.1257 0.0179,-0.1249 h 3.8195 v 0 l 0.0196,0.1367 v 0 l 0.0574,0.1256 v 0 l 0.0904,0.1044 v 0 l 0.1162,0.0747 v 0 0 l 0.1325,0.0389 v 0 h 0.1382 v 0 l 0.1325,-0.0389 0.1162,-0.0747 0.0904,-0.1044 0.0574,-0.1256 0.0196,-0.1367 -0.0196,-0.1367 -0.0574,-0.1256 v 0 0 0 l -0.0904,-0.1044 v 0 l -0.1162,-0.0747 v 0 0 l -0.1325,-0.0389 h -0.1382 l -0.1325,0.0389 v 0 0 l -0.1162,0.0747 v 0 l -0.0904,0.1044 v 0 l -0.0574,0.1256 v 0 l -0.0196,0.1367 h -3.8195 l 0.002,-0.0118 -0.0196,-0.1367 -0.0574,-0.1256 v 0 0 0 l -0.0905,-0.1044 v 0 l -0.1162,-0.0747 v 0 0 l -0.1325,-0.0389 h -0.1381 l -0.1325,0.0389 v 0 0 l -0.1162,0.0747 v 0 l -0.0904,0.1044 v 0 l -0.0574,0.1256 v 0 l -0.0197,0.1367 h -14.9265 v -1.1437 h 15.0148 v 0 l 0.0196,0.1367 v 0 l 0.0574,0.1256 v 0 l 0.0904,0.1044 v 0 l 0.1162,0.0747 v 0 0 l 0.1325,0.0389 v 0 h 0.1382 v 0 l 0.1325,-0.0389 0.1162,-0.0747 0.0748,-0.0863 h 2.6603 v 0 l 0.0197,0.1367 v 0 l 0.0574,0.1256 v 0 l 0.0904,0.1044 v 0 l 0.1162,0.0747 v 0 0 l 0.1325,0.0389 v 0 h 0.1381 v 0 l 0.1325,-0.0389 0.1162,-0.0747 0.0905,-0.1044 0.0574,-0.1256 0.0196,-0.1367 -0.003,-0.0181 -0.004,-0.0275 -0.0131,-0.0911 -0.0574,-0.1256 v 0 0 0 l -0.0905,-0.1044 v 0 l -0.1162,-0.0747 v 0 0 l -0.1325,-0.0389 h -0.1381 l -0.1325,0.0389 v 0 0 l -0.1162,0.0747 v 0 l -0.0904,0.1044 v 0 l -0.0574,0.1256 v 0 l -0.0197,0.1367 h -2.6603 l 0.0156,-0.0181 0.0574,-0.1256 0.0196,-0.1367 -0.0196,-0.1367 -0.0574,-0.1256 v 0 0 0 l -0.0904,-0.1044 v 0 l -0.1162,-0.0747 v 0 0 l -0.1325,-0.0389 h -0.1382 l -0.1325,0.0389 v 0 0 l -0.1162,0.0747 v 0 l -0.0904,0.1044 v 0 l -0.0574,0.1256 v 0 l -0.0196,0.1367 h -15.0148 v -2.3365 h 9.1227 v 0 l 0.0197,0.1367 v 0 l 0.0573,0.1256 v 0 l 0.0905,0.1044 v 0 l 0.1162,0.0746 v 0 0 l 0.1325,0.039 v 0 h 0.1381 v 0 l 0.1325,-0.039 0.1162,-0.0746 0.0905,-0.1044 0.0573,-0.1256 0.0197,-0.1367 -0.001,-0.008 v 0 h 3.8228 v 0 l 0.0196,0.1367 v 0 l 0.0574,0.1256 v 0 l 0.0904,0.1044 v 0 l 0.1162,0.0747 v 0 0 l 0.1325,0.0389 v 0 h 0.1382 v 0 l 0.1325,-0.0389 0.1162,-0.0747 0.0482,-0.0556 0.034,-0.0171 0.0362,0.0121 0.005,0.005 0.0482,0.0556 v 0 l 0.1162,0.0747 v 0 0 l 0.1325,0.0389 v 0 h 0.1382 v 0 l 0.1325,-0.0389 0.1162,-0.0747 0.0904,-0.1044 0.0574,-0.1256 0.0196,-0.1367 -0.0196,-0.1367 -0.0574,-0.1256 v 0 0 0 l -0.0904,-0.1044 v 0 l -0.1162,-0.0747 v 0 0 l -0.1325,-0.0389 h -0.1382 l -0.1325,0.0389 v 0 0 l -0.1162,0.0747 v 0 l -0.0482,0.0556 -0.034,0.0171 -0.0362,-0.0121 -0.005,-0.005 -0.0482,-0.0556 v 0 l -0.1162,-0.0747 v 0 0 l -0.1325,-0.0389 h -0.1382 l -0.1325,0.0389 v 0 0 l -0.1162,0.0747 v 0 l -0.0904,0.1044 v 0 l -0.0574,0.1256 v 0 l -0.0196,0.1367 h -3.8228 l -0.005,-0.0376 -0.0131,-0.0912 -0.0573,-0.1256 v 0 0 0 l -0.0905,-0.1044 v 0 l -0.1162,-0.0746 v 0 0 l -0.1325,-0.0389 H 135.74 l -0.1325,0.0389 v 0 0 l -0.1162,0.0746 v 0 l -0.0905,0.1044 v 0 l -0.0573,0.1256 v 0 l -0.0197,0.1368 h -9.1227 V 99.05 h 13.9148 v 0 l 0.0196,0.1367 v 0 l 0.0574,0.1256 v 0 l 0.0904,0.1044 v 0 l 0.1162,0.0747 v 0 0 l 0.1325,0.0389 v 0 h 0.1382 v 0 l 0.1325,-0.0389 0.1162,-0.0747 0.0904,-0.1044 0.0574,-0.1256 0.0196,-0.1367 -0.0196,-0.1367 -0.0574,-0.1256 v 0 0 0 l -0.0904,-0.1044 v 0 l -0.1162,-0.0747 v 0 0 l -0.1325,-0.0389 h -0.1382 l -0.1325,0.0389 v 0 0 l -0.1162,0.0747 v 0 l -0.0904,0.1044 v 0 l -0.0574,0.1256 v 0 l -0.0196,0.1367 h -13.9148 v -1.3138 h 11.8148 v 0 l 0.0196,0.1367 v 0 l 0.0574,0.1256 v 0 l 0.0904,0.1044 v 0 l 0.1162,0.0747 v 0 0 l 0.1325,0.0389 h 0.0468 l 0.0352,0.0146 0.0146,0.0352 -5e-4,0.0071 -0.0141,0.098 v 0 l 0.0197,0.1367 v 0 l 0.0573,0.1256 v 0 l 0.0905,0.1044 v 0 l 0.1162,0.0746 v 0 0 l 0.1325,0.039 v 0 h 0.1381 v 0 l 0.1325,-0.039 0.1162,-0.0746 0.0905,-0.1044 0.0573,-0.1256 0.0197,-0.1367 -0.0197,-0.1368 -0.0573,-0.1256 v 0 0 0 l -0.0905,-0.1044 v 0 L 139.2008,97.93 v 0 0 l -0.1325,-0.0389 v 0 h -0.0468 l -0.0352,-0.0146 -0.0146,-0.0352 6e-4,-0.0071 0.014,-0.098 v 0 l -0.006,-0.0456 -0.0131,-0.0911 -0.0574,-0.1256 v 0 0 0 l -0.0904,-0.1044 v 0 l -0.1162,-0.0747 v 0 0 l -0.1325,-0.0389 h -0.1382 L 138.3,97.2948 v 0 0 l -0.1162,0.0747 v 0 l -0.0904,0.1044 v 0 l -0.0574,0.1256 v 0 l -0.0196,0.1367 h -11.8148 v -0.8898 h 9.8137 v 0 l 0.0196,0.1367 v 0 l 0.0574,0.1256 v 0 l 0.0904,0.1044 v 0 l 0.1162,0.0747 v 0 0 l 0.1325,0.0389 v 0 h 0.1382 v 0 l 0.1325,-0.0389 0.1162,-0.0747 0.0904,-0.1044 0.0574,-0.1256 0.0196,-0.1367 v 0 h 5.1296 v 0 l 0.0196,0.1367 v 0 l 0.0574,0.1256 v 0 l 0.0904,0.1044 v 0 l 0.1162,0.0747 v 0 0 l 0.1325,0.0389 v 0 h 0.1382 v 0 l 0.1325,-0.0389 0.1162,-0.0747 0.0904,-0.1044 0.0574,-0.1256 0.0196,-0.1367 -0.0196,-0.1367 -0.0574,-0.1256 v 0 0 0 l -0.0904,-0.1044 v 0 l -0.1162,-0.0747 v 0 0 l -0.1325,-0.0389 h -0.1382 l -0.1325,0.0389 v 0 0 l -0.1162,0.0747 v 0 l -0.0904,0.1044 v 0 l -0.0574,0.1256 v 0 l -0.0196,0.1367 h -5.1296 l -0.0196,-0.1367 -0.0574,-0.1256 v 0 0 0 l -0.0904,-0.1044 v 0 l -0.1162,-0.0747 v 0 0 l -0.1325,-0.0389 h -0.1382 l -0.1325,0.0389 v 0 0 l -0.1162,0.0747 v 0 l -0.0904,0.1044 v 0 l -0.0574,0.1256 v 0 l -0.0196,0.1367 h -9.8137 v -2.4488 h 4.6254 0.6178 l -0.0232,0.0866 v 0.1316 l 0.0232,0.0866 h -0.6178 l 0.005,0.0513 v 0 l 0.056,0.1968 0.0912,0.1832 v 0 l 0.1233,0.1632 v 0 l 0.1512,0.1379 0.174,0.1077 0.1908,0.0739 0.151,0.0282 v 0 -0.6178 l 0.0866,0.0232 h 0.1316 l 0.0866,-0.0232 v 0.6178 l 0.151,-0.0282 0.1908,-0.0739 0.174,-0.1077 0.1512,-0.1379 v 0 l 0.1233,-0.1632 v 0 l 0.0912,-0.1832 0.0559,-0.1968 h 1e-4 l 0.005,-0.0513 h -0.6178 l 0.0232,-0.0866 V 94.55 h 1.0322 l 0.0194,0.1966 0.0574,0.189 0.0931,0.1743 0.1253,0.1527 0.1527,0.1253 0.1742,0.0931 0.1891,0.0574 0.1473,0.0145 0.0493,0.0049 v 0 0 l 0.0448,-0.0045 0.1518,-0.0149 0.189,-0.0574 0.1743,-0.0931 0.1527,-0.1253 0.1253,-0.1527 0.0931,-0.1743 0.0574,-0.189 0.0194,-0.1966 h 0.5244 l 0.0194,0.1966 0.0574,0.189 0.0931,0.1743 0.1253,0.1527 0.1527,0.1253 0.1742,0.0931 0.1891,0.0574 0.1473,0.0145 0.0493,0.0049 v 0 0 l 0.0448,-0.0045 0.1518,-0.0149 0.1891,-0.0574 0.1742,-0.0931 0.1527,-0.1253 0.1253,-0.1527 0.0931,-0.1743 0.0574,-0.189 0.0194,-0.1966 h 0.5244 l 0.0194,0.1966 0.0574,0.189 0.0931,0.1743 0.1253,0.1527 0.1527,0.1253 0.1743,0.0931 0.189,0.0574 0.1473,0.0145 0.0493,0.0049 v 0 0 l 0.0448,-0.0045 0.1518,-0.0149 0.189,-0.0574 0.1743,-0.0931 0.1527,-0.1253 0.1253,-0.1527 0.0931,-0.1743 0.0574,-0.189 0.0194,-0.1966 -0.0151,-0.1524 h 0.4527 0.6178 l -0.0232,0.0866 v 0.1316 l 0.0232,0.0866 h -0.6178 l 0.005,0.0513 v 0 l 0.056,0.1968 0.0912,0.1832 v 0 l 0.1233,0.1632 v 0 l 0.1512,0.1379 0.174,0.1077 0.1908,0.0739 0.151,0.0282 v 0 -0.6178 l 0.0866,0.0232 h 0.1316 l 0.0866,-0.0232 v 0.6178 l 0.151,-0.0282 0.1908,-0.0739 0.174,-0.1077 0.1512,-0.1379 v 0 l 0.1233,-0.1632 v 0 l 0.0912,-0.1832 0.056,-0.1968 v 0 l 0.005,-0.0513 h -0.6178 l 0.0232,-0.0866 v -0.1316 l -0.0232,-0.0866 h 0.6178 0.3508 0.6178 l -0.0232,0.0866 v 0.1316 l 0.0232,0.0866 h -0.6178 l 0.005,0.0513 v 0 l 0.056,0.1968 0.0912,0.1832 v 0 l 0.1233,0.1632 v 0 l 0.1512,0.1379 0.174,0.1077 0.1908,0.0739 0.151,0.0282 v 0 -0.6178 l 0.0866,0.0232 h 0.1316 l 0.0866,-0.0232 v 0.6178 l 0.151,-0.0282 0.1908,-0.0739 0.174,-0.1077 0.1512,-0.1379 v 0 l 0.1233,-0.1632 v 0 l 0.0912,-0.1832 0.0559,-0.1968 h 1e-4 l 0.005,-0.0513 h -0.6178 l 0.0232,-0.0866 V 94.55 h 1.0322 l 0.0194,0.1966 0.0574,0.189 0.0931,0.1743 0.1253,0.1527 0.1527,0.1253 0.1743,0.0931 0.189,0.0574 0.1473,0.0145 0.0493,0.0049 v 0 0 l 0.0448,-0.0045 0.1518,-0.0149 0.1891,-0.0574 0.1742,-0.0931 0.1527,-0.1253 0.1253,-0.1527 0.0931,-0.1743 0.0574,-0.189 0.0194,-0.1966 h 0.5244 l 0.0194,0.1966 0.0574,0.189 0.0931,0.1743 0.1253,0.1527 0.1527,0.1253 0.1742,0.0931 0.1891,0.0574 0.1473,0.0145 0.0493,0.0049 v 0 0 l 0.0448,-0.0045 0.1518,-0.0149 0.189,-0.0574 0.1743,-0.0931 0.1527,-0.1253 0.1253,-0.1527 0.0931,-0.1743 0.0574,-0.189 0.0194,-0.1966 h 0.5244 l 0.0194,0.1966 0.0574,0.189 0.0931,0.1743 0.1253,0.1527 0.1527,0.1253 0.1742,0.0931 0.1891,0.0574 0.1473,0.0145 0.0493,0.0049 v 0 0 l 0.0448,-0.0045 0.1518,-0.0149 0.189,-0.0574 0.1743,-0.0931 0.1527,-0.1253 0.1253,-0.1527 0.0931,-0.1743 0.0574,-0.189 0.0194,-0.1966 -0.0194,-0.1966 -0.0574,-0.1891 -0.0931,-0.1742 -0.1253,-0.1527 -0.1527,-0.1253 -0.0508,-0.0272 h 1.028 v 1.7301 10e-5 l 0.009,0.0446 v 0 l 0.0338,0.0505 v 0 l 0.0505,0.0338 0.0446,0.0089 h 1.7302 l 0.0446,-0.0089 0.0505,-0.0338 0.0338,-0.0505 0.009,-0.0446 v -1.7302 l -0.009,-0.0446 v 0 0 l -0.0338,-0.0505 v 0 l -0.0505,-0.0338 -0.0446,-0.0089 v 0 h -1.7302 v 0 l -0.0334,0.0067 -0.0112,0.0022 v 0 0 l -0.0505,0.0338 v 0 l -0.0338,0.0505 v 0 l -0.009,0.0446 h -1.028 l -0.1235,-0.0659 -0.189,-0.0574 -0.1966,-0.0194 v 0 l -0.1966,0.0194 -0.0823,0.025 -0.1068,0.0324 v 0 0 l -0.0865,0.0462 -0.0877,0.0469 v 0 0 l -0.1527,0.1253 -0.1253,0.1527 -0.0931,0.1742 v 0 0 l -0.0574,0.1891 -0.0194,0.1966 h -0.5244 l -0.0194,-0.1966 -0.0574,-0.1891 -0.0931,-0.1742 -0.1253,-0.1527 -0.1527,-0.1253 -0.1743,-0.0931 -0.189,-0.0574 -0.1966,-0.0194 v 0 l -0.1966,0.0194 -0.0823,0.025 -0.1068,0.0324 v 0 0 l -0.0865,0.0462 -0.0877,0.0469 v 0 0 l -0.1527,0.1253 -0.1253,0.1527 -0.0931,0.1742 v 0 0 l -0.0574,0.1891 -0.0194,0.1966 h -0.5244 l -0.0194,-0.1966 -0.0574,-0.1891 -0.0931,-0.1742 -0.1253,-0.1527 -0.1527,-0.1253 -0.1742,-0.0931 -0.1891,-0.0574 -0.1966,-0.0194 v 0 l -0.1966,0.0194 -0.0823,0.025 -0.1067,0.0324 h -1e-4 v 0 l -0.0865,0.0462 -0.0877,0.0469 v 0 0 l -0.1527,0.1253 -0.1253,0.1527 -0.0931,0.1742 v 0 0 l -0.0574,0.1891 -0.0194,0.1966 h -1.0322 v -0.0658 l -0.0232,-0.0866 h 0.6178 l -0.005,-0.0513 h -1e-4 l -0.0559,-0.1968 -0.0912,-0.1832 v 0 l -0.1233,-0.1632 v 0 l -0.1512,-0.1379 -0.174,-0.1077 -0.1908,-0.0739 -0.151,-0.0282 v 0.6178 L 144.6869,94.05 h -0.1316 l -0.0866,0.0232 v -0.6178 0 l -0.151,0.0282 -0.1908,0.0739 -0.174,0.1077 -0.1512,0.1379 v 0 l -0.1233,0.1632 v 0 l -0.0912,0.1832 -0.056,0.1968 v 0 l -0.005,0.0513 h -0.3508 l -0.005,-0.0513 v 0 l -0.056,-0.1968 -0.0912,-0.1832 v 0 l -0.1233,-0.1632 v 0 l -0.1512,-0.1379 -0.174,-0.1077 -0.1908,-0.0739 -0.151,-0.0282 v 0.6178 l -0.086,-0.0232 h -0.1316 l -0.0866,0.0232 v -0.6178 0 l -0.151,0.0282 -0.1908,0.0739 -0.174,0.1077 -0.1512,0.1379 v 0 l -0.1233,0.1632 v 0 l -0.0912,0.1832 -0.056,0.1968 v 0 l -0.005,0.0513 h -0.4527 l -0.004,-0.0442 -0.0574,-0.1891 -0.0931,-0.1742 -0.1253,-0.1527 -0.1527,-0.1253 -0.1743,-0.0931 -0.189,-0.0574 -0.1966,-0.0194 v 0 l -0.1966,0.0194 -0.0823,0.025 -0.1067,0.0324 h -1e-4 v 0 l -0.0865,0.0462 -0.0877,0.0469 v 0 0 l -0.1527,0.1253 -0.1253,0.1527 -0.0931,0.1742 v 0 0 l -0.0574,0.1891 -0.0194,0.1966 h -0.5244 l -0.0194,-0.1966 -0.0574,-0.1891 -0.0931,-0.1742 -0.1253,-0.1527 -0.1527,-0.1253 -0.1742,-0.0931 -0.1891,-0.0574 -0.1966,-0.0194 v 0 l -0.1966,0.0194 -0.0823,0.025 -0.1068,0.0324 v 0 0 l -0.0865,0.0462 -0.0877,0.0469 v 0 0 l -0.1527,0.1253 -0.1253,0.1527 -0.0931,0.1742 v 0 0 l -0.0574,0.1891 -0.0194,0.1966 h -0.5244 l -0.0194,-0.1966 -0.0574,-0.1891 -0.0931,-0.1742 -0.1253,-0.1527 -0.1527,-0.1253 -0.1743,-0.0931 -0.189,-0.0574 -0.1966,-0.0194 v 0 l -0.1966,0.0194 -0.0823,0.025 -0.1068,0.0324 v 0 0 l -0.0865,0.0462 -0.0877,0.0469 v 0 0 l -0.1527,0.1253 -0.1253,0.1527 -0.0931,0.1742 v 0 0 l -0.0574,0.1891 -0.0194,0.1966 h -1.0322 v -0.0658 l -0.0232,-0.0866 h 0.6178 l -0.005,-0.0513 h -1e-4 l -0.0559,-0.1968 -0.0912,-0.1832 v 0 l -0.1233,-0.1632 v 0 l -0.1512,-0.1379 -0.174,-0.1077 -0.1908,-0.0739 -0.151,-0.0282 v 0.6178 L 131.9869,94.05 h -0.1316 l -0.0866,0.0232 v -0.6178 0 l -0.151,0.0282 -0.1908,0.0739 -0.174,0.1077 -0.1512,0.1379 v 0 l -0.1233,0.1632 v 0 l -0.0912,0.1832 -0.056,0.1968 v 0 l -0.005,0.0513 h -4.6254 V 92.01 h 4.7122 l 0.0194,0.1966 0.0574,0.189 0.0931,0.1743 0.1253,0.1527 0.1527,0.1253 0.1742,0.0931 0.1891,0.0574 0.1481,0.0146 0.0485,0.0048 v 0 0 l 0.0448,-0.0045 0.1518,-0.0149 0.189,-0.0574 0.1743,-0.0931 0.1527,-0.1253 0.1253,-0.1527 0.0931,-0.1743 0.0574,-0.189 0.0194,-0.1966 h 0.5244 l 0.0194,0.1966 0.0574,0.189 0.0931,0.1743 0.1253,0.1527 0.1527,0.1253 0.1742,0.0931 0.1891,0.0574 0.1481,0.0146 0.0485,0.0048 v 0 0 l 0.0448,-0.0045 0.1518,-0.0149 0.189,-0.0574 0.1743,-0.0931 0.1527,-0.1253 0.1253,-0.1527 0.0931,-0.1743 0.0574,-0.189 0.0194,-0.1966 h 0.5244 l 0.0194,0.1966 0.0574,0.189 0.0931,0.1743 0.1253,0.1527 0.1527,0.1253 0.1742,0.0931 0.1891,0.0574 0.1481,0.0146 0.0485,0.0048 v 0 0 l 0.0448,-0.0045 0.1518,-0.0149 0.1891,-0.0574 0.1742,-0.0931 0.1527,-0.1253 0.1253,-0.1527 0.0931,-0.1743 0.0574,-0.189 0.0194,-0.1966 h 0.5244 l 0.0194,0.1966 0.0574,0.189 0.0931,0.1743 0.1253,0.1527 0.1527,0.1253 0.1743,0.0931 0.189,0.0574 0.1481,0.0146 0.0485,0.0048 v 0 0 l 0.0448,-0.0045 0.1518,-0.0149 0.189,-0.0574 0.1743,-0.0931 0.1527,-0.1253 0.1253,-0.1527 0.0931,-0.1743 0.0574,-0.189 0.0194,-0.1966 h 0.5244 l 0.0194,0.1966 0.0574,0.189 0.0931,0.1743 0.1253,0.1527 0.1527,0.1253 0.1742,0.0931 0.1891,0.0574 0.1481,0.0146 0.0485,0.0048 v 0 0 l 0.0448,-0.0045 0.1518,-0.0149 0.189,-0.0574 0.1743,-0.0931 0.1527,-0.1253 0.1253,-0.1527 0.0931,-0.1743 0.0574,-0.189 0.0194,-0.1966 h 0.5244 l 0.0194,0.1966 0.0574,0.189 0.0931,0.1743 0.1253,0.1527 0.1527,0.1253 0.1742,0.0931 0.1891,0.0574 0.1481,0.0146 0.0485,0.0048 v 0 0 l 0.0448,-0.0045 0.1518,-0.0149 0.189,-0.0574 0.1743,-0.0931 0.1527,-0.1253 0.1253,-0.1527 0.0931,-0.1743 0.0574,-0.189 0.0194,-0.1966 -0.0151,-0.1524 h 0.4527 0.6178 l -0.0232,0.0866 v 0.1316 l 0.0232,0.0866 h -0.6178 l 0.005,0.0513 v 0 l 0.056,0.1968 0.0912,0.1832 v 0 l 0.1233,0.1632 v 0 l 0.1512,0.1379 0.174,0.1077 0.1908,0.0739 0.151,0.0282 v 0 -0.6178 l 0.0866,0.0232 h 0.1316 l 0.0866,-0.0232 v 0.6178 l 0.151,-0.0282 0.1908,-0.0739 0.174,-0.1077 0.1512,-0.1379 v 0 l 0.1233,-0.1632 v 0 l 0.0912,-0.1832 0.0559,-0.1968 h 1e-4 l 0.005,-0.0513 h -0.6178 l 0.0232,-0.0866 v -0.1316 l -0.0232,-0.0866 h 0.6178 0.3508 0.6178 l -0.0232,0.0866 v 0.1316 l 0.0232,0.0866 h -0.6178 l 0.005,0.0513 v 0 l 0.056,0.1968 0.0912,0.1832 v 0 l 0.1233,0.1632 v 0 l 0.1512,0.1379 0.174,0.1077 0.1908,0.0739 0.151,0.0282 v 0 -0.6178 l 0.0866,0.0232 h 0.1316 l 0.0866,-0.0232 v 0.6178 l 0.151,-0.0282 0.1908,-0.0739 0.174,-0.1077 0.1512,-0.1379 v 0 l 0.1233,-0.1632 v 0 l 0.0912,-0.1832 0.0559,-0.1968 h 10e-5 l 0.005,-0.0513 h -0.6178 l 0.0232,-0.0866 v -0.1316 l -0.0232,-0.0866 h 0.6178 0.3508 0.6178 l -0.0232,0.0866 v 0.1316 l 0.0232,0.0866 h -0.6178 l 0.005,0.0513 v 0 l 0.056,0.1968 0.0912,0.1832 v 0 l 0.1233,0.1632 v 0 l 0.1512,0.1379 0.174,0.1077 0.1908,0.0739 0.151,0.0282 v 0 -0.6178 l 0.0866,0.0232 h 0.1316 l 0.0866,-0.0232 v 0.6178 l 0.151,-0.0282 0.1908,-0.0739 0.174,-0.1077 0.1512,-0.1379 v 0 l 0.1233,-0.1632 v 0 l 0.0912,-0.1832 0.056,-0.1968 v 0 l 0.005,-0.0513 h -0.6178 l 0.0232,-0.0866 V 92.01 h 1.0322 l 0.0194,0.1966 0.0574,0.189 0.0931,0.1743 0.1253,0.1527 0.1527,0.1253 0.1742,0.0931 0.1891,0.0574 0.1481,0.0146 0.0485,0.0048 v 0 0 l 0.0448,-0.0045 0.1518,-0.0149 0.189,-0.0574 0.1743,-0.0931 0.1527,-0.1253 0.1253,-0.1527 0.0931,-0.1743 0.0574,-0.189 0.0194,-0.1966 -0.0194,-0.1966 -0.0574,-0.1891 -0.0931,-0.1742 -0.1253,-0.1527 -0.1527,-0.1253 -0.1743,-0.0931 -0.189,-0.0574 -0.1966,-0.0194 v 0 l -0.1966,0.0194 -0.0823,0.025 -0.1068,0.0324 v 0 0 l -0.0865,0.0462 -0.0877,0.0469 v 0 0 l -0.1527,0.1253 -0.1253,0.1527 -0.0931,0.1742 v 0 0 l -0.0574,0.1891 -0.0194,0.1966 h -1.0322 v -0.0658 l -0.0232,-0.0866 h 0.6178 l -0.005,-0.0513 v 0 l -0.056,-0.1968 -0.0912,-0.1832 v 0 l -0.1233,-0.1632 v 0 l -0.1512,-0.1379 -0.174,-0.1077 -0.1908,-0.0739 -0.151,-0.0282 v 0.6178 L 152.3069,91.51 h -0.1316 l -0.0866,0.0232 v -0.6178 0 l -0.151,0.0282 -0.1908,0.0739 -0.174,0.1077 -0.1512,0.1379 v 0 l -0.1233,0.1632 v 0 l -0.0912,0.1832 -0.056,0.1968 v 0 l -0.005,0.0513 h -0.3508 l -0.005,-0.0513 h -1e-4 l -0.0559,-0.1968 -0.0912,-0.1832 v 0 l -0.1233,-0.1632 v 0 l -0.1512,-0.1379 -0.174,-0.1077 -0.1908,-0.0739 -0.151,-0.0282 v 0.6178 l -0.086,-0.0232 h -0.1316 l -0.0866,0.0232 v -0.6178 0 l -0.151,0.0282 -0.1908,0.0739 -0.174,0.1077 -0.1512,0.1379 v 0 l -0.1233,0.1632 v 0 l -0.0912,0.1832 -0.056,0.1968 v 0 l -0.005,0.0513 h -0.3508 l -0.005,-0.0513 h -1e-4 l -0.0559,-0.1968 -0.0912,-0.1832 v 0 l -0.1233,-0.1632 v 0 l -0.1512,-0.1379 -0.174,-0.1077 -0.1908,-0.0739 -0.151,-0.0282 v 0.6178 l -0.086,-0.0232 h -0.1316 l -0.0866,0.0232 v -0.6178 0 l -0.151,0.0282 -0.1908,0.0739 -0.174,0.1077 -0.1512,0.1379 v 0 l -0.1233,0.1632 v 0 l -0.0912,0.1832 -0.056,0.1968 v 0 l -0.005,0.0513 h -0.4527 l -0.004,-0.0442 -0.0574,-0.1891 -0.0931,-0.1742 -0.1253,-0.1527 -0.1527,-0.1253 -0.1743,-0.0931 -0.189,-0.0574 -0.1966,-0.0194 v 0 l -0.1966,0.0194 -0.0823,0.025 -0.1068,0.0324 v 0 0 l -0.0865,0.0462 -0.0877,0.0469 v 0 0 l -0.1527,0.1253 -0.1253,0.1527 -0.0931,0.1742 v 0 0 l -0.0574,0.1891 -0.0194,0.1966 h -0.5244 l -0.0194,-0.1966 -0.0574,-0.1891 -0.0931,-0.1742 -0.1253,-0.1527 -0.1527,-0.1253 -0.1743,-0.0931 -0.189,-0.0574 -0.1966,-0.0194 v 0 l -0.1966,0.0194 -0.0823,0.025 -0.1068,0.0324 v 0 0 l -0.0865,0.0462 -0.0877,0.0469 v 0 0 l -0.1527,0.1253 -0.1253,0.1527 -0.0931,0.1742 v 0 0 l -0.0574,0.1891 -0.0194,0.1966 h -0.5244 l -0.0194,-0.1966 -0.0574,-0.1891 -0.0931,-0.1742 -0.1253,-0.1527 -0.1527,-0.1253 -0.1743,-0.0931 -0.189,-0.0574 -0.1966,-0.0194 v 0 l -0.1966,0.0194 -0.0823,0.025 -0.1067,0.0324 h -1e-4 v 0 l -0.0865,0.0462 -0.0877,0.0469 v 0 0 l -0.1527,0.1253 -0.1253,0.1527 -0.0931,0.1742 v 0 0 l -0.0574,0.1891 -0.0194,0.1966 h -0.5244 l -0.0194,-0.1966 -0.0574,-0.1891 -0.0931,-0.1742 -0.1253,-0.1527 -0.1527,-0.1253 -0.1742,-0.0931 -0.1891,-0.0574 -0.1966,-0.0194 v 0 l -0.1966,0.0194 -0.0823,0.025 -0.1068,0.0324 v 0 0 l -0.0865,0.0462 -0.0877,0.0469 v 0 0 l -0.1527,0.1253 -0.1253,0.1527 -0.0931,0.1742 v 0 0 l -0.0574,0.1891 -0.0194,0.1966 h -0.5244 l -0.0194,-0.1966 -0.0574,-0.1891 -0.0931,-0.1742 -0.1253,-0.1527 -0.1527,-0.1253 -0.1743,-0.0931 -0.189,-0.0574 -0.1966,-0.0194 v 0 l -0.1966,0.0194 -0.0823,0.025 -0.1068,0.0324 v 0 0 l -0.0865,0.0462 -0.0877,0.0469 v 0 0 l -0.1527,0.1253 -0.1253,0.1527 -0.0931,0.1742 v 0 0 l -0.0574,0.1891 -0.0194,0.1966 h -0.5244 l -0.0194,-0.1966 -0.0574,-0.1891 -0.0931,-0.1742 -0.1253,-0.1527 -0.1527,-0.1253 -0.1743,-0.0931 -0.189,-0.0574 -0.1966,-0.0194 v 0 l -0.1966,0.0194 -0.0823,0.025 -0.1068,0.0324 v 0 0 l -0.0865,0.0462 -0.0877,0.0469 v 0 0 l -0.1527,0.1253 -0.1253,0.1527 -0.0931,0.1742 v 0 0 l -0.0574,0.1891 -0.0194,0.1966 h -4.7122 v -1.6557 l 0.0146,-0.0352 0.0352,-0.0146 h 29.9993 z"
       id="path11007" />
  </g>
</svg>
