<?xml version="1.0" encoding="UTF-8" standalone="no"?>
<svg
   version="1.1"
   width="30.0989mm"
   height="33.691002mm"
   viewBox="0 0 30.0989 33.691002"
   id="svg11880"
   sodipodi:docname="max2771_fx2lp-In2_Cu.svg"
   inkscape:version="1.2.2 (b0a8486541, 2022-12-01)"
   xmlns:inkscape="http://www.inkscape.org/namespaces/inkscape"
   xmlns:sodipodi="http://sodipodi.sourceforge.net/DTD/sodipodi-0.dtd"
   xmlns="http://www.w3.org/2000/svg"
   xmlns:svg="http://www.w3.org/2000/svg">
  <defs
     id="defs11884" />
  <sodipodi:namedview
     id="namedview11882"
     pagecolor="#ffffff"
     bordercolor="#000000"
     borderopacity="0.25"
     inkscape:showpageshadow="2"
     inkscape:pageopacity="0.0"
     inkscape:pagecheckerboard="0"
     inkscape:deskcolor="#d1d1d1"
     inkscape:document-units="mm"
     showgrid="false"
     inkscape:zoom="0.29733107"
     inkscape:cx="-68.946713"
     inkscape:cy="57.175323"
     inkscape:window-width="1024"
     inkscape:window-height="723"
     inkscape:window-x="-5"
     inkscape:window-y="-5"
     inkscape:window-maximized="1"
     inkscape:current-layer="svg11880" />
  <title
     id="title11134">SVG Image created as max2771_fx2lp-In2_Cu.svg date 2024/06/13 14:42:13 </title>
  <desc
     id="desc11136">Image generated by PCBNEW </desc>
  <g
     style="fill:#000000;fill-opacity:1;stroke:#000000;stroke-linecap:round;stroke-linejoin:round;stroke-opacity:1"
     id="g11140"
     transform="translate(-126.2011,-90.3045)">
    <path
       style="fill:#ce7d2c;fill-opacity:1;fill-rule:evenodd;stroke:none"
       d="m 153.9111,121.7 h 1.7 v 1.7 h -1.7 z"
       id="path11138" />
  </g>
  <g
     style="fill:#ce7d2c;fill-opacity:1;stroke:none"
     id="g11186"
     transform="translate(-126.2011,-90.3045)">
    <circle
       cx="154.76109"
       cy="120.01"
       r="0.85000002"
       id="circle11142" />
    <circle
       cx="152.2211"
       cy="122.55"
       r="0.85000002"
       id="circle11144" />
    <circle
       cx="152.2211"
       cy="120.01"
       r="0.85000002"
       id="circle11146" />
    <circle
       cx="149.68111"
       cy="122.55"
       r="0.85000002"
       id="circle11148" />
    <circle
       cx="149.68111"
       cy="120.01"
       r="0.85000002"
       id="circle11150" />
    <circle
       cx="147.1411"
       cy="122.55"
       r="0.85000002"
       id="circle11152" />
    <circle
       cx="147.1411"
       cy="120.01"
       r="0.85000002"
       id="circle11154" />
    <circle
       cx="144.6011"
       cy="122.55"
       r="0.85000002"
       id="circle11156" />
    <circle
       cx="144.6011"
       cy="120.01"
       r="0.85000002"
       id="circle11158" />
    <circle
       cx="142.0611"
       cy="122.55"
       r="0.85000002"
       id="circle11160" />
    <circle
       cx="142.0611"
       cy="120.01"
       r="0.85000002"
       id="circle11162" />
    <circle
       cx="139.5211"
       cy="122.55"
       r="0.85000002"
       id="circle11164" />
    <circle
       cx="139.5211"
       cy="120.01"
       r="0.85000002"
       id="circle11166" />
    <circle
       cx="136.98109"
       cy="122.55"
       r="0.85000002"
       id="circle11168" />
    <circle
       cx="136.98109"
       cy="120.01"
       r="0.85000002"
       id="circle11170" />
    <circle
       cx="134.4411"
       cy="122.55"
       r="0.85000002"
       id="circle11172" />
    <circle
       cx="134.4411"
       cy="120.01"
       r="0.85000002"
       id="circle11174" />
    <circle
       cx="131.90109"
       cy="122.55"
       r="0.85000002"
       id="circle11176" />
    <circle
       cx="131.90109"
       cy="120.01"
       r="0.85000002"
       id="circle11178" />
    <path
       style="fill:#ce7d2c;fill-opacity:1;fill-rule:evenodd;stroke:none"
       d="m 130.5511,107.34 v 1.7 h -1.7 v -1.7 z"
       id="path11180" />
    <circle
       cx="129.7011"
       cy="105.65"
       r="0.85000002"
       id="circle11182" />
    <circle
       cx="139.5011"
       cy="103.65"
       r="0.42899999"
       id="circle11184" />
  </g>
  <g
     style="fill:#ce7d2c;fill-opacity:1;stroke:none"
     id="g11190"
     transform="translate(-126.2011,-90.3045)">
    <circle
       cx="139.5011"
       cy="102.55"
       r="0.42899999"
       id="circle11188" />
  </g>
  <g
     style="fill:#ce7d2c;fill-opacity:1;stroke:none"
     id="g11194"
     transform="translate(-126.2011,-90.3045)">
    <circle
       cx="139.5011"
       cy="101.45"
       r="0.42899999"
       id="circle11192" />
  </g>
  <g
     style="fill:#ce7d2c;fill-opacity:1;stroke:none"
     id="g11198"
     transform="translate(-126.2011,-90.3045)">
    <circle
       cx="138.40109"
       cy="103.65"
       r="0.42899999"
       id="circle11196" />
  </g>
  <g
     style="fill:#ce7d2c;fill-opacity:1;stroke:none"
     id="g11202"
     transform="translate(-126.2011,-90.3045)">
    <circle
       cx="138.40109"
       cy="102.55"
       r="0.42899999"
       id="circle11200" />
  </g>
  <g
     style="fill:#ce7d2c;fill-opacity:1;stroke:none"
     id="g11206"
     transform="translate(-126.2011,-90.3045)">
    <circle
       cx="138.40109"
       cy="101.45"
       r="0.42899999"
       id="circle11204" />
  </g>
  <g
     style="fill:#ce7d2c;fill-opacity:1;stroke:none"
     id="g11210"
     transform="translate(-126.2011,-90.3045)">
    <circle
       cx="137.3011"
       cy="103.65"
       r="0.42899999"
       id="circle11208" />
  </g>
  <g
     style="fill:#ce7d2c;fill-opacity:1;stroke:none"
     id="g11214"
     transform="translate(-126.2011,-90.3045)">
    <circle
       cx="137.3011"
       cy="102.55"
       r="0.42899999"
       id="circle11212" />
  </g>
  <g
     style="fill:#ce7d2c;fill-opacity:1;stroke:none"
     id="g11218"
     transform="translate(-126.2011,-90.3045)">
    <circle
       cx="137.3011"
       cy="101.45"
       r="0.42899999"
       id="circle11216" />
  </g>
  <g
     style="fill:#ce7d2c;fill-opacity:1;stroke:none"
     id="g11222"
     transform="translate(-126.2011,-90.3045)">
    <circle
       cx="142.5011"
       cy="110.55"
       r="0.42899999"
       id="circle11220" />
  </g>
  <g
     style="fill:#ce7d2c;fill-opacity:1;stroke:none"
     id="g11226"
     transform="translate(-126.2011,-90.3045)">
    <circle
       cx="142.5011"
       cy="109.45"
       r="0.42899999"
       id="circle11224" />
  </g>
  <g
     style="fill:#ce7d2c;fill-opacity:1;stroke:none"
     id="g11230"
     transform="translate(-126.2011,-90.3045)">
    <circle
       cx="142.5011"
       cy="108.35"
       r="0.42899999"
       id="circle11228" />
  </g>
  <g
     style="fill:#ce7d2c;fill-opacity:1;stroke:none"
     id="g11234"
     transform="translate(-126.2011,-90.3045)">
    <circle
       cx="141.40109"
       cy="110.55"
       r="0.42899999"
       id="circle11232" />
  </g>
  <g
     style="fill:#ce7d2c;fill-opacity:1;stroke:none"
     id="g11238"
     transform="translate(-126.2011,-90.3045)">
    <circle
       cx="141.40109"
       cy="109.45"
       r="0.42899999"
       id="circle11236" />
  </g>
  <g
     style="fill:#ce7d2c;fill-opacity:1;stroke:none"
     id="g11242"
     transform="translate(-126.2011,-90.3045)">
    <circle
       cx="141.40109"
       cy="108.35"
       r="0.42899999"
       id="circle11240" />
  </g>
  <g
     style="fill:#ce7d2c;fill-opacity:1;stroke:none"
     id="g11246"
     transform="translate(-126.2011,-90.3045)">
    <circle
       cx="140.3011"
       cy="110.55"
       r="0.42899999"
       id="circle11244" />
  </g>
  <g
     style="fill:#ce7d2c;fill-opacity:1;stroke:none"
     id="g11250"
     transform="translate(-126.2011,-90.3045)">
    <circle
       cx="140.3011"
       cy="109.45"
       r="0.42899999"
       id="circle11248" />
  </g>
  <g
     style="fill:#ce7d2c;fill-opacity:1;stroke:none"
     id="g11256"
     transform="translate(-126.2011,-90.3045)">
    <circle
       cx="140.3011"
       cy="108.35"
       r="0.42899999"
       id="circle11252" />
    <path
       style="fill:#ce7d2c;fill-opacity:1;fill-rule:evenodd;stroke:none"
       d="m 153.9311,93.7 h 1.7 v 1.7 h -1.7 z"
       id="path11254" />
  </g>
  <g
     style="fill:#ce7d2c;fill-opacity:1;stroke:none"
     id="g11306"
     transform="translate(-126.2011,-90.3045)">
    <circle
       cx="154.7811"
       cy="92.010002"
       r="0.85000002"
       id="circle11258" />
    <circle
       cx="152.2411"
       cy="94.550003"
       r="0.85000002"
       id="circle11260" />
    <circle
       cx="152.2411"
       cy="92.010002"
       r="0.85000002"
       id="circle11262" />
    <circle
       cx="149.7011"
       cy="94.550003"
       r="0.85000002"
       id="circle11264" />
    <circle
       cx="149.7011"
       cy="92.010002"
       r="0.85000002"
       id="circle11266" />
    <circle
       cx="147.1611"
       cy="94.550003"
       r="0.85000002"
       id="circle11268" />
    <circle
       cx="147.1611"
       cy="92.010002"
       r="0.85000002"
       id="circle11270" />
    <circle
       cx="144.62109"
       cy="94.550003"
       r="0.85000002"
       id="circle11272" />
    <circle
       cx="144.62109"
       cy="92.010002"
       r="0.85000002"
       id="circle11274" />
    <circle
       cx="142.0811"
       cy="94.550003"
       r="0.85000002"
       id="circle11276" />
    <circle
       cx="142.0811"
       cy="92.010002"
       r="0.85000002"
       id="circle11278" />
    <circle
       cx="139.54111"
       cy="94.550003"
       r="0.85000002"
       id="circle11280" />
    <circle
       cx="139.54111"
       cy="92.010002"
       r="0.85000002"
       id="circle11282" />
    <circle
       cx="137.0011"
       cy="94.550003"
       r="0.85000002"
       id="circle11284" />
    <circle
       cx="137.0011"
       cy="92.010002"
       r="0.85000002"
       id="circle11286" />
    <circle
       cx="134.46111"
       cy="94.550003"
       r="0.85000002"
       id="circle11288" />
    <circle
       cx="134.46111"
       cy="92.010002"
       r="0.85000002"
       id="circle11290" />
    <circle
       cx="131.9211"
       cy="94.550003"
       r="0.85000002"
       id="circle11292" />
    <circle
       cx="131.9211"
       cy="92.010002"
       r="0.85000002"
       id="circle11294" />
    <path
       style="fill:#ce7d2c;fill-opacity:1;fill-rule:evenodd;stroke:none"
       d="m 153.4011,107.04 v -1.7 h 1.7 v 1.7 z"
       id="path11296" />
    <circle
       cx="154.2511"
       cy="108.73"
       r="0.85000002"
       id="circle11298" />
    <circle
       cx="154.2511"
       cy="111.27"
       r="0.85000002"
       id="circle11300" />
    <circle
       cx="154.2511"
       cy="113.81"
       r="0.85000002"
       id="circle11302" />
    <circle
       cx="154.2511"
       cy="116.35"
       r="0.85000002"
       id="circle11304" />
  </g>
  <g
     style="fill:#ececec;fill-opacity:1;stroke:none"
     id="g11310"
     transform="translate(-126.2011,-90.3045)">
    <circle
       cx="133.7011"
       cy="107.65"
       r="0.3274"
       id="circle11308" />
  </g>
  <g
     style="fill:#ececec;fill-opacity:1;stroke:none"
     id="g11314"
     transform="translate(-126.2011,-90.3045)">
    <circle
       cx="134.5011"
       cy="109"
       r="0.3274"
       id="circle11312" />
  </g>
  <g
     style="fill:#ececec;fill-opacity:1;stroke:none"
     id="g11318"
     transform="translate(-126.2011,-90.3045)">
    <circle
       cx="133.6011"
       cy="104.25"
       r="0.3274"
       id="circle11316" />
  </g>
  <g
     style="fill:#ececec;fill-opacity:1;stroke:none"
     id="g11322"
     transform="translate(-126.2011,-90.3045)">
    <circle
       cx="132.3011"
       cy="100.85"
       r="0.3274"
       id="circle11320" />
  </g>
  <g
     style="fill:#ececec;fill-opacity:1;stroke:none"
     id="g11326"
     transform="translate(-126.2011,-90.3045)">
    <circle
       cx="130.8011"
       cy="117.85"
       r="0.3274"
       id="circle11324" />
  </g>
  <g
     style="fill:#ececec;fill-opacity:1;stroke:none"
     id="g11330"
     transform="translate(-126.2011,-90.3045)">
    <circle
       cx="134.90109"
       cy="115.4"
       r="0.3274"
       id="circle11328" />
  </g>
  <g
     style="fill:#ececec;fill-opacity:1;stroke:none"
     id="g11334"
     transform="translate(-126.2011,-90.3045)">
    <circle
       cx="136.15109"
       cy="109.05"
       r="0.3274"
       id="circle11332" />
  </g>
  <g
     style="fill:#ececec;fill-opacity:1;stroke:none"
     id="g11338"
     transform="translate(-126.2011,-90.3045)">
    <circle
       cx="132.3407"
       cy="117.0673"
       r="0.3274"
       id="circle11336" />
  </g>
  <g
     style="fill:#ececec;fill-opacity:1;stroke:none"
     id="g11342"
     transform="translate(-126.2011,-90.3045)">
    <circle
       cx="139.90109"
       cy="114.05"
       r="0.3274"
       id="circle11340" />
  </g>
  <g
     style="fill:#ececec;fill-opacity:1;stroke:none"
     id="g11346"
     transform="translate(-126.2011,-90.3045)">
    <circle
       cx="132.40109"
       cy="109.95"
       r="0.3274"
       id="circle11344" />
  </g>
  <g
     style="fill:#ececec;fill-opacity:1;stroke:none"
     id="g11350"
     transform="translate(-126.2011,-90.3045)">
    <circle
       cx="143.8511"
       cy="98.900002"
       r="0.3274"
       id="circle11348" />
  </g>
  <g
     style="fill:#ececec;fill-opacity:1;stroke:none"
     id="g11354"
     transform="translate(-126.2011,-90.3045)">
    <circle
       cx="132.3727"
       cy="117.9634"
       r="0.3274"
       id="circle11352" />
  </g>
  <g
     style="fill:#ececec;fill-opacity:1;stroke:none"
     id="g11358"
     transform="translate(-126.2011,-90.3045)">
    <circle
       cx="134.5011"
       cy="108.15"
       r="0.3274"
       id="circle11356" />
  </g>
  <g
     style="fill:#ececec;fill-opacity:1;stroke:none"
     id="g11362"
     transform="translate(-126.2011,-90.3045)">
    <circle
       cx="130.7011"
       cy="100.85"
       r="0.3274"
       id="circle11360" />
  </g>
  <g
     style="fill:#ececec;fill-opacity:1;stroke:none"
     id="g11366"
     transform="translate(-126.2011,-90.3045)">
    <circle
       cx="150.40109"
       cy="107.15"
       r="0.3274"
       id="circle11364" />
  </g>
  <g
     style="fill:#ececec;fill-opacity:1;stroke:none"
     id="g11370"
     transform="translate(-126.2011,-90.3045)">
    <circle
       cx="133.5011"
       cy="115.85"
       r="0.3274"
       id="circle11368" />
  </g>
  <g
     style="fill:#ececec;fill-opacity:1;stroke:none"
     id="g11374"
     transform="translate(-126.2011,-90.3045)">
    <circle
       cx="141.2011"
       cy="98.349998"
       r="0.3274"
       id="circle11372" />
  </g>
  <g
     style="fill:#ececec;fill-opacity:1;stroke:none"
     id="g11378"
     transform="translate(-126.2011,-90.3045)">
    <circle
       cx="136.40331"
       cy="107.2502"
       r="0.3274"
       id="circle11376" />
  </g>
  <g
     style="fill:#ececec;fill-opacity:1;stroke:none"
     id="g11382"
     transform="translate(-126.2011,-90.3045)">
    <circle
       cx="130.90109"
       cy="113.95"
       r="0.3274"
       id="circle11380" />
  </g>
  <g
     style="fill:#ececec;fill-opacity:1;stroke:none"
     id="g11386"
     transform="translate(-126.2011,-90.3045)">
    <circle
       cx="148.5649"
       cy="114.1"
       r="0.3274"
       id="circle11384" />
  </g>
  <g
     style="fill:#ececec;fill-opacity:1;stroke:none"
     id="g11390"
     transform="translate(-126.2011,-90.3045)">
    <circle
       cx="132.3011"
       cy="96.75"
       r="0.3274"
       id="circle11388" />
  </g>
  <g
     style="fill:#ececec;fill-opacity:1;stroke:none"
     id="g11394"
     transform="translate(-126.2011,-90.3045)">
    <circle
       cx="127.7011"
       cy="118.65"
       r="0.3274"
       id="circle11392" />
  </g>
  <g
     style="fill:#ececec;fill-opacity:1;stroke:none"
     id="g11398"
     transform="translate(-126.2011,-90.3045)">
    <circle
       cx="130.90109"
       cy="113.05"
       r="0.3274"
       id="circle11396" />
  </g>
  <g
     style="fill:#ececec;fill-opacity:1;stroke:none"
     id="g11402"
     transform="translate(-126.2011,-90.3045)">
    <circle
       cx="135.2511"
       cy="112.95"
       r="0.3274"
       id="circle11400" />
  </g>
  <g
     style="fill:#ececec;fill-opacity:1;stroke:none"
     id="g11406"
     transform="translate(-126.2011,-90.3045)">
    <circle
       cx="131.7011"
       cy="110.45"
       r="0.3274"
       id="circle11404" />
  </g>
  <g
     style="fill:#ececec;fill-opacity:1;stroke:none"
     id="g11410"
     transform="translate(-126.2011,-90.3045)">
    <circle
       cx="130.7213"
       cy="96.75"
       r="0.3274"
       id="circle11408" />
  </g>
  <g
     style="fill:#ececec;fill-opacity:1;stroke:none"
     id="g11414"
     transform="translate(-126.2011,-90.3045)">
    <circle
       cx="132.3011"
       cy="98.349998"
       r="0.3274"
       id="circle11412" />
  </g>
  <g
     style="fill:#ececec;fill-opacity:1;stroke:none"
     id="g11418"
     transform="translate(-126.2011,-90.3045)">
    <circle
       cx="130.7011"
       cy="101.85"
       r="0.3274"
       id="circle11416" />
  </g>
  <g
     style="fill:#ececec;fill-opacity:1;stroke:none"
     id="g11422"
     transform="translate(-126.2011,-90.3045)">
    <circle
       cx="148.5649"
       cy="110.55"
       r="0.3274"
       id="circle11420" />
  </g>
  <g
     style="fill:#ececec;fill-opacity:1;stroke:none"
     id="g11426"
     transform="translate(-126.2011,-90.3045)">
    <circle
       cx="130.7011"
       cy="98.349998"
       r="0.3274"
       id="circle11424" />
  </g>
  <g
     style="fill:#ececec;fill-opacity:1;stroke:none"
     id="g11430"
     transform="translate(-126.2011,-90.3045)">
    <circle
       cx="148.4511"
       cy="104.45"
       r="0.3274"
       id="circle11428" />
  </g>
  <g
     style="fill:#ececec;fill-opacity:1;stroke:none"
     id="g11434"
     transform="translate(-126.2011,-90.3045)">
    <circle
       cx="146.2011"
       cy="113.85"
       r="0.3274"
       id="circle11432" />
  </g>
  <g
     style="fill:#ececec;fill-opacity:1;stroke:none"
     id="g11438"
     transform="translate(-126.2011,-90.3045)">
    <circle
       cx="148.5649"
       cy="113.182"
       r="0.3274"
       id="circle11436" />
  </g>
  <g
     style="fill:#ececec;fill-opacity:1;stroke:none"
     id="g11442"
     transform="translate(-126.2011,-90.3045)">
    <circle
       cx="146.7011"
       cy="97.800003"
       r="0.3274"
       id="circle11440" />
  </g>
  <g
     style="fill:#ececec;fill-opacity:1;stroke:none"
     id="g11446"
     transform="translate(-126.2011,-90.3045)">
    <circle
       cx="133.6011"
       cy="105.05"
       r="0.3274"
       id="circle11444" />
  </g>
  <g
     style="fill:#ececec;fill-opacity:1;stroke:none"
     id="g11450"
     transform="translate(-126.2011,-90.3045)">
    <circle
       cx="133.7011"
       cy="106.75"
       r="0.3274"
       id="circle11448" />
  </g>
  <g
     style="fill:#ececec;fill-opacity:1;stroke:none"
     id="g11454"
     transform="translate(-126.2011,-90.3045)">
    <circle
       cx="146.2011"
       cy="112.85"
       r="0.3274"
       id="circle11452" />
  </g>
  <g
     style="fill:#ececec;fill-opacity:1;stroke:none"
     id="g11458"
     transform="translate(-126.2011,-90.3045)">
    <circle
       cx="133.3511"
       cy="112.75"
       r="0.3274"
       id="circle11456" />
  </g>
  <g
     style="fill:#ececec;fill-opacity:1;stroke:none"
     id="g11462"
     transform="translate(-126.2011,-90.3045)">
    <circle
       cx="131.8011"
       cy="104.25"
       r="0.3274"
       id="circle11460" />
  </g>
  <g
     style="fill:#ececec;fill-opacity:1;stroke:none"
     id="g11466"
     transform="translate(-126.2011,-90.3045)">
    <circle
       cx="145.6011"
       cy="104.45"
       r="0.3274"
       id="circle11464" />
  </g>
  <g
     style="fill:#ececec;fill-opacity:1;stroke:none"
     id="g11470"
     transform="translate(-126.2011,-90.3045)">
    <circle
       cx="133.8011"
       cy="109.25"
       r="0.3274"
       id="circle11468" />
  </g>
  <g
     style="fill:#ececec;fill-opacity:1;stroke:none"
     id="g11474"
     transform="translate(-126.2011,-90.3045)">
    <circle
       cx="145.7511"
       cy="97.800003"
       r="0.3274"
       id="circle11472" />
  </g>
  <g
     style="fill:#ececec;fill-opacity:1;stroke:none"
     id="g11478"
     transform="translate(-126.2011,-90.3045)">
    <circle
       cx="147.2011"
       cy="104.45"
       r="0.3274"
       id="circle11476" />
  </g>
  <g
     style="fill:#ececec;fill-opacity:1;stroke:none"
     id="g11482"
     transform="translate(-126.2011,-90.3045)">
    <circle
       cx="130.7011"
       cy="97.550003"
       r="0.3274"
       id="circle11480" />
  </g>
  <g
     style="fill:#ececec;fill-opacity:1;stroke:none"
     id="g11486"
     transform="translate(-126.2011,-90.3045)">
    <circle
       cx="132.3011"
       cy="97.550003"
       r="0.3274"
       id="circle11484" />
  </g>
  <g
     style="fill:#ececec;fill-opacity:1;stroke:none"
     id="g11490"
     transform="translate(-126.2011,-90.3045)">
    <circle
       cx="132.3161"
       cy="112.0544"
       r="0.3274"
       id="circle11488" />
  </g>
  <g
     style="fill:#ececec;fill-opacity:1;stroke:none"
     id="g11494"
     transform="translate(-126.2011,-90.3045)">
    <circle
       cx="136.44099"
       cy="106.2313"
       r="0.3274"
       id="circle11492" />
  </g>
  <g
     style="fill:#ececec;fill-opacity:1;stroke:none"
     id="g11498"
     transform="translate(-126.2011,-90.3045)">
    <circle
       cx="143.3011"
       cy="97.800003"
       r="0.3274"
       id="circle11496" />
  </g>
  <g
     style="fill:#ececec;fill-opacity:1;stroke:none"
     id="g11502"
     transform="translate(-126.2011,-90.3045)">
    <circle
       cx="135.7511"
       cy="114.1"
       r="0.3274"
       id="circle11500" />
  </g>
  <g
     style="fill:#ececec;fill-opacity:1;stroke:none"
     id="g11506"
     transform="translate(-126.2011,-90.3045)">
    <circle
       cx="130.8011"
       cy="117.05"
       r="0.3274"
       id="circle11504" />
  </g>
  <g
     style="fill:#ececec;fill-opacity:1;stroke:none"
     id="g11510"
     transform="translate(-126.2011,-90.3045)">
    <circle
       cx="133.7011"
       cy="105.95"
       r="0.3274"
       id="circle11508" />
  </g>
  <g
     style="fill:#ececec;fill-opacity:1;stroke:none"
     id="g11514"
     transform="translate(-126.2011,-90.3045)">
    <circle
       cx="135.3511"
       cy="109.05"
       r="0.3274"
       id="circle11512" />
  </g>
  <g
     style="fill:#ececec;fill-opacity:1;stroke:none"
     id="g11518"
     transform="translate(-126.2011,-90.3045)">
    <circle
       cx="134.0011"
       cy="114.1"
       r="0.3274"
       id="circle11516" />
  </g>
  <g
     style="fill:#ececec;fill-opacity:1;stroke:none"
     id="g11522"
     transform="translate(-126.2011,-90.3045)">
    <circle
       cx="132.3011"
       cy="99.150002"
       r="0.3274"
       id="circle11520" />
  </g>
  <g
     style="fill:#ececec;fill-opacity:1;stroke:none"
     id="g11526"
     transform="translate(-126.2011,-90.3045)">
    <circle
       cx="134.3011"
       cy="111.35"
       r="0.3274"
       id="circle11524" />
  </g>
  <g
     style="fill:#ececec;fill-opacity:1;stroke:none"
     id="g11530"
     transform="translate(-126.2011,-90.3045)">
    <circle
       cx="148.4511"
       cy="98.900002"
       r="0.3274"
       id="circle11528" />
  </g>
  <g
     style="fill:#ececec;fill-opacity:1;stroke:none"
     id="g11534"
     transform="translate(-126.2011,-90.3045)">
    <circle
       cx="144.1011"
       cy="97.800003"
       r="0.3274"
       id="circle11532" />
  </g>
  <g
     style="fill:#ececec;fill-opacity:1;stroke:none"
     id="g11538"
     transform="translate(-126.2011,-90.3045)">
    <circle
       cx="148.4511"
       cy="99.949997"
       r="0.3274"
       id="circle11536" />
  </g>
  <g
     style="fill:#ececec;fill-opacity:1;stroke:none"
     id="g11542"
     transform="translate(-126.2011,-90.3045)">
    <circle
       cx="135.1011"
       cy="111.35"
       r="0.3274"
       id="circle11540" />
  </g>
  <g
     style="fill:#ececec;fill-opacity:1;stroke:none"
     id="g11546"
     transform="translate(-126.2011,-90.3045)">
    <circle
       cx="144.90109"
       cy="97.800003"
       r="0.3274"
       id="circle11544" />
  </g>
  <g
     style="fill:#ececec;fill-opacity:1;stroke:none"
     id="g11550"
     transform="translate(-126.2011,-90.3045)">
    <circle
       cx="131.1011"
       cy="111.25"
       r="0.3274"
       id="circle11548" />
  </g>
  <g
     style="fill:#ececec;fill-opacity:1;stroke:none"
     id="g11554"
     transform="translate(-126.2011,-90.3045)">
    <circle
       cx="135.90109"
       cy="111.35"
       r="0.3274"
       id="circle11552" />
  </g>
  <g
     style="fill:#ececec;fill-opacity:1;stroke:none"
     id="g11558"
     transform="translate(-126.2011,-90.3045)">
    <circle
       cx="148.5649"
       cy="112.25"
       r="0.3274"
       id="circle11556" />
  </g>
  <g
     style="fill:#ececec;fill-opacity:1;stroke:none"
     id="g11562"
     transform="translate(-126.2011,-90.3045)">
    <circle
       cx="130.7011"
       cy="99.949997"
       r="0.3274"
       id="circle11560" />
  </g>
  <g
     style="fill:#ececec;fill-opacity:1;stroke:none"
     id="g11566"
     transform="translate(-126.2011,-90.3045)">
    <circle
       cx="130.7011"
       cy="103.55"
       r="0.3274"
       id="circle11564" />
  </g>
  <g
     style="fill:#ececec;fill-opacity:1;stroke:none"
     id="g11570"
     transform="translate(-126.2011,-90.3045)">
    <circle
       cx="144.5632"
       cy="102.3338"
       r="0.3274"
       id="circle11568" />
  </g>
  <g
     style="fill:#ececec;fill-opacity:1;stroke:none"
     id="g11574"
     transform="translate(-126.2011,-90.3045)">
    <circle
       cx="148.4511"
       cy="97.800003"
       r="0.3274"
       id="circle11572" />
  </g>
  <g
     style="fill:#ececec;fill-opacity:1;stroke:none"
     id="g11578"
     transform="translate(-126.2011,-90.3045)">
    <circle
       cx="132.7011"
       cy="104.25"
       r="0.3274"
       id="circle11576" />
  </g>
  <g
     style="fill:#ececec;fill-opacity:1;stroke:none"
     id="g11582"
     transform="translate(-126.2011,-90.3045)">
    <circle
       cx="148.4511"
       cy="105.5"
       r="0.3274"
       id="circle11580" />
  </g>
  <g
     style="fill:#ececec;fill-opacity:1;stroke:none"
     id="g11586"
     transform="translate(-126.2011,-90.3045)">
    <circle
       cx="134.90109"
       cy="114.1"
       r="0.3274"
       id="circle11584" />
  </g>
  <g
     style="fill:#ececec;fill-opacity:1;stroke:none"
     id="g11590"
     transform="translate(-126.2011,-90.3045)">
    <circle
       cx="133.1011"
       cy="109.55"
       r="0.3274"
       id="circle11588" />
  </g>
  <g
     style="fill:#ececec;fill-opacity:1;stroke:none"
     id="g11594"
     transform="translate(-126.2011,-90.3045)">
    <circle
       cx="133.0511"
       cy="114.1"
       r="0.3274"
       id="circle11592" />
  </g>
  <g
     style="fill:#ececec;fill-opacity:1;stroke:none"
     id="g11598"
     transform="translate(-126.2011,-90.3045)">
    <circle
       cx="142.90109"
       cy="112.95"
       r="0.3274"
       id="circle11596" />
  </g>
  <g
     style="fill:#ececec;fill-opacity:1;stroke:none"
     id="g11602"
     transform="translate(-126.2011,-90.3045)">
    <circle
       cx="142.90109"
       cy="114.05"
       r="0.3274"
       id="circle11600" />
  </g>
  <g
     style="fill:#ececec;fill-opacity:1;stroke:none"
     id="g11606"
     transform="translate(-126.2011,-90.3045)">
    <circle
       cx="132.2587"
       cy="112.95"
       r="0.3274"
       id="circle11604" />
  </g>
  <g
     style="fill:#ececec;fill-opacity:1;stroke:none"
     id="g11610"
     transform="translate(-126.2011,-90.3045)">
    <circle
       cx="133.3011"
       cy="116.65"
       r="0.3274"
       id="circle11608" />
  </g>
  <g
     style="fill:#ececec;fill-opacity:1;stroke:none"
     id="g11614"
     transform="translate(-126.2011,-90.3045)">
    <circle
       cx="130.7011"
       cy="102.75"
       r="0.3274"
       id="circle11612" />
  </g>
  <g
     style="fill:#ececec;fill-opacity:1;stroke:none"
     id="g11618"
     transform="translate(-126.2011,-90.3045)">
    <circle
       cx="132.3011"
       cy="99.949997"
       r="0.3274"
       id="circle11616" />
  </g>
  <g
     style="fill:#ececec;fill-opacity:1;stroke:none"
     id="g11622"
     transform="translate(-126.2011,-90.3045)">
    <circle
       cx="145.2011"
       cy="111.8"
       r="0.3274"
       id="circle11620" />
  </g>
  <g
     style="fill:#ececec;fill-opacity:1;stroke:none"
     id="g11626"
     transform="translate(-126.2011,-90.3045)">
    <circle
       cx="130.90109"
       cy="112.15"
       r="0.3274"
       id="circle11624" />
  </g>
  <g
     style="fill:#ececec;fill-opacity:1;stroke:none"
     id="g11630"
     transform="translate(-126.2011,-90.3045)">
    <circle
       cx="136.7011"
       cy="111.35"
       r="0.3274"
       id="circle11628" />
  </g>
  <g
     style="fill:#ececec;fill-opacity:1;stroke:none"
     id="g11634"
     transform="translate(-126.2011,-90.3045)">
    <circle
       cx="132.2587"
       cy="113.95"
       r="0.3274"
       id="circle11632" />
  </g>
  <g
     style="fill:#ececec;fill-opacity:1;stroke:none"
     id="g11638"
     transform="translate(-126.2011,-90.3045)">
    <circle
       cx="127.7011"
       cy="121.45"
       r="0.3274"
       id="circle11636" />
  </g>
  <g
     style="fill:#ececec;fill-opacity:1;stroke:none"
     id="g11642"
     transform="translate(-126.2011,-90.3045)">
    <circle
       cx="147.6011"
       cy="97.800003"
       r="0.3274"
       id="circle11640" />
  </g>
  <g
     style="fill:#ececec;fill-opacity:1;stroke:none"
     id="g11646"
     transform="translate(-126.2011,-90.3045)">
    <circle
       cx="148.5649"
       cy="111.35"
       r="0.3274"
       id="circle11644" />
  </g>
  <g
     style="fill:#ececec;fill-opacity:1;stroke:none"
     id="g11650"
     transform="translate(-126.2011,-90.3045)">
    <circle
       cx="147.2011"
       cy="105.35"
       r="0.3274"
       id="circle11648" />
  </g>
  <g
     style="fill:#ececec;fill-opacity:1;stroke:none"
     id="g11654"
     transform="translate(-126.2011,-90.3045)">
    <circle
       cx="143.5511"
       cy="111.8"
       r="0.3274"
       id="circle11652" />
  </g>
  <g
     style="fill:#ececec;fill-opacity:1;stroke:none"
     id="g11658"
     transform="translate(-126.2011,-90.3045)">
    <circle
       cx="144.0511"
       cy="115.0606"
       r="0.3274"
       id="circle11656" />
  </g>
  <g
     style="fill:#ececec;fill-opacity:1;stroke:none"
     id="g11662"
     transform="translate(-126.2011,-90.3045)">
    <circle
       cx="136.5"
       cy="96.846397"
       r="0.3274"
       id="circle11660" />
  </g>
  <g
     style="fill:#ececec;fill-opacity:1;stroke:none"
     id="g11666"
     transform="translate(-126.2011,-90.3045)">
    <circle
       cx="142.60001"
       cy="96.846397"
       r="0.3274"
       id="circle11664" />
  </g>
  <g
     style="fill:#ececec;fill-opacity:1;stroke:none"
     id="g11670"
     transform="translate(-126.2011,-90.3045)">
    <circle
       cx="146.40109"
       cy="103.65"
       r="0.3274"
       id="circle11668" />
  </g>
  <g
     style="fill:#ececec;fill-opacity:1;stroke:none"
     id="g11674"
     transform="translate(-126.2011,-90.3045)">
    <circle
       cx="136.1011"
       cy="104.95"
       r="0.3274"
       id="circle11672" />
  </g>
  <g
     style="fill:#ececec;fill-opacity:1;stroke:none"
     id="g11678"
     transform="translate(-126.2011,-90.3045)">
    <circle
       cx="140.5748"
       cy="104.6737"
       r="0.3274"
       id="circle11676" />
  </g>
  <g
     style="fill:#ececec;fill-opacity:1;stroke:none"
     id="g11682"
     transform="translate(-126.2011,-90.3045)">
    <circle
       cx="141.6129"
       cy="103.6382"
       r="0.3274"
       id="circle11680" />
  </g>
  <g
     style="fill:#ececec;fill-opacity:1;stroke:none"
     id="g11686"
     transform="translate(-126.2011,-90.3045)">
    <circle
       cx="138"
       cy="115.0464"
       r="0.3274"
       id="circle11684" />
  </g>
  <g
     style="fill:#ececec;fill-opacity:1;stroke:none"
     id="g11690"
     transform="translate(-126.2011,-90.3045)">
    <circle
       cx="144.6011"
       cy="110.506"
       r="0.3274"
       id="circle11688" />
  </g>
  <g
     style="fill:#ececec;fill-opacity:1;stroke:none"
     id="g11694"
     transform="translate(-126.2011,-90.3045)">
    <circle
       cx="144.6841"
       cy="109.1202"
       r="0.3274"
       id="circle11692" />
  </g>
  <g
     style="fill:#ececec;fill-opacity:1;stroke:none"
     id="g11698"
     transform="translate(-126.2011,-90.3045)">
    <circle
       cx="141.7011"
       cy="102.4945"
       r="0.3274"
       id="circle11696" />
  </g>
  <g
     style="fill:#ececec;fill-opacity:1;stroke:none"
     id="g11702"
     transform="translate(-126.2011,-90.3045)">
    <circle
       cx="138.99921"
       cy="98.371399"
       r="0.3274"
       id="circle11700" />
  </g>
  <g
     style="fill:#ececec;fill-opacity:1;stroke:none"
     id="g11706"
     transform="translate(-126.2011,-90.3045)">
    <circle
       cx="138.5011"
       cy="97.736198"
       r="0.3274"
       id="circle11704" />
  </g>
  <g
     style="fill:#ececec;fill-opacity:1;stroke:none"
     id="g11710"
     transform="translate(-126.2011,-90.3045)">
    <circle
       cx="150.9511"
       cy="107.9"
       r="0.3274"
       id="circle11708" />
  </g>
  <g
     style="fill:#ececec;fill-opacity:1;stroke:none"
     id="g11714"
     transform="translate(-126.2011,-90.3045)">
    <circle
       cx="145.2393"
       cy="102.7749"
       r="0.3274"
       id="circle11712" />
  </g>
  <g
     style="fill:#ececec;fill-opacity:1;stroke:none"
     id="g11718"
     transform="translate(-126.2011,-90.3045)">
    <circle
       cx="150.9511"
       cy="112.2"
       r="0.3274"
       id="circle11716" />
  </g>
  <g
     style="fill:#ececec;fill-opacity:1;stroke:none"
     id="g11722"
     transform="translate(-126.2011,-90.3045)">
    <circle
       cx="147.6451"
       cy="109.2152"
       r="0.3274"
       id="circle11720" />
  </g>
  <g
     style="fill:#ececec;fill-opacity:1;stroke:none"
     id="g11726"
     transform="translate(-126.2011,-90.3045)">
    <circle
       cx="136.6011"
       cy="114.05"
       r="0.3274"
       id="circle11724" />
  </g>
  <g
     style="fill:#ececec;fill-opacity:1;stroke:none"
     id="g11730"
     transform="translate(-126.2011,-90.3045)">
    <circle
       cx="140.0011"
       cy="115.9468"
       r="0.3274"
       id="circle11728" />
  </g>
  <g
     style="fill:#ececec;fill-opacity:1;stroke:none"
     id="g11734"
     transform="translate(-126.2011,-90.3045)">
    <circle
       cx="137.5011"
       cy="108.45"
       r="0.3274"
       id="circle11732" />
  </g>
  <g
     style="fill:#ececec;fill-opacity:1;stroke:none"
     id="g11738"
     transform="translate(-126.2011,-90.3045)">
    <circle
       cx="142.11681"
       cy="106.0947"
       r="0.3274"
       id="circle11736" />
  </g>
  <g
     style="fill:#ececec;fill-opacity:1;stroke:none"
     id="g11742"
     transform="translate(-126.2011,-90.3045)">
    <circle
       cx="141.8497"
       cy="105.333"
       r="0.3274"
       id="circle11740" />
  </g>
  <g
     style="fill:#ececec;fill-opacity:1;stroke:none"
     id="g11746"
     transform="translate(-126.2011,-90.3045)">
    <circle
       cx="141.40829"
       cy="100.15"
       r="0.3274"
       id="circle11744" />
  </g>
  <g
     style="fill:#ececec;fill-opacity:1;stroke:none"
     id="g11750"
     transform="translate(-126.2011,-90.3045)">
    <circle
       cx="144.46809"
       cy="106.8245"
       r="0.3274"
       id="circle11748" />
  </g>
  <g
     style="fill:#ececec;fill-opacity:1;stroke:none"
     id="g11754"
     transform="translate(-126.2011,-90.3045)">
    <circle
       cx="141.0425"
       cy="105.333"
       r="0.3274"
       id="circle11752" />
  </g>
  <g
     style="fill:#ececec;fill-opacity:1;stroke:none"
     id="g11758"
     transform="translate(-126.2011,-90.3045)">
    <circle
       cx="140.6011"
       cy="99.050003"
       r="0.3274"
       id="circle11756" />
  </g>
  <g
     style="fill:#ececec;fill-opacity:1;stroke:none"
     id="g11762"
     transform="translate(-126.2011,-90.3045)">
    <circle
       cx="147.7011"
       cy="107.35"
       r="0.3274"
       id="circle11760" />
  </g>
  <g
     style="fill:#ececec;fill-opacity:1;stroke:none"
     id="g11766"
     transform="translate(-126.2011,-90.3045)">
    <circle
       cx="140.38409"
       cy="105.8"
       r="0.3274"
       id="circle11764" />
  </g>
  <g
     style="fill:#ececec;fill-opacity:1;stroke:none"
     id="g11770"
     transform="translate(-126.2011,-90.3045)">
    <circle
       cx="135.8091"
       cy="100.158"
       r="0.3274"
       id="circle11768" />
  </g>
  <g
     style="fill:#ececec;fill-opacity:1;stroke:none"
     id="g11774"
     transform="translate(-126.2011,-90.3045)">
    <circle
       cx="144.7429"
       cy="105.3548"
       r="0.3274"
       id="circle11772" />
  </g>
  <g
     style="fill:#ececec;fill-opacity:1;stroke:none"
     id="g11778"
     transform="translate(-126.2011,-90.3045)">
    <circle
       cx="148.3011"
       cy="108.25"
       r="0.3274"
       id="circle11776" />
  </g>
  <g
     style="fill:#ececec;fill-opacity:1;stroke:none"
     id="g11782"
     transform="translate(-126.2011,-90.3045)">
    <circle
       cx="140.6011"
       cy="100.15"
       r="0.3274"
       id="circle11780" />
  </g>
  <g
     style="fill:#ececec;fill-opacity:1;stroke:none"
     id="g11786"
     transform="translate(-126.2011,-90.3045)">
    <circle
       cx="143.5571"
       cy="105.7"
       r="0.3274"
       id="circle11784" />
  </g>
  <g
     style="fill:#ececec;fill-opacity:1;stroke:none"
     id="g11790"
     transform="translate(-126.2011,-90.3045)">
    <circle
       cx="151.5011"
       cy="116.75"
       r="0.3274"
       id="circle11788" />
  </g>
  <g
     style="fill:none;stroke:#ce7d2c;stroke-width:0.4064;stroke-linecap:round;stroke-linejoin:round;stroke-opacity:1"
     id="g11796"
     transform="translate(-126.2011,-90.3045)">
    <path
       d="m 136.3774,104.6737 -0.2763,0.2763"
       id="path11792" />
    <path
       d="m 140.5774,104.6737 h -4.2"
       id="path11794" />
  </g>
  <g
     style="fill:none;stroke:#ce7d2c;stroke-width:0.3556;stroke-linecap:round;stroke-linejoin:round;stroke-opacity:1"
     id="g11800"
     transform="translate(-126.2011,-90.3045)">
    <path
       d="m 131.9211,92.01 h 0.14"
       id="path11798" />
  </g>
  <g
     style="fill:none;stroke:#ce7d2c;stroke-width:0.6096;stroke-linecap:round;stroke-linejoin:round;stroke-opacity:1"
     id="g11804"
     transform="translate(-126.2011,-90.3045)">
    <path
       d="m 140.5774,104.6737 1.0355,-1.0355"
       id="path11802" />
  </g>
  <g
     style="fill:none;stroke:#ce7d2c;stroke-width:0.8128;stroke-linecap:round;stroke-linejoin:round;stroke-opacity:1"
     id="g11810"
     transform="translate(-126.2011,-90.3045)">
    <path
       d="m 144.0511,115.0606 h -6.05"
       id="path11806" />
    <path
       d="m 151.8617,115.0606 1.2894,1.2894"
       id="path11808" />
  </g>
  <g
     style="fill:none;stroke:#ce7d2c;stroke-width:0.6096;stroke-linecap:round;stroke-linejoin:round;stroke-opacity:1"
     id="g11816"
     transform="translate(-126.2011,-90.3045)">
    <path
       d="m 141.6129,103.6382 h 4.7764"
       id="path11812" />
    <path
       d="m 144.6011,110.75 -1.05,1.05"
       id="path11814" />
  </g>
  <g
     style="fill:none;stroke:#ce7d2c;stroke-width:0.8128;stroke-linecap:round;stroke-linejoin:round;stroke-opacity:1"
     id="g11820"
     transform="translate(-126.2011,-90.3045)">
    <path
       d="m 153.1511,116.35 h 1.1"
       id="path11818" />
  </g>
  <g
     style="fill:none;stroke:#ce7d2c;stroke-width:0.6096;stroke-linecap:round;stroke-linejoin:round;stroke-opacity:1"
     id="g11824"
     transform="translate(-126.2011,-90.3045)">
    <path
       d="m 144.6011,110.506 v 0.244"
       id="path11822" />
  </g>
  <g
     style="fill:none;stroke:#ce7d2c;stroke-width:0.8128;stroke-linecap:round;stroke-linejoin:round;stroke-opacity:1"
     id="g11830"
     transform="translate(-126.2011,-90.3045)">
    <path
       d="m 149.4511,103.65 v 9.6"
       id="path11826" />
    <path
       d="m 144.1011,115.0606 h 5.35"
       id="path11828" />
  </g>
  <g
     style="fill:none;stroke:#ce7d2c;stroke-width:0.4064;stroke-linecap:round;stroke-linejoin:round;stroke-opacity:1"
     id="g11834"
     transform="translate(-126.2011,-90.3045)">
    <path
       d="m 140.5748,104.6737 h 0.003"
       id="path11832" />
  </g>
  <g
     style="fill:none;stroke:#ce7d2c;stroke-width:0.8128;stroke-linecap:round;stroke-linejoin:round;stroke-opacity:1"
     id="g11838"
     transform="translate(-126.2011,-90.3045)">
    <path
       d="m 149.4511,113.25 v 1.8106"
       id="path11836" />
  </g>
  <g
     style="fill:none;stroke:#ce7d2c;stroke-width:0.6096;stroke-linecap:round;stroke-linejoin:round;stroke-opacity:1"
     id="g11844"
     transform="translate(-126.2011,-90.3045)">
    <path
       d="m 146.4129,103.6382 h 3.0264"
       id="path11840" />
    <path
       d="m 146.3893,103.6382 0.0118,0.0118"
       id="path11842" />
  </g>
  <g
     style="fill:none;stroke:#ce7d2c;stroke-width:0.4064;stroke-linecap:round;stroke-linejoin:round;stroke-opacity:1"
     id="g11848"
     transform="translate(-126.2011,-90.3045)">
    <path
       d="m 133.2011,95.45 v -0.5"
       id="path11846" />
  </g>
  <g
     style="fill:none;stroke:#ce7d2c;stroke-width:0.8128;stroke-linecap:round;stroke-linejoin:round;stroke-opacity:1"
     id="g11852"
     transform="translate(-126.2011,-90.3045)">
    <path
       d="m 149.4511,115.0606 h 2.4106"
       id="path11850" />
  </g>
  <g
     style="fill:none;stroke:#ce7d2c;stroke-width:0.4064;stroke-linecap:round;stroke-linejoin:round;stroke-opacity:1"
     id="g11858"
     transform="translate(-126.2011,-90.3045)">
    <path
       d="M 133.2011,94.95 V 93.29"
       id="path11854" />
    <path
       d="m 136.5,96.8464 h -1.9025"
       id="path11856" />
  </g>
  <g
     style="fill:none;stroke:#ce7d2c;stroke-width:0.6096;stroke-linecap:round;stroke-linejoin:round;stroke-opacity:1"
     id="g11862"
     transform="translate(-126.2011,-90.3045)">
    <path
       d="m 146.4011,103.65 0.0118,-0.0118"
       id="path11860" />
  </g>
  <g
     style="fill:none;stroke:#ce7d2c;stroke-width:0.8128;stroke-linecap:round;stroke-linejoin:round;stroke-opacity:1"
     id="g11870"
     transform="translate(-126.2011,-90.3045)">
    <path
       d="m 142.6011,96.85 h 6.85"
       id="path11864" />
    <path
       d="m 149.4511,103.65 v -6.8"
       id="path11866" />
    <path
       d="m 142.6011,96.85 h -6.1"
       id="path11868" />
  </g>
  <g
     style="fill:none;stroke:#ce7d2c;stroke-width:0.4064;stroke-linecap:round;stroke-linejoin:round;stroke-opacity:1"
     id="g11878"
     transform="translate(-126.2011,-90.3045)">
    <path
       d="m 133.2011,93.29 a 1.28,1.28 0 0 0 -1.28,-1.28"
       id="path11872" />
    <path
       d="m 133.2011,95.45 a 1.3964,1.3964 0 0 0 1.3964,1.3964"
       id="path11874" />
    <path
       style="fill:#ce7d2c;fill-opacity:1;fill-rule:evenodd;stroke:none"
       d="m 156.2854,90.3191 0.0146,0.0352 v 33.5914 l -0.0146,0.0352 -0.0352,0.0146 h -29.9993 l -0.0352,-0.0146 -0.0146,-0.0352 V 122.55 h 4.6922 l 0.0194,0.1966 0.0574,0.189 0.0931,0.1743 0.1253,0.1527 0.1527,0.1253 0.1742,0.0931 0.1891,0.0574 0.1473,0.0145 0.0493,0.005 v 0 0 l 0.0448,-0.005 0.1518,-0.0149 0.189,-0.0574 0.1743,-0.0931 0.1527,-0.1253 0.1253,-0.1527 0.0931,-0.1743 0.0574,-0.189 0.0194,-0.1966 h 0.5244 l 0.0194,0.1966 0.0574,0.189 0.0931,0.1743 0.1253,0.1527 0.1527,0.1253 0.1743,0.0931 0.189,0.0574 0.1473,0.0145 0.0493,0.005 v 0 0 l 0.0448,-0.005 0.1518,-0.0149 0.1891,-0.0574 0.1742,-0.0931 0.1527,-0.1253 0.1253,-0.1527 0.0931,-0.1743 0.0574,-0.189 0.0194,-0.1966 h 0.5244 l 0.0194,0.1966 0.0574,0.189 0.0931,0.1743 0.1253,0.1527 0.1527,0.1253 0.1742,0.0931 0.1891,0.0574 0.1473,0.0145 0.0493,0.005 v 0 0 l 0.0448,-0.005 0.1518,-0.0149 0.189,-0.0574 0.1743,-0.0931 0.1527,-0.1253 0.1253,-0.1527 0.0931,-0.1743 0.0574,-0.189 0.0194,-0.1966 h 0.5244 l 0.0194,0.1966 0.0574,0.189 0.0931,0.1743 0.1253,0.1527 0.1527,0.1253 0.1742,0.0931 0.1891,0.0574 0.1473,0.0145 0.0493,0.005 v 0 0 l 0.0448,-0.005 0.1518,-0.0149 0.189,-0.0574 0.1743,-0.0931 0.1527,-0.1253 0.1253,-0.1527 0.0931,-0.1743 0.0574,-0.189 0.0194,-0.1966 h 0.5244 l 0.0194,0.1966 0.0574,0.189 0.0931,0.1743 0.1253,0.1527 0.1527,0.1253 0.1742,0.0931 0.1891,0.0574 0.1473,0.0145 0.0493,0.005 v 0 0 l 0.0448,-0.005 0.1518,-0.0149 0.189,-0.0574 0.1743,-0.0931 0.1527,-0.1253 0.1253,-0.1527 0.0931,-0.1743 0.0574,-0.189 0.0194,-0.1966 -0.0151,-0.1524 h 0.4527 0.6178 l -0.0232,0.0866 v 0.1316 l 0.0232,0.0866 h -0.6178 l 0.005,0.0513 v 0 l 0.056,0.1968 0.0912,0.1832 v 0 l 0.1233,0.1632 v 0 l 0.1512,0.1379 0.174,0.1077 0.1908,0.0739 0.151,0.0282 v 0 -0.6178 l 0.0866,0.0232 h 0.1316 l 0.0866,-0.0232 v 0.6178 l 0.151,-0.0282 0.1908,-0.0739 0.174,-0.1077 0.1512,-0.1379 v 0 l 0.1233,-0.1632 v 0 l 0.0912,-0.1832 0.0559,-0.1968 h 1e-4 l 0.005,-0.0513 h -0.6178 l 0.0232,-0.0866 V 122.55 h 1.0322 l 0.0194,0.1966 0.0574,0.189 0.0931,0.1743 0.1253,0.1527 0.1527,0.1253 0.1742,0.0931 0.1891,0.0574 0.1473,0.0145 0.0493,0.005 v 0 0 l 0.0448,-0.005 0.1518,-0.0149 0.189,-0.0574 0.1743,-0.0931 0.1527,-0.1253 0.1253,-0.1527 0.0931,-0.1743 0.0574,-0.189 0.0194,-0.1966 h 0.5244 l 0.0194,0.1966 0.0574,0.189 0.0931,0.1743 0.1253,0.1527 0.1527,0.1253 0.1742,0.0931 0.1891,0.0574 0.1473,0.0145 0.0493,0.005 v 0 0 l 0.0448,-0.005 0.1518,-0.0149 0.189,-0.0574 0.1743,-0.0931 0.1527,-0.1253 0.1253,-0.1527 0.0931,-0.1743 0.0574,-0.189 0.0194,-0.1966 h 0.5244 l 0.0194,0.1966 0.0574,0.189 0.0931,0.1743 0.1253,0.1527 0.1527,0.1253 0.1742,0.0931 0.1891,0.0574 0.1473,0.0145 0.0493,0.005 v 0 0 l 0.0448,-0.005 0.1518,-0.0149 0.1891,-0.0574 0.1742,-0.0931 0.1527,-0.1253 0.1253,-0.1527 0.0931,-0.1743 0.0574,-0.189 0.0194,-0.1966 -0.0194,-0.1966 -0.0574,-0.1891 -0.0931,-0.1742 -0.1253,-0.1527 -0.1527,-0.1253 -0.0508,-0.0272 h 1.028 v 1.7301 1e-4 l 0.009,0.0446 v 0 l 0.0338,0.0505 v 0 l 0.0505,0.0338 0.0446,0.009 h 1.7302 l 0.0446,-0.009 0.0505,-0.0338 0.0338,-0.0505 0.009,-0.0446 v -1.7302 l -0.009,-0.0446 v 0 0 l -0.0338,-0.0505 v 0 l -0.0505,-0.0338 -0.0446,-0.009 v 0 h -1.7302 v 0 l -0.0334,0.007 -0.0112,0.002 v 0 0 l -0.0505,0.0338 v 0 l -0.0338,0.0505 v 0 l -0.009,0.0446 h -1.028 l -0.1234,-0.0659 -0.1891,-0.0574 -0.1966,-0.0194 v 0 l -0.1966,0.0194 -0.0823,0.025 -0.1068,0.0324 v 0 0 l -0.0865,0.0462 -0.0877,0.0469 v 0 0 l -0.1527,0.1253 -0.1253,0.1527 -0.0931,0.1742 v 0 0 l -0.0574,0.1891 -0.0194,0.1966 h -0.5244 l -0.0194,-0.1966 -0.0574,-0.1891 -0.0931,-0.1742 -0.1253,-0.1527 -0.1527,-0.1253 -0.1743,-0.0931 -0.189,-0.0574 -0.1966,-0.0194 v 0 l -0.1966,0.0194 -0.0823,0.025 -0.1068,0.0324 v 0 0 l -0.0865,0.0462 -0.0877,0.0469 v 0 0 l -0.1527,0.1253 -0.1253,0.1527 -0.0931,0.1742 v 0 0 l -0.0574,0.1891 -0.0194,0.1966 h -0.5244 l -0.0194,-0.1966 -0.0574,-0.1891 -0.0931,-0.1742 -0.1253,-0.1527 -0.1527,-0.1253 -0.1743,-0.0931 -0.189,-0.0574 -0.1966,-0.0194 v 0 l -0.1966,0.0194 -0.0823,0.025 -0.1068,0.0324 v 0 0 l -0.0865,0.0462 -0.0877,0.0469 v 0 0 l -0.1527,0.1253 -0.1253,0.1527 -0.0931,0.1742 v 0 0 l -0.0574,0.1891 -0.0194,0.1966 h -1.0322 v -0.0658 l -0.0232,-0.0866 h 0.6178 l -0.005,-0.0513 h -1e-4 l -0.0559,-0.1968 -0.0912,-0.1832 v 0 l -0.1233,-0.1632 v 0 l -0.1512,-0.1379 -0.174,-0.1077 -0.1908,-0.0739 -0.151,-0.0282 v 0.6178 l -0.0866,-0.0232 h -0.1316 l -0.0866,0.0232 v -0.6178 0 l -0.151,0.0282 -0.1908,0.0739 -0.174,0.1077 -0.1512,0.1379 v 0 l -0.1233,0.1632 v 0 l -0.0912,0.1832 -0.056,0.1968 v 0 l -0.005,0.0513 h -0.4527 l -0.004,-0.0442 -0.0574,-0.1891 -0.0931,-0.1742 -0.1253,-0.1527 -0.1527,-0.1253 -0.1743,-0.0931 -0.189,-0.0574 -0.1966,-0.0194 v 0 l -0.1966,0.0194 -0.0823,0.025 -0.1068,0.0324 v 0 0 l -0.0865,0.0462 -0.0877,0.0469 v 0 0 l -0.1527,0.1253 -0.1253,0.1527 -0.0931,0.1742 v 0 0 l -0.0574,0.1891 -0.0194,0.1966 h -0.5244 l -0.0194,-0.1966 -0.0574,-0.1891 -0.0931,-0.1742 -0.1253,-0.1527 -0.1527,-0.1253 -0.1743,-0.0931 -0.189,-0.0574 -0.1966,-0.0194 v 0 l -0.1966,0.0194 -0.0823,0.025 -0.1068,0.0324 v 0 0 l -0.0865,0.0462 -0.0877,0.0469 v 0 0 l -0.1527,0.1253 -0.1253,0.1527 -0.0931,0.1742 v 0 0 l -0.0574,0.1891 -0.0194,0.1966 h -0.5244 l -0.0194,-0.1966 -0.0574,-0.1891 -0.0931,-0.1742 -0.1253,-0.1527 -0.1527,-0.1253 -0.1743,-0.0931 -0.189,-0.0574 -0.1966,-0.0194 v 0 l -0.1966,0.0194 -0.0823,0.025 -0.1068,0.0324 v 0 0 l -0.0865,0.0462 -0.0877,0.0469 v 0 0 l -0.1527,0.1253 -0.1253,0.1527 -0.0931,0.1742 v 0 0 l -0.0574,0.1891 -0.0194,0.1966 h -0.5244 l -0.0194,-0.1966 -0.0574,-0.1891 -0.0931,-0.1742 -0.1253,-0.1527 -0.1527,-0.1253 -0.1742,-0.0931 -0.1891,-0.0574 -0.1966,-0.0194 v 0 l -0.1966,0.0194 -0.0823,0.025 -0.1067,0.0324 h -1e-4 v 0 l -0.0865,0.0462 -0.0877,0.0469 v 0 0 l -0.1527,0.1253 -0.1253,0.1527 -0.0931,0.1742 v 0 0 l -0.0574,0.1891 -0.0194,0.1966 h -0.5244 l -0.0194,-0.1966 -0.0574,-0.1891 -0.0931,-0.1742 -0.1253,-0.1527 -0.1527,-0.1253 -0.1743,-0.0931 -0.189,-0.0574 -0.1966,-0.0194 v 0 l -0.1966,0.0194 -0.0823,0.025 -0.1068,0.0324 v 0 0 l -0.0865,0.0462 -0.0877,0.0469 v 0 0 l -0.1527,0.1253 -0.1253,0.1527 -0.0931,0.1742 v 0 0 l -0.0574,0.1891 -0.0194,0.1966 h -4.6922 v -2.54 h 4.6922 l 0.0194,0.1966 0.0574,0.189 0.0931,0.1743 0.1253,0.1527 0.1527,0.1253 0.1742,0.0931 0.1891,0.0574 0.1481,0.0146 0.0485,0.005 v 0 0 l 0.0448,-0.004 0.1518,-0.0149 0.189,-0.0574 0.1743,-0.0931 0.1527,-0.1253 0.1253,-0.1527 0.0931,-0.1743 0.0574,-0.189 0.0194,-0.1966 h 0.5244 l 0.0194,0.1966 0.0574,0.189 0.0931,0.1743 0.1253,0.1527 0.1527,0.1253 0.1743,0.0931 0.189,0.0574 0.1481,0.0146 0.0485,0.005 v 0 0 l 0.0448,-0.004 0.1518,-0.0149 0.1891,-0.0574 0.1742,-0.0931 0.1527,-0.1253 0.1253,-0.1527 0.0931,-0.1743 0.0574,-0.189 0.0194,-0.1966 h 0.5244 l 0.0194,0.1966 0.0574,0.189 0.0931,0.1743 0.1253,0.1527 0.1527,0.1253 0.1742,0.0931 0.1891,0.0574 0.1481,0.0146 0.0485,0.005 v 0 0 l 0.0448,-0.004 0.1518,-0.0149 0.189,-0.0574 0.1743,-0.0931 0.1527,-0.1253 0.1253,-0.1527 0.0931,-0.1743 0.0574,-0.189 0.0194,-0.1966 h 0.5244 l 0.0194,0.1966 0.0574,0.189 0.0931,0.1743 0.1253,0.1527 0.1527,0.1253 0.1742,0.0931 0.1891,0.0574 0.1481,0.0146 0.0485,0.005 v 0 0 l 0.0448,-0.004 0.1518,-0.0149 0.189,-0.0574 0.1743,-0.0931 0.1527,-0.1253 0.1253,-0.1527 0.0931,-0.1743 0.0574,-0.189 0.0194,-0.1966 h 0.5244 l 0.0194,0.1966 0.0574,0.189 0.0931,0.1743 0.1253,0.1527 0.1527,0.1253 0.1742,0.0931 0.1891,0.0574 0.1481,0.0146 0.0485,0.005 v 0 0 l 0.0448,-0.004 0.1518,-0.0149 0.189,-0.0574 0.1743,-0.0931 0.1527,-0.1253 0.1253,-0.1527 0.0931,-0.1743 0.0574,-0.189 0.0194,-0.1966 h 0.5244 l 0.0194,0.1966 0.0574,0.189 0.0931,0.1743 0.1253,0.1527 0.1527,0.1253 0.1743,0.0931 0.189,0.0574 0.1481,0.0146 0.0485,0.005 v 0 0 l 0.0448,-0.004 0.1518,-0.0149 0.1891,-0.0574 0.1742,-0.0931 0.1527,-0.1253 0.1253,-0.1527 0.0931,-0.1743 0.0574,-0.189 0.0194,-0.1966 h 0.5244 l 0.0194,0.1966 0.0574,0.189 0.0931,0.1743 0.1253,0.1527 0.1527,0.1253 0.1742,0.0931 0.1891,0.0574 0.1481,0.0146 0.0485,0.005 v 0 0 l 0.0448,-0.004 0.1518,-0.0149 0.189,-0.0574 0.1743,-0.0931 0.1527,-0.1253 0.1253,-0.1527 0.0931,-0.1743 0.0574,-0.189 0.0194,-0.1966 h 0.5244 l 0.0194,0.1966 0.0574,0.189 0.0931,0.1743 0.1253,0.1527 0.1527,0.1253 0.1742,0.0931 0.1891,0.0574 0.1481,0.0146 0.0485,0.005 v 0 0 l 0.0448,-0.004 0.1518,-0.0149 0.189,-0.0574 0.1743,-0.0931 0.1527,-0.1253 0.1253,-0.1527 0.0931,-0.1743 0.0574,-0.189 0.0194,-0.1966 h 0.5244 l 0.0194,0.1966 0.0574,0.189 0.0931,0.1743 0.1253,0.1527 0.1527,0.1253 0.1742,0.0931 0.1891,0.0574 0.1481,0.0146 0.0485,0.005 v 0 0 l 0.0448,-0.004 0.1518,-0.0149 0.1891,-0.0574 0.1742,-0.0931 0.1527,-0.1253 0.1253,-0.1527 0.0931,-0.1743 0.0574,-0.189 0.0194,-0.1966 h 0.5244 l 0.0194,0.1966 0.0574,0.189 0.0931,0.1743 0.1253,0.1527 0.1527,0.1253 0.1743,0.0931 0.189,0.0574 0.1481,0.0146 0.0485,0.005 v 0 0 l 0.0448,-0.004 0.1518,-0.0149 0.189,-0.0574 0.1743,-0.0931 0.1527,-0.1253 0.1253,-0.1527 0.0931,-0.1743 0.0574,-0.189 0.0194,-0.1966 -0.0194,-0.1966 -0.0574,-0.1891 -0.0931,-0.1742 -0.1253,-0.1527 -0.1527,-0.1253 -0.1743,-0.0931 -0.189,-0.0574 -0.1966,-0.0194 v 0 l -0.1966,0.0194 -0.0823,0.025 -0.1067,0.0324 h -1e-4 v 0 l -0.1129,0.0603 -0.0613,0.0328 v 0 0 l -0.1527,0.1253 -0.1253,0.1527 -0.0931,0.1742 v 0 0 l -0.0574,0.1891 -0.0194,0.1966 h -0.5244 l -0.0194,-0.1966 -0.0574,-0.1891 -0.0931,-0.1742 -0.1253,-0.1527 -0.1527,-0.1253 -0.1742,-0.0931 -0.1891,-0.0574 -0.1966,-0.0194 v 0 l -0.1966,0.0194 -0.0823,0.025 -0.1068,0.0324 v 0 0 l -0.1129,0.0603 -0.0613,0.0328 v 0 0 l -0.1527,0.1253 -0.1253,0.1527 -0.0931,0.1742 v 0 0 l -0.0574,0.1891 -0.0194,0.1966 h -0.5244 l -0.0194,-0.1966 -0.0574,-0.1891 -0.0931,-0.1742 -0.1253,-0.1527 -0.1527,-0.1253 -0.1743,-0.0931 -0.189,-0.0574 -0.1966,-0.0194 v 0 l -0.1966,0.0194 -0.0823,0.025 -0.1068,0.0324 v 0 0 l -0.1129,0.0603 -0.0613,0.0328 v 0 0 l -0.1527,0.1253 -0.1253,0.1527 -0.0931,0.1742 v 0 0 l -0.0574,0.1891 -0.0194,0.1966 h -0.5244 l -0.0194,-0.1966 -0.0574,-0.1891 -0.0931,-0.1742 -0.1253,-0.1527 -0.1527,-0.1253 -0.1743,-0.0931 -0.189,-0.0574 -0.1966,-0.0194 v 0 l -0.1966,0.0194 -0.0823,0.025 -0.1068,0.0324 v 0 0 l -0.1129,0.0603 -0.0613,0.0328 v 0 0 l -0.1527,0.1253 -0.1253,0.1527 -0.0931,0.1742 v 0 0 l -0.0574,0.1891 -0.0194,0.1966 h -0.5244 l -0.0194,-0.1966 -0.0574,-0.1891 -0.0931,-0.1742 -0.1253,-0.1527 -0.1527,-0.1253 -0.1742,-0.0931 -0.1891,-0.0574 -0.1966,-0.0194 v 0 l -0.1966,0.0194 -0.0823,0.025 -0.1067,0.0324 h -1e-4 v 0 l -0.1129,0.0603 -0.0613,0.0328 v 0 0 l -0.1527,0.1253 -0.1253,0.1527 -0.0931,0.1742 v 0 0 l -0.0574,0.1891 -0.0194,0.1966 h -0.5244 l -0.0194,-0.1966 -0.0574,-0.1891 -0.0931,-0.1742 -0.1253,-0.1527 -0.1527,-0.1253 -0.1743,-0.0931 -0.189,-0.0574 -0.1966,-0.0194 v 0 l -0.1966,0.0194 -0.0823,0.025 -0.1068,0.0324 v 0 0 l -0.1129,0.0603 -0.0613,0.0328 v 0 0 l -0.1527,0.1253 -0.1253,0.1527 -0.0931,0.1742 v 0 0 l -0.0574,0.1891 -0.0194,0.1966 h -0.5244 l -0.0194,-0.1966 -0.0574,-0.1891 -0.0931,-0.1742 -0.1253,-0.1527 -0.1527,-0.1253 -0.1743,-0.0931 -0.189,-0.0574 -0.1966,-0.0194 v 0 l -0.1966,0.0194 -0.0823,0.025 -0.1068,0.0324 v 0 0 l -0.1129,0.0603 -0.0613,0.0328 v 0 0 l -0.1527,0.1253 -0.1253,0.1527 -0.0931,0.1742 v 0 0 l -0.0574,0.1891 -0.0194,0.1966 h -0.5244 l -0.0194,-0.1966 -0.0574,-0.1891 -0.0931,-0.1742 -0.1253,-0.1527 -0.1527,-0.1253 -0.1743,-0.0931 -0.189,-0.0574 -0.1966,-0.0194 v 0 l -0.1966,0.0194 -0.0823,0.025 -0.1068,0.0324 v 0 0 l -0.1129,0.0603 -0.0613,0.0328 v 0 0 l -0.1527,0.1253 -0.1253,0.1527 -0.0931,0.1742 v 0 0 l -0.0574,0.1891 -0.0194,0.1966 h -0.5244 l -0.0194,-0.1966 -0.0574,-0.1891 -0.0931,-0.1742 -0.1253,-0.1527 -0.1527,-0.1253 -0.1742,-0.0931 -0.1891,-0.0574 -0.1966,-0.0194 v 0 l -0.1966,0.0194 -0.0823,0.025 -0.1067,0.0324 h -1e-4 v 0 l -0.1129,0.0603 -0.0613,0.0328 v 0 0 l -0.1527,0.1253 -0.1253,0.1527 -0.0931,0.1742 v 0 0 l -0.0574,0.1891 -0.0194,0.1966 h -0.5244 l -0.0194,-0.1966 -0.0574,-0.1891 -0.0931,-0.1742 -0.1253,-0.1527 -0.1527,-0.1253 -0.1743,-0.0931 -0.189,-0.0574 -0.1966,-0.0194 v 0 l -0.1966,0.0194 -0.0823,0.025 -0.1068,0.0324 v 0 0 l -0.1129,0.0603 -0.0613,0.0328 v 0 0 l -0.1527,0.1253 -0.1253,0.1527 -0.0931,0.1742 v 0 0 l -0.0574,0.1891 -0.0194,0.1966 h -4.6922 v -3.26 h 24.8148 v 0 l 0.0196,0.1367 v 0 l 0.0574,0.1256 v 0 l 0.0904,0.1044 v 0 l 0.1162,0.0747 v 0 0 l 0.1325,0.0389 v 0 h 0.1382 v 0 l 0.1325,-0.0389 0.1162,-0.0747 0.0904,-0.1044 0.0574,-0.1256 0.0196,-0.1367 -0.0196,-0.1367 -0.0574,-0.1256 v 0 0 0 l -0.0904,-0.1044 v 0 l -0.1162,-0.0747 v 0 0 l -0.1325,-0.0389 h -0.1382 l -0.1325,0.0389 v 0 0 l -0.1162,0.0747 v 0 l -0.0904,0.1044 v 0 l -0.0574,0.1256 v 0 l -0.0196,0.1367 h -24.8148 v -2.7 h 9.9148 v 0 l 0.0196,0.1367 v 0 l 0.0574,0.1256 v 0 l 0.0904,0.1044 v 0 l 0.1162,0.0747 v 0 0 l 0.1325,0.0389 v 0 h 0.1382 v 0 l 0.1325,-0.0389 0.1162,-0.0747 0.0904,-0.1044 0.0574,-0.1256 0.0196,-0.1367 -0.0196,-0.1367 -0.0574,-0.1256 v 0 0 0 l -0.0904,-0.1044 v 0 l -0.1162,-0.0747 v 0 0 l -0.1325,-0.0389 h -0.1382 l -0.1325,0.0389 v 0 0 l -0.1162,0.0747 v 0 l -0.0904,0.1044 v 0 l -0.0574,0.1256 v 0 l -0.0196,0.1367 h -9.9148 v -2.25 h 16.8648 v 0 l 0.0196,0.1367 v 0 l 0.0574,0.1256 v 0 l 0.0904,0.1044 v 0 l 0.1162,0.0747 v 0 0 l 0.1325,0.0389 v 0 h 0.1382 v 0 l 0.1325,-0.0389 0.1162,-0.0747 0.0904,-0.1044 0.0158,-0.0346 0.0101,-0.0145 0.9822,-0.9822 0.0602,-0.1043 0.0195,-0.0729 0.0117,-0.0435 v -0.1395 l 0.005,-0.0207 9e-4,-0.002 0.002,-0.005 0.0196,-0.1367 -0.0196,-0.1367 -0.0574,-0.1256 v 0 0 0 l -0.0904,-0.1044 v 0 l -0.1162,-0.0747 v 0 0 l -0.1325,-0.0389 h -0.1382 l -0.1325,0.0389 v 0 0 l -0.1162,0.0747 v 0 l -0.0904,0.1044 v 0 l -0.0574,0.1256 v 0 l -0.0196,0.1367 v 0 l 0.007,0.047 -0.009,0.0369 -0.005,0.005 -0.7673,0.7673 -0.008,0.007 -0.0996,0.064 v 0 l -0.0904,0.1044 v 0 l -0.0574,0.1256 v 0 l -0.0196,0.1367 h -16.8648 v -4.4751 h 2.4971 v 1.7301 1e-4 l 0.009,0.0446 v 0 l 0.0338,0.0505 v 0 l 0.0505,0.0338 0.0446,0.009 h 1.7302 l 0.0446,-0.009 0.0505,-0.0338 0.0201,-0.03 H 144.2 v 0 l 0.0196,0.1367 v 0 l 0.0574,0.1256 v 0 l 0.0904,0.1044 v 0 l 0.1162,0.0747 v 0 0 l 0.1325,0.0389 v 0 h 0.1382 v 0 l 0.1325,-0.0389 0.1162,-0.0747 0.0904,-0.1044 0.0574,-0.1256 0.006,-0.0417 h 2.0042 v 0 l 0.0196,0.1367 v 0 l 0.0574,0.1256 v 0 l 0.0904,0.1044 v 0 l 0.1162,0.0747 v 0 0 l 0.1325,0.0389 v 0 h 0.1382 v 0 l 0.1325,-0.0389 0.1162,-0.0747 0.0904,-0.1044 0.0574,-0.1256 0.0196,-0.1367 -0.0196,-0.1367 -0.0574,-0.1256 v 0 0 0 l -0.0904,-0.1044 v 0 l -0.1162,-0.0747 v 0 0 l -0.1325,-0.0389 h -0.1382 l -0.1325,0.0389 v 0 0 l -0.1162,0.0747 v 0 l -0.0904,0.1044 v 0 l -0.0574,0.1256 v 0 l -0.0196,0.1367 h -2.0042 l 0.0136,-0.095 -0.003,-0.0205 -0.006,-0.0446 -0.0103,-0.0716 -0.0574,-0.1256 v 0 0 0 l -0.0904,-0.1044 v 0 l -0.1162,-0.0747 v 0 0 l -0.1325,-0.0389 h -0.1382 l -0.1325,0.0389 v 0 0 l -0.1162,0.0747 v 0 l -0.0904,0.1044 v 0 l -0.0574,0.1256 v 0 l -0.0196,0.1367 h -13.5175 l 0.0137,-0.0205 0.009,-0.0446 V 108.45 h 6.3119 v 0 l 0.0196,0.1367 v 0 l 0.0574,0.1256 v 0 l 0.0904,0.1044 v 0 l 0.1162,0.0747 v 0 0 l 0.1325,0.0389 v 0 h 0.1382 v 0 l 0.1325,-0.0389 0.1162,-0.0747 0.0904,-0.1044 0.0574,-0.1256 0.0196,-0.1367 -0.0196,-0.1367 -0.0289,-0.0633 h 9.8781 v 0 l 0.0196,0.1367 v 0 l 0.0574,0.1256 v 0 l 0.0904,0.1044 v 0 l 0.1162,0.0747 v 0 0 l 0.1325,0.0389 v 0 h 0.1382 v 0 l 0.1325,-0.0389 0.1162,-0.0747 0.0904,-0.1044 0.0574,-0.1256 0.0196,-0.1367 -0.0196,-0.1367 -0.0574,-0.1256 v 0 0 0 l -0.0904,-0.1044 v 0 l -0.1162,-0.0747 v 0 0 l -0.1325,-0.0389 h -0.1382 l -0.1325,0.0389 v 0 0 l -0.1162,0.0747 v 0 l -0.0904,0.1044 v 0 l -0.0574,0.1256 v 0 l -0.0196,0.1367 h -9.8781 l -0.0285,-0.0623 v 0 0 0 l -0.0904,-0.1044 v 0 l -0.1162,-0.0747 v 0 0 l -0.1325,-0.0389 h -0.1382 l -0.1325,0.0389 v 0 0 l -0.1162,0.0747 v 0 l -0.0904,0.1044 v 0 l -0.0574,0.1256 v 0 l -0.0196,0.1367 h -6.3119 v -1.1 h 16.5119 v 0 l 0.0196,0.1367 v 0 l 0.0574,0.1256 v 0 l 0.0904,0.1044 v 0 l 0.1162,0.0747 v 0 0 l 0.1325,0.0389 v 0 h 0.1382 v 0 l 0.1325,-0.0389 0.1162,-0.0747 0.0904,-0.1044 0.0574,-0.1256 0.0196,-0.1367 -0.004,-0.0251 -0.006,-0.0446 -0.01,-0.067 -0.0574,-0.1256 v 0 0 0 l -0.0904,-0.1044 v 0 l -0.1162,-0.0747 v 0 0 l -0.1325,-0.0389 h -0.1382 l -0.1325,0.0389 v 0 0 l -0.1162,0.0747 v 0 l -0.0904,0.1044 v 0 l -0.0574,0.1256 v 0 l -0.0196,0.1367 h -16.513 v -0.0251 l -0.009,-0.0446 v 0 0 l -0.0338,-0.0505 v 0 l -0.0505,-0.0338 -0.0446,-0.009 v 0 h -1.7302 v 0 l -0.0334,0.007 -0.0112,0.002 v 0 0 l -0.0505,0.0338 v 0 l -0.0338,0.0505 v 0 l -0.009,0.0446 h -2.4971 v -0.5004 h 17.7818 v 0 l 0.0196,0.1367 v 0 l 0.0574,0.1256 v 0 l 0.0904,0.1044 v 0 l 0.1162,0.0747 v 0 0 l 0.1325,0.0389 v 0 h 0.1382 v 0 l 0.1325,-0.0389 0.1162,-0.0747 0.0904,-0.1044 0.0574,-0.1256 0.0196,-0.1367 -0.0196,-0.1367 -0.0574,-0.1256 v 0 0 0 l -0.0904,-0.1044 v 0 l -0.1162,-0.0747 v 0 0 l -0.1325,-0.0389 h -0.1382 l -0.1325,0.0389 v 0 0 l -0.1162,0.0747 v 0 l -0.0904,0.1044 v 0 l -0.0574,0.1256 v 0 l -0.0196,0.1367 h -17.7818 v -1.3269 h 2.4054 0.6178 l -0.0232,0.0866 v 0.1316 l 0.0232,0.0866 h -0.6178 l 0.005,0.0513 v 0 l 0.056,0.1968 0.0912,0.1832 v 0 l 0.1233,0.1632 v 0 l 0.1512,0.1379 0.174,0.1077 0.1908,0.0739 0.151,0.0282 v 0 -0.6178 l 0.0866,0.0232 h 0.1316 l 0.0866,-0.0232 v 0.6178 l 0.151,-0.0282 0.1908,-0.0739 0.174,-0.1077 0.1512,-0.1379 v 0 l 0.1233,-0.1632 v 0 l 0.0912,-0.1832 0.0559,-0.1968 h 1e-4 l 0.005,-0.0513 h -0.6178 l 0.0232,-0.0866 v -0.1316 l -0.0232,-0.0866 h 0.6178 l -0.005,-0.0513 h -1e-4 l -0.0559,-0.1968 -0.0912,-0.1832 v 0 l -0.1233,-0.1632 v 0 l -0.1512,-0.1379 -0.174,-0.1077 -0.1908,-0.0739 -0.151,-0.0282 v 0.6178 L 129.767,105.15 h -0.1316 l -0.0866,0.0232 v -0.6178 0 l -0.151,0.0282 -0.1908,0.0739 -0.174,0.1077 -0.1512,0.1379 v 0 l -0.1233,0.1632 v 0 l -0.0912,0.1832 -0.056,0.1968 v 0 l -0.005,0.0513 h -2.4054 v -3.0031 h 15.0148 v 0 l 0.0196,0.1367 v 0 l 0.0574,0.1256 v 0 l 0.0904,0.1044 v 0 l 0.1162,0.0747 v 0 0 l 0.1325,0.0389 v 0 h 0.1382 v 0 l 0.1325,-0.0389 0.1162,-0.0747 0.0904,-0.1044 0.0574,-0.1256 0.0196,-0.1367 -0.0196,-0.1367 -0.0574,-0.1256 v 0 0 0 l -0.0904,-0.1044 v 0 l -0.1162,-0.0747 v 0 0 l -0.1325,-0.0389 h -0.1382 l -0.1325,0.0389 v 0 0 l -0.1162,0.0747 v 0 l -0.0904,0.1044 v 0 l -0.0574,0.1256 v 0 l -0.0196,0.1367 h -15.0148 v -2.3365 h 9.1227 v 0 l 0.0197,0.1367 v 0 l 0.0573,0.1256 v 0 l 0.0905,0.1044 v 0 l 0.1162,0.0746 v 0 0 l 0.1325,0.039 v 0 h 0.1381 v 0 l 0.1325,-0.039 0.1162,-0.0746 0.0905,-0.1044 0.0573,-0.1256 0.0197,-0.1367 -10e-4,-0.008 v 0 h 3.8228 v 0 l 0.0196,0.1367 v 0 l 0.0574,0.1256 v 0 l 0.0904,0.1044 v 0 l 0.1162,0.0747 v 0 0 l 0.1325,0.0389 v 0 h 0.1382 v 0 l 0.1325,-0.0389 0.1162,-0.0747 0.0482,-0.0556 0.034,-0.0171 0.0362,0.0121 0.005,0.005 0.0482,0.0556 v 0 l 0.1162,0.0747 v 0 0 l 0.1325,0.0389 v 0 h 0.1382 v 0 l 0.1325,-0.0389 0.1162,-0.0747 0.0904,-0.1044 0.0574,-0.1256 0.0196,-0.1367 -0.0196,-0.1367 -0.0574,-0.1256 v 0 0 0 l -0.0904,-0.1044 v 0 l -0.1162,-0.0747 v 0 0 l -0.1325,-0.0389 h -0.1382 l -0.1325,0.0389 v 0 0 l -0.1162,0.0747 v 0 l -0.0482,0.0556 -0.034,0.0171 -0.0362,-0.0121 -0.005,-0.005 -0.0482,-0.0556 v 0 l -0.1162,-0.0747 v 0 0 l -0.1325,-0.0389 h -0.1382 l -0.1325,0.0389 v 0 0 l -0.1162,0.0747 v 0 l -0.0904,0.1044 v 0 l -0.0574,0.1256 v 0 l -0.0196,0.1367 h -3.8228 l -0.005,-0.0376 -0.0131,-0.0912 -0.0573,-0.1256 v 0 0 0 l -0.0905,-0.1044 v 0 l -0.1162,-0.0746 v 0 0 l -0.1325,-0.0389 H 135.74 l -0.1325,0.0389 v 0 0 l -0.1162,0.0746 v 0 l -0.0905,0.1044 v 0 l -0.0573,0.1256 v 0 l -0.0197,0.1368 h -9.1227 V 99.05 h 13.9148 v 0 l 0.0196,0.1367 v 0 l 0.0574,0.1256 v 0 l 0.0904,0.1044 v 0 l 0.1162,0.0747 v 0 0 l 0.1325,0.0389 v 0 h 0.1382 v 0 l 0.1325,-0.0389 0.1162,-0.0747 0.0904,-0.1044 0.0574,-0.1256 0.0196,-0.1367 -0.0196,-0.1367 -0.0574,-0.1256 v 0 0 0 l -0.0904,-0.1044 v 0 l -0.1162,-0.0747 v 0 0 l -0.1325,-0.0389 h -0.1382 l -0.1325,0.0389 v 0 0 l -0.1162,0.0747 v 0 l -0.0904,0.1044 v 0 l -0.0574,0.1256 v 0 l -0.0196,0.1367 h -13.9148 v -4.6524 h 4.6254 0.6178 l -0.0232,0.0866 v 0.1316 l 0.0232,0.0866 h -0.6178 l 0.005,0.0513 v 0 l 0.056,0.1968 0.0912,0.1832 v 0 l 0.1233,0.1632 v 0 l 0.1512,0.1379 0.174,0.1077 0.1908,0.0739 0.151,0.0282 v 0 -0.6178 l 0.0866,0.0232 h 0.1316 l 0.0866,-0.0232 v 0.6178 l 0.151,-0.0282 0.1908,-0.0739 0.174,-0.1077 0.1512,-0.1379 0.015,-0.0198 0.0328,-0.0193 0.0369,0.0096 0.0193,0.0328 5e-4,0.0069 v 0.2682 l 0.0357,0.2482 0.0706,0.2405 v 0 l 0.1041,0.228 0.1356,0.2109 v 0 l 0.1641,0.1895 v 0 l 0.1895,0.1641 v 0 l 0.2109,0.1356 v 0 0 l 0.228,0.1041 0.2405,0.0706 0.2482,0.0357 h 0.0784 1.4914 l 0.0352,0.0146 0.0805,0.0805 0.1275,0.0736 0.1423,0.0381 h 1.6174 l 0.0352,0.0146 0.0146,0.0352 -0.004,0.0207 -0.0547,0.1197 v 0 l -0.0196,0.1367 v 0 l 0.0196,0.1367 v 0 l 0.0574,0.1256 v 0 l 0.0904,0.1044 v 0 l 0.1162,0.0747 v 0 0 l 0.1325,0.0389 h 0.0468 l 0.0352,0.0146 0.0146,0.0352 -5e-4,0.0071 -0.0141,0.098 v 0 l 0.0197,0.1367 v 0 l 0.0573,0.1256 v 0 l 0.0905,0.1044 v 0 l 0.1162,0.0746 v 0 0 l 0.1325,0.039 v 0 h 0.1381 v 0 l 0.1325,-0.039 0.1162,-0.0746 0.0905,-0.1044 0.0573,-0.1256 0.0197,-0.1367 -0.0197,-0.1368 -0.0573,-0.1256 v 0 0 0 l -0.0905,-0.1044 v 0 l -0.117,-0.0746 v 0 0 l -0.1325,-0.0389 v 0 h -0.0468 l -0.0352,-0.0146 -0.0146,-0.0352 6e-4,-0.0071 0.014,-0.098 v 0 l -0.006,-0.0456 -0.0131,-0.0911 -0.0547,-0.1197 -0.001,-0.0381 0.0259,-0.0279 0.0207,-0.0045 h 3.5702 6.3145 l 0.0352,0.0146 0.0146,0.0352 v 5.6716 l -0.0146,0.0352 -0.0352,0.0146 h -2.3278 l -0.014,-0.002 -0.005,-0.001 -0.0251,-0.007 h -0.1382 l -0.03,0.009 -0.014,0.002 h -0.6556 l -0.0353,-0.0146 -0.0145,-0.0352 0.0121,-0.0326 h 10e-5 l 0.0527,-0.0609 0.0574,-0.1256 0.0196,-0.1367 -0.003,-0.0181 -0.004,-0.0275 -0.0131,-0.0911 -0.0574,-0.1256 v 0 0 0 l -0.0905,-0.1044 v 0 l -0.1162,-0.0747 v 0 0 l -0.1325,-0.0389 h -0.1381 l -0.1325,0.0389 v 0 0 l -0.1162,0.0747 v 0 l -0.0904,0.1044 v 0 l -0.0574,0.1256 v 0 l -0.0197,0.1367 v 0 l 0.0197,0.1367 0.0574,0.1256 0.0526,0.0608 10e-5,1e-4 0.012,0.0362 -0.017,0.0341 -0.0326,0.0121 h -3.0801 l -0.0141,-0.002 -0.0428,-0.0126 -0.0273,-0.008 h -0.1381 l -0.1325,0.0389 v 0 0 l -0.1162,0.0747 v 0 l -0.0904,0.1044 v 0 l -0.0159,0.0346 -0.01,0.0146 -0.8067,0.8066 -0.008,0.007 -0.1097,0.0705 -9e-4,-10e-4 -0.027,0.01 h -3.8957 l -0.0799,0.0214 -0.0107,0.003 v 0 0 l -0.0812,0.0469 -0.0663,0.0663 -0.0352,0.0146 h -0.0252 l -0.1325,0.0389 v 0 0 l -0.1162,0.0747 v 0 l -0.0904,0.1044 v 0 l -0.0574,0.1256 v 0 l -0.0196,0.1367 v 0 l 0.0196,0.1367 v 0 l 0.0574,0.1256 v 0 l 0.0904,0.1044 v 0 l 0.1162,0.0747 v 0 0 l 0.1325,0.0389 v 0 h 0.1382 v 0 l 0.1325,-0.0389 0.1162,-0.0747 0.0904,-0.1044 0.0574,-0.1256 0.002,-0.0142 0.0195,-0.0327 0.0298,-0.01 h 3.6082 l 0.027,0.0101 9e-4,-0.001 0.1191,0.0766 v 0 0 l 0.1326,0.0389 h 0.0197 l 0.0352,0.0146 0.0146,0.0352 -5e-4,0.007 -0.0117,0.0818 -0.0195,0.0328 -0.0369,0.009 -0.007,-0.002 -0.0269,-0.008 -0.0196,-0.006 h -0.1382 l -0.1325,0.0389 v 0 0 l -0.1162,0.0747 v 0 l -0.0904,0.1044 v 0 l -0.0574,0.1256 v 0 l -0.0196,0.1367 v 0 l 0.0196,0.1367 v 0 l 0.0574,0.1256 v 0 l 0.0904,0.1044 v 0 l 0.1162,0.0747 v 0 0 l 0.1325,0.0389 v 0 h 0.1382 v 0 l 0.1325,-0.0389 0.1162,-0.0747 0.0904,-0.1044 0.0574,-0.1256 0.0138,-0.0964 0.0195,-0.0328 0.0369,-0.009 0.007,10e-4 0.0465,0.0137 v 0 h 0.1382 v 0 l 0.1325,-0.0389 0.1162,-0.0747 0.0482,-0.0556 0.034,-0.0171 0.0362,0.0121 0.005,0.005 0.0482,0.0556 v 0 l 0.1162,0.0747 v 0 0 l 0.0215,0.006 0.0297,0.0239 0.004,0.0379 -0.002,0.007 -0.0154,0.0338 -0.0343,0.075 v 0 l -0.0197,0.1367 v 0 l 0.0197,0.1367 v 0 l 0.0574,0.1257 v 0 l 0.0904,0.1044 v 0 l 0.1162,0.0746 v 0 0 l 0.1325,0.0389 v 0 h 0.1381 v 0 l 0.1326,-0.0389 0.1161,-0.0746 0.0905,-0.1044 0.0574,-0.1257 0.0196,-0.1367 -0.0196,-0.1367 -0.0574,-0.1256 v 0 0 0 l -0.0904,-0.1044 h -1e-4 L 142.391,105.7 h 0.6809 v 0 l 0.0196,0.1367 v 0 l 0.0574,0.1256 v 0 l 0.0904,0.1044 v 0 l 0.1162,0.0747 v 0 0 l 0.1325,0.0389 v 0 h 0.1382 v 0 l 0.1325,-0.0389 0.1162,-0.0747 0.004,-0.004 0.0866,-0.1 v 0 0 0 l 0.0574,-0.1256 0.0196,-0.1367 v -3e-4 l -0.0105,-0.0727 -0.009,-0.0637 -0.0574,-0.1256 v 0 0 0 l -0.0718,-0.0829 h 0.3641 v 0 l 0.0197,0.1367 v 0 l 0.0574,0.1256 v 0 l 0.0904,0.1044 v 0 l 0.1162,0.0747 v 0 0 l 0.1325,0.0389 v 0 h 0.1381 v 0 l 0.1325,-0.0389 0.1162,-0.0747 0.0187,-0.0215 0.0115,-0.0133 0.0603,-0.0696 0.0573,-0.1256 0.0197,-0.1367 -0.002,-0.0118 -0.0121,-0.0844 -0.006,-0.0405 -0.0573,-0.1256 v 0 0 0 l -0.0905,-0.1044 v 0 l -0.1162,-0.0747 v 0 0 l -0.1325,-0.0389 h -0.1381 l -0.1325,0.0389 v 0 0 l -0.1162,0.0747 v 0 l -0.0904,0.1044 v 0 l -0.0574,0.1256 v 0 l -0.0197,0.1367 h -0.3641 l -0.0186,-0.0215 v 0 l -0.1162,-0.0747 v 0 0 l -0.1325,-0.0389 h -0.1382 l -0.1325,0.0389 v 0 0 l -0.1162,0.0747 v 0 l -0.0904,0.1044 v 0 l -0.0574,0.1256 v 0 l -0.0196,0.1367 h -0.6809 l -0.0726,-0.0467 v 0 l -0.0216,-0.006 -0.0296,-0.0239 -0.004,-0.0379 0.002,-0.007 0.0497,-0.1089 0.0196,-0.1367 -0.003,-0.018 -0.0106,-0.0741 -0.006,-0.0446 -0.0574,-0.1256 v 0 0 0 l -0.0904,-0.1044 v 0 l -0.1162,-0.0747 v 0 0 l -0.1325,-0.0389 h -0.1382 l -0.1325,0.0389 v 0 0 l -0.1162,0.0747 v 0 l -0.0482,0.0556 -0.0341,0.0171 -0.0361,-0.0121 -0.005,-0.005 -0.0482,-0.0556 v 0 l -0.1162,-0.0747 v 0 l -0.1029,-0.0302 -0.0297,-0.0239 -0.004,-0.0379 0.0126,-0.0212 0.6679,-0.6679 0.0352,-0.0146 h 4.3847 l 0.0141,0.002 0.1101,0.0324 v 0 h 0.1382 v 0 l 0.1101,-0.0324 0.0141,-0.002 h 2.2476 l 0.0352,0.0146 0.0146,0.0352 v 10.3058 l -0.0146,0.0352 -0.0352,0.0146 h -10.9145 l -0.1423,0.0381 v 0 l -0.1275,0.0736 -0.1042,0.1042 -0.0736,0.1275 v 0 l -0.0381,0.1423 v 0.1472 l 0.0381,0.1423 v 0 0 l 0.0736,0.1275 0.1042,0.1042 0.1275,0.0736 0.1423,0.0381 h 1.6174 l 0.0352,0.0146 0.0146,0.0352 -0.004,0.0207 -0.0547,0.1197 v 0 l -0.0196,0.1367 v 0 l 0.0196,0.1367 v 0 l 0.0574,0.1256 v 0 l 0.0904,0.1044 v 0 l 0.1162,0.0747 v 0 0 l 0.1325,0.0389 v 0 h 0.1382 v 0 l 0.1325,-0.0389 0.1162,-0.0747 0.0904,-0.1044 0.0574,-0.1256 0.0196,-0.1367 -0.0196,-0.1367 -0.0547,-0.1197 -0.001,-0.0381 0.0259,-0.0279 0.0207,-0.004 h 3.5702 5.35 2.2319 l 0.0352,0.0146 1.0589,1.0589 0.1042,0.1042 0.1275,0.0736 0.1423,0.0381 h 0.3117 l 0.0352,0.0146 0.003,0.004 0.1109,0.1351 0.1527,0.1253 0.1742,0.0931 0.1891,0.0574 0.1481,0.0146 0.0485,0.005 v 0 0 l 0.0448,-0.004 0.1518,-0.0149 0.1891,-0.0574 0.1742,-0.0931 0.1527,-0.1253 0.1253,-0.1527 0.0931,-0.1743 0.0574,-0.189 0.0194,-0.1966 -0.004,-0.0414 -0.01,-0.0995 -0.006,-0.0557 -0.0574,-0.1891 -0.0931,-0.1742 -0.1253,-0.1527 -0.1527,-0.1253 -0.1742,-0.0931 -0.1891,-0.0574 -0.1966,-0.0194 v 0 l -0.1966,0.0194 -0.0823,0.025 -0.1068,0.0324 v 0 0 l -0.1129,0.0603 -0.0613,0.0328 v 0 0 l -0.1527,0.1253 -0.1044,0.1273 -0.0336,0.0179 -0.0365,-0.011 -0.004,-0.003 -1.1553,-1.1553 -0.0567,-0.0327 -0.0708,-0.0409 v 0 0 0 l -0.1423,-0.0381 v 0 h -1.8751 l -0.0352,-0.0146 -0.0146,-0.0352 V 113.81 h 3.2329 v 0 l 0.0102,0.1033 0.009,0.0933 0.0574,0.1891 0.0931,0.1742 0.1253,0.1527 0.1527,0.1253 0.1742,0.0931 0.1891,0.0574 0.1481,0.0146 0.0485,0.005 v 0 0 l 0.0448,-0.005 0.1518,-0.0149 0.1891,-0.0574 0.1742,-0.0931 0.1527,-0.1253 0.1253,-0.1527 0.0931,-0.1742 0.0574,-0.1891 0.0194,-0.1966 -0.002,-0.0223 -0.0103,-0.1044 -0.007,-0.0699 -0.0574,-0.1891 -0.0931,-0.1742 -0.1253,-0.1527 -0.1527,-0.1253 -0.1742,-0.0931 -0.1891,-0.0574 -0.1966,-0.0194 v 0 l -0.1966,0.0194 -0.0823,0.025 -0.1068,0.0324 v 0 0 l -0.1129,0.0603 -0.0613,0.0328 v 0 0 l -0.1527,0.1253 -0.1253,0.1527 -0.0931,0.1742 v 0 l -0.0574,0.1891 -0.0194,0.1966 h -3.2329 v -1.61 h 0.4555 v 0 l 0.0196,0.1367 v 0 l 0.0574,0.1256 v 0 l 0.0904,0.1044 v 0 l 0.1162,0.0747 v 0 0 l 0.1325,0.0389 v 0 h 0.1382 v 0 l 0.1325,-0.0389 0.1162,-0.0747 0.0904,-0.1044 0.0574,-0.1256 0.0195,-0.1357 10e-5,-10e-4 v 0 l -0.0132,-0.0921 -0.006,-0.0446 -0.0574,-0.1256 v 0 0 0 l -0.0904,-0.1044 v 0 l -0.1162,-0.0747 v 0 0 l -0.1325,-0.0389 h -0.1382 l -0.1325,0.0389 v 0 0 l -0.1162,0.0747 v 0 l -0.0904,0.1044 v 0 l -0.0574,0.1256 v 0 l -0.0196,0.1367 h -0.4555 v -0.93 h 3.2329 l 0.0194,0.1966 0.0574,0.189 0.0931,0.1743 0.1253,0.1527 0.1527,0.1253 0.1742,0.0931 0.1891,0.0574 0.1481,0.0146 0.0485,0.005 v 0 0 l 0.0448,-0.004 0.1518,-0.0149 0.1891,-0.0574 0.1742,-0.0931 0.1527,-0.1253 0.1253,-0.1527 0.0931,-0.1743 0.0574,-0.189 0.0194,-0.1966 -0.0194,-0.1966 -0.0574,-0.1891 -0.0931,-0.1742 -0.1253,-0.1527 -0.1527,-0.1253 -0.1742,-0.0931 -0.1891,-0.0574 -0.1966,-0.0194 v 0 l -0.1966,0.0194 -0.0823,0.025 -0.1068,0.0324 v 0 0 l -0.0567,0.0303 -0.1175,0.0628 v 0 0 l -0.1527,0.1253 -0.1253,0.1527 -0.0931,0.1742 v 0 0 l -0.0574,0.1891 -0.0194,0.1966 h -3.2329 v -2.54 h 3.2329 v 0 l 0.002,0.0235 0.017,0.1731 0.0574,0.189 v 1e-4 0 l 0.007,0.0129 0.0862,0.1613 0.1253,0.1527 0.1384,0.1136 0.007,0.005 0.008,0.006 0.1742,0.0931 0.1891,0.0574 0.1481,0.0146 0.0485,0.005 v 0 0 l 0.0448,-0.004 0.1518,-0.0149 0.1891,-0.0574 0.1742,-0.0931 0.1527,-0.1253 0.1253,-0.1527 0.0931,-0.1743 0.0574,-0.189 0.017,-0.1731 0.002,-0.0235 v 0 l -0.009,-0.0901 -0.0105,-0.1065 -0.0574,-0.1891 -0.0931,-0.1742 -0.006,-0.008 -0.0402,-0.049 -0.0787,-0.0959 -0.1527,-0.1253 -0.1742,-0.0931 -0.1891,-0.0574 -0.1966,-0.0194 v 0 l -0.1966,0.0194 -0.0715,0.0217 -0.1176,0.0357 v 0 0 l -0.1129,0.0603 -0.0613,0.0328 v 0 0 l -0.1527,0.1253 -0.1253,0.1527 v 0 0 l -0.009,0.0176 -0.0837,0.1566 v 0 0 l -0.0129,0.0424 -0.0445,0.1467 -0.0194,0.1966 h -3.2329 v -0.83 h 0.4555 v 0 l 0.0196,0.1367 v 0 l 0.0574,0.1256 v 0 l 0.0904,0.1044 v 0 l 0.1162,0.0747 v 0 0 l 0.1325,0.0389 v 0 h 0.1382 v 0 l 0.1325,-0.0389 0.1162,-0.0747 0.0904,-0.1044 0.0574,-0.1256 0.0196,-0.1367 -0.0196,-0.1367 -0.0574,-0.1256 v 0 0 0 l -0.0904,-0.1044 v 0 l -0.1162,-0.0747 v 0 0 l -0.1325,-0.0389 h -0.1382 l -0.1325,0.0389 v 0 0 l -0.1162,0.0747 v 0 l -0.0904,0.1044 v 0 l -0.0574,0.1256 v 0 l -0.0196,0.1367 h -0.4555 v -2.585 h 3.1367 v 0.7226 h 0.6272 l -0.0232,0.0866 v 0.1316 l 0.0232,0.0866 h -0.6272 v 0.7226 l 0.0147,0.0741 v 0 l 0.0562,0.084 v 0 l 0.084,0.0562 v 0 l 0.0741,0.0147 h 0.7226 v -0.6272 l 0.0866,0.0232 h 0.1316 l 0.0866,-0.0232 v 0.6272 h 0.7226 v 0 l 0.0741,-0.0147 v 0 l 0.084,-0.0562 v 0 l 0.0562,-0.084 v 0 l 0.0147,-0.0741 v 0 -0.7226 h -0.6272 l 0.0232,-0.0866 v -0.1316 l -0.0232,-0.0866 h 0.6272 v -0.7226 0 l -0.0147,-0.0741 v 0 l -0.0562,-0.084 v 0 l -0.084,-0.0562 v 0 l -0.0741,-0.0147 h -0.7226 v 0.6272 l -0.0866,-0.0232 h -0.1316 l -0.0866,0.0232 v -0.6272 h -0.7226 v 0 l -0.0741,0.0147 v 0 l -0.084,0.0562 v 0 l -0.0562,0.084 v 0 l -0.0147,0.0741 h -3.1367 v -8.5386 0 l -0.0381,-0.1423 v 0 l -0.0736,-0.1275 -0.1042,-0.1042 v 0 l -0.1275,-0.0736 v 0 0 0 l -0.1423,-0.0381 v 0 h -6.85 -6.2472 v 0 l -0.1423,0.0381 v 0 l -0.1275,0.0736 -0.0733,0.0733 -0.0352,0.0146 h -1.4495 l -0.004,-2e-4 -0.1741,-0.0152 -0.009,-0.0015 -0.1667,-0.0447 -0.008,-0.003 -0.1564,-0.0729 -0.007,-0.0044 -0.1414,-0.099 -0.007,-0.0056 -0.122,-0.122 -0.006,-0.0067 -0.099,-0.1414 -0.004,-0.0075 -0.0729,-0.1565 -0.003,-0.0081 -0.042,-0.157 -0.003,-0.0097 -0.001,-0.0086 -0.004,-0.051 -0.0108,-0.1231 -2e-4,-0.0044 v -0.2791 l 0.0146,-0.0353 0.0352,-0.0145 0.0352,0.0145 0.003,0.0037 0.103,0.1255 0.1527,0.1253 0.1742,0.0931 0.1891,0.0574 0.1473,0.0145 0.0493,0.0049 v 0 0 l 0.0448,-0.0045 0.1518,-0.0149 0.189,-0.0574 0.1743,-0.0931 0.1527,-0.1253 0.1253,-0.1527 0.0931,-0.1743 0.0574,-0.189 0.0194,-0.1966 h 0.5244 l 0.0194,0.1966 0.0574,0.189 0.0931,0.1743 v 0 0 l 0.0193,0.0235 0.106,0.1292 0.1527,0.1253 0.1742,0.0931 0.1891,0.0574 0.1473,0.0145 0.0493,0.0049 v 0 0 l 0.0448,-0.0045 0.1518,-0.0149 0.1891,-0.0574 0.1742,-0.0931 0.1527,-0.1253 0.1253,-0.1527 0.0931,-0.1743 0.0574,-0.189 0.0194,-0.1966 h 0.5244 l 0.0194,0.1966 0.0574,0.189 0.0931,0.1743 v 0 0 l 0.0193,0.0235 0.106,0.1292 0.1527,0.1253 0.1743,0.0931 0.189,0.0574 0.1473,0.0145 0.0493,0.0049 v 0 0 l 0.0448,-0.0045 0.1518,-0.0149 0.189,-0.0574 0.1743,-0.0931 0.1527,-0.1253 0.1253,-0.1527 0.0931,-0.1743 0.0574,-0.189 0.0194,-0.1966 -0.0151,-0.1524 h 0.4527 0.6178 l -0.0232,0.0866 v 0.1316 l 0.0232,0.0866 h -0.6178 l 0.005,0.0513 v 0 l 0.056,0.1968 0.0912,0.1832 v 0 l 0.1233,0.1632 v 0 l 0.1512,0.1379 0.174,0.1077 0.1908,0.0739 0.151,0.0282 v 0 -0.6178 l 0.0866,0.0232 h 0.1316 l 0.0866,-0.0232 v 0.6178 l 0.151,-0.0282 0.1908,-0.0739 0.174,-0.1077 0.1512,-0.1379 v 0 l 0.1233,-0.1632 v 0 l 0.0912,-0.1832 0.056,-0.1968 v 0 l 0.005,-0.0513 h -0.6178 l 0.0232,-0.0866 v -0.1316 l -0.0232,-0.0866 h 0.6178 0.3508 0.6178 l -0.0232,0.0866 v 0.1316 l 0.0232,0.0866 h -0.6178 l 0.005,0.0513 v 0 l 0.056,0.1968 0.0912,0.1832 v 0 l 0.1233,0.1632 v 0 l 0.1512,0.1379 0.174,0.1077 0.1908,0.0739 0.151,0.0282 v 0 -0.6178 l 0.0866,0.0232 h 0.1316 l 0.0866,-0.0232 v 0.6178 l 0.151,-0.0282 0.1908,-0.0739 0.174,-0.1077 0.1512,-0.1379 v 0 l 0.1233,-0.1632 v 0 l 0.0912,-0.1832 0.0559,-0.1968 h 10e-5 l 0.005,-0.0513 H 145.1 l 0.0232,-0.0866 V 94.55 h 1.0322 l 0.0194,0.1966 0.0574,0.189 0.0931,0.1743 v 0 0 l 0.0193,0.0235 0.106,0.1292 0.1527,0.1253 0.1743,0.0931 0.189,0.0574 0.1473,0.0145 0.0493,0.0049 v 0 0 l 0.0448,-0.0045 0.1518,-0.0149 0.1891,-0.0574 0.1742,-0.0931 0.1527,-0.1253 0.1253,-0.1527 0.0931,-0.1743 0.0574,-0.189 0.0194,-0.1966 h 0.5244 l 0.0194,0.1966 0.0574,0.189 0.0931,0.1743 v 0 0 l 0.0193,0.0235 0.106,0.1292 0.1527,0.1253 0.1742,0.0931 0.1891,0.0574 0.1473,0.0145 0.0493,0.0049 v 0 0 l 0.0448,-0.0045 0.1518,-0.0149 0.189,-0.0574 0.1743,-0.0931 0.1527,-0.1253 0.1253,-0.1527 0.0931,-0.1743 0.0574,-0.189 0.0194,-0.1966 h 0.5244 l 0.0194,0.1966 0.0574,0.189 0.0931,0.1743 v 0 0 l 0.0193,0.0235 0.106,0.1292 0.1527,0.1253 0.1742,0.0931 0.1891,0.0574 0.1473,0.0145 0.0493,0.0049 v 0 0 l 0.0448,-0.0045 0.1518,-0.0149 0.189,-0.0574 0.1743,-0.0931 0.1527,-0.1253 0.1253,-0.1527 0.0931,-0.1743 0.0574,-0.189 0.0194,-0.1966 -0.0194,-0.1966 -0.0574,-0.1891 -0.0931,-0.1742 -0.1253,-0.1527 -0.1527,-0.1253 -0.0508,-0.0272 h 1.028 v 1.7301 10e-5 l 0.009,0.0446 v 0 l 0.0338,0.0505 v 0 l 0.0505,0.0338 0.0446,0.0089 h 1.7302 l 0.0446,-0.0089 0.0505,-0.0338 0.0338,-0.0505 0.009,-0.0446 v -1.7302 l -0.009,-0.0446 v 0 0 l -0.0338,-0.0505 v 0 l -0.0505,-0.0338 -0.0446,-0.0089 v 0 h -1.7302 v 0 l -0.0334,0.0067 -0.0112,0.0022 v 0 0 l -0.0505,0.0338 v 0 l -0.0338,0.0505 v 0 l -0.009,0.0446 h -1.028 l -0.1235,-0.0659 -0.189,-0.0574 -0.1966,-0.0194 v 0 l -0.1966,0.0194 -0.0823,0.025 -0.1068,0.0324 v 0 0 l -0.0865,0.0462 -0.0877,0.0469 v 0 0 l -0.1527,0.1253 -0.1253,0.1527 -0.0931,0.1742 v 0 0 l -0.0574,0.1891 -0.0194,0.1966 h -0.5244 l -0.0194,-0.1966 -0.0574,-0.1891 -0.0931,-0.1742 -0.1253,-0.1527 -0.1527,-0.1253 -0.1743,-0.0931 -0.189,-0.0574 -0.1966,-0.0194 v 0 l -0.1966,0.0194 -0.0823,0.025 -0.1068,0.0324 v 0 0 l -0.0865,0.0462 -0.0877,0.0469 v 0 0 l -0.1527,0.1253 -0.1253,0.1527 -0.0931,0.1742 v 0 0 l -0.0574,0.1891 -0.0194,0.1966 h -0.5244 l -0.0194,-0.1966 -0.0574,-0.1891 -0.0931,-0.1742 -0.1253,-0.1527 -0.1527,-0.1253 -0.1742,-0.0931 -0.1891,-0.0574 -0.1966,-0.0194 v 0 l -0.1966,0.0194 -0.0823,0.025 -0.1067,0.0324 h -1e-4 v 0 l -0.0865,0.0462 -0.0877,0.0469 v 0 0 l -0.1527,0.1253 -0.1253,0.1527 -0.0931,0.1742 v 0 0 l -0.0574,0.1891 -0.0194,0.1966 h -1.0322 V 94.4842 L 145.1,94.3976 h 0.6178 l -0.005,-0.0513 h -10e-5 l -0.0559,-0.1968 -0.0912,-0.1832 v 0 l -0.1233,-0.1632 v 0 l -0.1512,-0.1379 -0.174,-0.1077 -0.1908,-0.0739 -0.151,-0.0282 v 0.6178 L 144.6869,94.05 h -0.1316 l -0.0866,0.0232 v -0.6178 0 l -0.151,0.0282 -0.1908,0.0739 -0.174,0.1077 -0.1512,0.1379 v 0 l -0.1233,0.1632 v 0 l -0.0912,0.1832 -0.056,0.1968 v 0 l -0.005,0.0513 h -0.3508 l -0.005,-0.0513 v 0 l -0.056,-0.1968 -0.0912,-0.1832 v 0 l -0.1233,-0.1632 v 0 l -0.1512,-0.1379 -0.174,-0.1077 -0.1908,-0.0739 -0.151,-0.0282 v 0.6178 l -0.086,-0.0232 h -0.1316 l -0.0866,0.0232 v -0.6178 0 l -0.151,0.0282 -0.1908,0.0739 -0.174,0.1077 -0.1512,0.1379 v 0 l -0.1233,0.1632 v 0 l -0.0912,0.1832 -0.056,0.1968 v 0 l -0.005,0.0513 h -0.4527 l -0.004,-0.0442 -0.0574,-0.1891 -0.0931,-0.1742 -0.1253,-0.1527 -0.1527,-0.1253 -0.1743,-0.0931 -0.189,-0.0574 -0.1966,-0.0194 v 0 l -0.1966,0.0194 -0.0823,0.025 -0.1067,0.0324 h -1e-4 v 0 l -0.0865,0.0462 -0.0877,0.0469 v 0 0 l -0.1527,0.1253 -0.1253,0.1527 -0.0931,0.1742 v 0 0 l -0.0574,0.1891 -0.0194,0.1966 h -0.5244 l -0.0194,-0.1966 -0.0574,-0.1891 -0.0931,-0.1742 -0.1253,-0.1527 -0.1527,-0.1253 -0.1742,-0.0931 -0.1891,-0.0574 -0.1966,-0.0194 v 0 l -0.1966,0.0194 -0.0823,0.025 -0.1068,0.0324 v 0 0 l -0.0865,0.0462 -0.0877,0.0469 v 0 0 l -0.1527,0.1253 -0.1253,0.1527 -0.0931,0.1742 v 0 0 l -0.0574,0.1891 -0.0194,0.1966 h -0.5244 l -0.0194,-0.1966 -0.0574,-0.1891 -0.0931,-0.1742 -0.1253,-0.1527 -0.1527,-0.1253 -0.1743,-0.0931 -0.189,-0.0574 -0.1966,-0.0194 v 0 l -0.1966,0.0194 -0.0823,0.025 -0.1068,0.0324 v 0 0 l -0.0865,0.0462 -0.0877,0.0469 v 0 0 l -0.1527,0.1253 -0.103,0.1255 -0.0336,0.018 -0.0365,-0.0111 -0.018,-0.0336 -2e-4,-0.0049 v -0.7583 0 l -0.0333,-0.2317 -0.0659,-0.2245 -0.0973,-0.2129 v 0 0 l -0.1265,-0.1969 v 0 l -0.1532,-0.1768 -10e-5,-1e-4 -0.1383,-0.1198 -1e-4,-3e-4 h 0.5108 l 0.0194,0.1966 0.0574,0.189 0.0931,0.1743 0.1253,0.1527 0.1527,0.1253 0.1742,0.0931 0.1891,0.0574 0.1481,0.0146 0.0485,0.0048 v 0 0 l 0.0448,-0.0045 0.1518,-0.0149 0.189,-0.0574 0.1743,-0.0931 0.1527,-0.1253 0.1253,-0.1527 0.0931,-0.1743 0.0574,-0.189 0.0194,-0.1966 h 0.5244 l 0.0194,0.1966 0.0574,0.189 0.0931,0.1743 0.1253,0.1527 0.1527,0.1253 0.1742,0.0931 0.1891,0.0574 0.1481,0.0146 0.0485,0.0048 v 0 0 l 0.0448,-0.0045 0.1518,-0.0149 0.1891,-0.0574 0.1742,-0.0931 0.1527,-0.1253 0.1253,-0.1527 0.0931,-0.1743 0.0574,-0.189 0.0194,-0.1966 h 0.5244 l 0.0194,0.1966 0.0574,0.189 0.0931,0.1743 0.1253,0.1527 0.1527,0.1253 0.1743,0.0931 0.189,0.0574 0.1481,0.0146 0.0485,0.0048 v 0 0 l 0.0448,-0.0045 0.1518,-0.0149 0.189,-0.0574 0.1743,-0.0931 0.1527,-0.1253 0.1253,-0.1527 0.0931,-0.1743 0.0574,-0.189 0.0194,-0.1966 h 0.5244 l 0.0194,0.1966 0.0574,0.189 0.0931,0.1743 0.1253,0.1527 0.1527,0.1253 0.1742,0.0931 0.1891,0.0574 0.1481,0.0146 0.0485,0.0048 v 0 0 l 0.0448,-0.0045 0.1518,-0.0149 0.189,-0.0574 0.1743,-0.0931 0.1527,-0.1253 0.1253,-0.1527 0.0931,-0.1743 0.0574,-0.189 0.0194,-0.1966 h 0.5244 l 0.0194,0.1966 0.0574,0.189 0.0931,0.1743 0.1253,0.1527 0.1527,0.1253 0.1742,0.0931 0.1891,0.0574 0.1481,0.0146 0.0485,0.0048 v 0 0 l 0.0448,-0.0045 0.1518,-0.0149 0.189,-0.0574 0.1743,-0.0931 0.1527,-0.1253 0.1253,-0.1527 0.0931,-0.1743 0.0574,-0.189 0.0194,-0.1966 -0.0151,-0.1524 h 0.4527 0.6178 l -0.0232,0.0866 v 0.1316 l 0.0232,0.0866 h -0.6178 l 0.005,0.0513 v 0 l 0.056,0.1968 0.0912,0.1832 v 0 l 0.1233,0.1632 v 0 l 0.1512,0.1379 0.174,0.1077 0.1908,0.0739 0.151,0.0282 v 0 -0.6178 l 0.0866,0.0232 h 0.1316 l 0.0866,-0.0232 v 0.6178 l 0.151,-0.0282 0.1908,-0.0739 0.174,-0.1077 0.1512,-0.1379 v 0 l 0.1233,-0.1632 v 0 l 0.0912,-0.1832 0.0559,-0.1968 h 10e-5 l 0.005,-0.0513 h -0.6178 l 0.0232,-0.0866 v -0.1316 l -0.0232,-0.0866 h 0.6178 0.3508 0.6178 l -0.0232,0.0866 v 0.1316 l 0.0232,0.0866 h -0.6178 l 0.005,0.0513 v 0 l 0.056,0.1968 0.0912,0.1832 v 0 l 0.1233,0.1632 v 0 l 0.1512,0.1379 0.174,0.1077 0.1908,0.0739 0.151,0.0282 v 0 -0.6178 l 0.0866,0.0232 h 0.1316 l 0.0866,-0.0232 v 0.6178 l 0.151,-0.0282 0.1908,-0.0739 0.174,-0.1077 0.1512,-0.1379 v 0 l 0.1233,-0.1632 v 0 l 0.0912,-0.1832 0.0559,-0.1968 h 1e-4 l 0.005,-0.0513 h -0.6178 l 0.0232,-0.0866 v -0.1316 l -0.0232,-0.0866 h 0.6178 0.3508 0.6178 l -0.0232,0.0866 v 0.1316 l 0.0232,0.0866 h -0.6178 l 0.005,0.0513 v 0 l 0.056,0.1968 0.0912,0.1832 v 0 l 0.1233,0.1632 v 0 l 0.1512,0.1379 0.174,0.1077 0.1908,0.0739 0.151,0.0282 v 0 -0.6178 l 0.0866,0.0232 h 0.1316 l 0.0866,-0.0232 v 0.6178 l 0.151,-0.0282 0.1908,-0.0739 0.174,-0.1077 0.1512,-0.1379 v 0 l 0.1233,-0.1632 v 0 l 0.0912,-0.1832 0.056,-0.1968 v 0 l 0.005,-0.0513 h -0.6178 l 0.0232,-0.0866 V 92.01 h 1.0322 l 0.0194,0.1966 0.0574,0.189 0.0931,0.1743 0.1253,0.1527 0.1527,0.1253 0.1742,0.0931 0.1891,0.0574 0.1481,0.0146 0.0485,0.0048 v 0 0 l 0.0448,-0.0045 0.1518,-0.0149 0.189,-0.0574 0.1743,-0.0931 0.1527,-0.1253 0.1253,-0.1527 0.0931,-0.1743 0.0574,-0.189 0.0194,-0.1966 -0.0194,-0.1966 -0.0574,-0.1891 -0.0931,-0.1742 -0.1253,-0.1527 -0.1527,-0.1253 -0.1743,-0.0931 -0.189,-0.0574 -0.1966,-0.0194 v 0 l -0.1966,0.0194 -0.0823,0.025 -0.1068,0.0324 v 0 0 l -0.0865,0.0462 -0.0877,0.0469 v 0 0 l -0.1527,0.1253 -0.1253,0.1527 -0.0931,0.1742 v 0 0 l -0.0574,0.1891 -0.0194,0.1966 h -1.0322 v -0.0658 l -0.0232,-0.0866 h 0.6178 l -0.005,-0.0513 v 0 l -0.056,-0.1968 -0.0912,-0.1832 v 0 l -0.1233,-0.1632 v 0 l -0.1512,-0.1379 -0.174,-0.1077 -0.1908,-0.0739 -0.151,-0.0282 v 0.6178 L 152.3069,91.51 h -0.1316 l -0.0866,0.0232 v -0.6178 0 l -0.151,0.0282 -0.1908,0.0739 -0.174,0.1077 -0.1512,0.1379 v 0 l -0.1233,0.1632 v 0 l -0.0912,0.1832 -0.056,0.1968 v 0 l -0.005,0.0513 h -0.3508 l -0.005,-0.0513 h -1e-4 l -0.0559,-0.1968 -0.0912,-0.1832 v 0 l -0.1233,-0.1632 v 0 l -0.1512,-0.1379 -0.174,-0.1077 -0.1908,-0.0739 -0.151,-0.0282 v 0.6178 l -0.086,-0.0232 h -0.1316 l -0.0866,0.0232 v -0.6178 0 l -0.151,0.0282 -0.1908,0.0739 -0.174,0.1077 -0.1512,0.1379 v 0 l -0.1233,0.1632 v 0 l -0.0912,0.1832 -0.056,0.1968 v 0 l -0.005,0.0513 h -0.3508 l -0.005,-0.0513 h -1e-4 l -0.0559,-0.1968 -0.0912,-0.1832 v 0 l -0.1233,-0.1632 v 0 l -0.1512,-0.1379 -0.174,-0.1077 -0.1908,-0.0739 -0.151,-0.0282 v 0.6178 l -0.086,-0.0232 h -0.1316 l -0.0866,0.0232 v -0.6178 0 l -0.151,0.0282 -0.1908,0.0739 -0.174,0.1077 -0.1512,0.1379 v 0 l -0.1233,0.1632 v 0 l -0.0912,0.1832 -0.056,0.1968 v 0 l -0.005,0.0513 h -0.4527 l -0.004,-0.0442 -0.0574,-0.1891 -0.0931,-0.1742 -0.1253,-0.1527 -0.1527,-0.1253 -0.1743,-0.0931 -0.189,-0.0574 -0.1966,-0.0194 v 0 l -0.1966,0.0194 -0.0823,0.025 -0.1068,0.0324 v 0 0 l -0.0865,0.0462 -0.0877,0.0469 v 0 0 l -0.1527,0.1253 -0.1253,0.1527 -0.0931,0.1742 v 0 0 l -0.0574,0.1891 -0.0194,0.1966 h -0.5244 l -0.0194,-0.1966 -0.0574,-0.1891 -0.0931,-0.1742 -0.1253,-0.1527 -0.1527,-0.1253 -0.1743,-0.0931 -0.189,-0.0574 -0.1966,-0.0194 v 0 l -0.1966,0.0194 -0.0823,0.025 -0.1068,0.0324 v 0 0 l -0.0865,0.0462 -0.0877,0.0469 v 0 0 l -0.1527,0.1253 -0.1253,0.1527 -0.0931,0.1742 v 0 0 l -0.0574,0.1891 -0.0194,0.1966 h -0.5244 l -0.0194,-0.1966 -0.0574,-0.1891 -0.0931,-0.1742 -0.1253,-0.1527 -0.1527,-0.1253 -0.1743,-0.0931 -0.189,-0.0574 -0.1966,-0.0194 v 0 l -0.1966,0.0194 -0.0823,0.025 -0.1067,0.0324 h -1e-4 v 0 l -0.0865,0.0462 -0.0877,0.0469 v 0 0 l -0.1527,0.1253 -0.1253,0.1527 -0.0931,0.1742 v 0 0 l -0.0574,0.1891 -0.0194,0.1966 h -0.5244 l -0.0194,-0.1966 -0.0574,-0.1891 -0.0931,-0.1742 -0.1253,-0.1527 -0.1527,-0.1253 -0.1742,-0.0931 -0.1891,-0.0574 -0.1966,-0.0194 v 0 l -0.1966,0.0194 -0.0823,0.025 -0.1068,0.0324 v 0 0 l -0.0865,0.0462 -0.0877,0.0469 v 0 0 l -0.1527,0.1253 -0.1253,0.1527 -0.0931,0.1742 v 0 0 l -0.0574,0.1891 -0.0194,0.1966 h -0.5244 l -0.0194,-0.1966 -0.0574,-0.1891 -0.0931,-0.1742 -0.1253,-0.1527 -0.1527,-0.1253 -0.1743,-0.0931 -0.189,-0.0574 -0.1966,-0.0194 v 0 l -0.1966,0.0194 -0.0823,0.025 -0.1068,0.0324 v 0 0 l -0.0865,0.0462 -0.0877,0.0469 v 0 0 l -0.1527,0.1253 -0.1253,0.1527 -0.0931,0.1742 v 0 0 l -0.0574,0.1891 -0.0194,0.1966 h -0.5108 l -0.0168,-0.0325 -0.003,-0.0333 -0.0129,-0.1308 -0.0574,-0.1891 -0.0931,-0.1742 -0.1253,-0.1527 -0.1527,-0.1253 -0.1743,-0.0931 -0.189,-0.0574 -0.1966,-0.0194 v 0 l -0.1966,0.0194 -0.0823,0.025 -0.1068,0.0324 v 0 0 l -0.0865,0.0462 -0.0877,0.0469 v 0 0 l -0.1527,0.1253 -0.1253,0.1527 -0.0931,0.1742 v 0 0 l -0.0574,0.1891 -0.0194,0.1966 0.0194,0.1966 0.0574,0.189 0.0931,0.1743 0.1253,0.1527 0.1527,0.1253 0.1742,0.0931 0.1891,0.0574 0.1481,0.0146 0.0485,0.0048 v 0 0 l 0.0448,-0.0045 0.1518,-0.0149 0.189,-0.0574 0.1743,-0.0931 0.1198,-0.0983 0.0365,-0.0111 0.0336,0.018 0.002,0.003 0.0455,0.065 0.004,0.0075 0.0643,0.1381 0.003,0.0081 0.0394,0.1472 0.001,0.0085 0.0135,0.1539 2e-4,0.0044 v 0.5007 l -0.0146,0.0352 -0.0352,0.0146 -0.0352,-0.0146 -0.004,-0.0052 -0.015,-0.0198 v 0 l -0.1512,-0.1379 -0.174,-0.1077 -0.1908,-0.0739 -0.151,-0.0282 v 0.6178 L 131.9869,94.05 h -0.1316 l -0.0866,0.0232 v -0.6178 0 l -0.151,0.0282 -0.1908,0.0739 -0.174,0.1077 -0.1512,0.1379 v 0 l -0.1233,0.1632 v 0 l -0.0912,0.1832 -0.056,0.1968 v 0 l -0.005,0.0513 h -4.6254 v -4.0433 l 0.0146,-0.0352 0.0352,-0.0146 h 29.9993 z"
       id="path11876" />
  </g>
</svg>
