<?xml version="1.0" encoding="UTF-8" standalone="no"?>
<svg
   version="1.1"
   width="30.0989mm"
   height="33.691002mm"
   viewBox="0 0 30.0989 33.691002"
   id="svg4700"
   sodipodi:docname="max2771_fx2lp-In2_Cu.svg"
   inkscape:version="1.2.2 (b0a8486541, 2022-12-01)"
   xmlns:inkscape="http://www.inkscape.org/namespaces/inkscape"
   xmlns:sodipodi="http://sodipodi.sourceforge.net/DTD/sodipodi-0.dtd"
   xmlns="http://www.w3.org/2000/svg"
   xmlns:svg="http://www.w3.org/2000/svg">
  <defs
     id="defs4704" />
  <sodipodi:namedview
     id="namedview4702"
     pagecolor="#ffffff"
     bordercolor="#000000"
     borderopacity="0.25"
     inkscape:showpageshadow="2"
     inkscape:pageopacity="0.0"
     inkscape:pagecheckerboard="0"
     inkscape:deskcolor="#d1d1d1"
     inkscape:document-units="mm"
     showgrid="false"
     inkscape:zoom="0.29733107"
     inkscape:cx="-68.946713"
     inkscape:cy="57.175323"
     inkscape:window-width="1024"
     inkscape:window-height="723"
     inkscape:window-x="1675"
     inkscape:window-y="-5"
     inkscape:window-maximized="1"
     inkscape:current-layer="svg4700" />
  <title
     id="title3952">SVG Image created as max2771_fx2lp-In2_Cu.svg date 2024/06/15 08:23:39 </title>
  <desc
     id="desc3954">Image generated by PCBNEW </desc>
  <g
     style="fill:#000000;fill-opacity:1;stroke:#000000;stroke-linecap:round;stroke-linejoin:round;stroke-opacity:1"
     id="g3958"
     transform="translate(-126.2011,-90.3045)">
    <path
       style="fill:#ce7d2c;fill-opacity:1;fill-rule:evenodd;stroke:none"
       d="m 130.5511,107.34 v 1.7 h -1.7 v -1.7 z"
       id="path3956" />
  </g>
  <g
     style="fill:#ce7d2c;fill-opacity:1;stroke:none"
     id="g3964"
     transform="translate(-126.2011,-90.3045)">
    <circle
       cx="129.7011"
       cy="105.65"
       r="0.85000002"
       id="circle3960" />
    <circle
       cx="139.5011"
       cy="103.65"
       r="0.42899999"
       id="circle3962" />
  </g>
  <g
     style="fill:#ce7d2c;fill-opacity:1;stroke:none"
     id="g3968"
     transform="translate(-126.2011,-90.3045)">
    <circle
       cx="139.5011"
       cy="102.55"
       r="0.42899999"
       id="circle3966" />
  </g>
  <g
     style="fill:#ce7d2c;fill-opacity:1;stroke:none"
     id="g3972"
     transform="translate(-126.2011,-90.3045)">
    <circle
       cx="139.5011"
       cy="101.45"
       r="0.42899999"
       id="circle3970" />
  </g>
  <g
     style="fill:#ce7d2c;fill-opacity:1;stroke:none"
     id="g3976"
     transform="translate(-126.2011,-90.3045)">
    <circle
       cx="138.40109"
       cy="103.65"
       r="0.42899999"
       id="circle3974" />
  </g>
  <g
     style="fill:#ce7d2c;fill-opacity:1;stroke:none"
     id="g3980"
     transform="translate(-126.2011,-90.3045)">
    <circle
       cx="138.40109"
       cy="102.55"
       r="0.42899999"
       id="circle3978" />
  </g>
  <g
     style="fill:#ce7d2c;fill-opacity:1;stroke:none"
     id="g3984"
     transform="translate(-126.2011,-90.3045)">
    <circle
       cx="138.40109"
       cy="101.45"
       r="0.42899999"
       id="circle3982" />
  </g>
  <g
     style="fill:#ce7d2c;fill-opacity:1;stroke:none"
     id="g3988"
     transform="translate(-126.2011,-90.3045)">
    <circle
       cx="137.3011"
       cy="103.65"
       r="0.42899999"
       id="circle3986" />
  </g>
  <g
     style="fill:#ce7d2c;fill-opacity:1;stroke:none"
     id="g3992"
     transform="translate(-126.2011,-90.3045)">
    <circle
       cx="137.3011"
       cy="102.55"
       r="0.42899999"
       id="circle3990" />
  </g>
  <g
     style="fill:#ce7d2c;fill-opacity:1;stroke:none"
     id="g3996"
     transform="translate(-126.2011,-90.3045)">
    <circle
       cx="137.3011"
       cy="101.45"
       r="0.42899999"
       id="circle3994" />
  </g>
  <g
     style="fill:#ce7d2c;fill-opacity:1;stroke:none"
     id="g4000"
     transform="translate(-126.2011,-90.3045)">
    <circle
       cx="142.5011"
       cy="110.55"
       r="0.42899999"
       id="circle3998" />
  </g>
  <g
     style="fill:#ce7d2c;fill-opacity:1;stroke:none"
     id="g4004"
     transform="translate(-126.2011,-90.3045)">
    <circle
       cx="142.5011"
       cy="109.45"
       r="0.42899999"
       id="circle4002" />
  </g>
  <g
     style="fill:#ce7d2c;fill-opacity:1;stroke:none"
     id="g4008"
     transform="translate(-126.2011,-90.3045)">
    <circle
       cx="142.5011"
       cy="108.35"
       r="0.42899999"
       id="circle4006" />
  </g>
  <g
     style="fill:#ce7d2c;fill-opacity:1;stroke:none"
     id="g4012"
     transform="translate(-126.2011,-90.3045)">
    <circle
       cx="141.40109"
       cy="110.55"
       r="0.42899999"
       id="circle4010" />
  </g>
  <g
     style="fill:#ce7d2c;fill-opacity:1;stroke:none"
     id="g4016"
     transform="translate(-126.2011,-90.3045)">
    <circle
       cx="141.40109"
       cy="109.45"
       r="0.42899999"
       id="circle4014" />
  </g>
  <g
     style="fill:#ce7d2c;fill-opacity:1;stroke:none"
     id="g4020"
     transform="translate(-126.2011,-90.3045)">
    <circle
       cx="141.40109"
       cy="108.35"
       r="0.42899999"
       id="circle4018" />
  </g>
  <g
     style="fill:#ce7d2c;fill-opacity:1;stroke:none"
     id="g4024"
     transform="translate(-126.2011,-90.3045)">
    <circle
       cx="140.3011"
       cy="110.55"
       r="0.42899999"
       id="circle4022" />
  </g>
  <g
     style="fill:#ce7d2c;fill-opacity:1;stroke:none"
     id="g4028"
     transform="translate(-126.2011,-90.3045)">
    <circle
       cx="140.3011"
       cy="109.45"
       r="0.42899999"
       id="circle4026" />
  </g>
  <g
     style="fill:#ce7d2c;fill-opacity:1;stroke:none"
     id="g4034"
     transform="translate(-126.2011,-90.3045)">
    <circle
       cx="140.3011"
       cy="108.35"
       r="0.42899999"
       id="circle4030" />
    <path
       style="fill:#ce7d2c;fill-opacity:1;fill-rule:evenodd;stroke:none"
       d="m 153.4011,107.04 v -1.7 h 1.7 v 1.7 z"
       id="path4032" />
  </g>
  <g
     style="fill:#ce7d2c;fill-opacity:1;stroke:none"
     id="g4124"
     transform="translate(-126.2011,-90.3045)">
    <circle
       cx="154.2511"
       cy="108.73"
       r="0.85000002"
       id="circle4036" />
    <circle
       cx="154.2511"
       cy="111.27"
       r="0.85000002"
       id="circle4038" />
    <circle
       cx="154.2511"
       cy="113.81"
       r="0.85000002"
       id="circle4040" />
    <circle
       cx="154.2511"
       cy="116.35"
       r="0.85000002"
       id="circle4042" />
    <path
       style="fill:#ce7d2c;fill-opacity:1;fill-rule:evenodd;stroke:none"
       d="m 155.5911,120.85 h -1.7 v -1.7 h 1.7 z"
       id="path4044" />
    <circle
       cx="154.7411"
       cy="122.54"
       r="0.85000002"
       id="circle4046" />
    <circle
       cx="152.2011"
       cy="120"
       r="0.85000002"
       id="circle4048" />
    <circle
       cx="152.2011"
       cy="122.54"
       r="0.85000002"
       id="circle4050" />
    <circle
       cx="149.6611"
       cy="120"
       r="0.85000002"
       id="circle4052" />
    <circle
       cx="149.6611"
       cy="122.54"
       r="0.85000002"
       id="circle4054" />
    <circle
       cx="147.12109"
       cy="120"
       r="0.85000002"
       id="circle4056" />
    <circle
       cx="147.12109"
       cy="122.54"
       r="0.85000002"
       id="circle4058" />
    <circle
       cx="144.5811"
       cy="120"
       r="0.85000002"
       id="circle4060" />
    <circle
       cx="144.5811"
       cy="122.54"
       r="0.85000002"
       id="circle4062" />
    <circle
       cx="142.04111"
       cy="120"
       r="0.85000002"
       id="circle4064" />
    <circle
       cx="142.04111"
       cy="122.54"
       r="0.85000002"
       id="circle4066" />
    <circle
       cx="139.5011"
       cy="120"
       r="0.85000002"
       id="circle4068" />
    <circle
       cx="139.5011"
       cy="122.54"
       r="0.85000002"
       id="circle4070" />
    <circle
       cx="136.96111"
       cy="120"
       r="0.85000002"
       id="circle4072" />
    <circle
       cx="136.96111"
       cy="122.54"
       r="0.85000002"
       id="circle4074" />
    <circle
       cx="134.4211"
       cy="120"
       r="0.85000002"
       id="circle4076" />
    <circle
       cx="134.4211"
       cy="122.54"
       r="0.85000002"
       id="circle4078" />
    <circle
       cx="131.8811"
       cy="120"
       r="0.85000002"
       id="circle4080" />
    <circle
       cx="131.8811"
       cy="122.54"
       r="0.85000002"
       id="circle4082" />
    <path
       style="fill:#ce7d2c;fill-opacity:1;fill-rule:evenodd;stroke:none"
       d="m 155.6511,92.9 h -1.7 v -1.7 h 1.7 z"
       id="path4084" />
    <circle
       cx="154.8011"
       cy="94.589996"
       r="0.85000002"
       id="circle4086" />
    <circle
       cx="152.26109"
       cy="92.050003"
       r="0.85000002"
       id="circle4088" />
    <circle
       cx="152.26109"
       cy="94.589996"
       r="0.85000002"
       id="circle4090" />
    <circle
       cx="149.7211"
       cy="92.050003"
       r="0.85000002"
       id="circle4092" />
    <circle
       cx="149.7211"
       cy="94.589996"
       r="0.85000002"
       id="circle4094" />
    <circle
       cx="147.18111"
       cy="92.050003"
       r="0.85000002"
       id="circle4096" />
    <circle
       cx="147.18111"
       cy="94.589996"
       r="0.85000002"
       id="circle4098" />
    <circle
       cx="144.6411"
       cy="92.050003"
       r="0.85000002"
       id="circle4100" />
    <circle
       cx="144.6411"
       cy="94.589996"
       r="0.85000002"
       id="circle4102" />
    <circle
       cx="142.1011"
       cy="92.050003"
       r="0.85000002"
       id="circle4104" />
    <circle
       cx="142.1011"
       cy="94.589996"
       r="0.85000002"
       id="circle4106" />
    <circle
       cx="139.5611"
       cy="92.050003"
       r="0.85000002"
       id="circle4108" />
    <circle
       cx="139.5611"
       cy="94.589996"
       r="0.85000002"
       id="circle4110" />
    <circle
       cx="137.0211"
       cy="92.050003"
       r="0.85000002"
       id="circle4112" />
    <circle
       cx="137.0211"
       cy="94.589996"
       r="0.85000002"
       id="circle4114" />
    <circle
       cx="134.48109"
       cy="92.050003"
       r="0.85000002"
       id="circle4116" />
    <circle
       cx="134.48109"
       cy="94.589996"
       r="0.85000002"
       id="circle4118" />
    <circle
       cx="131.9411"
       cy="92.050003"
       r="0.85000002"
       id="circle4120" />
    <circle
       cx="131.9411"
       cy="94.589996"
       r="0.85000002"
       id="circle4122" />
  </g>
  <g
     style="fill:#ececec;fill-opacity:1;stroke:none"
     id="g4128"
     transform="translate(-126.2011,-90.3045)">
    <circle
       cx="133.7011"
       cy="107.65"
       r="0.3274"
       id="circle4126" />
  </g>
  <g
     style="fill:#ececec;fill-opacity:1;stroke:none"
     id="g4132"
     transform="translate(-126.2011,-90.3045)">
    <circle
       cx="134.5011"
       cy="109"
       r="0.3274"
       id="circle4130" />
  </g>
  <g
     style="fill:#ececec;fill-opacity:1;stroke:none"
     id="g4136"
     transform="translate(-126.2011,-90.3045)">
    <circle
       cx="133.6011"
       cy="104.25"
       r="0.3274"
       id="circle4134" />
  </g>
  <g
     style="fill:#ececec;fill-opacity:1;stroke:none"
     id="g4140"
     transform="translate(-126.2011,-90.3045)">
    <circle
       cx="132.3011"
       cy="100.85"
       r="0.3274"
       id="circle4138" />
  </g>
  <g
     style="fill:#ececec;fill-opacity:1;stroke:none"
     id="g4144"
     transform="translate(-126.2011,-90.3045)">
    <circle
       cx="130.8011"
       cy="117.85"
       r="0.3274"
       id="circle4142" />
  </g>
  <g
     style="fill:#ececec;fill-opacity:1;stroke:none"
     id="g4148"
     transform="translate(-126.2011,-90.3045)">
    <circle
       cx="134.90109"
       cy="115.4"
       r="0.3274"
       id="circle4146" />
  </g>
  <g
     style="fill:#ececec;fill-opacity:1;stroke:none"
     id="g4152"
     transform="translate(-126.2011,-90.3045)">
    <circle
       cx="136.15109"
       cy="109.05"
       r="0.3274"
       id="circle4150" />
  </g>
  <g
     style="fill:#ececec;fill-opacity:1;stroke:none"
     id="g4156"
     transform="translate(-126.2011,-90.3045)">
    <circle
       cx="132.3407"
       cy="117.0673"
       r="0.3274"
       id="circle4154" />
  </g>
  <g
     style="fill:#ececec;fill-opacity:1;stroke:none"
     id="g4160"
     transform="translate(-126.2011,-90.3045)">
    <circle
       cx="139.90109"
       cy="114.05"
       r="0.3274"
       id="circle4158" />
  </g>
  <g
     style="fill:#ececec;fill-opacity:1;stroke:none"
     id="g4164"
     transform="translate(-126.2011,-90.3045)">
    <circle
       cx="132.40109"
       cy="109.95"
       r="0.3274"
       id="circle4162" />
  </g>
  <g
     style="fill:#ececec;fill-opacity:1;stroke:none"
     id="g4168"
     transform="translate(-126.2011,-90.3045)">
    <circle
       cx="143.8511"
       cy="98.900002"
       r="0.3274"
       id="circle4166" />
  </g>
  <g
     style="fill:#ececec;fill-opacity:1;stroke:none"
     id="g4172"
     transform="translate(-126.2011,-90.3045)">
    <circle
       cx="132.3727"
       cy="117.9634"
       r="0.3274"
       id="circle4170" />
  </g>
  <g
     style="fill:#ececec;fill-opacity:1;stroke:none"
     id="g4176"
     transform="translate(-126.2011,-90.3045)">
    <circle
       cx="134.5011"
       cy="108.15"
       r="0.3274"
       id="circle4174" />
  </g>
  <g
     style="fill:#ececec;fill-opacity:1;stroke:none"
     id="g4180"
     transform="translate(-126.2011,-90.3045)">
    <circle
       cx="130.7011"
       cy="100.85"
       r="0.3274"
       id="circle4178" />
  </g>
  <g
     style="fill:#ececec;fill-opacity:1;stroke:none"
     id="g4184"
     transform="translate(-126.2011,-90.3045)">
    <circle
       cx="150.40109"
       cy="107.15"
       r="0.3274"
       id="circle4182" />
  </g>
  <g
     style="fill:#ececec;fill-opacity:1;stroke:none"
     id="g4188"
     transform="translate(-126.2011,-90.3045)">
    <circle
       cx="133.5011"
       cy="115.85"
       r="0.3274"
       id="circle4186" />
  </g>
  <g
     style="fill:#ececec;fill-opacity:1;stroke:none"
     id="g4192"
     transform="translate(-126.2011,-90.3045)">
    <circle
       cx="141.2011"
       cy="98.349998"
       r="0.3274"
       id="circle4190" />
  </g>
  <g
     style="fill:#ececec;fill-opacity:1;stroke:none"
     id="g4196"
     transform="translate(-126.2011,-90.3045)">
    <circle
       cx="136.40331"
       cy="107.2502"
       r="0.3274"
       id="circle4194" />
  </g>
  <g
     style="fill:#ececec;fill-opacity:1;stroke:none"
     id="g4200"
     transform="translate(-126.2011,-90.3045)">
    <circle
       cx="130.90109"
       cy="113.95"
       r="0.3274"
       id="circle4198" />
  </g>
  <g
     style="fill:#ececec;fill-opacity:1;stroke:none"
     id="g4204"
     transform="translate(-126.2011,-90.3045)">
    <circle
       cx="148.5649"
       cy="114.1"
       r="0.3274"
       id="circle4202" />
  </g>
  <g
     style="fill:#ececec;fill-opacity:1;stroke:none"
     id="g4208"
     transform="translate(-126.2011,-90.3045)">
    <circle
       cx="133.4511"
       cy="97.699997"
       r="0.3274"
       id="circle4206" />
  </g>
  <g
     style="fill:#ececec;fill-opacity:1;stroke:none"
     id="g4212"
     transform="translate(-126.2011,-90.3045)">
    <circle
       cx="127.7011"
       cy="118.65"
       r="0.3274"
       id="circle4210" />
  </g>
  <g
     style="fill:#ececec;fill-opacity:1;stroke:none"
     id="g4216"
     transform="translate(-126.2011,-90.3045)">
    <circle
       cx="130.90109"
       cy="113.05"
       r="0.3274"
       id="circle4214" />
  </g>
  <g
     style="fill:#ececec;fill-opacity:1;stroke:none"
     id="g4220"
     transform="translate(-126.2011,-90.3045)">
    <circle
       cx="135.2511"
       cy="112.95"
       r="0.3274"
       id="circle4218" />
  </g>
  <g
     style="fill:#ececec;fill-opacity:1;stroke:none"
     id="g4224"
     transform="translate(-126.2011,-90.3045)">
    <circle
       cx="131.7011"
       cy="110.45"
       r="0.3274"
       id="circle4222" />
  </g>
  <g
     style="fill:#ececec;fill-opacity:1;stroke:none"
     id="g4228"
     transform="translate(-126.2011,-90.3045)">
    <circle
       cx="130.7213"
       cy="96.75"
       r="0.3274"
       id="circle4226" />
  </g>
  <g
     style="fill:#ececec;fill-opacity:1;stroke:none"
     id="g4232"
     transform="translate(-126.2011,-90.3045)">
    <circle
       cx="132.3011"
       cy="98.349998"
       r="0.3274"
       id="circle4230" />
  </g>
  <g
     style="fill:#ececec;fill-opacity:1;stroke:none"
     id="g4236"
     transform="translate(-126.2011,-90.3045)">
    <circle
       cx="130.7011"
       cy="101.85"
       r="0.3274"
       id="circle4234" />
  </g>
  <g
     style="fill:#ececec;fill-opacity:1;stroke:none"
     id="g4240"
     transform="translate(-126.2011,-90.3045)">
    <circle
       cx="148.5649"
       cy="110.55"
       r="0.3274"
       id="circle4238" />
  </g>
  <g
     style="fill:#ececec;fill-opacity:1;stroke:none"
     id="g4244"
     transform="translate(-126.2011,-90.3045)">
    <circle
       cx="130.7011"
       cy="98.349998"
       r="0.3274"
       id="circle4242" />
  </g>
  <g
     style="fill:#ececec;fill-opacity:1;stroke:none"
     id="g4248"
     transform="translate(-126.2011,-90.3045)">
    <circle
       cx="148.4511"
       cy="104.45"
       r="0.3274"
       id="circle4246" />
  </g>
  <g
     style="fill:#ececec;fill-opacity:1;stroke:none"
     id="g4252"
     transform="translate(-126.2011,-90.3045)">
    <circle
       cx="146.2011"
       cy="113.85"
       r="0.3274"
       id="circle4250" />
  </g>
  <g
     style="fill:#ececec;fill-opacity:1;stroke:none"
     id="g4256"
     transform="translate(-126.2011,-90.3045)">
    <circle
       cx="148.5649"
       cy="113.182"
       r="0.3274"
       id="circle4254" />
  </g>
  <g
     style="fill:#ececec;fill-opacity:1;stroke:none"
     id="g4260"
     transform="translate(-126.2011,-90.3045)">
    <circle
       cx="146.7011"
       cy="97.800003"
       r="0.3274"
       id="circle4258" />
  </g>
  <g
     style="fill:#ececec;fill-opacity:1;stroke:none"
     id="g4264"
     transform="translate(-126.2011,-90.3045)">
    <circle
       cx="133.6011"
       cy="105.05"
       r="0.3274"
       id="circle4262" />
  </g>
  <g
     style="fill:#ececec;fill-opacity:1;stroke:none"
     id="g4268"
     transform="translate(-126.2011,-90.3045)">
    <circle
       cx="133.7011"
       cy="106.75"
       r="0.3274"
       id="circle4266" />
  </g>
  <g
     style="fill:#ececec;fill-opacity:1;stroke:none"
     id="g4272"
     transform="translate(-126.2011,-90.3045)">
    <circle
       cx="146.2011"
       cy="112.85"
       r="0.3274"
       id="circle4270" />
  </g>
  <g
     style="fill:#ececec;fill-opacity:1;stroke:none"
     id="g4276"
     transform="translate(-126.2011,-90.3045)">
    <circle
       cx="133.3511"
       cy="112.75"
       r="0.3274"
       id="circle4274" />
  </g>
  <g
     style="fill:#ececec;fill-opacity:1;stroke:none"
     id="g4280"
     transform="translate(-126.2011,-90.3045)">
    <circle
       cx="131.8011"
       cy="104.25"
       r="0.3274"
       id="circle4278" />
  </g>
  <g
     style="fill:#ececec;fill-opacity:1;stroke:none"
     id="g4284"
     transform="translate(-126.2011,-90.3045)">
    <circle
       cx="145.6011"
       cy="104.45"
       r="0.3274"
       id="circle4282" />
  </g>
  <g
     style="fill:#ececec;fill-opacity:1;stroke:none"
     id="g4288"
     transform="translate(-126.2011,-90.3045)">
    <circle
       cx="133.8011"
       cy="109.25"
       r="0.3274"
       id="circle4286" />
  </g>
  <g
     style="fill:#ececec;fill-opacity:1;stroke:none"
     id="g4292"
     transform="translate(-126.2011,-90.3045)">
    <circle
       cx="145.7511"
       cy="97.800003"
       r="0.3274"
       id="circle4290" />
  </g>
  <g
     style="fill:#ececec;fill-opacity:1;stroke:none"
     id="g4296"
     transform="translate(-126.2011,-90.3045)">
    <circle
       cx="147.2011"
       cy="104.45"
       r="0.3274"
       id="circle4294" />
  </g>
  <g
     style="fill:#ececec;fill-opacity:1;stroke:none"
     id="g4300"
     transform="translate(-126.2011,-90.3045)">
    <circle
       cx="130.7011"
       cy="97.550003"
       r="0.3274"
       id="circle4298" />
  </g>
  <g
     style="fill:#ececec;fill-opacity:1;stroke:none"
     id="g4304"
     transform="translate(-126.2011,-90.3045)">
    <circle
       cx="132.3011"
       cy="97.550003"
       r="0.3274"
       id="circle4302" />
  </g>
  <g
     style="fill:#ececec;fill-opacity:1;stroke:none"
     id="g4308"
     transform="translate(-126.2011,-90.3045)">
    <circle
       cx="132.3161"
       cy="112.0544"
       r="0.3274"
       id="circle4306" />
  </g>
  <g
     style="fill:#ececec;fill-opacity:1;stroke:none"
     id="g4312"
     transform="translate(-126.2011,-90.3045)">
    <circle
       cx="136.44099"
       cy="106.2313"
       r="0.3274"
       id="circle4310" />
  </g>
  <g
     style="fill:#ececec;fill-opacity:1;stroke:none"
     id="g4316"
     transform="translate(-126.2011,-90.3045)">
    <circle
       cx="143.3011"
       cy="97.800003"
       r="0.3274"
       id="circle4314" />
  </g>
  <g
     style="fill:#ececec;fill-opacity:1;stroke:none"
     id="g4320"
     transform="translate(-126.2011,-90.3045)">
    <circle
       cx="135.7511"
       cy="114.1"
       r="0.3274"
       id="circle4318" />
  </g>
  <g
     style="fill:#ececec;fill-opacity:1;stroke:none"
     id="g4324"
     transform="translate(-126.2011,-90.3045)">
    <circle
       cx="130.8011"
       cy="117.05"
       r="0.3274"
       id="circle4322" />
  </g>
  <g
     style="fill:#ececec;fill-opacity:1;stroke:none"
     id="g4328"
     transform="translate(-126.2011,-90.3045)">
    <circle
       cx="133.7011"
       cy="105.95"
       r="0.3274"
       id="circle4326" />
  </g>
  <g
     style="fill:#ececec;fill-opacity:1;stroke:none"
     id="g4332"
     transform="translate(-126.2011,-90.3045)">
    <circle
       cx="135.3511"
       cy="109.05"
       r="0.3274"
       id="circle4330" />
  </g>
  <g
     style="fill:#ececec;fill-opacity:1;stroke:none"
     id="g4336"
     transform="translate(-126.2011,-90.3045)">
    <circle
       cx="134.0011"
       cy="114.1"
       r="0.3274"
       id="circle4334" />
  </g>
  <g
     style="fill:#ececec;fill-opacity:1;stroke:none"
     id="g4340"
     transform="translate(-126.2011,-90.3045)">
    <circle
       cx="132.3011"
       cy="99.150002"
       r="0.3274"
       id="circle4338" />
  </g>
  <g
     style="fill:#ececec;fill-opacity:1;stroke:none"
     id="g4344"
     transform="translate(-126.2011,-90.3045)">
    <circle
       cx="134.3011"
       cy="111.35"
       r="0.3274"
       id="circle4342" />
  </g>
  <g
     style="fill:#ececec;fill-opacity:1;stroke:none"
     id="g4348"
     transform="translate(-126.2011,-90.3045)">
    <circle
       cx="148.4511"
       cy="98.900002"
       r="0.3274"
       id="circle4346" />
  </g>
  <g
     style="fill:#ececec;fill-opacity:1;stroke:none"
     id="g4352"
     transform="translate(-126.2011,-90.3045)">
    <circle
       cx="144.1011"
       cy="97.800003"
       r="0.3274"
       id="circle4350" />
  </g>
  <g
     style="fill:#ececec;fill-opacity:1;stroke:none"
     id="g4356"
     transform="translate(-126.2011,-90.3045)">
    <circle
       cx="148.4511"
       cy="99.949997"
       r="0.3274"
       id="circle4354" />
  </g>
  <g
     style="fill:#ececec;fill-opacity:1;stroke:none"
     id="g4360"
     transform="translate(-126.2011,-90.3045)">
    <circle
       cx="135.1011"
       cy="111.35"
       r="0.3274"
       id="circle4358" />
  </g>
  <g
     style="fill:#ececec;fill-opacity:1;stroke:none"
     id="g4364"
     transform="translate(-126.2011,-90.3045)">
    <circle
       cx="144.90109"
       cy="97.800003"
       r="0.3274"
       id="circle4362" />
  </g>
  <g
     style="fill:#ececec;fill-opacity:1;stroke:none"
     id="g4368"
     transform="translate(-126.2011,-90.3045)">
    <circle
       cx="131.1011"
       cy="111.25"
       r="0.3274"
       id="circle4366" />
  </g>
  <g
     style="fill:#ececec;fill-opacity:1;stroke:none"
     id="g4372"
     transform="translate(-126.2011,-90.3045)">
    <circle
       cx="135.90109"
       cy="111.35"
       r="0.3274"
       id="circle4370" />
  </g>
  <g
     style="fill:#ececec;fill-opacity:1;stroke:none"
     id="g4376"
     transform="translate(-126.2011,-90.3045)">
    <circle
       cx="148.5649"
       cy="112.25"
       r="0.3274"
       id="circle4374" />
  </g>
  <g
     style="fill:#ececec;fill-opacity:1;stroke:none"
     id="g4380"
     transform="translate(-126.2011,-90.3045)">
    <circle
       cx="130.7011"
       cy="99.949997"
       r="0.3274"
       id="circle4378" />
  </g>
  <g
     style="fill:#ececec;fill-opacity:1;stroke:none"
     id="g4384"
     transform="translate(-126.2011,-90.3045)">
    <circle
       cx="130.7011"
       cy="103.55"
       r="0.3274"
       id="circle4382" />
  </g>
  <g
     style="fill:#ececec;fill-opacity:1;stroke:none"
     id="g4388"
     transform="translate(-126.2011,-90.3045)">
    <circle
       cx="144.5632"
       cy="102.3338"
       r="0.3274"
       id="circle4386" />
  </g>
  <g
     style="fill:#ececec;fill-opacity:1;stroke:none"
     id="g4392"
     transform="translate(-126.2011,-90.3045)">
    <circle
       cx="148.4511"
       cy="97.800003"
       r="0.3274"
       id="circle4390" />
  </g>
  <g
     style="fill:#ececec;fill-opacity:1;stroke:none"
     id="g4396"
     transform="translate(-126.2011,-90.3045)">
    <circle
       cx="132.7011"
       cy="104.25"
       r="0.3274"
       id="circle4394" />
  </g>
  <g
     style="fill:#ececec;fill-opacity:1;stroke:none"
     id="g4400"
     transform="translate(-126.2011,-90.3045)">
    <circle
       cx="148.4511"
       cy="105.5"
       r="0.3274"
       id="circle4398" />
  </g>
  <g
     style="fill:#ececec;fill-opacity:1;stroke:none"
     id="g4404"
     transform="translate(-126.2011,-90.3045)">
    <circle
       cx="134.90109"
       cy="114.1"
       r="0.3274"
       id="circle4402" />
  </g>
  <g
     style="fill:#ececec;fill-opacity:1;stroke:none"
     id="g4408"
     transform="translate(-126.2011,-90.3045)">
    <circle
       cx="133.1011"
       cy="109.55"
       r="0.3274"
       id="circle4406" />
  </g>
  <g
     style="fill:#ececec;fill-opacity:1;stroke:none"
     id="g4412"
     transform="translate(-126.2011,-90.3045)">
    <circle
       cx="133.0511"
       cy="114.1"
       r="0.3274"
       id="circle4410" />
  </g>
  <g
     style="fill:#ececec;fill-opacity:1;stroke:none"
     id="g4416"
     transform="translate(-126.2011,-90.3045)">
    <circle
       cx="142.90109"
       cy="112.95"
       r="0.3274"
       id="circle4414" />
  </g>
  <g
     style="fill:#ececec;fill-opacity:1;stroke:none"
     id="g4420"
     transform="translate(-126.2011,-90.3045)">
    <circle
       cx="142.90109"
       cy="114.05"
       r="0.3274"
       id="circle4418" />
  </g>
  <g
     style="fill:#ececec;fill-opacity:1;stroke:none"
     id="g4424"
     transform="translate(-126.2011,-90.3045)">
    <circle
       cx="132.2587"
       cy="112.95"
       r="0.3274"
       id="circle4422" />
  </g>
  <g
     style="fill:#ececec;fill-opacity:1;stroke:none"
     id="g4428"
     transform="translate(-126.2011,-90.3045)">
    <circle
       cx="133.3011"
       cy="116.65"
       r="0.3274"
       id="circle4426" />
  </g>
  <g
     style="fill:#ececec;fill-opacity:1;stroke:none"
     id="g4432"
     transform="translate(-126.2011,-90.3045)">
    <circle
       cx="130.7011"
       cy="102.75"
       r="0.3274"
       id="circle4430" />
  </g>
  <g
     style="fill:#ececec;fill-opacity:1;stroke:none"
     id="g4436"
     transform="translate(-126.2011,-90.3045)">
    <circle
       cx="132.3011"
       cy="99.949997"
       r="0.3274"
       id="circle4434" />
  </g>
  <g
     style="fill:#ececec;fill-opacity:1;stroke:none"
     id="g4440"
     transform="translate(-126.2011,-90.3045)">
    <circle
       cx="145.2011"
       cy="111.8"
       r="0.3274"
       id="circle4438" />
  </g>
  <g
     style="fill:#ececec;fill-opacity:1;stroke:none"
     id="g4444"
     transform="translate(-126.2011,-90.3045)">
    <circle
       cx="130.90109"
       cy="112.15"
       r="0.3274"
       id="circle4442" />
  </g>
  <g
     style="fill:#ececec;fill-opacity:1;stroke:none"
     id="g4448"
     transform="translate(-126.2011,-90.3045)">
    <circle
       cx="136.7011"
       cy="111.35"
       r="0.3274"
       id="circle4446" />
  </g>
  <g
     style="fill:#ececec;fill-opacity:1;stroke:none"
     id="g4452"
     transform="translate(-126.2011,-90.3045)">
    <circle
       cx="132.2587"
       cy="113.95"
       r="0.3274"
       id="circle4450" />
  </g>
  <g
     style="fill:#ececec;fill-opacity:1;stroke:none"
     id="g4456"
     transform="translate(-126.2011,-90.3045)">
    <circle
       cx="127.7011"
       cy="121.45"
       r="0.3274"
       id="circle4454" />
  </g>
  <g
     style="fill:#ececec;fill-opacity:1;stroke:none"
     id="g4460"
     transform="translate(-126.2011,-90.3045)">
    <circle
       cx="147.6011"
       cy="97.800003"
       r="0.3274"
       id="circle4458" />
  </g>
  <g
     style="fill:#ececec;fill-opacity:1;stroke:none"
     id="g4464"
     transform="translate(-126.2011,-90.3045)">
    <circle
       cx="148.5649"
       cy="111.35"
       r="0.3274"
       id="circle4462" />
  </g>
  <g
     style="fill:#ececec;fill-opacity:1;stroke:none"
     id="g4468"
     transform="translate(-126.2011,-90.3045)">
    <circle
       cx="147.2011"
       cy="105.35"
       r="0.3274"
       id="circle4466" />
  </g>
  <g
     style="fill:#ececec;fill-opacity:1;stroke:none"
     id="g4472"
     transform="translate(-126.2011,-90.3045)">
    <circle
       cx="143.5511"
       cy="111.8"
       r="0.3274"
       id="circle4470" />
  </g>
  <g
     style="fill:#ececec;fill-opacity:1;stroke:none"
     id="g4476"
     transform="translate(-126.2011,-90.3045)">
    <circle
       cx="144.0511"
       cy="115.0606"
       r="0.3274"
       id="circle4474" />
  </g>
  <g
     style="fill:#ececec;fill-opacity:1;stroke:none"
     id="g4480"
     transform="translate(-126.2011,-90.3045)">
    <circle
       cx="136.5"
       cy="96.846397"
       r="0.3274"
       id="circle4478" />
  </g>
  <g
     style="fill:#ececec;fill-opacity:1;stroke:none"
     id="g4484"
     transform="translate(-126.2011,-90.3045)">
    <circle
       cx="142.60001"
       cy="96.846397"
       r="0.3274"
       id="circle4482" />
  </g>
  <g
     style="fill:#ececec;fill-opacity:1;stroke:none"
     id="g4488"
     transform="translate(-126.2011,-90.3045)">
    <circle
       cx="146.40109"
       cy="103.65"
       r="0.3274"
       id="circle4486" />
  </g>
  <g
     style="fill:#ececec;fill-opacity:1;stroke:none"
     id="g4492"
     transform="translate(-126.2011,-90.3045)">
    <circle
       cx="136.1011"
       cy="104.95"
       r="0.3274"
       id="circle4490" />
  </g>
  <g
     style="fill:#ececec;fill-opacity:1;stroke:none"
     id="g4496"
     transform="translate(-126.2011,-90.3045)">
    <circle
       cx="140.3924"
       cy="104.6598"
       r="0.3274"
       id="circle4494" />
  </g>
  <g
     style="fill:#ececec;fill-opacity:1;stroke:none"
     id="g4500"
     transform="translate(-126.2011,-90.3045)">
    <circle
       cx="141.6129"
       cy="103.6382"
       r="0.3274"
       id="circle4498" />
  </g>
  <g
     style="fill:#ececec;fill-opacity:1;stroke:none"
     id="g4504"
     transform="translate(-126.2011,-90.3045)">
    <circle
       cx="138"
       cy="115.0464"
       r="0.3274"
       id="circle4502" />
  </g>
  <g
     style="fill:#ececec;fill-opacity:1;stroke:none"
     id="g4508"
     transform="translate(-126.2011,-90.3045)">
    <circle
       cx="144.6011"
       cy="110.506"
       r="0.3274"
       id="circle4506" />
  </g>
  <g
     style="fill:#ececec;fill-opacity:1;stroke:none"
     id="g4512"
     transform="translate(-126.2011,-90.3045)">
    <circle
       cx="144.6841"
       cy="109.1202"
       r="0.3274"
       id="circle4510" />
  </g>
  <g
     style="fill:#ececec;fill-opacity:1;stroke:none"
     id="g4516"
     transform="translate(-126.2011,-90.3045)">
    <circle
       cx="141.7011"
       cy="102.4945"
       r="0.3274"
       id="circle4514" />
  </g>
  <g
     style="fill:#ececec;fill-opacity:1;stroke:none"
     id="g4520"
     transform="translate(-126.2011,-90.3045)">
    <circle
       cx="138.99921"
       cy="98.371399"
       r="0.3274"
       id="circle4518" />
  </g>
  <g
     style="fill:#ececec;fill-opacity:1;stroke:none"
     id="g4524"
     transform="translate(-126.2011,-90.3045)">
    <circle
       cx="138.5011"
       cy="97.736198"
       r="0.3274"
       id="circle4522" />
  </g>
  <g
     style="fill:#ececec;fill-opacity:1;stroke:none"
     id="g4528"
     transform="translate(-126.2011,-90.3045)">
    <circle
       cx="150.9511"
       cy="107.9"
       r="0.3274"
       id="circle4526" />
  </g>
  <g
     style="fill:#ececec;fill-opacity:1;stroke:none"
     id="g4532"
     transform="translate(-126.2011,-90.3045)">
    <circle
       cx="145.2393"
       cy="102.7749"
       r="0.3274"
       id="circle4530" />
  </g>
  <g
     style="fill:#ececec;fill-opacity:1;stroke:none"
     id="g4536"
     transform="translate(-126.2011,-90.3045)">
    <circle
       cx="150.9511"
       cy="112.2"
       r="0.3274"
       id="circle4534" />
  </g>
  <g
     style="fill:#ececec;fill-opacity:1;stroke:none"
     id="g4540"
     transform="translate(-126.2011,-90.3045)">
    <circle
       cx="147.6451"
       cy="109.2152"
       r="0.3274"
       id="circle4538" />
  </g>
  <g
     style="fill:#ececec;fill-opacity:1;stroke:none"
     id="g4544"
     transform="translate(-126.2011,-90.3045)">
    <circle
       cx="148.2571"
       cy="117.5923"
       r="0.3274"
       id="circle4542" />
  </g>
  <g
     style="fill:#ececec;fill-opacity:1;stroke:none"
     id="g4548"
     transform="translate(-126.2011,-90.3045)">
    <circle
       cx="136.6011"
       cy="114.05"
       r="0.3274"
       id="circle4546" />
  </g>
  <g
     style="fill:#ececec;fill-opacity:1;stroke:none"
     id="g4552"
     transform="translate(-126.2011,-90.3045)">
    <circle
       cx="140.0011"
       cy="115.9468"
       r="0.3274"
       id="circle4550" />
  </g>
  <g
     style="fill:#ececec;fill-opacity:1;stroke:none"
     id="g4556"
     transform="translate(-126.2011,-90.3045)">
    <circle
       cx="137.5011"
       cy="108.45"
       r="0.3274"
       id="circle4554" />
  </g>
  <g
     style="fill:#ececec;fill-opacity:1;stroke:none"
     id="g4560"
     transform="translate(-126.2011,-90.3045)">
    <circle
       cx="142.4451"
       cy="105.8"
       r="0.3274"
       id="circle4558" />
  </g>
  <g
     style="fill:#ececec;fill-opacity:1;stroke:none"
     id="g4564"
     transform="translate(-126.2011,-90.3045)">
    <circle
       cx="139.15109"
       cy="116.5028"
       r="0.3274"
       id="circle4562" />
  </g>
  <g
     style="fill:#ececec;fill-opacity:1;stroke:none"
     id="g4568"
     transform="translate(-126.2011,-90.3045)">
    <circle
       cx="141.5511"
       cy="105.45"
       r="0.3274"
       id="circle4566" />
  </g>
  <g
     style="fill:#ececec;fill-opacity:1;stroke:none"
     id="g4572"
     transform="translate(-126.2011,-90.3045)">
    <circle
       cx="141.40829"
       cy="100.15"
       r="0.3274"
       id="circle4570" />
  </g>
  <g
     style="fill:#ececec;fill-opacity:1;stroke:none"
     id="g4576"
     transform="translate(-126.2011,-90.3045)">
    <circle
       cx="144.46809"
       cy="106.8245"
       r="0.3274"
       id="circle4574" />
  </g>
  <g
     style="fill:#ececec;fill-opacity:1;stroke:none"
     id="g4580"
     transform="translate(-126.2011,-90.3045)">
    <circle
       cx="140.964"
       cy="106.1664"
       r="0.3274"
       id="circle4578" />
  </g>
  <g
     style="fill:#ececec;fill-opacity:1;stroke:none"
     id="g4584"
     transform="translate(-126.2011,-90.3045)">
    <circle
       cx="140.6011"
       cy="99.050003"
       r="0.3274"
       id="circle4582" />
  </g>
  <g
     style="fill:#ececec;fill-opacity:1;stroke:none"
     id="g4588"
     transform="translate(-126.2011,-90.3045)">
    <circle
       cx="147.7011"
       cy="107.35"
       r="0.3274"
       id="circle4586" />
  </g>
  <g
     style="fill:#ececec;fill-opacity:1;stroke:none"
     id="g4592"
     transform="translate(-126.2011,-90.3045)">
    <circle
       cx="140.4875"
       cy="105.513"
       r="0.3274"
       id="circle4590" />
  </g>
  <g
     style="fill:#ececec;fill-opacity:1;stroke:none"
     id="g4596"
     transform="translate(-126.2011,-90.3045)">
    <circle
       cx="135.8091"
       cy="100.158"
       r="0.3274"
       id="circle4594" />
  </g>
  <g
     style="fill:#ececec;fill-opacity:1;stroke:none"
     id="g4600"
     transform="translate(-126.2011,-90.3045)">
    <circle
       cx="148.3511"
       cy="115.9468"
       r="0.3274"
       id="circle4598" />
  </g>
  <g
     style="fill:#ececec;fill-opacity:1;stroke:none"
     id="g4604"
     transform="translate(-126.2011,-90.3045)">
    <circle
       cx="144.7429"
       cy="105.3548"
       r="0.3274"
       id="circle4602" />
  </g>
  <g
     style="fill:#ececec;fill-opacity:1;stroke:none"
     id="g4608"
     transform="translate(-126.2011,-90.3045)">
    <circle
       cx="148.3011"
       cy="108.25"
       r="0.3274"
       id="circle4606" />
  </g>
  <g
     style="fill:#ececec;fill-opacity:1;stroke:none"
     id="g4612"
     transform="translate(-126.2011,-90.3045)">
    <circle
       cx="140.6011"
       cy="100.15"
       r="0.3274"
       id="circle4610" />
  </g>
  <g
     style="fill:#ececec;fill-opacity:1;stroke:none"
     id="g4616"
     transform="translate(-126.2011,-90.3045)">
    <circle
       cx="143.5571"
       cy="105.7"
       r="0.3274"
       id="circle4614" />
  </g>
  <g
     style="fill:#ececec;fill-opacity:1;stroke:none"
     id="g4620"
     transform="translate(-126.2011,-90.3045)">
    <circle
       cx="152.3443"
       cy="118.2068"
       r="0.3274"
       id="circle4618" />
  </g>
  <g
     style="fill:none;stroke:#ce7d2c;stroke-width:0.3556;stroke-linecap:round;stroke-linejoin:round;stroke-opacity:1"
     id="g4624"
     transform="translate(-126.2011,-90.3045)">
    <path
       d="m 131.9211,92.01 h 0.14"
       id="path4622" />
  </g>
  <g
     style="fill:none;stroke:#ce7d2c;stroke-width:0.8128;stroke-linecap:round;stroke-linejoin:round;stroke-opacity:1"
     id="g4632"
     transform="translate(-126.2011,-90.3045)">
    <path
       d="m 136.5,96.8464 h -2.2825"
       id="path4626" />
    <path
       d="m 144.0511,115.0606 h -6.05"
       id="path4628" />
    <path
       d="m 151.8617,115.0606 1.2894,1.2894"
       id="path4630" />
  </g>
  <g
     style="fill:none;stroke:#ce7d2c;stroke-width:0.6096;stroke-linecap:round;stroke-linejoin:round;stroke-opacity:1"
     id="g4640"
     transform="translate(-126.2011,-90.3045)">
    <path
       d="m 140.3924,104.6598 h 0.1989"
       id="path4634" />
    <path
       d="m 141.6129,103.6382 h 4.7764"
       id="path4636" />
    <path
       d="m 144.6011,110.75 -1.05,1.05"
       id="path4638" />
  </g>
  <g
     style="fill:none;stroke:#ce7d2c;stroke-width:0.8128;stroke-linecap:round;stroke-linejoin:round;stroke-opacity:1"
     id="g4644"
     transform="translate(-126.2011,-90.3045)">
    <path
       d="m 153.1511,116.35 h 1.1"
       id="path4642" />
  </g>
  <g
     style="fill:none;stroke:#ce7d2c;stroke-width:0.6096;stroke-linecap:round;stroke-linejoin:round;stroke-opacity:1"
     id="g4648"
     transform="translate(-126.2011,-90.3045)">
    <path
       d="m 144.6011,110.506 v 0.244"
       id="path4646" />
  </g>
  <g
     style="fill:none;stroke:#ce7d2c;stroke-width:0.8128;stroke-linecap:round;stroke-linejoin:round;stroke-opacity:1"
     id="g4656"
     transform="translate(-126.2011,-90.3045)">
    <path
       d="m 149.4511,103.65 v 9.6"
       id="path4650" />
    <path
       d="m 144.1011,115.0606 h 5.35"
       id="path4652" />
    <path
       d="m 149.4511,113.25 v 1.8106"
       id="path4654" />
  </g>
  <g
     style="fill:none;stroke:#ce7d2c;stroke-width:0.6096;stroke-linecap:round;stroke-linejoin:round;stroke-opacity:1"
     id="g4662"
     transform="translate(-126.2011,-90.3045)">
    <path
       d="m 146.4129,103.6382 h 3.0264"
       id="path4658" />
    <path
       d="m 146.3893,103.6382 0.0118,0.0118"
       id="path4660" />
  </g>
  <g
     style="fill:none;stroke:#ce7d2c;stroke-width:0.8128;stroke-linecap:round;stroke-linejoin:round;stroke-opacity:1"
     id="g4666"
     transform="translate(-126.2011,-90.3045)">
    <path
       d="m 149.4511,115.0606 h 2.4106"
       id="path4664" />
  </g>
  <g
     style="fill:none;stroke:#ce7d2c;stroke-width:0.6096;stroke-linecap:round;stroke-linejoin:round;stroke-opacity:1"
     id="g4670"
     transform="translate(-126.2011,-90.3045)">
    <path
       d="m 140.5913,104.6598 1.0216,-1.0216"
       id="path4668" />
  </g>
  <g
     style="fill:none;stroke:#ce7d2c;stroke-width:0.4064;stroke-linecap:round;stroke-linejoin:round;stroke-opacity:1"
     id="g4676"
     transform="translate(-126.2011,-90.3045)">
    <path
       d="m 136.3774,104.6737 -0.2763,0.2763"
       id="path4672" />
    <path
       d="m 140.3924,104.6598 -0.0139,0.0139"
       id="path4674" />
  </g>
  <g
     style="fill:none;stroke:#ce7d2c;stroke-width:0.6096;stroke-linecap:round;stroke-linejoin:round;stroke-opacity:1"
     id="g4680"
     transform="translate(-126.2011,-90.3045)">
    <path
       d="m 146.4011,103.65 0.0118,-0.0118"
       id="path4678" />
  </g>
  <g
     style="fill:none;stroke:#ce7d2c;stroke-width:0.8128;stroke-linecap:round;stroke-linejoin:round;stroke-opacity:1"
     id="g4686"
     transform="translate(-126.2011,-90.3045)">
    <path
       d="m 142.6011,96.85 h 6.85"
       id="path4682" />
    <path
       d="m 149.4511,103.65 v -6.8"
       id="path4684" />
  </g>
  <g
     style="fill:none;stroke:#ce7d2c;stroke-width:0.4064;stroke-linecap:round;stroke-linejoin:round;stroke-opacity:1"
     id="g4690"
     transform="translate(-126.2011,-90.3045)">
    <path
       d="m 140.3785,104.6737 h -4.0011"
       id="path4688" />
  </g>
  <g
     style="fill:none;stroke:#ce7d2c;stroke-width:0.8128;stroke-linecap:round;stroke-linejoin:round;stroke-opacity:1"
     id="g4698"
     transform="translate(-126.2011,-90.3045)">
    <path
       d="m 142.6011,96.85 h -6.1"
       id="path4692" />
    <path
       d="m 131.9211,94.55 a 2.2964,2.2964 0 0 0 2.2964,2.2964"
       id="path4694" />
    <path
       style="fill:#ce7d2c;fill-opacity:1;fill-rule:evenodd;stroke:none"
       d="m 156.2854,90.3191 0.0146,0.0352 v 33.5914 l -0.0146,0.0352 -0.0352,0.0146 h -29.9993 l -0.0352,-0.0146 -0.0146,-0.0352 V 122.54 h 4.6722 l 0.0194,0.1966 0.0574,0.189 0.0931,0.1743 0.1253,0.1527 0.1527,0.1253 0.1743,0.0931 0.189,0.0574 0.1481,0.0146 0.0485,0.005 v 0 0 l 0.0448,-0.004 0.1518,-0.0149 0.1891,-0.0574 0.1742,-0.0931 0.1527,-0.1253 0.1253,-0.1527 0.0931,-0.1743 0.0574,-0.189 0.0194,-0.1966 h 0.5244 l 0.0194,0.1966 0.0574,0.189 0.0931,0.1743 0.1253,0.1527 0.1527,0.1253 0.1742,0.0931 0.1891,0.0574 0.1481,0.0146 0.0485,0.005 v 0 0 l 0.0448,-0.004 0.1518,-0.0149 0.189,-0.0574 0.1743,-0.0931 0.1527,-0.1253 0.1253,-0.1527 0.0931,-0.1743 0.0574,-0.189 0.0194,-0.1966 h 0.5244 l 0.0194,0.1966 0.0574,0.189 0.0931,0.1743 0.1253,0.1527 0.1527,0.1253 0.1742,0.0931 0.1891,0.0574 0.1481,0.0146 0.0485,0.005 v 0 0 l 0.0448,-0.004 0.1518,-0.0149 0.189,-0.0574 0.1743,-0.0931 0.1527,-0.1253 0.1253,-0.1527 0.0931,-0.1743 0.0574,-0.189 0.0194,-0.1966 h 0.5244 l 0.0194,0.1966 0.0574,0.189 0.0931,0.1743 0.1253,0.1527 0.1527,0.1253 0.1742,0.0931 0.1891,0.0574 0.1481,0.0146 0.0485,0.005 v 0 0 l 0.0448,-0.004 0.1518,-0.0149 0.1891,-0.0574 0.1742,-0.0931 0.1527,-0.1253 0.1253,-0.1527 0.0931,-0.1743 0.0574,-0.189 0.0194,-0.1966 h 0.5244 l 0.0194,0.1966 0.0574,0.189 0.0931,0.1743 0.1253,0.1527 0.1527,0.1253 0.1743,0.0931 0.189,0.0574 0.1481,0.0146 0.0485,0.005 v 0 0 l 0.0448,-0.004 0.1518,-0.0149 0.189,-0.0574 0.1743,-0.0931 0.1527,-0.1253 0.1253,-0.1527 0.0931,-0.1743 0.0574,-0.189 0.0194,-0.1966 h 0.5244 l 0.0194,0.1966 0.0574,0.189 0.0931,0.1743 0.1253,0.1527 0.1527,0.1253 0.1742,0.0931 0.1891,0.0574 0.1481,0.0146 0.0485,0.005 v 0 0 l 0.0448,-0.004 0.1518,-0.0149 0.189,-0.0574 0.1743,-0.0931 0.1527,-0.1253 0.1253,-0.1527 0.0931,-0.1743 0.0574,-0.189 0.0194,-0.1966 h 0.5244 l 0.0194,0.1966 0.0574,0.189 0.0931,0.1743 0.1253,0.1527 0.1527,0.1253 0.1742,0.0931 0.1891,0.0574 0.1481,0.0146 0.0485,0.005 v 0 0 l 0.0448,-0.004 0.1518,-0.0149 0.189,-0.0574 0.1743,-0.0931 0.1527,-0.1253 0.1253,-0.1527 0.0931,-0.1743 0.0574,-0.189 0.0194,-0.1966 h 0.5244 l 0.0194,0.1966 0.0574,0.189 0.0931,0.1743 0.1253,0.1527 0.1527,0.1253 0.1743,0.0931 0.189,0.0574 0.1481,0.0146 0.0485,0.005 v 0 0 l 0.0448,-0.004 0.1518,-0.0149 0.1891,-0.0574 0.1742,-0.0931 0.1527,-0.1253 0.1253,-0.1527 0.0931,-0.1743 0.0574,-0.189 0.0194,-0.1966 h 0.5244 l 0.0194,0.1966 0.0574,0.189 0.0931,0.1743 0.1253,0.1527 0.1527,0.1253 0.1742,0.0931 0.1891,0.0574 0.1481,0.0146 0.0485,0.005 v 0 0 l 0.0448,-0.004 0.1518,-0.0149 0.189,-0.0574 0.1743,-0.0931 0.1527,-0.1253 0.1253,-0.1527 0.0931,-0.1743 0.0574,-0.189 0.0194,-0.1966 h 0.5244 l 0.0194,0.1966 0.0574,0.189 0.0931,0.1743 0.1253,0.1527 0.1527,0.1253 0.1742,0.0931 0.1891,0.0574 0.1481,0.0146 0.0485,0.005 v 0 0 l 0.0448,-0.004 0.1518,-0.0149 0.189,-0.0574 0.1743,-0.0931 0.1527,-0.1253 0.1253,-0.1527 0.0931,-0.1743 0.0574,-0.189 0.0194,-0.1966 -0.0194,-0.1966 -0.0574,-0.1891 -0.0931,-0.1742 -0.1253,-0.1527 -0.1527,-0.1253 -0.1743,-0.0931 -0.189,-0.0574 -0.1966,-0.0194 v 0 l -0.1966,0.0194 -0.0823,0.025 -0.1068,0.0324 v 0 0 l -0.1129,0.0603 -0.0613,0.0328 v 0 0 l -0.1527,0.1253 -0.1253,0.1527 -0.0931,0.1742 v 0 0 l -0.0574,0.1891 -0.0194,0.1966 h -0.5244 l -0.0194,-0.1966 -0.0574,-0.1891 -0.0931,-0.1742 -0.1253,-0.1527 -0.1527,-0.1253 -0.1743,-0.0931 -0.189,-0.0574 -0.1966,-0.0194 v 0 l -0.1966,0.0194 -0.0823,0.025 -0.1068,0.0324 v 0 0 l -0.1129,0.0603 -0.0613,0.0328 v 0 0 l -0.1527,0.1253 -0.1253,0.1527 -0.0931,0.1742 v 0 0 l -0.0574,0.1891 -0.0194,0.1966 h -0.5244 l -0.0194,-0.1966 -0.0574,-0.1891 -0.0931,-0.1742 -0.1253,-0.1527 -0.1527,-0.1253 -0.1742,-0.0931 -0.1891,-0.0574 -0.1966,-0.0194 v 0 l -0.1966,0.0194 -0.0823,0.025 -0.1067,0.0324 h -1e-4 v 0 l -0.1129,0.0603 -0.0613,0.0328 v 0 0 l -0.1527,0.1253 -0.1253,0.1527 -0.0931,0.1742 v 0 0 l -0.0574,0.1891 -0.0194,0.1966 h -0.5244 l -0.0194,-0.1966 -0.0574,-0.1891 -0.0931,-0.1742 -0.1253,-0.1527 -0.1527,-0.1253 -0.1743,-0.0931 -0.189,-0.0574 -0.1966,-0.0194 v 0 l -0.1966,0.0194 -0.0823,0.025 -0.1068,0.0324 v 0 0 l -0.1129,0.0603 -0.0613,0.0328 v 0 0 l -0.1527,0.1253 -0.1253,0.1527 -0.0931,0.1742 v 0 0 l -0.0574,0.1891 -0.0194,0.1966 h -0.5244 l -0.0194,-0.1966 -0.0574,-0.1891 -0.0931,-0.1742 -0.1253,-0.1527 -0.1527,-0.1253 -0.1743,-0.0931 -0.189,-0.0574 -0.1966,-0.0194 v 0 l -0.1966,0.0194 -0.0823,0.025 -0.1068,0.0324 v 0 0 l -0.1129,0.0603 -0.0613,0.0328 v 0 0 l -0.1527,0.1253 -0.1253,0.1527 -0.0931,0.1742 v 0 0 l -0.0574,0.1891 -0.0194,0.1966 h -0.5244 l -0.0194,-0.1966 -0.0574,-0.1891 -0.0931,-0.1742 -0.1253,-0.1527 -0.1527,-0.1253 -0.1743,-0.0931 -0.189,-0.0574 -0.1966,-0.0194 v 0 l -0.1966,0.0194 -0.0823,0.025 -0.1067,0.0324 h -1e-4 v 0 l -0.1129,0.0603 -0.0613,0.0328 v 0 0 l -0.1527,0.1253 -0.1253,0.1527 -0.0931,0.1742 v 0 0 l -0.0574,0.1891 -0.0194,0.1966 h -0.5244 l -0.0194,-0.1966 -0.0574,-0.1891 -0.0931,-0.1742 -0.1253,-0.1527 -0.1527,-0.1253 -0.1742,-0.0931 -0.1891,-0.0574 -0.1966,-0.0194 v 0 l -0.1966,0.0194 -0.0823,0.025 -0.1068,0.0324 v 0 0 l -0.1129,0.0603 -0.0613,0.0328 v 0 0 l -0.1527,0.1253 -0.1253,0.1527 -0.0931,0.1742 v 0 0 l -0.0574,0.1891 -0.0194,0.1966 h -0.5244 l -0.0194,-0.1966 -0.0574,-0.1891 -0.0931,-0.1742 -0.1253,-0.1527 -0.1527,-0.1253 -0.1743,-0.0931 -0.189,-0.0574 -0.1966,-0.0194 v 0 l -0.1966,0.0194 -0.0823,0.025 -0.1068,0.0324 v 0 0 l -0.1129,0.0603 -0.0613,0.0328 v 0 0 l -0.1527,0.1253 -0.1253,0.1527 -0.0931,0.1742 v 0 0 l -0.0574,0.1891 -0.0194,0.1966 h -0.5244 l -0.0194,-0.1966 -0.0574,-0.1891 -0.0931,-0.1742 -0.1253,-0.1527 -0.1527,-0.1253 -0.1743,-0.0931 -0.189,-0.0574 -0.1966,-0.0194 v 0 l -0.1966,0.0194 -0.0823,0.025 -0.1068,0.0324 v 0 0 l -0.1129,0.0603 -0.0613,0.0328 v 0 0 l -0.1527,0.1253 -0.1253,0.1527 -0.0931,0.1742 v 0 0 l -0.0574,0.1891 -0.0194,0.1966 h -0.5244 l -0.0194,-0.1966 -0.0574,-0.1891 -0.0931,-0.1742 -0.1253,-0.1527 -0.1527,-0.1253 -0.1742,-0.0931 -0.1891,-0.0574 -0.1966,-0.0194 v 0 l -0.1966,0.0194 -0.0823,0.025 -0.1067,0.0324 h -1e-4 v 0 l -0.1129,0.0603 -0.0613,0.0328 v 0 0 l -0.1527,0.1253 -0.1253,0.1527 -0.0931,0.1742 v 0 0 l -0.0574,0.1891 -0.0194,0.1966 h -4.6722 V 120 h 4.6722 l 0.0194,0.1966 0.0574,0.189 0.0931,0.1743 0.1253,0.1527 0.1527,0.1253 0.1743,0.0931 0.189,0.0574 0.1473,0.0145 0.0493,0.005 v 0 0 l 0.0448,-0.005 0.1518,-0.0149 0.1891,-0.0574 0.1742,-0.0931 0.1527,-0.1253 0.1253,-0.1527 0.0931,-0.1743 0.0574,-0.189 0.0194,-0.1966 h 0.5244 l 0.0194,0.1966 0.0574,0.189 0.0931,0.1743 0.1253,0.1527 0.1527,0.1253 0.1742,0.0931 0.1891,0.0574 0.1473,0.0145 0.0493,0.005 v 0 0 l 0.0448,-0.005 0.1518,-0.0149 0.189,-0.0574 0.1743,-0.0931 0.1527,-0.1253 0.1253,-0.1527 0.0931,-0.1743 0.0574,-0.189 0.0194,-0.1966 h 0.5244 l 0.0194,0.1966 0.0574,0.189 0.0931,0.1743 0.1253,0.1527 0.1527,0.1253 0.1742,0.0931 0.1891,0.0574 0.1473,0.0145 0.0493,0.005 v 0 0 l 0.0448,-0.005 0.1518,-0.0149 0.189,-0.0574 0.1743,-0.0931 0.1527,-0.1253 0.1253,-0.1527 0.0931,-0.1743 0.0574,-0.189 0.0194,-0.1966 h 0.5244 l 0.0194,0.1966 0.0574,0.189 0.0931,0.1743 0.1253,0.1527 0.1527,0.1253 0.1742,0.0931 0.1891,0.0574 0.1473,0.0145 0.0493,0.005 v 0 0 l 0.0448,-0.005 0.1518,-0.0149 0.1891,-0.0574 0.1742,-0.0931 0.1527,-0.1253 0.1253,-0.1527 0.0931,-0.1743 0.0574,-0.189 0.0194,-0.1966 h 0.5244 l 0.0194,0.1966 0.0574,0.189 0.0931,0.1743 0.1253,0.1527 0.1527,0.1253 0.1743,0.0931 0.189,0.0574 0.1473,0.0145 0.0493,0.005 v 0 0 l 0.0448,-0.005 0.1518,-0.0149 0.189,-0.0574 0.1743,-0.0931 0.1527,-0.1253 0.1253,-0.1527 0.0931,-0.1743 0.0574,-0.189 0.0194,-0.1966 -0.0151,-0.1524 h 0.4527 0.6178 l -0.0232,0.0866 v 0.1316 l 0.0232,0.0866 h -0.6178 l 0.005,0.0513 v 0 l 0.056,0.1968 0.0912,0.1832 v 0 l 0.1233,0.1632 v 0 l 0.1512,0.1379 0.174,0.1077 0.1908,0.0739 0.151,0.0282 v 0 -0.6178 l 0.0866,0.0232 h 0.1316 l 0.0866,-0.0232 v 0.6178 l 0.151,-0.0282 0.1908,-0.0739 0.174,-0.1077 0.1512,-0.1379 v 0 l 0.1233,-0.1632 v 0 l 0.0912,-0.1832 0.056,-0.1968 v 0 l 0.005,-0.0513 h -0.6178 l 0.0232,-0.0866 V 120 h 1.0322 l 0.0194,0.1966 0.0574,0.189 0.0931,0.1743 0.1253,0.1527 0.1527,0.1253 0.1742,0.0931 0.1891,0.0574 0.1473,0.0145 0.0493,0.005 v 0 0 l 0.0448,-0.005 0.1518,-0.0149 0.189,-0.0574 0.1743,-0.0931 0.1527,-0.1253 0.1253,-0.1527 0.0931,-0.1743 0.0574,-0.189 0.0194,-0.1966 h 0.5244 l 0.0194,0.1966 0.0574,0.189 0.0931,0.1743 0.1253,0.1527 0.1527,0.1253 0.1743,0.0931 0.189,0.0574 0.1473,0.0145 0.0493,0.005 v 0 0 l 0.0448,-0.005 0.1518,-0.0149 0.1891,-0.0574 0.1742,-0.0931 0.1527,-0.1253 0.1253,-0.1527 0.0931,-0.1743 0.0574,-0.189 0.0194,-0.1966 h 0.5244 l 0.0194,0.1966 0.0574,0.189 0.0931,0.1743 0.1253,0.1527 0.1527,0.1253 0.1742,0.0931 0.1891,0.0574 0.1473,0.0145 0.0493,0.005 v 0 0 l 0.0448,-0.005 0.1518,-0.0149 0.189,-0.0574 0.1743,-0.0931 0.1527,-0.1253 0.1253,-0.1527 0.0931,-0.1743 0.0574,-0.189 0.0194,-0.1966 -0.0194,-0.1966 -0.0574,-0.1891 -0.0931,-0.1742 -0.1253,-0.1527 -0.1527,-0.1253 -0.0508,-0.0272 h 1.028 v 1.7301 1e-4 l 0.009,0.0446 v 0 l 0.0338,0.0505 v 0 l 0.0505,0.0338 0.0446,0.009 h 1.7302 l 0.0446,-0.009 0.0505,-0.0338 0.0338,-0.0505 0.009,-0.0446 v -1.7302 l -0.009,-0.0446 v 0 0 l -0.0338,-0.0505 v 0 l -0.0505,-0.0338 -0.0446,-0.009 v 0 h -1.7302 v 0 l -0.0334,0.007 -0.0112,0.002 v 0 0 l -0.0505,0.0338 v 0 l -0.0338,0.0505 v 0 l -0.009,0.0446 h -1.028 l -0.1235,-0.0659 -0.189,-0.0574 -0.1966,-0.0194 v 0 l -0.1966,0.0194 -0.0823,0.025 -0.1068,0.0324 v 0 0 l -0.0865,0.0462 -0.0877,0.0469 v 0 0 l -0.1527,0.1253 -0.1253,0.1527 -0.0931,0.1742 v 0 0 l -0.0574,0.1891 -0.0194,0.1966 h -0.5244 l -0.0194,-0.1966 -0.0574,-0.1891 -0.0931,-0.1742 -0.1253,-0.1527 -0.1527,-0.1253 -0.1742,-0.0931 -0.1891,-0.0574 -0.1966,-0.0194 v 0 l -0.1966,0.0194 -0.0823,0.025 -0.1067,0.0324 h -1e-4 v 0 l -0.0865,0.0462 -0.0877,0.0469 v 0 0 l -0.1527,0.1253 -0.1253,0.1527 -0.0931,0.1742 v 0 0 l -0.0574,0.1891 -0.0194,0.1966 h -0.5244 l -0.0194,-0.1966 -0.0574,-0.1891 -0.0931,-0.1742 -0.1253,-0.1527 -0.1527,-0.1253 -0.1743,-0.0931 -0.189,-0.0574 -0.1966,-0.0194 v 0 l -0.1966,0.0194 -0.0823,0.025 -0.1068,0.0324 v 0 0 l -0.0865,0.0462 -0.0877,0.0469 v 0 0 l -0.1527,0.1253 -0.1253,0.1527 -0.0931,0.1742 v 0 0 l -0.0574,0.1891 -0.0194,0.1966 h -1.0322 v -0.0658 l -0.0232,-0.0866 h 0.6178 l -0.005,-0.0513 v 0 l -0.056,-0.1968 -0.0912,-0.1832 v 0 l -0.1233,-0.1632 v 0 l -0.1512,-0.1379 -0.174,-0.1077 -0.1908,-0.0739 -0.151,-0.0282 v 0.6178 l -0.0869,-0.022 h -0.1316 l -0.0866,0.0232 v -0.6178 0 l -0.151,0.0282 -0.1908,0.0739 -0.174,0.1077 -0.1512,0.1379 v 0 l -0.1233,0.1632 v 0 l -0.0912,0.1832 -0.056,0.1968 v 0 l -0.005,0.0513 h -0.4527 l -0.004,-0.0442 -0.0574,-0.1891 -0.0931,-0.1742 -0.1253,-0.1527 -0.1527,-0.1253 -0.1743,-0.0931 -0.189,-0.0574 -0.1966,-0.0194 v 0 l -0.1966,0.0194 -0.0823,0.025 -0.1067,0.0324 h -1e-4 v 0 l -0.0865,0.0462 -0.0877,0.0469 v 0 0 l -0.1527,0.1253 -0.1253,0.1527 -0.0931,0.1742 v 0 0 l -0.0574,0.1891 -0.0194,0.1966 h -0.5244 l -0.0194,-0.1966 -0.0574,-0.1891 -0.0931,-0.1742 -0.1253,-0.1527 -0.1527,-0.1253 -0.1742,-0.0931 -0.1891,-0.0574 -0.1966,-0.0194 v 0 l -0.1966,0.0194 -0.0823,0.025 -0.1068,0.0324 v 0 0 l -0.0865,0.0462 -0.0877,0.0469 v 0 0 l -0.1527,0.1253 -0.1253,0.1527 -0.0931,0.1742 v 0 0 l -0.0574,0.1891 -0.0194,0.1966 h -0.5244 l -0.0194,-0.1966 -0.0574,-0.1891 -0.0931,-0.1742 -0.1253,-0.1527 -0.1527,-0.1253 -0.1743,-0.0931 -0.189,-0.0574 -0.1966,-0.0194 v 0 l -0.1966,0.0194 -0.0823,0.025 -0.1068,0.0324 v 0 0 l -0.0865,0.0462 -0.0877,0.0469 v 0 0 l -0.1527,0.1253 -0.1253,0.1527 -0.0931,0.1742 v 0 0 l -0.0574,0.1891 -0.0194,0.1966 h -0.5244 l -0.0194,-0.1966 -0.0574,-0.1891 -0.0931,-0.1742 -0.1253,-0.1527 -0.1527,-0.1253 -0.1743,-0.0931 -0.189,-0.0574 -0.1966,-0.0194 v 0 l -0.1966,0.0194 -0.0823,0.025 -0.1068,0.0324 v 0 0 l -0.0865,0.0462 -0.0877,0.0469 v 0 0 l -0.1527,0.1253 -0.1253,0.1527 -0.0931,0.1742 v 0 0 l -0.0574,0.1891 -0.0194,0.1966 h -0.5244 l -0.0194,-0.1966 -0.0574,-0.1891 -0.0931,-0.1742 -0.1253,-0.1527 -0.1527,-0.1253 -0.1742,-0.0931 -0.1891,-0.0574 -0.1966,-0.0194 v 0 l -0.1966,0.0194 -0.0823,0.025 -0.1067,0.0324 h -1e-4 v 0 l -0.0865,0.0462 -0.0877,0.0469 v 0 0 l -0.1527,0.1253 -0.1253,0.1527 -0.0931,0.1742 v 0 0 l -0.0574,0.1891 -0.0194,0.1966 h -4.6722 v -1.7932 h 25.6579 v 0 l 0.0197,0.1368 v 0 l 0.0573,0.1256 v 0 l 0.0905,0.1044 v 0 l 0.1162,0.0746 v 0 0 l 0.1325,0.0389 v 0 h 0.1381 v 0 l 0.1325,-0.0389 0.1162,-0.0746 0.0905,-0.1044 0.0573,-0.1256 0.0197,-0.1368 -0.0197,-0.1367 -0.0573,-0.1256 v 0 0 0 l -0.0905,-0.1044 v 0 l -0.1162,-0.0746 v 0 0 l -0.1325,-0.039 h -0.1381 l -0.1325,0.039 v 0 0 l -0.1162,0.0746 v 0 l -0.0905,0.1044 v 0 l -0.0573,0.1256 v 0 l -0.0197,0.1367 h -25.6579 v -0.6145 h 21.5708 v 0 l 0.0196,0.1367 v 0 l 0.0574,0.1256 v 0 l 0.0904,0.1044 v 0 l 0.1162,0.0747 v 0 0 l 0.1325,0.0389 v 0 h 0.1382 v 0 l 0.1325,-0.0389 0.1162,-0.0747 0.0904,-0.1044 0.0574,-0.1256 0.0196,-0.1367 -0.0196,-0.1367 -0.0574,-0.1256 v 0 0 0 l -0.0904,-0.1044 v 0 l -0.1162,-0.0747 v 0 0 l -0.1325,-0.0389 h -0.1382 l -0.1325,0.0389 v 0 0 l -0.1162,0.0747 v 0 l -0.0904,0.1044 v 0 l -0.0574,0.1256 v 0 l -0.0196,0.1367 H 126.2011 V 114.05 h 9.9148 v 0 l 0.0196,0.1367 v 0 l 0.0574,0.1256 v 0 l 0.0904,0.1044 v 0 l 0.1162,0.0747 v 0 0 l 0.1325,0.0389 v 0 h 0.1382 v 0 l 0.1325,-0.0389 0.1162,-0.0747 0.0904,-0.1044 0.0574,-0.1256 0.0196,-0.1367 -0.0196,-0.1367 -0.0574,-0.1256 v 0 0 0 l -0.0904,-0.1044 v 0 l -0.1162,-0.0747 v 0 0 l -0.1325,-0.0389 h -0.1382 l -0.1325,0.0389 v 0 0 l -0.1162,0.0747 v 0 l -0.0904,0.1044 v 0 l -0.0574,0.1256 v 0 l -0.0196,0.1367 h -9.9148 v -2.25 h 16.8648 v 0 l 0.0196,0.1367 v 0 l 0.0574,0.1256 v 0 l 0.0904,0.1044 v 0 l 0.1162,0.0747 v 0 0 l 0.1325,0.0389 v 0 h 0.1382 v 0 l 0.1325,-0.0389 0.1162,-0.0747 0.0904,-0.1044 0.0158,-0.0346 0.0101,-0.0145 0.9822,-0.9822 0.0602,-0.1043 0.0195,-0.0729 0.0117,-0.0435 v -0.1395 l 0.005,-0.0207 9e-4,-0.002 0.002,-0.005 0.0196,-0.1367 -0.0196,-0.1367 -0.0574,-0.1256 v 0 0 0 l -0.0904,-0.1044 v 0 l -0.1162,-0.0747 v 0 0 l -0.1325,-0.0389 h -0.1382 l -0.1325,0.0389 v 0 0 l -0.1162,0.0747 v 0 l -0.0904,0.1044 v 0 l -0.0574,0.1256 v 0 l -0.0196,0.1367 v 0 l 0.007,0.047 -0.009,0.0369 -0.005,0.005 -0.7673,0.7673 -0.008,0.007 -0.0996,0.064 v 0 l -0.0904,0.1044 v 0 l -0.0574,0.1256 v 0 l -0.0196,0.1367 h -16.8648 v -4.4751 h 2.4971 v 1.7301 1e-4 l 0.009,0.0446 v 0 l 0.0338,0.0505 v 0 l 0.0505,0.0338 0.0446,0.009 h 1.7302 l 0.0446,-0.009 0.0505,-0.0338 0.0201,-0.03 h 13.5175 v 0 l 0.0196,0.1367 v 0 l 0.0574,0.1256 v 0 l 0.0904,0.1044 v 0 l 0.1162,0.0747 v 0 0 l 0.1325,0.0389 v 0 h 0.1382 v 0 l 0.1325,-0.0389 0.1162,-0.0747 0.0904,-0.1044 0.0574,-0.1256 0.006,-0.0417 h 2.0042 v 0 l 0.0196,0.1367 v 0 l 0.0574,0.1256 v 0 l 0.0904,0.1044 v 0 l 0.1162,0.0747 v 0 0 l 0.1325,0.0389 v 0 h 0.1382 v 0 l 0.1325,-0.0389 0.1162,-0.0747 0.0904,-0.1044 0.0574,-0.1256 0.0196,-0.1367 -0.0196,-0.1367 -0.0574,-0.1256 v 0 0 0 l -0.0904,-0.1044 v 0 l -0.1162,-0.0747 v 0 0 l -0.1325,-0.0389 h -0.1382 l -0.1325,0.0389 v 0 0 l -0.1162,0.0747 v 0 l -0.0904,0.1044 v 0 l -0.0574,0.1256 v 0 l -0.0196,0.1367 h -2.0042 l 0.0136,-0.095 -0.003,-0.0205 -0.006,-0.0446 -0.0103,-0.0716 -0.0574,-0.1256 v 0 0 0 l -0.0904,-0.1044 v 0 l -0.1162,-0.0747 v 0 0 l -0.1325,-0.0389 h -0.1382 l -0.1325,0.0389 v 0 0 l -0.1162,0.0747 v 0 l -0.0904,0.1044 v 0 l -0.0574,0.1256 v 0 l -0.0196,0.1367 h -13.5175 l 0.0137,-0.0205 0.009,-0.0446 V 108.45 h 6.3119 v 0 l 0.0196,0.1367 v 0 l 0.0574,0.1256 v 0 l 0.0904,0.1044 v 0 l 0.1162,0.0747 v 0 0 l 0.1325,0.0389 v 0 h 0.1382 v 0 l 0.1325,-0.0389 0.1162,-0.0747 0.0904,-0.1044 0.0574,-0.1256 0.0196,-0.1367 -0.0196,-0.1367 -0.0289,-0.0633 h 9.8781 v 0 l 0.0196,0.1367 v 0 l 0.0574,0.1256 v 0 l 0.0904,0.1044 v 0 l 0.1162,0.0747 v 0 0 l 0.1325,0.0389 v 0 h 0.1382 v 0 l 0.1325,-0.0389 0.1162,-0.0747 0.0904,-0.1044 0.0574,-0.1256 0.0196,-0.1367 -0.0196,-0.1367 -0.0574,-0.1256 v 0 0 0 l -0.0904,-0.1044 v 0 l -0.1162,-0.0747 v 0 0 l -0.1325,-0.0389 h -0.1382 l -0.1325,0.0389 v 0 0 l -0.1162,0.0747 v 0 l -0.0904,0.1044 v 0 l -0.0574,0.1256 v 0 l -0.0196,0.1367 h -9.8781 l -0.0285,-0.0623 v 0 0 0 l -0.0904,-0.1044 v 0 l -0.1162,-0.0747 v 0 0 l -0.1325,-0.0389 h -0.1382 l -0.1325,0.0389 v 0 0 l -0.1162,0.0747 v 0 l -0.0904,0.1044 v 0 l -0.0574,0.1256 v 0 l -0.0196,0.1367 h -6.3119 v -1.1 h 16.5119 v 0 l 0.0196,0.1367 v 0 l 0.0574,0.1256 v 0 l 0.0904,0.1044 v 0 l 0.1162,0.0747 v 0 0 l 0.1325,0.0389 v 0 h 0.1382 v 0 l 0.1325,-0.0389 0.1162,-0.0747 0.0904,-0.1044 0.0574,-0.1256 0.0196,-0.1367 -0.004,-0.0251 -0.006,-0.0446 -0.01,-0.067 -0.0574,-0.1256 v 0 0 0 l -0.0904,-0.1044 v 0 l -0.1162,-0.0747 v 0 0 l -0.1325,-0.0389 h -0.1382 l -0.1325,0.0389 v 0 0 l -0.1162,0.0747 v 0 l -0.0904,0.1044 v 0 l -0.0574,0.1256 v 0 l -0.0196,0.1367 H 130.704 v -0.0251 l -0.009,-0.0446 v 0 0 l -0.0338,-0.0505 v 0 l -0.0505,-0.0338 -0.0446,-0.009 v 0 h -1.7302 v 0 l -0.0334,0.007 -0.0112,0.002 v 0 0 l -0.0505,0.0338 v 0 l -0.0338,0.0505 v 0 l -0.009,0.0446 h -2.4971 v -0.5004 h 17.7818 v 0 l 0.0196,0.1367 v 0 l 0.0574,0.1256 v 0 l 0.0904,0.1044 v 0 l 0.1162,0.0747 v 0 0 l 0.1325,0.0389 v 0 h 0.1382 v 0 l 0.1325,-0.0389 0.1162,-0.0747 0.0904,-0.1044 0.0574,-0.1256 0.0196,-0.1367 -0.0196,-0.1367 -0.0574,-0.1256 v 0 0 0 l -0.0904,-0.1044 v 0 l -0.1162,-0.0747 v 0 0 l -0.1325,-0.0389 h -0.1382 l -0.1325,0.0389 v 0 0 l -0.1162,0.0747 v 0 l -0.0904,0.1044 v 0 l -0.0574,0.1256 v 0 l -0.0196,0.1367 h -17.7818 v -1.3269 h 2.4054 0.6178 l -0.0232,0.0866 v 0.1316 l 0.0232,0.0866 h -0.6178 l 0.005,0.0513 v 0 l 0.056,0.1968 0.0912,0.1832 v 0 l 0.1233,0.1632 v 0 l 0.1512,0.1379 0.174,0.1077 0.1908,0.0739 0.151,0.0282 v 0 -0.6178 l 0.0866,0.0232 h 0.1316 l 0.0866,-0.0232 v 0.6178 l 0.151,-0.0282 0.1908,-0.0739 0.174,-0.1077 0.1512,-0.1379 v 0 l 0.1233,-0.1632 v 0 l 0.0912,-0.1832 0.0559,-0.1968 h 1e-4 l 0.005,-0.0513 h -0.6178 l 0.0232,-0.0866 v -0.1316 l -0.0232,-0.0866 h 0.6178 l -0.005,-0.0513 h -1e-4 l -0.0559,-0.1968 -0.0912,-0.1832 v 0 l -0.1233,-0.1632 v 0 l -0.1512,-0.1379 -0.174,-0.1077 -0.1908,-0.0739 -0.151,-0.0282 v 0.6178 L 129.767,105.15 h -0.1316 l -0.0866,0.0232 v -0.6178 0 l -0.151,0.0282 -0.1908,0.0739 -0.174,0.1077 -0.1512,0.1379 v 0 l -0.1233,0.1632 v 0 l -0.0912,0.1832 -0.056,0.1968 v 0 l -0.005,0.0513 h -2.4054 v -3.0031 h 15.0148 v 0 l 0.0196,0.1367 v 0 l 0.0574,0.1256 v 0 l 0.0904,0.1044 v 0 l 0.1162,0.0747 v 0 0 l 0.1325,0.0389 v 0 h 0.1382 v 0 l 0.1325,-0.0389 0.1162,-0.0747 0.0904,-0.1044 0.0574,-0.1256 0.0196,-0.1367 -0.0196,-0.1367 -0.0574,-0.1256 v 0 0 0 l -0.0904,-0.1044 v 0 l -0.1162,-0.0747 v 0 0 l -0.1325,-0.0389 h -0.1382 l -0.1325,0.0389 v 0 0 l -0.1162,0.0747 v 0 l -0.0904,0.1044 v 0 l -0.0574,0.1256 v 0 l -0.0196,0.1367 h -15.0148 v -2.3365 h 9.1227 v 0 l 0.0197,0.1367 v 0 l 0.0573,0.1256 v 0 l 0.0905,0.1044 v 0 l 0.1162,0.0746 v 0 0 l 0.1325,0.039 v 0 h 0.1381 v 0 l 0.1325,-0.039 0.1162,-0.0746 0.0905,-0.1044 0.0573,-0.1256 0.0197,-0.1367 -10e-4,-0.008 v 0 h 3.8228 v 0 l 0.0196,0.1367 v 0 l 0.0574,0.1256 v 0 l 0.0904,0.1044 v 0 l 0.1162,0.0747 v 0 0 l 0.1325,0.0389 v 0 h 0.1382 v 0 l 0.1325,-0.0389 0.1162,-0.0747 0.0482,-0.0556 0.034,-0.0171 0.0362,0.0121 0.005,0.005 0.0482,0.0556 v 0 l 0.1162,0.0747 v 0 0 l 0.1325,0.0389 v 0 h 0.1382 v 0 l 0.1325,-0.0389 0.1162,-0.0747 0.0904,-0.1044 0.0574,-0.1256 0.0196,-0.1367 -0.0196,-0.1367 -0.0574,-0.1256 v 0 0 0 l -0.0904,-0.1044 v 0 l -0.1162,-0.0747 v 0 0 l -0.1325,-0.0389 h -0.1382 l -0.1325,0.0389 v 0 0 l -0.1162,0.0747 v 0 l -0.0482,0.0556 -0.034,0.0171 -0.0362,-0.0121 -0.005,-0.005 -0.0482,-0.0556 v 0 l -0.1162,-0.0747 v 0 0 l -0.1325,-0.0389 h -0.1382 l -0.1325,0.0389 v 0 0 l -0.1162,0.0747 v 0 l -0.0904,0.1044 v 0 l -0.0574,0.1256 v 0 l -0.0196,0.1367 h -3.8228 l -0.005,-0.0376 -0.0131,-0.0912 -0.0573,-0.1256 v 0 0 0 l -0.0905,-0.1044 v 0 l -0.1162,-0.0746 v 0 0 l -0.1325,-0.0389 H 135.74 l -0.1325,0.0389 v 0 0 l -0.1162,0.0746 v 0 l -0.0905,0.1044 v 0 l -0.0573,0.1256 v 0 l -0.0197,0.1368 h -9.1227 V 99.05 h 13.9148 v 0 l 0.0196,0.1367 v 0 l 0.0574,0.1256 v 0 l 0.0904,0.1044 v 0 l 0.1162,0.0747 v 0 0 l 0.1325,0.0389 v 0 h 0.1382 v 0 l 0.1325,-0.0389 0.1162,-0.0747 0.0904,-0.1044 0.0574,-0.1256 0.0196,-0.1367 -0.0196,-0.1367 -0.0574,-0.1256 v 0 0 0 l -0.0904,-0.1044 v 0 l -0.1162,-0.0747 v 0 0 l -0.1325,-0.0389 h -0.1382 l -0.1325,0.0389 v 0 0 l -0.1162,0.0747 v 0 l -0.0904,0.1044 v 0 l -0.0574,0.1256 v 0 l -0.0196,0.1367 h -13.9148 v -4.46 h 4.7322 l 0.0194,0.1966 0.0574,0.1891 0.0931,0.1742 0.1253,0.1527 0.1527,0.1253 0.128,0.0684 0.0236,0.0275 0.0422,0.1207 v 1e-4 l 0.1392,0.2889 v 0 0 l 0.1706,0.2716 0.2,0.2508 0.2268,0.2268 0.2508,0.2 0.2716,0.1706 v 0 0 l 0.2889,0.1392 v 0 l 0.3028,0.1059 v 0 l 0.2368,0.0541 0.0759,0.0173 0.3187,0.0359 h 0.0868 2.2636 l 0.0129,0.0017 0.007,0.0019 h 1.6174 l 0.0352,0.0146 0.0146,0.0352 -0.004,0.0207 -0.0547,0.1197 v 0 l -0.0196,0.1367 v 0 l 0.0196,0.1367 v 0 l 0.0574,0.1256 v 0 l 0.0904,0.1044 v 0 l 0.1162,0.0747 v 0 0 l 0.1325,0.0389 h 0.0468 l 0.0352,0.0146 0.0146,0.0352 -5e-4,0.0071 -0.0141,0.098 v 0 l 0.0197,0.1367 v 0 l 0.0573,0.1256 v 0 l 0.0905,0.1044 v 0 l 0.1162,0.0746 v 0 0 l 0.1325,0.039 v 0 h 0.1381 v 0 l 0.1325,-0.039 0.1162,-0.0746 0.0905,-0.1044 0.0573,-0.1256 0.0197,-0.1367 -0.0197,-0.1368 -0.0573,-0.1256 v 0 0 0 l -0.0905,-0.1044 v 0 L 139.2008,97.93 v 0 0 l -0.1325,-0.0389 v 0 h -0.0468 l -0.0352,-0.0146 -0.0146,-0.0352 6e-4,-0.0071 0.014,-0.098 v 0 l -0.006,-0.0456 -0.0131,-0.0911 -0.0547,-0.1197 -0.001,-0.0381 0.0259,-0.0279 0.0207,-0.0045 h 3.5702 6.3145 l 0.0352,0.0146 0.0146,0.0352 v 5.6716 l -0.0146,0.0352 -0.0352,0.0146 h -2.3278 l -0.014,-0.002 -0.005,-0.001 -0.0251,-0.007 h -0.1382 l -0.03,0.009 -0.014,0.002 h -0.6556 l -0.0353,-0.0146 -0.0145,-0.0352 0.0121,-0.0326 h 10e-5 l 0.0527,-0.0609 0.0574,-0.1256 0.0196,-0.1367 -0.003,-0.0181 -0.004,-0.0275 -0.0131,-0.0911 -0.0574,-0.1256 v 0 0 0 l -0.0905,-0.1044 v 0 l -0.1162,-0.0747 v 0 0 l -0.1325,-0.0389 h -0.1381 l -0.1325,0.0389 v 0 0 l -0.1162,0.0747 v 0 l -0.0904,0.1044 v 0 l -0.0574,0.1256 v 0 l -0.0197,0.1367 v 0 l 0.0197,0.1367 0.0574,0.1256 0.0526,0.0608 10e-5,1e-4 0.012,0.0362 -0.017,0.0341 -0.0326,0.0121 h -3.0801 l -0.0141,-0.002 -0.0428,-0.0126 -0.0273,-0.008 h -0.1381 l -0.1325,0.0389 v 0 0 l -0.1162,0.0747 v 0 l -0.0904,0.1044 v 0 l -0.0159,0.0346 -0.01,0.0146 -0.7399,0.7398 -0.0352,0.0146 h -0.0804 l -0.1325,0.0389 v 0 0 l -0.1162,0.0747 v 0 l -0.006,0.007 -0.034,0.0171 -0.004,10e-5 h -3.7001 l -0.0799,0.0214 -0.0107,0.003 v 0 0 l -0.0812,0.0469 -0.0663,0.0663 -0.0352,0.0146 h -0.0252 l -0.1325,0.0389 v 0 0 l -0.1162,0.0747 v 0 l -0.0904,0.1044 v 0 l -0.0574,0.1256 v 0 l -0.0196,0.1367 v 0 l 0.0196,0.1367 v 0 l 0.0574,0.1256 v 0 l 0.0904,0.1044 v 0 l 0.1162,0.0747 v 0 0 l 0.1325,0.0389 v 0 h 0.1382 v 0 l 0.1325,-0.0389 0.1162,-0.0747 0.003,-0.003 0.0628,-0.0724 0.0247,-0.0286 0.0574,-0.1256 0.002,-0.0142 0.0195,-0.0327 0.0298,-0.01 h 3.4471 l 0.0269,0.008 0.062,0.0399 0.0218,0.0313 -0.007,0.0375 -0.004,0.006 -0.0854,0.0986 -0.0574,0.1256 v 0 l -0.0196,0.1367 v 0 l 0.0196,0.1367 v 0 l 0.0574,0.1257 v 0 l 0.0904,0.1043 v 0 l 0.1162,0.0747 v 0 0 l 0.1325,0.0389 h 0.0278 l 0.0352,0.0146 0.0146,0.0352 -5e-4,0.007 -0.0167,0.1162 v 0 l 0.0196,0.1367 v 0 l 0.0574,0.1256 v 0 l 0.0904,0.1044 v 0 l 0.1162,0.0746 v 0 1e-4 l 0.1325,0.0389 v 0 h 0.1382 v 0 l 0.1325,-0.0389 0.1162,-0.0747 0.0904,-0.1044 0.0574,-0.1256 0.0196,-0.1367 -0.004,-0.025 -0.0107,-0.0747 -0.005,-0.037 -0.0152,-0.0334 -0.001,-0.0381 0.026,-0.0279 0.0347,-0.002 0.008,0.002 v 0 0 0 h 0.1382 v 0 l 0.1325,-0.0389 0.1162,-0.0747 0.009,-0.01 0.034,-0.0171 0.0362,0.0121 0.0167,0.0305 0.015,0.1045 v 0 l 0.0574,0.1256 v 0 l 0.0904,0.1044 v 0 l 0.1162,0.0747 v 0 0 l 0.1325,0.0389 v 0 h 0.1382 v 0 l 0.1325,-0.0389 0.1162,-0.0747 0.0904,-0.1044 0.0574,-0.1256 0.0196,-0.1367 -5e-4,-0.004 -0.0138,-0.0962 v 0 h 0.1559 v 0 l 0.0196,0.1367 v 0 l 0.0574,0.1256 v 0 l 0.0904,0.1044 v 0 l 0.1162,0.0747 v 0 0 l 0.1325,0.0389 v 0 h 0.1382 v 0 l 0.1325,-0.0389 0.1162,-0.0747 0.004,-0.004 0.0283,-0.0326 0.0583,-0.0674 0.0574,-0.1256 0.0196,-0.1367 -0.0196,-0.1367 -0.0574,-0.1256 v 0 0 0 l -0.0718,-0.0829 h 0.3641 v 0 l 0.0197,0.1367 v 0 l 0.0574,0.1256 v 0 l 0.0904,0.1044 v 0 l 0.1162,0.0747 v 0 0 l 0.1325,0.0389 v 0 h 0.1381 v 0 l 0.1325,-0.0389 0.1162,-0.0747 0.0187,-0.0215 0.0257,-0.0297 0.0461,-0.0532 0.0573,-0.1256 0.0197,-0.1367 -0.002,-0.0118 -0.0121,-0.0844 -0.006,-0.0405 -0.0573,-0.1256 v 0 0 0 l -0.0905,-0.1044 v 0 l -0.1162,-0.0747 v 0 0 l -0.1325,-0.0389 h -0.1381 l -0.1325,0.0389 v 0 0 l -0.1162,0.0747 v 0 l -0.0904,0.1044 v 0 l -0.0574,0.1256 v 0 l -0.0197,0.1367 h -0.3641 l -0.0186,-0.0215 v 0 l -0.1162,-0.0747 v 0 0 l -0.1325,-0.0389 h -0.1382 l -0.1325,0.0389 v 0 0 l -0.1162,0.0747 v 0 l -0.0904,0.1044 v 0 l -0.0574,0.1256 v 0 l -0.0196,0.1367 h -0.1559 l -0.005,-0.0367 -0.0574,-0.1256 v 0 0 0 l -0.0904,-0.1044 v 0 l -0.1162,-0.0747 v 0 0 l -0.1325,-0.0389 h -0.1382 l -0.1325,0.0389 v 0 0 l -0.1162,0.0747 v 0 l -0.009,0.01 -0.034,0.0171 -0.0362,-0.0121 -0.0167,-0.0305 -0.004,-0.0264 -0.0112,-0.0781 -0.0574,-0.1256 v 0 0 0 l -0.0904,-0.1044 v 0 l -0.1162,-0.0747 v 0 0 l -0.1325,-0.0389 h -0.1382 l -0.1325,0.0389 v 0 0 l -0.1162,0.0747 v 0 l -0.0904,0.1044 v 0 l -0.0574,0.1256 v 0 l -0.0196,0.1367 v 0 l 0.0193,0.1342 3e-4,0.002 0.0152,0.0333 0.001,0.0381 -0.026,0.0279 -0.0347,0.002 -0.008,-0.002 v 0 h -0.0278 l -0.0352,-0.0146 -0.0146,-0.0352 5e-4,-0.007 0.0167,-0.1162 v 0 l -0.01,-0.0697 -0.01,-0.067 -0.0574,-0.1256 v 0 0 0 l -0.0904,-0.1044 -0.003,-0.002 0.001,-0.001 -0.0184,-0.0264 0.007,-0.0375 0.017,-0.0162 0.0631,-0.0364 0.9156,-0.9156 0.0352,-0.0146 h 4.3847 l 0.0141,0.002 0.1101,0.0324 v 0 h 0.1382 v 0 l 0.1101,-0.0324 0.0141,-0.002 h 2.2476 l 0.0352,0.0146 0.0146,0.0352 v 10.3058 l -0.0146,0.0352 -0.0352,0.0146 H 137.927 l -0.1423,0.0381 v 0 l -0.1275,0.0736 -0.1042,0.1042 -0.0736,0.1275 v 0 l -0.0381,0.1423 v 0.1472 l 0.0381,0.1423 v 0 0 l 0.0736,0.1275 0.1042,0.1042 0.1275,0.0736 0.1423,0.0381 h 1.6174 l 0.0352,0.0146 0.0146,0.0352 -0.004,0.0207 -0.0547,0.1197 v 0 l -0.0196,0.1367 v 0 l 0.0192,0.1339 -0.009,0.0369 -0.0328,0.0195 -0.034,-0.007 -0.1062,-0.0683 v 0 0 l -0.1325,-0.0389 h -0.1382 l -0.1325,0.0389 v 0 0 l -0.1162,0.0747 v 0 l -0.0904,0.1044 v 0 l -0.0574,0.1256 v 0 l -0.0196,0.1367 v 0 l 0.0196,0.1367 v 0 l 0.0574,0.1256 v 0 l 0.0904,0.1044 v 0 l 0.1162,0.0747 v 0 0 l 0.1325,0.0389 v 0 h 0.1382 v 0 l 0.1325,-0.0389 0.1162,-0.0747 0.0904,-0.1044 0.0574,-0.1256 0.0196,-0.1367 -0.0192,-0.1339 0.009,-0.0369 0.0328,-0.0195 0.034,0.007 0.1062,0.0683 v 0 0 l 0.1325,0.0389 v 0 h 0.1382 v 0 l 0.1325,-0.0389 0.1162,-0.0747 8e-4,-10e-4 0.0625,-0.072 0.0271,-0.0314 0.0574,-0.1256 0.0196,-0.1367 -0.0196,-0.1367 -0.0547,-0.1197 -0.001,-0.0381 0.0259,-0.0279 0.0207,-0.004 h 3.5702 3.8674 l 0.0352,0.0146 0.0146,0.0352 -0.005,0.0207 -0.0547,0.1197 v 0 l -0.0196,0.1367 v 0 l 0.0196,0.1367 v 0 l 0.0574,0.1256 v 0 l 0.0904,0.1044 v 0 l 0.1162,0.0747 v 0 0 l 0.1325,0.0389 v 0 h 0.1382 v 0 l 0.1325,-0.0389 0.1162,-0.0747 8e-4,-0.001 0.0625,-0.072 0.0271,-0.0314 0.0574,-0.1256 0.0196,-0.1367 -0.0196,-0.1367 -0.0547,-0.1197 -0.001,-0.0381 0.0259,-0.0279 0.0207,-0.004 h 0.5702 2.2319 l 0.0352,0.0146 1.0589,1.0589 0.1042,0.1042 0.1275,0.0736 0.1423,0.0381 h 0.3117 l 0.0352,0.0146 0.003,0.004 0.1109,0.1351 0.1527,0.1253 0.1742,0.0931 0.1891,0.0574 0.1481,0.0146 0.0485,0.005 v 0 0 l 0.0448,-0.004 0.1518,-0.0149 0.1891,-0.0574 0.1742,-0.0931 0.1527,-0.1253 0.1253,-0.1527 0.0931,-0.1743 0.0574,-0.189 0.0194,-0.1966 -0.0194,-0.1966 -0.0574,-0.1891 -0.0931,-0.1742 -0.1253,-0.1527 -0.1527,-0.1253 -0.1742,-0.0931 -0.1891,-0.0574 -0.1966,-0.0194 v 0 l -0.1966,0.0194 -0.0823,0.025 -0.1068,0.0324 v 0 0 l -0.1129,0.0603 -0.0613,0.0328 v 0 0 l -0.1527,0.1253 -0.1044,0.1273 -0.0336,0.0179 -0.0365,-0.011 -0.004,-0.003 -1.1553,-1.1553 -0.0567,-0.0327 -0.0708,-0.0409 v 0 0 0 l -0.1423,-0.0381 v 0 h -1.8751 l -0.0352,-0.0146 -0.0146,-0.0352 V 113.81 h 3.2329 v 0 l 0.0102,0.1033 0.009,0.0933 0.0574,0.1891 0.0931,0.1742 0.1253,0.1527 0.1527,0.1253 0.1742,0.0931 0.1891,0.0574 0.1481,0.0146 0.0485,0.005 v 0 0 l 0.0448,-0.005 0.1518,-0.0149 0.1891,-0.0574 0.1742,-0.0931 0.1527,-0.1253 0.1253,-0.1527 0.0931,-0.1742 0.0574,-0.1891 0.0194,-0.1966 -0.002,-0.0223 -0.0103,-0.1044 -0.007,-0.0699 -0.0574,-0.1891 -0.0931,-0.1742 -0.1253,-0.1527 -0.1527,-0.1253 -0.1742,-0.0931 -0.1891,-0.0574 -0.1966,-0.0194 v 0 l -0.1966,0.0194 -0.0823,0.025 -0.1068,0.0324 v 0 0 l -0.1129,0.0603 -0.0613,0.0328 v 0 0 l -0.1527,0.1253 -0.1253,0.1527 -0.0931,0.1742 v 0 l -0.0574,0.1891 -0.0194,0.1966 h -3.2329 v -1.61 h 0.4555 v 0 l 0.0196,0.1367 v 0 l 0.0574,0.1256 v 0 l 0.0904,0.1044 v 0 l 0.1162,0.0747 v 0 0 l 0.1325,0.0389 v 0 h 0.1382 v 0 l 0.1325,-0.0389 0.1162,-0.0747 0.0904,-0.1044 0.0574,-0.1256 0.0195,-0.1357 1e-4,-10e-4 v 0 l -0.0132,-0.0921 -0.006,-0.0446 -0.0574,-0.1256 v 0 0 0 l -0.0904,-0.1044 v 0 l -0.1162,-0.0747 v 0 0 l -0.1325,-0.0389 h -0.1382 l -0.1325,0.0389 v 0 0 l -0.1162,0.0747 v 0 l -0.0904,0.1044 v 0 l -0.0574,0.1256 v 0 l -0.0196,0.1367 h -0.4555 v -0.93 h 3.2329 l 0.0194,0.1966 0.0574,0.189 0.0931,0.1743 0.1253,0.1527 0.1527,0.1253 0.1742,0.0931 0.1891,0.0574 0.1481,0.0146 0.0485,0.005 v 0 0 l 0.0448,-0.004 0.1518,-0.0149 0.1891,-0.0574 0.1742,-0.0931 0.1527,-0.1253 0.1253,-0.1527 0.0931,-0.1743 0.0574,-0.189 0.0194,-0.1966 -0.0194,-0.1966 -0.0574,-0.1891 -0.0931,-0.1742 -0.1253,-0.1527 -0.1527,-0.1253 -0.1742,-0.0931 -0.1891,-0.0574 -0.1966,-0.0194 v 0 l -0.1966,0.0194 -0.0823,0.025 -0.1068,0.0324 v 0 0 l -0.0567,0.0303 -0.1175,0.0628 v 0 0 l -0.1527,0.1253 -0.1253,0.1527 -0.0931,0.1742 v 0 0 l -0.0574,0.1891 -0.0194,0.1966 h -3.2329 v -2.54 h 3.2329 v 0 l 0.002,0.0235 0.017,0.1731 0.0574,0.189 v 1e-4 0 l 0.007,0.0129 0.0862,0.1613 0.1253,0.1527 0.1384,0.1136 0.007,0.005 0.008,0.006 0.1742,0.0931 0.1891,0.0574 0.1481,0.0146 0.0485,0.005 v 0 0 l 0.0448,-0.004 0.1518,-0.0149 0.1891,-0.0574 0.1742,-0.0931 0.1527,-0.1253 0.1253,-0.1527 0.0931,-0.1743 0.0574,-0.189 0.017,-0.1731 0.002,-0.0235 v 0 l -0.009,-0.0901 -0.0105,-0.1065 -0.0574,-0.1891 -0.0931,-0.1742 -0.006,-0.008 -0.0402,-0.049 -0.0787,-0.0959 -0.1527,-0.1253 -0.1742,-0.0931 -0.1891,-0.0574 -0.1966,-0.0194 v 0 l -0.1966,0.0194 -0.0715,0.0217 -0.1176,0.0357 v 0 0 l -0.1129,0.0603 -0.0613,0.0328 v 0 0 l -0.1527,0.1253 -0.1253,0.1527 v 0 0 l -0.009,0.0176 -0.0837,0.1566 v 0 0 l -0.0129,0.0424 -0.0445,0.1467 -0.0194,0.1966 h -3.2329 v -0.83 h 0.4555 v 0 l 0.0196,0.1367 v 0 l 0.0574,0.1256 v 0 l 0.0904,0.1044 v 0 l 0.1162,0.0747 v 0 0 l 0.1325,0.0389 v 0 h 0.1382 v 0 l 0.1325,-0.0389 0.1162,-0.0747 0.0904,-0.1044 0.0574,-0.1256 0.0196,-0.1367 -0.0196,-0.1367 -0.0574,-0.1256 v 0 0 0 l -0.0904,-0.1044 v 0 l -0.1162,-0.0747 v 0 0 l -0.1325,-0.0389 h -0.1382 l -0.1325,0.0389 v 0 0 l -0.1162,0.0747 v 0 l -0.0904,0.1044 v 0 l -0.0574,0.1256 v 0 l -0.0196,0.1367 h -0.4555 v -2.585 h 3.1367 v 0.7226 h 0.6272 l -0.0232,0.0866 v 0.1316 l 0.0232,0.0866 h -0.6272 v 0.7226 l 0.0147,0.0741 v 0 l 0.0562,0.084 v 0 l 0.084,0.0562 v 0 l 0.0741,0.0147 h 0.7226 v -0.6272 l 0.0866,0.0232 h 0.1316 l 0.0866,-0.0232 v 0.6272 h 0.7226 v 0 l 0.0741,-0.0147 v 0 l 0.084,-0.0562 v 0 l 0.0562,-0.084 v 0 l 0.0147,-0.0741 v 0 -0.7226 h -0.6272 l 0.0232,-0.0866 v -0.1316 l -0.0232,-0.0866 h 0.6272 v -0.7226 0 l -0.0147,-0.0741 v 0 l -0.0562,-0.084 v 0 l -0.084,-0.0562 v 0 l -0.0741,-0.0147 h -0.7226 v 0.6272 l -0.0866,-0.0232 h -0.1316 l -0.0866,0.0232 v -0.6272 h -0.7226 v 0 l -0.0741,0.0147 v 0 l -0.084,0.0562 v 0 l -0.0562,0.084 v 0 l -0.0147,0.0741 h -3.1367 v -8.5386 0 l -0.0251,-0.0937 -0.013,-0.0486 -0.0736,-0.1275 -0.1042,-0.1042 v 0 l -0.1275,-0.0736 v 0 0 0 l -0.1423,-0.0381 v 0 h -6.85 -6.0811 l -0.0129,-0.0017 -0.007,-0.0019 h -2.3543 l -0.004,-1e-4 -0.2419,-0.0173 -0.007,-0.001 -0.2352,-0.0512 -0.007,-0.002 -0.2256,-0.0841 -0.006,-0.003 -0.2113,-0.1154 -0.006,-0.0038 -0.1927,-0.1443 -0.005,-0.0046 -0.1702,-0.1702 -0.005,-0.0054 -0.0766,-0.1022 -0.0677,-0.0905 -0.004,-0.006 -0.0842,-0.1544 -0.004,-0.0379 0.009,-0.0175 0.1036,-0.1263 0.0931,-0.1742 0.0574,-0.1891 0.0194,-0.1966 h 0.5244 l 0.0194,0.1966 0.0574,0.1891 0.0931,0.1742 0.1253,0.1527 0.1527,0.1253 0.1742,0.0931 0.1891,0.0574 0.1481,0.0146 0.0485,0.0048 v 0 0 l 0.0448,-0.0045 0.1518,-0.0149 0.189,-0.0574 0.1743,-0.0931 0.1527,-0.1253 0.1253,-0.1527 0.0931,-0.1742 0.0574,-0.1891 0.0194,-0.1966 h 0.5244 l 0.0194,0.1966 0.0574,0.1891 0.0931,0.1742 0.1253,0.1527 0.1527,0.1253 0.1742,0.0931 0.1891,0.0574 0.1481,0.0146 0.0485,0.0048 v 0 0 l 0.0448,-0.0045 0.1518,-0.0149 0.189,-0.0574 0.1743,-0.0931 0.1527,-0.1253 0.1253,-0.1527 0.0931,-0.1742 0.0574,-0.1891 0.0194,-0.1966 h 0.5244 l 0.0194,0.1966 0.0574,0.1891 0.0931,0.1742 0.1253,0.1527 0.1527,0.1253 0.1742,0.0931 0.1891,0.0574 0.1481,0.0146 0.0485,0.0048 v 0 0 l 0.0448,-0.0045 0.1518,-0.0149 0.189,-0.0574 0.1743,-0.0931 0.1527,-0.1253 0.1253,-0.1527 0.0931,-0.1742 0.0574,-0.1891 0.0194,-0.1966 h 0.5244 l 0.0194,0.1966 0.0574,0.1891 0.0931,0.1742 0.1253,0.1527 0.1527,0.1253 0.1743,0.0931 0.189,0.0574 0.1481,0.0146 0.0485,0.0048 v 0 0 l 0.0448,-0.0045 0.1518,-0.0149 0.1891,-0.0574 0.1742,-0.0931 0.1527,-0.1253 0.1253,-0.1527 0.0931,-0.1742 0.0574,-0.1891 0.0194,-0.1966 h 0.5244 l 0.0194,0.1966 0.0574,0.1891 0.0931,0.1742 0.1253,0.1527 0.1527,0.1253 0.1742,0.0931 0.1891,0.0574 0.1481,0.0146 0.0485,0.0048 v 0 0 l 0.0448,-0.0045 0.1518,-0.0149 0.189,-0.0574 0.1743,-0.0931 0.1527,-0.1253 0.1253,-0.1527 0.0931,-0.1742 0.0574,-0.1891 0.0194,-0.1966 -0.0151,-0.1524 h 0.4527 0.6178 l -0.0232,0.0866 v 0.1316 l 0.0232,0.0866 h -0.6178 l 0.005,0.0513 v 0 l 0.056,0.1968 0.0912,0.1832 v 0 l 0.1233,0.1632 v 0 l 0.1512,0.1379 0.174,0.1077 0.1908,0.0739 0.151,0.0282 v 0 -0.6178 l 0.0866,0.0232 h 0.1316 l 0.0866,-0.0232 v 0.6178 l 0.151,-0.0282 0.1908,-0.0739 0.174,-0.1077 0.1512,-0.1379 v 0 l 0.1233,-0.1632 v 0 l 0.0912,-0.1832 0.0559,-0.1968 h 1e-4 l 0.005,-0.0513 h -0.6178 l 0.0232,-0.0866 v -0.1316 l -0.0232,-0.0866 h 0.6178 0.3508 0.6178 l -0.0232,0.0866 v 0.1316 l 0.0232,0.0866 h -0.6178 l 0.005,0.0513 v 0 l 0.056,0.1968 0.0912,0.1832 v 0 l 0.1233,0.1632 v 0 l 0.1512,0.1379 0.174,0.1077 0.1908,0.0739 0.151,0.0282 v 0 -0.6178 l 0.0866,0.0232 h 0.1316 l 0.0866,-0.0232 v 0.6178 l 0.151,-0.0282 0.1908,-0.0739 0.174,-0.1077 0.1512,-0.1379 v 0 l 0.1233,-0.1632 v 0 l 0.0912,-0.1832 0.0559,-0.1968 h 1e-4 l 0.005,-0.0513 h -0.6178 l 0.0232,-0.0866 v -0.1316 l -0.0232,-0.0866 h 0.6178 0.3508 0.6178 l -0.0232,0.0866 v 0.1316 l 0.0232,0.0866 h -0.6178 l 0.005,0.0513 v 0 l 0.056,0.1968 0.0912,0.1832 v 0 l 0.1233,0.1632 v 0 l 0.1512,0.1379 0.174,0.1077 0.1908,0.0739 0.151,0.0282 v 0 -0.6178 l 0.0866,0.0232 h 0.1316 l 0.0866,-0.0232 v 0.6178 l 0.151,-0.0282 0.1908,-0.0739 0.174,-0.1077 0.1512,-0.1379 v 0 l 0.1233,-0.1632 v 0 l 0.0912,-0.1832 0.0559,-0.1968 h 1e-4 l 0.005,-0.0513 h -0.6178 L 152.763,94.656 V 94.59 h 1.0322 l 0.0194,0.1966 0.0574,0.1891 0.0931,0.1742 0.1253,0.1527 0.1527,0.1253 0.1742,0.0931 0.1891,0.0574 0.1481,0.0146 0.0485,0.0048 v 0 0 l 0.0448,-0.0045 0.1518,-0.0149 0.189,-0.0574 0.1743,-0.0931 0.1527,-0.1253 0.1253,-0.1527 0.0931,-0.1742 0.0574,-0.1891 0.0194,-0.1966 -0.0194,-0.1966 -0.0574,-0.1891 -0.0931,-0.1742 -0.1253,-0.1527 -0.1527,-0.1253 -0.1743,-0.0931 -0.189,-0.0574 -0.1966,-0.0194 v 0 l -0.1966,0.0194 -0.0823,0.025 -0.1068,0.0324 v 0 0 l -0.0865,0.0462 -0.0877,0.0469 v 0 0 l -0.1527,0.1253 -0.1253,0.1527 -0.0931,0.1742 v 0 0 l -0.0574,0.1891 -0.0194,0.1966 h -1.0322 v -0.0658 l -0.0232,-0.0866 h 0.6178 l -0.005,-0.0513 h -1e-4 l -0.0559,-0.1968 -0.0912,-0.1832 v 0 l -0.1233,-0.1632 v 0 l -0.1512,-0.1379 -0.174,-0.1077 -0.1908,-0.0739 -0.151,-0.0282 v 0.6178 L 152.3269,94.09 h -0.1316 l -0.0866,0.0232 v -0.6178 0 l -0.151,0.0282 -0.1908,0.0739 -0.174,0.1077 -0.1512,0.1379 v 0 l -0.1233,0.1632 v 0 l -0.0912,0.1832 -0.056,0.1968 v 0 l -0.005,0.0513 h -0.3508 l -0.005,-0.0513 h -10e-5 l -0.0559,-0.1968 -0.0912,-0.1832 v 0 l -0.1233,-0.1632 v 0 l -0.1512,-0.1379 -0.174,-0.1077 -0.1908,-0.0739 -0.151,-0.0282 v 0.6178 l -0.086,-0.0232 h -0.1316 l -0.0866,0.0232 v -0.6178 0 l -0.151,0.0282 -0.1908,0.0739 -0.174,0.1077 -0.1512,0.1379 v 0 l -0.1233,0.1632 v 0 l -0.0912,0.1832 -0.056,0.1968 v 0 l -0.005,0.0513 h -0.3508 l -0.005,-0.0513 h -1e-4 l -0.0559,-0.1968 -0.0912,-0.1832 v 0 l -0.1233,-0.1632 v 0 l -0.1512,-0.1379 -0.174,-0.1077 -0.1908,-0.0739 -0.151,-0.0282 v 0.6178 l -0.086,-0.0232 h -0.1316 l -0.0866,0.0232 v -0.6178 0 l -0.151,0.0282 -0.1908,0.0739 -0.174,0.1077 -0.1512,0.1379 v 0 l -0.1233,0.1632 v 0 l -0.0912,0.1832 -0.056,0.1968 v 0 l -0.005,0.0513 h -0.4527 l -0.004,-0.0442 -0.0574,-0.1891 -0.0931,-0.1742 -0.1253,-0.1527 -0.1527,-0.1253 -0.1743,-0.0931 -0.189,-0.0574 -0.1966,-0.0194 v 0 l -0.1966,0.0194 -0.0823,0.025 -0.1068,0.0324 v 0 0 l -0.0865,0.0462 -0.0877,0.0469 v 0 0 l -0.1527,0.1253 -0.1253,0.1527 -0.0931,0.1742 v 0 0 l -0.0574,0.1891 -0.0194,0.1966 h -0.5244 l -0.0194,-0.1966 -0.0574,-0.1891 -0.0931,-0.1742 -0.1253,-0.1527 -0.1527,-0.1253 -0.1742,-0.0931 -0.1891,-0.0574 -0.1966,-0.0194 v 0 l -0.1966,0.0194 -0.0823,0.025 -0.1067,0.0324 h -1e-4 v 0 l -0.0865,0.0462 -0.0877,0.0469 v 0 0 l -0.1527,0.1253 -0.1253,0.1527 -0.0931,0.1742 v 0 0 l -0.0574,0.1891 -0.0194,0.1966 h -0.5244 l -0.0194,-0.1966 -0.0574,-0.1891 -0.0931,-0.1742 -0.1253,-0.1527 -0.1527,-0.1253 -0.1743,-0.0931 -0.189,-0.0574 -0.1966,-0.0194 v 0 l -0.1966,0.0194 -0.0823,0.025 -0.1068,0.0324 v 0 0 l -0.0865,0.0462 -0.0877,0.0469 v 0 0 l -0.1527,0.1253 -0.1253,0.1527 -0.0931,0.1742 v 0 0 l -0.0574,0.1891 -0.0194,0.1966 h -0.5244 l -0.0194,-0.1966 -0.0574,-0.1891 -0.0931,-0.1742 -0.1253,-0.1527 -0.1527,-0.1253 -0.1743,-0.0931 -0.189,-0.0574 -0.1966,-0.0194 v 0 l -0.1966,0.0194 -0.0823,0.025 -0.1068,0.0324 v 0 0 l -0.0865,0.0462 -0.0877,0.0469 v 0 0 l -0.1527,0.1253 -0.1253,0.1527 -0.0931,0.1742 v 0 0 l -0.0574,0.1891 -0.0194,0.1966 h -0.5244 l -0.0194,-0.1966 -0.0574,-0.1891 -0.0931,-0.1742 -0.1253,-0.1527 -0.1527,-0.1253 -0.1743,-0.0931 -0.189,-0.0574 -0.1966,-0.0194 v 0 l -0.1966,0.0194 -0.0823,0.025 -0.1068,0.0324 v 0 0 l -0.0865,0.0462 -0.0877,0.0469 v 0 0 l -0.1527,0.1253 -0.1253,0.1527 -0.0931,0.1742 v 0 0 l -0.0574,0.1891 -0.0194,0.1966 h -0.5244 l -0.0194,-0.1966 -0.0574,-0.1891 -0.0931,-0.1742 -0.1253,-0.1527 -0.1527,-0.1253 -0.1742,-0.0931 -0.1891,-0.0574 -0.1966,-0.0194 v 0 l -0.1966,0.0194 -0.0823,0.025 -0.1067,0.0324 h -1e-4 v 0 l -0.0865,0.0462 -0.0877,0.0469 v 0 0 l -0.1527,0.1253 -0.1253,0.1527 -0.0931,0.1742 v 0 0 l -0.0574,0.1891 -0.0194,0.1966 h -4.7322 v -2.6924 h 4.6454 0.6178 l -0.0232,0.0866 v 0.1316 l 0.0232,0.0866 h -0.6178 l 0.005,0.0513 v 0 l 0.056,0.1968 0.0912,0.1832 v 0 l 0.1233,0.1632 v 0 l 0.1512,0.1379 0.174,0.1077 0.1908,0.0739 0.151,0.0282 v 0 -0.6178 l 0.0866,0.0232 h 0.1316 l 0.0866,-0.0232 v 0.6178 l 0.151,-0.0282 0.1908,-0.0739 0.174,-0.1077 0.1512,-0.1379 v 0 l 0.1233,-0.1632 v 0 l 0.0912,-0.1832 0.0559,-0.1968 h 10e-5 l 0.005,-0.0513 h -0.6178 l 0.0232,-0.0866 V 92.05 h 1.0322 l 0.0194,0.1966 0.0574,0.189 0.0931,0.1743 0.1253,0.1527 0.1527,0.1253 0.1742,0.0931 0.1891,0.0574 0.1473,0.0145 0.0493,0.0049 v 0 0 l 0.0448,-0.0045 0.1518,-0.0149 0.189,-0.0574 0.1743,-0.0931 0.1527,-0.1253 0.1253,-0.1527 0.0931,-0.1743 0.0574,-0.189 0.0194,-0.1966 h 0.5244 l 0.0194,0.1966 0.0574,0.189 0.0931,0.1743 0.1253,0.1527 0.1527,0.1253 0.1742,0.0931 0.1891,0.0574 0.1473,0.0145 0.0493,0.0049 v 0 0 l 0.0448,-0.0045 0.1518,-0.0149 0.189,-0.0574 0.1743,-0.0931 0.1527,-0.1253 0.1253,-0.1527 0.0931,-0.1743 0.0574,-0.189 0.0194,-0.1966 h 0.5244 l 0.0194,0.1966 0.0574,0.189 0.0931,0.1743 0.1253,0.1527 0.1527,0.1253 0.1742,0.0931 0.1891,0.0574 0.1473,0.0145 0.0493,0.0049 v 0 0 l 0.0448,-0.0045 0.1518,-0.0149 0.189,-0.0574 0.1743,-0.0931 0.1527,-0.1253 0.1253,-0.1527 0.0931,-0.1743 0.0574,-0.189 0.0194,-0.1966 -0.0151,-0.1524 h 0.4527 0.6178 l -0.0232,0.0866 v 0.1316 l 0.0232,0.0866 h -0.6178 l 0.005,0.0513 v 0 l 0.056,0.1968 0.0912,0.1832 v 0 l 0.1233,0.1632 v 0 l 0.1512,0.1379 0.174,0.1077 0.1908,0.0739 0.151,0.0282 v 0 -0.6178 l 0.0866,0.0232 h 0.1316 l 0.0866,-0.0232 v 0.6178 l 0.151,-0.0282 0.1908,-0.0739 0.174,-0.1077 0.1512,-0.1379 v 0 l 0.1233,-0.1632 v 0 l 0.0912,-0.1832 0.0559,-0.1968 h 1e-4 l 0.005,-0.0513 h -0.6178 l 0.0232,-0.0866 v -0.1316 l -0.0232,-0.0866 h 0.6178 0.3508 0.6178 l -0.0232,0.0866 v 0.1316 l 0.0232,0.0866 h -0.6178 l 0.005,0.0513 v 0 l 0.056,0.1968 0.0912,0.1832 v 0 l 0.1233,0.1632 v 0 l 0.1512,0.1379 0.174,0.1077 0.1908,0.0739 0.151,0.0282 v 0 -0.6178 l 0.0866,0.0232 h 0.1316 l 0.0866,-0.0232 v 0.6178 l 0.151,-0.0282 0.1908,-0.0739 0.174,-0.1077 0.1512,-0.1379 v 0 l 0.1233,-0.1632 v 0 l 0.0912,-0.1832 0.056,-0.1968 v 0 l 0.005,-0.0513 h -0.6178 l 0.0232,-0.0866 V 92.05 h 1.0322 l 0.0194,0.1966 0.0574,0.189 0.0931,0.1743 0.1253,0.1527 0.1527,0.1253 0.1742,0.0931 0.1891,0.0574 0.1473,0.0145 0.0493,0.0049 v 0 0 l 0.0448,-0.0045 0.1518,-0.0149 0.189,-0.0574 0.1743,-0.0931 0.1527,-0.1253 0.1253,-0.1527 0.0931,-0.1743 0.0574,-0.189 0.0194,-0.1966 h 0.5244 l 0.0194,0.1966 0.0574,0.189 0.0931,0.1743 0.1253,0.1527 0.1527,0.1253 0.1742,0.0931 0.1891,0.0574 0.1473,0.0145 0.0493,0.0049 v 0 0 l 0.0448,-0.0045 0.1518,-0.0149 0.1891,-0.0574 0.1742,-0.0931 0.1527,-0.1253 0.1253,-0.1527 0.0931,-0.1743 0.0574,-0.189 0.0194,-0.1966 h 0.5244 l 0.0194,0.1966 0.0574,0.189 0.0931,0.1743 0.1253,0.1527 0.1527,0.1253 0.1743,0.0931 0.189,0.0574 0.1473,0.0145 0.0493,0.0049 v 0 0 l 0.0448,-0.0045 0.1518,-0.0149 0.189,-0.0574 0.1743,-0.0931 0.1527,-0.1253 0.1253,-0.1527 0.0931,-0.1743 0.0574,-0.189 0.0194,-0.1966 -0.0194,-0.1966 -0.0574,-0.1891 -0.0931,-0.1742 -0.1253,-0.1527 -0.1527,-0.1253 -0.0508,-0.0272 h 1.028 v 1.7301 10e-5 l 0.009,0.0446 v 0 l 0.0338,0.0505 v 0 l 0.0505,0.0338 0.0446,0.0089 h 1.7302 l 0.0446,-0.0089 0.0505,-0.0338 0.0338,-0.0505 0.009,-0.0446 v -1.7302 l -0.009,-0.0446 v 0 0 l -0.0338,-0.0505 v 0 l -0.0505,-0.0338 -0.0446,-0.0089 v 0 h -1.7302 v 0 l -0.0334,0.0067 -0.0112,0.0022 v 0 0 l -0.0505,0.0338 v 0 l -0.0338,0.0505 v 0 l -0.009,0.0446 h -1.028 l -0.1235,-0.0659 -0.189,-0.0574 -0.1966,-0.0194 v 0 l -0.1966,0.0194 -0.0823,0.025 -0.1067,0.0324 h -1e-4 v 0 l -0.0865,0.0462 -0.0877,0.0469 v 0 0 l -0.1527,0.1253 -0.1253,0.1527 -0.0931,0.1742 v 0 0 l -0.0574,0.1891 -0.0194,0.1966 h -0.5244 l -0.0194,-0.1966 -0.0574,-0.1891 -0.0931,-0.1742 -0.1253,-0.1527 -0.1527,-0.1253 -0.1742,-0.0931 -0.1891,-0.0574 -0.1966,-0.0194 v 0 l -0.1966,0.0194 -0.0823,0.025 -0.1068,0.0324 v 0 0 l -0.0865,0.0462 -0.0877,0.0469 v 0 0 l -0.1527,0.1253 -0.1253,0.1527 -0.0931,0.1742 v 0 0 l -0.0574,0.1891 -0.0194,0.1966 h -0.5244 l -0.0194,-0.1966 -0.0574,-0.1891 -0.0931,-0.1742 -0.1253,-0.1527 -0.1527,-0.1253 -0.1743,-0.0931 -0.189,-0.0574 -0.1966,-0.0194 v 0 l -0.1966,0.0194 -0.0823,0.025 -0.1068,0.0324 v 0 0 l -0.0865,0.0462 -0.0877,0.0469 v 0 0 l -0.1527,0.1253 -0.1253,0.1527 -0.0931,0.1742 v 0 0 l -0.0574,0.1891 -0.0194,0.1966 h -1.0322 v -0.0658 l -0.0232,-0.0866 h 0.6178 l -0.005,-0.0513 v 0 l -0.056,-0.1968 -0.0912,-0.1832 v 0 l -0.1233,-0.1632 v 0 l -0.1512,-0.1379 -0.174,-0.1077 -0.1908,-0.0739 -0.151,-0.0282 v 0.6178 L 144.7069,91.55 h -0.1316 l -0.0866,0.0232 v -0.6178 0 l -0.151,0.0282 -0.1908,0.0739 -0.174,0.1077 -0.1512,0.1379 v 0 l -0.1233,0.1632 v 0 l -0.0912,0.1832 -0.056,0.1968 v 0 l -0.005,0.0513 h -0.3508 l -0.005,-0.0513 h -1e-4 l -0.0559,-0.1968 -0.0912,-0.1832 v 0 l -0.1233,-0.1632 v 0 l -0.1512,-0.1379 -0.174,-0.1077 -0.1908,-0.0739 -0.151,-0.0282 v 0.6178 l -0.086,-0.0232 h -0.1316 l -0.0866,0.0232 v -0.6178 0 l -0.151,0.0282 -0.1908,0.0739 -0.174,0.1077 -0.1512,0.1379 v 0 l -0.1233,0.1632 v 0 l -0.0912,0.1832 -0.056,0.1968 v 0 l -0.005,0.0513 h -0.4527 l -0.004,-0.0442 -0.0574,-0.1891 -0.0931,-0.1742 -0.1253,-0.1527 -0.1527,-0.1253 -0.1743,-0.0931 -0.189,-0.0574 -0.1966,-0.0194 v 0 l -0.1966,0.0194 -0.0823,0.025 -0.1068,0.0324 v 0 0 l -0.0865,0.0462 -0.0877,0.0469 v 0 0 l -0.1527,0.1253 -0.1253,0.1527 -0.0931,0.1742 v 0 0 l -0.0574,0.1891 -0.0194,0.1966 h -0.5244 l -0.0194,-0.1966 -0.0574,-0.1891 -0.0931,-0.1742 -0.1253,-0.1527 -0.1527,-0.1253 -0.1743,-0.0931 -0.189,-0.0574 -0.1966,-0.0194 v 0 l -0.1966,0.0194 -0.0823,0.025 -0.1068,0.0324 v 0 0 l -0.0865,0.0462 -0.0877,0.0469 v 0 0 l -0.1527,0.1253 -0.1253,0.1527 -0.0931,0.1742 v 0 0 l -0.0574,0.1891 -0.0194,0.1966 h -0.5244 l -0.0194,-0.1966 -0.0574,-0.1891 -0.0931,-0.1742 -0.1253,-0.1527 -0.1527,-0.1253 -0.1743,-0.0931 -0.189,-0.0574 -0.1966,-0.0194 v 0 l -0.1966,0.0194 -0.0823,0.025 -0.1068,0.0324 v 0 0 l -0.0865,0.0462 -0.0877,0.0469 v 0 0 l -0.1527,0.1253 -0.1253,0.1527 -0.0931,0.1742 v 0 0 l -0.0574,0.1891 -0.0194,0.1966 h -1.0322 v -0.0658 l -0.0232,-0.0866 h 0.6178 l -0.005,-0.0513 h -1e-4 l -0.0559,-0.1968 -0.0912,-0.1832 v 0 l -0.1233,-0.1632 v 0 l -0.1512,-0.1379 -0.174,-0.1077 -0.1908,-0.0739 -0.151,-0.0282 v 0.6178 L 132.0069,91.55 h -0.1316 l -0.0866,0.0232 v -0.6178 0 l -0.151,0.0282 -0.1908,0.0739 -0.174,0.1077 -0.1512,0.1379 v 0 l -0.1233,0.1632 v 0 l -0.0912,0.1832 -0.056,0.1968 v 0 l -0.005,0.0513 h -4.6454 v -1.5433 l 0.0146,-0.0352 0.0352,-0.0146 h 29.9993 z"
       id="path4696" />
  </g>
</svg>
