<?xml version="1.0" standalone="no"?>
 <!DOCTYPE svg PUBLIC "-//W3C//DTD SVG 1.1//EN" 
 "http://www.w3.org/Graphics/SVG/1.1/DTD/svg11.dtd"> 
<svg
  xmlns:svg="http://www.w3.org/2000/svg"
  xmlns="http://www.w3.org/2000/svg"
  xmlns:xlink="http://www.w3.org/1999/xlink"
  version="1.1"
  width="297.0022mm" height="210.0072mm" viewBox="0.0000 0.0000 297.0022 210.0072">
<title>SVG Image created as max2771_fx2lp-F_Mask.svg date 2024/06/12 18:04:56 </title>
  <desc>Image generated by PCBNEW </desc>
<g style="fill:#000000; fill-opacity:1.0000;stroke:#000000; stroke-opacity:1.0000;
stroke-linecap:round; stroke-linejoin:round;"
 transform="translate(0 0) scale(1 1)">
<path style="fill:#000000; fill-opacity:1.0000; stroke:none;fill-rule:evenodd;"
d="M 152.0011,114.8500
152.0011,112.8500
154.0011,112.8500
154.0011,114.8500
Z" /> 
<path style="fill:#000000; fill-opacity:1.0000; stroke:none;fill-rule:evenodd;"
d="M 152.0011,110.3500
152.0011,108.3500
154.0011,108.3500
154.0011,110.3500
Z" /> 
<path style="fill:#000000; fill-opacity:1.0000; stroke:none;fill-rule:evenodd;"
d="M 147.1269,112.0500
147.1230,112.0694
147.1120,112.0859
147.0955,112.0969
147.0761,112.1008
146.6261,112.1008
146.6067,112.0969
146.5902,112.0859
146.5792,112.0694
146.5753,112.0500
146.5753,111.4500
146.5792,111.4306
146.5902,111.4141
146.6067,111.4031
146.6261,111.3992
147.0761,111.3992
147.0955,111.4031
147.1120,111.4141
147.1230,111.4306
147.1269,111.4500
Z" /> 
<path style="fill:#000000; fill-opacity:1.0000; stroke:none;fill-rule:evenodd;"
d="M 146.1269,112.0500
146.1230,112.0694
146.1120,112.0859
146.0955,112.0969
146.0761,112.1008
145.6261,112.1008
145.6067,112.0969
145.5902,112.0859
145.5792,112.0694
145.5753,112.0500
145.5753,111.4500
145.5792,111.4306
145.5902,111.4141
145.6067,111.4031
145.6261,111.3992
146.0761,111.3992
146.0955,111.4031
146.1120,111.4141
146.1230,111.4306
146.1269,111.4500
Z" /> 
<path style="fill:#000000; fill-opacity:1.0000; stroke:none;fill-rule:evenodd;"
d="M 137.6253,112.6500
137.6292,112.6306
137.6402,112.6141
137.6567,112.6031
137.6761,112.5992
138.1261,112.5992
138.1455,112.6031
138.1620,112.6141
138.1730,112.6306
138.1769,112.6500
138.1769,113.2500
138.1730,113.2694
138.1620,113.2859
138.1455,113.2969
138.1261,113.3008
137.6761,113.3008
137.6567,113.2969
137.6402,113.2859
137.6292,113.2694
137.6253,113.2500
Z" /> 
<path style="fill:#000000; fill-opacity:1.0000; stroke:none;fill-rule:evenodd;"
d="M 138.6253,112.6500
138.6292,112.6306
138.6402,112.6141
138.6567,112.6031
138.6761,112.5992
139.1261,112.5992
139.1455,112.6031
139.1620,112.6141
139.1730,112.6306
139.1769,112.6500
139.1769,113.2500
139.1730,113.2694
139.1620,113.2859
139.1455,113.2969
139.1261,113.3008
138.6761,113.3008
138.6567,113.2969
138.6402,113.2859
138.6292,113.2694
138.6253,113.2500
Z" /> 
<path style="fill:#000000; fill-opacity:1.0000; stroke:none;fill-rule:evenodd;"
d="M 135.9769,107.2000
135.9730,107.2194
135.9620,107.2359
135.9455,107.2469
135.9261,107.2508
135.4761,107.2508
135.4567,107.2469
135.4402,107.2359
135.4292,107.2194
135.4253,107.2000
135.4253,106.6000
135.4292,106.5806
135.4402,106.5641
135.4567,106.5531
135.4761,106.5492
135.9261,106.5492
135.9455,106.5531
135.9620,106.5641
135.9730,106.5806
135.9769,106.6000
Z" /> 
<path style="fill:#000000; fill-opacity:1.0000; stroke:none;fill-rule:evenodd;"
d="M 134.9769,107.2000
134.9730,107.2194
134.9620,107.2359
134.9455,107.2469
134.9261,107.2508
134.4761,107.2508
134.4567,107.2469
134.4402,107.2359
134.4292,107.2194
134.4253,107.2000
134.4253,106.6000
134.4292,106.5806
134.4402,106.5641
134.4567,106.5531
134.4761,106.5492
134.9261,106.5492
134.9455,106.5531
134.9620,106.5641
134.9730,106.5806
134.9769,106.6000
Z" /> 
<path style="fill:#000000; fill-opacity:1.0000; stroke:none;fill-rule:evenodd;"
d="M 145.7753,102.2500
145.7792,102.2306
145.7902,102.2141
145.8067,102.2031
145.8261,102.1992
146.2761,102.1992
146.2955,102.2031
146.3120,102.2141
146.3230,102.2306
146.3269,102.2500
146.3269,102.8500
146.3230,102.8694
146.3120,102.8859
146.2955,102.8969
146.2761,102.9008
145.8261,102.9008
145.8067,102.8969
145.7902,102.8859
145.7792,102.8694
145.7753,102.8500
Z" /> 
<path style="fill:#000000; fill-opacity:1.0000; stroke:none;fill-rule:evenodd;"
d="M 146.7753,102.2500
146.7792,102.2306
146.7902,102.2141
146.8067,102.2031
146.8261,102.1992
147.2761,102.1992
147.2955,102.2031
147.3120,102.2141
147.3230,102.2306
147.3269,102.2500
147.3269,102.8500
147.3230,102.8694
147.3120,102.8859
147.2955,102.8969
147.2761,102.9008
146.8261,102.9008
146.8067,102.8969
146.7902,102.8859
146.7792,102.8694
146.7753,102.8500
Z" /> 
<path style="fill:#000000; fill-opacity:1.0000; stroke:none;fill-rule:evenodd;"
d="M 126.1520,94.1400
126.1559,94.1206
126.1669,94.1041
126.1834,94.0931
126.2028,94.0892
130.2028,94.0892
130.2223,94.0931
130.2388,94.1041
130.2498,94.1206
130.2536,94.1400
130.2536,95.1400
130.2498,95.1594
130.2388,95.1759
130.2223,95.1869
130.2028,95.1908
126.2028,95.1908
126.1834,95.1869
126.1669,95.1759
126.1559,95.1594
126.1520,95.1400
Z" /> 
<path style="fill:#000000; fill-opacity:1.0000; stroke:none;fill-rule:evenodd;"
d="M 126.1520,96.8900
126.1559,96.8706
126.1669,96.8541
126.1834,96.8431
126.2028,96.8392
130.2028,96.8392
130.2223,96.8431
130.2388,96.8541
130.2498,96.8706
130.2536,96.8900
130.2536,97.8900
130.2498,97.9094
130.2388,97.9259
130.2223,97.9369
130.2028,97.9408
126.2028,97.9408
126.1834,97.9369
126.1669,97.9259
126.1559,97.9094
126.1520,97.8900
Z" /> 
<path style="fill:#000000; fill-opacity:1.0000; stroke:none;fill-rule:evenodd;"
d="M 126.1520,91.3900
126.1559,91.3706
126.1669,91.3541
126.1834,91.3431
126.2028,91.3392
130.2028,91.3392
130.2223,91.3431
130.2388,91.3541
130.2498,91.3706
130.2536,91.3900
130.2536,92.3900
130.2498,92.4094
130.2388,92.4259
130.2223,92.4369
130.2028,92.4408
126.2028,92.4408
126.1834,92.4369
126.1669,92.4259
126.1559,92.4094
126.1520,92.3900
Z" /> 
<path style="fill:#000000; fill-opacity:1.0000; stroke:none;fill-rule:evenodd;"
d="M 144.0769,104.0000
144.0730,104.0194
144.0620,104.0359
144.0455,104.0469
144.0261,104.0508
143.5761,104.0508
143.5567,104.0469
143.5402,104.0359
143.5292,104.0194
143.5253,104.0000
143.5253,103.4000
143.5292,103.3806
143.5402,103.3641
143.5567,103.3531
143.5761,103.3492
144.0261,103.3492
144.0455,103.3531
144.0620,103.3641
144.0730,103.3806
144.0769,103.4000
Z" /> 
<path style="fill:#000000; fill-opacity:1.0000; stroke:none;fill-rule:evenodd;"
d="M 143.0769,104.0000
143.0730,104.0194
143.0620,104.0359
143.0455,104.0469
143.0261,104.0508
142.5761,104.0508
142.5567,104.0469
142.5402,104.0359
142.5292,104.0194
142.5253,104.0000
142.5253,103.4000
142.5292,103.3806
142.5402,103.3641
142.5567,103.3531
142.5761,103.3492
143.0261,103.3492
143.0455,103.3531
143.0620,103.3641
143.0730,103.3806
143.0769,103.4000
Z" /> 
<path style="fill:#000000; fill-opacity:1.0000; stroke:none;fill-rule:evenodd;"
d="M 140.3753,112.6500
140.3792,112.6306
140.3902,112.6141
140.4067,112.6031
140.4261,112.5992
140.8761,112.5992
140.8955,112.6031
140.9120,112.6141
140.9230,112.6306
140.9269,112.6500
140.9269,113.2500
140.9230,113.2694
140.9120,113.2859
140.8955,113.2969
140.8761,113.3008
140.4261,113.3008
140.4067,113.2969
140.3902,113.2859
140.3792,113.2694
140.3753,113.2500
Z" /> 
<path style="fill:#000000; fill-opacity:1.0000; stroke:none;fill-rule:evenodd;"
d="M 141.3753,112.6500
141.3792,112.6306
141.3902,112.6141
141.4067,112.6031
141.4261,112.5992
141.8761,112.5992
141.8955,112.6031
141.9120,112.6141
141.9230,112.6306
141.9269,112.6500
141.9269,113.2500
141.9230,113.2694
141.9120,113.2859
141.8955,113.2969
141.8761,113.3008
141.4261,113.3008
141.4067,113.2969
141.3902,113.2859
141.3792,113.2694
141.3753,113.2500
Z" /> 
<path style="fill:#000000; fill-opacity:1.0000; stroke:none;fill-rule:evenodd;"
d="M 142.5253,102.2500
142.5292,102.2306
142.5402,102.2141
142.5567,102.2031
142.5761,102.1992
143.0261,102.1992
143.0455,102.2031
143.0620,102.2141
143.0730,102.2306
143.0769,102.2500
143.0769,102.8500
143.0730,102.8694
143.0620,102.8859
143.0455,102.8969
143.0261,102.9008
142.5761,102.9008
142.5567,102.8969
142.5402,102.8859
142.5292,102.8694
142.5253,102.8500
Z" /> 
<path style="fill:#000000; fill-opacity:1.0000; stroke:none;fill-rule:evenodd;"
d="M 143.5253,102.2500
143.5292,102.2306
143.5402,102.2141
143.5567,102.2031
143.5761,102.1992
144.0261,102.1992
144.0455,102.2031
144.0620,102.2141
144.0730,102.2306
144.0769,102.2500
144.0769,102.8500
144.0730,102.8694
144.0620,102.8859
144.0455,102.8969
144.0261,102.9008
143.5761,102.9008
143.5567,102.8969
143.5402,102.8859
143.5292,102.8694
143.5253,102.8500
Z" /> 
<path style="fill:#000000; fill-opacity:1.0000; stroke:none;fill-rule:evenodd;"
d="M 137.1769,113.2500
137.1730,113.2694
137.1620,113.2859
137.1455,113.2969
137.1261,113.3008
136.6761,113.3008
136.6567,113.2969
136.6402,113.2859
136.6292,113.2694
136.6253,113.2500
136.6253,112.6500
136.6292,112.6306
136.6402,112.6141
136.6567,112.6031
136.6761,112.5992
137.1261,112.5992
137.1455,112.6031
137.1620,112.6141
137.1730,112.6306
137.1769,112.6500
Z" /> 
<path style="fill:#000000; fill-opacity:1.0000; stroke:none;fill-rule:evenodd;"
d="M 136.1769,113.2500
136.1730,113.2694
136.1620,113.2859
136.1455,113.2969
136.1261,113.3008
135.6761,113.3008
135.6567,113.2969
135.6402,113.2859
135.6292,113.2694
135.6253,113.2500
135.6253,112.6500
135.6292,112.6306
135.6402,112.6141
135.6567,112.6031
135.6761,112.5992
136.1261,112.5992
136.1455,112.6031
136.1620,112.6141
136.1730,112.6306
136.1769,112.6500
Z" /> 
<path style="fill:#000000; fill-opacity:1.0000; stroke:none;fill-rule:evenodd;"
d="M 142.4253,104.5500
142.4292,104.5306
142.4402,104.5141
142.4567,104.5031
142.4761,104.4992
142.9261,104.4992
142.9455,104.5031
142.9620,104.5141
142.9730,104.5306
142.9769,104.5500
142.9769,105.1500
142.9730,105.1694
142.9620,105.1859
142.9455,105.1969
142.9261,105.2008
142.4761,105.2008
142.4567,105.1969
142.4402,105.1859
142.4292,105.1694
142.4253,105.1500
Z" /> 
<path style="fill:#000000; fill-opacity:1.0000; stroke:none;fill-rule:evenodd;"
d="M 143.4253,104.5500
143.4292,104.5306
143.4402,104.5141
143.4567,104.5031
143.4761,104.4992
143.9261,104.4992
143.9455,104.5031
143.9620,104.5141
143.9730,104.5306
143.9769,104.5500
143.9769,105.1500
143.9730,105.1694
143.9620,105.1859
143.9455,105.1969
143.9261,105.2008
143.4761,105.2008
143.4567,105.1969
143.4402,105.1859
143.4292,105.1694
143.4253,105.1500
Z" /> 
<path style="fill:#000000; fill-opacity:1.0000; stroke:none;fill-rule:evenodd;"
d="M 145.0011,103.2742
145.0205,103.2781
145.0370,103.2891
145.0480,103.3056
145.0519,103.3250
145.0519,103.7750
145.0480,103.7944
145.0370,103.8109
145.0205,103.8219
145.0011,103.8258
144.4011,103.8258
144.3817,103.8219
144.3652,103.8109
144.3542,103.7944
144.3503,103.7750
144.3503,103.3250
144.3542,103.3056
144.3652,103.2891
144.3817,103.2781
144.4011,103.2742
Z" /> 
<path style="fill:#000000; fill-opacity:1.0000; stroke:none;fill-rule:evenodd;"
d="M 145.0011,104.2742
145.0205,104.2781
145.0370,104.2891
145.0480,104.3056
145.0519,104.3250
145.0519,104.7750
145.0480,104.7944
145.0370,104.8109
145.0205,104.8219
145.0011,104.8258
144.4011,104.8258
144.3817,104.8219
144.3652,104.8109
144.3542,104.7944
144.3503,104.7750
144.3503,104.3250
144.3542,104.3056
144.3652,104.2891
144.3817,104.2781
144.4011,104.2742
Z" /> 
<path style="fill:#000000; fill-opacity:1.0000; stroke:none;fill-rule:evenodd;"
d="M 147.6019,101.9500
147.5980,101.9694
147.5870,101.9859
147.5705,101.9969
147.5511,102.0008
146.6511,102.0008
146.6317,101.9969
146.6152,101.9859
146.6042,101.9694
146.6003,101.9500
146.6003,100.9500
146.6042,100.9306
146.6152,100.9141
146.6317,100.9031
146.6511,100.8992
147.5511,100.8992
147.5705,100.9031
147.5870,100.9141
147.5980,100.9306
147.6019,100.9500
Z" /> 
<path style="fill:#000000; fill-opacity:1.0000; stroke:none;fill-rule:evenodd;"
d="M 147.6019,99.5500
147.5980,99.5694
147.5870,99.5859
147.5705,99.5969
147.5511,99.6008
146.6511,99.6008
146.6317,99.5969
146.6152,99.5859
146.6042,99.5694
146.6003,99.5500
146.6003,98.5500
146.6042,98.5306
146.6152,98.5141
146.6317,98.5031
146.6511,98.4992
147.5511,98.4992
147.5705,98.5031
147.5870,98.5141
147.5980,98.5306
147.6019,98.5500
Z" /> 
<path style="fill:#000000; fill-opacity:1.0000; stroke:none;fill-rule:evenodd;"
d="M 145.8019,99.5500
145.7980,99.5694
145.7870,99.5859
145.7705,99.5969
145.7511,99.6008
144.8511,99.6008
144.8317,99.5969
144.8152,99.5859
144.8042,99.5694
144.8003,99.5500
144.8003,98.5500
144.8042,98.5306
144.8152,98.5141
144.8317,98.5031
144.8511,98.4992
145.7511,98.4992
145.7705,98.5031
145.7870,98.5141
145.7980,98.5306
145.8019,98.5500
Z" /> 
<path style="fill:#000000; fill-opacity:1.0000; stroke:none;fill-rule:evenodd;"
d="M 145.8019,101.9500
145.7980,101.9694
145.7870,101.9859
145.7705,101.9969
145.7511,102.0008
144.8511,102.0008
144.8317,101.9969
144.8152,101.9859
144.8042,101.9694
144.8003,101.9500
144.8003,100.9500
144.8042,100.9306
144.8152,100.9141
144.8317,100.9031
144.8511,100.8992
145.7511,100.8992
145.7705,100.9031
145.7870,100.9141
145.7980,100.9306
145.8019,100.9500
Z" /> 
<path style="fill:#000000; fill-opacity:1.0000; stroke:none;fill-rule:evenodd;"
d="M 153.9111,121.7000
155.6111,121.7000
155.6111,123.4000
153.9111,123.4000
Z" /> 
</g>
<g style="fill:#000000; fill-opacity:1.0000; stroke:none;">
<circle cx="154.7611" cy="120.0100" r="0.8500" /> 
<circle cx="152.2211" cy="122.5500" r="0.8500" /> 
<circle cx="152.2211" cy="120.0100" r="0.8500" /> 
<circle cx="149.6811" cy="122.5500" r="0.8500" /> 
<circle cx="149.6811" cy="120.0100" r="0.8500" /> 
<circle cx="147.1411" cy="122.5500" r="0.8500" /> 
<circle cx="147.1411" cy="120.0100" r="0.8500" /> 
<circle cx="144.6011" cy="122.5500" r="0.8500" /> 
<circle cx="144.6011" cy="120.0100" r="0.8500" /> 
<circle cx="142.0611" cy="122.5500" r="0.8500" /> 
<circle cx="142.0611" cy="120.0100" r="0.8500" /> 
<circle cx="139.5211" cy="122.5500" r="0.8500" /> 
<circle cx="139.5211" cy="120.0100" r="0.8500" /> 
<circle cx="136.9811" cy="122.5500" r="0.8500" /> 
<circle cx="136.9811" cy="120.0100" r="0.8500" /> 
<circle cx="134.4411" cy="122.5500" r="0.8500" /> 
<circle cx="134.4411" cy="120.0100" r="0.8500" /> 
<circle cx="131.9011" cy="122.5500" r="0.8500" /> 
<circle cx="131.9011" cy="120.0100" r="0.8500" /> 
<path style="fill:#000000; fill-opacity:1.0000; stroke:none;fill-rule:evenodd;"
d="M 144.3269,113.2500
144.3230,113.2694
144.3120,113.2859
144.2955,113.2969
144.2761,113.3008
143.8261,113.3008
143.8067,113.2969
143.7902,113.2859
143.7792,113.2694
143.7753,113.2500
143.7753,112.6500
143.7792,112.6306
143.7902,112.6141
143.8067,112.6031
143.8261,112.5992
144.2761,112.5992
144.2955,112.6031
144.3120,112.6141
144.3230,112.6306
144.3269,112.6500
Z" /> 
<path style="fill:#000000; fill-opacity:1.0000; stroke:none;fill-rule:evenodd;"
d="M 143.3269,113.2500
143.3230,113.2694
143.3120,113.2859
143.2955,113.2969
143.2761,113.3008
142.8261,113.3008
142.8067,113.2969
142.7902,113.2859
142.7792,113.2694
142.7753,113.2500
142.7753,112.6500
142.7792,112.6306
142.7902,112.6141
142.8067,112.6031
142.8261,112.5992
143.2761,112.5992
143.2955,112.6031
143.3120,112.6141
143.3230,112.6306
143.3269,112.6500
Z" /> 
<path style="fill:#000000; fill-opacity:1.0000; stroke:none;fill-rule:evenodd;"
d="M 134.1011,102.3758
134.0817,102.3719
134.0652,102.3609
134.0542,102.3444
134.0503,102.3250
134.0503,101.8750
134.0542,101.8556
134.0652,101.8391
134.0817,101.8281
134.1011,101.8242
134.7011,101.8242
134.7205,101.8281
134.7370,101.8391
134.7480,101.8556
134.7519,101.8750
134.7519,102.3250
134.7480,102.3444
134.7370,102.3609
134.7205,102.3719
134.7011,102.3758
Z" /> 
<path style="fill:#000000; fill-opacity:1.0000; stroke:none;fill-rule:evenodd;"
d="M 134.1011,101.3758
134.0817,101.3719
134.0652,101.3609
134.0542,101.3444
134.0503,101.3250
134.0503,100.8750
134.0542,100.8556
134.0652,100.8391
134.0817,100.8281
134.1011,100.8242
134.7011,100.8242
134.7205,100.8281
134.7370,100.8391
134.7480,100.8556
134.7519,100.8750
134.7519,101.3250
134.7480,101.3444
134.7370,101.3609
134.7205,101.3719
134.7011,101.3758
Z" /> 
<path style="fill:#000000; fill-opacity:1.0000; stroke:none;fill-rule:evenodd;"
d="M 130.5511,107.3400
130.5511,109.0400
128.8511,109.0400
128.8511,107.3400
Z" /> 
<circle cx="129.7011" cy="105.6500" r="0.8500" /> 
<path style="fill:#000000; fill-opacity:1.0000; stroke:none;fill-rule:evenodd;"
d="M 129.1769,113.8500
129.1730,113.8694
129.1620,113.8859
129.1455,113.8969
129.1261,113.9008
128.6761,113.9008
128.6567,113.8969
128.6402,113.8859
128.6292,113.8694
128.6253,113.8500
128.6253,113.2500
128.6292,113.2306
128.6402,113.2141
128.6567,113.2031
128.6761,113.1992
129.1261,113.1992
129.1455,113.2031
129.1620,113.2141
129.1730,113.2306
129.1769,113.2500
Z" /> 
<path style="fill:#000000; fill-opacity:1.0000; stroke:none;fill-rule:evenodd;"
d="M 128.1769,113.8500
128.1730,113.8694
128.1620,113.8859
128.1455,113.8969
128.1261,113.9008
127.6761,113.9008
127.6567,113.8969
127.6402,113.8859
127.6292,113.8694
127.6253,113.8500
127.6253,113.2500
127.6292,113.2306
127.6402,113.2141
127.6567,113.2031
127.6761,113.1992
128.1261,113.1992
128.1455,113.2031
128.1620,113.2141
128.1730,113.2306
128.1769,113.2500
Z" /> 
<path style="fill:#000000; fill-opacity:1.0000; stroke:none;fill-rule:evenodd;"
d="M 141.9253,98.6000
141.9292,98.5806
141.9402,98.5641
141.9567,98.5531
141.9761,98.5492
142.4261,98.5492
142.4455,98.5531
142.4620,98.5641
142.4730,98.5806
142.4769,98.6000
142.4769,99.2000
142.4730,99.2194
142.4620,99.2359
142.4455,99.2469
142.4261,99.2508
141.9761,99.2508
141.9567,99.2469
141.9402,99.2359
141.9292,99.2194
141.9253,99.2000
Z" /> 
<path style="fill:#000000; fill-opacity:1.0000; stroke:none;fill-rule:evenodd;"
d="M 142.9253,98.6000
142.9292,98.5806
142.9402,98.5641
142.9567,98.5531
142.9761,98.5492
143.4261,98.5492
143.4455,98.5531
143.4620,98.5641
143.4730,98.5806
143.4769,98.6000
143.4769,99.2000
143.4730,99.2194
143.4620,99.2359
143.4455,99.2469
143.4261,99.2508
142.9761,99.2508
142.9567,99.2469
142.9402,99.2359
142.9292,99.2194
142.9253,99.2000
Z" /> 
<path style="fill:#000000; fill-opacity:1.0000; stroke:none;fill-rule:evenodd;"
d="M 141.9253,99.7500
141.9292,99.7306
141.9402,99.7141
141.9567,99.7031
141.9761,99.6992
142.4261,99.6992
142.4455,99.7031
142.4620,99.7141
142.4730,99.7306
142.4769,99.7500
142.4769,100.3500
142.4730,100.3694
142.4620,100.3859
142.4455,100.3969
142.4261,100.4008
141.9761,100.4008
141.9567,100.3969
141.9402,100.3859
141.9292,100.3694
141.9253,100.3500
Z" /> 
<path style="fill:#000000; fill-opacity:1.0000; stroke:none;fill-rule:evenodd;"
d="M 142.9253,99.7500
142.9292,99.7306
142.9402,99.7141
142.9567,99.7031
142.9761,99.6992
143.4261,99.6992
143.4455,99.7031
143.4620,99.7141
143.4730,99.7306
143.4769,99.7500
143.4769,100.3500
143.4730,100.3694
143.4620,100.3859
143.4455,100.3969
143.4261,100.4008
142.9761,100.4008
142.9567,100.3969
142.9402,100.3859
142.9292,100.3694
142.9253,100.3500
Z" /> 
<path style="fill:#000000; fill-opacity:1.0000; stroke:none;fill-rule:evenodd;"
d="M 127.7503,115.5500
127.7542,115.5306
127.7652,115.5141
127.7817,115.5031
127.8011,115.4992
128.6011,115.4992
128.6205,115.5031
128.6370,115.5141
128.6480,115.5306
128.6519,115.5500
128.6519,116.3500
128.6480,116.3694
128.6370,116.3859
128.6205,116.3969
128.6011,116.4008
127.8011,116.4008
127.7817,116.3969
127.7652,116.3859
127.7542,116.3694
127.7503,116.3500
Z" /> 
<path style="fill:#000000; fill-opacity:1.0000; stroke:none;fill-rule:evenodd;"
d="M 129.3503,115.5500
129.3542,115.5306
129.3652,115.5141
129.3817,115.5031
129.4011,115.4992
130.2011,115.4992
130.2205,115.5031
130.2370,115.5141
130.2480,115.5306
130.2519,115.5500
130.2519,116.3500
130.2480,116.3694
130.2370,116.3859
130.2205,116.3969
130.2011,116.4008
129.4011,116.4008
129.3817,116.3969
129.3652,116.3859
129.3542,116.3694
129.3503,116.3500
Z" /> 
<path style="fill:#000000; fill-opacity:1.0000; stroke:none;fill-rule:evenodd;"
d="M 141.2669,104.1800
141.2630,104.1994
141.2520,104.2159
141.2355,104.2269
141.2161,104.2308
140.2661,104.2308
140.2467,104.2269
140.2302,104.2159
140.2192,104.1994
140.2153,104.1800
140.2153,103.9200
140.2192,103.9006
140.2302,103.8841
140.2467,103.8731
140.2661,103.8692
141.2161,103.8692
141.2355,103.8731
141.2520,103.8841
141.2630,103.9006
141.2669,103.9200
Z" /> 
<path style="fill:#000000; fill-opacity:1.0000; stroke:none;fill-rule:evenodd;"
d="M 141.2669,103.6800
141.2630,103.6994
141.2520,103.7159
141.2355,103.7269
141.2161,103.7308
140.2661,103.7308
140.2467,103.7269
140.2302,103.7159
140.2192,103.6994
140.2153,103.6800
140.2153,103.4200
140.2192,103.4006
140.2302,103.3841
140.2467,103.3731
140.2661,103.3692
141.2161,103.3692
141.2355,103.3731
141.2520,103.3841
141.2630,103.4006
141.2669,103.4200
Z" /> 
<path style="fill:#000000; fill-opacity:1.0000; stroke:none;fill-rule:evenodd;"
d="M 141.2669,103.1800
141.2630,103.1994
141.2520,103.2159
141.2355,103.2269
141.2161,103.2308
140.2661,103.2308
140.2467,103.2269
140.2302,103.2159
140.2192,103.1994
140.2153,103.1800
140.2153,102.9200
140.2192,102.9006
140.2302,102.8841
140.2467,102.8731
140.2661,102.8692
141.2161,102.8692
141.2355,102.8731
141.2520,102.8841
141.2630,102.9006
141.2669,102.9200
Z" /> 
<path style="fill:#000000; fill-opacity:1.0000; stroke:none;fill-rule:evenodd;"
d="M 141.2669,102.6800
141.2630,102.6994
141.2520,102.7159
141.2355,102.7269
141.2161,102.7308
140.2661,102.7308
140.2467,102.7269
140.2302,102.7159
140.2192,102.6994
140.2153,102.6800
140.2153,102.4200
140.2192,102.4006
140.2302,102.3841
140.2467,102.3731
140.2661,102.3692
141.2161,102.3692
141.2355,102.3731
141.2520,102.3841
141.2630,102.4006
141.2669,102.4200
Z" /> 
<path style="fill:#000000; fill-opacity:1.0000; stroke:none;fill-rule:evenodd;"
d="M 141.2669,102.1800
141.2630,102.1994
141.2520,102.2159
141.2355,102.2269
141.2161,102.2308
140.2661,102.2308
140.2467,102.2269
140.2302,102.2159
140.2192,102.1994
140.2153,102.1800
140.2153,101.9200
140.2192,101.9006
140.2302,101.8841
140.2467,101.8731
140.2661,101.8692
141.2161,101.8692
141.2355,101.8731
141.2520,101.8841
141.2630,101.9006
141.2669,101.9200
Z" /> 
<path style="fill:#000000; fill-opacity:1.0000; stroke:none;fill-rule:evenodd;"
d="M 141.2669,101.6800
141.2630,101.6994
141.2520,101.7159
141.2355,101.7269
141.2161,101.7308
140.2661,101.7308
140.2467,101.7269
140.2302,101.7159
140.2192,101.6994
140.2153,101.6800
140.2153,101.4200
140.2192,101.4006
140.2302,101.3841
140.2467,101.3731
140.2661,101.3692
141.2161,101.3692
141.2355,101.3731
141.2520,101.3841
141.2630,101.4006
141.2669,101.4200
Z" /> 
<path style="fill:#000000; fill-opacity:1.0000; stroke:none;fill-rule:evenodd;"
d="M 141.2669,101.1800
141.2630,101.1994
141.2520,101.2159
141.2355,101.2269
141.2161,101.2308
140.2661,101.2308
140.2467,101.2269
140.2302,101.2159
140.2192,101.1994
140.2153,101.1800
140.2153,100.9200
140.2192,100.9006
140.2302,100.8841
140.2467,100.8731
140.2661,100.8692
141.2161,100.8692
141.2355,100.8731
141.2520,100.8841
141.2630,100.9006
141.2669,100.9200
Z" /> 
<path style="fill:#000000; fill-opacity:1.0000; stroke:none;fill-rule:evenodd;"
d="M 139.7711,100.7358
139.7517,100.7319
139.7352,100.7209
139.7242,100.7044
139.7203,100.6850
139.7203,99.7350
139.7242,99.7156
139.7352,99.6991
139.7517,99.6881
139.7711,99.6842
140.0311,99.6842
140.0505,99.6881
140.0670,99.6991
140.0780,99.7156
140.0819,99.7350
140.0819,100.6850
140.0780,100.7044
140.0670,100.7209
140.0505,100.7319
140.0311,100.7358
Z" /> 
<path style="fill:#000000; fill-opacity:1.0000; stroke:none;fill-rule:evenodd;"
d="M 139.2711,100.7358
139.2517,100.7319
139.2352,100.7209
139.2242,100.7044
139.2203,100.6850
139.2203,99.7350
139.2242,99.7156
139.2352,99.6991
139.2517,99.6881
139.2711,99.6842
139.5311,99.6842
139.5505,99.6881
139.5670,99.6991
139.5780,99.7156
139.5819,99.7350
139.5819,100.6850
139.5780,100.7044
139.5670,100.7209
139.5505,100.7319
139.5311,100.7358
Z" /> 
<path style="fill:#000000; fill-opacity:1.0000; stroke:none;fill-rule:evenodd;"
d="M 138.7711,100.7358
138.7517,100.7319
138.7352,100.7209
138.7242,100.7044
138.7203,100.6850
138.7203,99.7350
138.7242,99.7156
138.7352,99.6991
138.7517,99.6881
138.7711,99.6842
139.0311,99.6842
139.0505,99.6881
139.0670,99.6991
139.0780,99.7156
139.0819,99.7350
139.0819,100.6850
139.0780,100.7044
139.0670,100.7209
139.0505,100.7319
139.0311,100.7358
Z" /> 
<path style="fill:#000000; fill-opacity:1.0000; stroke:none;fill-rule:evenodd;"
d="M 138.2711,100.7358
138.2517,100.7319
138.2352,100.7209
138.2242,100.7044
138.2203,100.6850
138.2203,99.7350
138.2242,99.7156
138.2352,99.6991
138.2517,99.6881
138.2711,99.6842
138.5311,99.6842
138.5505,99.6881
138.5670,99.6991
138.5780,99.7156
138.5819,99.7350
138.5819,100.6850
138.5780,100.7044
138.5670,100.7209
138.5505,100.7319
138.5311,100.7358
Z" /> 
<path style="fill:#000000; fill-opacity:1.0000; stroke:none;fill-rule:evenodd;"
d="M 137.7711,100.7358
137.7517,100.7319
137.7352,100.7209
137.7242,100.7044
137.7203,100.6850
137.7203,99.7350
137.7242,99.7156
137.7352,99.6991
137.7517,99.6881
137.7711,99.6842
138.0311,99.6842
138.0505,99.6881
138.0670,99.6991
138.0780,99.7156
138.0819,99.7350
138.0819,100.6850
138.0780,100.7044
138.0670,100.7209
138.0505,100.7319
138.0311,100.7358
Z" /> 
<path style="fill:#000000; fill-opacity:1.0000; stroke:none;fill-rule:evenodd;"
d="M 137.2711,100.7358
137.2517,100.7319
137.2352,100.7209
137.2242,100.7044
137.2203,100.6850
137.2203,99.7350
137.2242,99.7156
137.2352,99.6991
137.2517,99.6881
137.2711,99.6842
137.5311,99.6842
137.5505,99.6881
137.5670,99.6991
137.5780,99.7156
137.5819,99.7350
137.5819,100.6850
137.5780,100.7044
137.5670,100.7209
137.5505,100.7319
137.5311,100.7358
Z" /> 
<path style="fill:#000000; fill-opacity:1.0000; stroke:none;fill-rule:evenodd;"
d="M 136.7711,100.7358
136.7517,100.7319
136.7352,100.7209
136.7242,100.7044
136.7203,100.6850
136.7203,99.7350
136.7242,99.7156
136.7352,99.6991
136.7517,99.6881
136.7711,99.6842
137.0311,99.6842
137.0505,99.6881
137.0670,99.6991
137.0780,99.7156
137.0819,99.7350
137.0819,100.6850
137.0780,100.7044
137.0670,100.7209
137.0505,100.7319
137.0311,100.7358
Z" /> 
<path style="fill:#000000; fill-opacity:1.0000; stroke:none;fill-rule:evenodd;"
d="M 136.5869,101.1800
136.5830,101.1994
136.5720,101.2159
136.5555,101.2269
136.5361,101.2308
135.5861,101.2308
135.5667,101.2269
135.5502,101.2159
135.5392,101.1994
135.5353,101.1800
135.5353,100.9200
135.5392,100.9006
135.5502,100.8841
135.5667,100.8731
135.5861,100.8692
136.5361,100.8692
136.5555,100.8731
136.5720,100.8841
136.5830,100.9006
136.5869,100.9200
Z" /> 
<path style="fill:#000000; fill-opacity:1.0000; stroke:none;fill-rule:evenodd;"
d="M 136.5869,101.6800
136.5830,101.6994
136.5720,101.7159
136.5555,101.7269
136.5361,101.7308
135.5861,101.7308
135.5667,101.7269
135.5502,101.7159
135.5392,101.6994
135.5353,101.6800
135.5353,101.4200
135.5392,101.4006
135.5502,101.3841
135.5667,101.3731
135.5861,101.3692
136.5361,101.3692
136.5555,101.3731
136.5720,101.3841
136.5830,101.4006
136.5869,101.4200
Z" /> 
<path style="fill:#000000; fill-opacity:1.0000; stroke:none;fill-rule:evenodd;"
d="M 136.5869,102.1800
136.5830,102.1994
136.5720,102.2159
136.5555,102.2269
136.5361,102.2308
135.5861,102.2308
135.5667,102.2269
135.5502,102.2159
135.5392,102.1994
135.5353,102.1800
135.5353,101.9200
135.5392,101.9006
135.5502,101.8841
135.5667,101.8731
135.5861,101.8692
136.5361,101.8692
136.5555,101.8731
136.5720,101.8841
136.5830,101.9006
136.5869,101.9200
Z" /> 
<path style="fill:#000000; fill-opacity:1.0000; stroke:none;fill-rule:evenodd;"
d="M 136.5869,102.6800
136.5830,102.6994
136.5720,102.7159
136.5555,102.7269
136.5361,102.7308
135.5861,102.7308
135.5667,102.7269
135.5502,102.7159
135.5392,102.6994
135.5353,102.6800
135.5353,102.4200
135.5392,102.4006
135.5502,102.3841
135.5667,102.3731
135.5861,102.3692
136.5361,102.3692
136.5555,102.3731
136.5720,102.3841
136.5830,102.4006
136.5869,102.4200
Z" /> 
<path style="fill:#000000; fill-opacity:1.0000; stroke:none;fill-rule:evenodd;"
d="M 136.5869,103.1800
136.5830,103.1994
136.5720,103.2159
136.5555,103.2269
136.5361,103.2308
135.5861,103.2308
135.5667,103.2269
135.5502,103.2159
135.5392,103.1994
135.5353,103.1800
135.5353,102.9200
135.5392,102.9006
135.5502,102.8841
135.5667,102.8731
135.5861,102.8692
136.5361,102.8692
136.5555,102.8731
136.5720,102.8841
136.5830,102.9006
136.5869,102.9200
Z" /> 
<path style="fill:#000000; fill-opacity:1.0000; stroke:none;fill-rule:evenodd;"
d="M 136.5869,103.6800
136.5830,103.6994
136.5720,103.7159
136.5555,103.7269
136.5361,103.7308
135.5861,103.7308
135.5667,103.7269
135.5502,103.7159
135.5392,103.6994
135.5353,103.6800
135.5353,103.4200
135.5392,103.4006
135.5502,103.3841
135.5667,103.3731
135.5861,103.3692
136.5361,103.3692
136.5555,103.3731
136.5720,103.3841
136.5830,103.4006
136.5869,103.4200
Z" /> 
<path style="fill:#000000; fill-opacity:1.0000; stroke:none;fill-rule:evenodd;"
d="M 136.5869,104.1800
136.5830,104.1994
136.5720,104.2159
136.5555,104.2269
136.5361,104.2308
135.5861,104.2308
135.5667,104.2269
135.5502,104.2159
135.5392,104.1994
135.5353,104.1800
135.5353,103.9200
135.5392,103.9006
135.5502,103.8841
135.5667,103.8731
135.5861,103.8692
136.5361,103.8692
136.5555,103.8731
136.5720,103.8841
136.5830,103.9006
136.5869,103.9200
Z" /> 
<path style="fill:#000000; fill-opacity:1.0000; stroke:none;fill-rule:evenodd;"
d="M 136.7711,105.4158
136.7517,105.4119
136.7352,105.4009
136.7242,105.3844
136.7203,105.3650
136.7203,104.4150
136.7242,104.3956
136.7352,104.3791
136.7517,104.3681
136.7711,104.3642
137.0311,104.3642
137.0505,104.3681
137.0670,104.3791
137.0780,104.3956
137.0819,104.4150
137.0819,105.3650
137.0780,105.3844
137.0670,105.4009
137.0505,105.4119
137.0311,105.4158
Z" /> 
<path style="fill:#000000; fill-opacity:1.0000; stroke:none;fill-rule:evenodd;"
d="M 137.2711,105.4158
137.2517,105.4119
137.2352,105.4009
137.2242,105.3844
137.2203,105.3650
137.2203,104.4150
137.2242,104.3956
137.2352,104.3791
137.2517,104.3681
137.2711,104.3642
137.5311,104.3642
137.5505,104.3681
137.5670,104.3791
137.5780,104.3956
137.5819,104.4150
137.5819,105.3650
137.5780,105.3844
137.5670,105.4009
137.5505,105.4119
137.5311,105.4158
Z" /> 
<path style="fill:#000000; fill-opacity:1.0000; stroke:none;fill-rule:evenodd;"
d="M 137.7711,105.4158
137.7517,105.4119
137.7352,105.4009
137.7242,105.3844
137.7203,105.3650
137.7203,104.4150
137.7242,104.3956
137.7352,104.3791
137.7517,104.3681
137.7711,104.3642
138.0311,104.3642
138.0505,104.3681
138.0670,104.3791
138.0780,104.3956
138.0819,104.4150
138.0819,105.3650
138.0780,105.3844
138.0670,105.4009
138.0505,105.4119
138.0311,105.4158
Z" /> 
<path style="fill:#000000; fill-opacity:1.0000; stroke:none;fill-rule:evenodd;"
d="M 138.2711,105.4158
138.2517,105.4119
138.2352,105.4009
138.2242,105.3844
138.2203,105.3650
138.2203,104.4150
138.2242,104.3956
138.2352,104.3791
138.2517,104.3681
138.2711,104.3642
138.5311,104.3642
138.5505,104.3681
138.5670,104.3791
138.5780,104.3956
138.5819,104.4150
138.5819,105.3650
138.5780,105.3844
138.5670,105.4009
138.5505,105.4119
138.5311,105.4158
Z" /> 
<path style="fill:#000000; fill-opacity:1.0000; stroke:none;fill-rule:evenodd;"
d="M 138.7711,105.4158
138.7517,105.4119
138.7352,105.4009
138.7242,105.3844
138.7203,105.3650
138.7203,104.4150
138.7242,104.3956
138.7352,104.3791
138.7517,104.3681
138.7711,104.3642
139.0311,104.3642
139.0505,104.3681
139.0670,104.3791
139.0780,104.3956
139.0819,104.4150
139.0819,105.3650
139.0780,105.3844
139.0670,105.4009
139.0505,105.4119
139.0311,105.4158
Z" /> 
<path style="fill:#000000; fill-opacity:1.0000; stroke:none;fill-rule:evenodd;"
d="M 139.2711,105.4158
139.2517,105.4119
139.2352,105.4009
139.2242,105.3844
139.2203,105.3650
139.2203,104.4150
139.2242,104.3956
139.2352,104.3791
139.2517,104.3681
139.2711,104.3642
139.5311,104.3642
139.5505,104.3681
139.5670,104.3791
139.5780,104.3956
139.5819,104.4150
139.5819,105.3650
139.5780,105.3844
139.5670,105.4009
139.5505,105.4119
139.5311,105.4158
Z" /> 
<path style="fill:#000000; fill-opacity:1.0000; stroke:none;fill-rule:evenodd;"
d="M 139.7711,105.4158
139.7517,105.4119
139.7352,105.4009
139.7242,105.3844
139.7203,105.3650
139.7203,104.4150
139.7242,104.3956
139.7352,104.3791
139.7517,104.3681
139.7711,104.3642
140.0311,104.3642
140.0505,104.3681
140.0670,104.3791
140.0780,104.3956
140.0819,104.4150
140.0819,105.3650
140.0780,105.3844
140.0670,105.4009
140.0505,105.4119
140.0311,105.4158
Z" /> 
<path style="fill:#000000; fill-opacity:1.0000; stroke:none;fill-rule:evenodd;"
d="M 136.7761,104.2258
136.7567,104.2219
136.7402,104.2109
136.7292,104.1944
136.7253,104.1750
136.7253,100.9250
136.7292,100.9056
136.7402,100.8891
136.7567,100.8781
136.7761,100.8742
140.0261,100.8742
140.0455,100.8781
140.0620,100.8891
140.0730,100.9056
140.0769,100.9250
140.0769,104.1750
140.0730,104.1944
140.0620,104.2109
140.0455,104.2219
140.0261,104.2258
Z" /> 
<path style="fill:#000000; fill-opacity:1.0000; stroke:none;fill-rule:evenodd;"
d="M 144.2669,111.0800
144.2630,111.0994
144.2520,111.1159
144.2355,111.1269
144.2161,111.1308
143.2661,111.1308
143.2467,111.1269
143.2302,111.1159
143.2192,111.0994
143.2153,111.0800
143.2153,110.8200
143.2192,110.8006
143.2302,110.7841
143.2467,110.7731
143.2661,110.7692
144.2161,110.7692
144.2355,110.7731
144.2520,110.7841
144.2630,110.8006
144.2669,110.8200
Z" /> 
<path style="fill:#000000; fill-opacity:1.0000; stroke:none;fill-rule:evenodd;"
d="M 144.2669,110.5800
144.2630,110.5994
144.2520,110.6159
144.2355,110.6269
144.2161,110.6308
143.2661,110.6308
143.2467,110.6269
143.2302,110.6159
143.2192,110.5994
143.2153,110.5800
143.2153,110.3200
143.2192,110.3006
143.2302,110.2841
143.2467,110.2731
143.2661,110.2692
144.2161,110.2692
144.2355,110.2731
144.2520,110.2841
144.2630,110.3006
144.2669,110.3200
Z" /> 
<path style="fill:#000000; fill-opacity:1.0000; stroke:none;fill-rule:evenodd;"
d="M 144.2669,110.0800
144.2630,110.0994
144.2520,110.1159
144.2355,110.1269
144.2161,110.1308
143.2661,110.1308
143.2467,110.1269
143.2302,110.1159
143.2192,110.0994
143.2153,110.0800
143.2153,109.8200
143.2192,109.8006
143.2302,109.7841
143.2467,109.7731
143.2661,109.7692
144.2161,109.7692
144.2355,109.7731
144.2520,109.7841
144.2630,109.8006
144.2669,109.8200
Z" /> 
<path style="fill:#000000; fill-opacity:1.0000; stroke:none;fill-rule:evenodd;"
d="M 144.2669,109.5800
144.2630,109.5994
144.2520,109.6159
144.2355,109.6269
144.2161,109.6308
143.2661,109.6308
143.2467,109.6269
143.2302,109.6159
143.2192,109.5994
143.2153,109.5800
143.2153,109.3200
143.2192,109.3006
143.2302,109.2841
143.2467,109.2731
143.2661,109.2692
144.2161,109.2692
144.2355,109.2731
144.2520,109.2841
144.2630,109.3006
144.2669,109.3200
Z" /> 
<path style="fill:#000000; fill-opacity:1.0000; stroke:none;fill-rule:evenodd;"
d="M 144.2669,109.0800
144.2630,109.0994
144.2520,109.1159
144.2355,109.1269
144.2161,109.1308
143.2661,109.1308
143.2467,109.1269
143.2302,109.1159
143.2192,109.0994
143.2153,109.0800
143.2153,108.8200
143.2192,108.8006
143.2302,108.7841
143.2467,108.7731
143.2661,108.7692
144.2161,108.7692
144.2355,108.7731
144.2520,108.7841
144.2630,108.8006
144.2669,108.8200
Z" /> 
<path style="fill:#000000; fill-opacity:1.0000; stroke:none;fill-rule:evenodd;"
d="M 144.2669,108.5800
144.2630,108.5994
144.2520,108.6159
144.2355,108.6269
144.2161,108.6308
143.2661,108.6308
143.2467,108.6269
143.2302,108.6159
143.2192,108.5994
143.2153,108.5800
143.2153,108.3200
143.2192,108.3006
143.2302,108.2841
143.2467,108.2731
143.2661,108.2692
144.2161,108.2692
144.2355,108.2731
144.2520,108.2841
144.2630,108.3006
144.2669,108.3200
Z" /> 
<path style="fill:#000000; fill-opacity:1.0000; stroke:none;fill-rule:evenodd;"
d="M 144.2669,108.0800
144.2630,108.0994
144.2520,108.1159
144.2355,108.1269
144.2161,108.1308
143.2661,108.1308
143.2467,108.1269
143.2302,108.1159
143.2192,108.0994
143.2153,108.0800
143.2153,107.8200
143.2192,107.8006
143.2302,107.7841
143.2467,107.7731
143.2661,107.7692
144.2161,107.7692
144.2355,107.7731
144.2520,107.7841
144.2630,107.8006
144.2669,107.8200
Z" /> 
<path style="fill:#000000; fill-opacity:1.0000; stroke:none;fill-rule:evenodd;"
d="M 142.7711,107.6358
142.7517,107.6319
142.7352,107.6209
142.7242,107.6044
142.7203,107.5850
142.7203,106.6350
142.7242,106.6156
142.7352,106.5991
142.7517,106.5881
142.7711,106.5842
143.0311,106.5842
143.0505,106.5881
143.0670,106.5991
143.0780,106.6156
143.0819,106.6350
143.0819,107.5850
143.0780,107.6044
143.0670,107.6209
143.0505,107.6319
143.0311,107.6358
Z" /> 
<path style="fill:#000000; fill-opacity:1.0000; stroke:none;fill-rule:evenodd;"
d="M 142.2711,107.6358
142.2517,107.6319
142.2352,107.6209
142.2242,107.6044
142.2203,107.5850
142.2203,106.6350
142.2242,106.6156
142.2352,106.5991
142.2517,106.5881
142.2711,106.5842
142.5311,106.5842
142.5505,106.5881
142.5670,106.5991
142.5780,106.6156
142.5819,106.6350
142.5819,107.5850
142.5780,107.6044
142.5670,107.6209
142.5505,107.6319
142.5311,107.6358
Z" /> 
<path style="fill:#000000; fill-opacity:1.0000; stroke:none;fill-rule:evenodd;"
d="M 141.7711,107.6358
141.7517,107.6319
141.7352,107.6209
141.7242,107.6044
141.7203,107.5850
141.7203,106.6350
141.7242,106.6156
141.7352,106.5991
141.7517,106.5881
141.7711,106.5842
142.0311,106.5842
142.0505,106.5881
142.0670,106.5991
142.0780,106.6156
142.0819,106.6350
142.0819,107.5850
142.0780,107.6044
142.0670,107.6209
142.0505,107.6319
142.0311,107.6358
Z" /> 
<path style="fill:#000000; fill-opacity:1.0000; stroke:none;fill-rule:evenodd;"
d="M 141.2711,107.6358
141.2517,107.6319
141.2352,107.6209
141.2242,107.6044
141.2203,107.5850
141.2203,106.6350
141.2242,106.6156
141.2352,106.5991
141.2517,106.5881
141.2711,106.5842
141.5311,106.5842
141.5505,106.5881
141.5670,106.5991
141.5780,106.6156
141.5819,106.6350
141.5819,107.5850
141.5780,107.6044
141.5670,107.6209
141.5505,107.6319
141.5311,107.6358
Z" /> 
<path style="fill:#000000; fill-opacity:1.0000; stroke:none;fill-rule:evenodd;"
d="M 140.7711,107.6358
140.7517,107.6319
140.7352,107.6209
140.7242,107.6044
140.7203,107.5850
140.7203,106.6350
140.7242,106.6156
140.7352,106.5991
140.7517,106.5881
140.7711,106.5842
141.0311,106.5842
141.0505,106.5881
141.0670,106.5991
141.0780,106.6156
141.0819,106.6350
141.0819,107.5850
141.0780,107.6044
141.0670,107.6209
141.0505,107.6319
141.0311,107.6358
Z" /> 
<path style="fill:#000000; fill-opacity:1.0000; stroke:none;fill-rule:evenodd;"
d="M 140.2711,107.6358
140.2517,107.6319
140.2352,107.6209
140.2242,107.6044
140.2203,107.5850
140.2203,106.6350
140.2242,106.6156
140.2352,106.5991
140.2517,106.5881
140.2711,106.5842
140.5311,106.5842
140.5505,106.5881
140.5670,106.5991
140.5780,106.6156
140.5819,106.6350
140.5819,107.5850
140.5780,107.6044
140.5670,107.6209
140.5505,107.6319
140.5311,107.6358
Z" /> 
<path style="fill:#000000; fill-opacity:1.0000; stroke:none;fill-rule:evenodd;"
d="M 139.7711,107.6358
139.7517,107.6319
139.7352,107.6209
139.7242,107.6044
139.7203,107.5850
139.7203,106.6350
139.7242,106.6156
139.7352,106.5991
139.7517,106.5881
139.7711,106.5842
140.0311,106.5842
140.0505,106.5881
140.0670,106.5991
140.0780,106.6156
140.0819,106.6350
140.0819,107.5850
140.0780,107.6044
140.0670,107.6209
140.0505,107.6319
140.0311,107.6358
Z" /> 
<path style="fill:#000000; fill-opacity:1.0000; stroke:none;fill-rule:evenodd;"
d="M 139.5869,108.0800
139.5830,108.0994
139.5720,108.1159
139.5555,108.1269
139.5361,108.1308
138.5861,108.1308
138.5667,108.1269
138.5502,108.1159
138.5392,108.0994
138.5353,108.0800
138.5353,107.8200
138.5392,107.8006
138.5502,107.7841
138.5667,107.7731
138.5861,107.7692
139.5361,107.7692
139.5555,107.7731
139.5720,107.7841
139.5830,107.8006
139.5869,107.8200
Z" /> 
<path style="fill:#000000; fill-opacity:1.0000; stroke:none;fill-rule:evenodd;"
d="M 139.5869,108.5800
139.5830,108.5994
139.5720,108.6159
139.5555,108.6269
139.5361,108.6308
138.5861,108.6308
138.5667,108.6269
138.5502,108.6159
138.5392,108.5994
138.5353,108.5800
138.5353,108.3200
138.5392,108.3006
138.5502,108.2841
138.5667,108.2731
138.5861,108.2692
139.5361,108.2692
139.5555,108.2731
139.5720,108.2841
139.5830,108.3006
139.5869,108.3200
Z" /> 
<path style="fill:#000000; fill-opacity:1.0000; stroke:none;fill-rule:evenodd;"
d="M 139.5869,109.0800
139.5830,109.0994
139.5720,109.1159
139.5555,109.1269
139.5361,109.1308
138.5861,109.1308
138.5667,109.1269
138.5502,109.1159
138.5392,109.0994
138.5353,109.0800
138.5353,108.8200
138.5392,108.8006
138.5502,108.7841
138.5667,108.7731
138.5861,108.7692
139.5361,108.7692
139.5555,108.7731
139.5720,108.7841
139.5830,108.8006
139.5869,108.8200
Z" /> 
<path style="fill:#000000; fill-opacity:1.0000; stroke:none;fill-rule:evenodd;"
d="M 139.5869,109.5800
139.5830,109.5994
139.5720,109.6159
139.5555,109.6269
139.5361,109.6308
138.5861,109.6308
138.5667,109.6269
138.5502,109.6159
138.5392,109.5994
138.5353,109.5800
138.5353,109.3200
138.5392,109.3006
138.5502,109.2841
138.5667,109.2731
138.5861,109.2692
139.5361,109.2692
139.5555,109.2731
139.5720,109.2841
139.5830,109.3006
139.5869,109.3200
Z" /> 
<path style="fill:#000000; fill-opacity:1.0000; stroke:none;fill-rule:evenodd;"
d="M 139.5869,110.0800
139.5830,110.0994
139.5720,110.1159
139.5555,110.1269
139.5361,110.1308
138.5861,110.1308
138.5667,110.1269
138.5502,110.1159
138.5392,110.0994
138.5353,110.0800
138.5353,109.8200
138.5392,109.8006
138.5502,109.7841
138.5667,109.7731
138.5861,109.7692
139.5361,109.7692
139.5555,109.7731
139.5720,109.7841
139.5830,109.8006
139.5869,109.8200
Z" /> 
<path style="fill:#000000; fill-opacity:1.0000; stroke:none;fill-rule:evenodd;"
d="M 139.5869,110.5800
139.5830,110.5994
139.5720,110.6159
139.5555,110.6269
139.5361,110.6308
138.5861,110.6308
138.5667,110.6269
138.5502,110.6159
138.5392,110.5994
138.5353,110.5800
138.5353,110.3200
138.5392,110.3006
138.5502,110.2841
138.5667,110.2731
138.5861,110.2692
139.5361,110.2692
139.5555,110.2731
139.5720,110.2841
139.5830,110.3006
139.5869,110.3200
Z" /> 
<path style="fill:#000000; fill-opacity:1.0000; stroke:none;fill-rule:evenodd;"
d="M 139.5869,111.0800
139.5830,111.0994
139.5720,111.1159
139.5555,111.1269
139.5361,111.1308
138.5861,111.1308
138.5667,111.1269
138.5502,111.1159
138.5392,111.0994
138.5353,111.0800
138.5353,110.8200
138.5392,110.8006
138.5502,110.7841
138.5667,110.7731
138.5861,110.7692
139.5361,110.7692
139.5555,110.7731
139.5720,110.7841
139.5830,110.8006
139.5869,110.8200
Z" /> 
<path style="fill:#000000; fill-opacity:1.0000; stroke:none;fill-rule:evenodd;"
d="M 139.7711,112.3158
139.7517,112.3119
139.7352,112.3009
139.7242,112.2844
139.7203,112.2650
139.7203,111.3150
139.7242,111.2956
139.7352,111.2791
139.7517,111.2681
139.7711,111.2642
140.0311,111.2642
140.0505,111.2681
140.0670,111.2791
140.0780,111.2956
140.0819,111.3150
140.0819,112.2650
140.0780,112.2844
140.0670,112.3009
140.0505,112.3119
140.0311,112.3158
Z" /> 
<path style="fill:#000000; fill-opacity:1.0000; stroke:none;fill-rule:evenodd;"
d="M 140.2711,112.3158
140.2517,112.3119
140.2352,112.3009
140.2242,112.2844
140.2203,112.2650
140.2203,111.3150
140.2242,111.2956
140.2352,111.2791
140.2517,111.2681
140.2711,111.2642
140.5311,111.2642
140.5505,111.2681
140.5670,111.2791
140.5780,111.2956
140.5819,111.3150
140.5819,112.2650
140.5780,112.2844
140.5670,112.3009
140.5505,112.3119
140.5311,112.3158
Z" /> 
<path style="fill:#000000; fill-opacity:1.0000; stroke:none;fill-rule:evenodd;"
d="M 140.7711,112.3158
140.7517,112.3119
140.7352,112.3009
140.7242,112.2844
140.7203,112.2650
140.7203,111.3150
140.7242,111.2956
140.7352,111.2791
140.7517,111.2681
140.7711,111.2642
141.0311,111.2642
141.0505,111.2681
141.0670,111.2791
141.0780,111.2956
141.0819,111.3150
141.0819,112.2650
141.0780,112.2844
141.0670,112.3009
141.0505,112.3119
141.0311,112.3158
Z" /> 
<path style="fill:#000000; fill-opacity:1.0000; stroke:none;fill-rule:evenodd;"
d="M 141.2711,112.3158
141.2517,112.3119
141.2352,112.3009
141.2242,112.2844
141.2203,112.2650
141.2203,111.3150
141.2242,111.2956
141.2352,111.2791
141.2517,111.2681
141.2711,111.2642
141.5311,111.2642
141.5505,111.2681
141.5670,111.2791
141.5780,111.2956
141.5819,111.3150
141.5819,112.2650
141.5780,112.2844
141.5670,112.3009
141.5505,112.3119
141.5311,112.3158
Z" /> 
<path style="fill:#000000; fill-opacity:1.0000; stroke:none;fill-rule:evenodd;"
d="M 141.7711,112.3158
141.7517,112.3119
141.7352,112.3009
141.7242,112.2844
141.7203,112.2650
141.7203,111.3150
141.7242,111.2956
141.7352,111.2791
141.7517,111.2681
141.7711,111.2642
142.0311,111.2642
142.0505,111.2681
142.0670,111.2791
142.0780,111.2956
142.0819,111.3150
142.0819,112.2650
142.0780,112.2844
142.0670,112.3009
142.0505,112.3119
142.0311,112.3158
Z" /> 
<path style="fill:#000000; fill-opacity:1.0000; stroke:none;fill-rule:evenodd;"
d="M 142.2711,112.3158
142.2517,112.3119
142.2352,112.3009
142.2242,112.2844
142.2203,112.2650
142.2203,111.3150
142.2242,111.2956
142.2352,111.2791
142.2517,111.2681
142.2711,111.2642
142.5311,111.2642
142.5505,111.2681
142.5670,111.2791
142.5780,111.2956
142.5819,111.3150
142.5819,112.2650
142.5780,112.2844
142.5670,112.3009
142.5505,112.3119
142.5311,112.3158
Z" /> 
<path style="fill:#000000; fill-opacity:1.0000; stroke:none;fill-rule:evenodd;"
d="M 142.7711,112.3158
142.7517,112.3119
142.7352,112.3009
142.7242,112.2844
142.7203,112.2650
142.7203,111.3150
142.7242,111.2956
142.7352,111.2791
142.7517,111.2681
142.7711,111.2642
143.0311,111.2642
143.0505,111.2681
143.0670,111.2791
143.0780,111.2956
143.0819,111.3150
143.0819,112.2650
143.0780,112.2844
143.0670,112.3009
143.0505,112.3119
143.0311,112.3158
Z" /> 
<path style="fill:#000000; fill-opacity:1.0000; stroke:none;fill-rule:evenodd;"
d="M 139.7761,111.1258
139.7567,111.1219
139.7402,111.1109
139.7292,111.0944
139.7253,111.0750
139.7253,107.8250
139.7292,107.8056
139.7402,107.7891
139.7567,107.7781
139.7761,107.7742
143.0261,107.7742
143.0455,107.7781
143.0620,107.7891
143.0730,107.8056
143.0769,107.8250
143.0769,111.0750
143.0730,111.0944
143.0620,111.1109
143.0455,111.1219
143.0261,111.1258
Z" /> 
<path style="fill:#000000; fill-opacity:1.0000; stroke:none;fill-rule:evenodd;"
d="M 133.6011,100.8242
133.6205,100.8281
133.6370,100.8391
133.6480,100.8556
133.6519,100.8750
133.6519,101.3250
133.6480,101.3444
133.6370,101.3609
133.6205,101.3719
133.6011,101.3758
133.0011,101.3758
132.9817,101.3719
132.9652,101.3609
132.9542,101.3444
132.9503,101.3250
132.9503,100.8750
132.9542,100.8556
132.9652,100.8391
132.9817,100.8281
133.0011,100.8242
Z" /> 
<path style="fill:#000000; fill-opacity:1.0000; stroke:none;fill-rule:evenodd;"
d="M 133.6011,101.8242
133.6205,101.8281
133.6370,101.8391
133.6480,101.8556
133.6519,101.8750
133.6519,102.3250
133.6480,102.3444
133.6370,102.3609
133.6205,102.3719
133.6011,102.3758
133.0011,102.3758
132.9817,102.3719
132.9652,102.3609
132.9542,102.3444
132.9503,102.3250
132.9503,101.8750
132.9542,101.8556
132.9652,101.8391
132.9817,101.8281
133.0011,101.8242
Z" /> 
<path style="fill:#000000; fill-opacity:1.0000; stroke:none;fill-rule:evenodd;"
d="M 145.5753,109.1500
145.5792,109.1306
145.5902,109.1141
145.6067,109.1031
145.6261,109.0992
146.0761,109.0992
146.0955,109.1031
146.1120,109.1141
146.1230,109.1306
146.1269,109.1500
146.1269,109.7500
146.1230,109.7694
146.1120,109.7859
146.0955,109.7969
146.0761,109.8008
145.6261,109.8008
145.6067,109.7969
145.5902,109.7859
145.5792,109.7694
145.5753,109.7500
Z" /> 
<path style="fill:#000000; fill-opacity:1.0000; stroke:none;fill-rule:evenodd;"
d="M 146.5753,109.1500
146.5792,109.1306
146.5902,109.1141
146.6067,109.1031
146.6261,109.0992
147.0761,109.0992
147.0955,109.1031
147.1120,109.1141
147.1230,109.1306
147.1269,109.1500
147.1269,109.7500
147.1230,109.7694
147.1120,109.7859
147.0955,109.7969
147.0761,109.8008
146.6261,109.8008
146.6067,109.7969
146.5902,109.7859
146.5792,109.7694
146.5753,109.7500
Z" /> 
<path style="fill:#000000; fill-opacity:1.0000; stroke:none;fill-rule:evenodd;"
d="M 145.0253,106.8500
145.0292,106.8306
145.0402,106.8141
145.0567,106.8031
145.0761,106.7992
145.5261,106.7992
145.5455,106.8031
145.5620,106.8141
145.5730,106.8306
145.5769,106.8500
145.5769,107.4500
145.5730,107.4694
145.5620,107.4859
145.5455,107.4969
145.5261,107.5008
145.0761,107.5008
145.0567,107.4969
145.0402,107.4859
145.0292,107.4694
145.0253,107.4500
Z" /> 
<path style="fill:#000000; fill-opacity:1.0000; stroke:none;fill-rule:evenodd;"
d="M 146.0253,106.8500
146.0292,106.8306
146.0402,106.8141
146.0567,106.8031
146.0761,106.7992
146.5261,106.7992
146.5455,106.8031
146.5620,106.8141
146.5730,106.8306
146.5769,106.8500
146.5769,107.4500
146.5730,107.4694
146.5620,107.4859
146.5455,107.4969
146.5261,107.5008
146.0761,107.5008
146.0567,107.4969
146.0402,107.4859
146.0292,107.4694
146.0253,107.4500
Z" /> 
<path style="fill:#000000; fill-opacity:1.0000; stroke:none;fill-rule:evenodd;"
d="M 156.2519,103.5000
156.2480,103.5194
156.2370,103.5359
156.2205,103.5469
156.2011,103.5508
152.2011,103.5508
152.1817,103.5469
152.1652,103.5359
152.1542,103.5194
152.1503,103.5000
152.1503,102.5000
152.1542,102.4806
152.1652,102.4641
152.1817,102.4531
152.2011,102.4492
156.2011,102.4492
156.2205,102.4531
156.2370,102.4641
156.2480,102.4806
156.2519,102.5000
Z" /> 
<path style="fill:#000000; fill-opacity:1.0000; stroke:none;fill-rule:evenodd;"
d="M 156.2519,100.7500
156.2480,100.7694
156.2370,100.7859
156.2205,100.7969
156.2011,100.8008
152.2011,100.8008
152.1817,100.7969
152.1652,100.7859
152.1542,100.7694
152.1503,100.7500
152.1503,99.7500
152.1542,99.7306
152.1652,99.7141
152.1817,99.7031
152.2011,99.6992
156.2011,99.6992
156.2205,99.7031
156.2370,99.7141
156.2480,99.7306
156.2519,99.7500
Z" /> 
<path style="fill:#000000; fill-opacity:1.0000; stroke:none;fill-rule:evenodd;"
d="M 156.2519,106.2500
156.2480,106.2694
156.2370,106.2859
156.2205,106.2969
156.2011,106.3008
152.2011,106.3008
152.1817,106.2969
152.1652,106.2859
152.1542,106.2694
152.1503,106.2500
152.1503,105.2500
152.1542,105.2306
152.1652,105.2141
152.1817,105.2031
152.2011,105.1992
156.2011,105.1992
156.2205,105.2031
156.2370,105.2141
156.2480,105.2306
156.2519,105.2500
Z" /> 
<path style="fill:#000000; fill-opacity:1.0000; stroke:none;fill-rule:evenodd;"
d="M 135.9269,99.1500
135.9230,99.1694
135.9120,99.1859
135.8955,99.1969
135.8761,99.2008
135.4261,99.2008
135.4067,99.1969
135.3902,99.1859
135.3792,99.1694
135.3753,99.1500
135.3753,98.5500
135.3792,98.5306
135.3902,98.5141
135.4067,98.5031
135.4261,98.4992
135.8761,98.4992
135.8955,98.5031
135.9120,98.5141
135.9230,98.5306
135.9269,98.5500
Z" /> 
<path style="fill:#000000; fill-opacity:1.0000; stroke:none;fill-rule:evenodd;"
d="M 134.9269,99.1500
134.9230,99.1694
134.9120,99.1859
134.8955,99.1969
134.8761,99.2008
134.4261,99.2008
134.4067,99.1969
134.3902,99.1859
134.3792,99.1694
134.3753,99.1500
134.3753,98.5500
134.3792,98.5306
134.3902,98.5141
134.4067,98.5031
134.4261,98.4992
134.8761,98.4992
134.8955,98.5031
134.9120,98.5141
134.9230,98.5306
134.9269,98.5500
Z" /> 
<path style="fill:#000000; fill-opacity:1.0000; stroke:none;fill-rule:evenodd;"
d="M 127.4503,98.7500
127.4542,98.7306
127.4652,98.7141
127.4817,98.7031
127.5011,98.6992
128.3011,98.6992
128.3205,98.7031
128.3370,98.7141
128.3480,98.7306
128.3519,98.7500
128.3519,99.5500
128.3480,99.5694
128.3370,99.5859
128.3205,99.5969
128.3011,99.6008
127.5011,99.6008
127.4817,99.5969
127.4652,99.5859
127.4542,99.5694
127.4503,99.5500
Z" /> 
<path style="fill:#000000; fill-opacity:1.0000; stroke:none;fill-rule:evenodd;"
d="M 129.0503,98.7500
129.0542,98.7306
129.0652,98.7141
129.0817,98.7031
129.1011,98.6992
129.9011,98.6992
129.9205,98.7031
129.9370,98.7141
129.9480,98.7306
129.9519,98.7500
129.9519,99.5500
129.9480,99.5694
129.9370,99.5859
129.9205,99.5969
129.9011,99.6008
129.1011,99.6008
129.0817,99.5969
129.0652,99.5859
129.0542,99.5694
129.0503,99.5500
Z" /> 
<path style="fill:#000000; fill-opacity:1.0000; stroke:none;fill-rule:evenodd;"
d="M 134.6503,109.7000
134.6542,109.6806
134.6652,109.6641
134.6817,109.6531
134.7011,109.6492
135.5011,109.6492
135.5205,109.6531
135.5370,109.6641
135.5480,109.6806
135.5519,109.7000
135.5519,110.5000
135.5480,110.5194
135.5370,110.5359
135.5205,110.5469
135.5011,110.5508
134.7011,110.5508
134.6817,110.5469
134.6652,110.5359
134.6542,110.5194
134.6503,110.5000
Z" /> 
<path style="fill:#000000; fill-opacity:1.0000; stroke:none;fill-rule:evenodd;"
d="M 136.2503,109.7000
136.2542,109.6806
136.2652,109.6641
136.2817,109.6531
136.3011,109.6492
137.1011,109.6492
137.1205,109.6531
137.1370,109.6641
137.1480,109.6806
137.1519,109.7000
137.1519,110.5000
137.1480,110.5194
137.1370,110.5359
137.1205,110.5469
137.1011,110.5508
136.3011,110.5508
136.2817,110.5469
136.2652,110.5359
136.2542,110.5194
136.2503,110.5000
Z" /> 
<path style="fill:#000000; fill-opacity:1.0000; stroke:none;fill-rule:evenodd;"
d="M 129.1769,100.7500
129.1730,100.7694
129.1620,100.7859
129.1455,100.7969
129.1261,100.8008
128.6761,100.8008
128.6567,100.7969
128.6402,100.7859
128.6292,100.7694
128.6253,100.7500
128.6253,100.1500
128.6292,100.1306
128.6402,100.1141
128.6567,100.1031
128.6761,100.0992
129.1261,100.0992
129.1455,100.1031
129.1620,100.1141
129.1730,100.1306
129.1769,100.1500
Z" /> 
<path style="fill:#000000; fill-opacity:1.0000; stroke:none;fill-rule:evenodd;"
d="M 128.1769,100.7500
128.1730,100.7694
128.1620,100.7859
128.1455,100.7969
128.1261,100.8008
127.6761,100.8008
127.6567,100.7969
127.6402,100.7859
127.6292,100.7694
127.6253,100.7500
127.6253,100.1500
127.6292,100.1306
127.6402,100.1141
127.6567,100.1031
127.6761,100.0992
128.1261,100.0992
128.1455,100.1031
128.1620,100.1141
128.1730,100.1306
128.1769,100.1500
Z" /> 
<path style="fill:#000000; fill-opacity:1.0000; stroke:none;fill-rule:evenodd;"
d="M 131.3011,115.8258
131.2817,115.8219
131.2652,115.8109
131.2542,115.7944
131.2503,115.7750
131.2503,115.3250
131.2542,115.3056
131.2652,115.2891
131.2817,115.2781
131.3011,115.2742
131.9011,115.2742
131.9205,115.2781
131.9370,115.2891
131.9480,115.3056
131.9519,115.3250
131.9519,115.7750
131.9480,115.7944
131.9370,115.8109
131.9205,115.8219
131.9011,115.8258
Z" /> 
<path style="fill:#000000; fill-opacity:1.0000; stroke:none;fill-rule:evenodd;"
d="M 131.3011,114.8258
131.2817,114.8219
131.2652,114.8109
131.2542,114.7944
131.2503,114.7750
131.2503,114.3250
131.2542,114.3056
131.2652,114.2891
131.2817,114.2781
131.3011,114.2742
131.9011,114.2742
131.9205,114.2781
131.9370,114.2891
131.9480,114.3056
131.9519,114.3250
131.9519,114.7750
131.9480,114.7944
131.9370,114.8109
131.9205,114.8219
131.9011,114.8258
Z" /> 
<path style="fill:#000000; fill-opacity:1.0000; stroke:none;fill-rule:evenodd;"
d="M 144.8253,112.6500
144.8292,112.6306
144.8402,112.6141
144.8567,112.6031
144.8761,112.5992
145.3261,112.5992
145.3455,112.6031
145.3620,112.6141
145.3730,112.6306
145.3769,112.6500
145.3769,113.2500
145.3730,113.2694
145.3620,113.2859
145.3455,113.2969
145.3261,113.3008
144.8761,113.3008
144.8567,113.2969
144.8402,113.2859
144.8292,113.2694
144.8253,113.2500
Z" /> 
<path style="fill:#000000; fill-opacity:1.0000; stroke:none;fill-rule:evenodd;"
d="M 145.8253,112.6500
145.8292,112.6306
145.8402,112.6141
145.8567,112.6031
145.8761,112.5992
146.3261,112.5992
146.3455,112.6031
146.3620,112.6141
146.3730,112.6306
146.3769,112.6500
146.3769,113.2500
146.3730,113.2694
146.3620,113.2859
146.3455,113.2969
146.3261,113.3008
145.8761,113.3008
145.8567,113.2969
145.8402,113.2859
145.8292,113.2694
145.8253,113.2500
Z" /> 
<path style="fill:#000000; fill-opacity:1.0000; stroke:none;fill-rule:evenodd;"
d="M 129.1769,114.9500
129.1730,114.9694
129.1620,114.9859
129.1455,114.9969
129.1261,115.0008
128.6761,115.0008
128.6567,114.9969
128.6402,114.9859
128.6292,114.9694
128.6253,114.9500
128.6253,114.3500
128.6292,114.3306
128.6402,114.3141
128.6567,114.3031
128.6761,114.2992
129.1261,114.2992
129.1455,114.3031
129.1620,114.3141
129.1730,114.3306
129.1769,114.3500
Z" /> 
<path style="fill:#000000; fill-opacity:1.0000; stroke:none;fill-rule:evenodd;"
d="M 128.1769,114.9500
128.1730,114.9694
128.1620,114.9859
128.1455,114.9969
128.1261,115.0008
127.6761,115.0008
127.6567,114.9969
127.6402,114.9859
127.6292,114.9694
127.6253,114.9500
127.6253,114.3500
127.6292,114.3306
127.6402,114.3141
127.6567,114.3031
127.6761,114.2992
128.1261,114.2992
128.1455,114.3031
128.1620,114.3141
128.1730,114.3306
128.1769,114.3500
Z" /> 
<path style="fill:#000000; fill-opacity:1.0000; stroke:none;fill-rule:evenodd;"
d="M 133.6511,110.3742
133.6705,110.3781
133.6870,110.3891
133.6980,110.4056
133.7019,110.4250
133.7019,110.8750
133.6980,110.8944
133.6870,110.9109
133.6705,110.9219
133.6511,110.9258
133.0511,110.9258
133.0317,110.9219
133.0152,110.9109
133.0042,110.8944
133.0003,110.8750
133.0003,110.4250
133.0042,110.4056
133.0152,110.3891
133.0317,110.3781
133.0511,110.3742
Z" /> 
<path style="fill:#000000; fill-opacity:1.0000; stroke:none;fill-rule:evenodd;"
d="M 133.6511,111.3742
133.6705,111.3781
133.6870,111.3891
133.6980,111.4056
133.7019,111.4250
133.7019,111.8750
133.6980,111.8944
133.6870,111.9109
133.6705,111.9219
133.6511,111.9258
133.0511,111.9258
133.0317,111.9219
133.0152,111.9109
133.0042,111.8944
133.0003,111.8750
133.0003,111.4250
133.0042,111.4056
133.0152,111.3891
133.0317,111.3781
133.0511,111.3742
Z" /> 
<path style="fill:#000000; fill-opacity:1.0000; stroke:none;fill-rule:evenodd;"
d="M 153.9311,93.7000
155.6311,93.7000
155.6311,95.4000
153.9311,95.4000
Z" /> 
<circle cx="154.7811" cy="92.0100" r="0.8500" /> 
<circle cx="152.2411" cy="94.5500" r="0.8500" /> 
<circle cx="152.2411" cy="92.0100" r="0.8500" /> 
<circle cx="149.7011" cy="94.5500" r="0.8500" /> 
<circle cx="149.7011" cy="92.0100" r="0.8500" /> 
<circle cx="147.1611" cy="94.5500" r="0.8500" /> 
<circle cx="147.1611" cy="92.0100" r="0.8500" /> 
<circle cx="144.6211" cy="94.5500" r="0.8500" /> 
<circle cx="144.6211" cy="92.0100" r="0.8500" /> 
<circle cx="142.0811" cy="94.5500" r="0.8500" /> 
<circle cx="142.0811" cy="92.0100" r="0.8500" /> 
<circle cx="139.5411" cy="94.5500" r="0.8500" /> 
<circle cx="139.5411" cy="92.0100" r="0.8500" /> 
<circle cx="137.0011" cy="94.5500" r="0.8500" /> 
<circle cx="137.0011" cy="92.0100" r="0.8500" /> 
<circle cx="134.4611" cy="94.5500" r="0.8500" /> 
<circle cx="134.4611" cy="92.0100" r="0.8500" /> 
<circle cx="131.9211" cy="94.5500" r="0.8500" /> 
<circle cx="131.9211" cy="92.0100" r="0.8500" /> 
<path style="fill:#000000; fill-opacity:1.0000; stroke:none;fill-rule:evenodd;"
d="M 147.2769,96.7500
147.2730,96.7694
147.2620,96.7859
147.2455,96.7969
147.2261,96.8008
146.7761,96.8008
146.7567,96.7969
146.7402,96.7859
146.7292,96.7694
146.7253,96.7500
146.7253,96.1500
146.7292,96.1306
146.7402,96.1141
146.7567,96.1031
146.7761,96.0992
147.2261,96.0992
147.2455,96.1031
147.2620,96.1141
147.2730,96.1306
147.2769,96.1500
Z" /> 
<path style="fill:#000000; fill-opacity:1.0000; stroke:none;fill-rule:evenodd;"
d="M 146.2769,96.7500
146.2730,96.7694
146.2620,96.7859
146.2455,96.7969
146.2261,96.8008
145.7761,96.8008
145.7567,96.7969
145.7402,96.7859
145.7292,96.7694
145.7253,96.7500
145.7253,96.1500
145.7292,96.1306
145.7402,96.1141
145.7567,96.1031
145.7761,96.0992
146.2261,96.0992
146.2455,96.1031
146.2620,96.1141
146.2730,96.1306
146.2769,96.1500
Z" /> 
<path style="fill:#000000; fill-opacity:1.0000; stroke:none;fill-rule:evenodd;"
d="M 147.1269,108.6000
147.1230,108.6194
147.1120,108.6359
147.0955,108.6469
147.0761,108.6508
146.6261,108.6508
146.6067,108.6469
146.5902,108.6359
146.5792,108.6194
146.5753,108.6000
146.5753,108.0000
146.5792,107.9806
146.5902,107.9641
146.6067,107.9531
146.6261,107.9492
147.0761,107.9492
147.0955,107.9531
147.1120,107.9641
147.1230,107.9806
147.1269,108.0000
Z" /> 
<path style="fill:#000000; fill-opacity:1.0000; stroke:none;fill-rule:evenodd;"
d="M 146.1269,108.6000
146.1230,108.6194
146.1120,108.6359
146.0955,108.6469
146.0761,108.6508
145.6261,108.6508
145.6067,108.6469
145.5902,108.6359
145.5792,108.6194
145.5753,108.6000
145.5753,108.0000
145.5792,107.9806
145.5902,107.9641
145.6067,107.9531
145.6261,107.9492
146.0761,107.9492
146.0955,107.9531
146.1120,107.9641
146.1230,107.9806
146.1269,108.0000
Z" /> 
<path style="fill:#000000; fill-opacity:1.0000; stroke:none;fill-rule:evenodd;"
d="M 144.0769,101.7000
144.0730,101.7194
144.0620,101.7359
144.0455,101.7469
144.0261,101.7508
143.5761,101.7508
143.5567,101.7469
143.5402,101.7359
143.5292,101.7194
143.5253,101.7000
143.5253,101.1000
143.5292,101.0806
143.5402,101.0641
143.5567,101.0531
143.5761,101.0492
144.0261,101.0492
144.0455,101.0531
144.0620,101.0641
144.0730,101.0806
144.0769,101.1000
Z" /> 
<path style="fill:#000000; fill-opacity:1.0000; stroke:none;fill-rule:evenodd;"
d="M 143.0769,101.7000
143.0730,101.7194
143.0620,101.7359
143.0455,101.7469
143.0261,101.7508
142.5761,101.7508
142.5567,101.7469
142.5402,101.7359
142.5292,101.7194
142.5253,101.7000
142.5253,101.1000
142.5292,101.0806
142.5402,101.0641
142.5567,101.0531
142.5761,101.0492
143.0261,101.0492
143.0455,101.0531
143.0620,101.0641
143.0730,101.0806
143.0769,101.1000
Z" /> 
<path style="fill:#000000; fill-opacity:1.0000; stroke:none;fill-rule:evenodd;"
d="M 152.1011,95.9992
152.1205,96.0031
152.1370,96.0141
152.1480,96.0306
152.1519,96.0500
152.1519,96.8500
152.1480,96.8694
152.1370,96.8859
152.1205,96.8969
152.1011,96.9008
151.3011,96.9008
151.2817,96.8969
151.2652,96.8859
151.2542,96.8694
151.2503,96.8500
151.2503,96.0500
151.2542,96.0306
151.2652,96.0141
151.2817,96.0031
151.3011,95.9992
Z" /> 
<path style="fill:#000000; fill-opacity:1.0000; stroke:none;fill-rule:evenodd;"
d="M 152.1011,97.5992
152.1205,97.6031
152.1370,97.6141
152.1480,97.6306
152.1519,97.6500
152.1519,98.4500
152.1480,98.4694
152.1370,98.4859
152.1205,98.4969
152.1011,98.5008
151.3011,98.5008
151.2817,98.4969
151.2652,98.4859
151.2542,98.4694
151.2503,98.4500
151.2503,97.6500
151.2542,97.6306
151.2652,97.6141
151.2817,97.6031
151.3011,97.5992
Z" /> 
<path style="fill:#000000; fill-opacity:1.0000; stroke:none;fill-rule:evenodd;"
d="M 137.3753,105.7500
137.3792,105.7306
137.3902,105.7141
137.4067,105.7031
137.4261,105.6992
137.8761,105.6992
137.8955,105.7031
137.9120,105.7141
137.9230,105.7306
137.9269,105.7500
137.9269,106.3500
137.9230,106.3694
137.9120,106.3859
137.8955,106.3969
137.8761,106.4008
137.4261,106.4008
137.4067,106.3969
137.3902,106.3859
137.3792,106.3694
137.3753,106.3500
Z" /> 
<path style="fill:#000000; fill-opacity:1.0000; stroke:none;fill-rule:evenodd;"
d="M 138.3753,105.7500
138.3792,105.7306
138.3902,105.7141
138.4067,105.7031
138.4261,105.6992
138.8761,105.6992
138.8955,105.7031
138.9120,105.7141
138.9230,105.7306
138.9269,105.7500
138.9269,106.3500
138.9230,106.3694
138.9120,106.3859
138.8955,106.3969
138.8761,106.4008
138.4261,106.4008
138.4067,106.3969
138.3902,106.3859
138.3792,106.3694
138.3753,106.3500
Z" /> 
<path style="fill:#000000; fill-opacity:1.0000; stroke:none;fill-rule:evenodd;"
d="M 128.1769,101.9500
128.1730,101.9694
128.1620,101.9859
128.1455,101.9969
128.1261,102.0008
127.6761,102.0008
127.6567,101.9969
127.6402,101.9859
127.6292,101.9694
127.6253,101.9500
127.6253,101.3500
127.6292,101.3306
127.6402,101.3141
127.6567,101.3031
127.6761,101.2992
128.1261,101.2992
128.1455,101.3031
128.1620,101.3141
128.1730,101.3306
128.1769,101.3500
Z" /> 
<path style="fill:#000000; fill-opacity:1.0000; stroke:none;fill-rule:evenodd;"
d="M 129.1769,101.9500
129.1730,101.9694
129.1620,101.9859
129.1455,101.9969
129.1261,102.0008
128.6761,102.0008
128.6567,101.9969
128.6402,101.9859
128.6292,101.9694
128.6253,101.9500
128.6253,101.3500
128.6292,101.3306
128.6402,101.3141
128.6567,101.3031
128.6761,101.2992
129.1261,101.2992
129.1455,101.3031
129.1620,101.3141
129.1730,101.3306
129.1769,101.3500
Z" /> 
<path style="fill:#000000; fill-opacity:1.0000; stroke:none;fill-rule:evenodd;"
d="M 145.0253,105.7000
145.0292,105.6806
145.0402,105.6641
145.0567,105.6531
145.0761,105.6492
145.5261,105.6492
145.5455,105.6531
145.5620,105.6641
145.5730,105.6806
145.5769,105.7000
145.5769,106.3000
145.5730,106.3194
145.5620,106.3359
145.5455,106.3469
145.5261,106.3508
145.0761,106.3508
145.0567,106.3469
145.0402,106.3359
145.0292,106.3194
145.0253,106.3000
Z" /> 
<path style="fill:#000000; fill-opacity:1.0000; stroke:none;fill-rule:evenodd;"
d="M 146.0253,105.7000
146.0292,105.6806
146.0402,105.6641
146.0567,105.6531
146.0761,105.6492
146.5261,105.6492
146.5455,105.6531
146.5620,105.6641
146.5730,105.6806
146.5769,105.7000
146.5769,106.3000
146.5730,106.3194
146.5620,106.3359
146.5455,106.3469
146.5261,106.3508
146.0761,106.3508
146.0567,106.3469
146.0402,106.3359
146.0292,106.3194
146.0253,106.3000
Z" /> 
<path style="fill:#000000; fill-opacity:1.0000; stroke:none;fill-rule:evenodd;"
d="M 131.8011,99.0742
131.8205,99.0781
131.8370,99.0891
131.8480,99.1056
131.8519,99.1250
131.8519,99.5750
131.8480,99.5944
131.8370,99.6109
131.8205,99.6219
131.8011,99.6258
131.2011,99.6258
131.1817,99.6219
131.1652,99.6109
131.1542,99.5944
131.1503,99.5750
131.1503,99.1250
131.1542,99.1056
131.1652,99.0891
131.1817,99.0781
131.2011,99.0742
Z" /> 
<path style="fill:#000000; fill-opacity:1.0000; stroke:none;fill-rule:evenodd;"
d="M 131.8011,100.0742
131.8205,100.0781
131.8370,100.0891
131.8480,100.1056
131.8519,100.1250
131.8519,100.5750
131.8480,100.5944
131.8370,100.6109
131.8205,100.6219
131.8011,100.6258
131.2011,100.6258
131.1817,100.6219
131.1652,100.6109
131.1542,100.5944
131.1503,100.5750
131.1503,100.1250
131.1542,100.1056
131.1652,100.0891
131.1817,100.0781
131.2011,100.0742
Z" /> 
<path style="fill:#000000; fill-opacity:1.0000; stroke:none;fill-rule:evenodd;"
d="M 136.6769,108.4500
136.6730,108.4694
136.6620,108.4859
136.6455,108.4969
136.6261,108.5008
136.1761,108.5008
136.1567,108.4969
136.1402,108.4859
136.1292,108.4694
136.1253,108.4500
136.1253,107.8500
136.1292,107.8306
136.1402,107.8141
136.1567,107.8031
136.1761,107.7992
136.6261,107.7992
136.6455,107.8031
136.6620,107.8141
136.6730,107.8306
136.6769,107.8500
Z" /> 
<path style="fill:#000000; fill-opacity:1.0000; stroke:none;fill-rule:evenodd;"
d="M 135.6769,108.4500
135.6730,108.4694
135.6620,108.4859
135.6455,108.4969
135.6261,108.5008
135.1761,108.5008
135.1567,108.4969
135.1402,108.4859
135.1292,108.4694
135.1253,108.4500
135.1253,107.8500
135.1292,107.8306
135.1402,107.8141
135.1567,107.8031
135.1761,107.7992
135.6261,107.7992
135.6455,107.8031
135.6620,107.8141
135.6730,107.8306
135.6769,107.8500
Z" /> 
<path style="fill:#000000; fill-opacity:1.0000; stroke:none;fill-rule:evenodd;"
d="M 153.8011,95.9992
153.8205,96.0031
153.8370,96.0141
153.8480,96.0306
153.8519,96.0500
153.8519,96.8500
153.8480,96.8694
153.8370,96.8859
153.8205,96.8969
153.8011,96.9008
153.0011,96.9008
152.9817,96.8969
152.9652,96.8859
152.9542,96.8694
152.9503,96.8500
152.9503,96.0500
152.9542,96.0306
152.9652,96.0141
152.9817,96.0031
153.0011,95.9992
Z" /> 
<path style="fill:#000000; fill-opacity:1.0000; stroke:none;fill-rule:evenodd;"
d="M 153.8011,97.5992
153.8205,97.6031
153.8370,97.6141
153.8480,97.6306
153.8519,97.6500
153.8519,98.4500
153.8480,98.4694
153.8370,98.4859
153.8205,98.4969
153.8011,98.5008
153.0011,98.5008
152.9817,98.4969
152.9652,98.4859
152.9542,98.4694
152.9503,98.4500
152.9503,97.6500
152.9542,97.6306
152.9652,97.6141
152.9817,97.6031
153.0011,97.5992
Z" /> 
<path style="fill:#000000; fill-opacity:1.0000; stroke:none;fill-rule:evenodd;"
d="M 126.1503,119.5500
126.1542,119.5306
126.1652,119.5141
126.1817,119.5031
126.2011,119.4992
130.2011,119.4992
130.2205,119.5031
130.2370,119.5141
130.2480,119.5306
130.2519,119.5500
130.2519,120.5500
130.2480,120.5694
130.2370,120.5859
130.2205,120.5969
130.2011,120.6008
126.2011,120.6008
126.1817,120.5969
126.1652,120.5859
126.1542,120.5694
126.1503,120.5500
Z" /> 
<path style="fill:#000000; fill-opacity:1.0000; stroke:none;fill-rule:evenodd;"
d="M 126.1503,122.3000
126.1542,122.2806
126.1652,122.2641
126.1817,122.2531
126.2011,122.2492
130.2011,122.2492
130.2205,122.2531
130.2370,122.2641
130.2480,122.2806
130.2519,122.3000
130.2519,123.3000
130.2480,123.3194
130.2370,123.3359
130.2205,123.3469
130.2011,123.3508
126.2011,123.3508
126.1817,123.3469
126.1652,123.3359
126.1542,123.3194
126.1503,123.3000
Z" /> 
<path style="fill:#000000; fill-opacity:1.0000; stroke:none;fill-rule:evenodd;"
d="M 126.1503,116.8000
126.1542,116.7806
126.1652,116.7641
126.1817,116.7531
126.2011,116.7492
130.2011,116.7492
130.2205,116.7531
130.2370,116.7641
130.2480,116.7806
130.2519,116.8000
130.2519,117.8000
130.2480,117.8194
130.2370,117.8359
130.2205,117.8469
130.2011,117.8508
126.2011,117.8508
126.1817,117.8469
126.1652,117.8359
126.1542,117.8194
126.1503,117.8000
Z" /> 
<path style="fill:#000000; fill-opacity:1.0000; stroke:none;fill-rule:evenodd;"
d="M 146.7011,118.5258
146.6817,118.5219
146.6652,118.5109
146.6542,118.4944
146.6503,118.4750
146.6503,118.0250
146.6542,118.0056
146.6652,117.9891
146.6817,117.9781
146.7011,117.9742
147.3011,117.9742
147.3205,117.9781
147.3370,117.9891
147.3480,118.0056
147.3519,118.0250
147.3519,118.4750
147.3480,118.4944
147.3370,118.5109
147.3205,118.5219
147.3011,118.5258
Z" /> 
<path style="fill:#000000; fill-opacity:1.0000; stroke:none;fill-rule:evenodd;"
d="M 146.7011,117.5258
146.6817,117.5219
146.6652,117.5109
146.6542,117.4944
146.6503,117.4750
146.6503,117.0250
146.6542,117.0056
146.6652,116.9891
146.6817,116.9781
146.7011,116.9742
147.3011,116.9742
147.3205,116.9781
147.3370,116.9891
147.3480,117.0056
147.3519,117.0250
147.3519,117.4750
147.3480,117.4944
147.3370,117.5109
147.3205,117.5219
147.3011,117.5258
Z" /> 
<path style="fill:#000000; fill-opacity:1.0000; stroke:none;fill-rule:evenodd;"
d="M 135.9769,106.0500
135.9730,106.0694
135.9620,106.0859
135.9455,106.0969
135.9261,106.1008
135.4761,106.1008
135.4567,106.0969
135.4402,106.0859
135.4292,106.0694
135.4253,106.0500
135.4253,105.4500
135.4292,105.4306
135.4402,105.4141
135.4567,105.4031
135.4761,105.3992
135.9261,105.3992
135.9455,105.4031
135.9620,105.4141
135.9730,105.4306
135.9769,105.4500
Z" /> 
<path style="fill:#000000; fill-opacity:1.0000; stroke:none;fill-rule:evenodd;"
d="M 134.9769,106.0500
134.9730,106.0694
134.9620,106.0859
134.9455,106.0969
134.9261,106.1008
134.4761,106.1008
134.4567,106.0969
134.4402,106.0859
134.4292,106.0694
134.4253,106.0500
134.4253,105.4500
134.4292,105.4306
134.4402,105.4141
134.4567,105.4031
134.4761,105.3992
134.9261,105.3992
134.9455,105.4031
134.9620,105.4141
134.9730,105.4306
134.9769,105.4500
Z" /> 
<path style="fill:#000000; fill-opacity:1.0000; stroke:none;fill-rule:evenodd;"
d="M 134.5769,100.3000
134.5730,100.3194
134.5620,100.3359
134.5455,100.3469
134.5261,100.3508
134.0761,100.3508
134.0567,100.3469
134.0402,100.3359
134.0292,100.3194
134.0253,100.3000
134.0253,99.7000
134.0292,99.6806
134.0402,99.6641
134.0567,99.6531
134.0761,99.6492
134.5261,99.6492
134.5455,99.6531
134.5620,99.6641
134.5730,99.6806
134.5769,99.7000
Z" /> 
<path style="fill:#000000; fill-opacity:1.0000; stroke:none;fill-rule:evenodd;"
d="M 133.5769,100.3000
133.5730,100.3194
133.5620,100.3359
133.5455,100.3469
133.5261,100.3508
133.0761,100.3508
133.0567,100.3469
133.0402,100.3359
133.0292,100.3194
133.0253,100.3000
133.0253,99.7000
133.0292,99.6806
133.0402,99.6641
133.0567,99.6531
133.0761,99.6492
133.5261,99.6492
133.5455,99.6531
133.5620,99.6641
133.5730,99.6806
133.5769,99.7000
Z" /> 
<path style="fill:#000000; fill-opacity:1.0000; stroke:none;fill-rule:evenodd;"
d="M 132.7503,102.9000
132.7542,102.8806
132.7652,102.8641
132.7817,102.8531
132.8011,102.8492
133.6011,102.8492
133.6205,102.8531
133.6370,102.8641
133.6480,102.8806
133.6519,102.9000
133.6519,103.7000
133.6480,103.7194
133.6370,103.7359
133.6205,103.7469
133.6011,103.7508
132.8011,103.7508
132.7817,103.7469
132.7652,103.7359
132.7542,103.7194
132.7503,103.7000
Z" /> 
<path style="fill:#000000; fill-opacity:1.0000; stroke:none;fill-rule:evenodd;"
d="M 134.3503,102.9000
134.3542,102.8806
134.3652,102.8641
134.3817,102.8531
134.4011,102.8492
135.2011,102.8492
135.2205,102.8531
135.2370,102.8641
135.2480,102.8806
135.2519,102.9000
135.2519,103.7000
135.2480,103.7194
135.2370,103.7359
135.2205,103.7469
135.2011,103.7508
134.4011,103.7508
134.3817,103.7469
134.3652,103.7359
134.3542,103.7194
134.3503,103.7000
Z" /> 
<path style="fill:#000000; fill-opacity:1.0000; stroke:none;fill-rule:evenodd;"
d="M 147.1269,110.9000
147.1230,110.9194
147.1120,110.9359
147.0955,110.9469
147.0761,110.9508
146.6261,110.9508
146.6067,110.9469
146.5902,110.9359
146.5792,110.9194
146.5753,110.9000
146.5753,110.3000
146.5792,110.2806
146.5902,110.2641
146.6067,110.2531
146.6261,110.2492
147.0761,110.2492
147.0955,110.2531
147.1120,110.2641
147.1230,110.2806
147.1269,110.3000
Z" /> 
<path style="fill:#000000; fill-opacity:1.0000; stroke:none;fill-rule:evenodd;"
d="M 146.1269,110.9000
146.1230,110.9194
146.1120,110.9359
146.0955,110.9469
146.0761,110.9508
145.6261,110.9508
145.6067,110.9469
145.5902,110.9359
145.5792,110.9194
145.5753,110.9000
145.5753,110.3000
145.5792,110.2806
145.5902,110.2641
145.6067,110.2531
145.6261,110.2492
146.0761,110.2492
146.0955,110.2531
146.1120,110.2641
146.1230,110.2806
146.1269,110.3000
Z" /> 
</g> 
</svg>
