<?xml version="1.0" encoding="UTF-8" standalone="no"?>
<svg
   version="1.1"
   width="30.0989mm"
   height="33.691002mm"
   viewBox="0 0 30.0989 33.691002"
   id="svg964"
   sodipodi:docname="max2771_fx2lp-B_Cu.svg"
   inkscape:version="1.2.2 (b0a8486541, 2022-12-01)"
   xmlns:inkscape="http://www.inkscape.org/namespaces/inkscape"
   xmlns:sodipodi="http://sodipodi.sourceforge.net/DTD/sodipodi-0.dtd"
   xmlns="http://www.w3.org/2000/svg"
   xmlns:svg="http://www.w3.org/2000/svg">
  <defs
     id="defs968" />
  <sodipodi:namedview
     id="namedview966"
     pagecolor="#ffffff"
     bordercolor="#000000"
     borderopacity="0.25"
     inkscape:showpageshadow="2"
     inkscape:pageopacity="0.0"
     inkscape:pagecheckerboard="0"
     inkscape:deskcolor="#d1d1d1"
     inkscape:document-units="mm"
     showgrid="false"
     inkscape:zoom="0.29733107"
     inkscape:cx="-68.946713"
     inkscape:cy="57.175323"
     inkscape:window-width="1024"
     inkscape:window-height="723"
     inkscape:window-x="-5"
     inkscape:window-y="-5"
     inkscape:window-maximized="1"
     inkscape:current-layer="svg964" />
  <title
     id="title2">SVG Image created as max2771_fx2lp-B_Cu.svg date 2024/06/13 14:42:14 </title>
  <desc
     id="desc4">Image generated by PCBNEW </desc>
  <g
     style="fill:#000000;fill-opacity:1;stroke:#000000;stroke-linecap:round;stroke-linejoin:round;stroke-opacity:1"
     id="g12"
     transform="translate(-126.2011,-90.3045)">
    <path
       style="fill:#4d7fc4;fill-opacity:1;fill-rule:evenodd;stroke:none"
       d="m 126.2028,97.89 v -1 h 4 v 1 z"
       id="path6" />
    <path
       style="fill:#4d7fc4;fill-opacity:1;fill-rule:evenodd;stroke:none"
       d="m 126.2028,92.39 v -1 h 4 v 1 z"
       id="path8" />
    <path
       style="fill:#4d7fc4;fill-opacity:1;fill-rule:evenodd;stroke:none"
       d="m 153.9111,121.7 h 1.7 v 1.7 h -1.7 z"
       id="path10" />
  </g>
  <g
     style="fill:#4d7fc4;fill-opacity:1;stroke:none"
     id="g58"
     transform="translate(-126.2011,-90.3045)">
    <circle
       cx="154.76109"
       cy="120.01"
       r="0.85000002"
       id="circle14" />
    <circle
       cx="152.2211"
       cy="122.55"
       r="0.85000002"
       id="circle16" />
    <circle
       cx="152.2211"
       cy="120.01"
       r="0.85000002"
       id="circle18" />
    <circle
       cx="149.68111"
       cy="122.55"
       r="0.85000002"
       id="circle20" />
    <circle
       cx="149.68111"
       cy="120.01"
       r="0.85000002"
       id="circle22" />
    <circle
       cx="147.1411"
       cy="122.55"
       r="0.85000002"
       id="circle24" />
    <circle
       cx="147.1411"
       cy="120.01"
       r="0.85000002"
       id="circle26" />
    <circle
       cx="144.6011"
       cy="122.55"
       r="0.85000002"
       id="circle28" />
    <circle
       cx="144.6011"
       cy="120.01"
       r="0.85000002"
       id="circle30" />
    <circle
       cx="142.0611"
       cy="122.55"
       r="0.85000002"
       id="circle32" />
    <circle
       cx="142.0611"
       cy="120.01"
       r="0.85000002"
       id="circle34" />
    <circle
       cx="139.5211"
       cy="122.55"
       r="0.85000002"
       id="circle36" />
    <circle
       cx="139.5211"
       cy="120.01"
       r="0.85000002"
       id="circle38" />
    <circle
       cx="136.98109"
       cy="122.55"
       r="0.85000002"
       id="circle40" />
    <circle
       cx="136.98109"
       cy="120.01"
       r="0.85000002"
       id="circle42" />
    <circle
       cx="134.4411"
       cy="122.55"
       r="0.85000002"
       id="circle44" />
    <circle
       cx="134.4411"
       cy="120.01"
       r="0.85000002"
       id="circle46" />
    <circle
       cx="131.90109"
       cy="122.55"
       r="0.85000002"
       id="circle48" />
    <circle
       cx="131.90109"
       cy="120.01"
       r="0.85000002"
       id="circle50" />
    <path
       style="fill:#4d7fc4;fill-opacity:1;fill-rule:evenodd;stroke:none"
       d="m 130.5511,107.34 v 1.7 h -1.7 v -1.7 z"
       id="path52" />
    <circle
       cx="129.7011"
       cy="105.65"
       r="0.85000002"
       id="circle54" />
    <circle
       cx="139.5011"
       cy="103.65"
       r="0.42899999"
       id="circle56" />
  </g>
  <g
     style="fill:#4d7fc4;fill-opacity:1;stroke:none"
     id="g62"
     transform="translate(-126.2011,-90.3045)">
    <circle
       cx="139.5011"
       cy="102.55"
       r="0.42899999"
       id="circle60" />
  </g>
  <g
     style="fill:#4d7fc4;fill-opacity:1;stroke:none"
     id="g66"
     transform="translate(-126.2011,-90.3045)">
    <circle
       cx="139.5011"
       cy="101.45"
       r="0.42899999"
       id="circle64" />
  </g>
  <g
     style="fill:#4d7fc4;fill-opacity:1;stroke:none"
     id="g70"
     transform="translate(-126.2011,-90.3045)">
    <circle
       cx="138.40109"
       cy="103.65"
       r="0.42899999"
       id="circle68" />
  </g>
  <g
     style="fill:#4d7fc4;fill-opacity:1;stroke:none"
     id="g74"
     transform="translate(-126.2011,-90.3045)">
    <circle
       cx="138.40109"
       cy="102.55"
       r="0.42899999"
       id="circle72" />
  </g>
  <g
     style="fill:#4d7fc4;fill-opacity:1;stroke:none"
     id="g78"
     transform="translate(-126.2011,-90.3045)">
    <circle
       cx="138.40109"
       cy="101.45"
       r="0.42899999"
       id="circle76" />
  </g>
  <g
     style="fill:#4d7fc4;fill-opacity:1;stroke:none"
     id="g82"
     transform="translate(-126.2011,-90.3045)">
    <circle
       cx="137.3011"
       cy="103.65"
       r="0.42899999"
       id="circle80" />
  </g>
  <g
     style="fill:#4d7fc4;fill-opacity:1;stroke:none"
     id="g86"
     transform="translate(-126.2011,-90.3045)">
    <circle
       cx="137.3011"
       cy="102.55"
       r="0.42899999"
       id="circle84" />
  </g>
  <g
     style="fill:#4d7fc4;fill-opacity:1;stroke:none"
     id="g90"
     transform="translate(-126.2011,-90.3045)">
    <circle
       cx="137.3011"
       cy="101.45"
       r="0.42899999"
       id="circle88" />
  </g>
  <g
     style="fill:#4d7fc4;fill-opacity:1;stroke:none"
     id="g94"
     transform="translate(-126.2011,-90.3045)">
    <circle
       cx="142.5011"
       cy="110.55"
       r="0.42899999"
       id="circle92" />
  </g>
  <g
     style="fill:#4d7fc4;fill-opacity:1;stroke:none"
     id="g98"
     transform="translate(-126.2011,-90.3045)">
    <circle
       cx="142.5011"
       cy="109.45"
       r="0.42899999"
       id="circle96" />
  </g>
  <g
     style="fill:#4d7fc4;fill-opacity:1;stroke:none"
     id="g102"
     transform="translate(-126.2011,-90.3045)">
    <circle
       cx="142.5011"
       cy="108.35"
       r="0.42899999"
       id="circle100" />
  </g>
  <g
     style="fill:#4d7fc4;fill-opacity:1;stroke:none"
     id="g106"
     transform="translate(-126.2011,-90.3045)">
    <circle
       cx="141.40109"
       cy="110.55"
       r="0.42899999"
       id="circle104" />
  </g>
  <g
     style="fill:#4d7fc4;fill-opacity:1;stroke:none"
     id="g110"
     transform="translate(-126.2011,-90.3045)">
    <circle
       cx="141.40109"
       cy="109.45"
       r="0.42899999"
       id="circle108" />
  </g>
  <g
     style="fill:#4d7fc4;fill-opacity:1;stroke:none"
     id="g114"
     transform="translate(-126.2011,-90.3045)">
    <circle
       cx="141.40109"
       cy="108.35"
       r="0.42899999"
       id="circle112" />
  </g>
  <g
     style="fill:#4d7fc4;fill-opacity:1;stroke:none"
     id="g118"
     transform="translate(-126.2011,-90.3045)">
    <circle
       cx="140.3011"
       cy="110.55"
       r="0.42899999"
       id="circle116" />
  </g>
  <g
     style="fill:#4d7fc4;fill-opacity:1;stroke:none"
     id="g122"
     transform="translate(-126.2011,-90.3045)">
    <circle
       cx="140.3011"
       cy="109.45"
       r="0.42899999"
       id="circle120" />
  </g>
  <g
     style="fill:#4d7fc4;fill-opacity:1;stroke:none"
     id="g132"
     transform="translate(-126.2011,-90.3045)">
    <circle
       cx="140.3011"
       cy="108.35"
       r="0.42899999"
       id="circle124" />
    <path
       style="fill:#4d7fc4;fill-opacity:1;fill-rule:evenodd;stroke:none"
       d="m 156.2511,97.45 v 1 h -4 v -1 z"
       id="path126" />
    <path
       style="fill:#4d7fc4;fill-opacity:1;fill-rule:evenodd;stroke:none"
       d="m 156.2511,102.95 v 1 h -4 v -1 z"
       id="path128" />
    <path
       style="fill:#4d7fc4;fill-opacity:1;fill-rule:evenodd;stroke:none"
       d="m 153.9311,93.7 h 1.7 v 1.7 h -1.7 z"
       id="path130" />
  </g>
  <g
     style="fill:#4d7fc4;fill-opacity:1;stroke:none"
     id="g186"
     transform="translate(-126.2011,-90.3045)">
    <circle
       cx="154.7811"
       cy="92.010002"
       r="0.85000002"
       id="circle134" />
    <circle
       cx="152.2411"
       cy="94.550003"
       r="0.85000002"
       id="circle136" />
    <circle
       cx="152.2411"
       cy="92.010002"
       r="0.85000002"
       id="circle138" />
    <circle
       cx="149.7011"
       cy="94.550003"
       r="0.85000002"
       id="circle140" />
    <circle
       cx="149.7011"
       cy="92.010002"
       r="0.85000002"
       id="circle142" />
    <circle
       cx="147.1611"
       cy="94.550003"
       r="0.85000002"
       id="circle144" />
    <circle
       cx="147.1611"
       cy="92.010002"
       r="0.85000002"
       id="circle146" />
    <circle
       cx="144.62109"
       cy="94.550003"
       r="0.85000002"
       id="circle148" />
    <circle
       cx="144.62109"
       cy="92.010002"
       r="0.85000002"
       id="circle150" />
    <circle
       cx="142.0811"
       cy="94.550003"
       r="0.85000002"
       id="circle152" />
    <circle
       cx="142.0811"
       cy="92.010002"
       r="0.85000002"
       id="circle154" />
    <circle
       cx="139.54111"
       cy="94.550003"
       r="0.85000002"
       id="circle156" />
    <circle
       cx="139.54111"
       cy="92.010002"
       r="0.85000002"
       id="circle158" />
    <circle
       cx="137.0011"
       cy="94.550003"
       r="0.85000002"
       id="circle160" />
    <circle
       cx="137.0011"
       cy="92.010002"
       r="0.85000002"
       id="circle162" />
    <circle
       cx="134.46111"
       cy="94.550003"
       r="0.85000002"
       id="circle164" />
    <circle
       cx="134.46111"
       cy="92.010002"
       r="0.85000002"
       id="circle166" />
    <circle
       cx="131.9211"
       cy="94.550003"
       r="0.85000002"
       id="circle168" />
    <circle
       cx="131.9211"
       cy="92.010002"
       r="0.85000002"
       id="circle170" />
    <path
       style="fill:#4d7fc4;fill-opacity:1;fill-rule:evenodd;stroke:none"
       d="m 153.4011,107.04 v -1.7 h 1.7 v 1.7 z"
       id="path172" />
    <circle
       cx="154.2511"
       cy="108.73"
       r="0.85000002"
       id="circle174" />
    <circle
       cx="154.2511"
       cy="111.27"
       r="0.85000002"
       id="circle176" />
    <circle
       cx="154.2511"
       cy="113.81"
       r="0.85000002"
       id="circle178" />
    <circle
       cx="154.2511"
       cy="116.35"
       r="0.85000002"
       id="circle180" />
    <path
       style="fill:#4d7fc4;fill-opacity:1;fill-rule:evenodd;stroke:none"
       d="m 126.2011,123.3 v -1 h 4 v 1 z"
       id="path182" />
    <path
       style="fill:#4d7fc4;fill-opacity:1;fill-rule:evenodd;stroke:none"
       d="m 126.2011,117.8 v -1 h 4 v 1 z"
       id="path184" />
  </g>
  <g
     style="fill:#ececec;fill-opacity:1;stroke:none"
     id="g190"
     transform="translate(-126.2011,-90.3045)">
    <circle
       cx="133.7011"
       cy="107.65"
       r="0.3274"
       id="circle188" />
  </g>
  <g
     style="fill:#ececec;fill-opacity:1;stroke:none"
     id="g194"
     transform="translate(-126.2011,-90.3045)">
    <circle
       cx="134.5011"
       cy="109"
       r="0.3274"
       id="circle192" />
  </g>
  <g
     style="fill:#ececec;fill-opacity:1;stroke:none"
     id="g198"
     transform="translate(-126.2011,-90.3045)">
    <circle
       cx="133.6011"
       cy="104.25"
       r="0.3274"
       id="circle196" />
  </g>
  <g
     style="fill:#ececec;fill-opacity:1;stroke:none"
     id="g202"
     transform="translate(-126.2011,-90.3045)">
    <circle
       cx="132.3011"
       cy="100.85"
       r="0.3274"
       id="circle200" />
  </g>
  <g
     style="fill:#ececec;fill-opacity:1;stroke:none"
     id="g206"
     transform="translate(-126.2011,-90.3045)">
    <circle
       cx="130.8011"
       cy="117.85"
       r="0.3274"
       id="circle204" />
  </g>
  <g
     style="fill:#ececec;fill-opacity:1;stroke:none"
     id="g210"
     transform="translate(-126.2011,-90.3045)">
    <circle
       cx="134.90109"
       cy="115.4"
       r="0.3274"
       id="circle208" />
  </g>
  <g
     style="fill:#ececec;fill-opacity:1;stroke:none"
     id="g214"
     transform="translate(-126.2011,-90.3045)">
    <circle
       cx="136.15109"
       cy="109.05"
       r="0.3274"
       id="circle212" />
  </g>
  <g
     style="fill:#ececec;fill-opacity:1;stroke:none"
     id="g218"
     transform="translate(-126.2011,-90.3045)">
    <circle
       cx="132.3407"
       cy="117.0673"
       r="0.3274"
       id="circle216" />
  </g>
  <g
     style="fill:#ececec;fill-opacity:1;stroke:none"
     id="g222"
     transform="translate(-126.2011,-90.3045)">
    <circle
       cx="139.90109"
       cy="114.05"
       r="0.3274"
       id="circle220" />
  </g>
  <g
     style="fill:#ececec;fill-opacity:1;stroke:none"
     id="g226"
     transform="translate(-126.2011,-90.3045)">
    <circle
       cx="132.40109"
       cy="109.95"
       r="0.3274"
       id="circle224" />
  </g>
  <g
     style="fill:#ececec;fill-opacity:1;stroke:none"
     id="g230"
     transform="translate(-126.2011,-90.3045)">
    <circle
       cx="143.8511"
       cy="98.900002"
       r="0.3274"
       id="circle228" />
  </g>
  <g
     style="fill:#ececec;fill-opacity:1;stroke:none"
     id="g234"
     transform="translate(-126.2011,-90.3045)">
    <circle
       cx="132.3727"
       cy="117.9634"
       r="0.3274"
       id="circle232" />
  </g>
  <g
     style="fill:#ececec;fill-opacity:1;stroke:none"
     id="g238"
     transform="translate(-126.2011,-90.3045)">
    <circle
       cx="134.5011"
       cy="108.15"
       r="0.3274"
       id="circle236" />
  </g>
  <g
     style="fill:#ececec;fill-opacity:1;stroke:none"
     id="g242"
     transform="translate(-126.2011,-90.3045)">
    <circle
       cx="130.7011"
       cy="100.85"
       r="0.3274"
       id="circle240" />
  </g>
  <g
     style="fill:#ececec;fill-opacity:1;stroke:none"
     id="g246"
     transform="translate(-126.2011,-90.3045)">
    <circle
       cx="150.40109"
       cy="107.15"
       r="0.3274"
       id="circle244" />
  </g>
  <g
     style="fill:#ececec;fill-opacity:1;stroke:none"
     id="g250"
     transform="translate(-126.2011,-90.3045)">
    <circle
       cx="133.5011"
       cy="115.85"
       r="0.3274"
       id="circle248" />
  </g>
  <g
     style="fill:#ececec;fill-opacity:1;stroke:none"
     id="g254"
     transform="translate(-126.2011,-90.3045)">
    <circle
       cx="141.2011"
       cy="98.349998"
       r="0.3274"
       id="circle252" />
  </g>
  <g
     style="fill:#ececec;fill-opacity:1;stroke:none"
     id="g258"
     transform="translate(-126.2011,-90.3045)">
    <circle
       cx="136.40331"
       cy="107.2502"
       r="0.3274"
       id="circle256" />
  </g>
  <g
     style="fill:#ececec;fill-opacity:1;stroke:none"
     id="g262"
     transform="translate(-126.2011,-90.3045)">
    <circle
       cx="130.90109"
       cy="113.95"
       r="0.3274"
       id="circle260" />
  </g>
  <g
     style="fill:#ececec;fill-opacity:1;stroke:none"
     id="g266"
     transform="translate(-126.2011,-90.3045)">
    <circle
       cx="148.5649"
       cy="114.1"
       r="0.3274"
       id="circle264" />
  </g>
  <g
     style="fill:#ececec;fill-opacity:1;stroke:none"
     id="g270"
     transform="translate(-126.2011,-90.3045)">
    <circle
       cx="132.3011"
       cy="96.75"
       r="0.3274"
       id="circle268" />
  </g>
  <g
     style="fill:#ececec;fill-opacity:1;stroke:none"
     id="g274"
     transform="translate(-126.2011,-90.3045)">
    <circle
       cx="127.7011"
       cy="118.65"
       r="0.3274"
       id="circle272" />
  </g>
  <g
     style="fill:#ececec;fill-opacity:1;stroke:none"
     id="g278"
     transform="translate(-126.2011,-90.3045)">
    <circle
       cx="130.90109"
       cy="113.05"
       r="0.3274"
       id="circle276" />
  </g>
  <g
     style="fill:#ececec;fill-opacity:1;stroke:none"
     id="g282"
     transform="translate(-126.2011,-90.3045)">
    <circle
       cx="135.2511"
       cy="112.95"
       r="0.3274"
       id="circle280" />
  </g>
  <g
     style="fill:#ececec;fill-opacity:1;stroke:none"
     id="g286"
     transform="translate(-126.2011,-90.3045)">
    <circle
       cx="131.7011"
       cy="110.45"
       r="0.3274"
       id="circle284" />
  </g>
  <g
     style="fill:#ececec;fill-opacity:1;stroke:none"
     id="g290"
     transform="translate(-126.2011,-90.3045)">
    <circle
       cx="130.7213"
       cy="96.75"
       r="0.3274"
       id="circle288" />
  </g>
  <g
     style="fill:#ececec;fill-opacity:1;stroke:none"
     id="g294"
     transform="translate(-126.2011,-90.3045)">
    <circle
       cx="132.3011"
       cy="98.349998"
       r="0.3274"
       id="circle292" />
  </g>
  <g
     style="fill:#ececec;fill-opacity:1;stroke:none"
     id="g298"
     transform="translate(-126.2011,-90.3045)">
    <circle
       cx="130.7011"
       cy="101.85"
       r="0.3274"
       id="circle296" />
  </g>
  <g
     style="fill:#ececec;fill-opacity:1;stroke:none"
     id="g302"
     transform="translate(-126.2011,-90.3045)">
    <circle
       cx="148.5649"
       cy="110.55"
       r="0.3274"
       id="circle300" />
  </g>
  <g
     style="fill:#ececec;fill-opacity:1;stroke:none"
     id="g306"
     transform="translate(-126.2011,-90.3045)">
    <circle
       cx="130.7011"
       cy="98.349998"
       r="0.3274"
       id="circle304" />
  </g>
  <g
     style="fill:#ececec;fill-opacity:1;stroke:none"
     id="g310"
     transform="translate(-126.2011,-90.3045)">
    <circle
       cx="148.4511"
       cy="104.45"
       r="0.3274"
       id="circle308" />
  </g>
  <g
     style="fill:#ececec;fill-opacity:1;stroke:none"
     id="g314"
     transform="translate(-126.2011,-90.3045)">
    <circle
       cx="146.2011"
       cy="113.85"
       r="0.3274"
       id="circle312" />
  </g>
  <g
     style="fill:#ececec;fill-opacity:1;stroke:none"
     id="g318"
     transform="translate(-126.2011,-90.3045)">
    <circle
       cx="148.5649"
       cy="113.182"
       r="0.3274"
       id="circle316" />
  </g>
  <g
     style="fill:#ececec;fill-opacity:1;stroke:none"
     id="g322"
     transform="translate(-126.2011,-90.3045)">
    <circle
       cx="146.7011"
       cy="97.800003"
       r="0.3274"
       id="circle320" />
  </g>
  <g
     style="fill:#ececec;fill-opacity:1;stroke:none"
     id="g326"
     transform="translate(-126.2011,-90.3045)">
    <circle
       cx="133.6011"
       cy="105.05"
       r="0.3274"
       id="circle324" />
  </g>
  <g
     style="fill:#ececec;fill-opacity:1;stroke:none"
     id="g330"
     transform="translate(-126.2011,-90.3045)">
    <circle
       cx="133.7011"
       cy="106.75"
       r="0.3274"
       id="circle328" />
  </g>
  <g
     style="fill:#ececec;fill-opacity:1;stroke:none"
     id="g334"
     transform="translate(-126.2011,-90.3045)">
    <circle
       cx="146.2011"
       cy="112.85"
       r="0.3274"
       id="circle332" />
  </g>
  <g
     style="fill:#ececec;fill-opacity:1;stroke:none"
     id="g338"
     transform="translate(-126.2011,-90.3045)">
    <circle
       cx="133.3511"
       cy="112.75"
       r="0.3274"
       id="circle336" />
  </g>
  <g
     style="fill:#ececec;fill-opacity:1;stroke:none"
     id="g342"
     transform="translate(-126.2011,-90.3045)">
    <circle
       cx="131.8011"
       cy="104.25"
       r="0.3274"
       id="circle340" />
  </g>
  <g
     style="fill:#ececec;fill-opacity:1;stroke:none"
     id="g346"
     transform="translate(-126.2011,-90.3045)">
    <circle
       cx="145.6011"
       cy="104.45"
       r="0.3274"
       id="circle344" />
  </g>
  <g
     style="fill:#ececec;fill-opacity:1;stroke:none"
     id="g350"
     transform="translate(-126.2011,-90.3045)">
    <circle
       cx="133.8011"
       cy="109.25"
       r="0.3274"
       id="circle348" />
  </g>
  <g
     style="fill:#ececec;fill-opacity:1;stroke:none"
     id="g354"
     transform="translate(-126.2011,-90.3045)">
    <circle
       cx="145.7511"
       cy="97.800003"
       r="0.3274"
       id="circle352" />
  </g>
  <g
     style="fill:#ececec;fill-opacity:1;stroke:none"
     id="g358"
     transform="translate(-126.2011,-90.3045)">
    <circle
       cx="147.2011"
       cy="104.45"
       r="0.3274"
       id="circle356" />
  </g>
  <g
     style="fill:#ececec;fill-opacity:1;stroke:none"
     id="g362"
     transform="translate(-126.2011,-90.3045)">
    <circle
       cx="130.7011"
       cy="97.550003"
       r="0.3274"
       id="circle360" />
  </g>
  <g
     style="fill:#ececec;fill-opacity:1;stroke:none"
     id="g366"
     transform="translate(-126.2011,-90.3045)">
    <circle
       cx="132.3011"
       cy="97.550003"
       r="0.3274"
       id="circle364" />
  </g>
  <g
     style="fill:#ececec;fill-opacity:1;stroke:none"
     id="g370"
     transform="translate(-126.2011,-90.3045)">
    <circle
       cx="132.3161"
       cy="112.0544"
       r="0.3274"
       id="circle368" />
  </g>
  <g
     style="fill:#ececec;fill-opacity:1;stroke:none"
     id="g374"
     transform="translate(-126.2011,-90.3045)">
    <circle
       cx="136.44099"
       cy="106.2313"
       r="0.3274"
       id="circle372" />
  </g>
  <g
     style="fill:#ececec;fill-opacity:1;stroke:none"
     id="g378"
     transform="translate(-126.2011,-90.3045)">
    <circle
       cx="143.3011"
       cy="97.800003"
       r="0.3274"
       id="circle376" />
  </g>
  <g
     style="fill:#ececec;fill-opacity:1;stroke:none"
     id="g382"
     transform="translate(-126.2011,-90.3045)">
    <circle
       cx="135.7511"
       cy="114.1"
       r="0.3274"
       id="circle380" />
  </g>
  <g
     style="fill:#ececec;fill-opacity:1;stroke:none"
     id="g386"
     transform="translate(-126.2011,-90.3045)">
    <circle
       cx="130.8011"
       cy="117.05"
       r="0.3274"
       id="circle384" />
  </g>
  <g
     style="fill:#ececec;fill-opacity:1;stroke:none"
     id="g390"
     transform="translate(-126.2011,-90.3045)">
    <circle
       cx="133.7011"
       cy="105.95"
       r="0.3274"
       id="circle388" />
  </g>
  <g
     style="fill:#ececec;fill-opacity:1;stroke:none"
     id="g394"
     transform="translate(-126.2011,-90.3045)">
    <circle
       cx="135.3511"
       cy="109.05"
       r="0.3274"
       id="circle392" />
  </g>
  <g
     style="fill:#ececec;fill-opacity:1;stroke:none"
     id="g398"
     transform="translate(-126.2011,-90.3045)">
    <circle
       cx="134.0011"
       cy="114.1"
       r="0.3274"
       id="circle396" />
  </g>
  <g
     style="fill:#ececec;fill-opacity:1;stroke:none"
     id="g402"
     transform="translate(-126.2011,-90.3045)">
    <circle
       cx="132.3011"
       cy="99.150002"
       r="0.3274"
       id="circle400" />
  </g>
  <g
     style="fill:#ececec;fill-opacity:1;stroke:none"
     id="g406"
     transform="translate(-126.2011,-90.3045)">
    <circle
       cx="134.3011"
       cy="111.35"
       r="0.3274"
       id="circle404" />
  </g>
  <g
     style="fill:#ececec;fill-opacity:1;stroke:none"
     id="g410"
     transform="translate(-126.2011,-90.3045)">
    <circle
       cx="148.4511"
       cy="98.900002"
       r="0.3274"
       id="circle408" />
  </g>
  <g
     style="fill:#ececec;fill-opacity:1;stroke:none"
     id="g414"
     transform="translate(-126.2011,-90.3045)">
    <circle
       cx="144.1011"
       cy="97.800003"
       r="0.3274"
       id="circle412" />
  </g>
  <g
     style="fill:#ececec;fill-opacity:1;stroke:none"
     id="g418"
     transform="translate(-126.2011,-90.3045)">
    <circle
       cx="148.4511"
       cy="99.949997"
       r="0.3274"
       id="circle416" />
  </g>
  <g
     style="fill:#ececec;fill-opacity:1;stroke:none"
     id="g422"
     transform="translate(-126.2011,-90.3045)">
    <circle
       cx="135.1011"
       cy="111.35"
       r="0.3274"
       id="circle420" />
  </g>
  <g
     style="fill:#ececec;fill-opacity:1;stroke:none"
     id="g426"
     transform="translate(-126.2011,-90.3045)">
    <circle
       cx="144.90109"
       cy="97.800003"
       r="0.3274"
       id="circle424" />
  </g>
  <g
     style="fill:#ececec;fill-opacity:1;stroke:none"
     id="g430"
     transform="translate(-126.2011,-90.3045)">
    <circle
       cx="131.1011"
       cy="111.25"
       r="0.3274"
       id="circle428" />
  </g>
  <g
     style="fill:#ececec;fill-opacity:1;stroke:none"
     id="g434"
     transform="translate(-126.2011,-90.3045)">
    <circle
       cx="135.90109"
       cy="111.35"
       r="0.3274"
       id="circle432" />
  </g>
  <g
     style="fill:#ececec;fill-opacity:1;stroke:none"
     id="g438"
     transform="translate(-126.2011,-90.3045)">
    <circle
       cx="148.5649"
       cy="112.25"
       r="0.3274"
       id="circle436" />
  </g>
  <g
     style="fill:#ececec;fill-opacity:1;stroke:none"
     id="g442"
     transform="translate(-126.2011,-90.3045)">
    <circle
       cx="130.7011"
       cy="99.949997"
       r="0.3274"
       id="circle440" />
  </g>
  <g
     style="fill:#ececec;fill-opacity:1;stroke:none"
     id="g446"
     transform="translate(-126.2011,-90.3045)">
    <circle
       cx="130.7011"
       cy="103.55"
       r="0.3274"
       id="circle444" />
  </g>
  <g
     style="fill:#ececec;fill-opacity:1;stroke:none"
     id="g450"
     transform="translate(-126.2011,-90.3045)">
    <circle
       cx="144.5632"
       cy="102.3338"
       r="0.3274"
       id="circle448" />
  </g>
  <g
     style="fill:#ececec;fill-opacity:1;stroke:none"
     id="g454"
     transform="translate(-126.2011,-90.3045)">
    <circle
       cx="148.4511"
       cy="97.800003"
       r="0.3274"
       id="circle452" />
  </g>
  <g
     style="fill:#ececec;fill-opacity:1;stroke:none"
     id="g458"
     transform="translate(-126.2011,-90.3045)">
    <circle
       cx="132.7011"
       cy="104.25"
       r="0.3274"
       id="circle456" />
  </g>
  <g
     style="fill:#ececec;fill-opacity:1;stroke:none"
     id="g462"
     transform="translate(-126.2011,-90.3045)">
    <circle
       cx="148.4511"
       cy="105.5"
       r="0.3274"
       id="circle460" />
  </g>
  <g
     style="fill:#ececec;fill-opacity:1;stroke:none"
     id="g466"
     transform="translate(-126.2011,-90.3045)">
    <circle
       cx="134.90109"
       cy="114.1"
       r="0.3274"
       id="circle464" />
  </g>
  <g
     style="fill:#ececec;fill-opacity:1;stroke:none"
     id="g470"
     transform="translate(-126.2011,-90.3045)">
    <circle
       cx="133.1011"
       cy="109.55"
       r="0.3274"
       id="circle468" />
  </g>
  <g
     style="fill:#ececec;fill-opacity:1;stroke:none"
     id="g474"
     transform="translate(-126.2011,-90.3045)">
    <circle
       cx="133.0511"
       cy="114.1"
       r="0.3274"
       id="circle472" />
  </g>
  <g
     style="fill:#ececec;fill-opacity:1;stroke:none"
     id="g478"
     transform="translate(-126.2011,-90.3045)">
    <circle
       cx="142.90109"
       cy="112.95"
       r="0.3274"
       id="circle476" />
  </g>
  <g
     style="fill:#ececec;fill-opacity:1;stroke:none"
     id="g482"
     transform="translate(-126.2011,-90.3045)">
    <circle
       cx="142.90109"
       cy="114.05"
       r="0.3274"
       id="circle480" />
  </g>
  <g
     style="fill:#ececec;fill-opacity:1;stroke:none"
     id="g486"
     transform="translate(-126.2011,-90.3045)">
    <circle
       cx="132.2587"
       cy="112.95"
       r="0.3274"
       id="circle484" />
  </g>
  <g
     style="fill:#ececec;fill-opacity:1;stroke:none"
     id="g490"
     transform="translate(-126.2011,-90.3045)">
    <circle
       cx="133.3011"
       cy="116.65"
       r="0.3274"
       id="circle488" />
  </g>
  <g
     style="fill:#ececec;fill-opacity:1;stroke:none"
     id="g494"
     transform="translate(-126.2011,-90.3045)">
    <circle
       cx="130.7011"
       cy="102.75"
       r="0.3274"
       id="circle492" />
  </g>
  <g
     style="fill:#ececec;fill-opacity:1;stroke:none"
     id="g498"
     transform="translate(-126.2011,-90.3045)">
    <circle
       cx="132.3011"
       cy="99.949997"
       r="0.3274"
       id="circle496" />
  </g>
  <g
     style="fill:#ececec;fill-opacity:1;stroke:none"
     id="g502"
     transform="translate(-126.2011,-90.3045)">
    <circle
       cx="145.2011"
       cy="111.8"
       r="0.3274"
       id="circle500" />
  </g>
  <g
     style="fill:#ececec;fill-opacity:1;stroke:none"
     id="g506"
     transform="translate(-126.2011,-90.3045)">
    <circle
       cx="130.90109"
       cy="112.15"
       r="0.3274"
       id="circle504" />
  </g>
  <g
     style="fill:#ececec;fill-opacity:1;stroke:none"
     id="g510"
     transform="translate(-126.2011,-90.3045)">
    <circle
       cx="136.7011"
       cy="111.35"
       r="0.3274"
       id="circle508" />
  </g>
  <g
     style="fill:#ececec;fill-opacity:1;stroke:none"
     id="g514"
     transform="translate(-126.2011,-90.3045)">
    <circle
       cx="132.2587"
       cy="113.95"
       r="0.3274"
       id="circle512" />
  </g>
  <g
     style="fill:#ececec;fill-opacity:1;stroke:none"
     id="g518"
     transform="translate(-126.2011,-90.3045)">
    <circle
       cx="127.7011"
       cy="121.45"
       r="0.3274"
       id="circle516" />
  </g>
  <g
     style="fill:#ececec;fill-opacity:1;stroke:none"
     id="g522"
     transform="translate(-126.2011,-90.3045)">
    <circle
       cx="147.6011"
       cy="97.800003"
       r="0.3274"
       id="circle520" />
  </g>
  <g
     style="fill:#ececec;fill-opacity:1;stroke:none"
     id="g526"
     transform="translate(-126.2011,-90.3045)">
    <circle
       cx="148.5649"
       cy="111.35"
       r="0.3274"
       id="circle524" />
  </g>
  <g
     style="fill:#ececec;fill-opacity:1;stroke:none"
     id="g530"
     transform="translate(-126.2011,-90.3045)">
    <circle
       cx="147.2011"
       cy="105.35"
       r="0.3274"
       id="circle528" />
  </g>
  <g
     style="fill:#ececec;fill-opacity:1;stroke:none"
     id="g534"
     transform="translate(-126.2011,-90.3045)">
    <circle
       cx="143.5511"
       cy="111.8"
       r="0.3274"
       id="circle532" />
  </g>
  <g
     style="fill:#ececec;fill-opacity:1;stroke:none"
     id="g538"
     transform="translate(-126.2011,-90.3045)">
    <circle
       cx="144.0511"
       cy="115.0606"
       r="0.3274"
       id="circle536" />
  </g>
  <g
     style="fill:#ececec;fill-opacity:1;stroke:none"
     id="g542"
     transform="translate(-126.2011,-90.3045)">
    <circle
       cx="136.5"
       cy="96.846397"
       r="0.3274"
       id="circle540" />
  </g>
  <g
     style="fill:#ececec;fill-opacity:1;stroke:none"
     id="g546"
     transform="translate(-126.2011,-90.3045)">
    <circle
       cx="142.60001"
       cy="96.846397"
       r="0.3274"
       id="circle544" />
  </g>
  <g
     style="fill:#ececec;fill-opacity:1;stroke:none"
     id="g550"
     transform="translate(-126.2011,-90.3045)">
    <circle
       cx="146.40109"
       cy="103.65"
       r="0.3274"
       id="circle548" />
  </g>
  <g
     style="fill:#ececec;fill-opacity:1;stroke:none"
     id="g554"
     transform="translate(-126.2011,-90.3045)">
    <circle
       cx="136.1011"
       cy="104.95"
       r="0.3274"
       id="circle552" />
  </g>
  <g
     style="fill:#ececec;fill-opacity:1;stroke:none"
     id="g558"
     transform="translate(-126.2011,-90.3045)">
    <circle
       cx="140.5748"
       cy="104.6737"
       r="0.3274"
       id="circle556" />
  </g>
  <g
     style="fill:#ececec;fill-opacity:1;stroke:none"
     id="g562"
     transform="translate(-126.2011,-90.3045)">
    <circle
       cx="141.6129"
       cy="103.6382"
       r="0.3274"
       id="circle560" />
  </g>
  <g
     style="fill:#ececec;fill-opacity:1;stroke:none"
     id="g566"
     transform="translate(-126.2011,-90.3045)">
    <circle
       cx="138"
       cy="115.0464"
       r="0.3274"
       id="circle564" />
  </g>
  <g
     style="fill:#ececec;fill-opacity:1;stroke:none"
     id="g570"
     transform="translate(-126.2011,-90.3045)">
    <circle
       cx="144.6011"
       cy="110.506"
       r="0.3274"
       id="circle568" />
  </g>
  <g
     style="fill:#ececec;fill-opacity:1;stroke:none"
     id="g574"
     transform="translate(-126.2011,-90.3045)">
    <circle
       cx="144.6841"
       cy="109.1202"
       r="0.3274"
       id="circle572" />
  </g>
  <g
     style="fill:#ececec;fill-opacity:1;stroke:none"
     id="g578"
     transform="translate(-126.2011,-90.3045)">
    <circle
       cx="141.7011"
       cy="102.4945"
       r="0.3274"
       id="circle576" />
  </g>
  <g
     style="fill:#ececec;fill-opacity:1;stroke:none"
     id="g582"
     transform="translate(-126.2011,-90.3045)">
    <circle
       cx="138.99921"
       cy="98.371399"
       r="0.3274"
       id="circle580" />
  </g>
  <g
     style="fill:#ececec;fill-opacity:1;stroke:none"
     id="g586"
     transform="translate(-126.2011,-90.3045)">
    <circle
       cx="138.5011"
       cy="97.736198"
       r="0.3274"
       id="circle584" />
  </g>
  <g
     style="fill:#ececec;fill-opacity:1;stroke:none"
     id="g590"
     transform="translate(-126.2011,-90.3045)">
    <circle
       cx="150.9511"
       cy="107.9"
       r="0.3274"
       id="circle588" />
  </g>
  <g
     style="fill:#ececec;fill-opacity:1;stroke:none"
     id="g594"
     transform="translate(-126.2011,-90.3045)">
    <circle
       cx="145.2393"
       cy="102.7749"
       r="0.3274"
       id="circle592" />
  </g>
  <g
     style="fill:#ececec;fill-opacity:1;stroke:none"
     id="g598"
     transform="translate(-126.2011,-90.3045)">
    <circle
       cx="150.9511"
       cy="112.2"
       r="0.3274"
       id="circle596" />
  </g>
  <g
     style="fill:#ececec;fill-opacity:1;stroke:none"
     id="g602"
     transform="translate(-126.2011,-90.3045)">
    <circle
       cx="147.6451"
       cy="109.2152"
       r="0.3274"
       id="circle600" />
  </g>
  <g
     style="fill:#ececec;fill-opacity:1;stroke:none"
     id="g606"
     transform="translate(-126.2011,-90.3045)">
    <circle
       cx="136.6011"
       cy="114.05"
       r="0.3274"
       id="circle604" />
  </g>
  <g
     style="fill:#ececec;fill-opacity:1;stroke:none"
     id="g610"
     transform="translate(-126.2011,-90.3045)">
    <circle
       cx="140.0011"
       cy="115.9468"
       r="0.3274"
       id="circle608" />
  </g>
  <g
     style="fill:#ececec;fill-opacity:1;stroke:none"
     id="g614"
     transform="translate(-126.2011,-90.3045)">
    <circle
       cx="137.5011"
       cy="108.45"
       r="0.3274"
       id="circle612" />
  </g>
  <g
     style="fill:#ececec;fill-opacity:1;stroke:none"
     id="g618"
     transform="translate(-126.2011,-90.3045)">
    <circle
       cx="142.11681"
       cy="106.0947"
       r="0.3274"
       id="circle616" />
  </g>
  <g
     style="fill:#ececec;fill-opacity:1;stroke:none"
     id="g622"
     transform="translate(-126.2011,-90.3045)">
    <circle
       cx="141.8497"
       cy="105.333"
       r="0.3274"
       id="circle620" />
  </g>
  <g
     style="fill:#ececec;fill-opacity:1;stroke:none"
     id="g626"
     transform="translate(-126.2011,-90.3045)">
    <circle
       cx="141.40829"
       cy="100.15"
       r="0.3274"
       id="circle624" />
  </g>
  <g
     style="fill:#ececec;fill-opacity:1;stroke:none"
     id="g630"
     transform="translate(-126.2011,-90.3045)">
    <circle
       cx="144.46809"
       cy="106.8245"
       r="0.3274"
       id="circle628" />
  </g>
  <g
     style="fill:#ececec;fill-opacity:1;stroke:none"
     id="g634"
     transform="translate(-126.2011,-90.3045)">
    <circle
       cx="141.0425"
       cy="105.333"
       r="0.3274"
       id="circle632" />
  </g>
  <g
     style="fill:#ececec;fill-opacity:1;stroke:none"
     id="g638"
     transform="translate(-126.2011,-90.3045)">
    <circle
       cx="140.6011"
       cy="99.050003"
       r="0.3274"
       id="circle636" />
  </g>
  <g
     style="fill:#ececec;fill-opacity:1;stroke:none"
     id="g642"
     transform="translate(-126.2011,-90.3045)">
    <circle
       cx="147.7011"
       cy="107.35"
       r="0.3274"
       id="circle640" />
  </g>
  <g
     style="fill:#ececec;fill-opacity:1;stroke:none"
     id="g646"
     transform="translate(-126.2011,-90.3045)">
    <circle
       cx="140.38409"
       cy="105.8"
       r="0.3274"
       id="circle644" />
  </g>
  <g
     style="fill:#ececec;fill-opacity:1;stroke:none"
     id="g650"
     transform="translate(-126.2011,-90.3045)">
    <circle
       cx="135.8091"
       cy="100.158"
       r="0.3274"
       id="circle648" />
  </g>
  <g
     style="fill:#ececec;fill-opacity:1;stroke:none"
     id="g654"
     transform="translate(-126.2011,-90.3045)">
    <circle
       cx="144.7429"
       cy="105.3548"
       r="0.3274"
       id="circle652" />
  </g>
  <g
     style="fill:#ececec;fill-opacity:1;stroke:none"
     id="g658"
     transform="translate(-126.2011,-90.3045)">
    <circle
       cx="148.3011"
       cy="108.25"
       r="0.3274"
       id="circle656" />
  </g>
  <g
     style="fill:#ececec;fill-opacity:1;stroke:none"
     id="g662"
     transform="translate(-126.2011,-90.3045)">
    <circle
       cx="140.6011"
       cy="100.15"
       r="0.3274"
       id="circle660" />
  </g>
  <g
     style="fill:#ececec;fill-opacity:1;stroke:none"
     id="g666"
     transform="translate(-126.2011,-90.3045)">
    <circle
       cx="143.5571"
       cy="105.7"
       r="0.3274"
       id="circle664" />
  </g>
  <g
     style="fill:#ececec;fill-opacity:1;stroke:none"
     id="g670"
     transform="translate(-126.2011,-90.3045)">
    <circle
       cx="151.5011"
       cy="116.75"
       r="0.3274"
       id="circle668" />
  </g>
  <g
     style="fill:none;stroke:#4d7fc4;stroke-width:0.2032;stroke-linecap:round;stroke-linejoin:round;stroke-opacity:1"
     id="g674"
     transform="translate(-126.2011,-90.3045)">
    <path
       d="m 127.7411,92.59 v -0.5"
       id="path672" />
  </g>
  <g
     style="fill:none;stroke:#4d7fc4;stroke-width:0.1524;stroke-linecap:round;stroke-linejoin:round;stroke-opacity:1"
     id="g700"
     transform="translate(-126.2011,-90.3045)">
    <path
       d="m 141.7011,102.55 1.3,1.3"
       id="path676" />
    <path
       d="m 144.8841,108.9202 -0.2,0.2"
       id="path678" />
    <path
       d="m 139.9011,100.35 1.8,1.8"
       id="path680" />
    <path
       d="m 139.9011,97.35 v 3"
       id="path682" />
    <path
       d="m 142.0811,92.01 -1.28,1.28"
       id="path684" />
    <path
       d="m 141.7011,102.15 v 0.3445"
       id="path686" />
    <path
       d="m 143.0011,103.85 v 3.2"
       id="path688" />
    <path
       d="M 141.7011,102.4945 V 102.55"
       id="path690" />
    <path
       d="m 143.0011,107.05 1.683,1.683"
       id="path692" />
    <path
       d="m 144.6841,108.733 v 0.3872"
       id="path694" />
    <path
       d="m 140.8011,96.45 -0.9,0.9"
       id="path696" />
    <path
       d="m 140.8011,93.29 v 3.16"
       id="path698" />
  </g>
  <g
     style="fill:none;stroke:#4d7fc4;stroke-width:0.2032;stroke-linecap:round;stroke-linejoin:round;stroke-opacity:1"
     id="g718"
     transform="translate(-126.2011,-90.3045)">
    <path
       d="m 138.9779,98.35 h -3.4797"
       id="path702" />
    <path
       d="M 133.3011,96.1529 V 93.17"
       id="path704" />
    <path
       d="m 133.3011,93.17 1.16,-1.16"
       id="path706" />
    <path
       d="M 138.9992,98.3714 138.9779,98.35"
       id="path708" />
    <path
       d="m 135.4982,98.35 -2.1971,-2.1971"
       id="path710" />
    <path
       d="M 135.3873,97.7362 134.4611,96.81"
       id="path712" />
    <path
       d="m 138.5011,97.7362 h -3.1138"
       id="path714" />
    <path
       d="M 134.4611,96.81 V 94.55"
       id="path716" />
  </g>
  <g
     style="fill:none;stroke:#4d7fc4;stroke-width:0.1524;stroke-linecap:round;stroke-linejoin:round;stroke-opacity:1"
     id="g962"
     transform="translate(-126.2011,-90.3045)">
    <path
       d="m 150.9571,107.894 v -1.7243"
       id="path720" />
    <path
       d="m 147.5623,102.7749 h -2.323"
       id="path722" />
    <path
       d="m 150.9511,107.9 0.006,-0.006"
       id="path724" />
    <path
       d="m 150.9571,106.1697 -3.3948,-3.3948"
       id="path726" />
    <path
       d="m 149.0663,109.2152 h -1.4212"
       id="path728" />
    <path
       d="m 150.9511,111.1 -1.8848,-1.8848"
       id="path730" />
    <path
       d="m 150.9511,112.2 v -1.1"
       id="path732" />
    <path
       d="m 137.5071,111.644 -0.906,0.906"
       id="path734" />
    <path
       d="m 136.6011,112.55 v 1.5"
       id="path736" />
    <path
       d="m 149.2011,121.35 -0.8,-0.8"
       id="path738" />
    <path
       d="m 140.0011,115.9468 h 6.2331"
       id="path740" />
    <path
       d="m 148.4011,120.55 v -1.7"
       id="path742" />
    <path
       d="m 137.5071,108.456 v 3.188"
       id="path744" />
    <path
       d="m 146.2342,115.9468 0.1851,0.185"
       id="path746" />
    <path
       d="m 148.4011,118.85 v -0.7363"
       id="path748" />
    <path
       d="m 153.5611,121.35 h -4.36"
       id="path750" />
    <path
       d="m 154.7611,122.55 -1.2,-1.2"
       id="path752" />
    <path
       d="m 148.4011,118.1137 -1.9818,-1.9819"
       id="path754" />
    <path
       d="m 137.5011,108.45 0.006,0.006"
       id="path756" />
    <path
       d="m 139.8011,107.4548 h 1.6952"
       id="path758" />
    <path
       d="m 136.9011,117.85 2.4,-2.4"
       id="path760" />
    <path
       d="m 139.3011,115.45 v -1.2"
       id="path762" />
    <path
       d="m 139.7963,107.4548 h 0.005"
       id="path764" />
    <path
       d="m 142.1168,106.0947 v 0.7396"
       id="path766" />
    <path
       d="m 135.7011,119.05 1.2,-1.2"
       id="path768" />
    <path
       d="m 142.1168,106.8343 -0.1157,0.1157"
       id="path770" />
    <path
       d="m 139.3011,107.95 0.4952,-0.4952"
       id="path772" />
    <path
       d="m 141.4963,107.4548 0.5048,-0.5048"
       id="path774" />
    <path
       d="m 139.3011,114.25 v -6.3"
       id="path776" />
    <path
       d="m 134.4411,122.55 1.26,-1.26"
       id="path778" />
    <path
       d="m 135.7011,121.29 v -1.74"
       id="path780" />
    <path
       d="m 135.7011,119.55 v -0.5"
       id="path782" />
    <path
       d="m 140.0511,107.15 h -0.45"
       id="path784" />
    <path
       d="m 138.9059,115.1452 -4.4648,4.4648"
       id="path786" />
    <path
       d="m 139.6011,107.15 -0.6952,0.6952"
       id="path788" />
    <path
       d="m 138.9059,107.8452 v 7.3"
       id="path790" />
    <path
       d="m 141.8497,105.333 v 0.0184"
       id="path792" />
    <path
       d="m 141.8497,105.3514 -1.7986,1.7986"
       id="path794" />
    <path
       d="m 134.4411,119.61 v 0.4"
       id="path796" />
    <path
       d="m 144.5011,105.8993 v 0.8922"
       id="path798" />
    <path
       d="m 152.3011,115.76 v 1.79"
       id="path800" />
    <path
       d="m 141.4083,100.15 v 0.007"
       id="path802" />
    <path
       d="m 147.5011,114.15 v -4.2925"
       id="path804" />
    <path
       d="m 147.5011,109.8575 -3.033,-3.033"
       id="path806" />
    <path
       d="m 154.2511,113.81 -1.95,1.95"
       id="path808" />
    <path
       d="m 144.1011,104.45 v 1.0493"
       id="path810" />
    <path
       d="m 144.5011,106.7915 -0.033,0.033"
       id="path812" />
    <path
       d="m 154.7611,120.01 -2.46,-2.46"
       id="path814" />
    <path
       d="m 141.4083,100.1572 1.3928,1.3928"
       id="path816" />
    <path
       d="m 142.8011,103.15 1.3,1.3"
       id="path818" />
    <path
       d="m 150.9011,117.55 -3.4,-3.4"
       id="path820" />
    <path
       d="m 144.1011,105.4993 0.4,0.4"
       id="path822" />
    <path
       d="m 152.3011,117.55 h -1.4"
       id="path824" />
    <path
       d="m 142.8011,101.55 v 1.6"
       id="path826" />
    <path
       d="m 138.2011,107.55 1.6,-1.6"
       id="path828" />
    <path
       d="m 137.4011,112.25 0.8,-0.8"
       id="path830" />
    <path
       d="m 140.7034,105.333 -0.089,-0.089"
       id="path832" />
    <path
       d="m 137.4011,112.75 v -0.5"
       id="path834" />
    <path
       d="m 137.4011,112.75 v -0.1"
       id="path836" />
    <path
       d="m 131.9011,120.01 v -0.26"
       id="path838" />
    <path
       d="m 137.4011,114.25 v -0.8"
       id="path840" />
    <path
       d="m 139.8011,105.95 v -0.406"
       id="path842" />
    <path
       d="m 131.9011,119.75 5.5,-5.5"
       id="path844" />
    <path
       d="m 139.8011,105.544 0.3,-0.3"
       id="path846" />
    <path
       d="m 140.6144,105.244 h -0.5133"
       id="path848" />
    <path
       d="m 141.0425,105.333 h -0.3391"
       id="path850" />
    <path
       d="m 138.2011,111.45 v -3.9"
       id="path852" />
    <path
       d="m 137.4011,112.25 v 1.2"
       id="path854" />
    <path
       d="m 137.4011,113.45 v -0.7"
       id="path856" />
    <path
       d="m 145.0278,104.8767 -0.2219,-0.2219"
       id="path858" />
    <path
       d="m 147.7011,107.35 -1.8,-1.8"
       id="path860" />
    <path
       d="m 143.9011,102.95 v -2"
       id="path862" />
    <path
       d="m 145.9011,105.55 h -0.1767"
       id="path864" />
    <path
       d="m 145.0511,104.8767 h -0.0233"
       id="path866" />
    <path
       d="M 144.8059,103.8548 143.9011,102.95"
       id="path868" />
    <path
       d="m 145.7244,105.55 -0.6733,-0.6733"
       id="path870" />
    <path
       d="m 142.0011,99.05 h -1.4"
       id="path872" />
    <path
       d="m 144.8059,104.6548 v -0.8"
       id="path874" />
    <path
       d="m 143.9011,100.95 -1.9,-1.9"
       id="path876" />
    <path
       d="m 137.8571,114.3303 -4.656,4.656"
       id="path878" />
    <path
       d="m 137.8571,112.394 v 1.9363"
       id="path880" />
    <path
       d="M 133.2011,118.9863 V 121.25"
       id="path882" />
    <path
       d="m 138.6011,107.583 v 4.067"
       id="path884" />
    <path
       d="m 140.3841,105.8 -1.783,1.783"
       id="path886" />
    <path
       d="m 133.2011,121.25 -1.3,1.3"
       id="path888" />
    <path
       d="m 138.6011,111.65 -0.744,0.744"
       id="path890" />
    <path
       d="m 153.4011,92.85 1.38,1.38"
       id="path892" />
    <path
       d="m 153.4011,90.95 v 1.9"
       id="path894" />
    <path
       d="m 138.6931,100.158 0.9032,-0.9032"
       id="path896" />
    <path
       d="m 135.8091,100.158 h 2.884"
       id="path898" />
    <path
       d="M 138.4011,96.15 V 91.6246"
       id="path900" />
    <path
       d="M 138.4011,91.6246 139.4757,90.55"
       id="path902" />
    <path
       d="m 135.8091,100.158 h -0.016"
       id="path904" />
    <path
       d="m 139.4757,90.55 h 13.5254"
       id="path906" />
    <path
       d="M 139.5963,97.3452 138.4011,96.15"
       id="path908" />
    <path
       d="m 153.0011,90.55 0.4,0.4"
       id="path910" />
    <path
       d="m 154.7811,94.23 v 0.32"
       id="path912" />
    <path
       d="M 139.5963,99.2548 V 97.3452"
       id="path914" />
    <path
       d="m 144.7429,105.3548 0.5582,0.5582"
       id="path916" />
    <path
       d="m 141.2011,99.55 -0.6,0.6"
       id="path918" />
    <path
       d="m 144.7429,105.3548 h -0.037"
       id="path920" />
    <path
       d="m 145.3011,105.913 v 1.037"
       id="path922" />
    <path
       d="m 143.4011,103.25 v -2"
       id="path924" />
    <path
       d="m 144.5011,104.35 -1.1,-1.1"
       id="path926" />
    <path
       d="m 143.4011,101.25 -1.7,-1.7"
       id="path928" />
    <path
       d="m 141.7011,99.55 h -0.5"
       id="path930" />
    <path
       d="m 140.7011,100.25 -0.1,-0.1"
       id="path932" />
    <path
       d="m 146.6011,108.25 h 1.7"
       id="path934" />
    <path
       d="m 146.4511,108.1 0.15,0.15"
       id="path936" />
    <path
       d="m 145.3011,106.95 1.15,1.15"
       id="path938" />
    <path
       d="m 144.5011,105.15 v -0.8"
       id="path940" />
    <path
       d="M 144.7059,105.3548 144.5011,105.15"
       id="path942" />
    <path
       d="m 143.5571,105.7 v 1.106"
       id="path944" />
    <path
       d="m 147.1011,110.35 v 4.7902"
       id="path946" />
    <path
       d="m 147.1011,115.1402 4.8698,4.8698"
       id="path948" />
    <path
       d="m 143.5571,106.806 3.544,3.544"
       id="path950" />
    <path
       d="m 151.7511,111.23 2.5,-2.5"
       id="path952" />
    <path
       d="m 151.7511,116.5 v -5.27"
       id="path954" />
    <path
       d="m 151.5011,116.75 0.25,-0.25"
       id="path956" />
    <path
       style="fill:#4d7fc4;fill-opacity:1;fill-rule:evenodd;stroke:none"
       d="m 139.3122,90.3191 0.0146,0.0352 -0.0146,0.0352 -1.1053,1.1054 -0.0247,0.0595 v 0 l -0.0102,0.0247 v 4.6165 l 0.0102,0.0246 0.0247,0.0596 1.1457,1.1457 0.0146,0.0352 v 0.485 l -0.0146,0.0352 -0.0352,0.0146 -0.0269,-0.0079 -0.0897,-0.0576 v 0 0 l -0.1325,-0.0389 v 0 h -0.0468 l -0.0352,-0.0146 -0.0146,-0.0352 6e-4,-0.0071 0.014,-0.098 v 0 l -0.006,-0.0456 -0.0131,-0.0911 -0.0574,-0.1256 v 0 0 0 l -0.0904,-0.1044 v 0 l -0.1162,-0.0747 v 0 0 l -0.1325,-0.0389 h -0.1382 L 138.3,97.2948 v 0 0 l -0.1162,0.0747 v 0 l -0.0823,0.095 -0.0341,0.0171 -0.004,1e-4 h -2.5501 l -0.0352,-0.0146 -0.6207,-0.6207 h 1.1574 v 0 l 0.0196,0.1367 v 0 l 0.0574,0.1256 v 0 l 0.0904,0.1044 v 0 l 0.1162,0.0747 v 0 0 l 0.1325,0.0389 v 0 h 0.1382 v 0 l 0.1325,-0.0389 0.1162,-0.0747 0.0904,-0.1044 0.0574,-0.1256 0.0196,-0.1367 -0.0196,-0.1367 -0.0574,-0.1256 v 0 0 0 l -0.0904,-0.1044 v 0 l -0.1162,-0.0747 v 0 0 l -0.1325,-0.0389 h -0.1382 l -0.1325,0.0389 v 0 0 l -0.1162,0.0747 v 0 l -0.0904,0.1044 v 0 l -0.0574,0.1256 v 0 l -0.0196,0.1367 h -1.1574 l -0.1272,-0.1272 -0.0146,-0.0352 v -1.1262 l 0.0146,-0.0353 0.0207,-0.0124 0.0958,-0.0291 0.1743,-0.0931 0.1527,-0.1253 0.1253,-0.1527 0.0931,-0.1743 0.0574,-0.189 0.0194,-0.1966 h 0.5244 l 0.0194,0.1966 0.0574,0.189 0.0931,0.1743 v 0 0 l 0.0321,0.0391 0.0932,0.1136 0.1527,0.1253 0.1742,0.0931 0.1891,0.0574 0.1473,0.0145 0.0493,0.0049 v 0 0 l 0.0448,-0.0045 0.1518,-0.0149 0.1891,-0.0574 0.1742,-0.0931 0.1527,-0.1253 0.1253,-0.1527 0.0931,-0.1743 0.0574,-0.189 0.0194,-0.1966 -0.0194,-0.1966 -0.0574,-0.1891 -0.0931,-0.1742 -0.1253,-0.1527 -0.1527,-0.1253 -0.1742,-0.0931 -0.1891,-0.0574 -0.1966,-0.0194 v 0 l -0.1966,0.0194 -0.0823,0.025 -0.1068,0.0324 v 0 0 l -0.0865,0.0462 -0.0877,0.0469 v 0 0 l -0.1527,0.1253 -0.1253,0.1527 -0.0931,0.1742 v 0 0 l -0.0574,0.1891 -0.0194,0.1966 h -0.5244 l -0.0194,-0.1966 -0.0574,-0.1891 -0.0931,-0.1742 -0.1253,-0.1527 -0.1527,-0.1253 -0.1743,-0.0931 -0.189,-0.0574 -0.1966,-0.0194 v 0 l -0.1966,0.0194 -0.0823,0.025 -0.1068,0.0324 v 0 0 l -0.0865,0.0462 -0.0877,0.0469 v 0 0 l -0.1527,0.1253 -0.1046,0.1275 -0.0336,0.018 -0.0365,-0.0111 -0.018,-0.0336 -2e-4,-0.0049 V 93.296 l 0.0146,-0.0352 0.3583,-0.3582 0.0352,-0.0146 0.0235,0.0058 0.0882,0.0472 0.1891,0.0574 0.1481,0.0146 0.0485,0.0048 v 0 0 l 0.0448,-0.0045 0.1518,-0.0149 0.189,-0.0574 0.1743,-0.0931 0.1527,-0.1253 0.1253,-0.1527 0.0931,-0.1743 0.0574,-0.189 0.0194,-0.1966 h 0.5244 l 0.0194,0.1966 0.0574,0.189 0.0931,0.1743 0.1253,0.1527 0.1527,0.1253 0.1742,0.0931 0.1891,0.0574 0.1481,0.0146 0.0485,0.0048 v 0 0 l 0.0448,-0.0045 0.1518,-0.0149 0.1891,-0.0574 0.1742,-0.0931 0.1527,-0.1253 0.1253,-0.1527 0.0931,-0.1743 0.0574,-0.189 0.0194,-0.1966 -0.0194,-0.1966 -0.0574,-0.1891 -0.0931,-0.1742 -0.1253,-0.1527 -0.1527,-0.1253 -0.1742,-0.0931 -0.1891,-0.0574 -0.1966,-0.0194 v 0 l -0.1966,0.0194 -0.0287,0.0087 -0.1604,0.0487 v 0 0 l -0.0865,0.0462 -0.0877,0.0469 v 0 0 l -0.1527,0.1253 -0.1253,0.1527 v 0 0 l -0.032,0.0599 -0.0611,0.1143 v 0 0 l -0.0574,0.1891 -0.0194,0.1966 h -0.5244 l -0.0194,-0.1966 -0.0574,-0.1891 -0.0931,-0.1742 -0.1253,-0.1527 -0.1527,-0.1253 -0.1743,-0.0931 -0.189,-0.0574 -0.1966,-0.0194 v 0 l -0.1966,0.0194 -0.0287,0.0087 -0.1604,0.0487 v 0 0 l -0.0865,0.0462 -0.0877,0.0469 v 0 0 l -0.1527,0.1253 -0.1253,0.1527 v 0 0 l -0.032,0.0599 -0.0611,0.1143 v 0 0 l -0.0574,0.1891 -0.0194,0.1966 0.0194,0.1966 0.0574,0.189 v 1e-4 0 l 0.0472,0.0882 0.004,0.038 -0.0125,0.0207 -0.4116,0.4116 -0.0716,0.0716 -0.0387,0.0936 v 1.0024 l -0.0146,0.0352 -0.0352,0.0146 -0.0352,-0.0146 -0.009,-0.013 -0.0884,-0.1777 v 0 l -0.1233,-0.1632 v 0 l -0.1512,-0.1379 -0.174,-0.1077 -0.1908,-0.0739 -0.151,-0.0282 v 0.6178 L 131.9869,94.05 h -0.1316 l -0.0866,0.0232 v -0.6178 0 l -0.151,0.0282 -0.1908,0.0739 -0.174,0.1077 -0.1512,0.1379 v 0 l -0.1233,0.1632 v 0 l -0.0912,0.1832 -0.056,0.1968 v 0 l -0.005,0.0513 h 0.6178 l -0.0232,0.0866 v 0.1316 l 0.0232,0.0866 h -0.6178 l 0.005,0.0513 v 0 l 0.056,0.1968 0.0912,0.1832 v 0 l 0.1233,0.1632 v 0 l 0.1512,0.1379 0.174,0.1077 0.1908,0.0739 0.151,0.0282 v 0 -0.6178 l 0.0866,0.0232 h 0.1316 l 0.0866,-0.0232 v 0.6178 l 0.151,-0.0282 0.1908,-0.0739 0.174,-0.1077 0.1512,-0.1379 v 0 l 0.1233,-0.1632 v 0 l 0.0884,-0.1777 0.0288,-0.025 0.038,0.0026 0.025,0.0288 0.003,0.0158 v 1.2253 l 0.0387,0.0936 2.1943,2.1942 v 0 l 0.0744,0.0745 0.0936,0.0387 v 0 0 h 0.1012 2.9969 l 0.0352,0.0146 0.008,0.0117 1e-4,-10e-5 0.002,0.0026 2e-4,3e-4 v 1e-4 0 l 0.0905,0.1044 v 0 l 0.1162,0.0746 v 0 0 l 0.1325,0.039 v 0 h 0.1381 v 0 l 0.1325,-0.039 0.0897,-0.0576 0.0375,-0.0067 0.0313,0.0217 0.008,0.0269 v 0.3423 l -0.0146,0.0352 -0.7398,0.7398 -0.0352,0.0146 h -2.3132 l -0.0352,-0.0146 -0.0101,-0.0146 -0.002,-0.0041 -0.0169,-0.0194 -0.0736,-0.085 v 0 l -0.1162,-0.0746 v 0 0 l -0.1325,-0.0389 H 135.74 l -0.1325,0.0389 v 0 0 l -0.1162,0.0746 v 0 l -0.0905,0.1044 v 0 l -0.0573,0.1256 v 0 l -0.0197,0.1368 v 0 l 0.0197,0.1367 v 0 l 0.0573,0.1256 v 0 l 0.0905,0.1044 v 0 l 0.1162,0.0746 v 0 0 l 0.1325,0.039 v 0 h 0.1381 v 0 l 0.1325,-0.039 0.1162,-0.0746 0.0905,-0.1044 0.002,-0.004 0.0279,-0.026 0.0174,-0.003 h 2.4743 l 0.0156,-0.007 0.009,-0.004 v 0 l 0.0421,-0.0174 0.0174,-0.007 0.7641,-0.7641 0.0352,-0.0146 0.0352,0.0146 0.0146,0.0352 v 0.7723 l 0.0349,0.0842 1.6304,1.6304 0.0146,0.0353 -0.0121,0.0326 -0.0469,0.0541 v 0 l -0.0574,0.1256 v 0 l -0.0196,0.1367 v 0 l 0.0196,0.1367 v 0 l 0.0574,0.1256 v 0 l 0.0904,0.1044 v 0 l 0.1162,0.0747 v 0 0 l 0.1325,0.0389 v 0 h 0.1382 v 0 0 l 0.003,-4e-4 0.037,0.009 0.005,0.005 0.5131,0.5131 0.4288,0.4288 0.0146,0.0352 v 3.1301 l 0.0349,0.0842 1.5333,1.5333 0.0146,0.0352 -0.0122,0.0326 -0.0667,0.077 -0.0574,0.1256 v 0 l -0.0196,0.1367 v 0 l 0.0196,0.1367 v 0 l 0.0574,0.1256 v 0 l 0.0904,0.1044 v 0 l 0.1162,0.0747 v 0 0 l 0.1325,0.0389 v 0 h 0.1382 v 0 l 0.1325,-0.0389 0.1162,-0.0747 0.0904,-0.1044 0.0574,-0.1256 0.0183,-0.1274 0.001,-0.009 v 0 l -0.009,-0.0651 -0.0103,-0.0716 -0.0121,-0.0265 -0.0199,-0.0435 -0.005,-0.0207 v -0.0182 0 l -0.0368,-0.0887 10e-4,-5e-4 -0.006,-0.0315 0.0212,-0.0317 0.0373,-0.007 0.0255,0.0136 1.7019,1.7019 0.0146,0.0352 v 4.7203 l 0.0349,0.0842 4.3553,4.3553 0.0146,0.0353 -0.002,0.0144 -0.0378,0.1245 -0.004,0.0139 -0.0194,0.1966 0.0194,0.1966 0.0574,0.189 0.0931,0.1743 v 0 0 l 0.0321,0.0391 0.0932,0.1136 0.1527,0.1253 0.1742,0.0931 0.1891,0.0574 0.1481,0.0146 0.0485,0.005 v 0 0 l 0.0448,-0.004 0.1518,-0.0149 0.1891,-0.0574 0.1742,-0.0931 0.1527,-0.1253 0.1253,-0.1527 0.0931,-0.1743 0.0574,-0.189 0.0194,-0.1966 -0.0194,-0.1966 -0.0574,-0.1891 -0.0931,-0.1742 -0.1253,-0.1527 -0.1527,-0.1253 -0.1742,-0.0931 -0.1891,-0.0574 -0.1966,-0.0194 v 0 l -0.1966,0.0194 -0.0305,0.009 -0.1586,0.0481 v 0 0 l -0.083,0.0443 -0.0912,0.0488 v 0 0 l -0.0773,0.0634 -0.0364,0.0111 -0.0304,-0.0144 -4.1723,-4.1723 -0.0146,-0.0352 v -0.6014 l 0.0146,-0.0352 0.0352,-0.0146 0.0352,0.0146 3.3561,3.3561 0.0596,0.0247 0.0246,0.0102 v 0 h 0.0912 1.2389 l 0.0352,0.0146 1.6603,1.6603 0.0145,0.0352 -0.006,0.0234 -0.0597,0.1117 v 0 0 l -0.0574,0.1891 -0.0194,0.1966 0.0194,0.1966 0.0574,0.189 0.0931,0.1743 v 0 0 l 0.0321,0.0391 0.0932,0.1136 0.1527,0.1253 0.1743,0.0931 0.189,0.0574 0.1481,0.0146 0.0485,0.005 v 0 0 l 0.0448,-0.004 0.1518,-0.0149 0.189,-0.0574 0.1743,-0.0931 0.1527,-0.1253 0.1253,-0.1527 0.0931,-0.1743 0.0574,-0.189 0.0194,-0.1966 -0.0194,-0.1966 -0.0574,-0.1891 -0.0931,-0.1742 -0.1253,-0.1527 -0.1527,-0.1253 -0.1743,-0.0931 -0.189,-0.0574 -0.1966,-0.0194 v 0 l -0.1966,0.0194 -0.0305,0.009 -0.1585,0.0481 h -1e-4 v 0 0 l -0.1117,0.0597 -0.0379,0.004 -0.0207,-0.0124 -1.6603,-1.6603 -0.0146,-0.0352 v -1.086 h 0.7131 v 0 l 0.0193,0.1956 1e-4,0.001 0.0574,0.189 0.0931,0.1743 0.1253,0.1527 0.1527,0.1253 0.1742,0.0931 0.1891,0.0574 0.1481,0.0146 0.0485,0.005 v 0 0 l 0.0448,-0.004 0.1518,-0.0149 0.1891,-0.0574 0.1742,-0.0931 0.1527,-0.1253 0.1253,-0.1527 0.0931,-0.1743 0.0574,-0.189 0.0194,-0.1966 -0.004,-0.0414 -0.009,-0.0887 -0.007,-0.0665 -0.0574,-0.1891 -0.0931,-0.1742 -0.1253,-0.1527 -0.1349,-0.1107 -0.0178,-0.0146 v 0 0 l -0.1742,-0.0931 -0.1891,-0.0574 -0.1966,-0.0194 v 0 l -0.1966,0.0194 -0.0765,0.0232 -0.1126,0.0342 v 0 0 l -0.0889,0.0475 -0.0853,0.0456 v 0 0 l -0.1527,0.1253 -0.1253,0.1527 v 0 0 l -0.0107,0.02 -0.0824,0.1542 v 0 l -0.0574,0.1891 -0.0194,0.1966 h -0.7131 v -0.4745 l 0.0146,-0.0352 1.1503,-1.1503 0.0352,-0.0145 0.0234,0.006 0.1117,0.0597 0.1891,0.0574 0.1481,0.0146 0.0485,0.005 v 0 0 l 0.0448,-0.005 0.1518,-0.0149 0.1891,-0.0574 0.1742,-0.0931 0.1527,-0.1253 0.1253,-0.1527 0.0931,-0.1742 0.0574,-0.1891 0.0194,-0.1966 -0.002,-0.0223 -0.0103,-0.1044 -0.007,-0.0699 -0.0574,-0.1891 -0.0931,-0.1742 -0.1253,-0.1527 -0.1527,-0.1253 -0.1742,-0.0931 -0.1891,-0.0574 -0.1966,-0.0194 v 0 l -0.1966,0.0194 -0.0823,0.025 -0.1068,0.0324 v 0 0 l -0.1129,0.0603 -0.0613,0.0328 v 0 0 l -0.1527,0.1253 -0.1253,0.1527 -0.0931,0.1742 v 0 l -0.0574,0.1891 -0.0194,0.1966 v 0 l 0.0102,0.1033 0.009,0.0933 0.0574,0.1891 v 0 0 l 0.0597,0.1117 0.004,0.0379 -0.0124,0.0207 -1.2642,1.2642 v 0 l -0.0203,0.0489 v 0 l -0.0106,0.0256 -0.0269,0.027 h -0.0382 l -0.0269,-0.027 -0.004,-0.019 v -4.3402 l 0.0146,-0.0352 0.0403,-0.0403 h 1.2082 v 0 l 0.009,0.0886 0.0106,0.108 0.0574,0.189 0.0931,0.1743 0.1253,0.1527 0.1527,0.1253 0.1742,0.0931 0.1891,0.0574 0.1481,0.0146 0.0485,0.005 v 0 0 l 0.0448,-0.004 0.1518,-0.0149 0.1891,-0.0574 0.1742,-0.0931 0.1527,-0.1253 0.1253,-0.1527 0.0931,-0.1743 0.0574,-0.189 0.0194,-0.1966 -0.0194,-0.1966 -0.0574,-0.1891 -0.0931,-0.1742 -0.1253,-0.1527 -0.1527,-0.1253 -0.1742,-0.0931 -0.1891,-0.0574 -0.1966,-0.0194 v 0 l -0.1966,0.0194 -0.0823,0.025 -0.1068,0.0324 v 0 0 l -0.0567,0.0303 -0.1175,0.0628 v 0 0 l -0.1527,0.1253 -0.1253,0.1527 -0.0931,0.1742 v 0 0 l -0.0192,0.0631 -0.0382,0.126 -0.0194,0.1966 h -1.2082 l 1.66,-1.66 0.0352,-0.0145 0.0234,0.006 0.1117,0.0597 0.1891,0.0574 0.1481,0.0146 0.0485,0.005 v 0 0 l 0.0448,-0.004 0.1518,-0.0149 0.1891,-0.0574 0.1742,-0.0931 0.1527,-0.1253 0.1253,-0.1527 0.0931,-0.1743 0.0574,-0.189 0.0162,-0.1642 0.003,-0.0324 v 0 l -0.008,-0.0812 -0.0114,-0.1154 -0.0574,-0.1891 -0.0931,-0.1742 -0.006,-0.008 -0.0402,-0.049 -0.0787,-0.0959 -0.136,-0.1116 -0.0167,-0.0137 v 0 0 l -0.1742,-0.0931 -0.1891,-0.0574 -0.1966,-0.0194 v 0 l -0.1966,0.0194 -0.0715,0.0217 -0.1176,0.0357 v 0 0 l -0.1129,0.0603 -0.0613,0.0328 v 0 0 l -0.1527,0.1253 -0.1253,0.1527 v 0 0 l -0.009,0.0176 -0.0837,0.1566 v 0 0 l -0.0129,0.0424 -0.0445,0.1467 -0.0194,0.1966 v 0 l 0.0131,0.1329 0.006,0.0637 0.0574,0.189 v 1e-4 0 l 0.0597,0.1117 0.004,0.0379 -0.0124,0.0207 -1.8142,1.8142 v 0 l -0.0188,0.0454 v 0 l -0.0161,0.0388 v 0.9151 l -0.0146,0.0352 -0.0352,0.0146 -0.0352,-0.0146 -0.0141,-0.0281 -0.001,-0.007 -0.005,-0.0362 -0.0574,-0.1256 v 0 0 0 l -0.0904,-0.1044 -0.0658,-0.0423 -0.0218,-0.0313 -0.001,-0.0106 v -0.6947 0 l -0.0102,-0.0246 -0.0247,-0.0596 -1.9492,-1.9492 v 0 l -0.0596,-0.0247 -0.0246,-0.0102 v 0 h -1.0114 l -0.0352,-0.0146 -0.0101,-0.0145 -0.002,-0.004 v 0 l -0.0904,-0.1044 v 0 l -0.1162,-0.0747 v 0 0 l -0.1325,-0.0389 h -0.1382 l -0.1325,0.0389 v 0 0 l -0.1162,0.0747 v 0 l -0.0904,0.1044 v 0 l -0.0574,0.1256 v 0 l -0.003,0.0182 -0.0194,0.0328 -0.037,0.009 -0.0281,-0.0141 -0.5607,-0.5607 -0.0146,-0.0352 0.0146,-0.0352 0.0352,-0.0146 h 0.0798 1.199 l 0.0352,0.0146 0.0101,0.0145 0.002,0.004 v 0 0 l 0.0904,0.1044 v 0 l 0.1162,0.0747 v 0 0 l 0.1325,0.0389 v 0 h 0.1382 v 0 l 0.1325,-0.0389 0.1162,-0.0747 0.0117,-0.0135 0.0184,-0.0213 0.0603,-0.0696 0.0574,-0.1256 0.0196,-0.1367 -0.0196,-0.1367 -0.0574,-0.1256 v 0 0 0 l -0.0904,-0.1044 v 0 l -0.1162,-0.0747 v 0 0 l -0.1325,-0.0389 h -0.1382 l -0.1325,0.0389 v 0 0 l -0.1162,0.0747 v 0 l -0.0904,0.1044 v 0 0 0 l -0.002,0.004 -0.0279,0.026 -0.0174,0.003 h -1.1291 l -0.0352,-0.0146 -0.1034,-0.1034 v 0 l -1.0332,-1.0332 -0.0146,-0.0352 v -0.967 l -0.006,-0.0137 -0.009,-0.0214 -0.0204,-0.0491 -0.002,-0.005 0.002,-10e-4 -0.006,-0.0282 0.0211,-0.0317 0.0374,-0.007 0.0255,0.0137 0.0203,0.0202 0.0842,0.0349 v 0 h 0.0911 0.0157 l 0.0352,0.0146 1.3977,1.3977 0.0146,0.0352 -5e-4,0.007 -0.0167,0.1163 v 0 l 0.0196,0.1367 v 0 l 0.0574,0.1256 v 0 l 0.0904,0.1044 v 0 l 0.1162,0.0747 v 0 0 l 0.1325,0.0389 v 0 h 0.1382 v 0 l 0.1325,-0.0389 0.1162,-0.0747 0.0904,-0.1044 0.0574,-0.1256 0.0164,-0.1139 0.003,-0.0228 v 0 l -0.01,-0.0697 -0.01,-0.067 -0.0574,-0.1256 v 0 0 0 l -0.0904,-0.1044 v 0 l -0.1162,-0.0747 v 0 0 l -0.1325,-0.0389 h -0.1382 v 0 l -0.0391,0.0115 -0.0378,-0.004 -0.0114,-0.008 -0.7527,-0.7527 -0.7601,-0.7601 v 0 l -0.0596,-0.0247 -0.0246,-0.0102 v 0 h -0.1068 l -0.0352,-0.0146 -0.6238,-0.6238 -0.0306,-0.0127 -0.0161,-0.0107 -0.0846,-0.0846 -0.0146,-0.0352 v -0.7301 0 l -0.0349,-0.0842 -0.0644,-0.0644 -0.0106,-0.0106 h 0.9908 v 0 l 0.0196,0.1367 v 0 l 0.0574,0.1256 v 0 l 0.0904,0.1044 v 0 l 0.1162,0.0747 v 0 0 l 0.1325,0.0389 v 0 h 0.1382 v 0 l 0.1325,-0.0389 0.1162,-0.0747 0.0904,-0.1044 0.0574,-0.1256 0.0196,-0.1367 -0.0196,-0.1367 -0.0574,-0.1256 v 0 0 0 l -0.0904,-0.1044 v 0 l -0.1162,-0.0747 v 0 0 l -0.1325,-0.0389 h -0.1382 l -0.1325,0.0389 v 0 0 l -0.1162,0.0747 v 0 l -0.0904,0.1044 v 0 l -0.0574,0.1256 v 0 l -0.0196,0.1367 h -0.9908 l -0.7803,-0.7803 -0.0146,-0.0352 v -0.0596 h 0.6238 v 0 l 0.0197,0.1367 v 0 l 0.0574,0.1256 v 0 l 0.0904,0.1044 v 0 l 0.1162,0.0747 v 0 0 l 0.1325,0.0389 v 0 h 0.1381 v 0 l 0.1325,-0.0389 0.1162,-0.0747 0.0905,-0.1044 0.002,-0.004 0.0279,-0.026 0.0174,-0.003 h 1.7521 l 0.0352,0.0146 3.2314,3.2314 0.0146,0.0352 v 1.1601 l -0.0146,0.0352 -0.008,0.007 -0.0718,0.0462 -0.0904,0.1044 v 0 l -0.0574,0.1256 v 0 l -0.0196,0.1367 v 0 l 0.0196,0.1367 v 0 l 0.0574,0.1256 v 0 l 0.0904,0.1044 v 0 l 0.1162,0.0747 v 0 0 l 0.1325,0.0389 v 0 h 0.1382 v 0 l 0.1325,-0.0389 0.1162,-0.0747 0.0904,-0.1044 0.0574,-0.1256 0.0196,-0.1367 -0.0196,-0.1367 -0.0574,-0.1256 v 0 0 0 l -0.0904,-0.1044 -0.0598,-0.0384 -0.0218,-0.0314 -0.001,-0.0105 v -1.3289 0 l -0.0256,-0.0618 v 0 l -0.005,-0.0131 -0.004,-0.009 -0.7249,-0.7249 h 2.7207 v 0.7226 h 0.6272 l -0.0232,0.0866 v 0.1316 l 0.0232,0.0866 h -0.6272 v 0.7226 l 0.0147,0.0741 v 0 l 0.0562,0.084 v 0 l 0.084,0.0562 v 0 l 0.0741,0.0147 h 0.7226 v -0.6272 l 0.0866,0.0232 h 0.1316 l 0.0866,-0.0232 v 0.6272 h 0.7226 v 0 l 0.0741,-0.0147 v 0 l 0.084,-0.0562 v 0 l 0.0562,-0.084 v 0 l 0.0147,-0.0741 v 0 -0.7226 h -0.6272 l 0.0232,-0.0866 v -0.1316 l -0.0232,-0.0866 h 0.6272 v -0.7226 0 l -0.0147,-0.0741 v 0 l -0.0562,-0.084 v 0 l -0.084,-0.0562 v 0 l -0.0741,-0.0147 h -0.7226 v 0.6272 l -0.0866,-0.0232 h -0.1316 l -0.0866,0.0232 v -0.6272 h -0.7226 v 0 l -0.0741,0.0147 v 0 l -0.084,0.0562 v 0 l -0.0562,0.084 v 0 l -0.0147,0.0741 h -2.7207 l -2.7343,-2.7343 v 0 l -0.0596,-0.0247 -0.0246,-0.0102 v 0 h -1.9132 l -0.0353,-0.0146 -0.01,-0.0145 -0.002,-0.004 -0.0157,-0.0181 -0.0748,-0.0863 v 0 l -0.1162,-0.0747 v 0 0 l -0.1325,-0.0389 h -0.1381 l -0.1325,0.0389 v 0 0 l -0.1162,0.0747 v 0 l -0.0904,0.1044 v 0 l -0.0574,0.1256 v 0 l -0.0197,0.1367 h -0.6238 v -1.8705 l -0.0144,-0.0348 -0.0205,-0.0494 -1.9644,-1.9644 v 0 l -0.0596,-0.0247 -0.0246,-0.0102 v 0 h -0.9902 l -0.0352,-0.0146 -0.0101,-0.0145 -0.002,-0.0041 -0.01,-0.0115 -0.0804,-0.0929 v 0 l -0.1162,-0.0747 v 0 0 l -0.1325,-0.0389 h -0.1382 l -0.1325,0.0389 v 0 0 l -0.1162,0.0747 v 0 l -0.0657,0.0758 -0.034,0.0171 -0.0362,-0.0121 -0.0171,-0.0341 -1e-4,-0.0035 v -1.261 l 0.0146,-0.0352 0.3216,-0.3216 0.2623,-0.2623 h 1.3861 v 0 l 0.0196,0.1367 v 0 l 0.0574,0.1256 v 0 l 0.0904,0.1044 v 0 l 0.1162,0.0747 v 0 0 l 0.1325,0.0389 v 0 h 0.1382 v 0 l 0.1325,-0.0389 0.1162,-0.0747 0.0904,-0.1044 0.0574,-0.1256 0.0196,-0.1367 -0.0196,-0.1367 -0.0574,-0.1256 v 0 0 0 l -0.0904,-0.1044 v 0 l -0.1162,-0.0747 v 0 0 l -0.1325,-0.0389 h -0.1382 l -0.1325,0.0389 v 0 0 l -0.1162,0.0747 v 0 l -0.0904,0.1044 v 0 l -0.0574,0.1256 v 0 l -0.0196,0.1367 h -1.3861 l 0.2666,-0.2666 0.0349,-0.0842 V 96.4044 95.128 l 0.0146,-0.0352 0.0352,-0.0146 0.0352,0.0146 0.009,0.013 0.0138,0.0279 v 0 l 0.1233,0.1632 v 0 l 0.1512,0.1379 0.174,0.1077 0.1908,0.0739 0.151,0.0282 v 0 -0.6178 l 0.0866,0.0232 h 0.1316 l 0.0866,-0.0232 v 0.6178 l 0.151,-0.0282 0.1908,-0.0739 0.174,-0.1077 0.1512,-0.1379 v 0 l 0.1233,-0.1632 v 0 l 0.0912,-0.1832 0.056,-0.1968 v 0 l 0.005,-0.0513 h -0.6178 l 0.0232,-0.0866 v -0.1316 l -0.0232,-0.0866 h 0.6178 0.3508 0.6178 l -0.0232,0.0866 v 0.1316 l 0.0232,0.0866 h -0.6178 l 0.005,0.0513 v 0 l 0.056,0.1968 0.0912,0.1832 v 0 l 0.1233,0.1632 v 0 l 0.1512,0.1379 0.174,0.1077 0.1908,0.0739 0.151,0.0282 v 0 -0.6178 l 0.0866,0.0232 h 0.1316 l 0.0866,-0.0232 v 0.6178 l 0.151,-0.0282 0.1908,-0.0739 0.174,-0.1077 0.1512,-0.1379 v 0 l 0.1233,-0.1632 v 0 l 0.0912,-0.1832 0.0559,-0.1968 h 1e-4 l 0.005,-0.0513 h -0.6178 l 0.0232,-0.0866 V 94.55 h 1.0322 l 0.0194,0.1966 0.0574,0.189 0.0931,0.1743 v 0 0 l 0.0321,0.0391 0.0932,0.1136 0.1527,0.1253 0.1743,0.0931 0.189,0.0574 0.1473,0.0145 0.0493,0.0049 v 0 0 l 0.0448,-0.0045 0.1518,-0.0149 0.1891,-0.0574 0.1742,-0.0931 0.1527,-0.1253 0.1253,-0.1527 0.0931,-0.1743 0.0574,-0.189 0.0194,-0.1966 h 0.5244 l 0.0194,0.1966 0.0574,0.189 0.0931,0.1743 v 0 0 l 0.0321,0.0391 0.0932,0.1136 0.1527,0.1253 0.1742,0.0931 0.1891,0.0574 0.1473,0.0145 0.0493,0.0049 v 0 0 l 0.0448,-0.0045 0.1518,-0.0149 0.189,-0.0574 0.1743,-0.0931 0.1527,-0.1253 0.1253,-0.1527 0.0931,-0.1743 0.0574,-0.189 0.0194,-0.1966 h 0.5244 l 0.0194,0.1966 0.0574,0.189 0.0931,0.1743 v 0 0 l 0.0321,0.0391 0.0932,0.1136 0.1527,0.1253 0.1742,0.0931 0.1891,0.0574 0.1473,0.0145 0.0493,0.0049 v 0 0 l 0.0448,-0.0045 0.1518,-0.0149 0.189,-0.0574 0.1743,-0.0931 0.1527,-0.1253 0.1253,-0.1527 0.0931,-0.1743 0.0574,-0.189 0.0194,-0.1966 -0.0194,-0.1966 -0.0574,-0.1891 -0.0931,-0.1742 -0.1253,-0.1527 -0.1527,-0.1253 -0.1743,-0.0931 -0.189,-0.0574 -0.1966,-0.0194 v 0 l -0.1966,0.0194 -0.0823,0.025 -0.1068,0.0324 v 0 0 l -0.0865,0.0462 -0.0877,0.0469 v 0 0 l -0.1527,0.1253 -0.1253,0.1527 -0.0931,0.1742 v 0 0 l -0.0574,0.1891 -0.0194,0.1966 h -0.5244 l -0.0194,-0.1966 -0.0574,-0.1891 -0.0931,-0.1742 -0.1253,-0.1527 -0.1527,-0.1253 -0.1743,-0.0931 -0.189,-0.0574 -0.1966,-0.0194 v 0 l -0.1966,0.0194 -0.0823,0.025 -0.1068,0.0324 v 0 0 l -0.0865,0.0462 -0.0877,0.0469 v 0 0 l -0.1527,0.1253 -0.1253,0.1527 -0.0931,0.1742 v 0 0 l -0.0574,0.1891 -0.0194,0.1966 h -0.5244 l -0.0194,-0.1966 -0.0574,-0.1891 -0.0931,-0.1742 -0.1253,-0.1527 -0.1527,-0.1253 -0.1742,-0.0931 -0.1891,-0.0574 -0.1966,-0.0194 v 0 l -0.1966,0.0194 -0.0823,0.025 -0.1067,0.0324 h -1e-4 v 0 l -0.0865,0.0462 -0.0877,0.0469 v 0 0 l -0.1527,0.1253 -0.1253,0.1527 -0.0931,0.1742 v 0 0 l -0.0574,0.1891 -0.0194,0.1966 h -1.0322 v -0.0658 l -0.0232,-0.0866 h 0.6178 l -0.005,-0.0513 h -1e-4 l -0.0559,-0.1968 -0.0912,-0.1832 v 0 l -0.1233,-0.1632 v 0 l -0.1512,-0.1379 -0.174,-0.1077 -0.1908,-0.0739 -0.151,-0.0282 v 0.6178 L 144.6869,94.05 h -0.1316 l -0.0866,0.0232 v -0.6178 0 l -0.151,0.0282 -0.1908,0.0739 -0.174,0.1077 -0.1512,0.1379 v 0 l -0.1233,0.1632 v 0 l -0.0912,0.1832 -0.056,0.1968 v 0 l -0.005,0.0513 h -0.3508 l -0.005,-0.0513 v 0 l -0.056,-0.1968 -0.0912,-0.1832 v 0 l -0.1233,-0.1632 v 0 l -0.1512,-0.1379 -0.174,-0.1077 -0.1908,-0.0739 -0.151,-0.0282 v 0.6178 l -0.086,-0.0232 h -0.1316 l -0.0866,0.0232 v -0.6178 0 l -0.151,0.0282 -0.1908,0.0739 -0.174,0.1077 -0.1512,0.1379 v 0 l -0.1233,0.1632 v 0 l -0.0138,0.0279 -0.0288,0.025 -0.038,-0.0027 -0.025,-0.0287 -0.003,-0.0158 v -0.5665 l 0.0146,-0.0352 0.2101,-0.2101 0.2702,-0.2702 0.0352,-0.0145 0.0234,0.0058 0.1117,0.0597 0.1891,0.0574 0.1481,0.0146 0.0485,0.0048 v 0 0 l 0.0448,-0.0045 0.1518,-0.0149 0.189,-0.0574 0.1743,-0.0931 0.1527,-0.1253 0.1253,-0.1527 0.0931,-0.1743 0.0574,-0.189 0.0194,-0.1966 h 0.5244 l 0.0194,0.1966 0.0574,0.189 0.0931,0.1743 0.1253,0.1527 0.1527,0.1253 0.1742,0.0931 0.1891,0.0574 0.1481,0.0146 0.0485,0.0048 v 0 0 l 0.0448,-0.0045 0.1518,-0.0149 0.189,-0.0574 0.1743,-0.0931 0.1527,-0.1253 0.1253,-0.1527 0.0931,-0.1743 0.0574,-0.189 0.0194,-0.1966 -0.0151,-0.1524 h 0.4527 0.6178 l -0.0232,0.0866 v 0.1316 l 0.0232,0.0866 h -0.6178 l 0.005,0.0513 v 0 l 0.056,0.1968 0.0912,0.1832 v 0 l 0.1233,0.1632 v 0 l 0.1512,0.1379 0.174,0.1077 0.1908,0.0739 0.151,0.0282 v 0 -0.6178 l 0.0866,0.0232 h 0.1316 l 0.0866,-0.0232 v 0.6178 l 0.151,-0.0282 0.1908,-0.0739 0.174,-0.1077 0.1512,-0.1379 v 0 l 0.1233,-0.1632 v 0 l 0.0912,-0.1832 0.0559,-0.1968 h 1e-4 l 0.005,-0.0513 h -0.6178 l 0.0232,-0.0866 v -0.1316 l -0.0232,-0.0866 h 0.6178 0.3508 0.6178 l -0.0232,0.0866 v 0.1316 l 0.0232,0.0866 h -0.6178 l 0.005,0.0513 v 0 l 0.056,0.1968 0.0912,0.1832 v 0 l 0.1233,0.1632 v 0 l 0.1512,0.1379 0.174,0.1077 0.1908,0.0739 0.151,0.0282 v 0 -0.6178 l 0.0866,0.0232 h 0.1316 l 0.0866,-0.0232 v 0.6178 l 0.151,-0.0282 0.1908,-0.0739 0.174,-0.1077 0.1512,-0.1379 v 0 l 0.1233,-0.1632 v 0 l 0.0912,-0.1832 0.0559,-0.1968 h 1e-4 l 0.005,-0.0513 h -0.6178 l 0.0232,-0.0866 v -0.1316 l -0.0232,-0.0866 h 0.6178 l -0.005,-0.0513 h -1e-4 l -0.0559,-0.1968 -0.0912,-0.1832 v 0 l -0.1233,-0.1632 v 0 l -0.1512,-0.1379 -0.174,-0.1077 -0.1908,-0.0739 -0.151,-0.0282 v 0.6178 L 149.7669,91.51 h -0.1316 l -0.0866,0.0232 v -0.6178 0 l -0.151,0.0282 -0.1908,0.0739 -0.174,0.1077 -0.1512,0.1379 v 0 l -0.1233,0.1632 v 0 l -0.0912,0.1832 -0.056,0.1968 v 0 l -0.005,0.0513 h -0.3508 l -0.005,-0.0513 h -1e-4 l -0.0559,-0.1968 -0.0912,-0.1832 v 0 l -0.1233,-0.1632 v 0 l -0.1512,-0.1379 -0.174,-0.1077 -0.1908,-0.0739 -0.151,-0.0282 v 0.6178 l -0.086,-0.0232 h -0.1316 l -0.0866,0.0232 v -0.6178 0 l -0.151,0.0282 -0.1908,0.0739 -0.174,0.1077 -0.1512,0.1379 v 0 l -0.1233,0.1632 v 0 l -0.0912,0.1832 -0.056,0.1968 v 0 l -0.005,0.0513 h -0.4527 l -0.004,-0.0442 -0.0574,-0.1891 -0.0931,-0.1742 -0.1253,-0.1527 -0.1527,-0.1253 -0.1743,-0.0931 -0.189,-0.0574 -0.1966,-0.0194 v 0 l -0.1966,0.0194 -0.0287,0.0087 -0.1604,0.0487 v 0 0 l -0.0865,0.0462 -0.0877,0.0469 v 0 0 l -0.1527,0.1253 -0.1253,0.1527 v 0 0 l -0.032,0.0599 -0.0611,0.1143 v 0 0 l -0.0574,0.1891 -0.0194,0.1966 h -0.5244 l -0.0194,-0.1966 -0.0574,-0.1891 -0.0931,-0.1742 -0.1253,-0.1527 -0.1527,-0.1253 -0.1743,-0.0931 -0.189,-0.0574 -0.1966,-0.0194 v 0 l -0.1966,0.0194 -0.0287,0.0087 -0.1604,0.0487 v 0 0 l -0.0865,0.0462 -0.0877,0.0469 v 0 0 l -0.1527,0.1253 -0.1253,0.1527 v 0 0 l -0.032,0.0599 -0.0611,0.1143 v 0 0 l -0.0574,0.1891 -0.0194,0.1966 0.0194,0.1966 0.0574,0.189 v 1e-4 0 l 0.0597,0.1117 0.004,0.0379 -0.0124,0.0207 -0.5942,0.5942 -0.0247,0.0596 v 0 l -0.0102,0.0246 v 0.9134 l -0.0146,0.0352 -0.0352,0.0146 -0.0352,-0.0146 -0.0125,-0.0207 -0.002,-0.008 -0.0931,-0.1742 -0.1253,-0.1527 -0.1527,-0.1253 -0.1743,-0.0931 -0.189,-0.0574 -0.1966,-0.0194 v 0 l -0.1966,0.0194 -0.0823,0.025 -0.1067,0.0324 h -1e-4 v 0 l -0.0865,0.0462 -0.0877,0.0469 v 0 0 l -0.1527,0.1253 -0.11,0.1341 -0.0336,0.0179 -0.0365,-0.011 -0.018,-0.0336 -2e-4,-0.0049 v -1.3198 l 0.0146,-0.0352 0.0352,-0.0146 0.0352,0.0146 0.003,0.0036 0.11,0.1341 0.1527,0.1253 0.1743,0.0931 0.189,0.0574 0.1481,0.0146 0.0485,0.0048 v 0 0 l 0.0448,-0.0045 0.1518,-0.0149 0.189,-0.0574 0.1743,-0.0931 0.1527,-0.1253 0.1253,-0.1527 0.0931,-0.1743 0.0574,-0.189 0.0194,-0.1966 -0.0194,-0.1966 -0.0574,-0.1891 -0.0931,-0.1742 -0.1253,-0.1527 -0.1527,-0.1253 -0.1743,-0.0931 -0.189,-0.0574 -0.1966,-0.0194 v 0 l -0.0763,0.0076 -0.0364,-0.0111 -0.018,-0.0336 0.0111,-0.0365 0.003,-0.0036 0.1313,-0.1313 0.0353,-0.0146 h 13.2943 l 0.0352,0.0146 0.2366,0.2366 0.0146,0.0352 v 0.1967 l -0.0146,0.0352 -0.0352,0.0146 -0.0352,-0.0146 -0.004,-0.0052 -0.022,-0.0291 v 0 l -0.1512,-0.1379 -0.174,-0.1077 -0.1908,-0.0739 -0.151,-0.0282 v 0.6178 L 152.3069,91.51 h -0.1316 l -0.0866,0.0232 v -0.6178 0 l -0.151,0.0282 -0.1908,0.0739 -0.174,0.1077 -0.1512,0.1379 v 0 l -0.1233,0.1632 v 0 l -0.0912,0.1832 -0.056,0.1968 v 0 l -0.005,0.0513 h 0.6178 l -0.0232,0.0866 v 0.1316 l 0.0232,0.0866 h -0.6178 l 0.005,0.0513 v 0 l 0.056,0.1968 0.0912,0.1832 v 0 l 0.1233,0.1632 v 0 l 0.1512,0.1379 0.174,0.1077 0.1908,0.0739 0.151,0.0282 v 0 -0.6178 l 0.0866,0.0232 h 0.1316 l 0.0866,-0.0232 v 0.6178 l 0.151,-0.0282 0.1908,-0.0739 0.174,-0.1077 0.1512,-0.1379 v 0 l 0.022,-0.0291 0.0328,-0.0193 0.0369,0.0096 0.0193,0.0328 5e-4,0.0069 v 0.1378 l 0.0349,0.0842 v 0 l 0.2956,0.2956 0.2879,0.2879 0.0146,0.0352 -0.008,0.0276 -0.006,0.0096 -0.003,0.0046 -0.009,0.0446 v 1.7301 10e-5 l 0.009,0.0446 v 0 l 0.0338,0.0505 v 0 l 0.0505,0.0338 0.0446,0.0089 h 1.7302 l 0.0446,-0.0089 0.0505,-0.0338 0.0338,-0.0505 0.009,-0.0446 v -1.7302 l -0.009,-0.0446 v 0 0 l -0.0338,-0.0505 v 0 l -0.0505,-0.0338 -0.0446,-0.0089 h -1.2034 l -0.0352,-0.0146 -0.7628,-0.7628 -0.0146,-0.0352 V 92.01 h 0.1431 l 0.0194,0.1966 0.0574,0.189 0.0931,0.1743 0.1253,0.1527 0.1527,0.1253 0.1742,0.0931 0.1891,0.0574 0.1481,0.0146 0.0485,0.0048 v 0 0 l 0.0448,-0.0045 0.1518,-0.0149 0.189,-0.0574 0.1743,-0.0931 0.1527,-0.1253 0.1253,-0.1527 0.0931,-0.1743 0.0574,-0.189 0.0194,-0.1966 -0.0194,-0.1966 -0.0574,-0.1891 -0.0931,-0.1742 -0.1253,-0.1527 -0.1527,-0.1253 -0.1743,-0.0931 -0.189,-0.0574 -0.1966,-0.0194 v 0 l -0.1966,0.0194 -0.0287,0.0087 -0.1604,0.0487 v 0 0 l -0.0865,0.0462 -0.0877,0.0469 v 0 0 l -0.1527,0.1253 -0.1253,0.1527 v 0 0 l -0.032,0.0599 -0.0611,0.1143 v 0 0 l -0.0574,0.1891 -0.0194,0.1966 h -0.1431 v -1.1056 0 l -0.0349,-0.0842 -0.0644,-0.0644 -0.3663,-0.3663 -0.0146,-0.0352 0.0146,-0.0352 0.0352,-0.0146 h 3.0504 l 0.0352,0.0146 0.0146,0.0352 v 33.5914 l -0.0146,0.0352 -0.0352,0.0146 h -29.9993 l -0.0352,-0.0146 -0.0146,-0.0352 V 120.01 h 4.6922 l 0.0194,0.1966 0.0574,0.189 0.0931,0.1743 v 0 0 l 0.0321,0.0391 0.0932,0.1136 0.1527,0.1253 0.1742,0.0931 0.1891,0.0574 0.1481,0.0146 0.0485,0.005 v 0 0 l 0.0448,-0.004 0.1518,-0.0149 0.189,-0.0574 0.1743,-0.0931 0.1527,-0.1253 0.1253,-0.1527 0.0931,-0.1743 0.0424,-0.1397 0.0242,-0.0295 0.038,-0.004 0.0294,0.0241 0.006,0.0235 v 0.8642 l -0.0146,0.0352 -0.5003,0.5003 -0.0352,0.0145 -0.0234,-0.006 -0.1117,-0.0597 v 0 h -1e-4 l -0.189,-0.0574 -0.1966,-0.0194 v 0 l -0.1966,0.0194 -0.0647,0.0196 -0.1244,0.0378 v 0 0 l -0.0844,0.0451 -0.0898,0.048 v 0 0 l -0.1527,0.1253 -0.1253,0.1527 v 0 0 l -0.0132,0.0246 -0.0799,0.1496 v 0 0 l -0.0574,0.1891 -0.0194,0.1966 0.0194,0.1966 0.0574,0.189 0.0931,0.1743 0.1253,0.1527 0.1527,0.1253 0.1742,0.0931 0.1891,0.0574 0.1473,0.0145 0.0493,0.005 v 0 0 l 0.0448,-0.005 0.1518,-0.0149 0.189,-0.0574 0.1743,-0.0931 0.1527,-0.1253 0.1253,-0.1527 0.0931,-0.1743 0.0574,-0.189 0.0194,-0.1966 -0.0194,-0.1966 -0.0574,-0.1891 -0.0597,-0.1117 -0.004,-0.0379 0.0124,-0.0207 0.6142,-0.6142 0.0349,-0.0842 v -0.0912 -0.7593 l 0.0146,-0.0353 0.0352,-0.0145 0.0352,0.0145 0.009,0.0118 0.0793,0.1483 0.1253,0.1527 0.1527,0.1253 0.1743,0.0931 0.189,0.0574 0.1481,0.0146 0.0485,0.005 v 0 0 l 0.0448,-0.004 0.1518,-0.0149 0.1891,-0.0574 0.1742,-0.0931 0.1527,-0.1253 0.1253,-0.1527 0.0931,-0.1743 0.002,-0.008 0.0242,-0.0294 0.038,-0.004 0.0294,0.0242 0.006,0.0235 v 0.7723 l -0.0146,0.0352 -0.4603,0.4603 -0.0352,0.0145 -0.0234,-0.006 -0.1117,-0.0597 v 0 0 l -0.1891,-0.0574 -0.1966,-0.0194 v 0 l -0.1966,0.0194 -0.0647,0.0196 -0.1243,0.0378 h -1e-4 v 0 l -0.0844,0.0451 -0.0898,0.048 v 0 0 l -0.1527,0.1253 -0.1253,0.1527 v 0 0 l -0.0132,0.0246 -0.0799,0.1496 v 0 0 l -0.0574,0.1891 -0.0194,0.1966 0.0194,0.1966 0.0574,0.189 0.0931,0.1743 0.1253,0.1527 0.1527,0.1253 0.1743,0.0931 0.189,0.0574 0.1473,0.0145 0.0493,0.005 v 0 0 l 0.0448,-0.005 0.1518,-0.0149 0.1891,-0.0574 0.1742,-0.0931 0.1527,-0.1253 0.1253,-0.1527 0.0931,-0.1743 0.0574,-0.189 0.0194,-0.1966 h 0.5244 l 0.0194,0.1966 0.0574,0.189 0.0931,0.1743 0.1253,0.1527 0.1527,0.1253 0.1742,0.0931 0.1891,0.0574 0.1473,0.0145 0.0493,0.005 v 0 0 l 0.0448,-0.005 0.1518,-0.0149 0.189,-0.0574 0.1743,-0.0931 0.1527,-0.1253 0.1253,-0.1527 0.0931,-0.1743 0.0574,-0.189 0.0194,-0.1966 h 0.5244 l 0.0194,0.1966 0.0574,0.189 0.0931,0.1743 0.1253,0.1527 0.1527,0.1253 0.1742,0.0931 0.1891,0.0574 0.1473,0.0145 0.0493,0.005 v 0 0 l 0.0448,-0.005 0.1518,-0.0149 0.189,-0.0574 0.1743,-0.0931 0.1527,-0.1253 0.1253,-0.1527 0.0931,-0.1743 0.0574,-0.189 0.0194,-0.1966 h 0.5244 l 0.0194,0.1966 0.0574,0.189 0.0931,0.1743 0.1253,0.1527 0.1527,0.1253 0.1742,0.0931 0.1891,0.0574 0.1473,0.0145 0.0493,0.005 v 0 0 l 0.0448,-0.005 0.1518,-0.0149 0.189,-0.0574 0.1743,-0.0931 0.1527,-0.1253 0.1253,-0.1527 0.0931,-0.1743 0.0574,-0.189 0.0194,-0.1966 -0.0151,-0.1524 h 0.4527 0.6178 l -0.0232,0.0866 v 0.1316 l 0.0232,0.0866 h -0.6178 l 0.005,0.0513 v 0 l 0.056,0.1968 0.0912,0.1832 v 0 l 0.1233,0.1632 v 0 l 0.1512,0.1379 0.174,0.1077 0.1908,0.0739 0.151,0.0282 v 0 -0.6178 l 0.0866,0.0232 h 0.1316 l 0.0866,-0.0232 v 0.6178 l 0.151,-0.0282 0.1908,-0.0739 0.174,-0.1077 0.1512,-0.1379 v 0 l 0.1233,-0.1632 v 0 l 0.0912,-0.1832 0.0559,-0.1968 h 1e-4 l 0.005,-0.0513 h -0.6178 l 0.0232,-0.0866 V 122.55 h 1.0322 l 0.0194,0.1966 0.0574,0.189 0.0931,0.1743 0.1253,0.1527 0.1527,0.1253 0.1742,0.0931 0.1891,0.0574 0.1473,0.0145 0.0493,0.005 v 0 0 l 0.0448,-0.005 0.1518,-0.0149 0.189,-0.0574 0.1743,-0.0931 0.1527,-0.1253 0.1253,-0.1527 0.0931,-0.1743 0.0574,-0.189 0.0194,-0.1966 -0.0194,-0.1966 -0.0574,-0.1891 -0.0931,-0.1742 -0.1253,-0.1527 -0.1527,-0.1253 -0.1743,-0.0931 -0.189,-0.0574 -0.1966,-0.0194 v 0 l -0.1966,0.0194 -0.0647,0.0196 -0.1244,0.0378 v 0 0 l -0.0844,0.0451 -0.0898,0.048 v 0 0 l -0.1527,0.1253 -0.1253,0.1527 v 0 0 l -0.0132,0.0246 -0.0799,0.1496 v 0 0 l -0.0574,0.1891 -0.0194,0.1966 h -1.0322 v -0.0658 l -0.0232,-0.0866 h 0.6178 l -0.005,-0.0513 h -1e-4 l -0.0559,-0.1968 -0.0912,-0.1832 v 0 l -0.1233,-0.1632 v 0 l -0.1512,-0.1379 -0.174,-0.1077 -0.1908,-0.0739 -0.151,-0.0282 v 0.6178 l -0.0866,-0.0232 h -0.1316 l -0.0866,0.0232 v -0.6178 0 l -0.151,0.0282 -0.1908,0.0739 -0.174,0.1077 -0.1512,0.1379 v 0 l -0.1233,0.1632 v 0 l -0.0912,0.1832 -0.056,0.1968 v 0 l -0.005,0.0513 h -0.4527 l -0.004,-0.0442 -0.0574,-0.1891 -0.0931,-0.1742 -0.1253,-0.1527 -0.1527,-0.1253 -0.1743,-0.0931 -0.189,-0.0574 -0.1966,-0.0194 v 0 l -0.1966,0.0194 -0.0647,0.0196 -0.1244,0.0378 v 0 0 l -0.0844,0.0451 -0.0898,0.048 v 0 0 l -0.1527,0.1253 -0.1253,0.1527 v 0 0 l -0.0132,0.0246 -0.0799,0.1496 v 0 0 l -0.0574,0.1891 -0.0194,0.1966 h -0.5244 l -0.0194,-0.1966 -0.0574,-0.1891 -0.0931,-0.1742 -0.1253,-0.1527 -0.1527,-0.1253 -0.1743,-0.0931 -0.189,-0.0574 -0.1966,-0.0194 v 0 l -0.1966,0.0194 -0.0647,0.0196 -0.1244,0.0378 v 0 0 l -0.0844,0.0451 -0.0898,0.048 v 0 0 l -0.1527,0.1253 -0.1253,0.1527 v 0 0 l -0.0132,0.0246 -0.0799,0.1496 v 0 0 l -0.0574,0.1891 -0.0194,0.1966 h -0.5244 l -0.0194,-0.1966 -0.0574,-0.1891 -0.0931,-0.1742 -0.1253,-0.1527 -0.1527,-0.1253 -0.1743,-0.0931 -0.189,-0.0574 -0.1966,-0.0194 v 0 l -0.1966,0.0194 -0.0647,0.0196 -0.1244,0.0378 v 0 0 l -0.0844,0.0451 -0.0898,0.048 v 0 0 l -0.1527,0.1253 -0.1253,0.1527 v 0 0 l -0.0132,0.0246 -0.0799,0.1496 v 0 0 l -0.0574,0.1891 -0.0194,0.1966 h -0.5244 l -0.0194,-0.1966 -0.0574,-0.1891 -0.0597,-0.1117 -0.004,-0.0379 0.0124,-0.0207 0.5742,-0.5742 0.0349,-0.0842 v -0.0912 -0.9081 l 0.0146,-0.0353 0.0352,-0.0145 0.0352,0.0145 0.0125,0.0208 0.0224,0.0738 0.0931,0.1743 v 0 0 l 0.0321,0.0391 0.0932,0.1136 0.1527,0.1253 0.1742,0.0931 0.1891,0.0574 0.1481,0.0146 0.0485,0.005 v 0 0 l 0.0448,-0.004 0.1518,-0.0149 0.189,-0.0574 0.1743,-0.0931 0.1527,-0.1253 0.1253,-0.1527 0.0931,-0.1743 0.0574,-0.189 0.0194,-0.1966 h 0.5244 l 0.0194,0.1966 0.0574,0.189 0.0931,0.1743 v 0 0 l 0.0321,0.0391 0.0932,0.1136 0.1527,0.1253 0.1742,0.0931 0.1891,0.0574 0.1481,0.0146 0.0485,0.005 v 0 0 l 0.0448,-0.004 0.1518,-0.0149 0.189,-0.0574 0.1743,-0.0931 0.1527,-0.1253 0.1253,-0.1527 0.0931,-0.1743 0.0574,-0.189 0.0194,-0.1966 h 0.5244 l 0.0194,0.1966 0.0574,0.189 0.0931,0.1743 v 0 0 l 0.0321,0.0391 0.0932,0.1136 0.1527,0.1253 0.1742,0.0931 0.1891,0.0574 0.1481,0.0146 0.0485,0.005 v 0 0 l 0.0448,-0.004 0.1518,-0.0149 0.189,-0.0574 0.1743,-0.0931 0.1527,-0.1253 0.1253,-0.1527 0.0931,-0.1743 0.0574,-0.189 0.0194,-0.1966 h 0.5244 l 0.0194,0.1966 0.0574,0.189 0.0931,0.1743 v 0 0 l 0.0321,0.0391 0.0932,0.1136 0.1527,0.1253 0.1743,0.0931 0.189,0.0574 0.1481,0.0146 0.0485,0.005 v 0 0 l 0.0448,-0.004 0.1518,-0.0149 0.1891,-0.0574 0.1742,-0.0931 0.1527,-0.1253 0.1253,-0.1527 0.0931,-0.1743 0.0574,-0.189 0.0194,-0.1966 -0.0194,-0.1966 -0.0574,-0.1891 -0.0931,-0.1742 -0.1253,-0.1527 -0.1527,-0.1253 -0.1742,-0.0931 -0.1891,-0.0574 -0.1966,-0.0194 v 0 l -0.1966,0.0194 -0.0305,0.009 -0.1585,0.0481 h -10e-5 v 0 l -0.083,0.0443 -0.0912,0.0488 v 0 0 l -0.1527,0.1253 -0.1253,0.1527 -0.0931,0.1742 v 0 0 l -0.0574,0.1891 -0.0194,0.1966 h -0.5244 l -0.0194,-0.1966 -0.0574,-0.1891 -0.0931,-0.1742 -0.1253,-0.1527 -0.1527,-0.1253 -0.1743,-0.0931 -0.189,-0.0574 -0.1966,-0.0194 v 0 l -0.1966,0.0194 -0.0305,0.009 -0.1586,0.0481 v 0 0 l -0.083,0.0443 -0.0912,0.0488 v 0 0 l -0.1527,0.1253 -0.1253,0.1527 -0.0931,0.1742 v 0 0 l -0.0574,0.1891 -0.0194,0.1966 h -0.5244 l -0.0194,-0.1966 -0.0574,-0.1891 -0.0931,-0.1742 -0.1253,-0.1527 -0.1527,-0.1253 -0.1743,-0.0931 -0.189,-0.0574 -0.1966,-0.0194 v 0 l -0.1966,0.0194 -0.0305,0.009 -0.1586,0.0481 v 0 0 l -0.083,0.0443 -0.0912,0.0488 v 0 0 l -0.1527,0.1253 -0.1253,0.1527 -0.0931,0.1742 v 0 0 l -0.0574,0.1891 -0.0194,0.1966 h -0.5244 l -0.0194,-0.1966 -0.0574,-0.1891 -0.0931,-0.1742 -0.1253,-0.1527 -0.1527,-0.1253 -0.1743,-0.0931 -0.189,-0.0574 -0.1966,-0.0194 v 0 l -0.1966,0.0194 -0.0305,0.009 -0.1586,0.0481 v 0 0 l -0.083,0.0443 -0.0912,0.0488 v 0 0 l -0.1527,0.1253 -0.1253,0.1527 -0.0931,0.1742 v 0 0 l -0.0224,0.0739 -0.0242,0.0295 -0.038,0.004 -0.0294,-0.0242 -0.006,-0.0235 v -0.5182 l 0.0146,-0.0352 1.1505,-1.1505 v 0 l 2.033,-2.033 h 0.3876 v 0 l 0.0196,0.1367 v 0 l 0.0574,0.1256 v 0 l 0.0904,0.1044 v 0 l 0.1162,0.0747 v 0 0 l 0.1325,0.0389 v 0 h 0.1382 v 0 l 0.1325,-0.0389 0.1162,-0.0747 0.0904,-0.1044 0.002,-0.004 0.0279,-0.026 0.0174,-0.003 h 5.6622 l 0.0352,0.0146 0.0683,0.0683 v 0 l 1.9352,1.9352 0.0146,0.0352 v 1.3886 l -0.0146,0.0352 -0.0352,0.0146 -0.0352,-0.0146 -0.0125,-0.0207 -0.002,-0.008 -0.0931,-0.1742 -0.1253,-0.1527 -0.1527,-0.1253 -0.1743,-0.0931 -0.189,-0.0574 -0.1966,-0.0194 v 0 l -0.1966,0.0194 -0.0305,0.009 -0.1586,0.0481 v 0 0 l -0.083,0.0443 -0.0912,0.0488 v 0 0 l -0.1527,0.1253 -0.1253,0.1527 -0.0931,0.1742 v 0 0 l -0.0574,0.1891 -0.0194,0.1966 0.0194,0.1966 0.0574,0.189 0.0931,0.1743 v 0 0 l 0.0321,0.0391 0.0932,0.1136 0.1527,0.1253 0.1742,0.0931 0.1891,0.0574 0.1481,0.0146 0.0485,0.005 v 0 0 l 0.0448,-0.004 0.1518,-0.0149 0.189,-0.0574 0.1743,-0.0931 0.1527,-0.1253 0.1253,-0.1527 0.0931,-0.1743 0.002,-0.008 0.0242,-0.0294 0.038,-0.004 0.0294,0.0242 0.006,0.0235 v 0.1934 l 0.0349,0.0842 v 0 l 0.8644,0.8644 0.042,0.0174 0.0422,0.0175 v 0 h 0.0157 l 0.0352,0.0146 0.0146,0.0352 -0.0146,0.0352 -0.0117,0.009 -0.0435,0.0233 -0.03,0.016 v 0 l -0.1527,0.1253 -0.1253,0.1527 v 0 0 l -0.0132,0.0246 -0.0799,0.1496 v 0 0 l -0.0574,0.1891 -0.0194,0.1966 0.0194,0.1966 0.0574,0.189 0.0931,0.1743 0.1253,0.1527 0.1527,0.1253 0.1742,0.0931 0.1891,0.0574 0.1473,0.0145 0.0493,0.005 v 0 0 l 0.0448,-0.005 0.1518,-0.0149 0.189,-0.0574 0.1743,-0.0931 0.1527,-0.1253 0.1253,-0.1527 0.0931,-0.1743 0.0574,-0.189 0.0194,-0.1966 -0.0194,-0.1966 -0.0574,-0.1891 -0.0931,-0.1742 -0.1253,-0.1527 -0.1527,-0.1253 -0.0735,-0.0393 -0.0242,-0.0294 0.004,-0.038 0.0294,-0.0242 0.0145,-0.002 h 1.5202 l 0.0352,0.0146 0.0146,0.0352 -0.0146,0.0352 -0.0117,0.009 -0.0435,0.0233 -0.03,0.016 v 0 l -0.1527,0.1253 -0.1253,0.1527 v 0 0 l -0.0132,0.0246 -0.0799,0.1496 v 0 0 l -0.0574,0.1891 -0.0194,0.1966 0.0194,0.1966 0.0574,0.189 0.0931,0.1743 0.1253,0.1527 0.1527,0.1253 0.1742,0.0931 0.1891,0.0574 0.1473,0.0145 0.0493,0.005 v 0 0 l 0.0448,-0.005 0.1518,-0.0149 0.1891,-0.0574 0.1742,-0.0931 0.1527,-0.1253 0.1253,-0.1527 0.0931,-0.1743 0.0574,-0.189 0.0194,-0.1966 -0.0194,-0.1966 -0.0574,-0.1891 -0.0931,-0.1742 -0.1253,-0.1527 -0.1527,-0.1253 -0.0735,-0.0393 -0.0242,-0.0294 0.004,-0.038 0.0294,-0.0242 0.0145,-0.002 h 0.7146 l 0.0352,0.0146 0.2628,0.2628 0.0146,0.0352 v 1.5233 1e-4 l 0.009,0.0446 v 0 l 0.0338,0.0505 v 0 l 0.0505,0.0338 0.0446,0.009 h 1.7302 l 0.0446,-0.009 0.0505,-0.0338 0.0338,-0.0505 0.009,-0.0446 v -1.7302 l -0.009,-0.0446 v 0 0 l -0.0338,-0.0505 v 0 l -0.0505,-0.0338 -0.0446,-0.009 h -1.5234 l -0.0352,-0.0146 -0.3767,-0.3767 -0.0596,-0.0247 -0.0246,-0.0102 v 0 h -4.2901 l -0.0352,-0.0146 -0.1338,-0.1338 -0.0146,-0.0352 0.0146,-0.0352 0.0352,-0.0146 0.0235,0.006 0.0891,0.0476 0.1891,0.0574 0.1481,0.0146 0.0485,0.005 v 0 0 l 0.0448,-0.004 0.1518,-0.0149 0.189,-0.0574 0.1743,-0.0931 0.1527,-0.1253 0.1253,-0.1527 0.0931,-0.1743 0.0574,-0.189 0.0194,-0.1966 -0.0194,-0.1966 -0.0574,-0.1891 -0.0931,-0.1742 -0.1253,-0.1527 -0.1527,-0.1253 -0.1743,-0.0931 -0.189,-0.0574 -0.1966,-0.0194 v 0 l -0.1966,0.0194 -0.0305,0.009 -0.1586,0.0481 v 0 0 l -0.083,0.0443 -0.0912,0.0488 v 0 0 l -0.1527,0.1253 -0.1253,0.1527 -0.0931,0.1742 v 0 0 l -0.0224,0.0739 -0.0242,0.0295 -0.038,0.004 -0.0294,-0.0242 -0.006,-0.0235 v -1.6156 0 l -0.0102,-0.0246 -0.0247,-0.0596 -2.0463,-2.0463 v 0 l -0.003,-0.003 v 0 l -0.1822,-0.1822 -0.0596,-0.0247 -0.0246,-0.0102 v 0 h -5.8233 l -0.0352,-0.0146 -0.0101,-0.0145 -0.002,-0.004 -0.0408,-0.0471 -0.0496,-0.0573 v 0 l -0.1162,-0.0747 v 0 0 l -0.1325,-0.0389 h -0.1382 l -0.1325,0.0389 v 0 0 l -0.1162,0.0747 v 0 l -0.0904,0.1044 v 0 l -0.0574,0.1256 v 0 l -0.0196,0.1367 h -0.3876 l 0.367,-0.367 0.0308,-0.0744 0.004,-0.01 v -0.435 h 4.0357 v 0 l 0.0196,0.1367 v 0 l 0.0574,0.1256 v 0 l 0.0904,0.1044 v 0 l 0.1162,0.0747 v 0 0 l 0.1325,0.0389 v 0 h 0.1382 v 0 l 0.1325,-0.0389 0.1162,-0.0747 0.0904,-0.1044 0.0574,-0.1256 0.0178,-0.1241 0.002,-0.0126 v 0 l -0.0104,-0.0723 -0.009,-0.0644 -0.0574,-0.1256 v 0 0 0 l -0.0904,-0.1044 v 0 l -0.1162,-0.0747 v 0 0 l -0.1325,-0.0389 h -0.1382 l -0.1325,0.0389 v 0 0 l -0.1162,0.0747 v 0 l -0.0904,0.1044 v 0 l -0.0574,0.1256 v 0 l -0.0196,0.1367 h -4.0357 V 114.2044 111.8 h 3.5357 v 0 l 0.0196,0.1367 v 0 l 0.0574,0.1256 v 0 l 0.0904,0.1044 v 0 l 0.1162,0.0747 v 0 0 l 0.1325,0.0389 v 0 h 0.1382 v 0 l 0.1325,-0.0389 0.1162,-0.0747 0.0904,-0.1044 0.0574,-0.1256 0.0196,-0.1367 -0.0196,-0.1367 -0.0574,-0.1256 v 0 0 0 l -0.0904,-0.1044 v 0 l -0.1162,-0.0747 v 0 0 l -0.1325,-0.0389 h -0.1382 l -0.1325,0.0389 v 0 0 l -0.1162,0.0747 v 0 l -0.0904,0.1044 v 0 l -0.0574,0.1256 v 0 l -0.0196,0.1367 h -3.5357 v -1.294 h 4.5857 v 0 l 0.0196,0.1367 v 0 l 0.0574,0.1256 v 0 l 0.0904,0.1044 v 0 l 0.1162,0.0747 v 0 0 l 0.1325,0.0389 v 0 h 0.1382 v 0 l 0.1325,-0.0389 0.1162,-0.0747 0.0904,-0.1044 0.0574,-0.1256 0.0196,-0.1367 -0.006,-0.0405 -7e-4,-0.005 -0.0131,-0.0911 -0.0574,-0.1256 v 0 0 0 l -0.0904,-0.1044 v 0 l -0.1162,-0.0747 v 0 0 l -0.1325,-0.0389 h -0.1382 l -0.1325,0.0389 v 0 0 l -0.1162,0.0747 v 0 l -0.0904,0.1044 v 0 l -0.0574,0.1256 v 0 l -0.0196,0.1367 h -4.5857 v -2.4405 l 0.0146,-0.0352 0.3318,-0.3318 0.0352,-0.0146 h 1.6301 l 0.0155,-0.006 0.009,-0.004 v 0 l 0.0421,-0.0175 0.0175,-0.007 0.5692,-0.5692 0.1157,-0.1157 0.0349,-0.0842 v -0.0912 -0.2431 l 0.0146,-0.0352 0.008,-0.007 0.0657,-0.0422 0.0905,-0.1044 0.0574,-0.1257 0.0196,-0.1367 -0.004,-0.028 -0.008,-0.0518 -0.008,-0.0569 -0.0574,-0.1256 v 0 0 0 l -0.0904,-0.1044 h -1e-4 l -0.1161,-0.0747 v 0 l -0.0216,-0.006 -0.0296,-0.0239 -0.004,-0.0379 0.002,-0.007 0.0497,-0.1089 0.0196,-0.1367 -0.003,-0.018 -0.0106,-0.0741 -0.006,-0.0446 -0.0574,-0.1256 v 0 0 0 l -0.0904,-0.1044 v 0 l -0.1162,-0.0747 v 0 0 l -0.1325,-0.0389 h -0.1382 l -0.1325,0.0389 v 0 0 l -0.1162,0.0747 v 0 l -0.0482,0.0556 -0.0341,0.0171 -0.0361,-0.0121 -0.005,-0.005 -0.0482,-0.0556 v 0 l -0.1162,-0.0747 v 0 0 l -0.1325,-0.0389 v 0 h -0.0198 l -0.0352,-0.0146 -0.0146,-0.0352 5e-4,-0.007 0.0176,-0.1221 v 0 l -0.0164,-0.1138 -0.003,-0.0229 -0.0574,-0.1256 v 0 0 0 l -0.0904,-0.1044 v 0 l -0.1162,-0.0747 v 0 0 l -0.1325,-0.0389 h -0.1381 l -0.1326,0.0389 v 0 0 l -0.1161,0.0747 v 0 l -0.0905,0.1044 v 0 l -0.0574,0.1256 v 0 l -0.0196,0.1367 v 0 l 0.0196,0.1367 v 0 l 0.0574,0.1257 0.001,0.002 0.007,0.0375 -0.0217,0.0313 -0.0269,0.008 h -0.0706 l -0.0128,0.005 -0.0714,0.0296 -0.3644,0.3644 -0.0133,0.0321 -0.009,0.0224 -0.006,0.0149 -0.006,0.0148 v 0.3361 l -0.0146,0.0352 -1.5505,1.5505 -0.0181,0.0437 v 0 l -0.0168,0.0405 v 0.6221 l -0.0146,0.0352 -0.0352,0.0146 -0.0352,-0.0146 -0.002,-0.003 -0.0657,-0.0758 v 0 l -0.1162,-0.0747 v 0 0 l -0.1325,-0.0389 h -0.1382 l -0.1325,0.0389 v 0 0 l -0.1162,0.0747 v 0 l -0.0904,0.1044 v 0 l -0.0574,0.1256 v 0 l -0.0196,0.1367 v 0 l 0.0196,0.1367 v 0 l 0.0574,0.1256 v 0 l 0.0594,0.0686 0.031,0.0358 0.0718,0.0462 0.0218,0.0313 0.001,0.0105 v 2.6238 l -0.0146,0.0352 -0.8565,0.8565 -0.0175,0.0421 v 0 l -0.0174,0.0421 v 1.0947 l -0.0146,0.0352 -0.008,0.007 -0.0658,0.0423 -0.0904,0.1044 v 0 l -0.0574,0.1256 v 0 l -0.0196,0.1367 v 0 l 0.0196,0.1367 v 0 l 0.0574,0.1256 v 0 l 0.0904,0.1044 v 0 l 0.1162,0.0747 v 0 0 l 0.1325,0.0389 v 0 h 0.1417 v 10e-4 l 0.0332,0.008 0.0194,0.0328 -0.009,0.037 -0.005,0.005 -4.4341,4.4341 -0.0352,0.0146 -0.0144,-0.002 -0.1309,-0.0397 -0.1966,-0.0194 v 0 l -0.1966,0.0194 -0.0305,0.009 -0.1586,0.0481 v 0 0 l -0.083,0.0443 -0.0912,0.0488 v 0 0 l -0.1527,0.1253 -0.1253,0.1527 -0.0931,0.1742 v 0 0 l -0.0574,0.1891 -0.0194,0.1966 h -4.6922 v -12.6851 h 2.4971 v 1.7301 1e-4 l 0.009,0.0446 v 0 l 0.0338,0.0505 v 0 l 0.0505,0.0338 0.0446,0.009 h 1.7302 l 0.0446,-0.009 0.0505,-0.0338 0.0338,-0.0505 0.009,-0.0446 v -1.7302 l -0.009,-0.0446 v 0 0 l -0.0338,-0.0505 v 0 l -0.0505,-0.0338 -0.0446,-0.009 v 0 h -1.7302 v 0 l -0.0334,0.007 -0.0112,0.002 v 0 0 l -0.0505,0.0338 v 0 l -0.0338,0.0505 v 0 l -0.009,0.0446 h -2.4971 v -1.8273 h 2.4054 0.6178 l -0.0232,0.0866 v 0.1316 l 0.0232,0.0866 h -0.6178 l 0.005,0.0513 v 0 l 0.056,0.1968 0.0912,0.1832 v 0 l 0.1233,0.1632 v 0 l 0.1512,0.1379 0.174,0.1077 0.1908,0.0739 0.151,0.0282 v 0 -0.6178 l 0.0866,0.0232 h 0.1316 l 0.0866,-0.0232 v 0.6178 l 0.151,-0.0282 0.1908,-0.0739 0.174,-0.1077 0.1512,-0.1379 v 0 l 0.1233,-0.1632 v 0 l 0.0912,-0.1832 0.0559,-0.1968 h 1e-4 l 0.005,-0.0513 h -0.6178 l 0.0232,-0.0866 v -0.1316 l -0.0232,-0.0866 h 0.6178 l -0.005,-0.0513 h -1e-4 l -0.0559,-0.1968 -0.0912,-0.1832 v 0 l -0.0879,-0.1163 h 5.06 v 0 l 0.0196,0.1367 v 0 l 0.0574,0.1256 v 0 l 0.0904,0.1044 v 0 l 0.1162,0.0747 v 0 0 l 0.1325,0.0389 v 0 h 0.1382 v 0 l 0.1325,-0.0389 0.1162,-0.0747 0.0904,-0.1044 0.0574,-0.1256 0.0196,-0.1367 -0.0196,-0.1367 -0.0574,-0.1256 v 0 0 0 l -0.0904,-0.1044 v 0 l -0.1162,-0.0747 v 0 0 l -0.1325,-0.0389 h -0.1382 l -0.1325,0.0389 v 0 0 l -0.1162,0.0747 v 0 l -0.0904,0.1044 v 0 l -0.0574,0.1256 v 0 l -0.0196,0.1367 h -5.06 l -0.0354,-0.0469 v 0 l -0.1512,-0.1379 -0.174,-0.1077 -0.1908,-0.0739 -0.151,-0.0282 v 0.6178 l -0.0866,-0.0232 h -0.1316 l -0.0866,0.0232 v -0.6178 0 l -0.151,0.0282 -0.1908,0.0739 -0.174,0.1077 -0.1512,0.1379 v 0 l -0.1233,0.1632 v 0 l -0.0912,0.1832 -0.056,0.1968 v 0 l -0.005,0.0513 h -2.4054 v -1.8594 h 14.9265 v 0 l 0.0197,0.1367 v 0 l 0.0574,0.1257 v 0 l 0.0904,0.1043 v 1e-4 l 0.1162,0.0746 v 0 0 l 0.1325,0.0389 v 0 h 0.1381 v 0 l 0.1325,-0.0389 0.1162,-0.0746 0.0905,-0.1044 0.0574,-0.1257 0.0196,-0.1367 -0.0196,-0.1367 -0.0574,-0.1256 v 0 0 0 l -0.0905,-0.1044 v 0 l -0.1162,-0.0747 v 0 0 l -0.1325,-0.0389 h -0.1381 l -0.1325,0.0389 v 0 0 l -0.1162,0.0747 v 0 l -0.0904,0.1044 v 0 l -0.0574,0.1256 v 0 l -0.0197,0.1367 H 126.2011 V 92.01 h 4.7122 l 0.0194,0.1966 0.0574,0.189 0.0931,0.1743 0.1253,0.1527 0.1527,0.1253 0.1742,0.0931 0.1891,0.0574 0.1481,0.0146 0.0485,0.0048 v 0 0 l 0.0448,-0.0045 0.1518,-0.0149 0.189,-0.0574 0.1743,-0.0931 0.1527,-0.1253 0.1253,-0.1527 0.0931,-0.1743 0.0574,-0.189 0.0194,-0.1966 -0.0194,-0.1966 -0.0574,-0.1891 -0.0931,-0.1742 -0.1253,-0.1527 -0.1527,-0.1253 -0.1743,-0.0931 -0.189,-0.0574 -0.1966,-0.0194 v 0 l -0.1966,0.0194 -0.0287,0.0087 -0.1604,0.0487 v 0 0 l -0.0865,0.0462 -0.0877,0.0469 v 0 0 l -0.1527,0.1253 -0.1253,0.1527 v 0 0 l -0.032,0.0599 -0.0611,0.1143 v 0 0 l -0.0574,0.1891 -0.0194,0.1966 h -4.7122 v -1.6557 l 0.0146,-0.0352 0.0352,-0.0146 h 13.0261 z"
       id="path958" />
    <path
       style="fill:#4d7fc4;fill-opacity:1;fill-rule:evenodd;stroke:none"
       d="m 148.986,109.4589 1.7214,1.7214 0.0146,0.0352 v 0.5336 l -0.0146,0.0352 -0.008,0.007 -0.0658,0.0423 -0.0904,0.1044 v 0 l -0.0574,0.1256 v 0 l -0.0196,0.1367 v 0 l 0.0196,0.1367 v 0 l 0.0574,0.1256 0.0904,0.1044 v 0 l 0.1162,0.0747 v 0 0 l 0.1325,0.0389 v 0 h 0.1382 v 0 l 0.1325,-0.0389 0.1162,-0.0747 0.0904,-0.1044 0.0574,-0.1256 0.006,-0.0433 0.0195,-0.0328 0.0369,-0.009 0.0328,0.0195 0.01,0.0298 v 3.9194 l -0.0146,0.0352 -0.0352,0.0146 h -0.0402 l -0.1325,0.0389 v 0 0 l -0.1162,0.0747 v 0 l -0.0904,0.1044 v 0 l -0.0574,0.1256 v 0 l -0.0196,0.1367 v 0 l 0.0196,0.1367 v 0 l 0.0574,0.1256 v 0 l 0.0904,0.1044 v 0 l 0.1162,0.0747 v 0 0 l 0.1088,0.0319 0.0296,0.0239 0.004,0.0379 -0.0239,0.0297 -0.0239,0.006 h -0.3776 l -0.0352,-0.0146 -3.2366,-3.2366 -0.0146,-0.0352 v -4.2226 l -0.0144,-0.0348 v -10e-5 l -0.009,-0.0219 v -0.0381 l 0.0269,-0.0269 0.005,-0.002 0.1081,-0.0317 0.1162,-0.0747 0.0904,-0.1044 0.002,-0.004 0.0279,-0.026 0.0174,-0.003 h 0.8503 z"
       id="path960" />
  </g>
</svg>
