<?xml version="1.0" standalone="no"?>
 <!DOCTYPE svg PUBLIC "-//W3C//DTD SVG 1.1//EN" 
 "http://www.w3.org/Graphics/SVG/1.1/DTD/svg11.dtd"> 
<svg
  xmlns:svg="http://www.w3.org/2000/svg"
  xmlns="http://www.w3.org/2000/svg"
  xmlns:xlink="http://www.w3.org/1999/xlink"
  version="1.1"
  width="297.0022mm" height="210.0072mm" viewBox="0.0000 0.0000 297.0022 210.0072">
<title>SVG Image created as max2771_fx2lp-B_Cu.svg date 2024/06/12 18:04:55 </title>
  <desc>Image generated by PCBNEW </desc>
<g style="fill:#000000; fill-opacity:1.0000;stroke:#000000; stroke-opacity:1.0000;
stroke-linecap:round; stroke-linejoin:round;"
 transform="translate(0 0) scale(1 1)">
<path style="fill:#000000; fill-opacity:1.0000; stroke:none;fill-rule:evenodd;"
d="M 126.2028,97.8900
126.2028,96.8900
130.2028,96.8900
130.2028,97.8900
Z" /> 
<path style="fill:#000000; fill-opacity:1.0000; stroke:none;fill-rule:evenodd;"
d="M 126.2028,92.3900
126.2028,91.3900
130.2028,91.3900
130.2028,92.3900
Z" /> 
<path style="fill:#000000; fill-opacity:1.0000; stroke:none;fill-rule:evenodd;"
d="M 153.9111,121.7000
155.6111,121.7000
155.6111,123.4000
153.9111,123.4000
Z" /> 
</g>
<g style="fill:#000000; fill-opacity:1.0000; stroke:none;">
<circle cx="154.7611" cy="120.0100" r="0.8500" /> 
<circle cx="152.2211" cy="122.5500" r="0.8500" /> 
<circle cx="152.2211" cy="120.0100" r="0.8500" /> 
<circle cx="149.6811" cy="122.5500" r="0.8500" /> 
<circle cx="149.6811" cy="120.0100" r="0.8500" /> 
<circle cx="147.1411" cy="122.5500" r="0.8500" /> 
<circle cx="147.1411" cy="120.0100" r="0.8500" /> 
<circle cx="144.6011" cy="122.5500" r="0.8500" /> 
<circle cx="144.6011" cy="120.0100" r="0.8500" /> 
<circle cx="142.0611" cy="122.5500" r="0.8500" /> 
<circle cx="142.0611" cy="120.0100" r="0.8500" /> 
<circle cx="139.5211" cy="122.5500" r="0.8500" /> 
<circle cx="139.5211" cy="120.0100" r="0.8500" /> 
<circle cx="136.9811" cy="122.5500" r="0.8500" /> 
<circle cx="136.9811" cy="120.0100" r="0.8500" /> 
<circle cx="134.4411" cy="122.5500" r="0.8500" /> 
<circle cx="134.4411" cy="120.0100" r="0.8500" /> 
<circle cx="131.9011" cy="122.5500" r="0.8500" /> 
<circle cx="131.9011" cy="120.0100" r="0.8500" /> 
<path style="fill:#000000; fill-opacity:1.0000; stroke:none;fill-rule:evenodd;"
d="M 130.5511,107.3400
130.5511,109.0400
128.8511,109.0400
128.8511,107.3400
Z" /> 
<circle cx="129.7011" cy="105.6500" r="0.8500" /> 
<circle cx="139.5011" cy="103.6500" r="0.4290" /> 
</g>
<g style="fill:#000000; fill-opacity:1.0000; stroke:none;">
<circle cx="139.5011" cy="102.5500" r="0.4290" /> 
</g>
<g style="fill:#000000; fill-opacity:1.0000; stroke:none;">
<circle cx="139.5011" cy="101.4500" r="0.4290" /> 
</g>
<g style="fill:#000000; fill-opacity:1.0000; stroke:none;">
<circle cx="138.4011" cy="103.6500" r="0.4290" /> 
</g>
<g style="fill:#000000; fill-opacity:1.0000; stroke:none;">
<circle cx="138.4011" cy="102.5500" r="0.4290" /> 
</g>
<g style="fill:#000000; fill-opacity:1.0000; stroke:none;">
<circle cx="138.4011" cy="101.4500" r="0.4290" /> 
</g>
<g style="fill:#000000; fill-opacity:1.0000; stroke:none;">
<circle cx="137.3011" cy="103.6500" r="0.4290" /> 
</g>
<g style="fill:#000000; fill-opacity:1.0000; stroke:none;">
<circle cx="137.3011" cy="102.5500" r="0.4290" /> 
</g>
<g style="fill:#000000; fill-opacity:1.0000; stroke:none;">
<circle cx="137.3011" cy="101.4500" r="0.4290" /> 
</g>
<g style="fill:#000000; fill-opacity:1.0000; stroke:none;">
<circle cx="142.5011" cy="110.5500" r="0.4290" /> 
</g>
<g style="fill:#000000; fill-opacity:1.0000; stroke:none;">
<circle cx="142.5011" cy="109.4500" r="0.4290" /> 
</g>
<g style="fill:#000000; fill-opacity:1.0000; stroke:none;">
<circle cx="142.5011" cy="108.3500" r="0.4290" /> 
</g>
<g style="fill:#000000; fill-opacity:1.0000; stroke:none;">
<circle cx="141.4011" cy="110.5500" r="0.4290" /> 
</g>
<g style="fill:#000000; fill-opacity:1.0000; stroke:none;">
<circle cx="141.4011" cy="109.4500" r="0.4290" /> 
</g>
<g style="fill:#000000; fill-opacity:1.0000; stroke:none;">
<circle cx="141.4011" cy="108.3500" r="0.4290" /> 
</g>
<g style="fill:#000000; fill-opacity:1.0000; stroke:none;">
<circle cx="140.3011" cy="110.5500" r="0.4290" /> 
</g>
<g style="fill:#000000; fill-opacity:1.0000; stroke:none;">
<circle cx="140.3011" cy="109.4500" r="0.4290" /> 
</g>
<g style="fill:#000000; fill-opacity:1.0000; stroke:none;">
<circle cx="140.3011" cy="108.3500" r="0.4290" /> 
<path style="fill:#000000; fill-opacity:1.0000; stroke:none;fill-rule:evenodd;"
d="M 156.2011,99.7500
156.2011,100.7500
152.2011,100.7500
152.2011,99.7500
Z" /> 
<path style="fill:#000000; fill-opacity:1.0000; stroke:none;fill-rule:evenodd;"
d="M 156.2011,105.2500
156.2011,106.2500
152.2011,106.2500
152.2011,105.2500
Z" /> 
<path style="fill:#000000; fill-opacity:1.0000; stroke:none;fill-rule:evenodd;"
d="M 153.9311,93.7000
155.6311,93.7000
155.6311,95.4000
153.9311,95.4000
Z" /> 
</g>
<g style="fill:#000000; fill-opacity:1.0000; stroke:none;">
<circle cx="154.7811" cy="92.0100" r="0.8500" /> 
<circle cx="152.2411" cy="94.5500" r="0.8500" /> 
<circle cx="152.2411" cy="92.0100" r="0.8500" /> 
<circle cx="149.7011" cy="94.5500" r="0.8500" /> 
<circle cx="149.7011" cy="92.0100" r="0.8500" /> 
<circle cx="147.1611" cy="94.5500" r="0.8500" /> 
<circle cx="147.1611" cy="92.0100" r="0.8500" /> 
<circle cx="144.6211" cy="94.5500" r="0.8500" /> 
<circle cx="144.6211" cy="92.0100" r="0.8500" /> 
<circle cx="142.0811" cy="94.5500" r="0.8500" /> 
<circle cx="142.0811" cy="92.0100" r="0.8500" /> 
<circle cx="139.5411" cy="94.5500" r="0.8500" /> 
<circle cx="139.5411" cy="92.0100" r="0.8500" /> 
<circle cx="137.0011" cy="94.5500" r="0.8500" /> 
<circle cx="137.0011" cy="92.0100" r="0.8500" /> 
<circle cx="134.4611" cy="94.5500" r="0.8500" /> 
<circle cx="134.4611" cy="92.0100" r="0.8500" /> 
<circle cx="131.9211" cy="94.5500" r="0.8500" /> 
<circle cx="131.9211" cy="92.0100" r="0.8500" /> 
<path style="fill:#000000; fill-opacity:1.0000; stroke:none;fill-rule:evenodd;"
d="M 126.2011,123.3000
126.2011,122.3000
130.2011,122.3000
130.2011,123.3000
Z" /> 
<path style="fill:#000000; fill-opacity:1.0000; stroke:none;fill-rule:evenodd;"
d="M 126.2011,117.8000
126.2011,116.8000
130.2011,116.8000
130.2011,117.8000
Z" /> 
<circle cx="145.6011" cy="104.4500" r="0.3274" /> 
</g>
<g style="fill:#000000; fill-opacity:1.0000; stroke:none;">
<circle cx="152.3011" cy="112.4500" r="0.3274" /> 
</g>
<g style="fill:#000000; fill-opacity:1.0000; stroke:none;">
<circle cx="147.6451" cy="109.2152" r="0.3274" /> 
</g>
<g style="fill:#000000; fill-opacity:1.0000; stroke:none;">
<circle cx="151.9374" cy="107.1500" r="0.3274" /> 
</g>
<g style="fill:#000000; fill-opacity:1.0000; stroke:none;">
<circle cx="145.2393" cy="102.7749" r="0.3274" /> 
</g>
<g style="fill:#000000; fill-opacity:1.0000; stroke:none;">
<circle cx="137.1511" cy="106.7500" r="0.3274" /> 
</g>
<g style="fill:#000000; fill-opacity:1.0000; stroke:none;">
<circle cx="133.7011" cy="107.6500" r="0.3274" /> 
</g>
<g style="fill:#000000; fill-opacity:1.0000; stroke:none;">
<circle cx="134.5011" cy="109.0000" r="0.3274" /> 
</g>
<g style="fill:#000000; fill-opacity:1.0000; stroke:none;">
<circle cx="132.3011" cy="100.8500" r="0.3274" /> 
</g>
<g style="fill:#000000; fill-opacity:1.0000; stroke:none;">
<circle cx="130.8011" cy="117.8500" r="0.3274" /> 
</g>
<g style="fill:#000000; fill-opacity:1.0000; stroke:none;">
<circle cx="134.9011" cy="115.4000" r="0.3274" /> 
</g>
<g style="fill:#000000; fill-opacity:1.0000; stroke:none;">
<circle cx="136.1511" cy="109.0500" r="0.3274" /> 
</g>
<g style="fill:#000000; fill-opacity:1.0000; stroke:none;">
<circle cx="132.3407" cy="117.0673" r="0.3274" /> 
</g>
<g style="fill:#000000; fill-opacity:1.0000; stroke:none;">
<circle cx="132.4011" cy="109.9500" r="0.3274" /> 
</g>
<g style="fill:#000000; fill-opacity:1.0000; stroke:none;">
<circle cx="143.8511" cy="98.9000" r="0.3274" /> 
</g>
<g style="fill:#000000; fill-opacity:1.0000; stroke:none;">
<circle cx="132.3727" cy="117.9634" r="0.3274" /> 
</g>
<g style="fill:#000000; fill-opacity:1.0000; stroke:none;">
<circle cx="134.5011" cy="108.1500" r="0.3274" /> 
</g>
<g style="fill:#000000; fill-opacity:1.0000; stroke:none;">
<circle cx="130.7011" cy="100.8500" r="0.3274" /> 
</g>
<g style="fill:#000000; fill-opacity:1.0000; stroke:none;">
<circle cx="150.5011" cy="109.5500" r="0.3274" /> 
</g>
<g style="fill:#000000; fill-opacity:1.0000; stroke:none;">
<circle cx="133.5011" cy="115.8500" r="0.3274" /> 
</g>
<g style="fill:#000000; fill-opacity:1.0000; stroke:none;">
<circle cx="141.2011" cy="98.3500" r="0.3274" /> 
</g>
<g style="fill:#000000; fill-opacity:1.0000; stroke:none;">
<circle cx="132.9011" cy="104.3000" r="0.3274" /> 
</g>
<g style="fill:#000000; fill-opacity:1.0000; stroke:none;">
<circle cx="130.9011" cy="113.9500" r="0.3274" /> 
</g>
<g style="fill:#000000; fill-opacity:1.0000; stroke:none;">
<circle cx="148.5649" cy="114.1000" r="0.3274" /> 
</g>
<g style="fill:#000000; fill-opacity:1.0000; stroke:none;">
<circle cx="132.3011" cy="96.7500" r="0.3274" /> 
</g>
<g style="fill:#000000; fill-opacity:1.0000; stroke:none;">
<circle cx="127.7011" cy="118.6500" r="0.3274" /> 
</g>
<g style="fill:#000000; fill-opacity:1.0000; stroke:none;">
<circle cx="130.9011" cy="113.0500" r="0.3274" /> 
</g>
<g style="fill:#000000; fill-opacity:1.0000; stroke:none;">
<circle cx="135.2511" cy="112.9500" r="0.3274" /> 
</g>
<g style="fill:#000000; fill-opacity:1.0000; stroke:none;">
<circle cx="131.7011" cy="110.4500" r="0.3274" /> 
</g>
<g style="fill:#000000; fill-opacity:1.0000; stroke:none;">
<circle cx="140.6011" cy="114.1000" r="0.3274" /> 
</g>
<g style="fill:#000000; fill-opacity:1.0000; stroke:none;">
<circle cx="130.7213" cy="96.7500" r="0.3274" /> 
</g>
<g style="fill:#000000; fill-opacity:1.0000; stroke:none;">
<circle cx="132.3011" cy="98.3500" r="0.3274" /> 
</g>
<g style="fill:#000000; fill-opacity:1.0000; stroke:none;">
<circle cx="131.0011" cy="101.7500" r="0.3274" /> 
</g>
<g style="fill:#000000; fill-opacity:1.0000; stroke:none;">
<circle cx="148.5649" cy="110.5500" r="0.3274" /> 
</g>
<g style="fill:#000000; fill-opacity:1.0000; stroke:none;">
<circle cx="130.7011" cy="98.3500" r="0.3274" /> 
</g>
<g style="fill:#000000; fill-opacity:1.0000; stroke:none;">
<circle cx="148.4511" cy="104.4500" r="0.3274" /> 
</g>
<g style="fill:#000000; fill-opacity:1.0000; stroke:none;">
<circle cx="146.5011" cy="114.1500" r="0.3274" /> 
</g>
<g style="fill:#000000; fill-opacity:1.0000; stroke:none;">
<circle cx="148.5649" cy="113.1820" r="0.3274" /> 
</g>
<g style="fill:#000000; fill-opacity:1.0000; stroke:none;">
<circle cx="146.7011" cy="97.8000" r="0.3274" /> 
</g>
<g style="fill:#000000; fill-opacity:1.0000; stroke:none;">
<circle cx="133.6511" cy="104.3000" r="0.3274" /> 
</g>
<g style="fill:#000000; fill-opacity:1.0000; stroke:none;">
<circle cx="133.7011" cy="106.7500" r="0.3274" /> 
</g>
<g style="fill:#000000; fill-opacity:1.0000; stroke:none;">
<circle cx="145.5011" cy="114.1000" r="0.3274" /> 
</g>
<g style="fill:#000000; fill-opacity:1.0000; stroke:none;">
<circle cx="133.3511" cy="112.7500" r="0.3274" /> 
</g>
<g style="fill:#000000; fill-opacity:1.0000; stroke:none;">
<circle cx="132.2011" cy="103.0500" r="0.3274" /> 
</g>
<g style="fill:#000000; fill-opacity:1.0000; stroke:none;">
<circle cx="133.8011" cy="109.2500" r="0.3274" /> 
</g>
<g style="fill:#000000; fill-opacity:1.0000; stroke:none;">
<circle cx="145.7511" cy="97.8000" r="0.3274" /> 
</g>
<g style="fill:#000000; fill-opacity:1.0000; stroke:none;">
<circle cx="147.2011" cy="104.4500" r="0.3274" /> 
</g>
<g style="fill:#000000; fill-opacity:1.0000; stroke:none;">
<circle cx="130.7011" cy="97.5500" r="0.3274" /> 
</g>
<g style="fill:#000000; fill-opacity:1.0000; stroke:none;">
<circle cx="132.3011" cy="97.5500" r="0.3274" /> 
</g>
<g style="fill:#000000; fill-opacity:1.0000; stroke:none;">
<circle cx="132.3161" cy="112.0544" r="0.3274" /> 
</g>
<g style="fill:#000000; fill-opacity:1.0000; stroke:none;">
<circle cx="133.7011" cy="105.8500" r="0.3274" /> 
</g>
<g style="fill:#000000; fill-opacity:1.0000; stroke:none;">
<circle cx="143.3011" cy="97.8000" r="0.3274" /> 
</g>
<g style="fill:#000000; fill-opacity:1.0000; stroke:none;">
<circle cx="135.7511" cy="114.1000" r="0.3274" /> 
</g>
<g style="fill:#000000; fill-opacity:1.0000; stroke:none;">
<circle cx="142.4511" cy="112.9500" r="0.3274" /> 
</g>
<g style="fill:#000000; fill-opacity:1.0000; stroke:none;">
<circle cx="130.8011" cy="117.0500" r="0.3274" /> 
</g>
<g style="fill:#000000; fill-opacity:1.0000; stroke:none;">
<circle cx="133.7011" cy="105.0500" r="0.3274" /> 
</g>
<g style="fill:#000000; fill-opacity:1.0000; stroke:none;">
<circle cx="135.3511" cy="109.0500" r="0.3274" /> 
</g>
<g style="fill:#000000; fill-opacity:1.0000; stroke:none;">
<circle cx="134.0011" cy="114.1000" r="0.3274" /> 
</g>
<g style="fill:#000000; fill-opacity:1.0000; stroke:none;">
<circle cx="132.3011" cy="99.1500" r="0.3274" /> 
</g>
<g style="fill:#000000; fill-opacity:1.0000; stroke:none;">
<circle cx="142.3511" cy="114.1000" r="0.3274" /> 
</g>
<g style="fill:#000000; fill-opacity:1.0000; stroke:none;">
<circle cx="134.4011" cy="111.1000" r="0.3274" /> 
</g>
<g style="fill:#000000; fill-opacity:1.0000; stroke:none;">
<circle cx="148.4511" cy="98.9000" r="0.3274" /> 
</g>
<g style="fill:#000000; fill-opacity:1.0000; stroke:none;">
<circle cx="144.1011" cy="97.8000" r="0.3274" /> 
</g>
<g style="fill:#000000; fill-opacity:1.0000; stroke:none;">
<circle cx="148.4511" cy="99.9500" r="0.3274" /> 
</g>
<g style="fill:#000000; fill-opacity:1.0000; stroke:none;">
<circle cx="141.4511" cy="114.1000" r="0.3274" /> 
</g>
<g style="fill:#000000; fill-opacity:1.0000; stroke:none;">
<circle cx="135.2511" cy="111.1000" r="0.3274" /> 
</g>
<g style="fill:#000000; fill-opacity:1.0000; stroke:none;">
<circle cx="144.9011" cy="97.8000" r="0.3274" /> 
</g>
<g style="fill:#000000; fill-opacity:1.0000; stroke:none;">
<circle cx="131.1011" cy="111.2500" r="0.3274" /> 
</g>
<g style="fill:#000000; fill-opacity:1.0000; stroke:none;">
<circle cx="136.1011" cy="111.1000" r="0.3274" /> 
</g>
<g style="fill:#000000; fill-opacity:1.0000; stroke:none;">
<circle cx="148.5649" cy="112.2500" r="0.3274" /> 
</g>
<g style="fill:#000000; fill-opacity:1.0000; stroke:none;">
<circle cx="130.7011" cy="99.9500" r="0.3274" /> 
</g>
<g style="fill:#000000; fill-opacity:1.0000; stroke:none;">
<circle cx="144.5632" cy="102.3338" r="0.3274" /> 
</g>
<g style="fill:#000000; fill-opacity:1.0000; stroke:none;">
<circle cx="148.4511" cy="97.8000" r="0.3274" /> 
</g>
<g style="fill:#000000; fill-opacity:1.0000; stroke:none;">
<circle cx="132.2011" cy="103.8500" r="0.3274" /> 
</g>
<g style="fill:#000000; fill-opacity:1.0000; stroke:none;">
<circle cx="148.4511" cy="105.5000" r="0.3274" /> 
</g>
<g style="fill:#000000; fill-opacity:1.0000; stroke:none;">
<circle cx="134.9011" cy="114.1000" r="0.3274" /> 
</g>
<g style="fill:#000000; fill-opacity:1.0000; stroke:none;">
<circle cx="135.1011" cy="104.3000" r="0.3274" /> 
</g>
<g style="fill:#000000; fill-opacity:1.0000; stroke:none;">
<circle cx="133.1011" cy="109.5500" r="0.3274" /> 
</g>
<g style="fill:#000000; fill-opacity:1.0000; stroke:none;">
<circle cx="133.0511" cy="114.1000" r="0.3274" /> 
</g>
<g style="fill:#000000; fill-opacity:1.0000; stroke:none;">
<circle cx="143.2011" cy="114.1000" r="0.3274" /> 
</g>
<g style="fill:#000000; fill-opacity:1.0000; stroke:none;">
<circle cx="136.8011" cy="106.0500" r="0.3274" /> 
</g>
<g style="fill:#000000; fill-opacity:1.0000; stroke:none;">
<circle cx="132.2587" cy="112.9500" r="0.3274" /> 
</g>
<g style="fill:#000000; fill-opacity:1.0000; stroke:none;">
<circle cx="133.3011" cy="116.6500" r="0.3274" /> 
</g>
<g style="fill:#000000; fill-opacity:1.0000; stroke:none;">
<circle cx="131.7011" cy="102.4500" r="0.3274" /> 
</g>
<g style="fill:#000000; fill-opacity:1.0000; stroke:none;">
<circle cx="132.3011" cy="99.9500" r="0.3274" /> 
</g>
<g style="fill:#000000; fill-opacity:1.0000; stroke:none;">
<circle cx="145.2011" cy="111.8000" r="0.3274" /> 
</g>
<g style="fill:#000000; fill-opacity:1.0000; stroke:none;">
<circle cx="130.9011" cy="112.1500" r="0.3274" /> 
</g>
<g style="fill:#000000; fill-opacity:1.0000; stroke:none;">
<circle cx="134.3511" cy="104.3000" r="0.3274" /> 
</g>
<g style="fill:#000000; fill-opacity:1.0000; stroke:none;">
<circle cx="136.9511" cy="111.1000" r="0.3274" /> 
</g>
<g style="fill:#000000; fill-opacity:1.0000; stroke:none;">
<circle cx="132.2587" cy="113.9500" r="0.3274" /> 
</g>
<g style="fill:#000000; fill-opacity:1.0000; stroke:none;">
<circle cx="127.7011" cy="121.4500" r="0.3274" /> 
</g>
<g style="fill:#000000; fill-opacity:1.0000; stroke:none;">
<circle cx="147.6011" cy="97.8000" r="0.3274" /> 
</g>
<g style="fill:#000000; fill-opacity:1.0000; stroke:none;">
<circle cx="148.5649" cy="111.3500" r="0.3274" /> 
</g>
<g style="fill:#000000; fill-opacity:1.0000; stroke:none;">
<circle cx="147.2011" cy="105.3500" r="0.3274" /> 
</g>
<g style="fill:#000000; fill-opacity:1.0000; stroke:none;">
<circle cx="143.5511" cy="111.8000" r="0.3274" /> 
</g>
<g style="fill:#000000; fill-opacity:1.0000; stroke:none;">
<circle cx="144.0511" cy="115.0606" r="0.3274" /> 
</g>
<g style="fill:#000000; fill-opacity:1.0000; stroke:none;">
<circle cx="136.5000" cy="96.8464" r="0.3274" /> 
</g>
<g style="fill:#000000; fill-opacity:1.0000; stroke:none;">
<circle cx="142.6000" cy="96.8464" r="0.3274" /> 
</g>
<g style="fill:#000000; fill-opacity:1.0000; stroke:none;">
<circle cx="146.4011" cy="103.6500" r="0.3274" /> 
</g>
<g style="fill:#000000; fill-opacity:1.0000; stroke:none;">
<circle cx="140.5748" cy="104.6737" r="0.3274" /> 
</g>
<g style="fill:#000000; fill-opacity:1.0000; stroke:none;">
<circle cx="141.6129" cy="103.6382" r="0.3274" /> 
</g>
<g style="fill:#000000; fill-opacity:1.0000; stroke:none;">
<circle cx="138.0000" cy="115.0464" r="0.3274" /> 
</g>
<g style="fill:#000000; fill-opacity:1.0000; stroke:none;">
<circle cx="144.6011" cy="110.5060" r="0.3274" /> 
</g>
<g style="fill:#000000; fill-opacity:1.0000; stroke:none;">
<circle cx="144.6841" cy="109.1202" r="0.3274" /> 
</g>
<g style="fill:#000000; fill-opacity:1.0000; stroke:none;">
<circle cx="141.7011" cy="102.4945" r="0.3274" /> 
</g>
<g style="fill:#000000; fill-opacity:1.0000; stroke:none;">
<circle cx="138.9992" cy="98.3714" r="0.3274" /> 
</g>
<g style="fill:#000000; fill-opacity:1.0000; stroke:none;">
<circle cx="138.5011" cy="97.7362" r="0.3274" /> 
</g>
<g style="fill:#000000; fill-opacity:1.0000; stroke:none;">
<circle cx="136.6011" cy="114.0500" r="0.3274" /> 
</g>
<g style="fill:#000000; fill-opacity:1.0000; stroke:none;">
<circle cx="140.0011" cy="115.9468" r="0.3274" /> 
</g>
<g style="fill:#000000; fill-opacity:1.0000; stroke:none;">
<circle cx="137.5011" cy="108.4500" r="0.3274" /> 
</g>
<g style="fill:#000000; fill-opacity:1.0000; stroke:none;">
<circle cx="142.1168" cy="106.0947" r="0.3274" /> 
</g>
<g style="fill:#000000; fill-opacity:1.0000; stroke:none;">
<circle cx="141.8497" cy="105.3330" r="0.3274" /> 
</g>
<g style="fill:#000000; fill-opacity:1.0000; stroke:none;">
<circle cx="141.4083" cy="100.1500" r="0.3274" /> 
</g>
<g style="fill:#000000; fill-opacity:1.0000; stroke:none;">
<circle cx="144.4681" cy="106.8245" r="0.3274" /> 
</g>
<g style="fill:#000000; fill-opacity:1.0000; stroke:none;">
<circle cx="141.0425" cy="105.3330" r="0.3274" /> 
</g>
<g style="fill:#000000; fill-opacity:1.0000; stroke:none;">
<circle cx="140.6011" cy="99.0500" r="0.3274" /> 
</g>
<g style="fill:#000000; fill-opacity:1.0000; stroke:none;">
<circle cx="147.7011" cy="107.3500" r="0.3274" /> 
</g>
<g style="fill:#000000; fill-opacity:1.0000; stroke:none;">
<circle cx="140.3841" cy="105.8000" r="0.3274" /> 
</g>
<g style="fill:#000000; fill-opacity:1.0000; stroke:none;">
<circle cx="135.8091" cy="100.1580" r="0.3274" /> 
</g>
<g style="fill:#000000; fill-opacity:1.0000; stroke:none;">
<circle cx="144.7429" cy="105.3548" r="0.3274" /> 
</g>
<g style="fill:#000000; fill-opacity:1.0000; stroke:none;">
<circle cx="148.3011" cy="108.2500" r="0.3274" /> 
</g>
<g style="fill:#000000; fill-opacity:1.0000; stroke:none;">
<circle cx="140.6011" cy="100.1500" r="0.3274" /> 
</g>
<g style="fill:#000000; fill-opacity:1.0000; stroke:none;">
<circle cx="143.5571" cy="105.7000" r="0.3274" /> 
</g>
<g style="fill:none; 
stroke:#000000; stroke-width:0.1524; stroke-opacity:1; 
stroke-linecap:round; stroke-linejoin:round;">
<path d="M147.7011 107.3500
L145.9011 105.5500
" />
<path d="M145.9011 105.5500
L145.7244 105.5500
" />
<path d="M145.0278 104.8767
L144.8059 104.6548
" />
<path d="M143.9011 100.9500
L142.0011 99.0500
" />
<path d="M145.7244 105.5500
L145.0511 104.8767
" />
<path d="M142.0011 99.0500
L140.6011 99.0500
" />
<path d="M145.0511 104.8767
L145.0278 104.8767
" />
<path d="M144.8059 104.6548
L144.8059 103.8548
" />
<path d="M144.8059 103.8548
L143.9011 102.9500
" />
<path d="M143.9011 102.9500
L143.9011 100.9500
" />
<path d="M144.7429 105.3548
L144.7059 105.3548
" />
<path d="M144.5011 104.3500
L143.4011 103.2500
" />
<path d="M144.7059 105.3548
L144.5011 105.1500
" />
<path d="M144.5011 105.1500
L144.5011 104.3500
" />
<path d="M149.0663 109.2152
L152.3011 112.4500
" />
<path d="M147.6451 109.2152
L149.0663 109.2152
" />
<path d="M147.5623 102.7749
L151.9374 107.1500
" />
<path d="M145.2393 102.7749
L147.5623 102.7749
" />
<path d="M152.0011 107.1500
L151.9374 107.1500
" />
</g>
<g style="fill:none; 
stroke:#000000; stroke-width:0.2032; stroke-opacity:1; 
stroke-linecap:round; stroke-linejoin:round;">
<path d="M127.7411 92.5900
L127.7411 92.0900
" />
</g>
<g style="fill:none; 
stroke:#000000; stroke-width:0.1524; stroke-opacity:1; 
stroke-linecap:round; stroke-linejoin:round;">
<path d="M141.7011 102.5500
L143.0011 103.8500
" />
<path d="M144.8841 108.9202
L144.6841 109.1202
" />
<path d="M139.9011 100.3500
L141.7011 102.1500
" />
<path d="M139.9011 97.3500
L139.9011 100.3500
" />
<path d="M142.0811 92.0100
L140.8011 93.2900
" />
<path d="M141.7011 102.1500
L141.7011 102.4945
" />
<path d="M143.0011 103.8500
L143.0011 107.0500
" />
<path d="M141.7011 102.4945
L141.7011 102.5500
" />
<path d="M143.0011 107.0500
L144.6841 108.7330
" />
<path d="M144.6841 108.7330
L144.6841 109.1202
" />
<path d="M140.8011 96.4500
L139.9011 97.3500
" />
<path d="M140.8011 93.2900
L140.8011 96.4500
" />
</g>
<g style="fill:none; 
stroke:#000000; stroke-width:0.2032; stroke-opacity:1; 
stroke-linecap:round; stroke-linejoin:round;">
<path d="M138.9779 98.3500
L135.4982 98.3500
" />
<path d="M133.3011 96.1529
L133.3011 93.1700
" />
<path d="M133.3011 93.1700
L134.4611 92.0100
" />
<path d="M138.9992 98.3714
L138.9779 98.3500
" />
<path d="M135.4982 98.3500
L133.3011 96.1529
" />
<path d="M135.3873 97.7362
L134.4611 96.8100
" />
<path d="M138.5011 97.7362
L135.3873 97.7362
" />
<path d="M134.4611 96.8100
L134.4611 94.5500
" />
</g>
<g style="fill:none; 
stroke:#000000; stroke-width:0.1524; stroke-opacity:1; 
stroke-linecap:round; stroke-linejoin:round;">
<path d="M137.5071 111.6440
L136.6011 112.5500
" />
<path d="M136.6011 112.5500
L136.6011 114.0500
" />
<path d="M137.5071 108.4560
L137.5071 111.6440
" />
<path d="M149.2011 121.3500
L148.4011 120.5500
" />
<path d="M140.0011 115.9468
L146.2342 115.9468
" />
<path d="M148.4011 120.5500
L148.4011 118.8500
" />
<path d="M146.2342 115.9468
L146.4193 116.1318
" />
<path d="M148.4011 118.8500
L148.4011 118.1137
" />
<path d="M153.5611 121.3500
L149.2011 121.3500
" />
<path d="M137.5011 108.4500
L137.5071 108.4560
" />
<path d="M154.7611 122.5500
L153.5611 121.3500
" />
<path d="M148.4011 118.1137
L146.4193 116.1318
" />
<path d="M139.8011 107.4548
L141.4963 107.4548
" />
<path d="M136.9011 117.8500
L139.3011 115.4500
" />
<path d="M139.3011 115.4500
L139.3011 114.2500
" />
<path d="M139.7963 107.4548
L139.8011 107.4548
" />
<path d="M142.1168 106.0947
L142.1168 106.8343
" />
<path d="M135.7011 119.0500
L136.9011 117.8500
" />
<path d="M142.1168 106.8343
L142.0011 106.9500
" />
<path d="M139.3011 107.9500
L139.7963 107.4548
" />
<path d="M141.4963 107.4548
L142.0011 106.9500
" />
<path d="M139.3011 114.2500
L139.3011 107.9500
" />
<path d="M134.4411 122.5500
L135.7011 121.2900
" />
<path d="M135.7011 121.2900
L135.7011 119.5500
" />
<path d="M135.7011 119.5500
L135.7011 119.0500
" />
<path d="M140.0511 107.1500
L139.6011 107.1500
" />
<path d="M138.9059 115.1452
L134.4411 119.6100
" />
<path d="M139.6011 107.1500
L138.9059 107.8452
" />
<path d="M138.9059 107.8452
L138.9059 115.1452
" />
<path d="M141.8497 105.3330
L141.8497 105.3514
" />
<path d="M141.8497 105.3514
L140.0511 107.1500
" />
<path d="M134.4411 119.6100
L134.4411 120.0100
" />
<path d="M144.5011 105.8993
L144.5011 106.7915
" />
<path d="M141.4083 100.1500
L141.4083 100.1572
" />
<path d="M147.5011 114.1500
L147.5011 109.8575
" />
<path d="M147.5011 109.8575
L144.4681 106.8245
" />
<path d="M144.1011 104.4500
L144.1011 105.4993
" />
<path d="M144.5011 106.7915
L144.4681 106.8245
" />
<path d="M154.7611 120.0100
L152.3011 117.5500
" />
<path d="M141.4083 100.1572
L142.8011 101.5500
" />
<path d="M142.8011 103.1500
L144.1011 104.4500
" />
<path d="M150.9011 117.5500
L147.5011 114.1500
" />
<path d="M144.1011 105.4993
L144.5011 105.8993
" />
<path d="M152.3011 117.5500
L150.9011 117.5500
" />
<path d="M142.8011 101.5500
L142.8011 103.1500
" />
<path d="M140.7034 105.3330
L140.6144 105.2440
" />
<path d="M138.2011 106.9500
L138.4511 106.7000
" />
<path d="M137.4011 112.7500
L137.4011 112.2500
" />
<path d="M140.6144 105.2440
L139.9071 105.2440
" />
<path d="M138.4511 106.7000
L139.2511 105.9000
" />
<path d="M137.4011 112.7500
L137.4011 112.6500
" />
<path d="M131.9011 120.0100
L131.9011 119.7500
" />
<path d="M137.4011 114.2500
L137.4011 113.4500
" />
<path d="M139.9071 105.2440
L139.7511 105.4000
" />
<path d="M139.7511 105.4000
L139.2511 105.9000
" />
<path d="M138.2011 111.4500
L138.2011 106.9500
" />
<path d="M131.9011 119.7500
L137.4011 114.2500
" />
<path d="M141.0425 105.3330
L140.7034 105.3330
" />
<path d="M138.4511 106.7000
L139.7511 105.4000
" />
<path d="M137.4011 112.2500
L138.2011 111.4500
" />
<path d="M137.4011 112.2500
L137.4011 113.4500
" />
<path d="M137.4011 113.4500
L137.4011 112.7500
" />
<path d="M137.8571 114.3303
L133.2011 118.9863
" />
<path d="M137.8571 112.3940
L137.8571 114.3303
" />
<path d="M133.2011 118.9863
L133.2011 121.2500
" />
<path d="M138.6011 107.5830
L138.6011 111.6500
" />
<path d="M140.3841 105.8000
L138.6011 107.5830
" />
<path d="M133.2011 121.2500
L131.9011 122.5500
" />
<path d="M138.6011 111.6500
L137.8571 112.3940
" />
<path d="M153.4011 92.8500
L154.7811 94.2300
" />
<path d="M153.4011 90.9500
L153.4011 92.8500
" />
<path d="M138.6931 100.1580
L139.5963 99.2548
" />
<path d="M135.8091 100.1580
L138.6931 100.1580
" />
<path d="M138.4011 96.1500
L138.4011 91.6246
" />
<path d="M138.4011 91.6246
L139.4757 90.5500
" />
<path d="M135.8091 100.1580
L135.7931 100.1580
" />
<path d="M139.4757 90.5500
L153.0011 90.5500
" />
<path d="M139.5963 97.3452
L138.4011 96.1500
" />
<path d="M153.0011 90.5500
L153.4011 90.9500
" />
<path d="M154.7811 94.2300
L154.7811 94.5500
" />
<path d="M139.5963 99.2548
L139.5963 97.3452
" />
<path d="M144.7429 105.3548
L145.3011 105.9130
" />
<path d="M141.2011 99.5500
L140.6011 100.1500
" />
<path d="M145.3011 105.9130
L145.3011 106.9500
" />
<path d="M143.4011 103.2500
L143.4011 101.2500
" />
<path d="M143.4011 101.2500
L141.7011 99.5500
" />
<path d="M141.7011 99.5500
L141.2011 99.5500
" />
<path d="M140.7011 100.2500
L140.6011 100.1500
" />
<path d="M146.6011 108.2500
L148.3011 108.2500
" />
<path d="M146.4511 108.1000
L146.6011 108.2500
" />
<path d="M145.3011 106.9500
L146.4511 108.1000
" />
<path d="M143.5571 105.7000
L143.5571 106.8060
" />
<path d="M147.1011 110.3500
L147.1011 115.1402
" />
<path d="M147.1011 115.1402
L151.9709 120.0100
" />
<path d="M143.5571 106.8060
L147.1011 110.3500
" />
<path style="fill:#000000; fill-opacity:1.0000; stroke:none;fill-rule:evenodd;"
d="M 156.2854,90.0646
156.3000,90.0998
156.3000,124.2457
156.2854,124.2809
156.2502,124.2955
126.2509,124.2955
126.2157,124.2809
126.2011,124.2457
126.2011,120.0100
130.8933,120.0100
130.9127,120.2066
130.9701,120.3956
131.0632,120.5699
131.0632,120.5699
131.0632,120.5699
131.0953,120.6090
131.1885,120.7226
131.3412,120.8479
131.5154,120.9410
131.7045,120.9984
131.8526,121.0130
131.9011,121.0178
131.9011,121.0178
131.9011,121.0178
131.9459,121.0133
132.0977,120.9984
132.2867,120.9410
132.4610,120.8479
132.6137,120.7226
132.7390,120.5699
132.8321,120.3956
132.8745,120.2559
132.8987,120.2264
132.9367,120.2227
132.9661,120.2468
132.9720,120.2703
132.9720,121.1345
132.9574,121.1697
132.4571,121.6700
132.4219,121.6845
132.3985,121.6787
132.2868,121.6190
132.2868,121.6190
132.2867,121.6190
132.0977,121.5616
131.9011,121.5422
131.9011,121.5422
131.7045,121.5616
131.6398,121.5812
131.5154,121.6190
131.5154,121.6190
131.5154,121.6190
131.4310,121.6641
131.3412,121.7121
131.3412,121.7121
131.3412,121.7121
131.1885,121.8374
131.0632,121.9901
131.0632,121.9901
131.0632,121.9901
131.0500,122.0147
130.9701,122.1643
130.9701,122.1643
130.9701,122.1643
130.9127,122.3534
130.8933,122.5500
130.9127,122.7466
130.9701,122.9356
131.0632,123.1099
131.1885,123.2626
131.3412,123.3879
131.5154,123.4810
131.7045,123.5384
131.8518,123.5529
131.9011,123.5578
131.9011,123.5578
131.9011,123.5578
131.9459,123.5533
132.0977,123.5384
132.2867,123.4810
132.4610,123.3879
132.6137,123.2626
132.7390,123.1099
132.8321,122.9356
132.8895,122.7466
132.9089,122.5500
132.8895,122.3534
132.8321,122.1643
132.7724,122.0526
132.7687,122.0147
132.7811,121.9940
133.3953,121.3798
133.4302,121.2956
133.4302,121.2044
133.4302,120.4451
133.4448,120.4098
133.4800,120.3953
133.5152,120.4098
133.5239,120.4216
133.6032,120.5699
133.7285,120.7226
133.8812,120.8479
134.0555,120.9410
134.2445,120.9984
134.3926,121.0130
134.4411,121.0178
134.4411,121.0178
134.4411,121.0178
134.4859,121.0133
134.6377,120.9984
134.8268,120.9410
135.0010,120.8479
135.1537,120.7226
135.2790,120.5699
135.3721,120.3956
135.3745,120.3877
135.3987,120.3583
135.4367,120.3545
135.4661,120.3787
135.4720,120.4022
135.4720,121.1745
135.4574,121.2097
134.9971,121.6700
134.9619,121.6845
134.9385,121.6787
134.8268,121.6190
134.8268,121.6190
134.8268,121.6190
134.6377,121.5616
134.4411,121.5422
134.4411,121.5422
134.2445,121.5616
134.1798,121.5812
134.0555,121.6190
134.0554,121.6190
134.0554,121.6190
133.9710,121.6641
133.8812,121.7121
133.8812,121.7121
133.8812,121.7121
133.7285,121.8374
133.6032,121.9901
133.6032,121.9901
133.6032,121.9901
133.5900,122.0147
133.5101,122.1643
133.5101,122.1643
133.5101,122.1643
133.4527,122.3534
133.4333,122.5500
133.4527,122.7466
133.5101,122.9356
133.6032,123.1099
133.7285,123.2626
133.8812,123.3879
134.0555,123.4810
134.2445,123.5384
134.3918,123.5529
134.4411,123.5578
134.4411,123.5578
134.4411,123.5578
134.4859,123.5533
134.6377,123.5384
134.8268,123.4810
135.0010,123.3879
135.1537,123.2626
135.2790,123.1099
135.3721,122.9356
135.4295,122.7466
135.4489,122.5500
135.9733,122.5500
135.9927,122.7466
136.0501,122.9356
136.1432,123.1099
136.2685,123.2626
136.4212,123.3879
136.5954,123.4810
136.7845,123.5384
136.9318,123.5529
136.9811,123.5578
136.9811,123.5578
136.9811,123.5578
137.0259,123.5533
137.1777,123.5384
137.3667,123.4810
137.5410,123.3879
137.6937,123.2626
137.8190,123.1099
137.9121,122.9356
137.9695,122.7466
137.9889,122.5500
138.5133,122.5500
138.5327,122.7466
138.5901,122.9356
138.6832,123.1099
138.8085,123.2626
138.9612,123.3879
139.1354,123.4810
139.3245,123.5384
139.4718,123.5529
139.5211,123.5578
139.5211,123.5578
139.5211,123.5578
139.5659,123.5533
139.7177,123.5384
139.9067,123.4810
140.0810,123.3879
140.2337,123.2626
140.3590,123.1099
140.4521,122.9356
140.5095,122.7466
140.5289,122.5500
141.0533,122.5500
141.0727,122.7466
141.1301,122.9356
141.2232,123.1099
141.3485,123.2626
141.5012,123.3879
141.6754,123.4810
141.8645,123.5384
142.0118,123.5529
142.0611,123.5578
142.0611,123.5578
142.0611,123.5578
142.1059,123.5533
142.2577,123.5384
142.4467,123.4810
142.6210,123.3879
142.7737,123.2626
142.8990,123.1099
142.9921,122.9356
143.0495,122.7466
143.0689,122.5500
143.0538,122.3976
143.5065,122.3976
144.1243,122.3976
144.1011,122.4842
144.1011,122.6158
144.1243,122.7024
143.5065,122.7024
143.5112,122.7537
143.5112,122.7537
143.5672,122.9505
143.6584,123.1337
143.6584,123.1337
143.7817,123.2969
143.7817,123.2969
143.9329,123.4348
144.1069,123.5425
144.2977,123.6164
144.4487,123.6446
144.4487,123.6446
144.4487,123.0268
144.5353,123.0500
144.6669,123.0500
144.7535,123.0268
144.7535,123.6446
144.9045,123.6164
145.0953,123.5425
145.2693,123.4348
145.4205,123.2969
145.4205,123.2969
145.5438,123.1337
145.5438,123.1337
145.6350,122.9505
145.6909,122.7537
145.6910,122.7537
145.6957,122.7024
145.0779,122.7024
145.1011,122.6158
145.1011,122.5500
146.1333,122.5500
146.1527,122.7466
146.2101,122.9356
146.3032,123.1099
146.4285,123.2626
146.5812,123.3879
146.7554,123.4810
146.9445,123.5384
147.0918,123.5529
147.1411,123.5578
147.1411,123.5578
147.1411,123.5578
147.1859,123.5533
147.3377,123.5384
147.5267,123.4810
147.7010,123.3879
147.8537,123.2626
147.9790,123.1099
148.0721,122.9356
148.1295,122.7466
148.1489,122.5500
148.1295,122.3534
148.0721,122.1643
147.9790,121.9901
147.8537,121.8374
147.7010,121.7121
147.5267,121.6190
147.3377,121.5616
147.1411,121.5422
147.1411,121.5422
146.9445,121.5616
146.8798,121.5812
146.7554,121.6190
146.7554,121.6190
146.7554,121.6190
146.6710,121.6641
146.5812,121.7121
146.5812,121.7121
146.5812,121.7121
146.4285,121.8374
146.3032,121.9901
146.3032,121.9901
146.3032,121.9901
146.2900,122.0147
146.2101,122.1643
146.2101,122.1643
146.2101,122.1643
146.1527,122.3534
146.1333,122.5500
145.1011,122.5500
145.1011,122.4842
145.0779,122.3976
145.6957,122.3976
145.6910,122.3463
145.6909,122.3463
145.6350,122.1495
145.5438,121.9663
145.5438,121.9663
145.4205,121.8031
145.4205,121.8031
145.2693,121.6652
145.0953,121.5575
144.9045,121.4836
144.7535,121.4554
144.7535,122.0732
144.6669,122.0500
144.5353,122.0500
144.4487,122.0732
144.4487,121.4554
144.4487,121.4554
144.2977,121.4836
144.1069,121.5575
143.9329,121.6652
143.7817,121.8031
143.7817,121.8031
143.6584,121.9663
143.6584,121.9663
143.5672,122.1495
143.5112,122.3463
143.5112,122.3463
143.5065,122.3976
143.0538,122.3976
143.0495,122.3534
142.9921,122.1643
142.8990,121.9901
142.7737,121.8374
142.6210,121.7121
142.4467,121.6190
142.2577,121.5616
142.0611,121.5422
142.0611,121.5422
141.8645,121.5616
141.7998,121.5812
141.6754,121.6190
141.6754,121.6190
141.6754,121.6190
141.5910,121.6641
141.5012,121.7121
141.5012,121.7121
141.5012,121.7121
141.3485,121.8374
141.2232,121.9901
141.2232,121.9901
141.2232,121.9901
141.2100,122.0147
141.1301,122.1643
141.1301,122.1643
141.1301,122.1643
141.0727,122.3534
141.0533,122.5500
140.5289,122.5500
140.5095,122.3534
140.4521,122.1643
140.3590,121.9901
140.2337,121.8374
140.0810,121.7121
139.9067,121.6190
139.7177,121.5616
139.5211,121.5422
139.5211,121.5422
139.3245,121.5616
139.2598,121.5812
139.1354,121.6190
139.1354,121.6190
139.1354,121.6190
139.0510,121.6641
138.9612,121.7121
138.9612,121.7121
138.9612,121.7121
138.8085,121.8374
138.6832,121.9901
138.6832,121.9901
138.6832,121.9901
138.6700,122.0147
138.5901,122.1643
138.5901,122.1643
138.5901,122.1643
138.5327,122.3534
138.5133,122.5500
137.9889,122.5500
137.9695,122.3534
137.9121,122.1643
137.8190,121.9901
137.6937,121.8374
137.5410,121.7121
137.3667,121.6190
137.1777,121.5616
136.9811,121.5422
136.9811,121.5422
136.7845,121.5616
136.7198,121.5812
136.5954,121.6190
136.5954,121.6190
136.5954,121.6190
136.5110,121.6641
136.4212,121.7121
136.4212,121.7121
136.4212,121.7121
136.2685,121.8374
136.1432,121.9901
136.1432,121.9901
136.1432,121.9901
136.1300,122.0147
136.0501,122.1643
136.0501,122.1643
136.0501,122.1643
135.9927,122.3534
135.9733,122.5500
135.4489,122.5500
135.4295,122.3534
135.3721,122.1643
135.3124,122.0526
135.3087,122.0147
135.3211,121.9940
135.8953,121.4198
135.9302,121.3356
135.9302,121.2444
135.9302,120.3363
135.9448,120.3010
135.9800,120.2865
136.0152,120.3010
136.0277,120.3218
136.0501,120.3956
136.1432,120.5699
136.1432,120.5699
136.1432,120.5699
136.1753,120.6090
136.2685,120.7226
136.4212,120.8479
136.5954,120.9410
136.7845,120.9984
136.9326,121.0130
136.9811,121.0178
136.9811,121.0178
136.9811,121.0178
137.0259,121.0133
137.1777,120.9984
137.3667,120.9410
137.5410,120.8479
137.6937,120.7226
137.8190,120.5699
137.9121,120.3956
137.9695,120.2066
137.9889,120.0100
138.5133,120.0100
138.5327,120.2066
138.5901,120.3956
138.6832,120.5699
138.6832,120.5699
138.6832,120.5699
138.7153,120.6090
138.8085,120.7226
138.9612,120.8479
139.1354,120.9410
139.3245,120.9984
139.4726,121.0130
139.5211,121.0178
139.5211,121.0178
139.5211,121.0178
139.5659,121.0133
139.7177,120.9984
139.9067,120.9410
140.0810,120.8479
140.2337,120.7226
140.3590,120.5699
140.4521,120.3956
140.5095,120.2066
140.5289,120.0100
141.0533,120.0100
141.0727,120.2066
141.1301,120.3956
141.2232,120.5699
141.2232,120.5699
141.2232,120.5699
141.2553,120.6090
141.3485,120.7226
141.5012,120.8479
141.6754,120.9410
141.8645,120.9984
142.0126,121.0130
142.0611,121.0178
142.0611,121.0178
142.0611,121.0178
142.1059,121.0133
142.2577,120.9984
142.4467,120.9410
142.6210,120.8479
142.7737,120.7226
142.8990,120.5699
142.9921,120.3956
143.0495,120.2066
143.0689,120.0100
143.5933,120.0100
143.6127,120.2066
143.6701,120.3956
143.7632,120.5699
143.7632,120.5699
143.7632,120.5699
143.7953,120.6090
143.8885,120.7226
144.0412,120.8479
144.2155,120.9410
144.4045,120.9984
144.5526,121.0130
144.6011,121.0178
144.6011,121.0178
144.6011,121.0178
144.6459,121.0133
144.7977,120.9984
144.9868,120.9410
145.1610,120.8479
145.3137,120.7226
145.4390,120.5699
145.5321,120.3956
145.5895,120.2066
145.6089,120.0100
145.5895,119.8134
145.5321,119.6243
145.4390,119.4501
145.3137,119.2974
145.1610,119.1721
144.9868,119.0790
144.7977,119.0216
144.6011,119.0022
144.6011,119.0022
144.4045,119.0216
144.3740,119.0309
144.2155,119.0790
144.2154,119.0790
144.2154,119.0790
144.1324,119.1233
144.0412,119.1721
144.0412,119.1721
144.0412,119.1721
143.8885,119.2974
143.7632,119.4501
143.6701,119.6243
143.6701,119.6243
143.6701,119.6243
143.6127,119.8134
143.5933,120.0100
143.0689,120.0100
143.0495,119.8134
142.9921,119.6243
142.8990,119.4501
142.7737,119.2974
142.6210,119.1721
142.4467,119.0790
142.2577,119.0216
142.0611,119.0022
142.0611,119.0022
141.8645,119.0216
141.8340,119.0309
141.6754,119.0790
141.6754,119.0790
141.6754,119.0790
141.5924,119.1233
141.5012,119.1721
141.5012,119.1721
141.5012,119.1721
141.3485,119.2974
141.2232,119.4501
141.1301,119.6243
141.1301,119.6243
141.1301,119.6243
141.0727,119.8134
141.0533,120.0100
140.5289,120.0100
140.5095,119.8134
140.4521,119.6243
140.3590,119.4501
140.2337,119.2974
140.0810,119.1721
139.9067,119.0790
139.7177,119.0216
139.5211,119.0022
139.5211,119.0022
139.3245,119.0216
139.2940,119.0309
139.1354,119.0790
139.1354,119.0790
139.1354,119.0790
139.0524,119.1233
138.9612,119.1721
138.9612,119.1721
138.9612,119.1721
138.8085,119.2974
138.6832,119.4501
138.5901,119.6243
138.5901,119.6243
138.5901,119.6243
138.5327,119.8134
138.5133,120.0100
137.9889,120.0100
137.9695,119.8134
137.9121,119.6243
137.8190,119.4501
137.6937,119.2974
137.5410,119.1721
137.3667,119.0790
137.1777,119.0216
136.9811,119.0022
136.9811,119.0022
136.7845,119.0216
136.7540,119.0309
136.5954,119.0790
136.5954,119.0790
136.5954,119.0790
136.5124,119.1233
136.4212,119.1721
136.4212,119.1721
136.4212,119.1721
136.2685,119.2974
136.1432,119.4501
136.0501,119.6243
136.0501,119.6243
136.0501,119.6243
136.0277,119.6982
136.0035,119.7277
135.9655,119.7314
135.9361,119.7072
135.9302,119.6837
135.9302,119.1655
135.9448,119.1303
137.0953,117.9798
137.0953,117.9798
139.1283,115.9468
139.5159,115.9468
139.5159,115.9468
139.5355,116.0835
139.5355,116.0835
139.5929,116.2091
139.5929,116.2091
139.6833,116.3135
139.6833,116.3135
139.7995,116.3882
139.7995,116.3882
139.7995,116.3882
139.9320,116.4271
139.9320,116.4271
140.0702,116.4271
140.0702,116.4271
140.2027,116.3882
140.3189,116.3135
140.4093,116.2091
140.4112,116.2050
140.4391,116.1790
140.4565,116.1759
146.1187,116.1759
146.1539,116.1905
146.2222,116.2588
146.2222,116.2588
148.1574,118.1940
148.1720,118.2292
148.1720,119.6178
148.1574,119.6530
148.1222,119.6676
148.0870,119.6530
148.0745,119.6323
148.0721,119.6243
147.9790,119.4501
147.8537,119.2974
147.7010,119.1721
147.5267,119.0790
147.3377,119.0216
147.1411,119.0022
147.1411,119.0022
146.9445,119.0216
146.9140,119.0309
146.7554,119.0790
146.7554,119.0790
146.7554,119.0790
146.6724,119.1233
146.5812,119.1721
146.5812,119.1721
146.5812,119.1721
146.4285,119.2974
146.3032,119.4501
146.2101,119.6243
146.2101,119.6243
146.2101,119.6243
146.1527,119.8134
146.1333,120.0100
146.1527,120.2066
146.2101,120.3956
146.3032,120.5699
146.3032,120.5699
146.3032,120.5699
146.3353,120.6090
146.4285,120.7226
146.5812,120.8479
146.7554,120.9410
146.9445,120.9984
147.0926,121.0130
147.1411,121.0178
147.1411,121.0178
147.1411,121.0178
147.1859,121.0133
147.3377,120.9984
147.5267,120.9410
147.7010,120.8479
147.8537,120.7226
147.9790,120.5699
148.0721,120.3956
148.0745,120.3877
148.0987,120.3583
148.1367,120.3545
148.1661,120.3787
148.1720,120.4022
148.1720,120.5956
148.2069,120.6798
148.2069,120.6798
149.0713,121.5442
149.1133,121.5616
149.1555,121.5791
149.1555,121.5791
149.1712,121.5791
149.2064,121.5937
149.2210,121.6289
149.2064,121.6641
149.1947,121.6728
149.1512,121.6961
149.1212,121.7121
149.1212,121.7121
148.9685,121.8374
148.8432,121.9901
148.8432,121.9901
148.8432,121.9901
148.8300,122.0147
148.7501,122.1643
148.7501,122.1643
148.7501,122.1643
148.6927,122.3534
148.6733,122.5500
148.6927,122.7466
148.7501,122.9356
148.8432,123.1099
148.9685,123.2626
149.1212,123.3879
149.2954,123.4810
149.4845,123.5384
149.6318,123.5529
149.6811,123.5578
149.6811,123.5578
149.6811,123.5578
149.7259,123.5533
149.8777,123.5384
150.0667,123.4810
150.2410,123.3879
150.3937,123.2626
150.5190,123.1099
150.6121,122.9356
150.6695,122.7466
150.6889,122.5500
150.6695,122.3534
150.6121,122.1643
150.5190,121.9901
150.3937,121.8374
150.2410,121.7121
150.1675,121.6728
150.1433,121.6434
150.1471,121.6054
150.1765,121.5812
150.1910,121.5791
151.7112,121.5791
151.7464,121.5937
151.7610,121.6289
151.7464,121.6641
151.7347,121.6728
151.6912,121.6961
151.6612,121.7121
151.6612,121.7121
151.5085,121.8374
151.3832,121.9901
151.3832,121.9901
151.3832,121.9901
151.3700,122.0147
151.2901,122.1643
151.2901,122.1643
151.2901,122.1643
151.2327,122.3534
151.2133,122.5500
151.2327,122.7466
151.2901,122.9356
151.3832,123.1099
151.5085,123.2626
151.6612,123.3879
151.8354,123.4810
152.0245,123.5384
152.1718,123.5529
152.2211,123.5578
152.2211,123.5578
152.2211,123.5578
152.2659,123.5533
152.4177,123.5384
152.6068,123.4810
152.7810,123.3879
152.9337,123.2626
153.0590,123.1099
153.1521,122.9356
153.2095,122.7466
153.2289,122.5500
153.2095,122.3534
153.1521,122.1643
153.0590,121.9901
152.9337,121.8374
152.7810,121.7121
152.7075,121.6728
152.6833,121.6434
152.6871,121.6054
152.7165,121.5812
152.7310,121.5791
153.4456,121.5791
153.4808,121.5937
153.7436,121.8565
153.7582,121.8917
153.7582,123.4150
153.7582,123.4151
153.7671,123.4597
153.7671,123.4597
153.8009,123.5102
153.8009,123.5102
153.8514,123.5440
153.8960,123.5529
155.6262,123.5529
155.6708,123.5440
155.7213,123.5102
155.7551,123.4597
155.7640,123.4151
155.7640,121.6849
155.7551,121.6403
155.7551,121.6403
155.7551,121.6403
155.7213,121.5898
155.7213,121.5898
155.6708,121.5560
155.6262,121.5471
154.1028,121.5471
154.0676,121.5325
153.6909,121.1558
153.6313,121.1311
153.6067,121.1209
153.6067,121.1209
149.3166,121.1209
149.2814,121.1063
149.1476,120.9725
149.1330,120.9373
149.1476,120.9021
149.1828,120.8875
149.2063,120.8934
149.2954,120.9410
149.4845,120.9984
149.6326,121.0130
149.6811,121.0178
149.6811,121.0178
149.6811,121.0178
149.7259,121.0133
149.8777,120.9984
150.0667,120.9410
150.2410,120.8479
150.3937,120.7226
150.5190,120.5699
150.6121,120.3956
150.6695,120.2066
150.6889,120.0100
150.6695,119.8134
150.6121,119.6243
150.5190,119.4501
150.3937,119.2974
150.2410,119.1721
150.0667,119.0790
149.8777,119.0216
149.6811,119.0022
149.6811,119.0022
149.4845,119.0216
149.4540,119.0309
149.2954,119.0790
149.2954,119.0790
149.2954,119.0790
149.2124,119.1233
149.1212,119.1721
149.1212,119.1721
149.1212,119.1721
148.9685,119.2974
148.8432,119.4501
148.7501,119.6243
148.7501,119.6243
148.7501,119.6243
148.7277,119.6982
148.7035,119.7277
148.6655,119.7314
148.6361,119.7072
148.6302,119.6837
148.6302,118.0681
148.6302,118.0681
148.6200,118.0435
148.5953,117.9839
146.5490,115.9376
146.5490,115.9376
146.5462,115.9348
146.5462,115.9348
146.3640,115.7526
146.3044,115.7279
146.2798,115.7177
146.2798,115.7177
140.4565,115.7177
140.4213,115.7031
140.4112,115.6886
140.4093,115.6845
140.4093,115.6845
140.3189,115.5801
140.3189,115.5801
140.2027,115.5054
140.2027,115.5054
140.2027,115.5054
140.0702,115.4665
139.9320,115.4665
139.7995,115.5054
139.7995,115.5054
139.7995,115.5054
139.6833,115.5801
139.6833,115.5801
139.5929,115.6845
139.5929,115.6845
139.5355,115.8101
139.5355,115.8101
139.5159,115.9468
139.1283,115.9468
139.4953,115.5798
139.5261,115.5054
139.5302,115.4956
139.5302,115.0606
143.5659,115.0606
143.5659,115.0606
143.5855,115.1973
143.5855,115.1973
143.6429,115.3229
143.6429,115.3229
143.7333,115.4273
143.7333,115.4273
143.8495,115.5020
143.8495,115.5020
143.8495,115.5020
143.9820,115.5409
143.9820,115.5409
144.1202,115.5409
144.1202,115.5409
144.2527,115.5020
144.3689,115.4273
144.4593,115.3229
144.5167,115.1973
144.5345,115.0732
144.5363,115.0606
144.5363,115.0606
144.5259,114.9883
144.5167,114.9239
144.4593,114.7983
144.4593,114.7983
144.4593,114.7983
144.4593,114.7983
144.3689,114.6939
144.3689,114.6939
144.2527,114.6192
144.2527,114.6192
144.2527,114.6192
144.1202,114.5803
143.9820,114.5803
143.8495,114.6192
143.8495,114.6192
143.8495,114.6192
143.7333,114.6939
143.7333,114.6939
143.6429,114.7983
143.6429,114.7983
143.5855,114.9239
143.5855,114.9239
143.5659,115.0606
139.5302,115.0606
139.5302,114.2044
139.5302,111.8000
143.0659,111.8000
143.0659,111.8000
143.0855,111.9367
143.0855,111.9367
143.1429,112.0623
143.1429,112.0623
143.2333,112.1667
143.2333,112.1667
143.3495,112.2414
143.3495,112.2414
143.3495,112.2414
143.4820,112.2803
143.4820,112.2803
143.6202,112.2803
143.6202,112.2803
143.7527,112.2414
143.8689,112.1667
143.9593,112.0623
144.0167,111.9367
144.0363,111.8000
144.0167,111.6633
143.9593,111.5377
143.9593,111.5377
143.9593,111.5377
143.9593,111.5377
143.8689,111.4333
143.8689,111.4333
143.7527,111.3586
143.7527,111.3586
143.7527,111.3586
143.6202,111.3197
143.4820,111.3197
143.3495,111.3586
143.3495,111.3586
143.3495,111.3586
143.2333,111.4333
143.2333,111.4333
143.1429,111.5377
143.1429,111.5377
143.0855,111.6633
143.0855,111.6633
143.0659,111.8000
139.5302,111.8000
139.5302,110.5060
144.1159,110.5060
144.1159,110.5060
144.1355,110.6427
144.1355,110.6427
144.1929,110.7683
144.1929,110.7683
144.2833,110.8727
144.2833,110.8727
144.3995,110.9474
144.3995,110.9474
144.3995,110.9474
144.5320,110.9863
144.5320,110.9863
144.6702,110.9863
144.6702,110.9863
144.8027,110.9474
144.9189,110.8727
145.0093,110.7683
145.0667,110.6427
145.0863,110.5060
145.0805,110.4655
145.0798,110.4604
145.0667,110.3693
145.0093,110.2437
145.0093,110.2437
145.0093,110.2437
145.0093,110.2437
144.9189,110.1393
144.9189,110.1393
144.8027,110.0646
144.8027,110.0646
144.8027,110.0646
144.6702,110.0257
144.5320,110.0257
144.3995,110.0646
144.3995,110.0646
144.3995,110.0646
144.2833,110.1393
144.2833,110.1393
144.1929,110.2437
144.1929,110.2437
144.1355,110.3693
144.1355,110.3693
144.1159,110.5060
139.5302,110.5060
139.5302,108.0655
139.5448,108.0303
139.8766,107.6985
139.9118,107.6839
141.5419,107.6839
141.5574,107.6775
141.5665,107.6737
141.5665,107.6737
141.6086,107.6562
141.6261,107.6490
142.1953,107.0798
142.3110,106.9641
142.3459,106.8799
142.3459,106.7887
142.3459,106.5456
142.3605,106.5104
142.3688,106.5037
142.4345,106.4615
142.5250,106.3571
142.5824,106.2314
142.6020,106.0947
142.6019,106.0942
142.5905,106.0149
142.5824,105.9580
142.5250,105.8324
142.5250,105.8324
142.5250,105.8324
142.5250,105.8324
142.4346,105.7280
142.4345,105.7280
142.3184,105.6533
142.3184,105.6533
142.2968,105.6470
142.2672,105.6231
142.2631,105.5852
142.2656,105.5786
142.3153,105.4697
142.3349,105.3330
142.3153,105.1963
142.2579,105.0707
142.2579,105.0707
142.2579,105.0707
142.2579,105.0707
142.1675,104.9663
142.1675,104.9663
142.0513,104.8916
142.0513,104.8916
142.0513,104.8916
141.9188,104.8527
141.7806,104.8527
141.6481,104.8916
141.6481,104.8916
141.6481,104.8916
141.5319,104.9663
141.5319,104.9663
141.4837,105.0219
141.4496,105.0390
141.4135,105.0269
141.4085,105.0219
141.3603,104.9663
141.3603,104.9663
141.2441,104.8916
141.2441,104.8916
141.2441,104.8916
141.1116,104.8527
141.1116,104.8527
141.0918,104.8527
141.0566,104.8381
141.0420,104.8029
141.0425,104.7958
141.0601,104.6737
141.0601,104.6737
141.0437,104.5599
141.0404,104.5370
140.9830,104.4114
140.9830,104.4114
140.9830,104.4114
140.9830,104.4114
140.8926,104.3070
140.8926,104.3070
140.7764,104.2323
140.7764,104.2323
140.7764,104.2323
140.6439,104.1934
140.5058,104.1934
140.3732,104.2323
140.3732,104.2323
140.3732,104.2323
140.2571,104.3070
140.2571,104.3070
140.1666,104.4114
140.1666,104.4114
140.1092,104.5370
140.1092,104.5370
140.0896,104.6737
140.0896,104.6737
140.1092,104.8104
140.1092,104.8104
140.1666,104.9361
140.1680,104.9382
140.1747,104.9757
140.1530,105.0070
140.1261,105.0149
139.8615,105.0149
139.8487,105.0202
139.7773,105.0498
138.0069,106.8202
137.9922,106.8558
137.9922,106.8558
137.9720,106.9044
137.9720,108.1265
137.9574,108.1617
137.9222,108.1763
137.8870,108.1617
137.8846,108.1591
137.8189,108.0833
137.8189,108.0833
137.7027,108.0086
137.7027,108.0086
137.7027,108.0086
137.5702,107.9697
137.4320,107.9697
137.2995,108.0086
137.2995,108.0086
137.2995,108.0086
137.1833,108.0833
137.1833,108.0833
137.0929,108.1877
137.0929,108.1877
137.0355,108.3133
137.0355,108.3133
137.0159,108.4500
137.0159,108.4500
137.0355,108.5867
137.0355,108.5867
137.0929,108.7123
137.0929,108.7123
137.1523,108.7809
137.1833,108.8167
137.2551,108.8629
137.2769,108.8942
137.2780,108.9047
137.2780,111.5285
137.2634,111.5637
136.4069,112.4202
136.3825,112.4791
136.3825,112.4791
136.3720,112.5044
136.3720,113.5991
136.3574,113.6343
136.3491,113.6410
136.2833,113.6833
136.1929,113.7877
136.1929,113.7877
136.1355,113.9133
136.1355,113.9133
136.1159,114.0500
136.1159,114.0500
136.1355,114.1867
136.1355,114.1867
136.1929,114.3123
136.1929,114.3123
136.2833,114.4167
136.2833,114.4167
136.3995,114.4914
136.3995,114.4914
136.3995,114.4914
136.5320,114.5303
136.5320,114.5303
136.6737,114.5303
136.6737,114.5313
136.7069,114.5397
136.7263,114.5725
136.7169,114.6095
136.7123,114.6148
132.2782,119.0489
132.2430,119.0635
132.2286,119.0613
132.0977,119.0216
131.9011,119.0022
131.9011,119.0022
131.7045,119.0216
131.6740,119.0309
131.5154,119.0790
131.5154,119.0790
131.5154,119.0790
131.4324,119.1233
131.3412,119.1721
131.3412,119.1721
131.3412,119.1721
131.1885,119.2974
131.0632,119.4501
130.9701,119.6243
130.9701,119.6243
130.9701,119.6243
130.9127,119.8134
130.8933,120.0100
126.2011,120.0100
126.2011,107.3249
128.6982,107.3249
128.6982,109.0550
128.6982,109.0551
128.7071,109.0997
128.7071,109.0997
128.7409,109.1502
128.7409,109.1502
128.7914,109.1840
128.8360,109.1929
130.5662,109.1929
130.6108,109.1840
130.6613,109.1502
130.6951,109.0997
130.7040,109.0551
130.7040,107.3249
130.6951,107.2803
130.6951,107.2803
130.6951,107.2803
130.6613,107.2298
130.6613,107.2298
130.6108,107.1960
130.5662,107.1871
130.5662,107.1871
128.8360,107.1871
128.8360,107.1871
128.8026,107.1938
128.7914,107.1960
128.7914,107.1960
128.7914,107.1960
128.7409,107.2298
128.7409,107.2298
128.7071,107.2803
128.7071,107.2803
128.6982,107.3249
126.2011,107.3249
126.2011,105.4976
128.6065,105.4976
129.2243,105.4976
129.2011,105.5842
129.2011,105.7158
129.2243,105.8024
128.6065,105.8024
128.6112,105.8537
128.6112,105.8537
128.6672,106.0505
128.7584,106.2337
128.7584,106.2337
128.8817,106.3969
128.8817,106.3969
129.0329,106.5348
129.2069,106.6425
129.3977,106.7164
129.5487,106.7446
129.5487,106.7446
129.5487,106.1268
129.6353,106.1500
129.7669,106.1500
129.8535,106.1268
129.8535,106.7446
130.0045,106.7164
130.1953,106.6425
130.3693,106.5348
130.5205,106.3969
130.5205,106.3969
130.6438,106.2337
130.6438,106.2337
130.7350,106.0505
130.7909,105.8537
130.7910,105.8537
130.7957,105.8024
130.1779,105.8024
130.2011,105.7158
130.2011,105.5842
130.1779,105.4976
130.7957,105.4976
130.7910,105.4463
130.7909,105.4463
130.7350,105.2495
130.6438,105.0663
130.6438,105.0663
130.5205,104.9031
130.5205,104.9031
130.3693,104.7652
130.1953,104.6575
130.0045,104.5836
129.8535,104.5554
129.8535,105.1732
129.7669,105.1500
129.6353,105.1500
129.5487,105.1732
129.5487,104.5554
129.5487,104.5554
129.3977,104.5836
129.2069,104.6575
129.0329,104.7652
128.8817,104.9031
128.8817,104.9031
128.7584,105.0663
128.7584,105.0663
128.6672,105.2495
128.6112,105.4463
128.6112,105.4463
128.6065,105.4976
126.2011,105.4976
126.2011,103.6382
141.1276,103.6382
141.1276,103.6382
141.1473,103.7749
141.1473,103.7749
141.2047,103.9006
141.2047,103.9006
141.2951,104.0049
141.2951,104.0050
141.4113,104.0796
141.4113,104.0796
141.4113,104.0796
141.5438,104.1185
141.5438,104.1185
141.6819,104.1185
141.6819,104.1185
141.8144,104.0796
141.9306,104.0050
142.0211,103.9006
142.0785,103.7749
142.0981,103.6382
142.0785,103.5015
142.0211,103.3759
142.0211,103.3759
142.0211,103.3759
142.0211,103.3759
141.9306,103.2715
141.9306,103.2715
141.8144,103.1968
141.8144,103.1968
141.8144,103.1968
141.6819,103.1579
141.5438,103.1579
141.4113,103.1968
141.4113,103.1968
141.4113,103.1968
141.2951,103.2715
141.2951,103.2715
141.2047,103.3759
141.2047,103.3759
141.1473,103.5015
141.1473,103.5015
141.1276,103.6382
126.2011,103.6382
126.2011,94.3976
130.8265,94.3976
131.4443,94.3976
131.4211,94.4842
131.4211,94.6158
131.4443,94.7024
130.8265,94.7024
130.8312,94.7537
130.8312,94.7537
130.8872,94.9505
130.9784,95.1337
130.9784,95.1337
131.1017,95.2969
131.1017,95.2969
131.2529,95.4348
131.4269,95.5425
131.6177,95.6164
131.7687,95.6446
131.7687,95.6446
131.7687,95.0268
131.8553,95.0500
131.9869,95.0500
132.0735,95.0268
132.0735,95.6446
132.2245,95.6164
132.4153,95.5425
132.5893,95.4348
132.7405,95.2969
132.7405,95.2969
132.8638,95.1337
132.8638,95.1337
132.9522,94.9560
132.9810,94.9310
133.0190,94.9336
133.0440,94.9624
133.0466,94.9782
133.0466,96.2035
133.0853,96.2971
135.2796,98.4913
135.2796,98.4913
135.3540,98.5658
135.4476,98.6045
135.4476,98.6045
135.4476,98.6045
135.5488,98.6045
138.5457,98.6045
138.5809,98.6191
138.5890,98.6308
138.5891,98.6307
138.5908,98.6333
138.5910,98.6336
138.5910,98.6337
138.5910,98.6337
138.6815,98.7381
138.6815,98.7381
138.7977,98.8127
138.7977,98.8127
138.7977,98.8127
138.9302,98.8517
138.9302,98.8517
139.0683,98.8517
139.0683,98.8517
139.2008,98.8127
139.2905,98.7551
139.3280,98.7484
139.3593,98.7701
139.3672,98.7970
139.3672,99.1393
139.3526,99.1745
138.6128,99.9143
138.5776,99.9289
136.2644,99.9289
136.2292,99.9143
136.2191,99.8997
136.2173,99.8956
136.2004,99.8762
136.1268,99.7912
136.1268,99.7912
136.0106,99.7166
136.0106,99.7166
136.0106,99.7166
135.8781,99.6777
135.7400,99.6777
135.6075,99.7166
135.6075,99.7166
135.6075,99.7166
135.4913,99.7912
135.4913,99.7912
135.4008,99.8956
135.4008,99.8956
135.3435,100.0212
135.3435,100.0212
135.3238,100.1580
135.3238,100.1580
135.3435,100.2947
135.3435,100.2947
135.4008,100.4203
135.4008,100.4203
135.4913,100.5247
135.4913,100.5247
135.6075,100.5993
135.6075,100.5993
135.6075,100.5993
135.7400,100.6383
135.7400,100.6383
135.8781,100.6383
135.8781,100.6383
136.0106,100.5993
136.1268,100.5247
136.2173,100.4203
136.2191,100.4162
136.2470,100.3902
136.2644,100.3871
138.7387,100.3871
138.7543,100.3806
138.7634,100.3768
138.7634,100.3768
138.8055,100.3594
138.8229,100.3522
139.5870,99.5881
139.6222,99.5735
139.6574,99.5881
139.6720,99.6233
139.6720,100.3956
139.7069,100.4798
141.3373,102.1102
141.3519,102.1455
141.3398,102.1781
141.2929,102.2322
141.2929,102.2322
141.2355,102.3578
141.2355,102.3578
141.2159,102.4945
141.2159,102.4945
141.2355,102.6312
141.2355,102.6312
141.2929,102.7568
141.2929,102.7568
141.3833,102.8612
141.3833,102.8612
141.4995,102.9359
141.4995,102.9359
141.4995,102.9359
141.6320,102.9748
141.6320,102.9748
141.7702,102.9748
141.7702,102.9748
141.7702,102.9748
141.7732,102.9744
141.8102,102.9838
141.8155,102.9884
142.3286,103.5015
142.7574,103.9303
142.7720,103.9655
142.7720,107.0956
142.8069,107.1798
144.3402,108.7131
144.3548,108.7483
144.3426,108.7809
144.2759,108.8579
144.2185,108.9835
144.2185,108.9835
144.1989,109.1202
144.1989,109.1202
144.2185,109.2569
144.2185,109.2569
144.2759,109.3825
144.2759,109.3825
144.3663,109.4869
144.3663,109.4869
144.4825,109.5616
144.4825,109.5616
144.4825,109.5616
144.6150,109.6005
144.6150,109.6005
144.7532,109.6005
144.7532,109.6005
144.8857,109.5616
145.0019,109.4869
145.0923,109.3825
145.1497,109.2569
145.1680,109.1295
145.1693,109.1202
145.1693,109.1202
145.1600,109.0551
145.1497,108.9835
145.1376,108.9570
145.1177,108.9135
145.1132,108.8928
145.1132,108.8746
145.1132,108.8746
145.0764,108.7859
145.0777,108.7854
145.0715,108.7539
145.0927,108.7222
145.1300,108.7148
145.1555,108.7284
146.8574,110.4303
146.8720,110.4655
146.8720,115.1858
146.9069,115.2700
151.2622,119.6253
151.2768,119.6606
151.2747,119.6750
151.2369,119.7995
151.2327,119.8134
151.2133,120.0100
151.2327,120.2066
151.2901,120.3956
151.3832,120.5699
151.3832,120.5699
151.3832,120.5699
151.4153,120.6090
151.5085,120.7226
151.6612,120.8479
151.8354,120.9410
152.0245,120.9984
152.1726,121.0130
152.2211,121.0178
152.2211,121.0178
152.2211,121.0178
152.2659,121.0133
152.4177,120.9984
152.6068,120.9410
152.7810,120.8479
152.9337,120.7226
153.0590,120.5699
153.1521,120.3956
153.2095,120.2066
153.2289,120.0100
153.2095,119.8134
153.1521,119.6243
153.0590,119.4501
152.9337,119.2974
152.7810,119.1721
152.6068,119.0790
152.4177,119.0216
152.2211,119.0022
152.2211,119.0022
152.0245,119.0216
151.9940,119.0309
151.8354,119.0790
151.8354,119.0790
151.8354,119.0790
151.7524,119.1233
151.6612,119.1721
151.6612,119.1721
151.6612,119.1721
151.5839,119.2355
151.5475,119.2466
151.5171,119.2322
147.3448,115.0599
147.3302,115.0247
147.3302,114.4233
147.3448,114.3881
147.3800,114.3735
147.4152,114.3881
150.7713,117.7442
150.8309,117.7689
150.8555,117.7791
150.8555,117.7791
150.9467,117.7791
152.1856,117.7791
152.2208,117.7937
153.8811,119.4540
153.8956,119.4892
153.8898,119.5126
153.8301,119.6243
153.8301,119.6243
153.8301,119.6243
153.7727,119.8134
153.7533,120.0100
153.7727,120.2066
153.8301,120.3956
153.9232,120.5699
153.9232,120.5699
153.9232,120.5699
153.9553,120.6090
154.0485,120.7226
154.2012,120.8479
154.3755,120.9410
154.5645,120.9984
154.7126,121.0130
154.7611,121.0178
154.7611,121.0178
154.7611,121.0178
154.8059,121.0133
154.9577,120.9984
155.1467,120.9410
155.3210,120.8479
155.4737,120.7226
155.5990,120.5699
155.6921,120.3956
155.7495,120.2066
155.7689,120.0100
155.7495,119.8134
155.6921,119.6243
155.5990,119.4501
155.4737,119.2974
155.3210,119.1721
155.1467,119.0790
154.9577,119.0216
154.7611,119.0022
154.7611,119.0022
154.5645,119.0216
154.5340,119.0309
154.3755,119.0790
154.3754,119.0790
154.3754,119.0790
154.3754,119.0790
154.2637,119.1387
154.2258,119.1424
154.2051,119.1300
152.4309,117.3558
152.3713,117.3311
152.3467,117.3209
152.3467,117.3209
151.0166,117.3209
150.9814,117.3063
147.7448,114.0697
147.7302,114.0345
147.7302,109.8119
147.7158,109.7771
147.7158,109.7770
147.7067,109.7551
147.7067,109.7170
147.7336,109.6901
147.7386,109.6883
147.8467,109.6566
147.9629,109.5819
148.0533,109.4775
148.0552,109.4734
148.0831,109.4474
148.1005,109.4443
148.9508,109.4443
148.9860,109.4589
151.8185,112.2914
151.8331,112.3266
151.8326,112.3337
151.8159,112.4500
151.8159,112.4500
151.8355,112.5867
151.8355,112.5867
151.8929,112.7123
151.8929,112.7123
151.9833,112.8167
151.9833,112.8167
152.0995,112.8914
152.0995,112.8914
152.0995,112.8914
152.2320,112.9303
152.2320,112.9303
152.3702,112.9303
152.3702,112.9303
152.5027,112.8914
152.6189,112.8167
152.7093,112.7123
152.7667,112.5867
152.7863,112.4500
152.7667,112.3133
152.7093,112.1877
152.7093,112.1877
152.7093,112.1877
152.7093,112.1877
152.6189,112.0833
152.6189,112.0833
152.5027,112.0086
152.5027,112.0086
152.5027,112.0086
152.3702,111.9697
152.2320,111.9697
152.2320,111.9697
152.1929,111.9812
152.1551,111.9771
152.1437,111.9686
149.1961,109.0210
149.1365,108.9963
149.1119,108.9861
149.1119,108.9861
148.1005,108.9861
148.0653,108.9715
148.0552,108.9570
148.0533,108.9529
148.0533,108.9529
147.9629,108.8485
147.9629,108.8485
147.8467,108.7738
147.8467,108.7738
147.8467,108.7738
147.7142,108.7349
147.5760,108.7349
147.4435,108.7738
147.4435,108.7738
147.4435,108.7738
147.3273,108.8485
147.3273,108.8485
147.2369,108.9529
147.2369,108.9529
147.1795,109.0785
147.1795,109.0785
147.1769,109.0967
147.1575,109.1295
147.1205,109.1389
147.0924,109.1248
146.5317,108.5641
146.5171,108.5289
146.5317,108.4937
146.5669,108.4791
146.6467,108.4791
147.8457,108.4791
147.8809,108.4937
147.8910,108.5082
147.8929,108.5123
147.8929,108.5123
147.8929,108.5123
147.9833,108.6167
147.9833,108.6167
148.0995,108.6914
148.0995,108.6914
148.0995,108.6914
148.2320,108.7303
148.2320,108.7303
148.3702,108.7303
148.3702,108.7303
148.5027,108.6914
148.6189,108.6167
148.6306,108.6032
148.6490,108.5819
148.7093,108.5123
148.7667,108.3867
148.7863,108.2500
148.7667,108.1133
148.7093,107.9877
148.7093,107.9877
148.7093,107.9877
148.7093,107.9877
148.6189,107.8833
148.6189,107.8833
148.5027,107.8086
148.5027,107.8086
148.5027,107.8086
148.3702,107.7697
148.2320,107.7697
148.0995,107.8086
148.0995,107.8086
148.0995,107.8086
147.9833,107.8833
147.9833,107.8833
147.8929,107.9877
147.8929,107.9877
147.8929,107.9877
147.8929,107.9877
147.8910,107.9918
147.8631,108.0178
147.8457,108.0209
146.7166,108.0209
146.6814,108.0063
146.5780,107.9029
146.5780,107.9029
145.5448,106.8697
145.5302,106.8345
145.5302,105.8675
145.5245,105.8538
145.5157,105.8324
145.4953,105.7833
145.4934,105.7787
145.4959,105.7777
145.4903,105.7495
145.5114,105.7178
145.5488,105.7103
145.5743,105.7240
145.5946,105.7442
145.6788,105.7791
145.6788,105.7791
145.7699,105.7791
145.7856,105.7791
145.8208,105.7937
147.2185,107.1914
147.2331,107.2266
147.2326,107.2337
147.2159,107.3500
147.2159,107.3500
147.2355,107.4867
147.2355,107.4867
147.2929,107.6123
147.2929,107.6123
147.3833,107.7167
147.3833,107.7167
147.4995,107.7914
147.4995,107.7914
147.4995,107.7914
147.6320,107.8303
147.6320,107.8303
147.7702,107.8303
147.7702,107.8303
147.9027,107.7914
148.0189,107.7167
148.1093,107.6123
148.1667,107.4867
148.1850,107.3595
148.1863,107.3500
148.1863,107.3500
148.1763,107.2803
148.1667,107.2133
148.1093,107.0877
148.1093,107.0877
148.1093,107.0877
148.1093,107.0877
148.0189,106.9833
148.0189,106.9833
147.9027,106.9086
147.9027,106.9086
147.9027,106.9086
147.7702,106.8697
147.6320,106.8697
147.6320,106.8697
147.5929,106.8812
147.5551,106.8771
147.5437,106.8686
146.7910,106.1159
146.0309,105.3558
146.0309,105.3558
145.9713,105.3311
145.9467,105.3209
145.9467,105.3209
145.8399,105.3209
145.8047,105.3063
145.1809,104.6825
145.1503,104.6698
145.1342,104.6591
145.0496,104.5745
145.0350,104.5393
145.0350,103.8092
145.0350,103.8092
145.0001,103.7250
144.9357,103.6606
144.9251,103.6500
145.9159,103.6500
145.9159,103.6500
145.9355,103.7867
145.9355,103.7867
145.9929,103.9123
145.9929,103.9123
146.0833,104.0167
146.0833,104.0167
146.1995,104.0914
146.1995,104.0914
146.1995,104.0914
146.3320,104.1303
146.3320,104.1303
146.4702,104.1303
146.4702,104.1303
146.6027,104.0914
146.7189,104.0167
146.8093,103.9123
146.8667,103.7867
146.8863,103.6500
146.8667,103.5133
146.8093,103.3877
146.8093,103.3877
146.8093,103.3877
146.8093,103.3877
146.7189,103.2833
146.7189,103.2833
146.6027,103.2086
146.6027,103.2086
146.6027,103.2086
146.4702,103.1697
146.3320,103.1697
146.1995,103.2086
146.1995,103.2086
146.1995,103.2086
146.0833,103.2833
146.0833,103.2833
145.9929,103.3877
145.9929,103.3877
145.9355,103.5133
145.9355,103.5133
145.9159,103.6500
144.9251,103.6500
144.1448,102.8697
144.1302,102.8345
144.1302,102.7749
144.7540,102.7749
144.7540,102.7749
144.7737,102.9116
144.7737,102.9116
144.8311,103.0372
144.8311,103.0372
144.9215,103.1416
144.9215,103.1416
145.0377,103.2163
145.0377,103.2163
145.0377,103.2163
145.1702,103.2552
145.1702,103.2552
145.3083,103.2552
145.3083,103.2552
145.4408,103.2163
145.5570,103.1416
145.6475,103.0372
145.6494,103.0331
145.6773,103.0071
145.6947,103.0040
147.4468,103.0040
147.4820,103.0186
151.4548,106.9914
151.4694,107.0266
151.4689,107.0337
151.4522,107.1500
151.4522,107.1500
151.4718,107.2867
151.4718,107.2867
151.5292,107.4123
151.5292,107.4123
151.6196,107.5167
151.6196,107.5167
151.7358,107.5914
151.7358,107.5914
151.7358,107.5914
151.8683,107.6303
151.8683,107.6303
152.0065,107.6303
152.0065,107.6303
152.1390,107.5914
152.2552,107.5167
152.3456,107.4123
152.4030,107.2867
152.4226,107.1500
152.4030,107.0133
152.3456,106.8877
152.3456,106.8877
152.3456,106.8877
152.3456,106.8877
152.2552,106.7833
152.2552,106.7833
152.1390,106.7086
152.1390,106.7086
152.1390,106.7086
152.0065,106.6697
151.8683,106.6697
151.8683,106.6697
151.8293,106.6812
151.7914,106.6771
151.7800,106.6686
147.6921,102.5807
147.6325,102.5560
147.6079,102.5458
147.6079,102.5458
145.6947,102.5458
145.6594,102.5312
145.6494,102.5167
145.6475,102.5126
145.6318,102.4945
145.5570,102.4082
145.5570,102.4082
145.4408,102.3335
145.4408,102.3335
145.4408,102.3335
145.3083,102.2946
145.1702,102.2946
145.0377,102.3335
145.0377,102.3335
145.0377,102.3335
144.9215,102.4082
144.9215,102.4082
144.8311,102.5126
144.8311,102.5126
144.7737,102.6382
144.7737,102.6382
144.7540,102.7749
144.1302,102.7749
144.1302,100.9044
144.1158,100.8696
144.0953,100.8202
142.1309,98.8558
142.1309,98.8558
142.0713,98.8311
142.0467,98.8209
142.0467,98.8209
141.0565,98.8209
141.0213,98.8063
141.0112,98.7918
141.0093,98.7877
140.9993,98.7762
140.9189,98.6833
140.9189,98.6833
140.8027,98.6086
140.8027,98.6086
140.8027,98.6086
140.6702,98.5697
140.5320,98.5697
140.3995,98.6086
140.3995,98.6086
140.3995,98.6086
140.2833,98.6833
140.2833,98.6833
140.2176,98.7591
140.1836,98.7762
140.1474,98.7641
140.1303,98.7300
140.1302,98.7265
140.1302,97.4655
140.1448,97.4303
140.4664,97.1087
140.7287,96.8464
142.1148,96.8464
142.1148,96.8464
142.1344,96.9831
142.1344,96.9831
142.1918,97.1087
142.1918,97.1087
142.2822,97.2131
142.2822,97.2131
142.3984,97.2878
142.3984,97.2878
142.3984,97.2878
142.5309,97.3267
142.5309,97.3267
142.6691,97.3267
142.6691,97.3267
142.8016,97.2878
142.9178,97.2131
143.0082,97.1087
143.0656,96.9831
143.0852,96.8464
143.0656,96.7097
143.0082,96.5841
143.0082,96.5841
143.0082,96.5841
143.0082,96.5841
142.9178,96.4797
142.9178,96.4797
142.8016,96.4050
142.8016,96.4050
142.8016,96.4050
142.6691,96.3661
142.5309,96.3661
142.3984,96.4050
142.3984,96.4050
142.3984,96.4050
142.2822,96.4797
142.2822,96.4797
142.1918,96.5841
142.1918,96.5841
142.1344,96.7097
142.1344,96.7097
142.1148,96.8464
140.7287,96.8464
140.9953,96.5798
141.0302,96.4956
141.0302,96.4044
141.0302,95.1280
141.0448,95.0928
141.0800,95.0782
141.1152,95.0928
141.1246,95.1058
141.1384,95.1337
141.1384,95.1337
141.2617,95.2969
141.2617,95.2969
141.4129,95.4348
141.5869,95.5425
141.7777,95.6164
141.9287,95.6446
141.9287,95.6446
141.9287,95.0268
142.0153,95.0500
142.1469,95.0500
142.2335,95.0268
142.2335,95.6446
142.3845,95.6164
142.5753,95.5425
142.7493,95.4348
142.9005,95.2969
142.9005,95.2969
143.0238,95.1337
143.0238,95.1337
143.1150,94.9505
143.1710,94.7537
143.1710,94.7537
143.1757,94.7024
142.5579,94.7024
142.5811,94.6158
142.5811,94.4842
142.5579,94.3976
143.1757,94.3976
143.5265,94.3976
144.1443,94.3976
144.1211,94.4842
144.1211,94.6158
144.1443,94.7024
143.5265,94.7024
143.5312,94.7537
143.5312,94.7537
143.5872,94.9505
143.6784,95.1337
143.6784,95.1337
143.8017,95.2969
143.8017,95.2969
143.9529,95.4348
144.1269,95.5425
144.3177,95.6164
144.4687,95.6446
144.4687,95.6446
144.4687,95.0268
144.5553,95.0500
144.6869,95.0500
144.7735,95.0268
144.7735,95.6446
144.9245,95.6164
145.1153,95.5425
145.2893,95.4348
145.4405,95.2969
145.4405,95.2969
145.5638,95.1337
145.5638,95.1337
145.6550,94.9505
145.7109,94.7537
145.7110,94.7537
145.7157,94.7024
145.0979,94.7024
145.1211,94.6158
145.1211,94.5500
146.1533,94.5500
146.1727,94.7466
146.2301,94.9356
146.3232,95.1099
146.3232,95.1099
146.3232,95.1099
146.3553,95.1490
146.4485,95.2626
146.6012,95.3879
146.7755,95.4810
146.9645,95.5384
147.1118,95.5529
147.1611,95.5578
147.1611,95.5578
147.1611,95.5578
147.2059,95.5533
147.3577,95.5384
147.5468,95.4810
147.7210,95.3879
147.8737,95.2626
147.9990,95.1099
148.0921,94.9356
148.1495,94.7466
148.1689,94.5500
148.6933,94.5500
148.7127,94.7466
148.7701,94.9356
148.8632,95.1099
148.8632,95.1099
148.8632,95.1099
148.8953,95.1490
148.9885,95.2626
149.1412,95.3879
149.3154,95.4810
149.5045,95.5384
149.6518,95.5529
149.7011,95.5578
149.7011,95.5578
149.7011,95.5578
149.7459,95.5533
149.8977,95.5384
150.0867,95.4810
150.2610,95.3879
150.4137,95.2626
150.5390,95.1099
150.6321,94.9356
150.6895,94.7466
150.7089,94.5500
151.2333,94.5500
151.2527,94.7466
151.3101,94.9356
151.4032,95.1099
151.4032,95.1099
151.4032,95.1099
151.4353,95.1490
151.5285,95.2626
151.6812,95.3879
151.8554,95.4810
152.0445,95.5384
152.1918,95.5529
152.2411,95.5578
152.2411,95.5578
152.2411,95.5578
152.2859,95.5533
152.4377,95.5384
152.6267,95.4810
152.8010,95.3879
152.9537,95.2626
153.0790,95.1099
153.1721,94.9356
153.2295,94.7466
153.2489,94.5500
153.2295,94.3534
153.1721,94.1643
153.0790,93.9901
152.9537,93.8374
152.8010,93.7121
152.6267,93.6190
152.4377,93.5616
152.2411,93.5422
152.2411,93.5422
152.0445,93.5616
151.9622,93.5866
151.8554,93.6190
151.8554,93.6190
151.8554,93.6190
151.7689,93.6652
151.6812,93.7121
151.6812,93.7121
151.6812,93.7121
151.5285,93.8374
151.4032,93.9901
151.3101,94.1643
151.3101,94.1643
151.3101,94.1643
151.2527,94.3534
151.2333,94.5500
150.7089,94.5500
150.6895,94.3534
150.6321,94.1643
150.5390,93.9901
150.4137,93.8374
150.2610,93.7121
150.0867,93.6190
149.8977,93.5616
149.7011,93.5422
149.7011,93.5422
149.5045,93.5616
149.4222,93.5866
149.3154,93.6190
149.3154,93.6190
149.3154,93.6190
149.2289,93.6652
149.1412,93.7121
149.1412,93.7121
149.1412,93.7121
148.9885,93.8374
148.8632,93.9901
148.7701,94.1643
148.7701,94.1643
148.7701,94.1643
148.7127,94.3534
148.6933,94.5500
148.1689,94.5500
148.1495,94.3534
148.0921,94.1643
147.9990,93.9901
147.8737,93.8374
147.7210,93.7121
147.5468,93.6190
147.3577,93.5616
147.1611,93.5422
147.1611,93.5422
146.9645,93.5616
146.8822,93.5866
146.7755,93.6190
146.7754,93.6190
146.7754,93.6190
146.6889,93.6652
146.6012,93.7121
146.6012,93.7121
146.6012,93.7121
146.4485,93.8374
146.3232,93.9901
146.2301,94.1643
146.2301,94.1643
146.2301,94.1643
146.1727,94.3534
146.1533,94.5500
145.1211,94.5500
145.1211,94.4842
145.0979,94.3976
145.7157,94.3976
145.7110,94.3463
145.7109,94.3463
145.6550,94.1495
145.5638,93.9663
145.5638,93.9663
145.4405,93.8031
145.4405,93.8031
145.2893,93.6652
145.1153,93.5575
144.9245,93.4836
144.7735,93.4554
144.7735,94.0732
144.6869,94.0500
144.5553,94.0500
144.4687,94.0732
144.4687,93.4554
144.4687,93.4554
144.3177,93.4836
144.1269,93.5575
143.9529,93.6652
143.8017,93.8031
143.8017,93.8031
143.6784,93.9663
143.6784,93.9663
143.5872,94.1495
143.5312,94.3463
143.5312,94.3463
143.5265,94.3976
143.1757,94.3976
143.1710,94.3463
143.1710,94.3463
143.1150,94.1495
143.0238,93.9663
143.0238,93.9663
142.9005,93.8031
142.9005,93.8031
142.7493,93.6652
142.5753,93.5575
142.3845,93.4836
142.2335,93.4554
142.2335,94.0732
142.1469,94.0500
142.0153,94.0500
141.9287,94.0732
141.9287,93.4554
141.9287,93.4554
141.7777,93.4836
141.5869,93.5575
141.4129,93.6652
141.2617,93.8031
141.2617,93.8031
141.1384,93.9663
141.1384,93.9663
141.1246,93.9942
141.0958,94.0192
141.0578,94.0165
141.0328,93.9878
141.0302,93.9720
141.0302,93.4055
141.0448,93.3703
141.2549,93.1602
141.5251,92.8900
141.5603,92.8755
141.5837,92.8813
141.6954,92.9410
141.8845,92.9984
142.0326,93.0130
142.0811,93.0178
142.0811,93.0178
142.0811,93.0178
142.1259,93.0133
142.2777,92.9984
142.4667,92.9410
142.6410,92.8479
142.7937,92.7226
142.9190,92.5699
143.0121,92.3956
143.0695,92.2066
143.0889,92.0100
143.6133,92.0100
143.6327,92.2066
143.6901,92.3956
143.7832,92.5699
143.9085,92.7226
144.0612,92.8479
144.2354,92.9410
144.4245,92.9984
144.5726,93.0130
144.6211,93.0178
144.6211,93.0178
144.6211,93.0178
144.6659,93.0133
144.8177,92.9984
145.0067,92.9410
145.1810,92.8479
145.3337,92.7226
145.4590,92.5699
145.5521,92.3956
145.6095,92.2066
145.6289,92.0100
145.6138,91.8576
146.0665,91.8576
146.6843,91.8576
146.6611,91.9442
146.6611,92.0758
146.6843,92.1624
146.0665,92.1624
146.0712,92.2137
146.0712,92.2137
146.1272,92.4105
146.2184,92.5937
146.2184,92.5937
146.3417,92.7569
146.3417,92.7569
146.4929,92.8948
146.6669,93.0025
146.8577,93.0764
147.0087,93.1046
147.0087,93.1046
147.0087,92.4868
147.0953,92.5100
147.2269,92.5100
147.3135,92.4868
147.3135,93.1046
147.4645,93.0764
147.6553,93.0025
147.8293,92.8948
147.9805,92.7569
147.9805,92.7569
148.1038,92.5937
148.1038,92.5937
148.1950,92.4105
148.2509,92.2137
148.2510,92.2137
148.2557,92.1624
147.6379,92.1624
147.6611,92.0758
147.6611,91.9442
147.6379,91.8576
148.2557,91.8576
148.6065,91.8576
149.2243,91.8576
149.2011,91.9442
149.2011,92.0758
149.2243,92.1624
148.6065,92.1624
148.6112,92.2137
148.6112,92.2137
148.6672,92.4105
148.7584,92.5937
148.7584,92.5937
148.8817,92.7569
148.8817,92.7569
149.0329,92.8948
149.2069,93.0025
149.3977,93.0764
149.5487,93.1046
149.5487,93.1046
149.5487,92.4868
149.6353,92.5100
149.7669,92.5100
149.8535,92.4868
149.8535,93.1046
150.0045,93.0764
150.1953,93.0025
150.3693,92.8948
150.5205,92.7569
150.5205,92.7569
150.6438,92.5937
150.6438,92.5937
150.7350,92.4105
150.7909,92.2137
150.7910,92.2137
150.7957,92.1624
150.1779,92.1624
150.2011,92.0758
150.2011,91.9442
150.1779,91.8576
150.7957,91.8576
150.7910,91.8063
150.7909,91.8063
150.7350,91.6095
150.6438,91.4263
150.6438,91.4263
150.5205,91.2631
150.5205,91.2631
150.3693,91.1252
150.1953,91.0175
150.0045,90.9436
149.8535,90.9154
149.8535,91.5332
149.7669,91.5100
149.6353,91.5100
149.5487,91.5332
149.5487,90.9154
149.5487,90.9154
149.3977,90.9436
149.2069,91.0175
149.0329,91.1252
148.8817,91.2631
148.8817,91.2631
148.7584,91.4263
148.7584,91.4263
148.6672,91.6095
148.6112,91.8063
148.6112,91.8063
148.6065,91.8576
148.2557,91.8576
148.2510,91.8063
148.2509,91.8063
148.1950,91.6095
148.1038,91.4263
148.1038,91.4263
147.9805,91.2631
147.9805,91.2631
147.8293,91.1252
147.6553,91.0175
147.4645,90.9436
147.3135,90.9154
147.3135,91.5332
147.2269,91.5100
147.0953,91.5100
147.0087,91.5332
147.0087,90.9154
147.0087,90.9154
146.8577,90.9436
146.6669,91.0175
146.4929,91.1252
146.3417,91.2631
146.3417,91.2631
146.2184,91.4263
146.2184,91.4263
146.1272,91.6095
146.0712,91.8063
146.0712,91.8063
146.0665,91.8576
145.6138,91.8576
145.6095,91.8134
145.5521,91.6243
145.4590,91.4501
145.3337,91.2974
145.1810,91.1721
145.0067,91.0790
144.8177,91.0216
144.6211,91.0022
144.6211,91.0022
144.4245,91.0216
144.3958,91.0303
144.2354,91.0790
144.2354,91.0790
144.2354,91.0790
144.1489,91.1252
144.0612,91.1721
144.0612,91.1721
144.0612,91.1721
143.9085,91.2974
143.7832,91.4501
143.7832,91.4501
143.7832,91.4501
143.7512,91.5100
143.6901,91.6243
143.6901,91.6243
143.6901,91.6243
143.6327,91.8134
143.6133,92.0100
143.0889,92.0100
143.0695,91.8134
143.0121,91.6243
142.9190,91.4501
142.7937,91.2974
142.6410,91.1721
142.4667,91.0790
142.2777,91.0216
142.0811,91.0022
142.0811,91.0022
141.8845,91.0216
141.8558,91.0303
141.6954,91.0790
141.6954,91.0790
141.6954,91.0790
141.6089,91.1252
141.5212,91.1721
141.5212,91.1721
141.5212,91.1721
141.3685,91.2974
141.2432,91.4501
141.2432,91.4501
141.2432,91.4501
141.2112,91.5100
141.1501,91.6243
141.1501,91.6243
141.1501,91.6243
141.0927,91.8134
141.0733,92.0100
141.0927,92.2066
141.1501,92.3956
141.1501,92.3957
141.1501,92.3957
141.2098,92.5074
141.2135,92.5453
141.2011,92.5660
140.6069,93.1602
140.5822,93.2198
140.5822,93.2198
140.5720,93.2444
140.5720,94.1578
140.5574,94.1930
140.5222,94.2076
140.4870,94.1930
140.4745,94.1723
140.4721,94.1643
140.3790,93.9901
140.2537,93.8374
140.1010,93.7121
139.9267,93.6190
139.7377,93.5616
139.5411,93.5422
139.5411,93.5422
139.3445,93.5616
139.2622,93.5866
139.1555,93.6190
139.1554,93.6190
139.1554,93.6190
139.0689,93.6652
138.9812,93.7121
138.9812,93.7121
138.9812,93.7121
138.8285,93.8374
138.7185,93.9715
138.6849,93.9894
138.6484,93.9784
138.6304,93.9448
138.6302,93.9399
138.6302,92.6201
138.6448,92.5849
138.6800,92.5703
138.7152,92.5849
138.7185,92.5885
138.8285,92.7226
138.9812,92.8479
139.1555,92.9410
139.3445,92.9984
139.4926,93.0130
139.5411,93.0178
139.5411,93.0178
139.5411,93.0178
139.5859,93.0133
139.7377,92.9984
139.9267,92.9410
140.1010,92.8479
140.2537,92.7226
140.3790,92.5699
140.4721,92.3956
140.5295,92.2066
140.5489,92.0100
140.5295,91.8134
140.4721,91.6243
140.3790,91.4501
140.2537,91.2974
140.1010,91.1721
139.9267,91.0790
139.7377,91.0216
139.5411,91.0022
139.5411,91.0022
139.4648,91.0098
139.4284,90.9987
139.4104,90.9651
139.4215,90.9286
139.4247,90.9250
139.5560,90.7937
139.5913,90.7791
152.8856,90.7791
152.9208,90.7937
153.1574,91.0303
153.1720,91.0655
153.1720,91.2622
153.1574,91.2974
153.1222,91.3120
153.0870,91.2974
153.0825,91.2922
153.0605,91.2631
153.0605,91.2631
152.9093,91.1252
152.7353,91.0175
152.5445,90.9436
152.3935,90.9154
152.3935,91.5332
152.3069,91.5100
152.1753,91.5100
152.0887,91.5332
152.0887,90.9154
152.0887,90.9154
151.9377,90.9436
151.7469,91.0175
151.5729,91.1252
151.4217,91.2631
151.4217,91.2631
151.2984,91.4263
151.2984,91.4263
151.2072,91.6095
151.1512,91.8063
151.1512,91.8063
151.1465,91.8576
151.7643,91.8576
151.7411,91.9442
151.7411,92.0758
151.7643,92.1624
151.1465,92.1624
151.1512,92.2137
151.1512,92.2137
151.2072,92.4105
151.2984,92.5937
151.2984,92.5937
151.4217,92.7569
151.4217,92.7569
151.5729,92.8948
151.7469,93.0025
151.9377,93.0764
152.0887,93.1046
152.0887,93.1046
152.0887,92.4868
152.1753,92.5100
152.3069,92.5100
152.3935,92.4868
152.3935,93.1046
152.5445,93.0764
152.7353,93.0025
152.9093,92.8948
153.0605,92.7569
153.0605,92.7569
153.0825,92.7278
153.1153,92.7085
153.1522,92.7181
153.1715,92.7509
153.1720,92.7578
153.1720,92.8956
153.2069,92.9798
153.2069,92.9798
153.5025,93.2754
153.7904,93.5633
153.8050,93.5985
153.7966,93.6261
153.7902,93.6357
153.7871,93.6403
153.7782,93.6849
153.7782,95.4150
153.7782,95.4151
153.7871,95.4597
153.7871,95.4597
153.8209,95.5102
153.8209,95.5102
153.8714,95.5440
153.9160,95.5529
155.6462,95.5529
155.6908,95.5440
155.7413,95.5102
155.7751,95.4597
155.7840,95.4151
155.7840,93.6849
155.7751,93.6403
155.7751,93.6403
155.7751,93.6403
155.7413,93.5898
155.7413,93.5898
155.6908,93.5560
155.6462,93.5471
154.4428,93.5471
154.4076,93.5325
153.6448,92.7697
153.6302,92.7345
153.6302,92.0100
153.7733,92.0100
153.7927,92.2066
153.8501,92.3956
153.9432,92.5699
154.0685,92.7226
154.2212,92.8479
154.3954,92.9410
154.5845,92.9984
154.7326,93.0130
154.7811,93.0178
154.7811,93.0178
154.7811,93.0178
154.8259,93.0133
154.9777,92.9984
155.1667,92.9410
155.3410,92.8479
155.4937,92.7226
155.6190,92.5699
155.7121,92.3956
155.7695,92.2066
155.7889,92.0100
155.7695,91.8134
155.7121,91.6243
155.6190,91.4501
155.4937,91.2974
155.3410,91.1721
155.1667,91.0790
154.9777,91.0216
154.7811,91.0022
154.7811,91.0022
154.5845,91.0216
154.5558,91.0303
154.3954,91.0790
154.3954,91.0790
154.3954,91.0790
154.3089,91.1252
154.2212,91.1721
154.2212,91.1721
154.2212,91.1721
154.0685,91.2974
153.9432,91.4501
153.9432,91.4501
153.9432,91.4501
153.9112,91.5100
153.8501,91.6243
153.8501,91.6243
153.8501,91.6243
153.7927,91.8134
153.7733,92.0100
153.6302,92.0100
153.6302,90.9044
153.6302,90.9044
153.5953,90.8202
153.5309,90.7558
153.1309,90.3558
153.1309,90.3558
153.0713,90.3311
153.0467,90.3209
153.0467,90.3209
139.4302,90.3209
139.4055,90.3311
139.3706,90.3456
139.3460,90.3558
138.2069,91.4949
138.1822,91.5544
138.1822,91.5544
138.1720,91.5791
138.1720,96.1956
138.1822,96.2202
138.2069,96.2798
139.3526,97.4255
139.3672,97.4607
139.3672,97.9457
139.3526,97.9809
139.3174,97.9955
139.2905,97.9876
139.2008,97.9300
139.2008,97.9300
139.2008,97.9300
139.0683,97.8911
139.0683,97.8911
139.0215,97.8911
138.9863,97.8765
138.9717,97.8413
138.9723,97.8342
138.9863,97.7362
138.9863,97.7362
138.9798,97.6906
138.9667,97.5995
138.9093,97.4739
138.9093,97.4739
138.9093,97.4739
138.9093,97.4739
138.8189,97.3695
138.8189,97.3695
138.7027,97.2948
138.7027,97.2948
138.7027,97.2948
138.5702,97.2559
138.4320,97.2559
138.2995,97.2948
138.2995,97.2948
138.2995,97.2948
138.1833,97.3695
138.1833,97.3695
138.1010,97.4645
138.0669,97.4816
138.0634,97.4817
135.5133,97.4817
135.4781,97.4671
134.8574,96.8464
136.0148,96.8464
136.0148,96.8464
136.0344,96.9831
136.0344,96.9831
136.0918,97.1087
136.0918,97.1087
136.1822,97.2131
136.1822,97.2131
136.2984,97.2878
136.2984,97.2878
136.2984,97.2878
136.4309,97.3267
136.4309,97.3267
136.5691,97.3267
136.5691,97.3267
136.7016,97.2878
136.8178,97.2131
136.9082,97.1087
136.9656,96.9831
136.9852,96.8464
136.9656,96.7097
136.9082,96.5841
136.9082,96.5841
136.9082,96.5841
136.9082,96.5841
136.8178,96.4797
136.8178,96.4797
136.7016,96.4050
136.7016,96.4050
136.7016,96.4050
136.5691,96.3661
136.4309,96.3661
136.2984,96.4050
136.2984,96.4050
136.2984,96.4050
136.1822,96.4797
136.1822,96.4797
136.0918,96.5841
136.0918,96.5841
136.0344,96.7097
136.0344,96.7097
136.0148,96.8464
134.8574,96.8464
134.7302,96.7192
134.7156,96.6840
134.7156,95.5578
134.7302,95.5225
134.7509,95.5101
134.8467,95.4810
135.0210,95.3879
135.1737,95.2626
135.2990,95.1099
135.3921,94.9356
135.4495,94.7466
135.4689,94.5500
135.9933,94.5500
136.0127,94.7466
136.0701,94.9356
136.1632,95.1099
136.1632,95.1099
136.1632,95.1099
136.1953,95.1490
136.2885,95.2626
136.4412,95.3879
136.6154,95.4810
136.8045,95.5384
136.9518,95.5529
137.0011,95.5578
137.0011,95.5578
137.0011,95.5578
137.0459,95.5533
137.1977,95.5384
137.3868,95.4810
137.5610,95.3879
137.7137,95.2626
137.8390,95.1099
137.9321,94.9356
137.9895,94.7466
138.0089,94.5500
137.9895,94.3534
137.9321,94.1643
137.8390,93.9901
137.7137,93.8374
137.5610,93.7121
137.3868,93.6190
137.1977,93.5616
137.0011,93.5422
137.0011,93.5422
136.8045,93.5616
136.7222,93.5866
136.6154,93.6190
136.6154,93.6190
136.6154,93.6190
136.5289,93.6652
136.4412,93.7121
136.4412,93.7121
136.4412,93.7121
136.2885,93.8374
136.1632,93.9901
136.0701,94.1643
136.0701,94.1643
136.0701,94.1643
136.0127,94.3534
135.9933,94.5500
135.4689,94.5500
135.4495,94.3534
135.3921,94.1643
135.2990,93.9901
135.1737,93.8374
135.0210,93.7121
134.8467,93.6190
134.6577,93.5616
134.4611,93.5422
134.4611,93.5422
134.2645,93.5616
134.1822,93.5866
134.0754,93.6190
134.0754,93.6190
134.0754,93.6190
133.9889,93.6652
133.9012,93.7121
133.9012,93.7121
133.9012,93.7121
133.7485,93.8374
133.6439,93.9649
133.6103,93.9829
133.5738,93.9718
133.5558,93.9382
133.5556,93.9333
133.5556,93.2960
133.5702,93.2608
133.9285,92.9026
133.9637,92.8880
133.9872,92.8938
134.0754,92.9410
134.2645,92.9984
134.4126,93.0130
134.4611,93.0178
134.4611,93.0178
134.4611,93.0178
134.5059,93.0133
134.6577,92.9984
134.8467,92.9410
135.0210,92.8479
135.1737,92.7226
135.2990,92.5699
135.3921,92.3956
135.4495,92.2066
135.4689,92.0100
135.9933,92.0100
136.0127,92.2066
136.0701,92.3956
136.1632,92.5699
136.2885,92.7226
136.4412,92.8479
136.6154,92.9410
136.8045,92.9984
136.9526,93.0130
137.0011,93.0178
137.0011,93.0178
137.0011,93.0178
137.0459,93.0133
137.1977,92.9984
137.3868,92.9410
137.5610,92.8479
137.7137,92.7226
137.8390,92.5699
137.9321,92.3956
137.9895,92.2066
138.0089,92.0100
137.9895,91.8134
137.9321,91.6243
137.8390,91.4501
137.7137,91.2974
137.5610,91.1721
137.3868,91.0790
137.1977,91.0216
137.0011,91.0022
137.0011,91.0022
136.8045,91.0216
136.7758,91.0303
136.6154,91.0790
136.6154,91.0790
136.6154,91.0790
136.5289,91.1252
136.4412,91.1721
136.4412,91.1721
136.4412,91.1721
136.2885,91.2974
136.1632,91.4501
136.1632,91.4501
136.1632,91.4501
136.1312,91.5100
136.0701,91.6243
136.0701,91.6243
136.0701,91.6243
136.0127,91.8134
135.9933,92.0100
135.4689,92.0100
135.4495,91.8134
135.3921,91.6243
135.2990,91.4501
135.1737,91.2974
135.0210,91.1721
134.8467,91.0790
134.6577,91.0216
134.4611,91.0022
134.4611,91.0022
134.2645,91.0216
134.2358,91.0303
134.0754,91.0790
134.0754,91.0790
134.0754,91.0790
133.9889,91.1252
133.9012,91.1721
133.9012,91.1721
133.9012,91.1721
133.7485,91.2974
133.6232,91.4501
133.6232,91.4501
133.6232,91.4501
133.5912,91.5100
133.5301,91.6243
133.5301,91.6243
133.5301,91.6243
133.4727,91.8134
133.4533,92.0100
133.4727,92.2066
133.5301,92.3956
133.5301,92.3957
133.5301,92.3957
133.5773,92.4839
133.5810,92.5219
133.5685,92.5426
133.1569,92.9542
133.0853,93.0258
133.0466,93.1194
133.0466,94.1218
133.0320,94.1570
132.9968,94.1716
132.9616,94.1570
132.9522,94.1440
132.8638,93.9663
132.8638,93.9663
132.7405,93.8031
132.7405,93.8031
132.5893,93.6652
132.4153,93.5575
132.2245,93.4836
132.0735,93.4554
132.0735,94.0732
131.9869,94.0500
131.8553,94.0500
131.7687,94.0732
131.7687,93.4554
131.7687,93.4554
131.6177,93.4836
131.4269,93.5575
131.2529,93.6652
131.1017,93.8031
131.1017,93.8031
130.9784,93.9663
130.9784,93.9663
130.8872,94.1495
130.8312,94.3463
130.8312,94.3463
130.8265,94.3976
126.2011,94.3976
126.2011,92.0100
130.9133,92.0100
130.9327,92.2066
130.9901,92.3956
131.0832,92.5699
131.2085,92.7226
131.3612,92.8479
131.5354,92.9410
131.7245,92.9984
131.8726,93.0130
131.9211,93.0178
131.9211,93.0178
131.9211,93.0178
131.9659,93.0133
132.1177,92.9984
132.3067,92.9410
132.4810,92.8479
132.6337,92.7226
132.7590,92.5699
132.8521,92.3956
132.9095,92.2066
132.9289,92.0100
132.9095,91.8134
132.8521,91.6243
132.7590,91.4501
132.6337,91.2974
132.4810,91.1721
132.3067,91.0790
132.1177,91.0216
131.9211,91.0022
131.9211,91.0022
131.7245,91.0216
131.6958,91.0303
131.5354,91.0790
131.5354,91.0790
131.5354,91.0790
131.4489,91.1252
131.3612,91.1721
131.3612,91.1721
131.3612,91.1721
131.2085,91.2974
131.0832,91.4501
131.0832,91.4501
131.0832,91.4501
131.0512,91.5100
130.9901,91.6243
130.9901,91.6243
130.9901,91.6243
130.9327,91.8134
130.9133,92.0100
126.2011,92.0100
126.2011,90.0998
126.2157,90.0646
126.2509,90.0500
156.2502,90.0500
Z" /> 
</g> 
</svg>
