<?xml version="1.0" standalone="no"?>
 <!DOCTYPE svg PUBLIC "-//W3C//DTD SVG 1.1//EN" 
 "http://www.w3.org/Graphics/SVG/1.1/DTD/svg11.dtd"> 
<svg
  xmlns:svg="http://www.w3.org/2000/svg"
  xmlns="http://www.w3.org/2000/svg"
  xmlns:xlink="http://www.w3.org/1999/xlink"
  version="1.1"
  width="297.0022mm" height="210.0072mm" viewBox="0.0000 0.0000 297.0022 210.0072">
<title>SVG Image created as max2771_fx2lp-B_Mask.svg date 2024/06/12 18:04:56 </title>
  <desc>Image generated by PCBNEW </desc>
<g style="fill:#000000; fill-opacity:1.0000;stroke:#000000; stroke-opacity:1.0000;
stroke-linecap:round; stroke-linejoin:round;"
 transform="translate(0 0) scale(1 1)">
<path style="fill:#000000; fill-opacity:1.0000; stroke:none;fill-rule:evenodd;"
d="M 126.1520,96.8900
126.1559,96.8706
126.1669,96.8541
126.1834,96.8431
126.2028,96.8392
130.2028,96.8392
130.2223,96.8431
130.2388,96.8541
130.2498,96.8706
130.2536,96.8900
130.2536,97.8900
130.2498,97.9094
130.2388,97.9259
130.2223,97.9369
130.2028,97.9408
126.2028,97.9408
126.1834,97.9369
126.1669,97.9259
126.1559,97.9094
126.1520,97.8900
Z" /> 
<path style="fill:#000000; fill-opacity:1.0000; stroke:none;fill-rule:evenodd;"
d="M 126.1520,91.3900
126.1559,91.3706
126.1669,91.3541
126.1834,91.3431
126.2028,91.3392
130.2028,91.3392
130.2223,91.3431
130.2388,91.3541
130.2498,91.3706
130.2536,91.3900
130.2536,92.3900
130.2498,92.4094
130.2388,92.4259
130.2223,92.4369
130.2028,92.4408
126.2028,92.4408
126.1834,92.4369
126.1669,92.4259
126.1559,92.4094
126.1520,92.3900
Z" /> 
<path style="fill:#000000; fill-opacity:1.0000; stroke:none;fill-rule:evenodd;"
d="M 153.9111,121.7000
155.6111,121.7000
155.6111,123.4000
153.9111,123.4000
Z" /> 
</g>
<g style="fill:#000000; fill-opacity:1.0000; stroke:none;">
<circle cx="154.7611" cy="120.0100" r="0.8500" /> 
<circle cx="152.2211" cy="122.5500" r="0.8500" /> 
<circle cx="152.2211" cy="120.0100" r="0.8500" /> 
<circle cx="149.6811" cy="122.5500" r="0.8500" /> 
<circle cx="149.6811" cy="120.0100" r="0.8500" /> 
<circle cx="147.1411" cy="122.5500" r="0.8500" /> 
<circle cx="147.1411" cy="120.0100" r="0.8500" /> 
<circle cx="144.6011" cy="122.5500" r="0.8500" /> 
<circle cx="144.6011" cy="120.0100" r="0.8500" /> 
<circle cx="142.0611" cy="122.5500" r="0.8500" /> 
<circle cx="142.0611" cy="120.0100" r="0.8500" /> 
<circle cx="139.5211" cy="122.5500" r="0.8500" /> 
<circle cx="139.5211" cy="120.0100" r="0.8500" /> 
<circle cx="136.9811" cy="122.5500" r="0.8500" /> 
<circle cx="136.9811" cy="120.0100" r="0.8500" /> 
<circle cx="134.4411" cy="122.5500" r="0.8500" /> 
<circle cx="134.4411" cy="120.0100" r="0.8500" /> 
<circle cx="131.9011" cy="122.5500" r="0.8500" /> 
<circle cx="131.9011" cy="120.0100" r="0.8500" /> 
<path style="fill:#000000; fill-opacity:1.0000; stroke:none;fill-rule:evenodd;"
d="M 130.5511,107.3400
130.5511,109.0400
128.8511,109.0400
128.8511,107.3400
Z" /> 
<circle cx="129.7011" cy="105.6500" r="0.8500" /> 
<path style="fill:#000000; fill-opacity:1.0000; stroke:none;fill-rule:evenodd;"
d="M 156.2519,100.7500
156.2480,100.7694
156.2370,100.7859
156.2205,100.7969
156.2011,100.8008
152.2011,100.8008
152.1817,100.7969
152.1652,100.7859
152.1542,100.7694
152.1503,100.7500
152.1503,99.7500
152.1542,99.7306
152.1652,99.7141
152.1817,99.7031
152.2011,99.6992
156.2011,99.6992
156.2205,99.7031
156.2370,99.7141
156.2480,99.7306
156.2519,99.7500
Z" /> 
<path style="fill:#000000; fill-opacity:1.0000; stroke:none;fill-rule:evenodd;"
d="M 156.2519,106.2500
156.2480,106.2694
156.2370,106.2859
156.2205,106.2969
156.2011,106.3008
152.2011,106.3008
152.1817,106.2969
152.1652,106.2859
152.1542,106.2694
152.1503,106.2500
152.1503,105.2500
152.1542,105.2306
152.1652,105.2141
152.1817,105.2031
152.2011,105.1992
156.2011,105.1992
156.2205,105.2031
156.2370,105.2141
156.2480,105.2306
156.2519,105.2500
Z" /> 
<path style="fill:#000000; fill-opacity:1.0000; stroke:none;fill-rule:evenodd;"
d="M 153.9311,93.7000
155.6311,93.7000
155.6311,95.4000
153.9311,95.4000
Z" /> 
<circle cx="154.7811" cy="92.0100" r="0.8500" /> 
<circle cx="152.2411" cy="94.5500" r="0.8500" /> 
<circle cx="152.2411" cy="92.0100" r="0.8500" /> 
<circle cx="149.7011" cy="94.5500" r="0.8500" /> 
<circle cx="149.7011" cy="92.0100" r="0.8500" /> 
<circle cx="147.1611" cy="94.5500" r="0.8500" /> 
<circle cx="147.1611" cy="92.0100" r="0.8500" /> 
<circle cx="144.6211" cy="94.5500" r="0.8500" /> 
<circle cx="144.6211" cy="92.0100" r="0.8500" /> 
<circle cx="142.0811" cy="94.5500" r="0.8500" /> 
<circle cx="142.0811" cy="92.0100" r="0.8500" /> 
<circle cx="139.5411" cy="94.5500" r="0.8500" /> 
<circle cx="139.5411" cy="92.0100" r="0.8500" /> 
<circle cx="137.0011" cy="94.5500" r="0.8500" /> 
<circle cx="137.0011" cy="92.0100" r="0.8500" /> 
<circle cx="134.4611" cy="94.5500" r="0.8500" /> 
<circle cx="134.4611" cy="92.0100" r="0.8500" /> 
<circle cx="131.9211" cy="94.5500" r="0.8500" /> 
<circle cx="131.9211" cy="92.0100" r="0.8500" /> 
<path style="fill:#000000; fill-opacity:1.0000; stroke:none;fill-rule:evenodd;"
d="M 126.1503,122.3000
126.1542,122.2806
126.1652,122.2641
126.1817,122.2531
126.2011,122.2492
130.2011,122.2492
130.2205,122.2531
130.2370,122.2641
130.2480,122.2806
130.2519,122.3000
130.2519,123.3000
130.2480,123.3194
130.2370,123.3359
130.2205,123.3469
130.2011,123.3508
126.2011,123.3508
126.1817,123.3469
126.1652,123.3359
126.1542,123.3194
126.1503,123.3000
Z" /> 
<path style="fill:#000000; fill-opacity:1.0000; stroke:none;fill-rule:evenodd;"
d="M 126.1503,116.8000
126.1542,116.7806
126.1652,116.7641
126.1817,116.7531
126.2011,116.7492
130.2011,116.7492
130.2205,116.7531
130.2370,116.7641
130.2480,116.7806
130.2519,116.8000
130.2519,117.8000
130.2480,117.8194
130.2370,117.8359
130.2205,117.8469
130.2011,117.8508
126.2011,117.8508
126.1817,117.8469
126.1652,117.8359
126.1542,117.8194
126.1503,117.8000
Z" /> 
</g> 
</svg>
