<?xml version="1.0" standalone="no"?>
 <!DOCTYPE svg PUBLIC "-//W3C//DTD SVG 1.1//EN" 
 "http://www.w3.org/Graphics/SVG/1.1/DTD/svg11.dtd"> 
<svg
  xmlns:svg="http://www.w3.org/2000/svg"
  xmlns="http://www.w3.org/2000/svg"
  xmlns:xlink="http://www.w3.org/1999/xlink"
  version="1.1"
  width="297.0022mm" height="210.0072mm" viewBox="0.0000 0.0000 297.0022 210.0072">
<title>SVG Image created as max2771_fx2lp-F_Paste.svg date 2024/06/12 18:04:56 </title>
  <desc>Image generated by PCBNEW </desc>
<g style="fill:#000000; fill-opacity:1.0000;stroke:#000000; stroke-opacity:1.0000;
stroke-linecap:round; stroke-linejoin:round;"
 transform="translate(0 0) scale(1 1)">
<path style="fill:#000000; fill-opacity:1.0000; stroke:none;fill-rule:evenodd;"
d="M 147.0761,111.4500
147.0761,112.0500
146.6261,112.0500
146.6261,111.4500
Z" /> 
<path style="fill:#000000; fill-opacity:1.0000; stroke:none;fill-rule:evenodd;"
d="M 146.0761,111.4500
146.0761,112.0500
145.6261,112.0500
145.6261,111.4500
Z" /> 
<path style="fill:#000000; fill-opacity:1.0000; stroke:none;fill-rule:evenodd;"
d="M 137.6761,113.2500
137.6761,112.6500
138.1261,112.6500
138.1261,113.2500
Z" /> 
<path style="fill:#000000; fill-opacity:1.0000; stroke:none;fill-rule:evenodd;"
d="M 138.6761,113.2500
138.6761,112.6500
139.1261,112.6500
139.1261,113.2500
Z" /> 
<path style="fill:#000000; fill-opacity:1.0000; stroke:none;fill-rule:evenodd;"
d="M 135.9261,106.6000
135.9261,107.2000
135.4761,107.2000
135.4761,106.6000
Z" /> 
<path style="fill:#000000; fill-opacity:1.0000; stroke:none;fill-rule:evenodd;"
d="M 134.9261,106.6000
134.9261,107.2000
134.4761,107.2000
134.4761,106.6000
Z" /> 
<path style="fill:#000000; fill-opacity:1.0000; stroke:none;fill-rule:evenodd;"
d="M 145.8261,102.8500
145.8261,102.2500
146.2761,102.2500
146.2761,102.8500
Z" /> 
<path style="fill:#000000; fill-opacity:1.0000; stroke:none;fill-rule:evenodd;"
d="M 146.8261,102.8500
146.8261,102.2500
147.2761,102.2500
147.2761,102.8500
Z" /> 
<path style="fill:#000000; fill-opacity:1.0000; stroke:none;fill-rule:evenodd;"
d="M 144.0261,103.4000
144.0261,104.0000
143.5761,104.0000
143.5761,103.4000
Z" /> 
<path style="fill:#000000; fill-opacity:1.0000; stroke:none;fill-rule:evenodd;"
d="M 143.0261,103.4000
143.0261,104.0000
142.5761,104.0000
142.5761,103.4000
Z" /> 
<path style="fill:#000000; fill-opacity:1.0000; stroke:none;fill-rule:evenodd;"
d="M 140.4261,113.2500
140.4261,112.6500
140.8761,112.6500
140.8761,113.2500
Z" /> 
<path style="fill:#000000; fill-opacity:1.0000; stroke:none;fill-rule:evenodd;"
d="M 141.4261,113.2500
141.4261,112.6500
141.8761,112.6500
141.8761,113.2500
Z" /> 
<path style="fill:#000000; fill-opacity:1.0000; stroke:none;fill-rule:evenodd;"
d="M 142.5761,102.8500
142.5761,102.2500
143.0261,102.2500
143.0261,102.8500
Z" /> 
<path style="fill:#000000; fill-opacity:1.0000; stroke:none;fill-rule:evenodd;"
d="M 143.5761,102.8500
143.5761,102.2500
144.0261,102.2500
144.0261,102.8500
Z" /> 
<path style="fill:#000000; fill-opacity:1.0000; stroke:none;fill-rule:evenodd;"
d="M 137.1261,112.6500
137.1261,113.2500
136.6761,113.2500
136.6761,112.6500
Z" /> 
<path style="fill:#000000; fill-opacity:1.0000; stroke:none;fill-rule:evenodd;"
d="M 136.1261,112.6500
136.1261,113.2500
135.6761,113.2500
135.6761,112.6500
Z" /> 
<path style="fill:#000000; fill-opacity:1.0000; stroke:none;fill-rule:evenodd;"
d="M 142.4761,105.1500
142.4761,104.5500
142.9261,104.5500
142.9261,105.1500
Z" /> 
<path style="fill:#000000; fill-opacity:1.0000; stroke:none;fill-rule:evenodd;"
d="M 143.4761,105.1500
143.4761,104.5500
143.9261,104.5500
143.9261,105.1500
Z" /> 
<path style="fill:#000000; fill-opacity:1.0000; stroke:none;fill-rule:evenodd;"
d="M 144.4011,103.3250
145.0011,103.3250
145.0011,103.7750
144.4011,103.7750
Z" /> 
<path style="fill:#000000; fill-opacity:1.0000; stroke:none;fill-rule:evenodd;"
d="M 144.4011,104.3250
145.0011,104.3250
145.0011,104.7750
144.4011,104.7750
Z" /> 
<path style="fill:#000000; fill-opacity:1.0000; stroke:none;fill-rule:evenodd;"
d="M 147.5511,100.9500
147.5511,101.9500
146.6511,101.9500
146.6511,100.9500
Z" /> 
<path style="fill:#000000; fill-opacity:1.0000; stroke:none;fill-rule:evenodd;"
d="M 147.5511,98.5500
147.5511,99.5500
146.6511,99.5500
146.6511,98.5500
Z" /> 
<path style="fill:#000000; fill-opacity:1.0000; stroke:none;fill-rule:evenodd;"
d="M 145.7511,98.5500
145.7511,99.5500
144.8511,99.5500
144.8511,98.5500
Z" /> 
<path style="fill:#000000; fill-opacity:1.0000; stroke:none;fill-rule:evenodd;"
d="M 145.7511,100.9500
145.7511,101.9500
144.8511,101.9500
144.8511,100.9500
Z" /> 
<path style="fill:#000000; fill-opacity:1.0000; stroke:none;fill-rule:evenodd;"
d="M 144.2761,112.6500
144.2761,113.2500
143.8261,113.2500
143.8261,112.6500
Z" /> 
<path style="fill:#000000; fill-opacity:1.0000; stroke:none;fill-rule:evenodd;"
d="M 143.2761,112.6500
143.2761,113.2500
142.8261,113.2500
142.8261,112.6500
Z" /> 
<path style="fill:#000000; fill-opacity:1.0000; stroke:none;fill-rule:evenodd;"
d="M 134.7011,102.3250
134.1011,102.3250
134.1011,101.8750
134.7011,101.8750
Z" /> 
<path style="fill:#000000; fill-opacity:1.0000; stroke:none;fill-rule:evenodd;"
d="M 134.7011,101.3250
134.1011,101.3250
134.1011,100.8750
134.7011,100.8750
Z" /> 
<path style="fill:#000000; fill-opacity:1.0000; stroke:none;fill-rule:evenodd;"
d="M 129.1261,113.2500
129.1261,113.8500
128.6761,113.8500
128.6761,113.2500
Z" /> 
<path style="fill:#000000; fill-opacity:1.0000; stroke:none;fill-rule:evenodd;"
d="M 128.1261,113.2500
128.1261,113.8500
127.6761,113.8500
127.6761,113.2500
Z" /> 
<path style="fill:#000000; fill-opacity:1.0000; stroke:none;fill-rule:evenodd;"
d="M 141.9761,99.2000
141.9761,98.6000
142.4261,98.6000
142.4261,99.2000
Z" /> 
<path style="fill:#000000; fill-opacity:1.0000; stroke:none;fill-rule:evenodd;"
d="M 142.9761,99.2000
142.9761,98.6000
143.4261,98.6000
143.4261,99.2000
Z" /> 
<path style="fill:#000000; fill-opacity:1.0000; stroke:none;fill-rule:evenodd;"
d="M 141.9761,100.3500
141.9761,99.7500
142.4261,99.7500
142.4261,100.3500
Z" /> 
<path style="fill:#000000; fill-opacity:1.0000; stroke:none;fill-rule:evenodd;"
d="M 142.9761,100.3500
142.9761,99.7500
143.4261,99.7500
143.4261,100.3500
Z" /> 
<path style="fill:#000000; fill-opacity:1.0000; stroke:none;fill-rule:evenodd;"
d="M 127.8011,116.3500
127.8011,115.5500
128.6011,115.5500
128.6011,116.3500
Z" /> 
<path style="fill:#000000; fill-opacity:1.0000; stroke:none;fill-rule:evenodd;"
d="M 129.4011,116.3500
129.4011,115.5500
130.2011,115.5500
130.2011,116.3500
Z" /> 
<path style="fill:#000000; fill-opacity:1.0000; stroke:none;fill-rule:evenodd;"
d="M 141.2161,103.9200
141.2161,104.1800
140.2661,104.1800
140.2661,103.9200
Z" /> 
<path style="fill:#000000; fill-opacity:1.0000; stroke:none;fill-rule:evenodd;"
d="M 141.2161,103.4200
141.2161,103.6800
140.2661,103.6800
140.2661,103.4200
Z" /> 
<path style="fill:#000000; fill-opacity:1.0000; stroke:none;fill-rule:evenodd;"
d="M 141.2161,102.9200
141.2161,103.1800
140.2661,103.1800
140.2661,102.9200
Z" /> 
<path style="fill:#000000; fill-opacity:1.0000; stroke:none;fill-rule:evenodd;"
d="M 141.2161,102.4200
141.2161,102.6800
140.2661,102.6800
140.2661,102.4200
Z" /> 
<path style="fill:#000000; fill-opacity:1.0000; stroke:none;fill-rule:evenodd;"
d="M 141.2161,101.9200
141.2161,102.1800
140.2661,102.1800
140.2661,101.9200
Z" /> 
<path style="fill:#000000; fill-opacity:1.0000; stroke:none;fill-rule:evenodd;"
d="M 141.2161,101.4200
141.2161,101.6800
140.2661,101.6800
140.2661,101.4200
Z" /> 
<path style="fill:#000000; fill-opacity:1.0000; stroke:none;fill-rule:evenodd;"
d="M 141.2161,100.9200
141.2161,101.1800
140.2661,101.1800
140.2661,100.9200
Z" /> 
<path style="fill:#000000; fill-opacity:1.0000; stroke:none;fill-rule:evenodd;"
d="M 140.0311,100.6850
139.7711,100.6850
139.7711,99.7350
140.0311,99.7350
Z" /> 
<path style="fill:#000000; fill-opacity:1.0000; stroke:none;fill-rule:evenodd;"
d="M 139.5311,100.6850
139.2711,100.6850
139.2711,99.7350
139.5311,99.7350
Z" /> 
<path style="fill:#000000; fill-opacity:1.0000; stroke:none;fill-rule:evenodd;"
d="M 139.0311,100.6850
138.7711,100.6850
138.7711,99.7350
139.0311,99.7350
Z" /> 
<path style="fill:#000000; fill-opacity:1.0000; stroke:none;fill-rule:evenodd;"
d="M 138.5311,100.6850
138.2711,100.6850
138.2711,99.7350
138.5311,99.7350
Z" /> 
<path style="fill:#000000; fill-opacity:1.0000; stroke:none;fill-rule:evenodd;"
d="M 138.0311,100.6850
137.7711,100.6850
137.7711,99.7350
138.0311,99.7350
Z" /> 
<path style="fill:#000000; fill-opacity:1.0000; stroke:none;fill-rule:evenodd;"
d="M 137.5311,100.6850
137.2711,100.6850
137.2711,99.7350
137.5311,99.7350
Z" /> 
<path style="fill:#000000; fill-opacity:1.0000; stroke:none;fill-rule:evenodd;"
d="M 137.0311,100.6850
136.7711,100.6850
136.7711,99.7350
137.0311,99.7350
Z" /> 
<path style="fill:#000000; fill-opacity:1.0000; stroke:none;fill-rule:evenodd;"
d="M 136.5361,100.9200
136.5361,101.1800
135.5861,101.1800
135.5861,100.9200
Z" /> 
<path style="fill:#000000; fill-opacity:1.0000; stroke:none;fill-rule:evenodd;"
d="M 136.5361,101.4200
136.5361,101.6800
135.5861,101.6800
135.5861,101.4200
Z" /> 
<path style="fill:#000000; fill-opacity:1.0000; stroke:none;fill-rule:evenodd;"
d="M 136.5361,101.9200
136.5361,102.1800
135.5861,102.1800
135.5861,101.9200
Z" /> 
<path style="fill:#000000; fill-opacity:1.0000; stroke:none;fill-rule:evenodd;"
d="M 136.5361,102.4200
136.5361,102.6800
135.5861,102.6800
135.5861,102.4200
Z" /> 
<path style="fill:#000000; fill-opacity:1.0000; stroke:none;fill-rule:evenodd;"
d="M 136.5361,102.9200
136.5361,103.1800
135.5861,103.1800
135.5861,102.9200
Z" /> 
<path style="fill:#000000; fill-opacity:1.0000; stroke:none;fill-rule:evenodd;"
d="M 136.5361,103.4200
136.5361,103.6800
135.5861,103.6800
135.5861,103.4200
Z" /> 
<path style="fill:#000000; fill-opacity:1.0000; stroke:none;fill-rule:evenodd;"
d="M 136.5361,103.9200
136.5361,104.1800
135.5861,104.1800
135.5861,103.9200
Z" /> 
<path style="fill:#000000; fill-opacity:1.0000; stroke:none;fill-rule:evenodd;"
d="M 137.0311,105.3650
136.7711,105.3650
136.7711,104.4150
137.0311,104.4150
Z" /> 
<path style="fill:#000000; fill-opacity:1.0000; stroke:none;fill-rule:evenodd;"
d="M 137.5311,105.3650
137.2711,105.3650
137.2711,104.4150
137.5311,104.4150
Z" /> 
<path style="fill:#000000; fill-opacity:1.0000; stroke:none;fill-rule:evenodd;"
d="M 138.0311,105.3650
137.7711,105.3650
137.7711,104.4150
138.0311,104.4150
Z" /> 
<path style="fill:#000000; fill-opacity:1.0000; stroke:none;fill-rule:evenodd;"
d="M 138.5311,105.3650
138.2711,105.3650
138.2711,104.4150
138.5311,104.4150
Z" /> 
<path style="fill:#000000; fill-opacity:1.0000; stroke:none;fill-rule:evenodd;"
d="M 139.0311,105.3650
138.7711,105.3650
138.7711,104.4150
139.0311,104.4150
Z" /> 
<path style="fill:#000000; fill-opacity:1.0000; stroke:none;fill-rule:evenodd;"
d="M 139.5311,105.3650
139.2711,105.3650
139.2711,104.4150
139.5311,104.4150
Z" /> 
<path style="fill:#000000; fill-opacity:1.0000; stroke:none;fill-rule:evenodd;"
d="M 140.0311,105.3650
139.7711,105.3650
139.7711,104.4150
140.0311,104.4150
Z" /> 
<path style="fill:#000000; fill-opacity:1.0000; stroke:none;fill-rule:evenodd;"
d="M 139.9511,104.1000
138.5511,104.1000
138.5511,102.7000
139.9511,102.7000
Z" /> 
<path style="fill:#000000; fill-opacity:1.0000; stroke:none;fill-rule:evenodd;"
d="M 139.9511,102.4000
138.5511,102.4000
138.5511,101.0000
139.9511,101.0000
Z" /> 
<path style="fill:#000000; fill-opacity:1.0000; stroke:none;fill-rule:evenodd;"
d="M 136.8511,102.7000
138.2511,102.7000
138.2511,104.1000
136.8511,104.1000
Z" /> 
<path style="fill:#000000; fill-opacity:1.0000; stroke:none;fill-rule:evenodd;"
d="M 136.8511,101.0000
138.2511,101.0000
138.2511,102.4000
136.8511,102.4000
Z" /> 
<path style="fill:#000000; fill-opacity:1.0000; stroke:none;fill-rule:evenodd;"
d="M 144.2161,110.8200
144.2161,111.0800
143.2661,111.0800
143.2661,110.8200
Z" /> 
<path style="fill:#000000; fill-opacity:1.0000; stroke:none;fill-rule:evenodd;"
d="M 144.2161,110.3200
144.2161,110.5800
143.2661,110.5800
143.2661,110.3200
Z" /> 
<path style="fill:#000000; fill-opacity:1.0000; stroke:none;fill-rule:evenodd;"
d="M 144.2161,109.8200
144.2161,110.0800
143.2661,110.0800
143.2661,109.8200
Z" /> 
<path style="fill:#000000; fill-opacity:1.0000; stroke:none;fill-rule:evenodd;"
d="M 144.2161,109.3200
144.2161,109.5800
143.2661,109.5800
143.2661,109.3200
Z" /> 
<path style="fill:#000000; fill-opacity:1.0000; stroke:none;fill-rule:evenodd;"
d="M 144.2161,108.8200
144.2161,109.0800
143.2661,109.0800
143.2661,108.8200
Z" /> 
<path style="fill:#000000; fill-opacity:1.0000; stroke:none;fill-rule:evenodd;"
d="M 144.2161,108.3200
144.2161,108.5800
143.2661,108.5800
143.2661,108.3200
Z" /> 
<path style="fill:#000000; fill-opacity:1.0000; stroke:none;fill-rule:evenodd;"
d="M 144.2161,107.8200
144.2161,108.0800
143.2661,108.0800
143.2661,107.8200
Z" /> 
<path style="fill:#000000; fill-opacity:1.0000; stroke:none;fill-rule:evenodd;"
d="M 143.0311,107.5850
142.7711,107.5850
142.7711,106.6350
143.0311,106.6350
Z" /> 
<path style="fill:#000000; fill-opacity:1.0000; stroke:none;fill-rule:evenodd;"
d="M 142.5311,107.5850
142.2711,107.5850
142.2711,106.6350
142.5311,106.6350
Z" /> 
<path style="fill:#000000; fill-opacity:1.0000; stroke:none;fill-rule:evenodd;"
d="M 142.0311,107.5850
141.7711,107.5850
141.7711,106.6350
142.0311,106.6350
Z" /> 
<path style="fill:#000000; fill-opacity:1.0000; stroke:none;fill-rule:evenodd;"
d="M 141.5311,107.5850
141.2711,107.5850
141.2711,106.6350
141.5311,106.6350
Z" /> 
<path style="fill:#000000; fill-opacity:1.0000; stroke:none;fill-rule:evenodd;"
d="M 141.0311,107.5850
140.7711,107.5850
140.7711,106.6350
141.0311,106.6350
Z" /> 
<path style="fill:#000000; fill-opacity:1.0000; stroke:none;fill-rule:evenodd;"
d="M 140.5311,107.5850
140.2711,107.5850
140.2711,106.6350
140.5311,106.6350
Z" /> 
<path style="fill:#000000; fill-opacity:1.0000; stroke:none;fill-rule:evenodd;"
d="M 140.0311,107.5850
139.7711,107.5850
139.7711,106.6350
140.0311,106.6350
Z" /> 
<path style="fill:#000000; fill-opacity:1.0000; stroke:none;fill-rule:evenodd;"
d="M 139.5361,107.8200
139.5361,108.0800
138.5861,108.0800
138.5861,107.8200
Z" /> 
<path style="fill:#000000; fill-opacity:1.0000; stroke:none;fill-rule:evenodd;"
d="M 139.5361,108.3200
139.5361,108.5800
138.5861,108.5800
138.5861,108.3200
Z" /> 
<path style="fill:#000000; fill-opacity:1.0000; stroke:none;fill-rule:evenodd;"
d="M 139.5361,108.8200
139.5361,109.0800
138.5861,109.0800
138.5861,108.8200
Z" /> 
<path style="fill:#000000; fill-opacity:1.0000; stroke:none;fill-rule:evenodd;"
d="M 139.5361,109.3200
139.5361,109.5800
138.5861,109.5800
138.5861,109.3200
Z" /> 
<path style="fill:#000000; fill-opacity:1.0000; stroke:none;fill-rule:evenodd;"
d="M 139.5361,109.8200
139.5361,110.0800
138.5861,110.0800
138.5861,109.8200
Z" /> 
<path style="fill:#000000; fill-opacity:1.0000; stroke:none;fill-rule:evenodd;"
d="M 139.5361,110.3200
139.5361,110.5800
138.5861,110.5800
138.5861,110.3200
Z" /> 
<path style="fill:#000000; fill-opacity:1.0000; stroke:none;fill-rule:evenodd;"
d="M 139.5361,110.8200
139.5361,111.0800
138.5861,111.0800
138.5861,110.8200
Z" /> 
<path style="fill:#000000; fill-opacity:1.0000; stroke:none;fill-rule:evenodd;"
d="M 140.0311,112.2650
139.7711,112.2650
139.7711,111.3150
140.0311,111.3150
Z" /> 
<path style="fill:#000000; fill-opacity:1.0000; stroke:none;fill-rule:evenodd;"
d="M 140.5311,112.2650
140.2711,112.2650
140.2711,111.3150
140.5311,111.3150
Z" /> 
<path style="fill:#000000; fill-opacity:1.0000; stroke:none;fill-rule:evenodd;"
d="M 141.0311,112.2650
140.7711,112.2650
140.7711,111.3150
141.0311,111.3150
Z" /> 
<path style="fill:#000000; fill-opacity:1.0000; stroke:none;fill-rule:evenodd;"
d="M 141.5311,112.2650
141.2711,112.2650
141.2711,111.3150
141.5311,111.3150
Z" /> 
<path style="fill:#000000; fill-opacity:1.0000; stroke:none;fill-rule:evenodd;"
d="M 142.0311,112.2650
141.7711,112.2650
141.7711,111.3150
142.0311,111.3150
Z" /> 
<path style="fill:#000000; fill-opacity:1.0000; stroke:none;fill-rule:evenodd;"
d="M 142.5311,112.2650
142.2711,112.2650
142.2711,111.3150
142.5311,111.3150
Z" /> 
<path style="fill:#000000; fill-opacity:1.0000; stroke:none;fill-rule:evenodd;"
d="M 143.0311,112.2650
142.7711,112.2650
142.7711,111.3150
143.0311,111.3150
Z" /> 
<path style="fill:#000000; fill-opacity:1.0000; stroke:none;fill-rule:evenodd;"
d="M 142.9511,111.0000
141.5511,111.0000
141.5511,109.6000
142.9511,109.6000
Z" /> 
<path style="fill:#000000; fill-opacity:1.0000; stroke:none;fill-rule:evenodd;"
d="M 142.9511,109.3000
141.5511,109.3000
141.5511,107.9000
142.9511,107.9000
Z" /> 
<path style="fill:#000000; fill-opacity:1.0000; stroke:none;fill-rule:evenodd;"
d="M 139.8511,109.6000
141.2511,109.6000
141.2511,111.0000
139.8511,111.0000
Z" /> 
<path style="fill:#000000; fill-opacity:1.0000; stroke:none;fill-rule:evenodd;"
d="M 139.8511,107.9000
141.2511,107.9000
141.2511,109.3000
139.8511,109.3000
Z" /> 
<path style="fill:#000000; fill-opacity:1.0000; stroke:none;fill-rule:evenodd;"
d="M 133.0011,100.8750
133.6011,100.8750
133.6011,101.3250
133.0011,101.3250
Z" /> 
<path style="fill:#000000; fill-opacity:1.0000; stroke:none;fill-rule:evenodd;"
d="M 133.0011,101.8750
133.6011,101.8750
133.6011,102.3250
133.0011,102.3250
Z" /> 
<path style="fill:#000000; fill-opacity:1.0000; stroke:none;fill-rule:evenodd;"
d="M 145.6261,109.7500
145.6261,109.1500
146.0761,109.1500
146.0761,109.7500
Z" /> 
<path style="fill:#000000; fill-opacity:1.0000; stroke:none;fill-rule:evenodd;"
d="M 146.6261,109.7500
146.6261,109.1500
147.0761,109.1500
147.0761,109.7500
Z" /> 
<path style="fill:#000000; fill-opacity:1.0000; stroke:none;fill-rule:evenodd;"
d="M 145.0761,107.4500
145.0761,106.8500
145.5261,106.8500
145.5261,107.4500
Z" /> 
<path style="fill:#000000; fill-opacity:1.0000; stroke:none;fill-rule:evenodd;"
d="M 146.0761,107.4500
146.0761,106.8500
146.5261,106.8500
146.5261,107.4500
Z" /> 
<path style="fill:#000000; fill-opacity:1.0000; stroke:none;fill-rule:evenodd;"
d="M 135.8761,98.5500
135.8761,99.1500
135.4261,99.1500
135.4261,98.5500
Z" /> 
<path style="fill:#000000; fill-opacity:1.0000; stroke:none;fill-rule:evenodd;"
d="M 134.8761,98.5500
134.8761,99.1500
134.4261,99.1500
134.4261,98.5500
Z" /> 
<path style="fill:#000000; fill-opacity:1.0000; stroke:none;fill-rule:evenodd;"
d="M 127.5011,99.5500
127.5011,98.7500
128.3011,98.7500
128.3011,99.5500
Z" /> 
<path style="fill:#000000; fill-opacity:1.0000; stroke:none;fill-rule:evenodd;"
d="M 129.1011,99.5500
129.1011,98.7500
129.9011,98.7500
129.9011,99.5500
Z" /> 
<path style="fill:#000000; fill-opacity:1.0000; stroke:none;fill-rule:evenodd;"
d="M 134.7011,110.5000
134.7011,109.7000
135.5011,109.7000
135.5011,110.5000
Z" /> 
<path style="fill:#000000; fill-opacity:1.0000; stroke:none;fill-rule:evenodd;"
d="M 136.3011,110.5000
136.3011,109.7000
137.1011,109.7000
137.1011,110.5000
Z" /> 
<path style="fill:#000000; fill-opacity:1.0000; stroke:none;fill-rule:evenodd;"
d="M 129.1261,100.1500
129.1261,100.7500
128.6761,100.7500
128.6761,100.1500
Z" /> 
<path style="fill:#000000; fill-opacity:1.0000; stroke:none;fill-rule:evenodd;"
d="M 128.1261,100.1500
128.1261,100.7500
127.6761,100.7500
127.6761,100.1500
Z" /> 
<path style="fill:#000000; fill-opacity:1.0000; stroke:none;fill-rule:evenodd;"
d="M 131.9011,115.7750
131.3011,115.7750
131.3011,115.3250
131.9011,115.3250
Z" /> 
<path style="fill:#000000; fill-opacity:1.0000; stroke:none;fill-rule:evenodd;"
d="M 131.9011,114.7750
131.3011,114.7750
131.3011,114.3250
131.9011,114.3250
Z" /> 
<path style="fill:#000000; fill-opacity:1.0000; stroke:none;fill-rule:evenodd;"
d="M 144.8761,113.2500
144.8761,112.6500
145.3261,112.6500
145.3261,113.2500
Z" /> 
<path style="fill:#000000; fill-opacity:1.0000; stroke:none;fill-rule:evenodd;"
d="M 145.8761,113.2500
145.8761,112.6500
146.3261,112.6500
146.3261,113.2500
Z" /> 
<path style="fill:#000000; fill-opacity:1.0000; stroke:none;fill-rule:evenodd;"
d="M 129.1261,114.3500
129.1261,114.9500
128.6761,114.9500
128.6761,114.3500
Z" /> 
<path style="fill:#000000; fill-opacity:1.0000; stroke:none;fill-rule:evenodd;"
d="M 128.1261,114.3500
128.1261,114.9500
127.6761,114.9500
127.6761,114.3500
Z" /> 
<path style="fill:#000000; fill-opacity:1.0000; stroke:none;fill-rule:evenodd;"
d="M 133.0511,110.4250
133.6511,110.4250
133.6511,110.8750
133.0511,110.8750
Z" /> 
<path style="fill:#000000; fill-opacity:1.0000; stroke:none;fill-rule:evenodd;"
d="M 133.0511,111.4250
133.6511,111.4250
133.6511,111.8750
133.0511,111.8750
Z" /> 
<path style="fill:#000000; fill-opacity:1.0000; stroke:none;fill-rule:evenodd;"
d="M 147.2261,96.1500
147.2261,96.7500
146.7761,96.7500
146.7761,96.1500
Z" /> 
<path style="fill:#000000; fill-opacity:1.0000; stroke:none;fill-rule:evenodd;"
d="M 146.2261,96.1500
146.2261,96.7500
145.7761,96.7500
145.7761,96.1500
Z" /> 
<path style="fill:#000000; fill-opacity:1.0000; stroke:none;fill-rule:evenodd;"
d="M 147.0761,108.0000
147.0761,108.6000
146.6261,108.6000
146.6261,108.0000
Z" /> 
<path style="fill:#000000; fill-opacity:1.0000; stroke:none;fill-rule:evenodd;"
d="M 146.0761,108.0000
146.0761,108.6000
145.6261,108.6000
145.6261,108.0000
Z" /> 
<path style="fill:#000000; fill-opacity:1.0000; stroke:none;fill-rule:evenodd;"
d="M 144.0261,101.1000
144.0261,101.7000
143.5761,101.7000
143.5761,101.1000
Z" /> 
<path style="fill:#000000; fill-opacity:1.0000; stroke:none;fill-rule:evenodd;"
d="M 143.0261,101.1000
143.0261,101.7000
142.5761,101.7000
142.5761,101.1000
Z" /> 
<path style="fill:#000000; fill-opacity:1.0000; stroke:none;fill-rule:evenodd;"
d="M 151.3011,96.0500
152.1011,96.0500
152.1011,96.8500
151.3011,96.8500
Z" /> 
<path style="fill:#000000; fill-opacity:1.0000; stroke:none;fill-rule:evenodd;"
d="M 151.3011,97.6500
152.1011,97.6500
152.1011,98.4500
151.3011,98.4500
Z" /> 
<path style="fill:#000000; fill-opacity:1.0000; stroke:none;fill-rule:evenodd;"
d="M 137.4261,106.3500
137.4261,105.7500
137.8761,105.7500
137.8761,106.3500
Z" /> 
<path style="fill:#000000; fill-opacity:1.0000; stroke:none;fill-rule:evenodd;"
d="M 138.4261,106.3500
138.4261,105.7500
138.8761,105.7500
138.8761,106.3500
Z" /> 
<path style="fill:#000000; fill-opacity:1.0000; stroke:none;fill-rule:evenodd;"
d="M 128.1261,101.3500
128.1261,101.9500
127.6761,101.9500
127.6761,101.3500
Z" /> 
<path style="fill:#000000; fill-opacity:1.0000; stroke:none;fill-rule:evenodd;"
d="M 129.1261,101.3500
129.1261,101.9500
128.6761,101.9500
128.6761,101.3500
Z" /> 
<path style="fill:#000000; fill-opacity:1.0000; stroke:none;fill-rule:evenodd;"
d="M 145.0761,106.3000
145.0761,105.7000
145.5261,105.7000
145.5261,106.3000
Z" /> 
<path style="fill:#000000; fill-opacity:1.0000; stroke:none;fill-rule:evenodd;"
d="M 146.0761,106.3000
146.0761,105.7000
146.5261,105.7000
146.5261,106.3000
Z" /> 
<path style="fill:#000000; fill-opacity:1.0000; stroke:none;fill-rule:evenodd;"
d="M 131.2011,99.1250
131.8011,99.1250
131.8011,99.5750
131.2011,99.5750
Z" /> 
<path style="fill:#000000; fill-opacity:1.0000; stroke:none;fill-rule:evenodd;"
d="M 131.2011,100.1250
131.8011,100.1250
131.8011,100.5750
131.2011,100.5750
Z" /> 
<path style="fill:#000000; fill-opacity:1.0000; stroke:none;fill-rule:evenodd;"
d="M 136.6261,107.8500
136.6261,108.4500
136.1761,108.4500
136.1761,107.8500
Z" /> 
<path style="fill:#000000; fill-opacity:1.0000; stroke:none;fill-rule:evenodd;"
d="M 135.6261,107.8500
135.6261,108.4500
135.1761,108.4500
135.1761,107.8500
Z" /> 
<path style="fill:#000000; fill-opacity:1.0000; stroke:none;fill-rule:evenodd;"
d="M 153.0011,96.0500
153.8011,96.0500
153.8011,96.8500
153.0011,96.8500
Z" /> 
<path style="fill:#000000; fill-opacity:1.0000; stroke:none;fill-rule:evenodd;"
d="M 153.0011,97.6500
153.8011,97.6500
153.8011,98.4500
153.0011,98.4500
Z" /> 
<path style="fill:#000000; fill-opacity:1.0000; stroke:none;fill-rule:evenodd;"
d="M 147.3011,118.4750
146.7011,118.4750
146.7011,118.0250
147.3011,118.0250
Z" /> 
<path style="fill:#000000; fill-opacity:1.0000; stroke:none;fill-rule:evenodd;"
d="M 147.3011,117.4750
146.7011,117.4750
146.7011,117.0250
147.3011,117.0250
Z" /> 
<path style="fill:#000000; fill-opacity:1.0000; stroke:none;fill-rule:evenodd;"
d="M 135.9261,105.4500
135.9261,106.0500
135.4761,106.0500
135.4761,105.4500
Z" /> 
<path style="fill:#000000; fill-opacity:1.0000; stroke:none;fill-rule:evenodd;"
d="M 134.9261,105.4500
134.9261,106.0500
134.4761,106.0500
134.4761,105.4500
Z" /> 
<path style="fill:#000000; fill-opacity:1.0000; stroke:none;fill-rule:evenodd;"
d="M 134.5261,99.7000
134.5261,100.3000
134.0761,100.3000
134.0761,99.7000
Z" /> 
<path style="fill:#000000; fill-opacity:1.0000; stroke:none;fill-rule:evenodd;"
d="M 133.5261,99.7000
133.5261,100.3000
133.0761,100.3000
133.0761,99.7000
Z" /> 
<path style="fill:#000000; fill-opacity:1.0000; stroke:none;fill-rule:evenodd;"
d="M 132.8011,103.7000
132.8011,102.9000
133.6011,102.9000
133.6011,103.7000
Z" /> 
<path style="fill:#000000; fill-opacity:1.0000; stroke:none;fill-rule:evenodd;"
d="M 134.4011,103.7000
134.4011,102.9000
135.2011,102.9000
135.2011,103.7000
Z" /> 
<path style="fill:#000000; fill-opacity:1.0000; stroke:none;fill-rule:evenodd;"
d="M 147.0761,110.3000
147.0761,110.9000
146.6261,110.9000
146.6261,110.3000
Z" /> 
<path style="fill:#000000; fill-opacity:1.0000; stroke:none;fill-rule:evenodd;"
d="M 146.0761,110.3000
146.0761,110.9000
145.6261,110.9000
145.6261,110.3000
Z" /> 
</g> 
</svg>
