<?xml version="1.0" encoding="UTF-8" standalone="no"?>
<svg
   version="1.1"
   width="30.0989mm"
   height="33.691002mm"
   viewBox="0 0 30.0989 33.691002"
   id="svg3829"
   sodipodi:docname="max2771_fx2lp-In1_Cu.svg"
   inkscape:version="1.2.2 (b0a8486541, 2022-12-01)"
   xmlns:inkscape="http://www.inkscape.org/namespaces/inkscape"
   xmlns:sodipodi="http://sodipodi.sourceforge.net/DTD/sodipodi-0.dtd"
   xmlns="http://www.w3.org/2000/svg"
   xmlns:svg="http://www.w3.org/2000/svg">
  <defs
     id="defs3833" />
  <sodipodi:namedview
     id="namedview3831"
     pagecolor="#ffffff"
     bordercolor="#000000"
     borderopacity="0.25"
     inkscape:showpageshadow="2"
     inkscape:pageopacity="0.0"
     inkscape:pagecheckerboard="0"
     inkscape:deskcolor="#d1d1d1"
     inkscape:document-units="mm"
     showgrid="false"
     inkscape:zoom="0.29733107"
     inkscape:cx="-68.946713"
     inkscape:cy="57.175323"
     inkscape:window-width="1024"
     inkscape:window-height="723"
     inkscape:window-x="1675"
     inkscape:window-y="-5"
     inkscape:window-maximized="1"
     inkscape:current-layer="svg3829" />
  <title
     id="title3157">SVG Image created as max2771_fx2lp-In1_Cu.svg date 2024/06/15 08:23:39 </title>
  <desc
     id="desc3159">Image generated by PCBNEW </desc>
  <g
     style="fill:#000000;fill-opacity:1;stroke:#000000;stroke-linecap:round;stroke-linejoin:round;stroke-opacity:1"
     id="g3163"
     transform="translate(-126.2011,-90.3045)">
    <path
       style="fill:#7fc87f;fill-opacity:1;fill-rule:evenodd;stroke:none"
       d="m 130.5511,107.34 v 1.7 h -1.7 v -1.7 z"
       id="path3161" />
  </g>
  <g
     style="fill:#7fc87f;fill-opacity:1;stroke:none"
     id="g3169"
     transform="translate(-126.2011,-90.3045)">
    <circle
       cx="129.7011"
       cy="105.65"
       r="0.85000002"
       id="circle3165" />
    <circle
       cx="139.5011"
       cy="103.65"
       r="0.42899999"
       id="circle3167" />
  </g>
  <g
     style="fill:#7fc87f;fill-opacity:1;stroke:none"
     id="g3173"
     transform="translate(-126.2011,-90.3045)">
    <circle
       cx="139.5011"
       cy="102.55"
       r="0.42899999"
       id="circle3171" />
  </g>
  <g
     style="fill:#7fc87f;fill-opacity:1;stroke:none"
     id="g3177"
     transform="translate(-126.2011,-90.3045)">
    <circle
       cx="139.5011"
       cy="101.45"
       r="0.42899999"
       id="circle3175" />
  </g>
  <g
     style="fill:#7fc87f;fill-opacity:1;stroke:none"
     id="g3181"
     transform="translate(-126.2011,-90.3045)">
    <circle
       cx="138.40109"
       cy="103.65"
       r="0.42899999"
       id="circle3179" />
  </g>
  <g
     style="fill:#7fc87f;fill-opacity:1;stroke:none"
     id="g3185"
     transform="translate(-126.2011,-90.3045)">
    <circle
       cx="138.40109"
       cy="102.55"
       r="0.42899999"
       id="circle3183" />
  </g>
  <g
     style="fill:#7fc87f;fill-opacity:1;stroke:none"
     id="g3189"
     transform="translate(-126.2011,-90.3045)">
    <circle
       cx="138.40109"
       cy="101.45"
       r="0.42899999"
       id="circle3187" />
  </g>
  <g
     style="fill:#7fc87f;fill-opacity:1;stroke:none"
     id="g3193"
     transform="translate(-126.2011,-90.3045)">
    <circle
       cx="137.3011"
       cy="103.65"
       r="0.42899999"
       id="circle3191" />
  </g>
  <g
     style="fill:#7fc87f;fill-opacity:1;stroke:none"
     id="g3197"
     transform="translate(-126.2011,-90.3045)">
    <circle
       cx="137.3011"
       cy="102.55"
       r="0.42899999"
       id="circle3195" />
  </g>
  <g
     style="fill:#7fc87f;fill-opacity:1;stroke:none"
     id="g3201"
     transform="translate(-126.2011,-90.3045)">
    <circle
       cx="137.3011"
       cy="101.45"
       r="0.42899999"
       id="circle3199" />
  </g>
  <g
     style="fill:#7fc87f;fill-opacity:1;stroke:none"
     id="g3205"
     transform="translate(-126.2011,-90.3045)">
    <circle
       cx="142.5011"
       cy="110.55"
       r="0.42899999"
       id="circle3203" />
  </g>
  <g
     style="fill:#7fc87f;fill-opacity:1;stroke:none"
     id="g3209"
     transform="translate(-126.2011,-90.3045)">
    <circle
       cx="142.5011"
       cy="109.45"
       r="0.42899999"
       id="circle3207" />
  </g>
  <g
     style="fill:#7fc87f;fill-opacity:1;stroke:none"
     id="g3213"
     transform="translate(-126.2011,-90.3045)">
    <circle
       cx="142.5011"
       cy="108.35"
       r="0.42899999"
       id="circle3211" />
  </g>
  <g
     style="fill:#7fc87f;fill-opacity:1;stroke:none"
     id="g3217"
     transform="translate(-126.2011,-90.3045)">
    <circle
       cx="141.40109"
       cy="110.55"
       r="0.42899999"
       id="circle3215" />
  </g>
  <g
     style="fill:#7fc87f;fill-opacity:1;stroke:none"
     id="g3221"
     transform="translate(-126.2011,-90.3045)">
    <circle
       cx="141.40109"
       cy="109.45"
       r="0.42899999"
       id="circle3219" />
  </g>
  <g
     style="fill:#7fc87f;fill-opacity:1;stroke:none"
     id="g3225"
     transform="translate(-126.2011,-90.3045)">
    <circle
       cx="141.40109"
       cy="108.35"
       r="0.42899999"
       id="circle3223" />
  </g>
  <g
     style="fill:#7fc87f;fill-opacity:1;stroke:none"
     id="g3229"
     transform="translate(-126.2011,-90.3045)">
    <circle
       cx="140.3011"
       cy="110.55"
       r="0.42899999"
       id="circle3227" />
  </g>
  <g
     style="fill:#7fc87f;fill-opacity:1;stroke:none"
     id="g3233"
     transform="translate(-126.2011,-90.3045)">
    <circle
       cx="140.3011"
       cy="109.45"
       r="0.42899999"
       id="circle3231" />
  </g>
  <g
     style="fill:#7fc87f;fill-opacity:1;stroke:none"
     id="g3239"
     transform="translate(-126.2011,-90.3045)">
    <circle
       cx="140.3011"
       cy="108.35"
       r="0.42899999"
       id="circle3235" />
    <path
       style="fill:#7fc87f;fill-opacity:1;fill-rule:evenodd;stroke:none"
       d="m 153.4011,107.04 v -1.7 h 1.7 v 1.7 z"
       id="path3237" />
  </g>
  <g
     style="fill:#7fc87f;fill-opacity:1;stroke:none"
     id="g3329"
     transform="translate(-126.2011,-90.3045)">
    <circle
       cx="154.2511"
       cy="108.73"
       r="0.85000002"
       id="circle3241" />
    <circle
       cx="154.2511"
       cy="111.27"
       r="0.85000002"
       id="circle3243" />
    <circle
       cx="154.2511"
       cy="113.81"
       r="0.85000002"
       id="circle3245" />
    <circle
       cx="154.2511"
       cy="116.35"
       r="0.85000002"
       id="circle3247" />
    <path
       style="fill:#7fc87f;fill-opacity:1;fill-rule:evenodd;stroke:none"
       d="m 155.5911,120.85 h -1.7 v -1.7 h 1.7 z"
       id="path3249" />
    <circle
       cx="154.7411"
       cy="122.54"
       r="0.85000002"
       id="circle3251" />
    <circle
       cx="152.2011"
       cy="120"
       r="0.85000002"
       id="circle3253" />
    <circle
       cx="152.2011"
       cy="122.54"
       r="0.85000002"
       id="circle3255" />
    <circle
       cx="149.6611"
       cy="120"
       r="0.85000002"
       id="circle3257" />
    <circle
       cx="149.6611"
       cy="122.54"
       r="0.85000002"
       id="circle3259" />
    <circle
       cx="147.12109"
       cy="120"
       r="0.85000002"
       id="circle3261" />
    <circle
       cx="147.12109"
       cy="122.54"
       r="0.85000002"
       id="circle3263" />
    <circle
       cx="144.5811"
       cy="120"
       r="0.85000002"
       id="circle3265" />
    <circle
       cx="144.5811"
       cy="122.54"
       r="0.85000002"
       id="circle3267" />
    <circle
       cx="142.04111"
       cy="120"
       r="0.85000002"
       id="circle3269" />
    <circle
       cx="142.04111"
       cy="122.54"
       r="0.85000002"
       id="circle3271" />
    <circle
       cx="139.5011"
       cy="120"
       r="0.85000002"
       id="circle3273" />
    <circle
       cx="139.5011"
       cy="122.54"
       r="0.85000002"
       id="circle3275" />
    <circle
       cx="136.96111"
       cy="120"
       r="0.85000002"
       id="circle3277" />
    <circle
       cx="136.96111"
       cy="122.54"
       r="0.85000002"
       id="circle3279" />
    <circle
       cx="134.4211"
       cy="120"
       r="0.85000002"
       id="circle3281" />
    <circle
       cx="134.4211"
       cy="122.54"
       r="0.85000002"
       id="circle3283" />
    <circle
       cx="131.8811"
       cy="120"
       r="0.85000002"
       id="circle3285" />
    <circle
       cx="131.8811"
       cy="122.54"
       r="0.85000002"
       id="circle3287" />
    <path
       style="fill:#7fc87f;fill-opacity:1;fill-rule:evenodd;stroke:none"
       d="m 155.6511,92.9 h -1.7 v -1.7 h 1.7 z"
       id="path3289" />
    <circle
       cx="154.8011"
       cy="94.589996"
       r="0.85000002"
       id="circle3291" />
    <circle
       cx="152.26109"
       cy="92.050003"
       r="0.85000002"
       id="circle3293" />
    <circle
       cx="152.26109"
       cy="94.589996"
       r="0.85000002"
       id="circle3295" />
    <circle
       cx="149.7211"
       cy="92.050003"
       r="0.85000002"
       id="circle3297" />
    <circle
       cx="149.7211"
       cy="94.589996"
       r="0.85000002"
       id="circle3299" />
    <circle
       cx="147.18111"
       cy="92.050003"
       r="0.85000002"
       id="circle3301" />
    <circle
       cx="147.18111"
       cy="94.589996"
       r="0.85000002"
       id="circle3303" />
    <circle
       cx="144.6411"
       cy="92.050003"
       r="0.85000002"
       id="circle3305" />
    <circle
       cx="144.6411"
       cy="94.589996"
       r="0.85000002"
       id="circle3307" />
    <circle
       cx="142.1011"
       cy="92.050003"
       r="0.85000002"
       id="circle3309" />
    <circle
       cx="142.1011"
       cy="94.589996"
       r="0.85000002"
       id="circle3311" />
    <circle
       cx="139.5611"
       cy="92.050003"
       r="0.85000002"
       id="circle3313" />
    <circle
       cx="139.5611"
       cy="94.589996"
       r="0.85000002"
       id="circle3315" />
    <circle
       cx="137.0211"
       cy="92.050003"
       r="0.85000002"
       id="circle3317" />
    <circle
       cx="137.0211"
       cy="94.589996"
       r="0.85000002"
       id="circle3319" />
    <circle
       cx="134.48109"
       cy="92.050003"
       r="0.85000002"
       id="circle3321" />
    <circle
       cx="134.48109"
       cy="94.589996"
       r="0.85000002"
       id="circle3323" />
    <circle
       cx="131.9411"
       cy="92.050003"
       r="0.85000002"
       id="circle3325" />
    <circle
       cx="131.9411"
       cy="94.589996"
       r="0.85000002"
       id="circle3327" />
  </g>
  <g
     style="fill:#ececec;fill-opacity:1;stroke:none"
     id="g3333"
     transform="translate(-126.2011,-90.3045)">
    <circle
       cx="133.7011"
       cy="107.65"
       r="0.3274"
       id="circle3331" />
  </g>
  <g
     style="fill:#ececec;fill-opacity:1;stroke:none"
     id="g3337"
     transform="translate(-126.2011,-90.3045)">
    <circle
       cx="134.5011"
       cy="109"
       r="0.3274"
       id="circle3335" />
  </g>
  <g
     style="fill:#ececec;fill-opacity:1;stroke:none"
     id="g3341"
     transform="translate(-126.2011,-90.3045)">
    <circle
       cx="133.6011"
       cy="104.25"
       r="0.3274"
       id="circle3339" />
  </g>
  <g
     style="fill:#ececec;fill-opacity:1;stroke:none"
     id="g3345"
     transform="translate(-126.2011,-90.3045)">
    <circle
       cx="132.3011"
       cy="100.85"
       r="0.3274"
       id="circle3343" />
  </g>
  <g
     style="fill:#ececec;fill-opacity:1;stroke:none"
     id="g3349"
     transform="translate(-126.2011,-90.3045)">
    <circle
       cx="130.8011"
       cy="117.85"
       r="0.3274"
       id="circle3347" />
  </g>
  <g
     style="fill:#ececec;fill-opacity:1;stroke:none"
     id="g3353"
     transform="translate(-126.2011,-90.3045)">
    <circle
       cx="134.90109"
       cy="115.4"
       r="0.3274"
       id="circle3351" />
  </g>
  <g
     style="fill:#ececec;fill-opacity:1;stroke:none"
     id="g3357"
     transform="translate(-126.2011,-90.3045)">
    <circle
       cx="136.15109"
       cy="109.05"
       r="0.3274"
       id="circle3355" />
  </g>
  <g
     style="fill:#ececec;fill-opacity:1;stroke:none"
     id="g3361"
     transform="translate(-126.2011,-90.3045)">
    <circle
       cx="132.3407"
       cy="117.0673"
       r="0.3274"
       id="circle3359" />
  </g>
  <g
     style="fill:#ececec;fill-opacity:1;stroke:none"
     id="g3365"
     transform="translate(-126.2011,-90.3045)">
    <circle
       cx="139.90109"
       cy="114.05"
       r="0.3274"
       id="circle3363" />
  </g>
  <g
     style="fill:#ececec;fill-opacity:1;stroke:none"
     id="g3369"
     transform="translate(-126.2011,-90.3045)">
    <circle
       cx="132.40109"
       cy="109.95"
       r="0.3274"
       id="circle3367" />
  </g>
  <g
     style="fill:#ececec;fill-opacity:1;stroke:none"
     id="g3373"
     transform="translate(-126.2011,-90.3045)">
    <circle
       cx="143.8511"
       cy="98.900002"
       r="0.3274"
       id="circle3371" />
  </g>
  <g
     style="fill:#ececec;fill-opacity:1;stroke:none"
     id="g3377"
     transform="translate(-126.2011,-90.3045)">
    <circle
       cx="132.3727"
       cy="117.9634"
       r="0.3274"
       id="circle3375" />
  </g>
  <g
     style="fill:#ececec;fill-opacity:1;stroke:none"
     id="g3381"
     transform="translate(-126.2011,-90.3045)">
    <circle
       cx="134.5011"
       cy="108.15"
       r="0.3274"
       id="circle3379" />
  </g>
  <g
     style="fill:#ececec;fill-opacity:1;stroke:none"
     id="g3385"
     transform="translate(-126.2011,-90.3045)">
    <circle
       cx="130.7011"
       cy="100.85"
       r="0.3274"
       id="circle3383" />
  </g>
  <g
     style="fill:#ececec;fill-opacity:1;stroke:none"
     id="g3389"
     transform="translate(-126.2011,-90.3045)">
    <circle
       cx="150.40109"
       cy="107.15"
       r="0.3274"
       id="circle3387" />
  </g>
  <g
     style="fill:#ececec;fill-opacity:1;stroke:none"
     id="g3393"
     transform="translate(-126.2011,-90.3045)">
    <circle
       cx="133.5011"
       cy="115.85"
       r="0.3274"
       id="circle3391" />
  </g>
  <g
     style="fill:#ececec;fill-opacity:1;stroke:none"
     id="g3397"
     transform="translate(-126.2011,-90.3045)">
    <circle
       cx="141.2011"
       cy="98.349998"
       r="0.3274"
       id="circle3395" />
  </g>
  <g
     style="fill:#ececec;fill-opacity:1;stroke:none"
     id="g3401"
     transform="translate(-126.2011,-90.3045)">
    <circle
       cx="136.40331"
       cy="107.2502"
       r="0.3274"
       id="circle3399" />
  </g>
  <g
     style="fill:#ececec;fill-opacity:1;stroke:none"
     id="g3405"
     transform="translate(-126.2011,-90.3045)">
    <circle
       cx="130.90109"
       cy="113.95"
       r="0.3274"
       id="circle3403" />
  </g>
  <g
     style="fill:#ececec;fill-opacity:1;stroke:none"
     id="g3409"
     transform="translate(-126.2011,-90.3045)">
    <circle
       cx="148.5649"
       cy="114.1"
       r="0.3274"
       id="circle3407" />
  </g>
  <g
     style="fill:#ececec;fill-opacity:1;stroke:none"
     id="g3413"
     transform="translate(-126.2011,-90.3045)">
    <circle
       cx="133.4511"
       cy="97.699997"
       r="0.3274"
       id="circle3411" />
  </g>
  <g
     style="fill:#ececec;fill-opacity:1;stroke:none"
     id="g3417"
     transform="translate(-126.2011,-90.3045)">
    <circle
       cx="127.7011"
       cy="118.65"
       r="0.3274"
       id="circle3415" />
  </g>
  <g
     style="fill:#ececec;fill-opacity:1;stroke:none"
     id="g3421"
     transform="translate(-126.2011,-90.3045)">
    <circle
       cx="130.90109"
       cy="113.05"
       r="0.3274"
       id="circle3419" />
  </g>
  <g
     style="fill:#ececec;fill-opacity:1;stroke:none"
     id="g3425"
     transform="translate(-126.2011,-90.3045)">
    <circle
       cx="135.2511"
       cy="112.95"
       r="0.3274"
       id="circle3423" />
  </g>
  <g
     style="fill:#ececec;fill-opacity:1;stroke:none"
     id="g3429"
     transform="translate(-126.2011,-90.3045)">
    <circle
       cx="131.7011"
       cy="110.45"
       r="0.3274"
       id="circle3427" />
  </g>
  <g
     style="fill:#ececec;fill-opacity:1;stroke:none"
     id="g3433"
     transform="translate(-126.2011,-90.3045)">
    <circle
       cx="130.7213"
       cy="96.75"
       r="0.3274"
       id="circle3431" />
  </g>
  <g
     style="fill:#ececec;fill-opacity:1;stroke:none"
     id="g3437"
     transform="translate(-126.2011,-90.3045)">
    <circle
       cx="132.3011"
       cy="98.349998"
       r="0.3274"
       id="circle3435" />
  </g>
  <g
     style="fill:#ececec;fill-opacity:1;stroke:none"
     id="g3441"
     transform="translate(-126.2011,-90.3045)">
    <circle
       cx="130.7011"
       cy="101.85"
       r="0.3274"
       id="circle3439" />
  </g>
  <g
     style="fill:#ececec;fill-opacity:1;stroke:none"
     id="g3445"
     transform="translate(-126.2011,-90.3045)">
    <circle
       cx="148.5649"
       cy="110.55"
       r="0.3274"
       id="circle3443" />
  </g>
  <g
     style="fill:#ececec;fill-opacity:1;stroke:none"
     id="g3449"
     transform="translate(-126.2011,-90.3045)">
    <circle
       cx="130.7011"
       cy="98.349998"
       r="0.3274"
       id="circle3447" />
  </g>
  <g
     style="fill:#ececec;fill-opacity:1;stroke:none"
     id="g3453"
     transform="translate(-126.2011,-90.3045)">
    <circle
       cx="148.4511"
       cy="104.45"
       r="0.3274"
       id="circle3451" />
  </g>
  <g
     style="fill:#ececec;fill-opacity:1;stroke:none"
     id="g3457"
     transform="translate(-126.2011,-90.3045)">
    <circle
       cx="146.2011"
       cy="113.85"
       r="0.3274"
       id="circle3455" />
  </g>
  <g
     style="fill:#ececec;fill-opacity:1;stroke:none"
     id="g3461"
     transform="translate(-126.2011,-90.3045)">
    <circle
       cx="148.5649"
       cy="113.182"
       r="0.3274"
       id="circle3459" />
  </g>
  <g
     style="fill:#ececec;fill-opacity:1;stroke:none"
     id="g3465"
     transform="translate(-126.2011,-90.3045)">
    <circle
       cx="146.7011"
       cy="97.800003"
       r="0.3274"
       id="circle3463" />
  </g>
  <g
     style="fill:#ececec;fill-opacity:1;stroke:none"
     id="g3469"
     transform="translate(-126.2011,-90.3045)">
    <circle
       cx="133.6011"
       cy="105.05"
       r="0.3274"
       id="circle3467" />
  </g>
  <g
     style="fill:#ececec;fill-opacity:1;stroke:none"
     id="g3473"
     transform="translate(-126.2011,-90.3045)">
    <circle
       cx="133.7011"
       cy="106.75"
       r="0.3274"
       id="circle3471" />
  </g>
  <g
     style="fill:#ececec;fill-opacity:1;stroke:none"
     id="g3477"
     transform="translate(-126.2011,-90.3045)">
    <circle
       cx="146.2011"
       cy="112.85"
       r="0.3274"
       id="circle3475" />
  </g>
  <g
     style="fill:#ececec;fill-opacity:1;stroke:none"
     id="g3481"
     transform="translate(-126.2011,-90.3045)">
    <circle
       cx="133.3511"
       cy="112.75"
       r="0.3274"
       id="circle3479" />
  </g>
  <g
     style="fill:#ececec;fill-opacity:1;stroke:none"
     id="g3485"
     transform="translate(-126.2011,-90.3045)">
    <circle
       cx="131.8011"
       cy="104.25"
       r="0.3274"
       id="circle3483" />
  </g>
  <g
     style="fill:#ececec;fill-opacity:1;stroke:none"
     id="g3489"
     transform="translate(-126.2011,-90.3045)">
    <circle
       cx="145.6011"
       cy="104.45"
       r="0.3274"
       id="circle3487" />
  </g>
  <g
     style="fill:#ececec;fill-opacity:1;stroke:none"
     id="g3493"
     transform="translate(-126.2011,-90.3045)">
    <circle
       cx="133.8011"
       cy="109.25"
       r="0.3274"
       id="circle3491" />
  </g>
  <g
     style="fill:#ececec;fill-opacity:1;stroke:none"
     id="g3497"
     transform="translate(-126.2011,-90.3045)">
    <circle
       cx="145.7511"
       cy="97.800003"
       r="0.3274"
       id="circle3495" />
  </g>
  <g
     style="fill:#ececec;fill-opacity:1;stroke:none"
     id="g3501"
     transform="translate(-126.2011,-90.3045)">
    <circle
       cx="147.2011"
       cy="104.45"
       r="0.3274"
       id="circle3499" />
  </g>
  <g
     style="fill:#ececec;fill-opacity:1;stroke:none"
     id="g3505"
     transform="translate(-126.2011,-90.3045)">
    <circle
       cx="130.7011"
       cy="97.550003"
       r="0.3274"
       id="circle3503" />
  </g>
  <g
     style="fill:#ececec;fill-opacity:1;stroke:none"
     id="g3509"
     transform="translate(-126.2011,-90.3045)">
    <circle
       cx="132.3011"
       cy="97.550003"
       r="0.3274"
       id="circle3507" />
  </g>
  <g
     style="fill:#ececec;fill-opacity:1;stroke:none"
     id="g3513"
     transform="translate(-126.2011,-90.3045)">
    <circle
       cx="132.3161"
       cy="112.0544"
       r="0.3274"
       id="circle3511" />
  </g>
  <g
     style="fill:#ececec;fill-opacity:1;stroke:none"
     id="g3517"
     transform="translate(-126.2011,-90.3045)">
    <circle
       cx="136.44099"
       cy="106.2313"
       r="0.3274"
       id="circle3515" />
  </g>
  <g
     style="fill:#ececec;fill-opacity:1;stroke:none"
     id="g3521"
     transform="translate(-126.2011,-90.3045)">
    <circle
       cx="143.3011"
       cy="97.800003"
       r="0.3274"
       id="circle3519" />
  </g>
  <g
     style="fill:#ececec;fill-opacity:1;stroke:none"
     id="g3525"
     transform="translate(-126.2011,-90.3045)">
    <circle
       cx="135.7511"
       cy="114.1"
       r="0.3274"
       id="circle3523" />
  </g>
  <g
     style="fill:#ececec;fill-opacity:1;stroke:none"
     id="g3529"
     transform="translate(-126.2011,-90.3045)">
    <circle
       cx="130.8011"
       cy="117.05"
       r="0.3274"
       id="circle3527" />
  </g>
  <g
     style="fill:#ececec;fill-opacity:1;stroke:none"
     id="g3533"
     transform="translate(-126.2011,-90.3045)">
    <circle
       cx="133.7011"
       cy="105.95"
       r="0.3274"
       id="circle3531" />
  </g>
  <g
     style="fill:#ececec;fill-opacity:1;stroke:none"
     id="g3537"
     transform="translate(-126.2011,-90.3045)">
    <circle
       cx="135.3511"
       cy="109.05"
       r="0.3274"
       id="circle3535" />
  </g>
  <g
     style="fill:#ececec;fill-opacity:1;stroke:none"
     id="g3541"
     transform="translate(-126.2011,-90.3045)">
    <circle
       cx="134.0011"
       cy="114.1"
       r="0.3274"
       id="circle3539" />
  </g>
  <g
     style="fill:#ececec;fill-opacity:1;stroke:none"
     id="g3545"
     transform="translate(-126.2011,-90.3045)">
    <circle
       cx="132.3011"
       cy="99.150002"
       r="0.3274"
       id="circle3543" />
  </g>
  <g
     style="fill:#ececec;fill-opacity:1;stroke:none"
     id="g3549"
     transform="translate(-126.2011,-90.3045)">
    <circle
       cx="134.3011"
       cy="111.35"
       r="0.3274"
       id="circle3547" />
  </g>
  <g
     style="fill:#ececec;fill-opacity:1;stroke:none"
     id="g3553"
     transform="translate(-126.2011,-90.3045)">
    <circle
       cx="148.4511"
       cy="98.900002"
       r="0.3274"
       id="circle3551" />
  </g>
  <g
     style="fill:#ececec;fill-opacity:1;stroke:none"
     id="g3557"
     transform="translate(-126.2011,-90.3045)">
    <circle
       cx="144.1011"
       cy="97.800003"
       r="0.3274"
       id="circle3555" />
  </g>
  <g
     style="fill:#ececec;fill-opacity:1;stroke:none"
     id="g3561"
     transform="translate(-126.2011,-90.3045)">
    <circle
       cx="148.4511"
       cy="99.949997"
       r="0.3274"
       id="circle3559" />
  </g>
  <g
     style="fill:#ececec;fill-opacity:1;stroke:none"
     id="g3565"
     transform="translate(-126.2011,-90.3045)">
    <circle
       cx="135.1011"
       cy="111.35"
       r="0.3274"
       id="circle3563" />
  </g>
  <g
     style="fill:#ececec;fill-opacity:1;stroke:none"
     id="g3569"
     transform="translate(-126.2011,-90.3045)">
    <circle
       cx="144.90109"
       cy="97.800003"
       r="0.3274"
       id="circle3567" />
  </g>
  <g
     style="fill:#ececec;fill-opacity:1;stroke:none"
     id="g3573"
     transform="translate(-126.2011,-90.3045)">
    <circle
       cx="131.1011"
       cy="111.25"
       r="0.3274"
       id="circle3571" />
  </g>
  <g
     style="fill:#ececec;fill-opacity:1;stroke:none"
     id="g3577"
     transform="translate(-126.2011,-90.3045)">
    <circle
       cx="135.90109"
       cy="111.35"
       r="0.3274"
       id="circle3575" />
  </g>
  <g
     style="fill:#ececec;fill-opacity:1;stroke:none"
     id="g3581"
     transform="translate(-126.2011,-90.3045)">
    <circle
       cx="148.5649"
       cy="112.25"
       r="0.3274"
       id="circle3579" />
  </g>
  <g
     style="fill:#ececec;fill-opacity:1;stroke:none"
     id="g3585"
     transform="translate(-126.2011,-90.3045)">
    <circle
       cx="130.7011"
       cy="99.949997"
       r="0.3274"
       id="circle3583" />
  </g>
  <g
     style="fill:#ececec;fill-opacity:1;stroke:none"
     id="g3589"
     transform="translate(-126.2011,-90.3045)">
    <circle
       cx="130.7011"
       cy="103.55"
       r="0.3274"
       id="circle3587" />
  </g>
  <g
     style="fill:#ececec;fill-opacity:1;stroke:none"
     id="g3593"
     transform="translate(-126.2011,-90.3045)">
    <circle
       cx="144.5632"
       cy="102.3338"
       r="0.3274"
       id="circle3591" />
  </g>
  <g
     style="fill:#ececec;fill-opacity:1;stroke:none"
     id="g3597"
     transform="translate(-126.2011,-90.3045)">
    <circle
       cx="148.4511"
       cy="97.800003"
       r="0.3274"
       id="circle3595" />
  </g>
  <g
     style="fill:#ececec;fill-opacity:1;stroke:none"
     id="g3601"
     transform="translate(-126.2011,-90.3045)">
    <circle
       cx="132.7011"
       cy="104.25"
       r="0.3274"
       id="circle3599" />
  </g>
  <g
     style="fill:#ececec;fill-opacity:1;stroke:none"
     id="g3605"
     transform="translate(-126.2011,-90.3045)">
    <circle
       cx="148.4511"
       cy="105.5"
       r="0.3274"
       id="circle3603" />
  </g>
  <g
     style="fill:#ececec;fill-opacity:1;stroke:none"
     id="g3609"
     transform="translate(-126.2011,-90.3045)">
    <circle
       cx="134.90109"
       cy="114.1"
       r="0.3274"
       id="circle3607" />
  </g>
  <g
     style="fill:#ececec;fill-opacity:1;stroke:none"
     id="g3613"
     transform="translate(-126.2011,-90.3045)">
    <circle
       cx="133.1011"
       cy="109.55"
       r="0.3274"
       id="circle3611" />
  </g>
  <g
     style="fill:#ececec;fill-opacity:1;stroke:none"
     id="g3617"
     transform="translate(-126.2011,-90.3045)">
    <circle
       cx="133.0511"
       cy="114.1"
       r="0.3274"
       id="circle3615" />
  </g>
  <g
     style="fill:#ececec;fill-opacity:1;stroke:none"
     id="g3621"
     transform="translate(-126.2011,-90.3045)">
    <circle
       cx="142.90109"
       cy="112.95"
       r="0.3274"
       id="circle3619" />
  </g>
  <g
     style="fill:#ececec;fill-opacity:1;stroke:none"
     id="g3625"
     transform="translate(-126.2011,-90.3045)">
    <circle
       cx="142.90109"
       cy="114.05"
       r="0.3274"
       id="circle3623" />
  </g>
  <g
     style="fill:#ececec;fill-opacity:1;stroke:none"
     id="g3629"
     transform="translate(-126.2011,-90.3045)">
    <circle
       cx="132.2587"
       cy="112.95"
       r="0.3274"
       id="circle3627" />
  </g>
  <g
     style="fill:#ececec;fill-opacity:1;stroke:none"
     id="g3633"
     transform="translate(-126.2011,-90.3045)">
    <circle
       cx="133.3011"
       cy="116.65"
       r="0.3274"
       id="circle3631" />
  </g>
  <g
     style="fill:#ececec;fill-opacity:1;stroke:none"
     id="g3637"
     transform="translate(-126.2011,-90.3045)">
    <circle
       cx="130.7011"
       cy="102.75"
       r="0.3274"
       id="circle3635" />
  </g>
  <g
     style="fill:#ececec;fill-opacity:1;stroke:none"
     id="g3641"
     transform="translate(-126.2011,-90.3045)">
    <circle
       cx="132.3011"
       cy="99.949997"
       r="0.3274"
       id="circle3639" />
  </g>
  <g
     style="fill:#ececec;fill-opacity:1;stroke:none"
     id="g3645"
     transform="translate(-126.2011,-90.3045)">
    <circle
       cx="145.2011"
       cy="111.8"
       r="0.3274"
       id="circle3643" />
  </g>
  <g
     style="fill:#ececec;fill-opacity:1;stroke:none"
     id="g3649"
     transform="translate(-126.2011,-90.3045)">
    <circle
       cx="130.90109"
       cy="112.15"
       r="0.3274"
       id="circle3647" />
  </g>
  <g
     style="fill:#ececec;fill-opacity:1;stroke:none"
     id="g3653"
     transform="translate(-126.2011,-90.3045)">
    <circle
       cx="136.7011"
       cy="111.35"
       r="0.3274"
       id="circle3651" />
  </g>
  <g
     style="fill:#ececec;fill-opacity:1;stroke:none"
     id="g3657"
     transform="translate(-126.2011,-90.3045)">
    <circle
       cx="132.2587"
       cy="113.95"
       r="0.3274"
       id="circle3655" />
  </g>
  <g
     style="fill:#ececec;fill-opacity:1;stroke:none"
     id="g3661"
     transform="translate(-126.2011,-90.3045)">
    <circle
       cx="127.7011"
       cy="121.45"
       r="0.3274"
       id="circle3659" />
  </g>
  <g
     style="fill:#ececec;fill-opacity:1;stroke:none"
     id="g3665"
     transform="translate(-126.2011,-90.3045)">
    <circle
       cx="147.6011"
       cy="97.800003"
       r="0.3274"
       id="circle3663" />
  </g>
  <g
     style="fill:#ececec;fill-opacity:1;stroke:none"
     id="g3669"
     transform="translate(-126.2011,-90.3045)">
    <circle
       cx="148.5649"
       cy="111.35"
       r="0.3274"
       id="circle3667" />
  </g>
  <g
     style="fill:#ececec;fill-opacity:1;stroke:none"
     id="g3673"
     transform="translate(-126.2011,-90.3045)">
    <circle
       cx="147.2011"
       cy="105.35"
       r="0.3274"
       id="circle3671" />
  </g>
  <g
     style="fill:#ececec;fill-opacity:1;stroke:none"
     id="g3677"
     transform="translate(-126.2011,-90.3045)">
    <circle
       cx="143.5511"
       cy="111.8"
       r="0.3274"
       id="circle3675" />
  </g>
  <g
     style="fill:#ececec;fill-opacity:1;stroke:none"
     id="g3681"
     transform="translate(-126.2011,-90.3045)">
    <circle
       cx="144.0511"
       cy="115.0606"
       r="0.3274"
       id="circle3679" />
  </g>
  <g
     style="fill:#ececec;fill-opacity:1;stroke:none"
     id="g3685"
     transform="translate(-126.2011,-90.3045)">
    <circle
       cx="136.5"
       cy="96.846397"
       r="0.3274"
       id="circle3683" />
  </g>
  <g
     style="fill:#ececec;fill-opacity:1;stroke:none"
     id="g3689"
     transform="translate(-126.2011,-90.3045)">
    <circle
       cx="142.60001"
       cy="96.846397"
       r="0.3274"
       id="circle3687" />
  </g>
  <g
     style="fill:#ececec;fill-opacity:1;stroke:none"
     id="g3693"
     transform="translate(-126.2011,-90.3045)">
    <circle
       cx="146.40109"
       cy="103.65"
       r="0.3274"
       id="circle3691" />
  </g>
  <g
     style="fill:#ececec;fill-opacity:1;stroke:none"
     id="g3697"
     transform="translate(-126.2011,-90.3045)">
    <circle
       cx="136.1011"
       cy="104.95"
       r="0.3274"
       id="circle3695" />
  </g>
  <g
     style="fill:#ececec;fill-opacity:1;stroke:none"
     id="g3701"
     transform="translate(-126.2011,-90.3045)">
    <circle
       cx="140.3924"
       cy="104.6598"
       r="0.3274"
       id="circle3699" />
  </g>
  <g
     style="fill:#ececec;fill-opacity:1;stroke:none"
     id="g3705"
     transform="translate(-126.2011,-90.3045)">
    <circle
       cx="141.6129"
       cy="103.6382"
       r="0.3274"
       id="circle3703" />
  </g>
  <g
     style="fill:#ececec;fill-opacity:1;stroke:none"
     id="g3709"
     transform="translate(-126.2011,-90.3045)">
    <circle
       cx="138"
       cy="115.0464"
       r="0.3274"
       id="circle3707" />
  </g>
  <g
     style="fill:#ececec;fill-opacity:1;stroke:none"
     id="g3713"
     transform="translate(-126.2011,-90.3045)">
    <circle
       cx="144.6011"
       cy="110.506"
       r="0.3274"
       id="circle3711" />
  </g>
  <g
     style="fill:#ececec;fill-opacity:1;stroke:none"
     id="g3717"
     transform="translate(-126.2011,-90.3045)">
    <circle
       cx="144.6841"
       cy="109.1202"
       r="0.3274"
       id="circle3715" />
  </g>
  <g
     style="fill:#ececec;fill-opacity:1;stroke:none"
     id="g3721"
     transform="translate(-126.2011,-90.3045)">
    <circle
       cx="141.7011"
       cy="102.4945"
       r="0.3274"
       id="circle3719" />
  </g>
  <g
     style="fill:#ececec;fill-opacity:1;stroke:none"
     id="g3725"
     transform="translate(-126.2011,-90.3045)">
    <circle
       cx="138.99921"
       cy="98.371399"
       r="0.3274"
       id="circle3723" />
  </g>
  <g
     style="fill:#ececec;fill-opacity:1;stroke:none"
     id="g3729"
     transform="translate(-126.2011,-90.3045)">
    <circle
       cx="138.5011"
       cy="97.736198"
       r="0.3274"
       id="circle3727" />
  </g>
  <g
     style="fill:#ececec;fill-opacity:1;stroke:none"
     id="g3733"
     transform="translate(-126.2011,-90.3045)">
    <circle
       cx="150.9511"
       cy="107.9"
       r="0.3274"
       id="circle3731" />
  </g>
  <g
     style="fill:#ececec;fill-opacity:1;stroke:none"
     id="g3737"
     transform="translate(-126.2011,-90.3045)">
    <circle
       cx="145.2393"
       cy="102.7749"
       r="0.3274"
       id="circle3735" />
  </g>
  <g
     style="fill:#ececec;fill-opacity:1;stroke:none"
     id="g3741"
     transform="translate(-126.2011,-90.3045)">
    <circle
       cx="150.9511"
       cy="112.2"
       r="0.3274"
       id="circle3739" />
  </g>
  <g
     style="fill:#ececec;fill-opacity:1;stroke:none"
     id="g3745"
     transform="translate(-126.2011,-90.3045)">
    <circle
       cx="147.6451"
       cy="109.2152"
       r="0.3274"
       id="circle3743" />
  </g>
  <g
     style="fill:#ececec;fill-opacity:1;stroke:none"
     id="g3749"
     transform="translate(-126.2011,-90.3045)">
    <circle
       cx="148.2571"
       cy="117.5923"
       r="0.3274"
       id="circle3747" />
  </g>
  <g
     style="fill:#ececec;fill-opacity:1;stroke:none"
     id="g3753"
     transform="translate(-126.2011,-90.3045)">
    <circle
       cx="136.6011"
       cy="114.05"
       r="0.3274"
       id="circle3751" />
  </g>
  <g
     style="fill:#ececec;fill-opacity:1;stroke:none"
     id="g3757"
     transform="translate(-126.2011,-90.3045)">
    <circle
       cx="140.0011"
       cy="115.9468"
       r="0.3274"
       id="circle3755" />
  </g>
  <g
     style="fill:#ececec;fill-opacity:1;stroke:none"
     id="g3761"
     transform="translate(-126.2011,-90.3045)">
    <circle
       cx="137.5011"
       cy="108.45"
       r="0.3274"
       id="circle3759" />
  </g>
  <g
     style="fill:#ececec;fill-opacity:1;stroke:none"
     id="g3765"
     transform="translate(-126.2011,-90.3045)">
    <circle
       cx="142.4451"
       cy="105.8"
       r="0.3274"
       id="circle3763" />
  </g>
  <g
     style="fill:#ececec;fill-opacity:1;stroke:none"
     id="g3769"
     transform="translate(-126.2011,-90.3045)">
    <circle
       cx="139.15109"
       cy="116.5028"
       r="0.3274"
       id="circle3767" />
  </g>
  <g
     style="fill:#ececec;fill-opacity:1;stroke:none"
     id="g3773"
     transform="translate(-126.2011,-90.3045)">
    <circle
       cx="141.5511"
       cy="105.45"
       r="0.3274"
       id="circle3771" />
  </g>
  <g
     style="fill:#ececec;fill-opacity:1;stroke:none"
     id="g3777"
     transform="translate(-126.2011,-90.3045)">
    <circle
       cx="141.40829"
       cy="100.15"
       r="0.3274"
       id="circle3775" />
  </g>
  <g
     style="fill:#ececec;fill-opacity:1;stroke:none"
     id="g3781"
     transform="translate(-126.2011,-90.3045)">
    <circle
       cx="144.46809"
       cy="106.8245"
       r="0.3274"
       id="circle3779" />
  </g>
  <g
     style="fill:#ececec;fill-opacity:1;stroke:none"
     id="g3785"
     transform="translate(-126.2011,-90.3045)">
    <circle
       cx="140.964"
       cy="106.1664"
       r="0.3274"
       id="circle3783" />
  </g>
  <g
     style="fill:#ececec;fill-opacity:1;stroke:none"
     id="g3789"
     transform="translate(-126.2011,-90.3045)">
    <circle
       cx="140.6011"
       cy="99.050003"
       r="0.3274"
       id="circle3787" />
  </g>
  <g
     style="fill:#ececec;fill-opacity:1;stroke:none"
     id="g3793"
     transform="translate(-126.2011,-90.3045)">
    <circle
       cx="147.7011"
       cy="107.35"
       r="0.3274"
       id="circle3791" />
  </g>
  <g
     style="fill:#ececec;fill-opacity:1;stroke:none"
     id="g3797"
     transform="translate(-126.2011,-90.3045)">
    <circle
       cx="140.4875"
       cy="105.513"
       r="0.3274"
       id="circle3795" />
  </g>
  <g
     style="fill:#ececec;fill-opacity:1;stroke:none"
     id="g3801"
     transform="translate(-126.2011,-90.3045)">
    <circle
       cx="135.8091"
       cy="100.158"
       r="0.3274"
       id="circle3799" />
  </g>
  <g
     style="fill:#ececec;fill-opacity:1;stroke:none"
     id="g3805"
     transform="translate(-126.2011,-90.3045)">
    <circle
       cx="148.3511"
       cy="115.9468"
       r="0.3274"
       id="circle3803" />
  </g>
  <g
     style="fill:#ececec;fill-opacity:1;stroke:none"
     id="g3809"
     transform="translate(-126.2011,-90.3045)">
    <circle
       cx="144.7429"
       cy="105.3548"
       r="0.3274"
       id="circle3807" />
  </g>
  <g
     style="fill:#ececec;fill-opacity:1;stroke:none"
     id="g3813"
     transform="translate(-126.2011,-90.3045)">
    <circle
       cx="148.3011"
       cy="108.25"
       r="0.3274"
       id="circle3811" />
  </g>
  <g
     style="fill:#ececec;fill-opacity:1;stroke:none"
     id="g3817"
     transform="translate(-126.2011,-90.3045)">
    <circle
       cx="140.6011"
       cy="100.15"
       r="0.3274"
       id="circle3815" />
  </g>
  <g
     style="fill:#ececec;fill-opacity:1;stroke:none"
     id="g3821"
     transform="translate(-126.2011,-90.3045)">
    <circle
       cx="143.5571"
       cy="105.7"
       r="0.3274"
       id="circle3819" />
  </g>
  <g
     style="fill:#ececec;fill-opacity:1;stroke:none"
     id="g3827"
     transform="translate(-126.2011,-90.3045)">
    <circle
       cx="152.3443"
       cy="118.2068"
       r="0.3274"
       id="circle3823" />
    <path
       style="fill:#7fc87f;fill-opacity:1;fill-rule:evenodd;stroke:none"
       d="m 156.2854,90.3191 0.0146,0.0352 v 33.5914 l -0.0146,0.0352 -0.0352,0.0146 h -29.9993 l -0.0352,-0.0146 -0.0146,-0.0352 V 122.54 h 4.6722 l 0.0194,0.1966 0.0574,0.189 0.0931,0.1743 0.1253,0.1527 0.1527,0.1253 0.1743,0.0931 0.189,0.0574 0.1481,0.0146 0.0485,0.005 v 0 0 l 0.0448,-0.004 0.1518,-0.0149 0.1891,-0.0574 0.1742,-0.0931 0.1527,-0.1253 0.1253,-0.1527 0.0931,-0.1743 0.0574,-0.189 0.0194,-0.1966 h 0.5244 l 0.0194,0.1966 0.0574,0.189 0.0931,0.1743 0.1253,0.1527 0.1527,0.1253 0.1742,0.0931 0.1891,0.0574 0.1481,0.0146 0.0485,0.005 v 0 0 l 0.0448,-0.004 0.1518,-0.0149 0.189,-0.0574 0.1743,-0.0931 0.1527,-0.1253 0.1253,-0.1527 0.0931,-0.1743 0.0574,-0.189 0.0194,-0.1966 h 0.5244 l 0.0194,0.1966 0.0574,0.189 0.0931,0.1743 0.1253,0.1527 0.1527,0.1253 0.1742,0.0931 0.1891,0.0574 0.1481,0.0146 0.0485,0.005 v 0 0 l 0.0448,-0.004 0.1518,-0.0149 0.189,-0.0574 0.1743,-0.0931 0.1527,-0.1253 0.1253,-0.1527 0.0931,-0.1743 0.0574,-0.189 0.0194,-0.1966 h 0.5244 l 0.0194,0.1966 0.0574,0.189 0.0931,0.1743 0.1253,0.1527 0.1527,0.1253 0.1742,0.0931 0.1891,0.0574 0.1481,0.0146 0.0485,0.005 v 0 0 l 0.0448,-0.004 0.1518,-0.0149 0.1891,-0.0574 0.1742,-0.0931 0.1527,-0.1253 0.1253,-0.1527 0.0931,-0.1743 0.0574,-0.189 0.0194,-0.1966 h 0.5244 l 0.0194,0.1966 0.0574,0.189 0.0931,0.1743 0.1253,0.1527 0.1527,0.1253 0.1743,0.0931 0.189,0.0574 0.1481,0.0146 0.0485,0.005 v 0 0 l 0.0448,-0.004 0.1518,-0.0149 0.189,-0.0574 0.1743,-0.0931 0.1527,-0.1253 0.1253,-0.1527 0.0931,-0.1743 0.0574,-0.189 0.0194,-0.1966 h 0.5244 l 0.0194,0.1966 0.0574,0.189 0.0931,0.1743 0.1253,0.1527 0.1527,0.1253 0.1742,0.0931 0.1891,0.0574 0.1481,0.0146 0.0485,0.005 v 0 0 l 0.0448,-0.004 0.1518,-0.0149 0.189,-0.0574 0.1743,-0.0931 0.1527,-0.1253 0.1253,-0.1527 0.0931,-0.1743 0.0574,-0.189 0.0194,-0.1966 h 0.5244 l 0.0194,0.1966 0.0574,0.189 0.0931,0.1743 0.1253,0.1527 0.1527,0.1253 0.1742,0.0931 0.1891,0.0574 0.1481,0.0146 0.0485,0.005 v 0 0 l 0.0448,-0.004 0.1518,-0.0149 0.189,-0.0574 0.1743,-0.0931 0.1527,-0.1253 0.1253,-0.1527 0.0931,-0.1743 0.0574,-0.189 0.0194,-0.1966 h 0.5244 l 0.0194,0.1966 0.0574,0.189 0.0931,0.1743 0.1253,0.1527 0.1527,0.1253 0.1743,0.0931 0.189,0.0574 0.1481,0.0146 0.0485,0.005 v 0 0 l 0.0448,-0.004 0.1518,-0.0149 0.1891,-0.0574 0.1742,-0.0931 0.1527,-0.1253 0.1253,-0.1527 0.0931,-0.1743 0.0574,-0.189 0.0194,-0.1966 h 0.5244 l 0.0194,0.1966 0.0574,0.189 0.0931,0.1743 0.1253,0.1527 0.1527,0.1253 0.1742,0.0931 0.1891,0.0574 0.1481,0.0146 0.0485,0.005 v 0 0 l 0.0448,-0.004 0.1518,-0.0149 0.189,-0.0574 0.1743,-0.0931 0.1527,-0.1253 0.1253,-0.1527 0.0931,-0.1743 0.0574,-0.189 0.0194,-0.1966 h 0.5244 l 0.0194,0.1966 0.0574,0.189 0.0931,0.1743 0.1253,0.1527 0.1527,0.1253 0.1742,0.0931 0.1891,0.0574 0.1481,0.0146 0.0485,0.005 v 0 0 l 0.0448,-0.004 0.1518,-0.0149 0.189,-0.0574 0.1743,-0.0931 0.1527,-0.1253 0.1253,-0.1527 0.0931,-0.1743 0.0574,-0.189 0.0194,-0.1966 -0.0194,-0.1966 -0.0574,-0.1891 -0.0931,-0.1742 -0.1253,-0.1527 -0.1527,-0.1253 -0.1743,-0.0931 -0.189,-0.0574 -0.1966,-0.0194 v 0 l -0.1966,0.0194 -0.0823,0.025 -0.1068,0.0324 v 0 0 l -0.1129,0.0603 -0.0613,0.0328 v 0 0 l -0.1527,0.1253 -0.1253,0.1527 -0.0931,0.1742 v 0 0 l -0.0574,0.1891 -0.0194,0.1966 h -0.5244 l -0.0194,-0.1966 -0.0574,-0.1891 -0.0931,-0.1742 -0.1253,-0.1527 -0.1527,-0.1253 -0.1743,-0.0931 -0.189,-0.0574 -0.1966,-0.0194 v 0 l -0.1966,0.0194 -0.0823,0.025 -0.1068,0.0324 v 0 0 l -0.1129,0.0603 -0.0613,0.0328 v 0 0 l -0.1527,0.1253 -0.1253,0.1527 -0.0931,0.1742 v 0 0 l -0.0574,0.1891 -0.0194,0.1966 h -0.5244 l -0.0194,-0.1966 -0.0574,-0.1891 -0.0931,-0.1742 -0.1253,-0.1527 -0.1527,-0.1253 -0.1742,-0.0931 -0.1891,-0.0574 -0.1966,-0.0194 v 0 l -0.1966,0.0194 -0.0823,0.025 -0.1067,0.0324 h -1e-4 v 0 l -0.1129,0.0603 -0.0613,0.0328 v 0 0 l -0.1527,0.1253 -0.1253,0.1527 -0.0931,0.1742 v 0 0 l -0.0574,0.1891 -0.0194,0.1966 h -0.5244 l -0.0194,-0.1966 -0.0574,-0.1891 -0.0931,-0.1742 -0.1253,-0.1527 -0.1527,-0.1253 -0.1743,-0.0931 -0.189,-0.0574 -0.1966,-0.0194 v 0 l -0.1966,0.0194 -0.0823,0.025 -0.1068,0.0324 v 0 0 l -0.1129,0.0603 -0.0613,0.0328 v 0 0 l -0.1527,0.1253 -0.1253,0.1527 -0.0931,0.1742 v 0 0 l -0.0574,0.1891 -0.0194,0.1966 h -0.5244 l -0.0194,-0.1966 -0.0574,-0.1891 -0.0931,-0.1742 -0.1253,-0.1527 -0.1527,-0.1253 -0.1743,-0.0931 -0.189,-0.0574 -0.1966,-0.0194 v 0 l -0.1966,0.0194 -0.0823,0.025 -0.1068,0.0324 v 0 0 l -0.1129,0.0603 -0.0613,0.0328 v 0 0 l -0.1527,0.1253 -0.1253,0.1527 -0.0931,0.1742 v 0 0 l -0.0574,0.1891 -0.0194,0.1966 h -0.5244 l -0.0194,-0.1966 -0.0574,-0.1891 -0.0931,-0.1742 -0.1253,-0.1527 -0.1527,-0.1253 -0.1743,-0.0931 -0.189,-0.0574 -0.1966,-0.0194 v 0 l -0.1966,0.0194 -0.0823,0.025 -0.1067,0.0324 h -1e-4 v 0 l -0.1129,0.0603 -0.0613,0.0328 v 0 0 l -0.1527,0.1253 -0.1253,0.1527 -0.0931,0.1742 v 0 0 l -0.0574,0.1891 -0.0194,0.1966 h -0.5244 l -0.0194,-0.1966 -0.0574,-0.1891 -0.0931,-0.1742 -0.1253,-0.1527 -0.1527,-0.1253 -0.1742,-0.0931 -0.1891,-0.0574 -0.1966,-0.0194 v 0 l -0.1966,0.0194 -0.0823,0.025 -0.1068,0.0324 v 0 0 l -0.1129,0.0603 -0.0613,0.0328 v 0 0 l -0.1527,0.1253 -0.1253,0.1527 -0.0931,0.1742 v 0 0 l -0.0574,0.1891 -0.0194,0.1966 h -0.5244 l -0.0194,-0.1966 -0.0574,-0.1891 -0.0931,-0.1742 -0.1253,-0.1527 -0.1527,-0.1253 -0.1743,-0.0931 -0.189,-0.0574 -0.1966,-0.0194 v 0 l -0.1966,0.0194 -0.0823,0.025 -0.1068,0.0324 v 0 0 l -0.1129,0.0603 -0.0613,0.0328 v 0 0 l -0.1527,0.1253 -0.1253,0.1527 -0.0931,0.1742 v 0 0 l -0.0574,0.1891 -0.0194,0.1966 h -0.5244 l -0.0194,-0.1966 -0.0574,-0.1891 -0.0931,-0.1742 -0.1253,-0.1527 -0.1527,-0.1253 -0.1743,-0.0931 -0.189,-0.0574 -0.1966,-0.0194 v 0 l -0.1966,0.0194 -0.0823,0.025 -0.1068,0.0324 v 0 0 l -0.1129,0.0603 -0.0613,0.0328 v 0 0 l -0.1527,0.1253 -0.1253,0.1527 -0.0931,0.1742 v 0 0 l -0.0574,0.1891 -0.0194,0.1966 h -0.5244 l -0.0194,-0.1966 -0.0574,-0.1891 -0.0931,-0.1742 -0.1253,-0.1527 -0.1527,-0.1253 -0.1742,-0.0931 -0.1891,-0.0574 -0.1966,-0.0194 v 0 l -0.1966,0.0194 -0.0823,0.025 -0.1067,0.0324 h -1e-4 v 0 l -0.1129,0.0603 -0.0613,0.0328 v 0 0 l -0.1527,0.1253 -0.1253,0.1527 -0.0931,0.1742 v 0 0 l -0.0574,0.1891 -0.0194,0.1966 h -4.6722 V 120 h 4.6722 l 0.0194,0.1966 0.0574,0.189 0.0931,0.1743 0.1253,0.1527 0.1527,0.1253 0.1743,0.0931 0.189,0.0574 0.1473,0.0145 0.0493,0.005 v 0 0 l 0.0448,-0.005 0.1518,-0.0149 0.1891,-0.0574 0.1742,-0.0931 0.1527,-0.1253 0.1253,-0.1527 0.0931,-0.1743 0.0574,-0.189 0.0194,-0.1966 h 0.5244 l 0.0194,0.1966 0.0574,0.189 0.0931,0.1743 0.1253,0.1527 0.1527,0.1253 0.1742,0.0931 0.1891,0.0574 0.1473,0.0145 0.0493,0.005 v 0 0 l 0.0448,-0.005 0.1518,-0.0149 0.189,-0.0574 0.1743,-0.0931 0.1527,-0.1253 0.1253,-0.1527 0.0931,-0.1743 0.0574,-0.189 0.0194,-0.1966 h 0.5244 l 0.0194,0.1966 0.0574,0.189 0.0931,0.1743 0.1253,0.1527 0.1527,0.1253 0.1742,0.0931 0.1891,0.0574 0.1473,0.0145 0.0493,0.005 v 0 0 l 0.0448,-0.005 0.1518,-0.0149 0.189,-0.0574 0.1743,-0.0931 0.1527,-0.1253 0.1253,-0.1527 0.0931,-0.1743 0.0574,-0.189 0.0194,-0.1966 h 0.5244 l 0.0194,0.1966 0.0574,0.189 0.0931,0.1743 0.1253,0.1527 0.1527,0.1253 0.1742,0.0931 0.1891,0.0574 0.1473,0.0145 0.0493,0.005 v 0 0 l 0.0448,-0.005 0.1518,-0.0149 0.1891,-0.0574 0.1742,-0.0931 0.1527,-0.1253 0.1253,-0.1527 0.0931,-0.1743 0.0574,-0.189 0.0194,-0.1966 h 0.5244 l 0.0194,0.1966 0.0574,0.189 0.0931,0.1743 0.1253,0.1527 0.1527,0.1253 0.1743,0.0931 0.189,0.0574 0.1473,0.0145 0.0493,0.005 v 0 0 l 0.0448,-0.005 0.1518,-0.0149 0.189,-0.0574 0.1743,-0.0931 0.1527,-0.1253 0.1253,-0.1527 0.0931,-0.1743 0.0574,-0.189 0.0194,-0.1966 -0.0151,-0.1524 h 0.4527 0.6178 l -0.0232,0.0866 v 0.1316 l 0.0232,0.0866 h -0.6178 l 0.005,0.0513 v 0 l 0.056,0.1968 0.0912,0.1832 v 0 l 0.1233,0.1632 v 0 l 0.1512,0.1379 0.174,0.1077 0.1908,0.0739 0.151,0.0282 v 0 -0.6178 l 0.0866,0.0232 h 0.1316 l 0.0866,-0.0232 v 0.6178 l 0.151,-0.0282 0.1908,-0.0739 0.174,-0.1077 0.1512,-0.1379 v 0 l 0.1233,-0.1632 v 0 l 0.0912,-0.1832 0.056,-0.1968 v 0 l 0.005,-0.0513 h -0.6178 l 0.0232,-0.0866 V 120 h 1.0322 l 0.0194,0.1966 0.0574,0.189 0.0931,0.1743 0.1253,0.1527 0.1527,0.1253 0.1742,0.0931 0.1891,0.0574 0.1473,0.0145 0.0493,0.005 v 0 0 l 0.0448,-0.005 0.1518,-0.0149 0.189,-0.0574 0.1743,-0.0931 0.1527,-0.1253 0.1253,-0.1527 0.0931,-0.1743 0.0574,-0.189 0.0194,-0.1966 h 0.5244 l 0.0194,0.1966 0.0574,0.189 0.0931,0.1743 0.1253,0.1527 0.1527,0.1253 0.1743,0.0931 0.189,0.0574 0.1473,0.0145 0.0493,0.005 v 0 0 l 0.0448,-0.005 0.1518,-0.0149 0.1891,-0.0574 0.1742,-0.0931 0.1527,-0.1253 0.1253,-0.1527 0.0931,-0.1743 0.0574,-0.189 0.0194,-0.1966 h 0.5244 l 0.0194,0.1966 0.0574,0.189 0.0931,0.1743 0.1253,0.1527 0.1527,0.1253 0.1742,0.0931 0.1891,0.0574 0.1473,0.0145 0.0493,0.005 v 0 0 l 0.0448,-0.005 0.1518,-0.0149 0.189,-0.0574 0.1743,-0.0931 0.1527,-0.1253 0.1253,-0.1527 0.0931,-0.1743 0.0574,-0.189 0.0194,-0.1966 -0.0194,-0.1966 -0.0574,-0.1891 -0.0931,-0.1742 -0.1253,-0.1527 -0.1527,-0.1253 -0.0508,-0.0272 h 1.028 v 1.7301 1e-4 l 0.009,0.0446 v 0 l 0.0338,0.0505 v 0 l 0.0505,0.0338 0.0446,0.009 h 1.7302 l 0.0446,-0.009 0.0505,-0.0338 0.0338,-0.0505 0.009,-0.0446 v -1.7302 l -0.009,-0.0446 v 0 0 l -0.0338,-0.0505 v 0 l -0.0505,-0.0338 -0.0446,-0.009 v 0 h -1.7302 v 0 l -0.0334,0.007 -0.0112,0.002 v 0 0 l -0.0505,0.0338 v 0 l -0.0338,0.0505 v 0 l -0.009,0.0446 h -1.028 l -0.1235,-0.0659 -0.189,-0.0574 -0.1966,-0.0194 v 0 l -0.1966,0.0194 -0.0823,0.025 -0.1068,0.0324 v 0 0 l -0.0865,0.0462 -0.0877,0.0469 v 0 0 l -0.1527,0.1253 -0.1253,0.1527 -0.0931,0.1742 v 0 0 l -0.0574,0.1891 -0.0194,0.1966 h -0.5244 l -0.0194,-0.1966 -0.0574,-0.1891 -0.0931,-0.1742 -0.1253,-0.1527 -0.1527,-0.1253 -0.1742,-0.0931 -0.1891,-0.0574 -0.1966,-0.0194 v 0 l -0.1966,0.0194 -0.0823,0.025 -0.1067,0.0324 h -1e-4 v 0 l -0.0865,0.0462 -0.0877,0.0469 v 0 0 l -0.1527,0.1253 -0.1253,0.1527 -0.0931,0.1742 v 0 0 l -0.0574,0.1891 -0.0194,0.1966 h -0.5244 l -0.0194,-0.1966 -0.0574,-0.1891 -0.0931,-0.1742 -0.1253,-0.1527 -0.1527,-0.1253 -0.1743,-0.0931 -0.189,-0.0574 -0.1966,-0.0194 v 0 l -0.1966,0.0194 -0.0823,0.025 -0.1068,0.0324 v 0 0 l -0.0865,0.0462 -0.0877,0.0469 v 0 0 l -0.1527,0.1253 -0.1253,0.1527 -0.0931,0.1742 v 0 0 l -0.0574,0.1891 -0.0194,0.1966 h -1.0322 v -0.0658 l -0.0232,-0.0866 h 0.6178 l -0.005,-0.0513 v 0 l -0.056,-0.1968 -0.0912,-0.1832 v 0 l -0.1233,-0.1632 v 0 l -0.1512,-0.1379 -0.174,-0.1077 -0.1908,-0.0739 -0.151,-0.0282 v 0.6178 l -0.0869,-0.022 h -0.1316 l -0.0866,0.0232 v -0.6178 0 l -0.151,0.0282 -0.1908,0.0739 -0.174,0.1077 -0.1512,0.1379 v 0 l -0.1233,0.1632 v 0 l -0.0912,0.1832 -0.056,0.1968 v 0 l -0.005,0.0513 h -0.4527 l -0.004,-0.0442 -0.0574,-0.1891 -0.0931,-0.1742 -0.1253,-0.1527 -0.1527,-0.1253 -0.1743,-0.0931 -0.189,-0.0574 -0.1966,-0.0194 v 0 l -0.1966,0.0194 -0.0823,0.025 -0.1067,0.0324 h -1e-4 v 0 l -0.0865,0.0462 -0.0877,0.0469 v 0 0 l -0.1527,0.1253 -0.1253,0.1527 -0.0931,0.1742 v 0 0 l -0.0574,0.1891 -0.0194,0.1966 h -0.5244 l -0.0194,-0.1966 -0.0574,-0.1891 -0.0931,-0.1742 -0.1253,-0.1527 -0.1527,-0.1253 -0.1742,-0.0931 -0.1891,-0.0574 -0.1966,-0.0194 v 0 l -0.1966,0.0194 -0.0823,0.025 -0.1068,0.0324 v 0 0 l -0.0865,0.0462 -0.0877,0.0469 v 0 0 l -0.1527,0.1253 -0.1253,0.1527 -0.0931,0.1742 v 0 0 l -0.0574,0.1891 -0.0194,0.1966 h -0.5244 l -0.0194,-0.1966 -0.0574,-0.1891 -0.0931,-0.1742 -0.1253,-0.1527 -0.1527,-0.1253 -0.1743,-0.0931 -0.189,-0.0574 -0.1966,-0.0194 v 0 l -0.1966,0.0194 -0.0823,0.025 -0.1068,0.0324 v 0 0 l -0.0865,0.0462 -0.0877,0.0469 v 0 0 l -0.1527,0.1253 -0.1253,0.1527 -0.0931,0.1742 v 0 0 l -0.0574,0.1891 -0.0194,0.1966 h -0.5244 l -0.0194,-0.1966 -0.0574,-0.1891 -0.0931,-0.1742 -0.1253,-0.1527 -0.1527,-0.1253 -0.1743,-0.0931 -0.189,-0.0574 -0.1966,-0.0194 v 0 l -0.1966,0.0194 -0.0823,0.025 -0.1068,0.0324 v 0 0 l -0.0865,0.0462 -0.0877,0.0469 v 0 0 l -0.1527,0.1253 -0.1253,0.1527 -0.0931,0.1742 v 0 0 l -0.0574,0.1891 -0.0194,0.1966 h -0.5244 l -0.0194,-0.1966 -0.0574,-0.1891 -0.0931,-0.1742 -0.1253,-0.1527 -0.1527,-0.1253 -0.1742,-0.0931 -0.1891,-0.0574 -0.1966,-0.0194 v 0 l -0.1966,0.0194 -0.0823,0.025 -0.1067,0.0324 h -1e-4 v 0 l -0.0865,0.0462 -0.0877,0.0469 v 0 0 l -0.1527,0.1253 -0.1253,0.1527 -0.0931,0.1742 v 0 0 l -0.0574,0.1891 -0.0194,0.1966 h -4.6722 v -1.7932 h 25.6579 v 0 l 0.0197,0.1368 v 0 l 0.0573,0.1256 v 0 l 0.0905,0.1044 v 0 l 0.1162,0.0746 v 0 0 l 0.1325,0.0389 v 0 h 0.1381 v 0 l 0.1325,-0.0389 0.1162,-0.0746 0.0905,-0.1044 0.0573,-0.1256 0.0197,-0.1368 -0.0197,-0.1367 -0.0573,-0.1256 v 0 0 0 l -0.0905,-0.1044 v 0 l -0.1162,-0.0746 v 0 0 l -0.1325,-0.039 h -0.1381 l -0.1325,0.039 v 0 0 l -0.1162,0.0746 v 0 l -0.0905,0.1044 v 0 l -0.0573,0.1256 v 0 l -0.0197,0.1367 h -25.6579 v -0.6145 h 21.5708 v 0 l 0.0196,0.1367 v 0 l 0.0574,0.1256 v 0 l 0.0904,0.1044 v 0 l 0.1162,0.0747 v 0 0 l 0.1325,0.0389 v 0 h 0.1382 v 0 l 0.1325,-0.0389 0.1162,-0.0747 0.0904,-0.1044 0.0574,-0.1256 0.0196,-0.1367 -0.0196,-0.1367 -0.0574,-0.1256 v 0 0 0 l -0.0904,-0.1044 v 0 l -0.1162,-0.0747 v 0 0 l -0.1325,-0.0389 h -0.1382 l -0.1325,0.0389 v 0 0 l -0.1162,0.0747 v 0 l -0.0904,0.1044 v 0 l -0.0574,0.1256 v 0 l -0.0196,0.1367 h -21.5708 v -1.0895 h 12.4648 v 0 l 0.0196,0.1367 v 0 l 0.0574,0.1256 v 0 l 0.0904,0.1044 v 0 l 0.1162,0.0747 v 0 0 l 0.1325,0.0389 v 0 h 0.1382 v 0 l 0.1325,-0.0389 0.1162,-0.0747 0.0904,-0.1044 0.0574,-0.1256 0.0196,-0.1367 -0.0192,-0.1339 0.009,-0.0369 0.0328,-0.0195 0.034,0.007 0.1062,0.0683 v 0 0 l 0.1325,0.0389 v 0 h 0.1382 v 0 l 0.1325,-0.0389 0.1162,-0.0747 8e-4,-0.001 0.0625,-0.072 0.0271,-0.0314 0.0574,-0.1256 0.0196,-0.1367 v 0 h 7.3796 v 0 l 0.0196,0.1367 v 0 l 0.0574,0.1256 v 0 l 0.0904,0.1044 v 0 l 0.1162,0.0747 v 0 0 l 0.1325,0.0389 v 0 h 0.1382 v 0 l 0.1325,-0.0389 0.0594,-0.0382 h 4.6312 v 0 l 0.0151,0.1528 0.004,0.0438 0.0574,0.189 0.0931,0.1743 0.1253,0.1527 0.1527,0.1253 0.1742,0.0931 0.1891,0.0574 0.1481,0.0146 0.0485,0.005 v 0 0 l 0.0448,-0.004 0.1518,-0.0149 0.1891,-0.0574 0.1742,-0.0931 0.1527,-0.1253 0.1253,-0.1527 0.0931,-0.1743 0.0574,-0.189 0.0194,-0.1966 -0.0194,-0.1966 -0.0574,-0.1891 -0.0931,-0.1742 -0.1253,-0.1527 -0.1349,-0.1107 -0.0178,-0.0146 v 0 0 l -0.1742,-0.0931 -0.1891,-0.0574 -0.1966,-0.0194 v 0 l -0.1966,0.0194 -0.0823,0.025 -0.1068,0.0324 v 0 0 l -0.0889,0.0475 -0.0853,0.0456 v 0 0 l -0.1527,0.1253 -0.1253,0.1527 v 0 0 l -0.0107,0.02 -0.0824,0.1542 v 0 0 l -0.0295,0.0971 -0.0279,0.092 -0.0194,0.1966 h -4.6312 l 0.0568,-0.0365 8e-4,-0.001 0.0625,-0.072 0.0271,-0.0314 0.0574,-0.1256 0.0196,-0.1367 -0.0196,-0.1367 -0.0574,-0.1256 v 0 0 0 l -0.0904,-0.1044 v 0 l -0.1162,-0.0747 v 0 0 l -0.1325,-0.0389 h -0.1382 l -0.1325,0.0389 v 0 0 l -0.1162,0.0747 v 0 l -0.0904,0.1044 v 0 l -0.0574,0.1256 v 0 l -0.0196,0.1367 h -7.3796 l -0.0196,-0.1367 -0.0574,-0.1256 v 0 0 0 l -0.0904,-0.1044 v 0 l -0.1162,-0.0747 v 0 0 l -0.1325,-0.0389 h -0.1382 l -0.1325,0.0389 v 0 0 l -0.1162,0.0747 v 0 l -0.0904,0.1044 v 0 l -0.0574,0.1256 v 0 l -0.0196,0.1367 v 0 l 0.0192,0.1339 -0.009,0.0369 -0.0328,0.0195 -0.034,-0.007 -0.1062,-0.0683 v 0 0 l -0.1325,-0.0389 h -0.1382 l -0.1325,0.0389 v 0 0 l -0.1162,0.0747 v 0 l -0.0904,0.1044 v 0 l -0.0574,0.1256 v 0 l -0.0196,0.1367 h -12.4648 v -1.4564 h 11.3137 v 0 l 0.0196,0.1367 v 0 l 0.0574,0.1256 v 0 l 0.0904,0.1044 v 0 l 0.1162,0.0747 v 0 0 l 0.1325,0.0389 v 0 h 0.1382 v 0 l 0.1325,-0.0389 0.1162,-0.0747 0.0904,-0.1044 0.0574,-0.1256 0.0176,-0.1225 h 5.0827 v 0 l 0.0196,0.1367 v 0 l 0.0574,0.1256 v 0 l 0.0904,0.1044 v 0 l 0.1162,0.0747 v 0 0 l 0.1325,0.0389 v 0 h 0.1382 v 0 l 0.1325,-0.0389 0.1162,-0.0747 0.0904,-0.1044 0.0574,-0.1256 0.0196,-0.1367 -0.002,-0.0142 -0.005,-0.0314 -0.0131,-0.0911 -0.0574,-0.1256 v 0 0 0 l -0.0904,-0.1044 v 0 l -0.1162,-0.0747 v 0 0 l -0.1325,-0.0389 h -0.1382 l -0.1325,0.0389 v 0 0 l -0.1162,0.0747 v 0 l -0.0904,0.1044 v 0 l -0.0574,0.1256 v 0 l -0.0196,0.1367 h -5.0827 l 0.002,-0.0142 -0.0196,-0.1367 -0.0574,-0.1256 v 0 0 0 l -0.0904,-0.1044 v 0 l -0.1162,-0.0747 v 0 0 l -0.1325,-0.0389 h -0.1382 l -0.1325,0.0389 v 0 0 l -0.1162,0.0747 v 0 l -0.0904,0.1044 v 0 l -0.0574,0.1256 v 0 l -0.0196,0.1367 H 126.2011 V 114.05 h 9.9148 v 0 l 0.0196,0.1367 v 0 l 0.0574,0.1256 v 0 l 0.0904,0.1044 v 0 l 0.1162,0.0747 v 0 0 l 0.1325,0.0389 v 0 h 0.1382 v 0 l 0.1325,-0.0389 0.1162,-0.0747 0.0904,-0.1044 0.0574,-0.1256 0.0196,-0.1367 -0.0196,-0.1367 -0.0472,-0.1033 h 16.2238 v 0 l 0.0102,0.1033 0.009,0.0933 0.0574,0.1891 0.0931,0.1742 0.1253,0.1527 0.1527,0.1253 0.1742,0.0931 0.1891,0.0574 0.1481,0.0146 0.0485,0.005 v 0 0 l 0.0448,-0.005 0.1518,-0.0149 0.1891,-0.0574 0.1742,-0.0931 0.1527,-0.1253 0.1253,-0.1527 0.0931,-0.1742 0.0574,-0.1891 0.0194,-0.1966 -0.002,-0.0223 -0.0103,-0.1044 -0.007,-0.0699 -0.0574,-0.1891 -0.0931,-0.1742 -0.1253,-0.1527 -0.1527,-0.1253 -0.1742,-0.0931 -0.1891,-0.0574 -0.1966,-0.0194 v 0 l -0.1966,0.0194 -0.0823,0.025 -0.1068,0.0324 v 0 0 l -0.1129,0.0603 -0.0613,0.0328 v 0 0 l -0.1527,0.1253 -0.1253,0.1527 -0.0931,0.1742 v 0 l -0.0574,0.1891 -0.0194,0.1966 h -16.2238 l -0.0102,-0.0223 v 0 0 0 l -0.0904,-0.1044 v 0 l -0.1162,-0.0747 v 0 0 l -0.1325,-0.0389 h -0.1382 l -0.1325,0.0389 v 0 0 l -0.1162,0.0747 v 0 l -0.0904,0.1044 v 0 l -0.0574,0.1256 v 0 l -0.0196,0.1367 h -9.9148 v -2.25 h 16.8648 v 0 l 0.0196,0.1367 v 0 l 0.0574,0.1256 v 0 l 0.0904,0.1044 v 0 l 0.1162,0.0747 v 0 0 l 0.1325,0.0389 v 0 h 0.1382 v 0 l 0.1325,-0.0389 0.0644,-0.0414 h 6.6488 v 0 l 0.0196,0.1367 v 0 l 0.0574,0.1256 v 0 l 0.0904,0.1044 v 0 l 0.1162,0.0747 v 0 0 l 0.1325,0.0389 v 0 h 0.1382 v 0 l 0.1325,-0.0389 0.1162,-0.0747 0.0904,-0.1044 0.0574,-0.1256 0.0195,-0.1357 1e-4,-10e-4 v 0 l -0.0132,-0.0921 -0.006,-0.0446 -0.0574,-0.1256 v 0 0 0 l -0.0904,-0.1044 v 0 l -0.1162,-0.0747 v 0 0 l -0.1325,-0.0389 h -0.1382 l -0.1325,0.0389 v 0 0 l -0.1162,0.0747 v 0 l -0.0904,0.1044 v 0 l -0.0574,0.1256 v 0 l -0.0196,0.1367 h -6.6488 l 0.0518,-0.0333 0.0904,-0.1044 0.0574,-0.1256 0.0196,-0.1367 -0.006,-0.0414 -0.006,-0.0389 -0.008,-0.0564 -0.0574,-0.1256 v 0 0 0 l -0.0904,-0.1044 v 0 l -0.1162,-0.0747 v 0 0 l -0.1325,-0.0389 h -0.1382 l -0.1325,0.0389 v 0 0 l -0.1162,0.0747 v 0 l -0.0904,0.1044 v 0 l -0.0574,0.1256 v 0 l -0.0196,0.1367 H 126.201 v -0.53 h 27.0422 v 0 l 0.009,0.0886 0.0106,0.108 0.0574,0.189 0.0931,0.1743 0.1253,0.1527 0.1527,0.1253 0.1742,0.0931 0.1891,0.0574 0.1481,0.0146 0.0485,0.005 v 0 0 l 0.0448,-0.004 0.1518,-0.0149 0.1891,-0.0574 0.1742,-0.0931 0.1527,-0.1253 0.1253,-0.1527 0.0931,-0.1743 0.0574,-0.189 0.0194,-0.1966 -0.0194,-0.1966 -0.0574,-0.1891 -0.0931,-0.1742 -0.1253,-0.1527 -0.1527,-0.1253 -0.1742,-0.0931 -0.1891,-0.0574 -0.1966,-0.0194 v 0 l -0.1966,0.0194 -0.0823,0.025 -0.1068,0.0324 v 0 0 l -0.0567,0.0303 -0.1175,0.0628 v 0 0 l -0.1527,0.1253 -0.1253,0.1527 -0.0931,0.1742 v 0 0 l -0.0192,0.0631 -0.0382,0.126 -0.0194,0.1966 h -27.0422 v -0.764 h 17.9148 v 0 l 0.0196,0.1367 v 0 l 0.0574,0.1256 v 0 l 0.0904,0.1044 v 0 l 0.1162,0.0747 v 0 0 l 0.1325,0.0389 v 0 h 0.1382 v 0 l 0.1325,-0.0389 0.1162,-0.0747 0.0904,-0.1044 0.0574,-0.1256 0.0196,-0.1367 -0.0196,-0.1367 -0.0574,-0.1256 v 0 0 0 l -0.0904,-0.1044 v 0 l -0.1162,-0.0747 v 0 0 l -0.1325,-0.0389 h -0.1382 l -0.1325,0.0389 v 0 0 l -0.1162,0.0747 v 0 l -0.0904,0.1044 v 0 l -0.0574,0.1256 v 0 l -0.0196,0.1367 h -17.9148 v -3.1811 h 2.4971 v 1.7301 10e-5 l 0.009,0.0446 v 0 l 0.0338,0.0505 v 0 l 0.0505,0.0338 0.0446,0.009 h 1.7302 l 0.0446,-0.009 0.0505,-0.0338 0.0201,-0.03 h 13.5175 v 0 l 0.0196,0.1367 v 0 l 0.0574,0.1256 v 0 l 0.0904,0.1044 v 0 l 0.1162,0.0747 v 0 0 l 0.1325,0.0389 v 0 h 0.1382 v 0 l 0.1325,-0.0389 0.1162,-0.0747 0.0904,-0.1044 0.0574,-0.1256 0.006,-0.0417 h 2.0042 v 0 l 0.0196,0.1367 v 0 l 0.0574,0.1256 v 0 l 0.0904,0.1044 v 0 l 0.1162,0.0747 v 0 0 l 0.1325,0.0389 v 0 h 0.1382 v 0 l 0.1325,-0.0389 0.1162,-0.0747 0.0904,-0.1044 0.0574,-0.1256 0.0196,-0.1367 -0.0196,-0.1367 -0.0574,-0.1256 v 0 0 0 l -0.0904,-0.1044 v 0 l -0.1162,-0.0747 v 0 0 l -0.1325,-0.0389 h -0.1382 l -0.1325,0.0389 v 0 0 l -0.1162,0.0747 v 0 l -0.0904,0.1044 v 0 l -0.0574,0.1256 v 0 l -0.0196,0.1367 h -2.0042 l 0.0136,-0.095 -0.003,-0.0205 -0.006,-0.0446 -0.0103,-0.0716 -0.0574,-0.1256 v 0 0 0 l -0.0904,-0.1044 v 0 l -0.1162,-0.0747 v 0 0 l -0.1325,-0.0389 h -0.1382 l -0.1325,0.0389 v 0 0 l -0.1162,0.0747 v 0 l -0.0904,0.1044 v 0 l -0.0574,0.1256 v 0 l -0.0196,0.1367 h -13.5175 l 0.0137,-0.0205 0.009,-0.0446 V 108.45 h 6.3119 v 0 l 0.0196,0.1367 v 0 l 0.0574,0.1256 v 0 l 0.0904,0.1044 v 0 l 0.1162,0.0747 v 0 0 l 0.1325,0.0389 v 0 h 0.1382 v 0 l 0.1325,-0.0389 0.1162,-0.0747 0.0904,-0.1044 0.0574,-0.1256 0.0196,-0.1367 -0.0196,-0.1367 -0.0289,-0.0633 h 9.8781 v 0 l 0.0196,0.1367 v 0 l 0.0574,0.1256 v 0 l 0.0904,0.1044 v 0 l 0.1162,0.0747 v 0 0 l 0.1325,0.0389 v 0 h 0.1382 v 0 l 0.001,-3e-4 h 4.8721 v 0 l 0.002,0.0235 0.017,0.1731 0.0574,0.189 v 1e-4 0 l 0.007,0.0129 0.0862,0.1613 0.1253,0.1527 0.1384,0.1136 0.007,0.005 0.008,0.006 0.1742,0.0931 0.1891,0.0574 0.1481,0.0146 0.0485,0.005 v 0 0 l 0.0448,-0.004 0.1518,-0.0149 0.1891,-0.0574 0.1742,-0.0931 0.1527,-0.1253 0.1253,-0.1527 0.0931,-0.1743 0.0574,-0.189 0.017,-0.1731 0.002,-0.0235 v 0 l -0.009,-0.0901 -0.0105,-0.1065 -0.0574,-0.1891 -0.0931,-0.1742 -0.006,-0.008 -0.0402,-0.049 -0.0787,-0.0959 -0.1527,-0.1253 -0.1742,-0.0931 -0.1891,-0.0574 -0.1966,-0.0194 v 0 l -0.1966,0.0194 -0.0715,0.0217 -0.1176,0.0357 v 0 0 l -0.1129,0.0603 -0.0613,0.0328 v 0 0 l -0.1527,0.1253 -0.1253,0.1527 v 0 0 l -0.009,0.0176 -0.0837,0.1566 v 0 0 l -0.0129,0.0424 -0.0445,0.1467 -0.0194,0.1966 h -4.8721 l 0.1315,-0.0386 0.1162,-0.0747 0.0904,-0.1044 0.0574,-0.1256 0.0196,-0.1367 -0.0196,-0.1367 -0.0574,-0.1256 v 0 0 0 L 148.6334,107.9 h 1.8325 v 0 l 0.0196,0.1367 v 0 l 0.0574,0.1256 v 0 l 0.0904,0.1044 v 0 l 0.1162,0.0747 v 0 0 l 0.1325,0.0389 v 0 h 0.1382 v 0 l 0.1325,-0.0389 0.1162,-0.0747 0.0904,-0.1044 0.0574,-0.1256 0.0196,-0.1367 -0.0196,-0.1367 -0.0574,-0.1256 v 0 0 0 l -0.0904,-0.1044 v 0 l -0.1162,-0.0747 v 0 0 l -0.1325,-0.0389 h -0.1382 l -0.1325,0.0389 v 0 0 l -0.1162,0.0747 v 0 l -0.0904,0.1044 v 0 l -0.0574,0.1256 v 0 l -0.0196,0.1367 h -1.8325 l -0.0145,-0.0167 v 0 l -0.1162,-0.0747 v 0 0 l -0.1325,-0.0389 h -0.1382 l -0.1325,0.0389 v 0 0 l -0.1162,0.0747 v 0 l -0.0904,0.1044 v 0 l -0.0574,0.1256 v 0 l -0.0196,0.1367 h -9.8781 l -0.0285,-0.0623 v 0 0 0 l -0.0904,-0.1044 v 0 l -0.1162,-0.0747 v 0 0 l -0.1325,-0.0389 h -0.1382 l -0.1325,0.0389 v 0 0 l -0.1162,0.0747 v 0 l -0.0904,0.1044 v 0 l -0.0574,0.1256 v 0 l -0.0196,0.1367 h -6.3119 v -1.1 h 16.5119 v 0 l 0.0196,0.1367 v 0 l 0.0574,0.1256 v 0 l 0.0904,0.1044 v 0 l 0.1162,0.0747 v 0 0 l 0.1325,0.0389 v 0 h 0.1382 v 0 l 0.1325,-0.0389 0.1162,-0.0747 0.0904,-0.1044 0.0574,-0.1256 0.0196,-0.1367 -0.004,-0.0251 -0.006,-0.0446 -0.01,-0.067 -0.0574,-0.1256 v 0 0 0 l -0.0904,-0.1044 v 0 l -0.1162,-0.0747 v 0 0 l -0.1325,-0.0389 h -0.1382 l -0.1325,0.0389 v 0 0 l -0.1162,0.0747 v 0 l -0.0904,0.1044 v 0 l -0.0574,0.1256 v 0 l -0.0196,0.1367 H 130.704 v -0.0251 l -0.009,-0.0446 v 0 0 l -0.0338,-0.0505 v 0 l -0.0505,-0.0338 -0.0446,-0.009 v 0 h -1.7302 v 0 l -0.0334,0.007 -0.0112,0.002 v 0 0 l -0.0505,0.0338 v 0 l -0.0338,0.0505 v 0 l -0.009,0.0446 h -2.4971 v -0.5004 h 17.7818 v 0 l 0.0196,0.1367 v 0 l 0.0574,0.1256 v 0 l 0.0904,0.1044 v 0 l 0.1162,0.0747 v 0 0 l 0.1325,0.0389 v 0 h 0.1382 v 0 l 0.1325,-0.0389 0.1162,-0.0747 0.0904,-0.1044 0.0574,-0.1256 0.0196,-0.1367 -0.0196,-0.1367 -0.0574,-0.1256 v 0 0 0 l -0.0904,-0.1044 v 0 l -0.1162,-0.0747 v 0 0 l -0.1325,-0.0389 h -0.1382 l -0.1325,0.0389 v 0 0 l -0.1162,0.0747 v 0 l -0.0904,0.1044 v 0 l -0.0574,0.1256 v 0 l -0.0196,0.1367 h -17.7818 v -1.3269 h 2.4054 0.6178 l -0.0232,0.0866 v 0.1316 l 0.0232,0.0866 h -0.6178 l 0.005,0.0513 v 0 l 0.056,0.1968 0.0912,0.1832 v 0 l 0.1233,0.1632 v 0 l 0.1512,0.1379 0.174,0.1077 0.1908,0.0739 0.151,0.0282 v 0 -0.6178 l 0.0866,0.0232 h 0.1316 l 0.0866,-0.0232 v 0.6178 l 0.151,-0.0282 0.1908,-0.0739 0.174,-0.1077 0.1512,-0.1379 v 0 l 0.1233,-0.1632 v 0 l 0.0912,-0.1832 0.0559,-0.1968 h 1e-4 l 0.005,-0.0513 h -0.6178 l 0.0232,-0.0866 v -0.1316 l -0.0232,-0.0866 h 0.6178 l -0.005,-0.0513 h -1e-4 l -0.0559,-0.1968 -0.0912,-0.1832 v 0 L 130.556,104.95 h 5.06 v 0 l 0.0196,0.1367 v 0 l 0.0574,0.1256 v 0 l 0.0904,0.1044 v 0 l 0.1162,0.0747 v 0 0 l 0.1325,0.0389 v 0 h 0.1382 v 0 l 0.1325,-0.0389 0.1162,-0.0747 0.003,-0.003 0.0628,-0.0724 0.0247,-0.0286 0.0574,-0.1256 0.0196,-0.1367 -0.0196,-0.1367 -0.0574,-0.1256 v 0 0 0 l -0.0241,-0.0279 h 3.4219 v 0 l 0.0197,0.1367 v 0 l 0.0574,0.1256 v 0 l 0.0904,0.1044 v 0 l 0.0794,0.0511 0.0218,0.0313 -0.007,0.0375 -0.004,0.006 -0.0854,0.0986 -0.0574,0.1256 v 0 l -0.0196,0.1367 v 0 l 0.0196,0.1367 v 0 l 0.0574,0.1257 v 0 l 0.0904,0.1043 v 0 l 0.1162,0.0747 v 0 0 l 0.1325,0.0389 h 0.0278 l 0.0352,0.0146 0.0146,0.0352 -5e-4,0.007 -0.0167,0.1162 v 0 l 0.0196,0.1367 v 0 l 0.0574,0.1256 v 0 l 0.0904,0.1044 v 0 l 0.1162,0.0746 v 0 1e-4 l 0.1325,0.0389 v 0 h 0.1382 v 0 l 0.1325,-0.0389 0.1162,-0.0747 0.0904,-0.1044 0.0574,-0.1256 0.0196,-0.1367 -0.004,-0.025 -0.0107,-0.0747 -0.005,-0.037 -0.0152,-0.0334 -0.001,-0.0381 0.026,-0.0279 0.0347,-0.002 0.008,0.002 v 0 0 0 h 0.1382 v 0 l 0.1325,-0.0389 0.1162,-0.0747 0.009,-0.01 0.034,-0.0171 0.0362,0.0121 0.0167,0.0305 0.015,0.1045 v 0 l 0.0574,0.1256 v 0 l 0.0904,0.1044 v 0 l 0.1162,0.0747 v 0 0 l 0.1325,0.0389 v 0 h 0.1382 v 0 l 0.1325,-0.0389 0.1162,-0.0747 0.0904,-0.1044 0.0574,-0.1256 0.0196,-0.1367 -5e-4,-0.004 -0.0138,-0.0962 v 0 h 0.1559 v 0 l 0.0196,0.1367 v 0 l 0.0574,0.1256 v 0 l 0.0904,0.1044 v 0 l 0.1162,0.0747 v 0 0 l 0.1325,0.0389 v 0 h 0.1382 v 0 l 0.1325,-0.0389 0.1162,-0.0747 0.004,-0.004 0.0283,-0.0326 0.0583,-0.0674 0.0574,-0.1256 0.0196,-0.1367 -0.0196,-0.1367 -0.0574,-0.1256 v 0 0 0 l -0.0718,-0.0829 h 0.3641 v 0 l 0.0197,0.1367 v 0 l 0.0574,0.1256 v 0 l 0.0904,0.1044 v 0 l 0.1162,0.0747 v 0 0 l 0.1325,0.0389 v 0 h 0.1381 v 0 l 0.1325,-0.0389 0.1162,-0.0747 0.0187,-0.0215 0.0257,-0.0297 0.0461,-0.0532 0.0573,-0.1256 0.0197,-0.1367 -0.002,-0.0118 -0.004,-0.028 h 7.9247 v 0.7226 h 0.6272 l -0.0232,0.0866 v 0.1316 l 0.0232,0.0866 h -0.6272 v 0.7226 l 0.0147,0.0741 v 0 l 0.0562,0.084 v 0 l 0.084,0.0562 v 0 l 0.0741,0.0147 h 0.7226 v -0.6272 l 0.0866,0.0232 h 0.1316 l 0.0866,-0.0232 v 0.6272 h 0.7226 v 0 l 0.0741,-0.0147 v 0 l 0.084,-0.0562 v 0 l 0.0562,-0.084 v 0 l 0.0147,-0.0741 v 0 -0.7226 h -0.6272 l 0.0232,-0.0866 v -0.1316 l -0.0232,-0.0866 h 0.6272 v -0.7226 0 l -0.0147,-0.0741 v 0 l -0.0562,-0.084 v 0 l -0.084,-0.0562 v 0 l -0.0741,-0.0147 h -0.7226 v 0.6272 l -0.0866,-0.0232 h -0.1316 l -0.0866,0.0232 v -0.6272 h -0.7226 v 0 l -0.0741,0.0147 v 0 l -0.084,0.0562 v 0 l -0.0562,0.084 v 0 l -0.0147,0.0741 h -7.9247 l -0.008,-0.0564 -0.006,-0.0405 -0.0573,-0.1256 v 0 0 0 l -0.0905,-0.1044 v 0 l -0.1162,-0.0747 v 0 0 l -0.1325,-0.0389 h -0.1381 l -0.1325,0.0389 v 0 0 l -0.1162,0.0747 v 0 l -0.0904,0.1044 v 0 l -0.0574,0.1256 v 0 l -0.0197,0.1367 h -0.3641 l -0.0186,-0.0215 v 0 l -0.1162,-0.0747 v 0 0 l -0.1325,-0.0389 h -0.1382 l -0.1325,0.0389 v 0 0 l -0.1162,0.0747 v 0 l -0.0904,0.1044 v 0 l -0.0574,0.1256 v 0 l -0.0196,0.1367 h -0.1559 l -0.005,-0.0367 -0.0574,-0.1256 v 0 0 0 l -0.0904,-0.1044 v 0 l -0.1162,-0.0747 v 0 0 l -0.1325,-0.0389 h -0.1382 l -0.1325,0.0389 v 0 0 l -0.1162,0.0747 v 0 l -0.009,0.01 -0.034,0.0171 -0.0362,-0.0121 -0.0167,-0.0305 -0.004,-0.0264 -0.0112,-0.0781 -0.0574,-0.1256 v 0 0 0 l -0.0904,-0.1044 v 0 l -0.1162,-0.0747 v 0 0 l -0.1325,-0.0389 h -0.1382 l -0.1325,0.0389 v 0 0 l -0.1162,0.0747 v 0 l -0.0904,0.1044 v 0 l -0.0574,0.1256 v 0 l -0.0196,0.1367 v 0 l 0.0193,0.1342 3e-4,0.002 0.0152,0.0333 0.001,0.0381 -0.026,0.0279 -0.0347,0.002 -0.008,-0.002 v 0 h -0.0278 l -0.0352,-0.0146 -0.0146,-0.0352 5e-4,-0.007 0.0167,-0.1162 v 0 l -0.01,-0.0697 -0.01,-0.067 -0.0574,-0.1256 v 0 0 0 l -0.0904,-0.1044 v 0 l -0.0795,-0.051 -0.0217,-0.0313 0.007,-0.0376 0.004,-0.006 0.0106,-0.0122 0.0749,-0.0865 0.0574,-0.1256 0.0196,-0.1367 -0.0196,-0.1367 -0.0574,-0.1256 v 0 0 0 l -0.0905,-0.1044 v 0 l -0.1161,-0.0747 v 0 0 l -0.1326,-0.0389 h -0.1381 l -0.1325,0.0389 v 0 0 l -0.1162,0.0747 v 0 l -0.0904,0.1044 v 0 l -0.0574,0.1256 v 0 l -0.0197,0.1367 h -3.4219 l -0.0663,-0.0765 v 0 l -0.1162,-0.0747 v 0 0 l -0.1325,-0.0389 h -0.1382 l -0.1325,0.0389 v 0 0 l -0.1162,0.0747 v 0 l -0.0904,0.1044 v 0 l -0.0574,0.1256 v 0 l -0.0196,0.1367 h -5.06 l -0.0354,-0.0469 v 0 l -0.1512,-0.1379 -0.174,-0.1077 -0.1908,-0.0739 -0.151,-0.0282 v 0.6178 l -0.0866,-0.0232 h -0.1316 l -0.0866,0.0232 v -0.6178 0 l -0.151,0.0282 -0.1908,0.0739 -0.174,0.1077 -0.1512,0.1379 v 0 l -0.1233,0.1632 v 0 l -0.0912,0.1832 -0.056,0.1968 v 0 l -0.005,0.0513 h -2.4054 v -1.8594 h 14.9265 v 0 l 0.0197,0.1367 v 0 l 0.0574,0.1257 v 0 l 0.0904,0.1043 v 1e-4 l 0.1162,0.0746 v 0 0 l 0.1325,0.0389 v 0 h 0.1381 v 0 l 0.1325,-0.0389 0.1162,-0.0746 0.0905,-0.1044 0.0574,-0.1257 0.0179,-0.1249 h 3.8195 v 0 l 0.0196,0.1367 v 0 l 0.0574,0.1256 v 0 l 0.0904,0.1044 v 0 l 0.1162,0.0747 v 0 0 l 0.1325,0.0389 v 0 h 0.1382 v 0 l 0.1325,-0.0389 0.1162,-0.0747 0.0904,-0.1044 0.0574,-0.1256 0.0196,-0.1367 -0.0196,-0.1367 -0.0574,-0.1256 v 0 0 0 l -0.0904,-0.1044 v 0 l -0.1162,-0.0747 v 0 0 l -0.1325,-0.0389 h -0.1382 l -0.1325,0.0389 v 0 0 l -0.1162,0.0747 v 0 l -0.0904,0.1044 v 0 l -0.0574,0.1256 v 0 l -0.0196,0.1367 h -3.8195 l 0.002,-0.0118 -0.0196,-0.1367 -0.0574,-0.1256 v 0 0 0 l -0.0905,-0.1044 v 0 l -0.1162,-0.0747 v 0 0 l -0.1325,-0.0389 h -0.1381 l -0.1325,0.0389 v 0 0 l -0.1162,0.0747 v 0 l -0.0904,0.1044 v 0 l -0.0574,0.1256 v 0 l -0.0197,0.1367 h -14.9265 v -1.1437 h 15.0148 v 0 l 0.0196,0.1367 v 0 l 0.0574,0.1256 v 0 l 0.0904,0.1044 v 0 l 0.1162,0.0747 v 0 0 l 0.1325,0.0389 v 0 h 0.1382 v 0 l 0.1325,-0.0389 0.1162,-0.0747 0.0748,-0.0863 h 2.6603 v 0 l 0.0197,0.1367 v 0 l 0.0574,0.1256 v 0 l 0.0904,0.1044 v 0 l 0.1162,0.0747 v 0 0 l 0.1325,0.0389 v 0 h 0.1381 v 0 l 0.1325,-0.0389 0.1162,-0.0747 0.0905,-0.1044 0.0574,-0.1256 0.0196,-0.1367 -0.003,-0.0181 -0.004,-0.0275 -0.0131,-0.0911 -0.0574,-0.1256 v 0 0 0 l -0.0905,-0.1044 v 0 l -0.1162,-0.0747 v 0 0 l -0.1325,-0.0389 h -0.1381 l -0.1325,0.0389 v 0 0 l -0.1162,0.0747 v 0 l -0.0904,0.1044 v 0 l -0.0574,0.1256 v 0 l -0.0197,0.1367 h -2.6603 l 0.0156,-0.0181 0.0574,-0.1256 0.0196,-0.1367 -0.0196,-0.1367 -0.0574,-0.1256 v 0 0 0 l -0.0904,-0.1044 v 0 l -0.1162,-0.0747 v 0 0 l -0.1325,-0.0389 h -0.1382 l -0.1325,0.0389 v 0 0 l -0.1162,0.0747 v 0 l -0.0904,0.1044 v 0 l -0.0574,0.1256 v 0 l -0.0196,0.1367 h -15.0148 v -2.3365 h 9.1227 v 0 l 0.0197,0.1367 v 0 l 0.0573,0.1256 v 0 l 0.0905,0.1044 v 0 l 0.1162,0.0746 v 0 0 l 0.1325,0.039 v 0 h 0.1381 v 0 l 0.1325,-0.039 0.1162,-0.0746 0.0905,-0.1044 0.0573,-0.1256 0.0197,-0.1367 -0.001,-0.008 v 0 h 3.8228 v 0 l 0.0196,0.1367 v 0 l 0.0574,0.1256 v 0 l 0.0904,0.1044 v 0 l 0.1162,0.0747 v 0 0 l 0.1325,0.0389 v 0 h 0.1382 v 0 l 0.1325,-0.0389 0.1162,-0.0747 0.0482,-0.0556 0.034,-0.0171 0.0362,0.0121 0.005,0.005 0.0482,0.0556 v 0 l 0.1162,0.0747 v 0 0 l 0.1325,0.0389 v 0 h 0.1382 v 0 l 0.1325,-0.0389 0.1162,-0.0747 0.0904,-0.1044 0.0574,-0.1256 0.0196,-0.1367 -0.0196,-0.1367 -0.0574,-0.1256 v 0 0 0 l -0.0904,-0.1044 v 0 l -0.1162,-0.0747 v 0 0 l -0.1325,-0.0389 h -0.1382 l -0.1325,0.0389 v 0 0 l -0.1162,0.0747 v 0 l -0.0482,0.0556 -0.034,0.0171 -0.0362,-0.0121 -0.005,-0.005 -0.0482,-0.0556 v 0 l -0.1162,-0.0747 v 0 0 l -0.1325,-0.0389 h -0.1382 l -0.1325,0.0389 v 0 0 l -0.1162,0.0747 v 0 l -0.0904,0.1044 v 0 l -0.0574,0.1256 v 0 l -0.0196,0.1367 h -3.8228 l -0.005,-0.0376 -0.0131,-0.0912 -0.0573,-0.1256 v 0 0 0 l -0.0905,-0.1044 v 0 l -0.1162,-0.0746 v 0 0 l -0.1325,-0.0389 h -0.138 l -0.1325,0.0389 v 0 0 l -0.1162,0.0746 v 0 l -0.0905,0.1044 v 0 l -0.0573,0.1256 v 0 l -0.0197,0.1368 h -9.1227 V 99.05 h 13.9148 v 0 l 0.0196,0.1367 v 0 l 0.0574,0.1256 v 0 l 0.0904,0.1044 v 0 l 0.1162,0.0747 v 0 0 l 0.1325,0.0389 v 0 h 0.1382 v 0 l 0.1325,-0.0389 0.1162,-0.0747 0.0904,-0.1044 0.0574,-0.1256 0.0196,-0.1367 -0.0196,-0.1367 -0.0574,-0.1256 v 0 0 0 l -0.0904,-0.1044 v 0 l -0.1162,-0.0747 v 0 0 l -0.1325,-0.0389 h -0.1382 l -0.1325,0.0389 v 0 0 l -0.1162,0.0747 v 0 l -0.0904,0.1044 v 0 l -0.0574,0.1256 v 0 l -0.0196,0.1367 h -13.9148 v -1.3138 h 11.8148 v 0 l 0.0196,0.1367 v 0 l 0.0574,0.1256 v 0 l 0.0904,0.1044 v 0 l 0.1162,0.0747 v 0 0 l 0.1325,0.0389 h 0.0468 l 0.0352,0.0146 0.0146,0.0352 -5e-4,0.0071 -0.0141,0.098 v 0 l 0.0197,0.1367 v 0 l 0.0573,0.1256 v 0 l 0.0905,0.1044 v 0 l 0.1162,0.0746 v 0 0 l 0.1325,0.039 v 0 h 0.1381 v 0 l 0.1325,-0.039 0.1162,-0.0746 0.0905,-0.1044 0.0573,-0.1256 0.0197,-0.1367 -0.0197,-0.1368 -0.0573,-0.1256 v 0 0 0 l -0.0905,-0.1044 v 0 L 139.2008,97.93 v 0 0 l -0.1325,-0.0389 v 0 h -0.0468 l -0.0352,-0.0146 -0.0146,-0.0352 6e-4,-0.0071 0.014,-0.098 v 0 l -0.006,-0.0456 -0.0131,-0.0911 -0.0574,-0.1256 v 0 0 0 l -0.0904,-0.1044 v 0 l -0.1162,-0.0747 v 0 0 l -0.1325,-0.0389 h -0.1382 L 138.3,97.2948 v 0 0 l -0.1162,0.0747 v 0 l -0.0904,0.1044 v 0 l -0.0574,0.1256 v 0 l -0.0196,0.1367 h -11.8148 v -0.8898 h 9.8137 v 0 l 0.0196,0.1367 v 0 l 0.0574,0.1256 v 0 l 0.0904,0.1044 v 0 l 0.1162,0.0747 v 0 0 l 0.1325,0.0389 v 0 h 0.1382 v 0 l 0.1325,-0.0389 0.1162,-0.0747 0.0904,-0.1044 0.0574,-0.1256 0.0196,-0.1367 v 0 h 5.1296 v 0 l 0.0196,0.1367 v 0 l 0.0574,0.1256 v 0 l 0.0904,0.1044 v 0 l 0.1162,0.0747 v 0 0 l 0.1325,0.0389 v 0 h 0.1382 v 0 l 0.1325,-0.0389 0.1162,-0.0747 0.0904,-0.1044 0.0574,-0.1256 0.0196,-0.1367 -0.0196,-0.1367 -0.0574,-0.1256 v 0 0 0 l -0.0904,-0.1044 v 0 l -0.1162,-0.0747 v 0 0 l -0.1325,-0.0389 h -0.1382 l -0.1325,0.0389 v 0 0 l -0.1162,0.0747 v 0 l -0.0904,0.1044 v 0 l -0.0574,0.1256 v 0 l -0.0196,0.1367 h -5.1296 l -0.0196,-0.1367 -0.0574,-0.1256 v 0 0 0 l -0.0904,-0.1044 v 0 l -0.1162,-0.0747 v 0 0 l -0.1325,-0.0389 h -0.1382 l -0.1325,0.0389 v 0 0 l -0.1162,0.0747 v 0 l -0.0904,0.1044 v 0 l -0.0574,0.1256 v 0 l -0.0196,0.1367 h -9.8137 V 94.59 h 4.7322 l 0.0194,0.1966 0.0574,0.1891 0.0931,0.1742 0.1253,0.1527 0.1527,0.1253 0.1743,0.0931 0.189,0.0574 0.1481,0.0146 0.0485,0.0048 v 0 0 l 0.0448,-0.0045 0.1518,-0.0149 0.1891,-0.0574 0.1742,-0.0931 0.1527,-0.1253 0.1253,-0.1527 0.0931,-0.1742 0.0574,-0.1891 0.0194,-0.1966 h 0.5244 l 0.0194,0.1966 0.0574,0.1891 0.0931,0.1742 0.1253,0.1527 0.1527,0.1253 0.1742,0.0931 0.1891,0.0574 0.1481,0.0146 0.0485,0.0048 v 0 0 l 0.0448,-0.0045 0.1518,-0.0149 0.189,-0.0574 0.1743,-0.0931 0.1527,-0.1253 0.1253,-0.1527 0.0931,-0.1742 0.0574,-0.1891 0.0194,-0.1966 h 0.5244 l 0.0194,0.1966 0.0574,0.1891 0.0931,0.1742 0.1253,0.1527 0.1527,0.1253 0.1742,0.0931 0.1891,0.0574 0.1481,0.0146 0.0485,0.0048 v 0 0 l 0.0448,-0.0045 0.1518,-0.0149 0.189,-0.0574 0.1743,-0.0931 0.1527,-0.1253 0.1253,-0.1527 0.0931,-0.1742 0.0574,-0.1891 0.0194,-0.1966 h 0.5244 l 0.0194,0.1966 0.0574,0.1891 0.0931,0.1742 0.1253,0.1527 0.1527,0.1253 0.1742,0.0931 0.1891,0.0574 0.1481,0.0146 0.0485,0.0048 v 0 0 l 0.0448,-0.0045 0.1518,-0.0149 0.189,-0.0574 0.1743,-0.0931 0.1527,-0.1253 0.1253,-0.1527 0.0931,-0.1742 0.0574,-0.1891 0.0194,-0.1966 h 0.5244 l 0.0194,0.1966 0.0574,0.1891 0.0931,0.1742 0.1253,0.1527 0.1527,0.1253 0.1743,0.0931 0.189,0.0574 0.1481,0.0146 0.0485,0.0048 v 0 0 l 0.0448,-0.0045 0.1518,-0.0149 0.1891,-0.0574 0.1742,-0.0931 0.1527,-0.1253 0.1253,-0.1527 0.0931,-0.1742 0.0574,-0.1891 0.0194,-0.1966 h 0.5244 l 0.0194,0.1966 0.0574,0.1891 0.0931,0.1742 0.1253,0.1527 0.1527,0.1253 0.1742,0.0931 0.1891,0.0574 0.1481,0.0146 0.0485,0.0048 v 0 0 l 0.0448,-0.0045 0.1518,-0.0149 0.189,-0.0574 0.1743,-0.0931 0.1527,-0.1253 0.1253,-0.1527 0.0931,-0.1742 0.0574,-0.1891 0.0194,-0.1966 -0.0151,-0.1524 h 0.4527 0.6178 l -0.0232,0.0866 v 0.1316 l 0.0232,0.0866 h -0.6178 l 0.005,0.0513 v 0 l 0.056,0.1968 0.0912,0.1832 v 0 l 0.1233,0.1632 v 0 l 0.1512,0.1379 0.174,0.1077 0.1908,0.0739 0.151,0.0282 v 0 -0.6178 l 0.0866,0.0232 h 0.1316 l 0.0866,-0.0232 v 0.6178 l 0.151,-0.0282 0.1908,-0.0739 0.174,-0.1077 0.1512,-0.1379 v 0 l 0.1233,-0.1632 v 0 l 0.0912,-0.1832 0.0559,-0.1968 h 1e-4 l 0.005,-0.0513 h -0.6178 l 0.0232,-0.0866 v -0.1316 l -0.0232,-0.0866 h 0.6178 0.3508 0.6178 l -0.0232,0.0866 v 0.1316 l 0.0232,0.0866 h -0.6178 l 0.005,0.0513 v 0 l 0.056,0.1968 0.0912,0.1832 v 0 l 0.1233,0.1632 v 0 l 0.1512,0.1379 0.174,0.1077 0.1908,0.0739 0.151,0.0282 v 0 -0.6178 l 0.0866,0.0232 h 0.1316 l 0.0866,-0.0232 v 0.6178 l 0.151,-0.0282 0.1908,-0.0739 0.174,-0.1077 0.1512,-0.1379 v 0 l 0.1233,-0.1632 v 0 l 0.0912,-0.1832 0.0559,-0.1968 h 1e-4 l 0.005,-0.0513 h -0.6178 l 0.0232,-0.0866 v -0.1316 l -0.0232,-0.0866 h 0.6178 0.3508 0.6178 l -0.0232,0.0866 v 0.1316 l 0.0232,0.0866 h -0.6178 l 0.005,0.0513 v 0 l 0.056,0.1968 0.0912,0.1832 v 0 l 0.1233,0.1632 v 0 l 0.1512,0.1379 0.174,0.1077 0.1908,0.0739 0.151,0.0282 v 0 -0.6178 l 0.0866,0.0232 h 0.1316 l 0.0866,-0.0232 v 0.6178 l 0.151,-0.0282 0.1908,-0.0739 0.174,-0.1077 0.1512,-0.1379 v 0 l 0.1233,-0.1632 v 0 l 0.0912,-0.1832 0.0559,-0.1968 h 1e-4 l 0.005,-0.0513 h -0.6178 l 0.0232,-0.0866 V 94.59 h 1.0322 l 0.0194,0.1966 0.0574,0.1891 0.0931,0.1742 0.1253,0.1527 0.1527,0.1253 0.1742,0.0931 0.1891,0.0574 0.1481,0.0146 0.0485,0.0048 v 0 0 l 0.0448,-0.0045 0.1518,-0.0149 0.189,-0.0574 0.1743,-0.0931 0.1527,-0.1253 0.1253,-0.1527 0.0931,-0.1742 0.0574,-0.1891 0.0194,-0.1966 -0.0194,-0.1966 -0.0574,-0.1891 -0.0931,-0.1742 -0.1253,-0.1527 -0.1527,-0.1253 L 155.189,93.659 155,93.6016 154.8034,93.5822 v 0 l -0.1966,0.0194 -0.0823,0.025 -0.1068,0.0324 v 0 0 l -0.0865,0.0462 -0.0877,0.0469 v 0 0 l -0.1527,0.1253 -0.1253,0.1527 -0.0931,0.1742 v 0 0 l -0.0574,0.1891 -0.0194,0.1966 h -1.0322 v -0.0658 l -0.0232,-0.0866 h 0.6178 l -0.005,-0.0513 h -1e-4 l -0.0559,-0.1968 -0.0912,-0.1832 v 0 l -0.1233,-0.1632 v 0 l -0.1512,-0.1379 -0.174,-0.1077 -0.1908,-0.0739 -0.151,-0.0282 v 0.6178 L 152.3269,94.09 h -0.1316 l -0.0866,0.0232 v -0.6178 0 l -0.151,0.0282 -0.1908,0.0739 -0.174,0.1077 -0.1512,0.1379 v 0 l -0.1233,0.1632 v 0 l -0.0912,0.1832 -0.056,0.1968 v 0 l -0.005,0.0513 h -0.3508 l -0.005,-0.0513 h -10e-5 l -0.0559,-0.1968 -0.0912,-0.1832 v 0 l -0.1233,-0.1632 v 0 l -0.1512,-0.1379 -0.174,-0.1077 -0.1908,-0.0739 -0.151,-0.0282 v 0.6178 l -0.086,-0.0232 h -0.1316 l -0.0866,0.0232 v -0.6178 0 l -0.151,0.0282 -0.1908,0.0739 -0.174,0.1077 -0.1512,0.1379 v 0 l -0.1233,0.1632 v 0 l -0.0912,0.1832 -0.056,0.1968 v 0 l -0.005,0.0513 h -0.3508 l -0.005,-0.0513 h -1e-4 l -0.0559,-0.1968 -0.0912,-0.1832 v 0 l -0.1233,-0.1632 v 0 l -0.1512,-0.1379 -0.174,-0.1077 -0.1908,-0.0739 -0.151,-0.0282 v 0.6178 l -0.086,-0.0232 h -0.1316 l -0.0866,0.0232 v -0.6178 0 l -0.151,0.0282 -0.1908,0.0739 -0.174,0.1077 -0.1512,0.1379 v 0 l -0.1233,0.1632 v 0 l -0.0912,0.1832 -0.056,0.1968 v 0 l -0.005,0.0513 h -0.4527 l -0.004,-0.0442 -0.0574,-0.1891 -0.0931,-0.1742 -0.1253,-0.1527 -0.1527,-0.1253 -0.1743,-0.0931 -0.189,-0.0574 -0.1966,-0.0194 v 0 l -0.1966,0.0194 -0.0823,0.025 -0.1068,0.0324 v 0 0 l -0.0865,0.0462 -0.0877,0.0469 v 0 0 l -0.1527,0.1253 -0.1253,0.1527 -0.0931,0.1742 v 0 0 l -0.0574,0.1891 -0.0194,0.1966 h -0.5244 l -0.0194,-0.1966 -0.0574,-0.1891 -0.0931,-0.1742 -0.1253,-0.1527 -0.1527,-0.1253 -0.1742,-0.0931 -0.1891,-0.0574 -0.1966,-0.0194 v 0 l -0.1966,0.0194 -0.0823,0.025 -0.1067,0.0324 h -1e-4 v 0 l -0.0865,0.0462 -0.0877,0.0469 v 0 0 l -0.1527,0.1253 -0.1253,0.1527 -0.0931,0.1742 v 0 0 l -0.0574,0.1891 -0.0194,0.1966 h -0.5244 l -0.0194,-0.1966 -0.0574,-0.1891 -0.0931,-0.1742 -0.1253,-0.1527 -0.1527,-0.1253 -0.1743,-0.0931 -0.189,-0.0574 -0.1966,-0.0194 v 0 l -0.1966,0.0194 -0.0823,0.025 -0.1068,0.0324 v 0 0 l -0.0865,0.0462 -0.0877,0.0469 v 0 0 l -0.1527,0.1253 -0.1253,0.1527 -0.0931,0.1742 v 0 0 l -0.0574,0.1891 -0.0194,0.1966 h -0.5244 l -0.0194,-0.1966 -0.0574,-0.1891 -0.0931,-0.1742 -0.1253,-0.1527 -0.1527,-0.1253 -0.1743,-0.0931 -0.189,-0.0574 -0.1966,-0.0194 v 0 l -0.1966,0.0194 -0.0823,0.025 -0.1068,0.0324 v 0 0 l -0.0865,0.0462 -0.0877,0.0469 v 0 0 l -0.1527,0.1253 -0.1253,0.1527 -0.0931,0.1742 v 0 0 l -0.0574,0.1891 -0.0194,0.1966 h -0.5244 l -0.0194,-0.1966 -0.0574,-0.1891 -0.0931,-0.1742 -0.1253,-0.1527 -0.1527,-0.1253 -0.1743,-0.0931 -0.189,-0.0574 -0.1966,-0.0194 v 0 l -0.1966,0.0194 -0.0823,0.025 -0.1068,0.0324 v 0 0 l -0.0865,0.0462 -0.0877,0.0469 v 0 0 l -0.1527,0.1253 -0.1253,0.1527 -0.0931,0.1742 v 0 0 l -0.0574,0.1891 -0.0194,0.1966 h -0.5244 l -0.0194,-0.1966 -0.0574,-0.1891 -0.0931,-0.1742 -0.1253,-0.1527 -0.1527,-0.1253 -0.1742,-0.0931 -0.1891,-0.0574 -0.1966,-0.0194 v 0 l -0.1966,0.0194 -0.0823,0.025 -0.1067,0.0324 h -1e-4 v 0 l -0.0865,0.0462 -0.0877,0.0469 v 0 0 l -0.1527,0.1253 -0.1253,0.1527 -0.0931,0.1742 v 0 0 l -0.0574,0.1891 -0.0194,0.1966 h -4.7322 v -2.6924 h 4.6454 0.6178 l -0.0232,0.0866 v 0.1316 l 0.0232,0.0866 h -0.6178 l 0.005,0.0513 v 0 l 0.056,0.1968 0.0912,0.1832 v 0 l 0.1233,0.1632 v 0 l 0.1512,0.1379 0.174,0.1077 0.1908,0.0739 0.151,0.0282 v 0 -0.6178 l 0.0866,0.0232 h 0.1316 l 0.0866,-0.0232 v 0.6178 l 0.151,-0.0282 0.1908,-0.0739 0.174,-0.1077 0.1512,-0.1379 v 0 l 0.1233,-0.1632 v 0 l 0.0912,-0.1832 0.0559,-0.1968 h 10e-5 l 0.005,-0.0513 h -0.6178 l 0.0232,-0.0866 V 92.05 h 1.0322 l 0.0194,0.1966 0.0574,0.189 0.0931,0.1743 0.1253,0.1527 0.1527,0.1253 0.1742,0.0931 0.1891,0.0574 0.1473,0.0145 0.0493,0.0049 v 0 0 l 0.0448,-0.0045 0.1518,-0.0149 0.189,-0.0574 0.1743,-0.0931 0.1527,-0.1253 0.1253,-0.1527 0.0931,-0.1743 0.0574,-0.189 0.0194,-0.1966 h 0.5244 l 0.0194,0.1966 0.0574,0.189 0.0931,0.1743 0.1253,0.1527 0.1527,0.1253 0.1742,0.0931 0.1891,0.0574 0.1473,0.0145 0.0493,0.0049 v 0 0 l 0.0448,-0.0045 0.1518,-0.0149 0.189,-0.0574 0.1743,-0.0931 0.1527,-0.1253 0.1253,-0.1527 0.0931,-0.1743 0.0574,-0.189 0.0194,-0.1966 h 0.5244 l 0.0194,0.1966 0.0574,0.189 0.0931,0.1743 0.1253,0.1527 0.1527,0.1253 0.1742,0.0931 0.1891,0.0574 0.1473,0.0145 0.0493,0.0049 v 0 0 l 0.0448,-0.0045 0.1518,-0.0149 0.189,-0.0574 0.1743,-0.0931 0.1527,-0.1253 0.1253,-0.1527 0.0931,-0.1743 0.0574,-0.189 0.0194,-0.1966 -0.0151,-0.1524 h 0.4527 0.6178 l -0.0232,0.0866 v 0.1316 l 0.0232,0.0866 h -0.6178 l 0.005,0.0513 v 0 l 0.056,0.1968 0.0912,0.1832 v 0 l 0.1233,0.1632 v 0 l 0.1512,0.1379 0.174,0.1077 0.1908,0.0739 0.151,0.0282 v 0 -0.6178 l 0.0866,0.0232 h 0.1316 l 0.0866,-0.0232 v 0.6178 l 0.151,-0.0282 0.1908,-0.0739 0.174,-0.1077 0.1512,-0.1379 v 0 l 0.1233,-0.1632 v 0 l 0.0912,-0.1832 0.0559,-0.1968 h 1e-4 l 0.005,-0.0513 h -0.6178 l 0.0232,-0.0866 v -0.1316 l -0.0232,-0.0866 h 0.6178 0.3508 0.6178 l -0.0232,0.0866 v 0.1316 l 0.0232,0.0866 h -0.6178 l 0.005,0.0513 v 0 l 0.056,0.1968 0.0912,0.1832 v 0 l 0.1233,0.1632 v 0 l 0.1512,0.1379 0.174,0.1077 0.1908,0.0739 0.151,0.0282 v 0 -0.6178 l 0.0866,0.0232 h 0.1316 l 0.0866,-0.0232 v 0.6178 l 0.151,-0.0282 0.1908,-0.0739 0.174,-0.1077 0.1512,-0.1379 v 0 l 0.1233,-0.1632 v 0 l 0.0912,-0.1832 0.056,-0.1968 v 0 l 0.005,-0.0513 h -0.6178 l 0.0232,-0.0866 V 92.05 h 1.0322 l 0.0194,0.1966 0.0574,0.189 0.0931,0.1743 0.1253,0.1527 0.1527,0.1253 0.1742,0.0931 0.1891,0.0574 0.1473,0.0145 0.0493,0.0049 v 0 0 l 0.0448,-0.0045 0.1518,-0.0149 0.189,-0.0574 0.1743,-0.0931 0.1527,-0.1253 0.1253,-0.1527 0.0931,-0.1743 0.0574,-0.189 0.0194,-0.1966 h 0.5244 l 0.0194,0.1966 0.0574,0.189 0.0931,0.1743 0.1253,0.1527 0.1527,0.1253 0.1742,0.0931 0.1891,0.0574 0.1473,0.0145 0.0493,0.0049 v 0 0 l 0.0448,-0.0045 0.1518,-0.0149 0.1891,-0.0574 0.1742,-0.0931 0.1527,-0.1253 0.1253,-0.1527 0.0931,-0.1743 0.0574,-0.189 0.0194,-0.1966 h 0.5244 l 0.0194,0.1966 0.0574,0.189 0.0931,0.1743 0.1253,0.1527 0.1527,0.1253 0.1743,0.0931 0.189,0.0574 0.1473,0.0145 0.0493,0.0049 v 0 0 l 0.0448,-0.0045 0.1518,-0.0149 0.189,-0.0574 0.1743,-0.0931 0.1527,-0.1253 0.1253,-0.1527 0.0931,-0.1743 0.0574,-0.189 0.0194,-0.1966 -0.0194,-0.1966 -0.0574,-0.1891 -0.0931,-0.1742 -0.1253,-0.1527 -0.1527,-0.1253 -0.0508,-0.0272 h 1.028 v 1.7301 10e-5 l 0.009,0.0446 v 0 l 0.0338,0.0505 v 0 l 0.0505,0.0338 0.0446,0.0089 h 1.7302 l 0.0446,-0.0089 0.0505,-0.0338 0.0338,-0.0505 0.009,-0.0446 v -1.7302 l -0.009,-0.0446 v 0 0 l -0.0338,-0.0505 v 0 l -0.0505,-0.0338 -0.0446,-0.0089 v 0 h -1.7302 v 0 l -0.0334,0.0067 -0.0112,0.0022 v 0 0 l -0.0505,0.0338 v 0 l -0.0338,0.0505 v 0 l -0.009,0.0446 h -1.028 l -0.1235,-0.0659 -0.189,-0.0574 -0.1966,-0.0194 v 0 l -0.1966,0.0194 -0.0823,0.025 -0.1067,0.0324 h -1e-4 v 0 l -0.0865,0.0462 -0.0877,0.0469 v 0 0 l -0.1527,0.1253 -0.1253,0.1527 -0.0931,0.1742 v 0 0 l -0.0574,0.1891 -0.0194,0.1966 h -0.5244 l -0.0194,-0.1966 -0.0574,-0.1891 -0.0931,-0.1742 -0.1253,-0.1527 -0.1527,-0.1253 -0.1742,-0.0931 -0.1891,-0.0574 -0.1966,-0.0194 v 0 l -0.1966,0.0194 -0.0823,0.025 -0.1068,0.0324 v 0 0 l -0.0865,0.0462 -0.0877,0.0469 v 0 0 l -0.1527,0.1253 -0.1253,0.1527 -0.0931,0.1742 v 0 0 l -0.0574,0.1891 -0.0194,0.1966 h -0.5244 l -0.0194,-0.1966 -0.0574,-0.1891 -0.0931,-0.1742 -0.1253,-0.1527 -0.1527,-0.1253 -0.1743,-0.0931 -0.189,-0.0574 -0.1966,-0.0194 v 0 l -0.1966,0.0194 -0.0823,0.025 -0.1068,0.0324 v 0 0 l -0.0865,0.0462 -0.0877,0.0469 v 0 0 l -0.1527,0.1253 -0.1253,0.1527 -0.0931,0.1742 v 0 0 l -0.0574,0.1891 -0.0194,0.1966 h -1.0322 v -0.0658 l -0.0232,-0.0866 h 0.6178 l -0.005,-0.0513 v 0 l -0.056,-0.1968 -0.0912,-0.1832 v 0 l -0.1233,-0.1632 v 0 l -0.1512,-0.1379 -0.174,-0.1077 -0.1908,-0.0739 -0.151,-0.0282 v 0.6178 L 144.7069,91.55 h -0.1316 l -0.0866,0.0232 v -0.6178 0 l -0.151,0.0282 -0.1908,0.0739 -0.174,0.1077 -0.1512,0.1379 v 0 l -0.1233,0.1632 v 0 l -0.0912,0.1832 -0.056,0.1968 v 0 l -0.005,0.0513 h -0.3508 l -0.005,-0.0513 h -1e-4 l -0.0559,-0.1968 -0.0912,-0.1832 v 0 l -0.1233,-0.1632 v 0 l -0.1512,-0.1379 -0.174,-0.1077 -0.1908,-0.0739 -0.151,-0.0282 v 0.6178 l -0.086,-0.0232 h -0.1316 l -0.0866,0.0232 v -0.6178 0 l -0.151,0.0282 -0.1908,0.0739 -0.174,0.1077 -0.1512,0.1379 v 0 l -0.1233,0.1632 v 0 l -0.0912,0.1832 -0.056,0.1968 v 0 l -0.005,0.0513 h -0.4527 l -0.004,-0.0442 -0.0574,-0.1891 -0.0931,-0.1742 -0.1253,-0.1527 -0.1527,-0.1253 -0.1743,-0.0931 -0.189,-0.0574 -0.1966,-0.0194 v 0 l -0.1966,0.0194 -0.0823,0.025 -0.1068,0.0324 v 0 0 l -0.0865,0.0462 -0.0877,0.0469 v 0 0 l -0.1527,0.1253 -0.1253,0.1527 -0.0931,0.1742 v 0 0 l -0.0574,0.1891 -0.0194,0.1966 h -0.5244 l -0.0194,-0.1966 -0.0574,-0.1891 -0.0931,-0.1742 -0.1253,-0.1527 -0.1527,-0.1253 -0.1743,-0.0931 -0.189,-0.0574 -0.1966,-0.0194 v 0 l -0.1966,0.0194 -0.0823,0.025 -0.1068,0.0324 v 0 0 l -0.0865,0.0462 -0.0877,0.0469 v 0 0 l -0.1527,0.1253 -0.1253,0.1527 -0.0931,0.1742 v 0 0 l -0.0574,0.1891 -0.0194,0.1966 h -0.5244 l -0.0194,-0.1966 -0.0574,-0.1891 -0.0931,-0.1742 -0.1253,-0.1527 -0.1527,-0.1253 -0.1743,-0.0931 -0.189,-0.0574 -0.1966,-0.0194 v 0 l -0.1966,0.0194 -0.0823,0.025 -0.1068,0.0324 v 0 0 l -0.0865,0.0462 -0.0877,0.0469 v 0 0 l -0.1527,0.1253 -0.1253,0.1527 -0.0931,0.1742 v 0 0 l -0.0574,0.1891 -0.0194,0.1966 h -1.0322 v -0.0658 l -0.0232,-0.0866 h 0.6178 l -0.005,-0.0513 h -1e-4 l -0.0559,-0.1968 -0.0912,-0.1832 v 0 l -0.1233,-0.1632 v 0 l -0.1512,-0.1379 -0.174,-0.1077 -0.1908,-0.0739 -0.151,-0.0282 v 0.6178 L 132.0069,91.55 h -0.1316 l -0.0866,0.0232 v -0.6178 0 l -0.151,0.0282 -0.1908,0.0739 -0.174,0.1077 -0.1512,0.1379 v 0 l -0.1233,0.1632 v 0 l -0.0912,0.1832 -0.056,0.1968 v 0 l -0.005,0.0513 h -4.6454 v -1.5433 l 0.0146,-0.0352 0.0352,-0.0146 h 29.9993 z"
       id="path3825" />
  </g>
</svg>
