<?xml version="1.0" encoding="UTF-8" standalone="no"?>
<svg
   width="600"
   height="480"
   viewBox="0 0 600 480"
   version="1.1"
   id="svg449"
   sodipodi:docname="y.svg"
   inkscape:version="1.2.2 (b0a8486541, 2022-12-01)"
   xmlns:inkscape="http://www.inkscape.org/namespaces/inkscape"
   xmlns:sodipodi="http://sodipodi.sourceforge.net/DTD/sodipodi-0.dtd"
   xmlns:xlink="http://www.w3.org/1999/xlink"
   xmlns="http://www.w3.org/2000/svg"
   xmlns:svg="http://www.w3.org/2000/svg">
  <defs
     id="defs453">
    <defs
       id="defs34">
      <circle
         id="gpDot"
         r="0.5"
         stroke-width="0.5"
         stroke="currentColor"
         cx="0"
         cy="0" />
      <path
         id="gpPt0"
         stroke-width="0.222"
         stroke="currentColor"
         d="M -1,0 H 1 M 0,-1 v 2" />
      <path
         id="gpPt1"
         stroke-width="0.222"
         stroke="currentColor"
         d="M -1,-1 1,1 M 1,-1 -1,1" />
      <path
         id="gpPt2"
         stroke-width="0.222"
         stroke="currentColor"
         d="M -1,0 H 1 M 0,-1 v 2 m -1,-2 2,2 m -2,0 2,-2" />
      <rect
         id="gpPt3"
         stroke-width="0.222"
         stroke="currentColor"
         x="-1"
         y="-1"
         width="2"
         height="2" />
      <rect
         id="gpPt4"
         stroke-width="0.222"
         stroke="currentColor"
         fill="currentColor"
         x="-1"
         y="-1"
         width="2"
         height="2" />
      <circle
         id="gpPt5"
         stroke-width="0.222"
         stroke="currentColor"
         cx="0"
         cy="0"
         r="1" />
      <use
         xlink:href="#gpPt5"
         id="gpPt6"
         fill="currentColor"
         stroke="none" />
      <path
         id="gpPt7"
         stroke-width="0.222"
         stroke="currentColor"
         d="m 0,-1.33 -1.33,2 h 2.66 z" />
      <use
         xlink:href="#gpPt7"
         id="gpPt8"
         fill="currentColor"
         stroke="none" />
      <use
         xlink:href="#gpPt7"
         id="gpPt9"
         stroke="currentColor"
         transform="scale(-1)" />
      <use
         xlink:href="#gpPt9"
         id="gpPt10"
         fill="currentColor"
         stroke="none" />
      <use
         xlink:href="#gpPt3"
         id="gpPt11"
         stroke="currentColor"
         transform="rotate(45)" />
      <use
         xlink:href="#gpPt11"
         id="gpPt12"
         fill="currentColor"
         stroke="none" />
      <path
         id="gpPt13"
         stroke-width="0.222"
         stroke="currentColor"
         d="M 0,1.33 1.265,0.411 0.782,-1.067 -0.782,-1.076 -1.265,0.411 Z" />
      <use
         xlink:href="#gpPt13"
         id="gpPt14"
         fill="currentColor"
         stroke="none" />
      <filter
         id="textbox"
         filterUnits="objectBoundingBox"
         x="0"
         y="0"
         height="1"
         width="1">
        <feFlood
           flood-color="white"
           flood-opacity="1"
           result="bgnd"
           id="feFlood24" />
        <feComposite
           in="SourceGraphic"
           in2="bgnd"
           operator="atop"
           id="feComposite26" />
      </filter>
      <filter
         id="greybox"
         filterUnits="objectBoundingBox"
         x="0"
         y="0"
         height="1"
         width="1">
        <feFlood
           flood-color="lightgrey"
           flood-opacity="1"
           result="grey"
           id="feFlood29" />
        <feComposite
           in="SourceGraphic"
           in2="grey"
           operator="atop"
           id="feComposite31" />
      </filter>
    </defs>
  </defs>
  <sodipodi:namedview
     id="namedview451"
     pagecolor="#ffffff"
     bordercolor="#000000"
     borderopacity="0.25"
     inkscape:showpageshadow="2"
     inkscape:pageopacity="0.0"
     inkscape:pagecheckerboard="0"
     inkscape:deskcolor="#d1d1d1"
     showgrid="false"
     inkscape:zoom="1.6666667"
     inkscape:cx="259.5"
     inkscape:cy="192.3"
     inkscape:window-width="1920"
     inkscape:window-height="979"
     inkscape:window-x="0"
     inkscape:window-y="32"
     inkscape:window-maximized="1"
     inkscape:current-layer="svg449" />
  <title
     id="title2">Gnuplot</title>
  <desc
     id="desc4">Produced by GNUPLOT 6.0 patchlevel 0 </desc>
  <rect
     x="0"
     y="0"
     width="600"
     height="480"
     fill="none"
     id="rect6" />
  <g
     fill="none"
     color="#ffffff"
     stroke="currentColor"
     stroke-width="1"
     stroke-linecap="butt"
     stroke-linejoin="miter"
     id="g36" />
  <g
     fill="none"
     color="#000000"
     stroke="currentColor"
     stroke-width="1"
     stroke-linecap="butt"
     stroke-linejoin="miter"
     id="g40">
    <path
       stroke="#000000"
       d="m 72.53,399.56 h 4.5 m 497.79,0 h -4.5 M 72.53,378.36 h 4.5 m 497.79,0 h -4.5 M 72.53,363.32 h 4.5 m 497.79,0 h -4.5 M 72.53,351.65 h 4.5 m 497.79,0 h -4.5 M 72.53,342.12 h 4.5 m 497.79,0 h -4.5 M 72.53,334.06 h 4.5 m 497.79,0 h -4.5 M 72.53,327.08 h 4.5 m 497.79,0 h -4.5 M 72.53,320.92 h 4.5 m 497.79,0 h -4.5"
       id="path38" />
  </g>
  <g
     fill="none"
     color="#000000"
     stroke="#000000"
     stroke-width="0.5"
     stroke-linecap="butt"
     stroke-linejoin="miter"
     id="g42" />
  <g
     fill="none"
     color="#808080"
     stroke="currentColor"
     stroke-width="0.5"
     stroke-linecap="butt"
     stroke-linejoin="miter"
     id="g46">
    <path
       stroke="#808080"
       stroke-dasharray="2, 4"
       class="gridline"
       d="M 72.53,315.41 H 574.82"
       id="path44" />
  </g>
  <g
     fill="none"
     color="#808080"
     stroke="#808080"
     stroke-width="1"
     stroke-linecap="butt"
     stroke-linejoin="miter"
     id="g48" />
  <g
     fill="none"
     color="#000000"
     stroke="currentColor"
     stroke-width="1"
     stroke-linecap="butt"
     stroke-linejoin="miter"
     id="g62">
    <path
       stroke="#000000"
       d="m 72.53,315.41 h 9 m 493.29,0 h -9"
       id="path50" />
    <g
       transform="translate(64.14,319.31)"
       stroke="none"
       fill="#000000"
       font-family="Arial"
       font-size="12px"
       text-anchor="end"
       id="g60">
      <text
         id="text58"><tspan
           font-family="Arial"
           id="tspan52">10</tspan><tspan
           font-family="Arial"
           font-size="9.6px"
           dy="-6"
           id="tspan54">-9</tspan><tspan
           font-size="12px"
           dy="6"
           id="tspan56" /></text>
    </g>
  </g>
  <g
     fill="none"
     color="#000000"
     stroke="currentColor"
     stroke-width="1"
     stroke-linecap="butt"
     stroke-linejoin="miter"
     id="g66">
    <path
       stroke="#000000"
       d="m 72.53,279.17 h 4.5 m 497.79,0 h -4.5 M 72.53,257.97 h 4.5 m 497.79,0 h -4.5 M 72.53,242.93 h 4.5 m 497.79,0 h -4.5 M 72.53,231.27 h 4.5 m 497.79,0 h -4.5 M 72.53,221.74 h 4.5 m 497.79,0 h -4.5 M 72.53,213.68 h 4.5 m 497.79,0 h -4.5 M 72.53,206.7 h 4.5 m 497.79,0 h -4.5 M 72.53,200.54 h 4.5 m 497.79,0 h -4.5"
       id="path64" />
  </g>
  <g
     fill="none"
     color="#000000"
     stroke="#000000"
     stroke-width="0.5"
     stroke-linecap="butt"
     stroke-linejoin="miter"
     id="g68" />
  <g
     fill="none"
     color="#808080"
     stroke="currentColor"
     stroke-width="0.5"
     stroke-linecap="butt"
     stroke-linejoin="miter"
     id="g72">
    <path
       stroke="#808080"
       stroke-dasharray="2, 4"
       class="gridline"
       d="M 72.53,195.03 H 574.82"
       id="path70" />
  </g>
  <g
     fill="none"
     color="#808080"
     stroke="#808080"
     stroke-width="1"
     stroke-linecap="butt"
     stroke-linejoin="miter"
     id="g74" />
  <g
     fill="none"
     color="#000000"
     stroke="currentColor"
     stroke-width="1"
     stroke-linecap="butt"
     stroke-linejoin="miter"
     id="g88">
    <path
       stroke="#000000"
       d="m 72.53,195.03 h 9 m 493.29,0 h -9"
       id="path76" />
    <g
       transform="translate(64.14,198.93)"
       stroke="none"
       fill="#000000"
       font-family="Arial"
       font-size="12px"
       text-anchor="end"
       id="g86">
      <text
         id="text84"><tspan
           font-family="Arial"
           id="tspan78">10</tspan><tspan
           font-family="Arial"
           font-size="9.6px"
           dy="-6"
           id="tspan80">-8</tspan><tspan
           font-size="12px"
           dy="6"
           id="tspan82" /></text>
    </g>
  </g>
  <g
     fill="none"
     color="#000000"
     stroke="currentColor"
     stroke-width="1"
     stroke-linecap="butt"
     stroke-linejoin="miter"
     id="g92">
    <path
       stroke="#000000"
       d="m 72.53,158.79 h 4.5 m 497.79,0 h -4.5 M 72.53,137.59 h 4.5 m 497.79,0 h -4.5 M 72.53,122.55 h 4.5 m 497.79,0 h -4.5 M 72.53,110.89 h 4.5 m 497.79,0 h -4.5 M 72.53,101.35 h 4.5 m 497.79,0 h -4.5 M 72.53,93.3 h 4.5 m 497.79,0 h -4.5 M 72.53,86.31 h 4.5 m 497.79,0 h -4.5 M 72.53,80.16 h 4.5 m 497.79,0 h -4.5"
       id="path90" />
  </g>
  <g
     fill="none"
     color="#000000"
     stroke="#000000"
     stroke-width="0.5"
     stroke-linecap="butt"
     stroke-linejoin="miter"
     id="g94" />
  <g
     fill="none"
     color="#808080"
     stroke="currentColor"
     stroke-width="0.5"
     stroke-linecap="butt"
     stroke-linejoin="miter"
     id="g98">
    <path
       stroke="#808080"
       stroke-dasharray="2, 4"
       class="gridline"
       d="m 72.53,74.65 h 8.39 m 260.7,0 h 233.2"
       id="path96" />
  </g>
  <g
     fill="none"
     color="#808080"
     stroke="#808080"
     stroke-width="1"
     stroke-linecap="butt"
     stroke-linejoin="miter"
     id="g100" />
  <g
     fill="none"
     color="#000000"
     stroke="currentColor"
     stroke-width="1"
     stroke-linecap="butt"
     stroke-linejoin="miter"
     id="g114">
    <path
       stroke="#000000"
       d="m 72.53,74.65 h 9 m 493.29,0 h -9"
       id="path102" />
    <g
       transform="translate(64.14,78.55)"
       stroke="none"
       fill="#000000"
       font-family="Arial"
       font-size="12px"
       text-anchor="end"
       id="g112">
      <text
         id="text110"><tspan
           font-family="Arial"
           id="tspan104">10</tspan><tspan
           font-family="Arial"
           font-size="9.6px"
           dy="-6"
           id="tspan106">-7</tspan><tspan
           font-size="12px"
           dy="6"
           id="tspan108" /></text>
    </g>
  </g>
  <g
     fill="none"
     color="#000000"
     stroke="currentColor"
     stroke-width="1"
     stroke-linecap="butt"
     stroke-linejoin="miter"
     id="g118">
    <path
       stroke="#000000"
       d="m 76.43,422.4 v -4.5 m 0,-363.89 v 4.5 m 7.09,363.89 v -4.5 m 0,-363.89 v 4.5 m 6.25,363.89 v -4.5 m 0,-363.89 v 4.5"
       id="path116" />
  </g>
  <g
     fill="none"
     color="#000000"
     stroke="#000000"
     stroke-width="0.5"
     stroke-linecap="butt"
     stroke-linejoin="miter"
     id="g120" />
  <g
     fill="none"
     color="#808080"
     stroke="currentColor"
     stroke-width="0.5"
     stroke-linecap="butt"
     stroke-linejoin="miter"
     id="g124">
    <path
       stroke="#808080"
       stroke-dasharray="2, 4"
       class="gridline"
       d="M 95.36,422.4 V 135.01 m 0,-72 v -9"
       id="path122" />
  </g>
  <g
     fill="none"
     color="#808080"
     stroke="#808080"
     stroke-width="1"
     stroke-linecap="butt"
     stroke-linejoin="miter"
     id="g126" />
  <g
     fill="none"
     color="#000000"
     stroke="currentColor"
     stroke-width="1"
     stroke-linecap="butt"
     stroke-linejoin="miter"
     id="g140">
    <path
       stroke="#000000"
       d="m 95.36,422.4 v -9 m 0,-359.39 v 9"
       id="path128" />
    <g
       transform="translate(95.36,444.3)"
       stroke="none"
       fill="#000000"
       font-family="Arial"
       font-size="12px"
       text-anchor="middle"
       id="g138">
      <text
         id="text136"><tspan
           font-family="Arial"
           id="tspan130">10</tspan><tspan
           font-family="Arial"
           font-size="9.6px"
           dy="-6"
           id="tspan132">+0</tspan><tspan
           font-size="12px"
           dy="6"
           id="tspan134" /></text>
    </g>
  </g>
  <g
     fill="none"
     color="#000000"
     stroke="currentColor"
     stroke-width="1"
     stroke-linecap="butt"
     stroke-linejoin="miter"
     id="g144">
    <path
       stroke="#000000"
       d="m 132.15,422.4 v -4.5 m 0,-363.89 v 4.5 m 21.52,363.89 v -4.5 m 0,-363.89 v 4.5 m 15.27,363.89 v -4.5 m 0,-363.89 v 4.5 m 11.84,363.89 v -4.5 m 0,-363.89 v 4.5 m 9.68,363.89 v -4.5 m 0,-363.89 v 4.5 m 8.18,363.89 v -4.5 m 0,-363.89 v 4.5 m 7.09,363.89 v -4.5 m 0,-363.89 v 4.5 m 6.25,363.89 v -4.5 m 0,-363.89 v 4.5"
       id="path142" />
  </g>
  <g
     fill="none"
     color="#000000"
     stroke="#000000"
     stroke-width="0.5"
     stroke-linecap="butt"
     stroke-linejoin="miter"
     id="g146" />
  <g
     fill="none"
     color="#808080"
     stroke="currentColor"
     stroke-width="0.5"
     stroke-linecap="butt"
     stroke-linejoin="miter"
     id="g150">
    <path
       stroke="#808080"
       stroke-dasharray="2, 4"
       class="gridline"
       d="M 217.57,422.4 V 135.01 m 0,-72 v -9"
       id="path148" />
  </g>
  <g
     fill="none"
     color="#808080"
     stroke="#808080"
     stroke-width="1"
     stroke-linecap="butt"
     stroke-linejoin="miter"
     id="g152" />
  <g
     fill="none"
     color="#000000"
     stroke="currentColor"
     stroke-width="1"
     stroke-linecap="butt"
     stroke-linejoin="miter"
     id="g166">
    <path
       stroke="#000000"
       d="m 217.57,422.4 v -9 m 0,-359.39 v 9"
       id="path154" />
    <g
       transform="translate(217.57,444.3)"
       stroke="none"
       fill="#000000"
       font-family="Arial"
       font-size="12px"
       text-anchor="middle"
       id="g164">
      <text
         id="text162"><tspan
           font-family="Arial"
           id="tspan156">10</tspan><tspan
           font-family="Arial"
           font-size="9.6px"
           dy="-6"
           id="tspan158">+1</tspan><tspan
           font-size="12px"
           dy="6"
           id="tspan160" /></text>
    </g>
  </g>
  <g
     fill="none"
     color="#000000"
     stroke="currentColor"
     stroke-width="1"
     stroke-linecap="butt"
     stroke-linejoin="miter"
     id="g170">
    <path
       stroke="#000000"
       d="m 254.36,422.4 v -4.5 m 0,-363.89 v 4.5 m 21.52,363.89 v -4.5 m 0,-363.89 v 4.5 m 15.27,363.89 v -4.5 m 0,-363.89 v 4.5 M 303,422.4 v -4.5 m 0,-363.89 v 4.5 m 9.67,363.89 v -4.5 m 0,-363.89 v 4.5 m 8.19,363.89 v -4.5 m 0,-363.89 v 4.5 m 7.08,363.89 v -4.5 m 0,-363.89 v 4.5 m 6.26,363.89 v -4.5 m 0,-363.89 v 4.5"
       id="path168" />
  </g>
  <g
     fill="none"
     color="#000000"
     stroke="#000000"
     stroke-width="0.5"
     stroke-linecap="butt"
     stroke-linejoin="miter"
     id="g172" />
  <g
     fill="none"
     color="#808080"
     stroke="currentColor"
     stroke-width="0.5"
     stroke-linecap="butt"
     stroke-linejoin="miter"
     id="g176">
    <path
       stroke="#808080"
       stroke-dasharray="2, 4"
       class="gridline"
       d="M 339.79,422.4 V 135.01 m 0,-72 v -9"
       id="path174" />
  </g>
  <g
     fill="none"
     color="#808080"
     stroke="#808080"
     stroke-width="1"
     stroke-linecap="butt"
     stroke-linejoin="miter"
     id="g178" />
  <g
     fill="none"
     color="#000000"
     stroke="currentColor"
     stroke-width="1"
     stroke-linecap="butt"
     stroke-linejoin="miter"
     id="g192">
    <path
       stroke="#000000"
       d="m 339.79,422.4 v -9 m 0,-359.39 v 9"
       id="path180" />
    <g
       transform="translate(339.79,444.3)"
       stroke="none"
       fill="#000000"
       font-family="Arial"
       font-size="12px"
       text-anchor="middle"
       id="g190">
      <text
         id="text188"><tspan
           font-family="Arial"
           id="tspan182">10</tspan><tspan
           font-family="Arial"
           font-size="9.6px"
           dy="-6"
           id="tspan184">+2</tspan><tspan
           font-size="12px"
           dy="6"
           id="tspan186" /></text>
    </g>
  </g>
  <g
     fill="none"
     color="#000000"
     stroke="currentColor"
     stroke-width="1"
     stroke-linecap="butt"
     stroke-linejoin="miter"
     id="g196">
    <path
       stroke="#000000"
       d="m 376.58,422.4 v -4.5 m 0,-363.89 v 4.5 M 398.1,422.4 v -4.5 m 0,-363.89 v 4.5 m 15.27,363.89 v -4.5 m 0,-363.89 v 4.5 m 11.84,363.89 v -4.5 m 0,-363.89 v 4.5 m 9.68,363.89 v -4.5 m 0,-363.89 v 4.5 m 8.18,363.89 v -4.5 m 0,-363.89 v 4.5 m 7.09,363.89 v -4.5 m 0,-363.89 v 4.5 m 6.25,363.89 v -4.5 m 0,-363.89 v 4.5"
       id="path194" />
  </g>
  <g
     fill="none"
     color="#000000"
     stroke="#000000"
     stroke-width="0.5"
     stroke-linecap="butt"
     stroke-linejoin="miter"
     id="g198" />
  <g
     fill="none"
     color="#808080"
     stroke="currentColor"
     stroke-width="0.5"
     stroke-linecap="butt"
     stroke-linejoin="miter"
     id="g202">
    <path
       stroke="#808080"
       stroke-dasharray="2, 4"
       class="gridline"
       d="M 462,422.4 V 54.01"
       id="path200" />
  </g>
  <g
     fill="none"
     color="#808080"
     stroke="#808080"
     stroke-width="1"
     stroke-linecap="butt"
     stroke-linejoin="miter"
     id="g204" />
  <g
     fill="none"
     color="#000000"
     stroke="currentColor"
     stroke-width="1"
     stroke-linecap="butt"
     stroke-linejoin="miter"
     id="g218">
    <path
       stroke="#000000"
       d="m 462,422.4 v -9 m 0,-359.39 v 9"
       id="path206" />
    <g
       transform="translate(462,444.3)"
       stroke="none"
       fill="#000000"
       font-family="Arial"
       font-size="12px"
       text-anchor="middle"
       id="g216">
      <text
         id="text214"><tspan
           font-family="Arial"
           id="tspan208">10</tspan><tspan
           font-family="Arial"
           font-size="9.6px"
           dy="-6"
           id="tspan210">+3</tspan><tspan
           font-size="12px"
           dy="6"
           id="tspan212" /></text>
    </g>
  </g>
  <g
     fill="none"
     color="#000000"
     stroke="currentColor"
     stroke-width="1"
     stroke-linecap="butt"
     stroke-linejoin="miter"
     id="g222">
    <path
       stroke="#000000"
       d="m 498.79,422.4 v -4.5 m 0,-363.89 v 4.5 m 21.52,363.89 v -4.5 m 0,-363.89 v 4.5 m 15.27,363.89 v -4.5 m 0,-363.89 v 4.5 m 11.84,363.89 v -4.5 m 0,-363.89 v 4.5 m 9.68,363.89 v -4.5 m 0,-363.89 v 4.5 m 8.18,363.89 v -4.5 m 0,-363.89 v 4.5 m 7.09,363.89 v -4.5 m 0,-363.89 v 4.5"
       id="path220" />
  </g>
  <g
     fill="none"
     color="#000000"
     stroke="currentColor"
     stroke-width="1"
     stroke-linecap="butt"
     stroke-linejoin="miter"
     id="g232">
    <path
       stroke="#000000"
       d="M 72.53,54.01 V 422.4 H 574.82 V 54.01 Z"
       id="path224" />
    <g
       transform="translate(571.39,416.69)"
       stroke="none"
       fill="#000000"
       font-family="Verdana"
       font-size="6px"
       text-anchor="end"
       id="g230">
      <text
         id="text228"><tspan
           font-family="Verdana"
           id="tspan226">SigmaTheta 0.0.1</tspan></text>
    </g>
  </g>
  <g
     fill="none"
     color="#000000"
     stroke="currentColor"
     stroke-width="1"
     stroke-linecap="butt"
     stroke-linejoin="miter"
     id="g234" />
  <g
     id="gnuplot_plot_1"
     fill="none">
    <title
       id="title236">gnuplot_plot_1</title>
    <g
       fill="none"
       color="#ffffff"
       stroke="#000000"
       stroke-width="2"
       stroke-linecap="butt"
       stroke-linejoin="miter"
       id="g238" />
    <g
       fill="none"
       color="#000000"
       stroke="currentColor"
       stroke-width="2"
       stroke-linecap="butt"
       stroke-linejoin="miter"
       id="g266">
      <use
         xlink:href="#gpPt1"
         transform="matrix(4.5,0,0,4.5,95.36,169.53)"
         color="#ff9900"
         id="use240" />
      <use
         xlink:href="#gpPt1"
         transform="matrix(4.5,0,0,4.5,132.15,204.4)"
         color="#ff9900"
         id="use242" />
      <use
         xlink:href="#gpPt1"
         transform="matrix(4.5,0,0,4.5,180.78,249.7)"
         color="#ff9900"
         id="use244" />
      <use
         xlink:href="#gpPt1"
         transform="matrix(4.5,0,0,4.5,217.57,281.06)"
         color="#ff9900"
         id="use246" />
      <use
         xlink:href="#gpPt1"
         transform="matrix(4.5,0,0,4.5,254.36,308.54)"
         color="#ff9900"
         id="use248" />
      <use
         xlink:href="#gpPt1"
         transform="matrix(4.5,0,0,4.5,303,359.9)"
         color="#ff9900"
         id="use250" />
      <use
         xlink:href="#gpPt1"
         transform="matrix(4.5,0,0,4.5,339.79,385.48)"
         color="#ff9900"
         id="use252" />
      <use
         xlink:href="#gpPt1"
         transform="matrix(4.5,0,0,4.5,376.58,391.72)"
         color="#ff9900"
         id="use254" />
      <use
         xlink:href="#gpPt1"
         transform="matrix(4.5,0,0,4.5,425.21,366.28)"
         color="#ff9900"
         id="use256" />
      <use
         xlink:href="#gpPt1"
         transform="matrix(4.5,0,0,4.5,462,335.97)"
         color="#ff9900"
         id="use258" />
      <use
         xlink:href="#gpPt1"
         transform="matrix(4.5,0,0,4.5,498.79,306.15)"
         color="#ff9900"
         id="use260" />
      <use
         xlink:href="#gpPt1"
         transform="matrix(4.5,0,0,4.5,547.42,270.98)"
         color="#ff9900"
         id="use262" />
      <use
         xlink:href="#gpPt1"
         transform="matrix(4.5,0,0,4.5,551.99,265.76)"
         color="#ff9900"
         id="use264" />
    </g>
  </g>
  <g
     id="gnuplot_plot_2">
    <title
       id="title269">95 % confidence interval</title>
    <g
       fill="none"
       color="#000000"
       stroke="currentColor"
       stroke-width="2"
       stroke-linecap="butt"
       stroke-linejoin="miter"
       id="g277">
      <g
         transform="translate(282.28,75.91)"
         stroke="none"
         fill="#000000"
         font-family="Arial"
         font-size="12px"
         text-anchor="end"
         id="g275">
        <text
           id="text273"><tspan
             font-family="Arial"
             id="tspan271">95 % confidence interval</tspan></text>
      </g>
    </g>
    <g
       fill="none"
       color="#000000"
       stroke="currentColor"
       stroke-width="2"
       stroke-linecap="butt"
       stroke-linejoin="miter"
       id="g281">
      <path
         stroke="#a0a0a0"
         d="m 290.67,72.01 h 42.56 m -42.56,-4.5 v 9 m 42.56,-9 v 9 m -237.87,94.4 v -2.8 m -4.5,2.8 h 9 m -9,-2.8 h 9 m 32.29,37.67 v -2.8 m -4.5,2.8 h 9 m -9,-2.8 h 9 m 44.13,48.09 v -2.79 m -4.5,2.79 h 9 m -9,-2.79 h 9 m 32.29,34.15 v -2.79 m -4.5,2.79 h 9 m -9,-2.79 h 9 m 32.29,30.28 v -2.8 m -4.5,2.8 h 9 m -9,-2.8 h 9 M 303,365.38 v -11.79 m -4.5,11.79 h 9 m -9,-11.79 h 9 m 32.29,37.33 v -11.51 m -4.5,11.51 h 9 m -9,-11.51 h 9 m 32.29,19.86 v -16.39 m -4.5,16.39 h 9 m -9,-16.39 h 9 m 44.13,-4.95 v -26.71 m -4.5,26.71 h 9 m -9,-26.71 h 9 m 32.29,0.99 v -39.92 m -4.5,39.92 h 9 m -9,-39.92 h 9 m 32.29,16.77 v -63.95 m -4.5,63.95 h 9 m -9,-63.95 h 9 M 547.42,311 V 118.88 M 542.92,311 h 9 m -9,-192.12 h 9 m 0.07,189.08 V 84.72 m -4.5,223.24 h 9 m -9,-223.24 h 9"
         id="path279" />
    </g>
    <g
       fill="none"
       color="#000000"
       stroke="currentColor"
       stroke-width="2"
       stroke-linecap="butt"
       stroke-linejoin="miter"
       id="g311">
      <use
         xlink:href="#gpDot"
         x="95.360001"
         y="169.53"
         color="#a0a0a0"
         id="use283" />
      <use
         xlink:href="#gpDot"
         x="132.14999"
         y="204.39999"
         color="#a0a0a0"
         id="use285" />
      <use
         xlink:href="#gpDot"
         x="180.78"
         y="249.7"
         color="#a0a0a0"
         id="use287" />
      <use
         xlink:href="#gpDot"
         x="217.57001"
         y="281.04999"
         color="#a0a0a0"
         id="use289" />
      <use
         xlink:href="#gpDot"
         x="254.36"
         y="308.54001"
         color="#a0a0a0"
         id="use291" />
      <use
         xlink:href="#gpDot"
         x="303"
         y="359.82001"
         color="#a0a0a0"
         id="use293" />
      <use
         xlink:href="#gpDot"
         x="339.79001"
         y="385.32001"
         color="#a0a0a0"
         id="use295" />
      <use
         xlink:href="#gpDot"
         x="376.57999"
         y="391.39001"
         color="#a0a0a0"
         id="use297" />
      <use
         xlink:href="#gpDot"
         x="425.20999"
         y="365.41"
         color="#a0a0a0"
         id="use299" />
      <use
         xlink:href="#gpDot"
         x="462"
         y="334.07999"
         color="#a0a0a0"
         id="use301" />
      <use
         xlink:href="#gpDot"
         x="498.79001"
         y="301.60001"
         color="#a0a0a0"
         id="use303" />
      <use
         xlink:href="#gpDot"
         x="547.41998"
         y="244.09"
         color="#a0a0a0"
         id="use305" />
      <use
         xlink:href="#gpDot"
         x="551.98999"
         y="232.56"
         color="#a0a0a0"
         id="use307" />
      <use
         xlink:href="#gpDot"
         x="311.95001"
         y="72.010002"
         color="#a0a0a0"
         id="use309" />
    </g>
  </g>
  <g
     id="gnuplot_plot_3">
    <title
       id="title314">68 % confidence interval</title>
    <g
       fill="none"
       color="#ffffff"
       stroke="#a0a0a0"
       stroke-width="3"
       stroke-linecap="butt"
       stroke-linejoin="miter"
       id="g316" />
    <g
       fill="none"
       color="#000000"
       stroke="currentColor"
       stroke-width="3"
       stroke-linecap="butt"
       stroke-linejoin="miter"
       id="g324">
      <g
         transform="translate(282.28,93.91)"
         stroke="none"
         fill="#000000"
         font-family="Arial"
         font-size="12px"
         text-anchor="end"
         id="g322">
        <text
           id="text320"><tspan
             font-family="Arial"
             id="tspan318">68 % confidence interval</tspan></text>
      </g>
    </g>
    <g
       fill="none"
       color="#000000"
       stroke="currentColor"
       stroke-width="3"
       stroke-linecap="butt"
       stroke-linejoin="miter"
       id="g328">
      <path
         stroke="#ff9900"
         d="m 290.67,90.01 h 42.56 m -42.56,-4.5 v 9 m 42.56,-9 v 9 M 95.36,170.22 v -1.39 m -4.5,1.39 h 9 m -9,-1.39 h 9 m 32.29,36.26 v -1.39 m -4.5,1.39 h 9 m -9,-1.39 h 9 m 44.13,46.69 v -1.4 m -4.5,1.4 h 9 m -9,-1.4 h 9 m 32.29,32.76 v -1.4 m -4.5,1.4 h 9 m -9,-1.4 h 9 m 32.29,28.88 v -1.39 m -4.5,1.39 h 9 m -9,-1.39 h 9 M 303,362.67 v -5.87 m -4.5,5.87 h 9 m -9,-5.87 h 9 m 32.29,31.43 v -5.83 m -4.5,5.83 h 9 m -9,-5.83 h 9 m 32.29,13.14 v -8.3 m -4.5,8.3 h 9 m -9,-8.3 h 9 m 44.13,-15.09 v -13.48 m -4.5,13.48 h 9 m -9,-13.48 h 9 M 462,344.11 v -20.03 m -4.5,20.03 h 9 m -9,-20.03 h 9 m 32.29,-6.64 v -31.61 m -4.5,31.61 h 9 m -9,-31.61 h 9 m 44.13,2.58 V 200.3 m -4.5,88.11 h 9 m -9,-88.11 h 9 m 0.07,83.24 V 182.11 m -4.5,101.43 h 9 m -9,-101.43 h 9"
         id="path326" />
    </g>
    <g
       fill="none"
       color="#000000"
       stroke="currentColor"
       stroke-width="3"
       stroke-linecap="butt"
       stroke-linejoin="miter"
       id="g358">
      <use
         xlink:href="#gpDot"
         x="95.360001"
         y="169.53"
         color="#ff9900"
         id="use330" />
      <use
         xlink:href="#gpDot"
         x="132.14999"
         y="204.39999"
         color="#ff9900"
         id="use332" />
      <use
         xlink:href="#gpDot"
         x="180.78"
         y="249.7"
         color="#ff9900"
         id="use334" />
      <use
         xlink:href="#gpDot"
         x="217.57001"
         y="281.04999"
         color="#ff9900"
         id="use336" />
      <use
         xlink:href="#gpDot"
         x="254.36"
         y="308.54001"
         color="#ff9900"
         id="use338" />
      <use
         xlink:href="#gpDot"
         x="303"
         y="359.82001"
         color="#ff9900"
         id="use340" />
      <use
         xlink:href="#gpDot"
         x="339.79001"
         y="385.32001"
         color="#ff9900"
         id="use342" />
      <use
         xlink:href="#gpDot"
         x="376.57999"
         y="391.39001"
         color="#ff9900"
         id="use344" />
      <use
         xlink:href="#gpDot"
         x="425.20999"
         y="365.41"
         color="#ff9900"
         id="use346" />
      <use
         xlink:href="#gpDot"
         x="462"
         y="334.07999"
         color="#ff9900"
         id="use348" />
      <use
         xlink:href="#gpDot"
         x="498.79001"
         y="301.60001"
         color="#ff9900"
         id="use350" />
      <use
         xlink:href="#gpDot"
         x="547.41998"
         y="244.09"
         color="#ff9900"
         id="use352" />
      <use
         xlink:href="#gpDot"
         x="551.98999"
         y="232.56"
         color="#ff9900"
         id="use354" />
      <use
         xlink:href="#gpDot"
         x="311.95001"
         y="90.010002"
         color="#ff9900"
         id="use356" />
    </g>
  </g>
  <g
     id="gnuplot_plot_4"
     fill="none">
    <title
       id="title361">gnuplot_plot_4</title>
    <g
       fill="none"
       color="#ffffff"
       stroke="#ff9900"
       stroke-width="5"
       stroke-linecap="butt"
       stroke-linejoin="miter"
       id="g363" />
    <g
       fill="none"
       color="#000000"
       stroke="currentColor"
       stroke-width="5"
       stroke-linecap="butt"
       stroke-linejoin="miter"
       id="g367">
      <path
         stroke="#d01000"
         d="m 72.53,146.18 5.07,4.95 5.08,4.93 5.07,4.93 5.07,4.93 5.08,4.92 5.07,4.91 5.08,4.9 5.07,4.89 5.07,4.88 5.08,4.88 5.07,4.86 5.07,4.84 5.08,4.84 5.07,4.81 5.07,4.8 5.08,4.79 5.07,4.76 5.08,4.74 5.07,4.72 5.07,4.7 5.08,4.66 5.07,4.64 5.07,4.61 5.08,4.58 5.07,4.54 5.07,4.51 5.08,4.47 5.07,4.42 5.08,4.39 5.07,4.33 5.07,4.29 5.08,4.25 5.07,4.18 5.07,4.14 5.08,4.08 5.07,4.03 5.07,3.97 5.08,3.91 5.07,3.85 5.08,3.79 5.07,3.73 5.07,3.67 5.08,3.61 5.07,3.56 5.07,3.5 5.08,3.44 5.07,3.38 5.07,3.33 5.08,3.28 5.07,3.23 5.08,3.18 5.07,3.13 5.07,3.09 5.08,3.05 5.07,3 5.07,2.97 5.08,2.94 5.07,2.9 5.07,2.87 5.08,2.84 5.07,2.81 5.08,2.79 5.07,2.76 5.07,2.75 5.08,2.72 5.07,2.7 5.07,2.69 5.08,2.67 5.07,2.65 5.07,2.65 3.3,1.71"
         id="path365" />
    </g>
  </g>
  <g
     id="gnuplot_plot_5">
    <title
       id="title370">1.6e-08 τ-1</title>
    <g
       fill="none"
       color="#ffffff"
       stroke="#d01000"
       stroke-width="3"
       stroke-linecap="butt"
       stroke-linejoin="miter"
       id="g372" />
    <g
       fill="none"
       color="#000000"
       stroke="currentColor"
       stroke-width="3"
       stroke-linecap="butt"
       stroke-linejoin="miter"
       id="g384">
      <g
         transform="translate(282.28,111.91)"
         stroke="none"
         fill="#000000"
         font-family="Arial"
         font-size="12px"
         text-anchor="end"
         id="g382">
        <text
           id="text380"><tspan
             font-family="Arial"
             id="tspan374">1.6e-08 τ</tspan><tspan
             font-family="Arial"
             font-size="9.6px"
             dy="-6"
             id="tspan376">-1</tspan><tspan
             font-size="12px"
             dy="6"
             id="tspan378" /></text>
      </g>
    </g>
    <g
       fill="none"
       color="#000000"
       stroke="currentColor"
       stroke-width="3"
       stroke-linecap="butt"
       stroke-linejoin="miter"
       id="g388">
      <path
         stroke="#ffe000"
         d="m 290.67,108.01 h 42.56 m -260.7,38.73 5.07,4.99 5.08,5 5.07,5 5.07,5 5.08,4.99 5.07,5 5.08,5 5.07,5 5.07,4.99 5.08,5 5.07,5 5.07,5 5.08,4.99 5.07,5 5.07,5 5.08,5 5.07,5 5.08,4.99 5.07,5 5.07,5 5.08,5 5.07,4.99 5.07,5 5.08,5 5.07,5 5.07,4.99 5.08,5 5.07,5 5.08,5 5.07,4.99 5.07,5 5.08,5 5.07,5 5.07,5 5.08,4.99 5.07,5 5.07,5 5.08,5 5.07,4.99 5.08,5 5.07,5 5.07,5 5.08,4.99 5.07,5 5.07,5 5.08,5 5.07,4.99 5.07,5 5.08,5 5.07,5 5.08,4.99 5.07,5 5.07,5 5.08,5 5.07,5 0.8,0.79"
         id="path386" />
    </g>
  </g>
  <g
     id="gnuplot_plot_6">
    <title
       id="title391">3.0e-09 τ-1/2</title>
    <g
       fill="none"
       color="#000000"
       stroke="currentColor"
       stroke-width="3"
       stroke-linecap="butt"
       stroke-linejoin="miter"
       id="g403">
      <g
         transform="translate(282.28,129.91)"
         stroke="none"
         fill="#000000"
         font-family="Arial"
         font-size="12px"
         text-anchor="end"
         id="g401">
        <text
           id="text399"><tspan
             font-family="Arial"
             id="tspan393">3.0e-09 τ</tspan><tspan
             font-family="Arial"
             font-size="9.6px"
             dy="-6"
             id="tspan395">-1/2</tspan><tspan
             font-size="12px"
             dy="6"
             id="tspan397" /></text>
      </g>
    </g>
    <g
       fill="none"
       color="#000000"
       stroke="currentColor"
       stroke-width="3"
       stroke-linecap="butt"
       stroke-linejoin="miter"
       id="g407">
      <path
         stroke="#109010"
         d="m 290.67,126.01 h 42.56 m -260.7,121.23 5.07,2.5 5.08,2.5 5.07,2.5 5.07,2.5 5.08,2.5 5.07,2.5 5.08,2.5 5.07,2.5 5.07,2.49 5.08,2.5 5.07,2.5 5.07,2.5 5.08,2.5 5.07,2.5 5.07,2.5 5.08,2.5 5.07,2.49 5.08,2.5 5.07,2.5 5.07,2.5 5.08,2.5 5.07,2.5 5.07,2.5 5.08,2.5 5.07,2.5 5.07,2.49 5.08,2.5 5.07,2.5 5.08,2.5 5.07,2.5 5.07,2.5 5.08,2.5 5.07,2.5 5.07,2.49 5.08,2.5 5.07,2.5 5.07,2.5 5.08,2.5 5.07,2.5 5.08,2.5 5.07,2.5 5.07,2.5 5.08,2.49 5.07,2.5 5.07,2.5 5.08,2.5 5.07,2.5 5.07,2.5 5.08,2.5 5.07,2.5 5.08,2.49 5.07,2.5 5.07,2.5 5.08,2.5 5.07,2.5 5.07,2.5 5.08,2.5 5.07,2.5 5.07,2.5 5.08,2.49 5.07,2.5 5.08,2.5 5.07,2.5 5.07,2.5 5.08,2.5 5.07,2.5 5.07,2.5 5.08,2.49 5.07,2.5 5.07,2.5 0.48,0.24"
         id="path405" />
    </g>
  </g>
  <g
     fill="none"
     color="#ffffff"
     stroke="#109010"
     stroke-width="2"
     stroke-linecap="butt"
     stroke-linejoin="miter"
     id="g410" />
  <g
     fill="none"
     color="#000000"
     stroke="currentColor"
     stroke-width="2"
     stroke-linecap="butt"
     stroke-linejoin="miter"
     id="g412" />
  <g
     fill="none"
     color="#000000"
     stroke="#000000"
     stroke-width="1"
     stroke-linecap="butt"
     stroke-linejoin="miter"
     id="g414" />
  <g
     fill="none"
     color="#000000"
     stroke="currentColor"
     stroke-width="1"
     stroke-linecap="butt"
     stroke-linejoin="miter"
     id="g428">
    <path
       stroke="#000000"
       d="M 72.53,54.01 V 422.4 H 574.82 V 54.01 Z"
       id="path416" />
    <g
       transform="rotate(-90,128.695,109.515)"
       stroke="none"
       fill="#000000"
       font-family="Arial"
       font-size="12px"
       text-anchor="middle"
       id="g426">
      <text
         id="text424"><tspan
           font-family="Arial"
           id="tspan418">ADEV σ</tspan><tspan
           font-family="Arial"
           font-size="9.6px"
           dy="3.5999999"
           id="tspan420">A</tspan><tspan
           font-family="Arial"
           font-size="12px"
           dy="-3.5999999"
           id="tspan422">(τ)</tspan></text>
    </g>
  </g>
  <g
     fill="none"
     color="#000000"
     stroke="currentColor"
     stroke-width="1"
     stroke-linecap="butt"
     stroke-linejoin="miter"
     id="g436">
    <g
       transform="translate(323.67,471.3)"
       stroke="none"
       fill="#000000"
       font-family="Arial"
       font-size="12px"
       text-anchor="middle"
       id="g434">
      <text
         id="text432"><tspan
           font-family="Arial"
           id="tspan430">Integration time τ [s]</tspan></text>
    </g>
  </g>
  <g
     fill="none"
     color="#000000"
     stroke="currentColor"
     stroke-width="1"
     stroke-linecap="butt"
     stroke-linejoin="miter"
     id="g438" />
  <g
     fill="none"
     color="#000000"
     stroke="currentColor"
     stroke-width="1"
     stroke-linecap="butt"
     stroke-linejoin="miter"
     id="g446" />
</svg>
