<?xml version='1.0' encoding='UTF-8' standalone='no'?>
<svg height="314pt" viewBox="0 0 418 314" width="418pt" xmlns="http://www.w3.org/2000/svg" xmlns:xlink="http://www.w3.org/1999/xlink">
 <title>Figure 1</title>
 <desc>
Creator: GL2PS 1.4.2, (C) 1999-2020 C. Geuzaine
For: Octave
CreationDate: Sat Jul  6 08:23:29 2024
</desc>
 <defs/>
 <polygon fill="#ffffff" points="0,0 418,0 418,314 0,314"/>
 <g>
  <polygon fill="#ffffff" points="0,314 418,314 418,0 0,0" shape-rendering="crispEdges"/>
  <clipPath id="cp00418314">
   <polygon points="0,314 418,314 418,0 0,0"/>
  </clipPath>
  <g clip-path="url(#cp00418314)">
   <polygon fill="#ffffff" points="54.4654,86.9654 379.163,86.9654 379.163,27.5668 54.4654,27.5668" shape-rendering="crispEdges"/>
   <polyline fill="none" points="54.4654,86.9654 54.4654,83.6965" stroke="#262626" stroke-linecap="butt" stroke-linejoin="miter" stroke-width="0.5"/>
   <polyline fill="none" points="54.4654,27.5668 54.4654,30.8357" stroke="#262626" stroke-linecap="butt" stroke-linejoin="miter" stroke-width="0.5"/>
   <polyline fill="none" points="97.7584,86.9654 97.7584,83.6965" stroke="#262626" stroke-linecap="butt" stroke-linejoin="miter" stroke-width="0.5"/>
   <polyline fill="none" points="97.7584,27.5668 97.7584,30.8357" stroke="#262626" stroke-linecap="butt" stroke-linejoin="miter" stroke-width="0.5"/>
   <polyline fill="none" points="141.052,86.9654 141.052,83.6965" stroke="#262626" stroke-linecap="butt" stroke-linejoin="miter" stroke-width="0.5"/>
   <polyline fill="none" points="141.052,27.5668 141.052,30.8357" stroke="#262626" stroke-linecap="butt" stroke-linejoin="miter" stroke-width="0.5"/>
   <polyline fill="none" points="184.344,86.9654 184.344,83.6965" stroke="#262626" stroke-linecap="butt" stroke-linejoin="miter" stroke-width="0.5"/>
   <polyline fill="none" points="184.344,27.5668 184.344,30.8357" stroke="#262626" stroke-linecap="butt" stroke-linejoin="miter" stroke-width="0.5"/>
   <polyline fill="none" points="227.638,86.9654 227.638,83.6965" stroke="#262626" stroke-linecap="butt" stroke-linejoin="miter" stroke-width="0.5"/>
   <polyline fill="none" points="227.638,27.5668 227.638,30.8357" stroke="#262626" stroke-linecap="butt" stroke-linejoin="miter" stroke-width="0.5"/>
   <polyline fill="none" points="270.931,86.9654 270.931,83.6965" stroke="#262626" stroke-linecap="butt" stroke-linejoin="miter" stroke-width="0.5"/>
   <polyline fill="none" points="270.931,27.5668 270.931,30.8357" stroke="#262626" stroke-linecap="butt" stroke-linejoin="miter" stroke-width="0.5"/>
   <polyline fill="none" points="314.224,86.9654 314.224,83.6965" stroke="#262626" stroke-linecap="butt" stroke-linejoin="miter" stroke-width="0.5"/>
   <polyline fill="none" points="314.224,27.5668 314.224,30.8357" stroke="#262626" stroke-linecap="butt" stroke-linejoin="miter" stroke-width="0.5"/>
   <polyline fill="none" points="357.517,86.9654 357.517,83.6965" stroke="#262626" stroke-linecap="butt" stroke-linejoin="miter" stroke-width="0.5"/>
   <polyline fill="none" points="357.517,27.5668 357.517,30.8357" stroke="#262626" stroke-linecap="butt" stroke-linejoin="miter" stroke-width="0.5"/>
   <g font-family="FreeSans" font-size="10" font-style="normal" font-weight="normal" transform="translate(42.4655,102.516) rotate(-0,12,-8)" xml:space="preserve">
    <text fill="rgb(38,38,38)" x="0 3 9 12 18 " y="-0">-0.07</text>
   </g>
   <g font-family="FreeSans" font-size="10" font-style="normal" font-weight="normal" transform="translate(82.7585,102.516) rotate(-0,15,-8)" xml:space="preserve">
    <text fill="rgb(38,38,38)" x="0 3 9 12 18 24 " y="-0">-0.068</text>
   </g>
   <g font-family="FreeSans" font-size="10" font-style="normal" font-weight="normal" transform="translate(126.052,102.516) rotate(-0,15,-8)" xml:space="preserve">
    <text fill="rgb(38,38,38)" x="0 3 9 12 18 24 " y="-0">-0.066</text>
   </g>
   <g font-family="FreeSans" font-size="10" font-style="normal" font-weight="normal" transform="translate(169.345,102.516) rotate(-0,15,-8)" xml:space="preserve">
    <text fill="rgb(38,38,38)" x="0 3 9 12 18 24 " y="-0">-0.064</text>
   </g>
   <g font-family="FreeSans" font-size="10" font-style="normal" font-weight="normal" transform="translate(212.638,102.516) rotate(-0,15,-8)" xml:space="preserve">
    <text fill="rgb(38,38,38)" x="0 3 9 12 18 24 " y="-0">-0.062</text>
   </g>
   <g font-family="FreeSans" font-size="10" font-style="normal" font-weight="normal" transform="translate(258.931,102.516) rotate(-0,12,-8)" xml:space="preserve">
    <text fill="rgb(38,38,38)" x="0 3 9 12 18 " y="-0">-0.06</text>
   </g>
   <g font-family="FreeSans" font-size="10" font-style="normal" font-weight="normal" transform="translate(299.224,102.516) rotate(-0,15,-8)" xml:space="preserve">
    <text fill="rgb(38,38,38)" x="0 3 9 12 18 24 " y="-0">-0.058</text>
   </g>
   <g font-family="FreeSans" font-size="10" font-style="normal" font-weight="normal" transform="translate(342.517,102.516) rotate(-0,15,-8)" xml:space="preserve">
    <text fill="rgb(38,38,38)" x="0 3 9 12 18 24 " y="-0">-0.056</text>
   </g>
   <polyline fill="none" points="54.4654,86.9654 57.7094,86.9654" stroke="#262626" stroke-linecap="butt" stroke-linejoin="miter" stroke-width="0.5"/>
   <polyline fill="none" points="379.163,86.9654 375.919,86.9654" stroke="#262626" stroke-linecap="butt" stroke-linejoin="miter" stroke-width="0.5"/>
   <polyline fill="none" points="54.4654,72.1158 57.7094,72.1158" stroke="#262626" stroke-linecap="butt" stroke-linejoin="miter" stroke-width="0.5"/>
   <polyline fill="none" points="379.163,72.1158 375.919,72.1158" stroke="#262626" stroke-linecap="butt" stroke-linejoin="miter" stroke-width="0.5"/>
   <polyline fill="none" points="54.4654,57.2661 57.7094,57.2661" stroke="#262626" stroke-linecap="butt" stroke-linejoin="miter" stroke-width="0.5"/>
   <polyline fill="none" points="379.163,57.2661 375.919,57.2661" stroke="#262626" stroke-linecap="butt" stroke-linejoin="miter" stroke-width="0.5"/>
   <polyline fill="none" points="54.4654,42.4164 57.7094,42.4164" stroke="#262626" stroke-linecap="butt" stroke-linejoin="miter" stroke-width="0.5"/>
   <polyline fill="none" points="379.163,42.4164 375.919,42.4164" stroke="#262626" stroke-linecap="butt" stroke-linejoin="miter" stroke-width="0.5"/>
   <polyline fill="none" points="54.4654,27.5668 57.7094,27.5668" stroke="#262626" stroke-linecap="butt" stroke-linejoin="miter" stroke-width="0.5"/>
   <polyline fill="none" points="379.163,27.5668 375.919,27.5668" stroke="#262626" stroke-linecap="butt" stroke-linejoin="miter" stroke-width="0.5"/>
   <g font-family="FreeSans" font-size="10" font-style="normal" font-weight="normal" transform="translate(43.4701,90.9654) rotate(-0,6,-4)" xml:space="preserve">
    <text fill="rgb(38,38,38)" x="0 " y="-0">0</text>
   </g>
   <g font-family="FreeSans" font-size="10" font-style="normal" font-weight="normal" transform="translate(20.4701,76.1157) rotate(-0,29,-4)" xml:space="preserve">
    <text fill="rgb(38,38,38)" x="0 6 11 17 23 " y="-0">1e+05</text>
   </g>
   <g font-family="FreeSans" font-size="10" font-style="normal" font-weight="normal" transform="translate(20.4701,61.2661) rotate(-0,29,-4)" xml:space="preserve">
    <text fill="rgb(38,38,38)" x="0 6 11 17 23 " y="-0">2e+05</text>
   </g>
   <g font-family="FreeSans" font-size="10" font-style="normal" font-weight="normal" transform="translate(20.4701,46.4164) rotate(-0,29,-4)" xml:space="preserve">
    <text fill="rgb(38,38,38)" x="0 6 11 17 23 " y="-0">3e+05</text>
   </g>
   <g font-family="FreeSans" font-size="10" font-style="normal" font-weight="normal" transform="translate(20.4701,31.5668) rotate(-0,29,-4)" xml:space="preserve">
    <text fill="rgb(38,38,38)" x="0 6 11 17 23 " y="-0">4e+05</text>
   </g>
   <polyline fill="none" points="54.4654,86.9654 379.163,86.9654" stroke="#262626" stroke-dasharray="16,0" stroke-linecap="square" stroke-linejoin="miter" stroke-width="0.5"/>
   <polyline fill="none" points="54.4654,27.5668 379.163,27.5668" stroke="#262626" stroke-dasharray="16,0" stroke-linecap="square" stroke-linejoin="miter" stroke-width="0.5"/>
   <polyline fill="none" points="54.4654,86.9654 54.4654,27.5668" stroke="#262626" stroke-dasharray="16,0" stroke-linecap="square" stroke-linejoin="miter" stroke-width="0.5"/>
   <polyline fill="none" points="379.163,86.9654 379.163,27.5668" stroke="#262626" stroke-dasharray="16,0" stroke-linecap="square" stroke-linejoin="miter" stroke-width="0.5"/>
   <g font-family="FreeSans" font-size="11" font-style="normal" font-weight="normal" transform="translate(-28.0299,57.2661) rotate(-90,43.5,0)" xml:space="preserve">
    <text fill="rgb(38,38,38)" x="0 3 10 17 24 28 33 35 41 " y="-3">|FFT(sig1</text>
    <text fill="rgb(38,38,38)" font-size="7.7" x="47 " y="-8">2</text>
    <text fill="rgb(38,38,38)" x="51 55 58 61 65 71 74 80 83 " y="-3">)| (a.u.)</text>
   </g>
   <polyline fill="none" points="54.1408,86.1372 54.2042,86.4069 54.3774,86.6901 54.5506,86.6865 54.7236,86.5441 54.8968,86.7347 55.0701,86.4275 55.2432,86.0836 55.4164,86.7234 55.5896,85.8026 55.7628,86.5133 55.9358,86.6349 56.109,86.5609 56.2822,86.6975 56.4555,86.706 56.6285,86.7467 56.8017,86.1447 56.9749,86.6415 57.1481,86.6574 57.3212,86.8569 57.4944,86.5136 57.6677,86.4837 57.8409,86.3586 58.0139,86.1284 58.1871,86.58 58.3603,85.5787 58.5335,86.907 58.7066,86.1313 58.8798,85.7931 59.053,86.0237 59.2262,86.3951 59.3993,86.6753 59.5725,86.617 59.7457,86.6052 59.919,86.6367 60.092,86.6186 60.2652,86.6485 60.4384,85.9153 60.6116,86.6222 60.7847,86.7302 60.9579,86.5625 61.1311,86.5486 61.3041,86.7088 61.4773,86.5107 61.6506,86.56 61.8238,86.4048 61.9968,86.4257 62.1701,86.397 62.3433,86.8343 62.5165,86.6746 62.6896,86.2572 62.8628,86.203 63.036,86.181 63.2092,86.1296 63.3822,86.6389 63.5554,86.0975 63.7286,86.7451 63.9019,86.2206 64.0749,86.2449 64.2481,86.3719 64.4214,86.1476 64.5946,86.7823 64.7677,86.1809 64.9409,86.5618 65.1141,86.7421 65.2873,86.8506 65.4603,86.5695 65.6335,86.8124 65.8067,86.451 65.9799,86.6742 66.153,86.3204 66.3262,86.797 66.4994,85.9624 66.6726,86.5979 66.8457,86.1435 67.019,86.6919 67.1922,86.8716 67.3652,86.2485 67.5384,86.5051 67.7116,86.6872 67.8848,86.8653 68.0579,86.7685 68.2311,86.4937 68.4043,86.3194 68.5775,86.3817 68.7505,86.5585 68.9237,86.4327 69.097,86.7038 69.2703,86.1237 69.4433,85.9791 69.6165,86.3342 69.7897,86.2052 69.9629,86.3893 70.136,86.5459 70.3092,86.1671 70.4824,86.3349 70.6556,86.0021 70.8286,86.446 71.0018,86.3147 71.175,85.7558 71.3483,86.5005 71.5213,86.4031 71.6946,86.1842 71.8678,85.9253 72.041,86.8858 72.2141,86.3194 72.3873,85.8838 72.5605,86.1918 72.7337,86.2758 72.9067,86.4172 73.0799,86.3279 73.2531,86.4819 73.4262,86.2992 73.5994,86.1411 73.7726,86.1197 73.9459,85.9209 74.119,86.1251 74.2922,86.3937 74.4654,86.4456 74.6386,85.9828 74.8116,86.8209 74.9848,86.6022 75.158,86.0872 75.3312,86.5506 75.5043,86.341 75.6775,86.5171 75.8507,86.1212 76.0239,86.3095 76.197,86.7808 76.3702,86.7756 76.5435,86.5 76.7167,86.033 76.8897,86.8102 77.0629,86.6987 77.2361,86.3454 77.4093,86.6068 77.5824,86.439 77.7556,86.1423 77.9288,86.7739 78.102,86.1385 78.275,86.6271 78.4482,86.8018 78.6215,86.5363 78.7948,86.8197 78.9678,86.3524 79.141,86.5826 79.3142,86.1971 79.4873,86.2902 79.6605,86.6395 79.8337,86.5671 80.0069,86.9352 80.1799,86.5798 80.3531,86.4283 80.5263,86.3611 80.6995,86.4677 80.8727,86.7236 81.0459,86.8908 81.2191,86.723 81.3923,86.2299 81.5654,86.3665 81.7386,86.4486 81.9118,86.2879 82.085,86.0783 82.258,86.2701 82.4312,86.0713 82.6044,86.2847 82.7776,86.7833 82.9507,86.6892 83.1239,86.6252 83.2972,86.4382 83.4704,86.6547 83.6434,86.6507 83.8167,86.5196 83.9899,86.7378 84.1631,86.3581 84.3361,86.7142 84.5093,86.4396 84.6825,86.3823 84.8557,86.5835 85.0288,86.5179 85.202,86.3831 85.3752,86.3482 85.5483,86.4796 85.7215,86.4944 85.8947,86.5239 86.068,86.1698 86.241,86.1176 86.4142,86.2789 86.5874,86.1188 86.7606,86.2777 86.9337,86.2578 87.1069,86.8052 87.2801,86.6404 87.4533,86.7691 87.6263,86.8052 87.7995,86.339 87.9728,86.2201 88.146,85.0705 88.3191,85.9676 88.4923,85.6064 88.6655,85.3441 88.8387,85.868 89.0118,86.4904 89.185,85.7484 89.3582,85.9817 89.5314,86.15 89.7044,86.6394 89.8776,86.6705 90.0508,86.3297 90.2241,86.5266 90.3972,86.6662 90.5704,86.546 90.7436,85.9977 90.9168,86.69 91.0898,85.8889 91.2631,86.7568 91.4363,86.4162 91.6093,85.8547 91.7825,86.4306 91.9557,86.6031 92.1289,86.8768 92.302,86.6162 92.4753,86.2474 92.6485,86.4879 92.8217,86.7195 92.9947,85.6276 93.1679,86.3107 93.3411,86.4086 93.5144,86.061 93.6874,86.3613 93.8606,86.7255 94.0338,86.6735 94.207,85.754 94.3801,86.2104 94.5533,86.2787 94.7265,86.5075 94.8997,86.8452 95.0728,86.2028 95.246,86.2942 95.4192,86.4852 95.5924,86.2589 95.7655,86.3528 95.9387,86.8196 96.1119,85.3603 96.2851,86.0675 96.4582,85.9212 96.6314,85.8967 96.8046,86.4569 96.9778,86.1148 97.1508,85.1396 97.3241,86.0001 97.4973,86.1411 97.6704,86.5855 97.8436,86.3765 98.0168,86.4038 98.19,86.6705 98.363,85.8264 98.5362,86.3974 98.7095,86.353 98.8827,85.7848 99.0557,86.422 99.2289,86.5604 99.4021,86.6665 99.5754,86.6397 99.7485,86.0071 99.9217,86.6963 100.095,86.2342 100.268,86.782 100.441,86.0863 100.614,86.1609 100.788,85.9029 100.961,86.3341 101.134,86.7829 101.307,86.8864 101.48,86.1437 101.653,86.2298 101.827,86.2305 102,86.0469 102.173,86.2495 102.346,86.3568 102.519,86.3418 102.692,86.7874 102.866,86.4994 103.039,86.2475 103.212,86.5174 103.385,86.5255 103.558,86.4429 103.731,86.8709 103.905,86.2239 104.078,86.1941 104.251,86.2796 104.424,86.6456 104.597,86.5612 104.77,86.3517 104.944,86.3892 105.117,86.7626 105.29,86.9267 105.463,86.5024 105.636,85.8247 105.809,86.7383 105.983,86.6512 106.156,86.778 106.329,86.5351 106.502,86.6429 106.675,86.2713 106.849,86.5706 107.022,86.0415 107.195,85.9008 107.368,86.4059 107.541,86.4142 107.715,85.968 107.888,86.6943 108.061,85.4723 108.234,86.0526 108.407,86.2381 108.58,85.5674 108.753,86.2304 108.927,86.5216 109.1,86.2838 109.273,85.9252 109.446,86.2424 109.619,85.0292 109.793,86.195 109.966,85.6851 110.139,85.3261 110.312,85.0817 110.485,85.6514 110.658,86.4234 110.832,85.7131 111.005,85.8517 111.178,86.64 111.351,86.6003 111.524,86.375 111.697,86.4473 111.87,85.6 112.044,86.4493 112.217,86.5107 112.39,86.7419 112.563,86.6903 112.736,86.7097 112.91,86.483 113.083,86.7482 113.256,86.6834 113.429,86.7901 113.602,86.7972 113.776,86.8785 113.949,86.7836 114.122,86.5744 114.295,86.5569 114.468,86.6235 114.641,86.5758 114.815,86.0748 114.988,86.4841 115.161,85.8838 115.334,86.2239 115.507,86.226 115.68,86.5019 115.854,86.828 116.027,86.3785 116.2,86.4675 116.373,86.2061 116.546,86.6213 116.719,86.7197 116.893,86.7509 117.066,86.6896 117.239,86.8125 117.412,86.4302 117.585,86.7599 117.758,85.6918 117.932,86.0932 118.105,86.7184 118.278,86.4654 118.451,86.5029 118.624,86.0852 118.797,86.4677 118.971,86.6786 119.144,86.573 119.317,86.4699 119.49,86.0513 119.663,86.9173 119.837,86.7019 120.01,85.9473 120.183,86.5588 120.356,86.0166 120.529,86.506 120.702,86.3646 120.876,86.8189 121.049,86.6509 121.222,86.0295 121.395,86.865 121.568,85.9514 121.741,86.4091 121.915,86.3618 122.088,86.2888 122.261,85.8151 122.434,86.0621 122.607,86.0906 122.78,85.9339 122.954,85.6453 123.127,86.7386 123.3,85.6569 123.473,86.079 123.646,86.8813 123.819,86.1718 123.993,85.7963 124.166,85.7407 124.339,86.631 124.512,86.5595 124.685,86.3561 124.858,85.9687 125.032,86.3856 125.205,86.5337 125.378,86.6459 125.551,86.3588 125.724,86.0239 125.898,86.3866 126.071,86.6332 126.244,86.365 126.417,86.8929 126.59,86.751 126.763,86.3776 126.937,86.6414 127.11,86.2294 127.283,86.735 127.456,86.5702 127.629,86.6355 127.802,86.0849 127.976,86.6389 128.149,86.8163 128.322,86.5587 128.495,85.9843 128.668,85.2895 128.841,86.3982 129.015,85.557 129.188,85.4121 129.361,85.342 129.534,86.0061 129.707,85.6177 129.881,85.8166 130.054,86.2664 130.227,84.9942 130.4,86.3207 130.573,86.2115 130.746,86.2392 130.919,86.8264 131.093,86.5955 131.266,85.8313 131.439,84.8549 131.612,86.8661 131.785,85.9825 131.959,85.4173 132.132,86.0886 132.305,86.4858 132.478,86.3613 132.651,86.4575 132.824,86.8369 132.998,86.4561 133.171,86.6306 133.344,86.1194 133.517,86.6918 133.69,86.5377 133.864,86.433 134.037,86.4293 134.21,85.9223 134.383,86.6888 134.556,86.2795 134.729,86.5925 134.902,86.5628 135.076,86.9164 135.249,86.6295 135.422,86.6579 135.595,86.7839 135.768,86.3252 135.942,86.1925 136.115,86.4636 136.288,85.866 136.461,86.5787 136.634,86.7325 136.807,86.857 136.981,86.3687 137.154,86.6522 137.327,86.364 137.5,86.5769 137.673,86.6228 137.846,86.508 138.02,86.3701 138.193,86.5095 138.366,86.7068 138.539,86.7778 138.712,85.7941 138.885,84.9998 139.059,86.4851 139.232,86.1496 139.405,85.5002 139.578,85.6972 139.751,86.6143 139.924,86.6156 140.098,85.9483 140.271,86.5056 140.444,85.8228 140.617,85.5287 140.79,86.7022 140.964,86.4793 141.137,86.5745 141.31,86.6084 141.483,86.0319 141.656,86.4723 141.829,86.2173 142.003,86.6485 142.176,85.8337 142.349,86.5914 142.522,86.2159 142.695,85.8205 142.868,86.8666 143.042,86.4118 143.215,86.6203 143.388,86.6911 143.561,86.3123 143.734,85.8964 143.907,86.332 144.081,86.5963 144.254,86.2778 144.427,86.5653 144.6,86.3908 144.773,86.5722 144.946,85.8947 145.12,86.3894 145.293,86.1385 145.466,86.7311 145.639,86.5999 145.812,86.5207 145.986,85.8963 146.159,86.6051 146.332,86.5129 146.505,86.5508 146.678,85.5086 146.851,85.8242 147.024,85.505 147.198,86.6098 147.371,86.4909 147.544,86.4403 147.717,86.1947 147.89,86.5729 148.064,86.2544 148.237,86.4868 148.41,86.4711 148.583,86.6827 148.756,86.5063 148.929,86.4958 149.103,86.6288 149.276,86.6716 149.449,86.2415 149.622,86.6484 149.795,85.729 149.969,86.3202 150.142,85.8525 150.315,86.4092 150.488,86.5426 150.661,86.0367 150.834,86.2592 151.007,85.7483 151.181,86.0597 151.354,86.1583 151.527,85.7904 151.7,86.4934 151.873,86.2239 152.047,86.7157 152.22,86.8133 152.393,86.4358 152.566,86.7807 152.739,86.6029 152.912,86.4664 153.086,85.9044 153.259,86.454 153.432,86.1386 153.605,86.557 153.778,86.2659 153.951,86.5178 154.125,86.5853 154.298,86.4779 154.471,86.3987 154.644,86.61 154.817,86.5647 154.99,86.8878 155.164,85.9911 155.337,86.5546 155.51,86.7454 155.683,86.7833 155.856,86.6872 156.03,86.3817 156.203,86.277 156.376,86.2773 156.549,86.3996 156.722,86.5339 156.895,86.2826 157.069,86.5492 157.242,86.4345 157.415,86.6267 157.588,86.4585 157.761,86.5461 157.934,86.1141 158.108,86.0632 158.281,86.6646 158.454,86.2424 158.627,86.1381 158.8,86.7842 158.973,86.3258 159.147,86.1583 159.32,86.0149 159.493,86.3656 159.666,86.3852 159.839,86.122 160.012,86.5124 160.186,86.2673 160.359,86.2321 160.532,86.3977 160.705,86.5471 160.878,85.957 161.051,85.7178 161.225,85.2913 161.398,86.1407 161.571,86.3439 161.744,85.3826 161.917,86.1501 162.091,85.381 162.264,86.3733 162.437,86.8097 162.61,86.6043 162.783,86.3173 162.956,86.2052 163.13,86.4335 163.303,85.3652 163.476,85.9686 163.649,83.2387 163.822,84.042 163.995,85.5473 164.169,86.5763 164.342,85.8777 164.515,86.7003 164.688,86.7979 164.861,86.1165 165.034,86.5536 165.208,86.1281 165.381,86.8675 165.554,86.3446 165.727,86.881 165.9,85.9616 166.073,86.509 166.247,86.7841 166.42,86.363 166.593,86.8088 166.766,86.1103 166.939,85.8403 167.112,86.5375 167.286,86.7944 167.459,86.7742 167.632,86.4594 167.805,86.3998 167.978,86.4038 168.152,86.5937 168.325,86.5791 168.498,86.2724 168.671,86.3514 168.844,86.3597 169.018,86.3903 169.191,86.4071 169.364,86.6498 169.537,86.9158 169.71,86.3594 169.883,86.2781 170.056,85.7808 170.23,86.663 170.403,86.6646 170.576,86.8578 170.749,86.6686 170.922,86.8197 171.095,86.7296 171.269,85.9509 171.442,85.9731 171.615,85.8141 171.788,86.2292 171.961,86.2062 172.135,86.459 172.308,85.6364 172.481,86.1285 172.654,85.4632 172.827,86.3326 173,86.1418 173.173,85.6624 173.347,86.3488 173.52,86.5644 173.693,86.5566 173.866,85.6986 174.039,86.5581 174.213,86.6801 174.386,86.2471 174.559,85.9127 174.732,85.5433 174.905,86.6393 175.079,85.3929 175.252,85.7495 175.425,86.1732 175.598,86.4093 175.771,86.0647 175.944,86.5294 176.118,86.1865 176.291,86.5918 176.464,86.7697 176.637,86.8123 176.81,86.6239 176.983,86.7837 177.156,86.6242 177.33,86.1042 177.503,86.5858 177.676,86.4688 177.849,86.6173 178.022,86.2072 178.196,86.0667 178.369,86.3701 178.542,86.065 178.715,86.2372 178.888,79.8078 179.061,84.7678 179.235,86.0013 179.408,85.5486 179.581,86.5207 179.754,86.4621 179.927,86.4944 180.1,85.9674 180.274,85.8378 180.447,86.4543 180.62,85.0971 180.793,85.889 180.966,86.7969 181.14,85.5142 181.313,86.4033 181.486,86.4574 181.659,86.5576 181.832,86.5958 182.005,86.7175 182.178,86.6075 182.352,85.5854 182.525,86.8693 182.698,85.6151 182.871,86.0971 183.044,86.6602 183.218,86.6548 183.391,86.2904 183.564,86.508 183.737,85.6467 183.91,86.3794 184.083,86.3462 184.257,86.6193 184.43,86.2972 184.603,86.6607 184.776,86.6372 184.949,86.2127 185.123,86.8925 185.296,86.5824 185.469,86.8212 185.642,86.5058 185.815,85.8029 185.988,86.8444 186.161,86.2526 186.335,86.1658 186.508,86.5158 186.681,86.5284 186.854,86.3244 187.027,86.4235 187.201,86.5274 187.374,86.7892 187.547,86.6048 187.72,86.6169 187.893,86.5925 188.066,86.0561 188.24,86.3352 188.413,85.6228 188.586,86.2521 188.759,86.3995 188.932,86.6725 189.105,86.5478 189.278,86.3625 189.452,86.1273 189.625,86.3871 189.798,86.5993 189.971,86.4647 190.144,86.3906 190.318,86.5885 190.491,86.3327 190.664,86.5981 190.837,86.0461 191.01,86.7182 191.184,86.8038 191.357,86.5335 191.53,86.2567 191.703,86.2904 191.876,86.2375 192.049,86.8068 192.223,86.1826 192.396,86.1993 192.569,86.3911 192.742,86.2779 192.915,86.2362 193.088,86.0793 193.262,85.2005 193.435,86.4283 193.608,85.8969 193.781,86.7146 193.954,85.9506 194.127,85.4435 194.301,85.3684 194.474,85.5661 194.647,85.3329 194.82,84.975 194.993,85.9293 195.167,85.2415 195.34,85.2835 195.513,86.3802 195.686,86.5807 195.859,86.3475 196.032,86.2549 196.205,86.0999 196.379,85.4558 196.552,86.0488 196.725,86.5468 196.898,86.2018 197.071,86.2146 197.245,86.4809 197.418,85.9396 197.591,86.2172 197.764,86.6825 197.937,86.7432 198.11,86.535 198.284,86.7906 198.457,86.475 198.63,86.7744 198.803,86.4886 198.976,86.4962 199.149,86.6552 199.323,86.799 199.496,86.3387 199.669,86.4874 199.842,86.7224 200.015,86.7053 200.188,86.4875 200.362,86.8915 200.535,86.3091 200.708,86.406 200.881,86.43 201.054,86.5949 201.227,86.3674 201.401,86.8722 201.574,86.5361 201.747,86.3595 201.92,86.7332 202.093,86.4227 202.267,86.5355 202.44,85.9451 202.613,86.3921 202.786,86.235 202.959,86.5388 203.132,86.5165 203.306,86.5611 203.479,86.5623 203.652,86.4574 203.825,86.336 203.998,86.6216 204.171,86.5062 204.345,86.3402 204.518,86.6335 204.691,86.752 204.864,86.5768 205.037,86.3769 205.21,86.5347 205.384,86.5177 205.557,86.7055 205.73,86.5594 205.903,86.3707 206.076,86.5318 206.249,86.264 206.423,86.5297 206.596,86.7475 206.769,86.1721 206.942,86.4482 207.115,86.5785 207.289,86.7343 207.462,86.646 207.635,86.6422 207.808,86.6305 207.981,86.6947 208.154,86.5681 208.327,86.7384 208.501,86.3678 208.674,86.4896 208.847,86.6015 209.02,86.4943 209.193,86.257 209.367,86.314 209.54,86.0485 209.713,86.5513 209.886,86.4476 210.059,86.4476 210.232,86.3446 210.406,86.1137 210.579,86.0397 210.752,86.3935 210.925,86.6007 211.098,86.5095 211.272,86.8514 211.445,86.4286 211.618,86.1703 211.791,86.2364 211.964,86.3121 212.137,86.7981 212.31,86.6725 212.484,86.4626 212.657,86.3425 212.83,86.5511 213.003,86.4342 213.176,86.5355 213.35,86.6822 213.523,86.8315 213.696,86.6199 213.869,86.1275 214.042,86.875 214.215,86.7439 214.389,86.2587 214.562,85.9296 214.735,86.2121 214.908,86.723 215.081,85.8339 215.255,86.866 215.428,86.261 215.601,86.1289 215.774,84.9296 215.947,85.1962 216.12,86.1386 216.293,85.0893 216.467,85.9352 216.64,86.8139 216.813,85.8987 216.986,85.9526 217.159,86.4861 217.333,85.9239 217.506,86.3631 217.679,86.2656 217.852,85.9182 218.025,84.7969 218.198,85.7512 218.372,85.0282 218.545,85.2448 218.718,85.7613 218.891,85.71 219.064,84.9334 219.237,85.5361 219.411,86.4352 219.584,86.5812 219.757,86.259 219.93,86.3273 220.103,86.6956 220.276,85.7482 220.45,86.4198 220.623,86.5594 220.796,86.6299 220.969,86.2288 221.142,86.6005 221.315,86.107 221.489,85.9948 221.662,86.4852 221.835,86.0612 222.008,86.3885 222.181,86.5765 222.355,86.3979 222.528,86.1224 222.701,86.6314 222.874,85.7544 223.047,86.5197 223.22,86.158 223.394,86.2647 223.567,86.0844 223.74,86.1046 223.913,86.2401 224.086,85.8932 224.259,85.9491 224.433,86.4684 224.606,86.4994 224.779,86.0877 224.952,86.0104 225.125,86.2178 225.298,86.0992 225.472,86.744 225.645,86.5788 225.818,86.4212 225.991,86.0277 226.164,86.4821 226.337,86.671 226.511,85.4634 226.684,86.3423 226.857,85.9514 227.03,85.323 227.203,85.5957 227.377,86.5796 227.55,86.8038 227.723,86.2823 227.896,86.9511 228.069,86.7574 228.242,86.1577 228.416,86.5915 228.589,86.5692 228.762,86.8334 228.935,85.988 229.108,86.6617 229.281,86.1937 229.455,86.4937 229.628,86.8607 229.801,85.8459 229.974,85.725 230.147,86.6615 230.32,86.6115 230.494,86.7288 230.667,86.6529 230.84,86.6909 231.013,86.3601 231.186,86.6021 231.359,86.3485 231.533,86.439 231.706,86.1319 231.879,86.4435 232.052,86.7286 232.225,86.5672 232.399,86.9313 232.572,86.9314 232.745,86.4042 232.918,86.2992 233.091,86.7235 233.264,86.6659 233.438,86.8291 233.611,86.5157 233.784,86.624 233.957,86.0117 234.13,86.066 234.303,86.8758 234.477,86.5455 234.65,86.801 234.823,86.2156 234.996,86.0049 235.169,86.7682 235.342,86.3521 235.516,86.6498 235.689,86.419 235.862,86.5572 236.035,86.6657 236.208,86.4117 236.382,86.6461 236.555,86.5057 236.728,86.3655 236.901,86.5972 237.074,86.4042 237.247,86.305 237.421,85.9901 237.594,86.1408 237.767,86.0929 237.94,85.3537 238.113,85.9371 238.286,86.1946 238.46,85.6009 238.633,85.7803 238.806,85.3042 238.979,68.7303 239.152,85.7755 239.325,85.5789 239.499,85.32 239.672,85.2889 239.845,85.8067 240.018,85.8426 240.191,85.3824 240.364,86.2903 240.538,85.7458 240.711,85.7421 240.884,86.539 241.057,86.6082 241.23,86.6619 241.403,86.496 241.577,86.6595 241.75,86.4729 241.923,86.8771 242.096,86.8038 242.269,86.3552 242.442,86.3949 242.616,86.3862 242.789,86.2856 242.962,86.5337 243.135,86.5106 243.308,86.2373 243.482,86.5146 243.655,86.5305 243.828,86.0975 244.001,86.4443 244.174,86.5467 244.347,86.6671 244.521,85.995 244.694,86.7868 244.867,86.2606 245.04,86.2697 245.213,85.5596 245.386,85.8479 245.56,85.978 245.733,85.8284 245.906,85.6291 246.079,85.8209 246.252,86.118 246.425,86.6289 246.599,86.6718 246.772,86.5045 246.945,86.2126 247.118,86.1262 247.291,86.6647 247.464,86.4106 247.638,86.318 247.811,86.4448 247.984,86.4893 248.157,86.7541 248.33,86.5696 248.504,86.5638 248.677,86.5208 248.85,86.4454 249.023,86.6291 249.196,86.6075 249.369,86.9096 249.543,86.4603 249.716,86.367 249.889,86.5248 250.062,85.9208 250.235,86.5127 250.408,86.156 250.582,86.5818 250.755,86.1552 250.928,86.5185 251.101,86.6499 251.274,86.6411 251.447,86.3454 251.621,86.2606 251.794,86.8524 251.967,86.0513 252.14,86.3362 252.313,86.6553 252.486,86.5941 252.66,86.3955 252.833,86.2635 253.006,86.2104 253.179,86.018 253.352,85.5284 253.526,86.5378 253.699,86.2484 253.872,86.0145 254.045,86.4476 254.218,86.7451 254.391,86.5035 254.565,86.537 254.738,86.7065 254.911,86.1227 255.084,86.8033 255.257,86.585 255.431,86.3941 255.604,86.5111 255.777,86.618 255.95,86.5032 256.123,86.4405 256.296,86.6356 256.469,86.4266 256.643,86.6584 256.816,86.6239 256.989,86.7018 257.162,86.5468 257.335,86.8479 257.509,86.6026 257.682,86.5237 257.855,86.397 258.028,85.9941 258.201,86.3759 258.374,86.6447 258.548,86.602 258.721,86.6847 258.894,86.7012 259.067,86.0249 259.24,85.0695 259.413,86.0758 259.587,85.24 259.76,85.8727 259.933,86.3937 260.106,85.6343 260.279,86.6403 260.452,86.576 260.626,86.1687 260.799,86.5271 260.972,86.5658 261.145,86.8579 261.318,86.4552 261.491,86.5831 261.665,86.6714 261.838,86.1778 262.011,86.4852 262.184,86.7857 262.357,86.3215 262.531,86.4302 262.704,86.6881 262.877,86.5483 263.05,86.3235 263.223,86.5731 263.396,86.6595 263.569,86.5704 263.743,86.6332 263.916,86.3813 264.089,86.4762 264.262,85.9407 264.435,86.8856 264.609,86.5589 264.782,86.54 264.955,86.0158 265.128,86.5625 265.301,86.7891 265.474,86.2038 265.648,86.3766 265.821,86.2948 265.994,86.6772 266.167,86.2328 266.34,86.6509 266.513,86.7428 266.687,86.3075 266.86,86.4278 267.033,86.1048 267.206,86.1016 267.379,85.9074 267.553,85.994 267.726,86.4075 267.899,86.694 268.072,86.743 268.245,86.626 268.418,86.349 268.591,86.613 268.765,86.6718 268.938,86.7558 269.111,86.5006 269.284,86.3526 269.457,86.8512 269.631,86.8302 269.804,86.3974 269.977,86.3985 270.15,86.7212 270.323,86.6603 270.496,85.8863 270.67,86.1848 270.843,86.8138 271.016,86.7029 271.189,86.4113 271.362,86.5233 271.535,86.8192 271.709,86.6863 271.882,86.4732 272.055,86.4153 272.228,86.1306 272.401,86.6024 272.575,86.4349 272.748,86.5583 272.921,86.2054 273.094,86.7113 273.267,86.4483 273.44,86.3278 273.614,86.4711 273.787,86.881 273.96,86.3667 274.133,86.8268 274.306,86.8786 274.479,86.7291 274.653,85.9206 274.826,85.9132 274.999,85.1966 275.172,86.1653 275.345,86.4077 275.518,85.875 275.692,86.1499 275.865,86.141 276.038,85.7318 276.211,86.8636 276.384,86.4815 276.558,86.6288 276.731,86.738 276.904,86.3993 277.077,85.7077 277.25,86.3474 277.423,86.6819 277.597,86.0896 277.77,86.3494 277.943,85.9666 278.116,86.38 278.289,86.3891 278.462,86.3169 278.636,86.9161 278.809,86.9398 278.982,86.2853 279.155,86.368 279.328,85.7534 279.501,86.2721 279.675,86.5433 279.848,85.691 280.021,85.7695 280.194,85.931 280.367,85.2031 280.54,85.149 280.714,84.4464 280.887,83.9043 281.06,85.6582 281.233,84.9323 281.406,85.5118 281.579,86.4212 281.753,86.18 281.926,86.8632 282.099,86.1292 282.272,86.1923 282.445,86.4801 282.618,86.6505 282.792,85.8179 282.965,85.8922 283.138,85.6951 283.311,86.5443 283.484,84.6877 283.658,83.9455 283.831,85.5758 284.004,82.8177 284.177,82.1213 284.35,81.5172 284.523,66.4735 284.697,33.5478 284.87,71.6996 285.043,81.373 285.216,83.2378 285.389,83.5044 285.562,84.6624 285.736,85.1844 285.909,84.8684 286.082,84.831 286.255,85.6576 286.428,86.0927 286.601,86.1205 286.775,85.9389 286.948,86.2492 287.121,86.4868 287.294,86.2217 287.467,85.8716 287.641,85.7588 287.814,86.3802 287.987,86.4367 288.16,86.4733 288.333,86.4951 288.506,86.0623 288.68,86.1815 288.853,85.7309 289.026,85.5586 289.199,85.5741 289.372,86.043 289.545,85.908 289.719,86.4869 289.892,86.7112 290.065,86.265 290.238,86.5948 290.411,86.1791 290.584,86.4512 290.758,86.3838 290.931,86.591 291.104,86.3529 291.277,85.8875 291.45,86.2073 291.623,86.549 291.797,86.6486 291.97,86.8985 292.143,86.1101 292.316,86.3506 292.489,86.75 292.663,86.6366 292.836,86.265 293.009,86.8928 293.182,86.4763 293.355,86.5294 293.528,86.7512 293.702,86.2055 293.875,86.6791 294.048,86.3568 294.221,85.8959 294.394,86.1428 294.567,86.5615 294.741,86.0514 294.914,86.3958 295.087,86.703 295.26,86.7584 295.433,86.2775 295.606,86.5084 295.78,86.2671 295.953,86.3118 296.126,86.1124 296.299,86.1827 296.472,86.2516 296.645,86.3869 296.819,86.8413 296.992,86.1515 297.165,86.1066 297.338,86.6916 297.511,86.8211 297.685,86.5076 297.858,85.8801 298.031,86.5684 298.204,86.2497 298.377,86.7112 298.55,86.6002 298.724,86.6653 298.897,86.1178 299.07,86.477 299.243,85.87 299.416,86.1887 299.589,86.2965 299.763,86.5082 299.936,86.5309 300.109,85.9747 300.282,86.2786 300.455,86.9004 300.628,86.6927 300.802,86.4587 300.975,86.6054 301.148,86.4632 301.321,86.0108 301.494,86.5759 301.667,85.7222 301.841,86.7501 302.014,86.5011 302.187,85.8633 302.36,86.7045 302.533,86.8324 302.706,85.8287 302.88,86.3601 303.053,86.3931 303.226,86.6857 303.399,86.4471 303.572,86.1075 303.745,86.2137 303.919,86.3651 304.092,86.5683 304.265,86.3829 304.438,85.7314 304.611,85.4579 304.785,85.9334 304.958,85.4352 305.131,85.0082 305.304,85.9694 305.477,85.3607 305.65,84.9456 305.824,85.7545 305.997,86.4131 306.17,86.126 306.343,86.249 306.516,86.484 306.689,86.5287 306.863,86.0081 307.036,86.1585 307.209,86.0953 307.382,85.8351 307.555,86.324 307.728,85.9773 307.902,86.7878 308.075,85.9604 308.248,86.6743 308.421,86.237 308.594,86.4526 308.767,86.6582 308.941,86.3761 309.114,86.4322 309.287,86.7681 309.46,86.1362 309.633,86.6959 309.807,86.7265 309.98,86.1788 310.153,86.8456 310.326,86.3225 310.499,86.722 310.672,86.6108 310.846,86.3284 311.019,86.2683 311.192,86.6108 311.365,86.5772 311.538,86.4281 311.711,86.2959 311.885,86.5228 312.058,86.3771 312.231,86.1421 312.404,86.5663 312.577,86.3549 312.75,86.6202 312.924,86.7489 313.097,86.5226 313.27,86.6335 313.443,86.7025 313.616,86.7997 313.79,86.7643 313.963,85.9886 314.136,86.3402 314.309,86.8139 314.482,86.2086 314.655,86.4511 314.829,86.6673 315.002,86.5604 315.175,86.5017 315.348,86.6657 315.521,86.5585 315.694,86.4812 315.868,86.1149 316.041,86.5958 316.214,86.5692 316.387,86.3635 316.56,86.5599 316.734,86.3448 316.907,86.3517 317.08,86.5551 317.253,86.7756 317.426,86.2719 317.599,86.8057 317.772,86.8516 317.946,86.431 318.119,86.163 318.292,86.3085 318.465,86.5316 318.638,86.5345 318.812,86.0062 318.985,86.7787 319.158,86.5224 319.331,86.7915 319.504,86.6202 319.677,86.5915 319.851,86.2451 320.024,86.7207 320.197,86.234 320.37,86.7157 320.543,86.0173 320.716,86.5818 320.89,83.8945 321.063,66.547 321.236,83.967 321.409,86.0247 321.582,86.1726 321.755,86.5682 321.929,86.4007 322.102,86.8352 322.275,86.3977 322.448,86.4422 322.621,86.6979 322.794,86.6588 322.968,86.7999 323.141,86.6555 323.314,86.2698 323.487,86.4017 323.66,86.0854 323.833,86.6572 324.007,85.3191 324.18,85.3423 324.353,85.9607 324.526,84.5594 324.699,85.8505 324.872,85.6814 325.046,85.4075 325.219,85.5817 325.392,86.3492 325.565,86.744 325.738,86.4957 325.912,86.1102 326.085,86.5678 326.258,86.5485 326.431,86.3833 326.604,86.5512 326.777,86.0882 326.951,86.3927 327.124,86.3301 327.297,86.0524 327.47,86.3319 327.643,86.5107 327.816,86.5956 327.99,86.1803 328.163,86.7776 328.336,86.8794 328.509,86.3018 328.682,86.2308 328.856,86.5971 329.029,86.1772 329.202,86.8696 329.375,86.4179 329.548,86.8703 329.721,86.3911 329.895,86.6444 330.068,86.647 330.241,86.353 330.414,86.5573 330.587,86.1433 330.76,86.1266 330.934,86.7317 331.107,86.774 331.28,86.3834 331.453,86.1536 331.626,86.6342 331.799,86.5044 331.973,86.2107 332.146,86.6741 332.319,85.908 332.492,86.4825 332.665,86.4796 332.839,86.1147 333.012,86.2312 333.185,86.5631 333.358,86.2875 333.531,85.8652 333.704,85.7362 333.878,86.2899 334.051,86.8465 334.224,86.487 334.397,86.7263 334.57,86.6804 334.743,86.1051 334.917,86.5363 335.09,86.7677 335.263,86.3627 335.436,86.5513 335.609,86.2097 335.782,86.7414 335.956,86.6979 336.129,86.2981 336.302,86.524 336.475,86.2584 336.648,86.2631 336.822,86.2722 336.995,86.2748 337.168,86.551 337.341,86.5812 337.514,86.6455 337.687,86.3823 337.861,86.5533 338.034,86.7867 338.207,86.628 338.38,86.4925 338.553,86.5035 338.726,86.5108 338.9,86.4075 339.073,86.5957 339.246,86.3699 339.419,85.7896 339.592,86.7062 339.765,85.8259 339.939,85.5715 340.112,86.0557 340.285,86.5319 340.458,86.6034 340.631,85.5239 340.804,85.8612 340.978,86.0745 341.151,85.8161 341.324,85.0651 341.497,85.6032 341.67,73.3352 341.843,82.355 342.017,83.6784 342.19,84.8058 342.363,86.1081 342.536,85.7241 342.709,86.5177 342.882,86.5622 343.056,86.1699 343.229,86.142 343.402,85.7051 343.575,86.416 343.748,86.3991 343.922,86.3931 344.095,86.5521 344.268,86.467 344.441,85.735 344.614,86.0841 344.787,86.3389 344.961,86.6888 345.134,86.0748 345.307,86.1585 345.48,86.3831 345.653,85.8253 345.826,85.349 346,86.5286 346.173,85.1918 346.346,85.606 346.519,86.7072 346.692,85.5191 346.865,85.5859 347.039,86.3166 347.212,86.4251 347.385,86.0272 347.558,86.4072 347.731,86.3521 347.904,86.1804 348.078,86.489 348.251,86.5845 348.424,85.3302 348.597,86.4787 348.77,86.1566 348.944,85.7973 349.117,86.4395 349.29,86.6335 349.463,86.085 349.636,86.6302 349.809,86.6699 349.983,86.1231 350.156,86.8405 350.329,86.7015 350.502,86.6487 350.675,86.7213 350.848,85.831 351.022,86.5445 351.195,86.9442 351.368,85.8467 351.541,86.5586 351.714,86.806 351.887,86.5051 352.061,86.8257 352.234,86.5703 352.407,86.5245 352.58,86.1352 352.753,86.1191 352.926,86.6288 353.1,86.5154 353.273,86.1795 353.446,85.9707 353.619,86.4704 353.792,86.653 353.966,86.4755 354.139,86.2012 354.312,86.1776 354.485,86.297 354.658,86.6328 354.831,85.8293 355.005,86.6212 355.178,86.3666 355.351,86.091 355.524,86.4508 355.697,86.2307 355.87,85.9314 356.044,86.8852 356.217,86.5454 356.39,86.369 356.563,86.8142 356.736,86.7121 356.909,86.4846 357.083,86.5961 357.256,86.6954 357.429,86.7875 357.602,86.556 357.775,85.9886 357.948,85.8906 358.122,86.3445 358.295,86.3966 358.468,86.1917 358.641,86.0536 358.814,86.2376 358.988,86.7686 359.161,86.4826 359.334,86.7801 359.507,86.6622 359.68,86.501 359.853,86.4514 360.027,86.4127 360.2,86.7222 360.373,86.4039 360.546,86.202 360.719,86.0212 360.892,86.9165 361.066,86.6606 361.239,86.2393 361.412,86.8098 361.585,86.7886 361.758,86.0002 361.931,86.4927 362.105,86.3234 362.278,86.1619 362.451,86.4356 362.624,86.4197 362.797,86.6951 362.97,86.1561 363.144,86.7891 363.317,85.7905 363.49,84.215 363.663,86.6231 363.836,86.1141 364.009,86.2325 364.183,86.6253 364.356,86.8018 364.529,86.4751 364.702,86.1526 364.875,86.5603 365.049,86.4183 365.222,86.8383 365.395,86.6404 365.568,86.5036 365.741,86.5485 365.914,86.2623 366.088,86.4637 366.261,86.0167 366.434,86.6956 366.607,86.7913 366.78,86.0013 366.953,86.3675 367.127,86.1105 367.3,86.0553 367.473,84.9289 367.646,86.5757 367.819,86.2706 367.992,86.1148 368.166,86.4617 368.339,85.1053 368.512,86.6317 368.685,86.3957 368.858,86.244 369.031,86.9191 369.205,86.7364 369.378,86.3309 369.551,86.7664 369.724,86.0668 369.897,86.63 370.07,86.4994 370.244,86.4678 370.417,86.354 370.59,86.6422 370.763,86.7526 370.936,86.6844 371.11,86.635 371.283,86.7085 371.456,86.4969 371.629,86.7229 371.802,86.5196 371.975,86.5721 372.149,86.8481 372.322,86.5518 372.495,86.5019 372.668,86.059 372.841,86.7867 373.014,86.6357 373.188,86.6045 373.361,86.6982 373.534,86.5386 373.707,86.6807 373.88,85.9667 374.053,85.9201 374.227,86.4254 374.4,86.2525 374.573,85.8575 374.746,86.7357 374.919,86.6412 375.093,86.1924 375.266,86.5355 375.439,86.5168 375.612,86.2881 375.785,85.6766 375.958,86.4047 376.132,86.7008 376.305,86.4846 376.478,86.6409 376.651,86.5973 376.824,85.8905 376.997,86.4437 377.171,86.6007 377.344,86.5876 377.517,86.4953 377.69,86.6959 377.863,86.7463 378.036,86.7099 378.21,86.7084 378.383,86.4745 378.556,86.1348 378.729,86.0783 378.902,86.0958 379.076,86.655 379.249,85.8794 379.422,86.2775 379.488,86.3276" stroke="#0071bc" stroke-linecap="butt" stroke-linejoin="round" stroke-width="0.5"/>
  </g>
  <clipPath id="cp00418314">
   <polygon points="0,314 418,314 418,0 0,0"/>
  </clipPath>
  <g clip-path="url(#cp00418314)">
   <polygon fill="#ffffff" points="54.4654,183.312 379.163,183.312 379.163,123.914 54.4654,123.914" shape-rendering="crispEdges"/>
   <polyline fill="none" points="54.4654,183.312 54.4654,180.043" stroke="#262626" stroke-linecap="butt" stroke-linejoin="miter" stroke-width="0.5"/>
   <polyline fill="none" points="54.4654,123.914 54.4654,127.183" stroke="#262626" stroke-linecap="butt" stroke-linejoin="miter" stroke-width="0.5"/>
   <polyline fill="none" points="97.7584,183.312 97.7584,180.043" stroke="#262626" stroke-linecap="butt" stroke-linejoin="miter" stroke-width="0.5"/>
   <polyline fill="none" points="97.7584,123.914 97.7584,127.183" stroke="#262626" stroke-linecap="butt" stroke-linejoin="miter" stroke-width="0.5"/>
   <polyline fill="none" points="141.052,183.312 141.052,180.043" stroke="#262626" stroke-linecap="butt" stroke-linejoin="miter" stroke-width="0.5"/>
   <polyline fill="none" points="141.052,123.914 141.052,127.183" stroke="#262626" stroke-linecap="butt" stroke-linejoin="miter" stroke-width="0.5"/>
   <polyline fill="none" points="184.344,183.312 184.344,180.043" stroke="#262626" stroke-linecap="butt" stroke-linejoin="miter" stroke-width="0.5"/>
   <polyline fill="none" points="184.344,123.914 184.344,127.183" stroke="#262626" stroke-linecap="butt" stroke-linejoin="miter" stroke-width="0.5"/>
   <polyline fill="none" points="227.638,183.312 227.638,180.043" stroke="#262626" stroke-linecap="butt" stroke-linejoin="miter" stroke-width="0.5"/>
   <polyline fill="none" points="227.638,123.914 227.638,127.183" stroke="#262626" stroke-linecap="butt" stroke-linejoin="miter" stroke-width="0.5"/>
   <polyline fill="none" points="270.931,183.312 270.931,180.043" stroke="#262626" stroke-linecap="butt" stroke-linejoin="miter" stroke-width="0.5"/>
   <polyline fill="none" points="270.931,123.914 270.931,127.183" stroke="#262626" stroke-linecap="butt" stroke-linejoin="miter" stroke-width="0.5"/>
   <polyline fill="none" points="314.224,183.312 314.224,180.043" stroke="#262626" stroke-linecap="butt" stroke-linejoin="miter" stroke-width="0.5"/>
   <polyline fill="none" points="314.224,123.914 314.224,127.183" stroke="#262626" stroke-linecap="butt" stroke-linejoin="miter" stroke-width="0.5"/>
   <polyline fill="none" points="357.517,183.312 357.517,180.043" stroke="#262626" stroke-linecap="butt" stroke-linejoin="miter" stroke-width="0.5"/>
   <polyline fill="none" points="357.517,123.914 357.517,127.183" stroke="#262626" stroke-linecap="butt" stroke-linejoin="miter" stroke-width="0.5"/>
   <g font-family="FreeSans" font-size="10" font-style="normal" font-weight="normal" transform="translate(42.4655,198.863) rotate(-0,12,-8)" xml:space="preserve">
    <text fill="rgb(38,38,38)" x="0 3 9 12 18 " y="-0">-0.07</text>
   </g>
   <g font-family="FreeSans" font-size="10" font-style="normal" font-weight="normal" transform="translate(82.7585,198.863) rotate(-0,15,-8)" xml:space="preserve">
    <text fill="rgb(38,38,38)" x="0 3 9 12 18 24 " y="-0">-0.068</text>
   </g>
   <g font-family="FreeSans" font-size="10" font-style="normal" font-weight="normal" transform="translate(126.052,198.863) rotate(-0,15,-8)" xml:space="preserve">
    <text fill="rgb(38,38,38)" x="0 3 9 12 18 24 " y="-0">-0.066</text>
   </g>
   <g font-family="FreeSans" font-size="10" font-style="normal" font-weight="normal" transform="translate(169.345,198.863) rotate(-0,15,-8)" xml:space="preserve">
    <text fill="rgb(38,38,38)" x="0 3 9 12 18 24 " y="-0">-0.064</text>
   </g>
   <g font-family="FreeSans" font-size="10" font-style="normal" font-weight="normal" transform="translate(212.638,198.863) rotate(-0,15,-8)" xml:space="preserve">
    <text fill="rgb(38,38,38)" x="0 3 9 12 18 24 " y="-0">-0.062</text>
   </g>
   <g font-family="FreeSans" font-size="10" font-style="normal" font-weight="normal" transform="translate(258.931,198.863) rotate(-0,12,-8)" xml:space="preserve">
    <text fill="rgb(38,38,38)" x="0 3 9 12 18 " y="-0">-0.06</text>
   </g>
   <g font-family="FreeSans" font-size="10" font-style="normal" font-weight="normal" transform="translate(299.224,198.863) rotate(-0,15,-8)" xml:space="preserve">
    <text fill="rgb(38,38,38)" x="0 3 9 12 18 24 " y="-0">-0.058</text>
   </g>
   <g font-family="FreeSans" font-size="10" font-style="normal" font-weight="normal" transform="translate(342.517,198.863) rotate(-0,15,-8)" xml:space="preserve">
    <text fill="rgb(38,38,38)" x="0 3 9 12 18 24 " y="-0">-0.056</text>
   </g>
   <polyline fill="none" points="54.4654,183.312 57.7094,183.312" stroke="#262626" stroke-linecap="butt" stroke-linejoin="miter" stroke-width="0.5"/>
   <polyline fill="none" points="379.163,183.312 375.919,183.312" stroke="#262626" stroke-linecap="butt" stroke-linejoin="miter" stroke-width="0.5"/>
   <polyline fill="none" points="54.4654,168.463 57.7094,168.463" stroke="#262626" stroke-linecap="butt" stroke-linejoin="miter" stroke-width="0.5"/>
   <polyline fill="none" points="379.163,168.463 375.919,168.463" stroke="#262626" stroke-linecap="butt" stroke-linejoin="miter" stroke-width="0.5"/>
   <polyline fill="none" points="54.4654,153.613 57.7094,153.613" stroke="#262626" stroke-linecap="butt" stroke-linejoin="miter" stroke-width="0.5"/>
   <polyline fill="none" points="379.163,153.613 375.919,153.613" stroke="#262626" stroke-linecap="butt" stroke-linejoin="miter" stroke-width="0.5"/>
   <polyline fill="none" points="54.4654,138.763 57.7094,138.763" stroke="#262626" stroke-linecap="butt" stroke-linejoin="miter" stroke-width="0.5"/>
   <polyline fill="none" points="379.163,138.763 375.919,138.763" stroke="#262626" stroke-linecap="butt" stroke-linejoin="miter" stroke-width="0.5"/>
   <polyline fill="none" points="54.4654,123.914 57.7094,123.914" stroke="#262626" stroke-linecap="butt" stroke-linejoin="miter" stroke-width="0.5"/>
   <polyline fill="none" points="379.163,123.914 375.919,123.914" stroke="#262626" stroke-linecap="butt" stroke-linejoin="miter" stroke-width="0.5"/>
   <g font-family="FreeSans" font-size="10" font-style="normal" font-weight="normal" transform="translate(43.4701,187.312) rotate(-0,6,-4)" xml:space="preserve">
    <text fill="rgb(38,38,38)" x="0 " y="-0">0</text>
   </g>
   <g font-family="FreeSans" font-size="10" font-style="normal" font-weight="normal" transform="translate(20.4701,172.463) rotate(-0,29,-4)" xml:space="preserve">
    <text fill="rgb(38,38,38)" x="0 6 11 17 23 " y="-0">1e+05</text>
   </g>
   <g font-family="FreeSans" font-size="10" font-style="normal" font-weight="normal" transform="translate(20.4701,157.613) rotate(-0,29,-4)" xml:space="preserve">
    <text fill="rgb(38,38,38)" x="0 6 11 17 23 " y="-0">2e+05</text>
   </g>
   <g font-family="FreeSans" font-size="10" font-style="normal" font-weight="normal" transform="translate(20.4701,142.763) rotate(-0,29,-4)" xml:space="preserve">
    <text fill="rgb(38,38,38)" x="0 6 11 17 23 " y="-0">3e+05</text>
   </g>
   <g font-family="FreeSans" font-size="10" font-style="normal" font-weight="normal" transform="translate(20.4701,127.914) rotate(-0,29,-4)" xml:space="preserve">
    <text fill="rgb(38,38,38)" x="0 6 11 17 23 " y="-0">4e+05</text>
   </g>
   <polyline fill="none" points="54.4654,183.312 379.163,183.312" stroke="#262626" stroke-dasharray="16,0" stroke-linecap="square" stroke-linejoin="miter" stroke-width="0.5"/>
   <polyline fill="none" points="54.4654,123.914 379.163,123.914" stroke="#262626" stroke-dasharray="16,0" stroke-linecap="square" stroke-linejoin="miter" stroke-width="0.5"/>
   <polyline fill="none" points="54.4654,183.312 54.4654,123.914" stroke="#262626" stroke-dasharray="16,0" stroke-linecap="square" stroke-linejoin="miter" stroke-width="0.5"/>
   <polyline fill="none" points="379.163,183.312 379.163,123.914" stroke="#262626" stroke-dasharray="16,0" stroke-linecap="square" stroke-linejoin="miter" stroke-width="0.5"/>
   <g font-family="FreeSans" font-size="11" font-style="normal" font-weight="normal" transform="translate(-28.0299,153.613) rotate(-90,43.5,0)" xml:space="preserve">
    <text fill="rgb(38,38,38)" x="0 3 10 17 24 28 33 35 41 " y="-3">|FFT(sig2</text>
    <text fill="rgb(38,38,38)" font-size="7.7" x="47 " y="-8">2</text>
    <text fill="rgb(38,38,38)" x="51 55 58 61 65 71 74 80 83 " y="-3">)| (a.u.)</text>
   </g>
   <polyline fill="none" points="54.1408,182.797 54.2042,182.972 54.3774,182.381 54.5506,182.929 54.7236,183.058 54.8968,183.244 55.0701,182.387 55.2432,182.796 55.4164,182.751 55.5896,182.98 55.7628,182.187 55.9358,182.997 56.109,183.069 56.2822,182.472 56.4555,182.89 56.6285,182.928 56.8017,182.911 56.9749,182.956 57.1481,182.975 57.3212,183.005 57.4944,183.017 57.6677,182.916 57.8409,182.361 58.0139,182.496 58.1871,182.87 58.3603,182.1 58.5335,182.485 58.7066,182.124 58.8798,182.027 59.053,182.361 59.2262,183.105 59.3993,183.021 59.5725,182.796 59.7457,182.796 59.919,182.522 60.092,182.574 60.2652,182.701 60.4384,182.478 60.6116,183.072 60.7847,182.679 60.9579,182.578 61.1311,183.176 61.3041,182.597 61.4773,182.821 61.6506,182.974 61.8238,183.147 61.9968,182.816 62.1701,182.992 62.3433,183.237 62.5165,183.05 62.6896,182.599 62.8628,182.688 63.036,182.814 63.2092,182.655 63.3822,183.162 63.5554,182.891 63.7286,183.001 63.9019,181.926 64.0749,182.251 64.2481,182.861 64.4214,182.511 64.5946,182.289 64.7677,182.921 64.9409,182.807 65.1141,182.933 65.2873,183.191 65.4603,182.921 65.6335,182.932 65.8067,182.954 65.9799,182.831 66.153,183.104 66.3262,181.785 66.4994,182.281 66.6726,183.053 66.8457,182.861 67.019,182.738 67.1922,182.64 67.3652,182.476 67.5384,182.802 67.7116,182.933 67.8848,182.641 68.0579,182.828 68.2311,183.077 68.4043,182.452 68.5775,182.932 68.7505,183.263 68.9237,183.059 69.097,182.987 69.2703,182.637 69.4433,182.728 69.6165,182.88 69.7897,182.869 69.9629,182.757 70.136,183.113 70.3092,183.135 70.4824,182.749 70.6556,182.158 70.8286,182.759 71.0018,182.77 71.175,182.143 71.3483,183.104 71.5213,183.132 71.6946,182.913 71.8678,182.561 72.041,182.813 72.2141,182.56 72.3873,182.023 72.5605,182.436 72.7337,182.168 72.9067,182.904 73.0799,182.646 73.2531,182.82 73.4262,182.546 73.5994,182.889 73.7726,182.563 73.9459,182.718 74.119,181.925 74.2922,183.132 74.4654,182.841 74.6386,182.421 74.8116,182.951 74.9848,182.697 75.158,182.893 75.3312,182.876 75.5043,183.194 75.6775,183.184 75.8507,182.856 76.0239,182.974 76.197,183.039 76.3702,182.904 76.5435,183.215 76.7167,182.749 76.8897,182.975 77.0629,182.963 77.2361,183.22 77.4093,183.078 77.5824,182.767 77.7556,182.668 77.9288,182.791 78.102,182.859 78.275,182.856 78.4482,182.677 78.6215,183.047 78.7948,182.77 78.9678,182.509 79.141,182.714 79.3142,182.686 79.4873,182.658 79.6605,182.734 79.8337,182.717 80.0069,183.148 80.1799,182.895 80.3531,182.888 80.5263,182.512 80.6995,182.628 80.8727,183.057 81.0459,183.07 81.2191,183.026 81.3923,182.716 81.5654,182.797 81.7386,182.649 81.9118,182.755 82.085,182.779 82.258,183.247 82.4312,182.962 82.6044,182.971 82.7776,183.144 82.9507,182.906 83.1239,182.714 83.2972,182.809 83.4704,183.049 83.6434,182.697 83.8167,183.076 83.9899,182.875 84.1631,182.883 84.3361,183.095 84.5093,183.04 84.6825,182.784 84.8557,183.111 85.0288,182.998 85.202,182.807 85.3752,182.791 85.5483,182.426 85.7215,182.276 85.8947,182.807 86.068,182.505 86.241,183.076 86.4142,182.926 86.5874,183.014 86.7606,182.038 86.9337,182.988 87.1069,182.91 87.2801,183.122 87.4533,182.645 87.6263,182.864 87.7995,182.794 87.9728,182.844 88.146,181.839 88.3191,183.049 88.4923,182.142 88.6655,181.4 88.8387,182.943 89.0118,182.474 89.185,182.146 89.3582,182.572 89.5314,182.71 89.7044,183.198 89.8776,182.672 90.0508,183.073 90.2241,182.49 90.3972,182.791 90.5704,182.768 90.7436,182.753 90.9168,182.873 91.0898,182.387 91.2631,182.751 91.4363,182.63 91.6093,182.414 91.7825,182.655 91.9557,182.962 92.1289,182.988 92.302,183.265 92.4753,182.798 92.6485,182.983 92.8217,182.91 92.9947,182.581 93.1679,182.453 93.3411,183.028 93.5144,182.367 93.6874,182.901 93.8606,183.143 94.0338,182.687 94.207,182.115 94.3801,182.464 94.5533,183.052 94.7265,182.859 94.8997,182.979 95.0728,182.277 95.246,183.13 95.4192,182.64 95.5924,182.324 95.7655,183.149 95.9387,183.076 96.1119,181.653 96.2851,181.702 96.4582,182.412 96.6314,182.421 96.8046,182.592 96.9778,182.748 97.1508,181.727 97.3241,182.198 97.4973,182.935 97.6704,182.795 97.8436,182.72 98.0168,183.199 98.19,182.747 98.363,182.16 98.5362,182.407 98.7095,182.717 98.8827,182.463 99.0557,182.709 99.2289,182.392 99.4021,182.612 99.5754,183.157 99.7485,182.313 99.9217,182.537 100.095,182.654 100.268,182.994 100.441,183.13 100.614,183.102 100.788,182.35 100.961,182.836 101.134,182.903 101.307,182.962 101.48,182.728 101.653,181.944 101.827,182.217 102,182.145 102.173,182.396 102.346,182.873 102.519,182.887 102.692,182.609 102.866,182.824 103.039,182.705 103.212,182.723 103.385,182.895 103.558,182.337 103.731,183.074 103.905,182.559 104.078,182.763 104.251,182.858 104.424,182.632 104.597,182.693 104.77,183.221 104.944,182.613 105.117,182.924 105.29,182.767 105.463,182.837 105.636,182.714 105.809,182.73 105.983,183.042 106.156,183.16 106.329,183.163 106.502,182.611 106.675,182.399 106.849,182.727 107.022,182.821 107.195,182.088 107.368,182.762 107.541,182.533 107.715,182.415 107.888,182.522 108.061,181.888 108.234,181.725 108.407,182.666 108.58,182.255 108.753,182.866 108.927,182.797 109.1,182.971 109.273,182.502 109.446,182.823 109.619,182.156 109.793,182.244 109.966,182.457 110.139,181.937 110.312,182.016 110.485,181.483 110.658,182.803 110.832,181.945 111.005,182.521 111.178,183.144 111.351,183.091 111.524,183.072 111.697,182.713 111.87,182.596 112.044,182.628 112.217,182.86 112.39,183.024 112.563,183.02 112.736,182.749 112.91,182.863 113.083,183.193 113.256,183.132 113.429,182.717 113.602,183.166 113.776,182.43 113.949,183.031 114.122,182.401 114.295,182.775 114.468,183.227 114.641,182.976 114.815,182.873 114.988,182.993 115.161,182.78 115.334,182.491 115.507,182.471 115.68,183.131 115.854,183.056 116.027,183.122 116.2,182.726 116.373,182.889 116.546,182.943 116.719,183.252 116.893,183.274 117.066,183.29 117.239,183.158 117.412,182.97 117.585,183.103 117.758,182.452 117.932,182.438 118.105,182.275 118.278,182.964 118.451,183.095 118.624,182.74 118.797,182.534 118.971,182.73 119.144,182.984 119.317,182.882 119.49,182.586 119.663,182.475 119.837,182.932 120.01,183.074 120.183,183.307 120.356,182.629 120.529,182.643 120.702,183.119 120.876,182.563 121.049,182.644 121.222,183.061 121.395,182.948 121.568,182.274 121.741,182.832 121.915,182.748 122.088,182.341 122.261,182.712 122.434,182.686 122.607,182.407 122.78,182.28 122.954,182.605 123.127,182.775 123.3,182.194 123.473,182.529 123.646,183.054 123.819,182.613 123.993,182.391 124.166,181.979 124.339,182.888 124.512,182.772 124.685,182.754 124.858,182.421 125.032,182.197 125.205,182.773 125.378,183.203 125.551,182.836 125.724,182.788 125.898,182.808 126.071,182.697 126.244,183.126 126.417,182.923 126.59,183.193 126.763,182.608 126.937,182.778 127.11,182.808 127.283,182.399 127.456,182.867 127.629,182.687 127.802,183.287 127.976,182.846 128.149,182.76 128.322,183.085 128.495,182.442 128.668,181.626 128.841,182.565 129.015,181.953 129.188,182.493 129.361,181.91 129.534,181.953 129.707,181.683 129.881,181.825 130.054,182.686 130.227,181.177 130.4,182.664 130.573,182.627 130.746,182.793 130.919,182.622 131.093,182.482 131.266,181.912 131.439,181.851 131.612,182.355 131.785,182.082 131.959,181.544 132.132,182.151 132.305,182.958 132.478,182.665 132.651,182.624 132.824,183.055 132.998,182.653 133.171,183.132 133.344,183.091 133.517,182.778 133.69,182.805 133.864,183.228 134.037,182.989 134.21,182.794 134.383,183.098 134.556,182.622 134.729,183.072 134.902,182.3 135.076,183.217 135.249,182.836 135.422,182.626 135.595,182.9 135.768,183.001 135.942,183.113 136.115,182.679 136.288,183.12 136.461,182.865 136.634,182.366 136.807,183.168 136.981,182.946 137.154,183.094 137.327,183.16 137.5,182.088 137.673,182.786 137.846,182.868 138.02,182.625 138.193,183.16 138.366,183.125 138.539,183.18 138.712,182.653 138.885,181.27 139.059,182.764 139.232,182.581 139.405,182.169 139.578,182.874 139.751,182.794 139.924,183.278 140.098,183.062 140.271,181.828 140.444,181.945 140.617,182.142 140.79,182.984 140.964,182.975 141.137,182.698 141.31,182.936 141.483,182.324 141.656,182.839 141.829,183.202 142.003,182.608 142.176,182.003 142.349,182.652 142.522,182.526 142.695,182.124 142.868,182.992 143.042,182.436 143.215,182.961 143.388,182.878 143.561,182.515 143.734,182.878 143.907,182.545 144.081,182.916 144.254,182.977 144.427,182.696 144.6,182.956 144.773,183.212 144.946,182.035 145.12,182.902 145.293,182.84 145.466,183.008 145.639,182.018 145.812,183.135 145.986,182.433 146.159,183.196 146.332,182.62 146.505,182.768 146.678,181.162 146.851,182.063 147.024,182.528 147.198,182.572 147.371,182.845 147.544,182.69 147.717,182.324 147.89,182.42 148.064,182.917 148.237,182.966 148.41,182.398 148.583,182.941 148.756,182.743 148.929,182.799 149.103,182.646 149.276,182.667 149.449,182.852 149.622,182.724 149.795,182.476 149.969,182.964 150.142,182.594 150.315,182.927 150.488,182.968 150.661,183.097 150.834,183.052 151.007,182.189 151.181,182.615 151.354,182.706 151.527,182.008 151.7,182.935 151.873,182.342 152.047,183.025 152.22,182.776 152.393,183.076 152.566,182.927 152.739,183.068 152.912,182.661 153.086,182.478 153.259,183.101 153.432,182.54 153.605,182.585 153.778,182.823 153.951,183.243 154.125,182.874 154.298,182.683 154.471,182.97 154.644,182.798 154.817,182.878 154.99,183.228 155.164,182.664 155.337,182.965 155.51,182.636 155.683,183.076 155.856,182.949 156.03,182.673 156.203,182.493 156.376,183.014 156.549,183.007 156.722,182.545 156.895,183.093 157.069,183.18 157.242,182.935 157.415,183.117 157.588,183.01 157.761,182.836 157.934,182.851 158.108,182.573 158.281,182.349 158.454,182.973 158.627,183.048 158.8,183.058 158.973,183.092 159.147,182.183 159.32,182.491 159.493,182.9 159.666,182.769 159.839,182.341 160.012,182.882 160.186,182.821 160.359,182.833 160.532,182.94 160.705,182.495 160.878,182.951 161.051,182.401 161.225,182.074 161.398,182.599 161.571,182.285 161.744,182.295 161.917,182.096 162.091,181.963 162.264,182.131 162.437,183.07 162.61,182.706 162.783,182.9 162.956,182.911 163.13,182.793 163.303,182.673 163.476,182.782 163.649,179.969 163.822,180.933 163.995,181.537 164.169,182.997 164.342,182.407 164.515,183.164 164.688,182.544 164.861,182.305 165.034,182.635 165.208,182.506 165.381,183.119 165.554,182.309 165.727,182.659 165.9,183.229 166.073,182.276 166.247,182.413 166.42,183.003 166.593,182.74 166.766,182.658 166.939,182.599 167.112,183.096 167.286,182.6 167.459,182.882 167.632,182.653 167.805,182.424 167.978,182.848 168.152,182.395 168.325,182.853 168.498,182.7 168.671,182.772 168.844,182.939 169.018,182.533 169.191,182.915 169.364,182.69 169.537,183.076 169.71,182.644 169.883,182.842 170.056,182.921 170.23,182.939 170.403,182.916 170.576,182.071 170.749,182.874 170.922,183.25 171.095,182.733 171.269,182.287 171.442,182.392 171.615,182.079 171.788,182.487 171.961,182.974 172.135,183.12 172.308,182.19 172.481,183.017 172.654,182.162 172.827,182.892 173,182.367 173.173,182.356 173.347,182.69 173.52,181.929 173.693,183.061 173.866,182.478 174.039,182.4 174.213,183.082 174.386,183.207 174.559,182.168 174.732,182.36 174.905,182.734 175.079,182.263 175.252,182.359 175.425,182.961 175.598,182.216 175.771,182.249 175.944,182.538 176.118,182.201 176.291,183.183 176.464,182.908 176.637,182.538 176.81,182.417 176.983,182.999 177.156,183.246 177.33,182.979 177.503,182.929 177.676,182.311 177.849,182.791 178.022,183 178.196,182.314 178.369,183.198 178.542,182.345 178.715,182.454 178.888,176.128 179.061,180.675 179.235,182.377 179.408,182.046 179.581,182.612 179.754,182.449 179.927,182.668 180.1,182.424 180.274,182.703 180.447,182.881 180.62,181.526 180.793,182.368 180.966,183.028 181.14,182.355 181.313,182.937 181.486,182.943 181.659,183.014 181.832,183.144 182.005,182.262 182.178,183.063 182.352,182.391 182.525,182.997 182.698,182.035 182.871,182.937 183.044,182.971 183.218,183.14 183.391,182.507 183.564,183.06 183.737,182.481 183.91,182.737 184.083,182.888 184.257,182.447 184.43,182.864 184.603,182.831 184.776,182.787 184.949,182.713 185.123,182.752 185.296,183.225 185.469,182.812 185.642,182.594 185.815,182.081 185.988,182.946 186.161,182.846 186.335,182.717 186.508,182.408 186.681,182.702 186.854,182.393 187.027,183.006 187.201,183.09 187.374,182.66 187.547,182.633 187.72,183.178 187.893,182.868 188.066,182.734 188.24,183.108 188.413,182.216 188.586,182.721 188.759,182.097 188.932,182.941 189.105,182.864 189.278,182.887 189.452,182.743 189.625,183.091 189.798,183.155 189.971,182.498 190.144,182.987 190.318,182.829 190.491,182.171 190.664,182.694 190.837,182.186 191.01,182.595 191.184,182.637 191.357,183.166 191.53,182.997 191.703,182.636 191.876,182.884 192.049,183.089 192.223,182.799 192.396,182.327 192.569,182.931 192.742,183.109 192.915,182.768 193.088,182.893 193.262,181.713 193.435,182.086 193.608,182.415 193.781,183.164 193.954,181.569 194.127,181.806 194.301,181.413 194.474,182.386 194.647,181.08 194.82,181.413 194.993,182.47 195.167,181.894 195.34,181.774 195.513,183.085 195.686,182.951 195.859,182.836 196.032,182.3 196.205,182.926 196.379,181.817 196.552,183.085 196.725,182.76 196.898,182.682 197.071,182.582 197.245,182.76 197.418,181.94 197.591,182.442 197.764,183.241 197.937,182.846 198.11,182.822 198.284,182.44 198.457,182.724 198.63,183.245 198.803,182.606 198.976,182.671 199.149,182.845 199.323,183.058 199.496,183.03 199.669,183.082 199.842,183.028 200.015,182.759 200.188,182.897 200.362,182.947 200.535,182.955 200.708,182.63 200.881,183.181 201.054,182.842 201.227,183.147 201.401,183.164 201.574,183.168 201.747,182.68 201.92,182.639 202.093,182.107 202.267,182.686 202.44,182.049 202.613,182.576 202.786,183.001 202.959,182.733 203.132,182.98 203.306,182.87 203.479,182.683 203.652,182.556 203.825,182.745 203.998,182.966 204.171,182.963 204.345,182.654 204.518,182.507 204.691,182.756 204.864,183.062 205.037,182.747 205.21,182.761 205.384,182.707 205.557,182.935 205.73,182.9 205.903,182.901 206.076,183.071 206.249,182.885 206.423,182.956 206.596,183.08 206.769,182.819 206.942,183.31 207.115,182.908 207.289,182.878 207.462,183.159 207.635,183.024 207.808,182.93 207.981,183.038 208.154,182.966 208.327,182.855 208.501,182.618 208.674,182.815 208.847,183.101 209.02,182.837 209.193,182.859 209.367,182.637 209.54,182.882 209.713,182.607 209.886,183.041 210.059,182.487 210.232,182.447 210.406,182.385 210.579,182.69 210.752,182.874 210.925,182.764 211.098,182.982 211.272,183.068 211.445,182.682 211.618,182.776 211.791,183.122 211.964,183.235 212.137,182.776 212.31,182.649 212.484,182.475 212.657,182.796 212.83,182.822 213.003,182.807 213.176,182.89 213.35,182.931 213.523,183.13 213.696,182.886 213.869,182.794 214.042,182.925 214.215,182.756 214.389,182.588 214.562,182.013 214.735,182.816 214.908,183.103 215.081,182.782 215.255,183.144 215.428,182.684 215.601,182.234 215.774,181.449 215.947,181.088 216.12,182.136 216.293,181.562 216.467,182.631 216.64,183.018 216.813,181.403 216.986,182.241 217.159,183.218 217.333,182.684 217.506,182.811 217.679,182.581 217.852,182.297 218.025,181.83 218.198,182.399 218.372,181.889 218.545,181.544 218.718,182.363 218.891,182.455 219.064,181.429 219.237,181.789 219.411,182.919 219.584,182.7 219.757,183.228 219.93,182.688 220.103,182.992 220.276,182.896 220.45,182.861 220.623,182.991 220.796,182.707 220.969,182.754 221.142,182.564 221.315,182.812 221.489,182.837 221.662,183.199 221.835,182.491 222.008,183.141 222.181,183.031 222.355,182.846 222.528,182.68 222.701,182.747 222.874,182.32 223.047,182.681 223.22,182.021 223.394,182.461 223.567,182.268 223.74,182.868 223.913,182.564 224.086,182.624 224.259,182.114 224.433,182.766 224.606,182.917 224.779,182.307 224.952,182.265 225.125,182.945 225.298,182.123 225.472,182.916 225.645,182.606 225.818,182.961 225.991,182.392 226.164,182.782 226.337,183.23 226.511,182.058 226.684,182.008 226.857,182.397 227.03,181.545 227.203,181.766 227.377,182.816 227.55,182.805 227.723,182.813 227.896,183.096 228.069,183.123 228.242,182.718 228.416,182.773 228.589,182.31 228.762,183.105 228.935,182.743 229.108,182.961 229.281,182.888 229.455,182.801 229.628,182.723 229.801,182.331 229.974,182.58 230.147,183.229 230.32,182.819 230.494,182.785 230.667,182.962 230.84,182.766 231.013,182.578 231.186,182.675 231.359,182.807 231.533,182.863 231.706,182.656 231.879,183.097 232.052,182.922 232.225,182.791 232.399,183.166 232.572,183.066 232.745,183 232.918,182.834 233.091,182.819 233.264,183.166 233.438,182.86 233.611,182.741 233.784,183.165 233.957,182.708 234.13,182.74 234.303,183.036 234.477,182.969 234.65,183.128 234.823,182.721 234.996,182.789 235.169,183.178 235.342,183.176 235.516,182.689 235.689,182.949 235.862,182.91 236.035,182.443 236.208,182.895 236.382,183.136 236.555,182.685 236.728,182.804 236.901,183.061 237.074,182.541 237.247,181.784 237.421,182.309 237.594,182.26 237.767,182.886 237.94,182.019 238.113,182.176 238.286,182.502 238.46,181.501 238.633,182.259 238.806,182.123 238.979,165.379 239.152,182.197 239.325,181.656 239.499,181.814 239.672,181.576 239.845,182.454 240.018,181.834 240.191,182.195 240.364,182.297 240.538,182.48 240.711,181.953 240.884,182.537 241.057,182.912 241.23,182.87 241.403,183.163 241.577,183.037 241.75,182.252 241.923,182.958 242.096,183.045 242.269,182.877 242.442,182.435 242.616,182.425 242.789,183.028 242.962,182.972 243.135,183.09 243.308,182.467 243.482,182.843 243.655,182.788 243.828,182.974 244.001,182.445 244.174,182.657 244.347,183.033 244.521,182.067 244.694,183.149 244.867,182.579 245.04,182.563 245.213,181.684 245.386,181.963 245.56,182.889 245.733,182.508 245.906,182.092 246.079,182.422 246.252,182.701 246.425,183.257 246.599,183.13 246.772,182.891 246.945,182.698 247.118,182.769 247.291,183.067 247.464,182.887 247.638,182.688 247.811,182.898 247.984,183.006 248.157,182.443 248.33,182.77 248.504,182.266 248.677,182.662 248.85,182.843 249.023,182.843 249.196,182.888 249.369,183.072 249.543,183.15 249.716,182.967 249.889,183.136 250.062,182.214 250.235,182.906 250.408,182.31 250.582,182.676 250.755,183.165 250.928,183.017 251.101,182.51 251.274,183.043 251.447,182.948 251.621,182.867 251.794,182.837 251.967,182.097 252.14,182.905 252.313,183.03 252.486,182.649 252.66,183.022 252.833,183.049 253.006,183.159 253.179,182.403 253.352,182.156 253.526,182.952 253.699,182.759 253.872,182.261 254.045,182.519 254.218,182.834 254.391,183.044 254.565,182.62 254.738,183.003 254.911,182.971 255.084,182.653 255.257,182.722 255.431,183.122 255.604,182.863 255.777,182.373 255.95,182.671 256.123,183.145 256.296,182.728 256.469,182.668 256.643,182.883 256.816,182.689 256.989,183.075 257.162,183.056 257.335,182.909 257.509,182.931 257.682,182.99 257.855,182.696 258.028,182.941 258.201,182.873 258.374,182.844 258.548,182.83 258.721,182.916 258.894,182.925 259.067,181.885 259.24,181.44 259.413,182.666 259.587,181.91 259.76,182.775 259.933,182.237 260.106,182.086 260.279,183.113 260.452,182.901 260.626,182.884 260.799,183.122 260.972,183.114 261.145,182.809 261.318,182.923 261.491,183.178 261.665,182.919 261.838,182.801 262.011,182.356 262.184,183.157 262.357,183.017 262.531,182.879 262.704,182.671 262.877,183.114 263.05,182.749 263.223,182.928 263.396,182.616 263.569,183.097 263.743,182.735 263.916,182.896 264.089,183.024 264.262,182.712 264.435,182.619 264.609,182.991 264.782,182.809 264.955,182.848 265.128,182.494 265.301,182.697 265.474,182.774 265.648,183.068 265.821,182.857 265.994,182.557 266.167,182.676 266.34,182.505 266.513,182.741 266.687,182.53 266.86,182.374 267.033,182.391 267.206,182.852 267.379,182.542 267.553,182.6 267.726,182.629 267.899,183.014 268.072,182.973 268.245,183.278 268.418,183.052 268.591,182.667 268.765,182.894 268.938,183.093 269.111,183.123 269.284,182.911 269.457,182.73 269.631,183.049 269.804,183.223 269.977,182.35 270.15,182.878 270.323,183.232 270.496,182.25 270.67,182.944 270.843,182.903 271.016,182.575 271.189,182.611 271.362,182.819 271.535,182.982 271.709,182.75 271.882,182.975 272.055,182.855 272.228,182.95 272.401,182.953 272.575,182.689 272.748,182.923 272.921,182.641 273.094,183.006 273.267,182.731 273.44,182.967 273.614,182.712 273.787,182.642 273.96,183.067 274.133,182.572 274.306,182.358 274.479,183.233 274.653,182.281 274.826,182.447 274.999,181.817 275.172,182.276 275.345,182.411 275.518,181.973 275.692,182.171 275.865,182.528 276.038,182.45 276.211,182.77 276.384,182.746 276.558,182.601 276.731,182.691 276.904,182.877 277.077,182.365 277.25,182.434 277.423,183.083 277.597,183.023 277.77,183.064 277.943,182.734 278.116,182.527 278.289,182.394 278.462,182.665 278.636,183.141 278.809,183.295 278.982,183.155 279.155,182.966 279.328,181.812 279.501,182.404 279.675,183.02 279.848,181.813 280.021,182.684 280.194,181.68 280.367,182.016 280.54,181.847 280.714,180.739 280.887,180.819 281.06,182.494 281.233,180.468 281.406,182.174 281.579,182.793 281.753,182.185 281.926,182.853 282.099,182.93 282.272,182.072 282.445,183.029 282.618,182.724 282.792,182.078 282.965,182.327 283.138,181.481 283.311,183.078 283.484,181.578 283.658,179.736 283.831,181.395 284.004,179.019 284.177,179.092 284.35,178.046 284.523,164.278 284.697,129.866 284.87,168.683 285.043,177.362 285.216,180.358 285.389,179.362 285.562,181.24 285.736,181.115 285.909,181.266 286.082,181.078 286.255,182.412 286.428,182.311 286.601,181.935 286.775,182.199 286.948,183.05 287.121,182.237 287.294,182.159 287.467,181.821 287.641,182.586 287.814,182.143 287.987,182.914 288.16,182.719 288.333,182.187 288.506,183.036 288.68,182.859 288.853,182.399 289.026,182.111 289.199,182.649 289.372,182.942 289.545,182.444 289.719,182.849 289.892,182.763 290.065,182.907 290.238,183.102 290.411,182.652 290.584,182.928 290.758,182.733 290.931,182.612 291.104,183.194 291.277,182.909 291.45,182.43 291.623,182.973 291.797,182.707 291.97,182.565 292.143,182.708 292.316,182.708 292.489,182.783 292.663,182.895 292.836,182.73 293.009,182.84 293.182,182.488 293.355,182.941 293.528,183.16 293.702,182.272 293.875,182.354 294.048,182.474 294.221,182.932 294.394,183.072 294.567,182.726 294.741,182.605 294.914,182.592 295.087,183.055 295.26,183.132 295.433,182.784 295.606,183.178 295.78,182.858 295.953,182.753 296.126,182.626 296.299,182.501 296.472,182.91 296.645,182.959 296.819,183.114 296.992,182.209 297.165,182.992 297.338,183.08 297.511,182.868 297.685,182.892 297.858,181.864 298.031,182.997 298.204,182.045 298.377,182.524 298.55,182.021 298.724,182.881 298.897,182.666 299.07,182.894 299.243,182.501 299.416,182.318 299.589,182.679 299.763,182.817 299.936,182.537 300.109,183.014 300.282,182.139 300.455,182.899 300.628,183.117 300.802,182.978 300.975,183.156 301.148,182.809 301.321,182.919 301.494,182.605 301.667,182.401 301.841,182.86 302.014,182.522 302.187,182.68 302.36,182.555 302.533,183.145 302.706,182.413 302.88,182.233 303.053,183.006 303.226,182.975 303.399,182.765 303.572,182.566 303.745,182.35 303.919,183.095 304.092,182.786 304.265,183.025 304.438,181.997 304.611,182.028 304.785,182.826 304.958,181.702 305.131,181.231 305.304,181.867 305.477,182.544 305.65,181.364 305.824,182.154 305.997,182.59 306.17,182.804 306.343,183.066 306.516,183.089 306.689,182.892 306.863,182.102 307.036,183.013 307.209,182.307 307.382,182.297 307.555,182.894 307.728,182.454 307.902,182.983 308.075,182.702 308.248,182.387 308.421,182.513 308.594,182.771 308.767,182.818 308.941,183.106 309.114,182.513 309.287,183.094 309.46,182.535 309.633,183.077 309.807,182.544 309.98,182.843 310.153,182.542 310.326,182.866 310.499,182.887 310.672,182.394 310.846,182.443 311.019,182.772 311.192,182.706 311.365,182.758 311.538,182.509 311.711,183.106 311.885,182.976 312.058,182.99 312.231,182.769 312.404,182.747 312.577,183.015 312.75,182.866 312.924,182.957 313.097,183.025 313.27,182.891 313.443,182.669 313.616,182.92 313.79,182.865 313.963,182.694 314.136,183.101 314.309,182.992 314.482,182.692 314.655,182.664 314.829,182.663 315.002,182.766 315.175,183.022 315.348,182.994 315.521,182.784 315.694,183.099 315.868,182.978 316.041,182.983 316.214,182.805 316.387,182.526 316.56,183.048 316.734,182.687 316.907,182.265 317.08,183.192 317.253,182.982 317.426,182.448 317.599,182.854 317.772,182.39 317.946,182.127 318.119,182.519 318.292,183.053 318.465,182.663 318.638,182.898 318.812,182.782 318.985,183.043 319.158,182.645 319.331,183.05 319.504,182.472 319.677,182.647 319.851,182.925 320.024,183.158 320.197,182.488 320.37,183.123 320.543,182.887 320.716,183.195 320.89,181.388 321.063,163.081 321.236,181.394 321.409,182.296 321.582,182.893 321.755,183.179 321.929,183.158 322.102,182.74 322.275,183.032 322.448,182.583 322.621,182.889 322.794,182.963 322.968,182.852 323.141,182.812 323.314,183.137 323.487,183.082 323.66,182.315 323.833,182.752 324.007,181.912 324.18,181.538 324.353,182.953 324.526,181.823 324.699,182.539 324.872,181.415 325.046,181.762 325.219,182.519 325.392,182.76 325.565,183.155 325.738,183.075 325.912,182.438 326.085,182.451 326.258,183.017 326.431,182.804 326.604,183.029 326.777,182.674 326.951,182.26 327.124,182.182 327.297,182.813 327.47,182.789 327.643,183.014 327.816,182.693 327.99,182.484 328.163,182.712 328.336,182.633 328.509,182.818 328.682,183.17 328.856,183.111 329.029,182.884 329.202,182.849 329.375,182.742 329.548,183.079 329.721,182.155 329.895,182.92 330.068,182.892 330.241,183.152 330.414,183.041 330.587,182.672 330.76,182.801 330.934,183.063 331.107,183.102 331.28,182.76 331.453,182.97 331.626,183.11 331.799,182.344 331.973,182.944 332.146,182.633 332.319,182.458 332.492,183.002 332.665,182.983 332.839,182.294 333.012,182.857 333.185,182.78 333.358,182.826 333.531,183.197 333.704,182.879 333.878,182.693 334.051,182.931 334.224,182.831 334.397,183.126 334.57,182.836 334.743,183.06 334.917,182.597 335.09,182.551 335.263,182.867 335.436,182.621 335.609,183.018 335.782,183.222 335.956,182.402 336.129,182.756 336.302,182.223 336.475,182.646 336.648,182.71 336.822,182.032 336.995,182.727 337.168,182.682 337.341,183.183 337.514,183.264 337.687,182.562 337.861,183.073 338.034,182.869 338.207,182.756 338.38,183.008 338.553,183.118 338.726,182.817 338.9,182.381 339.073,182.948 339.246,182.425 339.419,182.231 339.592,183.112 339.765,182.313 339.939,182.43 340.112,182.197 340.285,182.75 340.458,182.692 340.631,182.627 340.804,182.797 340.978,182.515 341.151,182.241 341.324,181.543 341.497,181.802 341.67,169.623 341.843,178.141 342.017,179.968 342.19,181.188 342.363,181.94 342.536,182.877 342.709,182.738 342.882,182.502 343.056,182.437 343.229,182.542 343.402,181.893 343.575,182.541 343.748,182.431 343.922,182.567 344.095,182.561 344.268,182.976 344.441,182.011 344.614,183.184 344.787,182.685 344.961,182.835 345.134,182.976 345.307,182.506 345.48,182.901 345.653,182.091 345.826,181.848 346,183.094 346.173,182.133 346.346,181.598 346.519,182.912 346.692,182.644 346.865,181.994 347.039,182.721 347.212,182.94 347.385,182.564 347.558,182.641 347.731,182.422 347.904,182.164 348.078,182.773 348.251,182.458 348.424,182.201 348.597,182.682 348.77,182.124 348.944,182.348 349.117,182.713 349.29,183.006 349.463,182.455 349.636,183.08 349.809,182.629 349.983,182.899 350.156,182.956 350.329,183.199 350.502,182.861 350.675,182.773 350.848,182.471 351.022,182.821 351.195,182.692 351.368,182.911 351.541,183.218 351.714,183.041 351.887,182.955 352.061,182.738 352.234,183.003 352.407,182.846 352.58,182.505 352.753,182.318 352.926,182.651 353.1,183.285 353.273,182.579 353.446,182.61 353.619,182.579 353.792,182.869 353.966,182.875 354.139,182.333 354.312,182.321 354.485,182.884 354.658,183.122 354.831,182.708 355.005,182.012 355.178,182.75 355.351,182.878 355.524,182.865 355.697,182.331 355.87,182.284 356.044,182.63 356.217,183.167 356.39,182.316 356.563,182.318 356.736,182.782 356.909,183.046 357.083,182.299 357.256,182.556 357.429,182.656 357.602,182.373 357.775,182.822 357.948,182.233 358.122,182.779 358.295,182.729 358.468,182.682 358.641,182.515 358.814,182.816 358.988,182.904 359.161,182.933 359.334,183.115 359.507,183.256 359.68,182.854 359.853,182.687 360.027,182.747 360.2,182.915 360.373,182.957 360.546,182.577 360.719,182.219 360.892,183.197 361.066,182.519 361.239,182.41 361.412,182.956 361.585,183.279 361.758,182.489 361.931,182.999 362.105,182.447 362.278,183.073 362.451,182.893 362.624,183.055 362.797,182.851 362.97,182.876 363.144,182.638 363.317,182.654 363.49,181.217 363.663,182.994 363.836,182.395 364.009,182.73 364.183,183.146 364.356,182.676 364.529,182.322 364.702,182.627 364.875,182.968 365.049,182.325 365.222,183.089 365.395,182.394 365.568,182.659 365.741,182.974 365.914,182.748 366.088,182.638 366.261,182.934 366.434,183.063 366.607,182.969 366.78,182.74 366.953,182.624 367.127,181.966 367.3,182.509 367.473,181.02 367.646,182.782 367.819,181.795 367.992,182.928 368.166,182.649 368.339,181.412 368.512,183.14 368.685,182.793 368.858,183.137 369.031,182.83 369.205,182.973 369.378,182.574 369.551,182.932 369.724,182.643 369.897,182.566 370.07,182.957 370.244,182.459 370.417,182.666 370.59,183.018 370.763,182.798 370.936,182.534 371.11,182.892 371.283,182.705 371.456,183.039 371.629,182.981 371.802,182.245 371.975,182.922 372.149,182.535 372.322,182.651 372.495,182.642 372.668,182.406 372.841,182.998 373.014,183.108 373.188,183.074 373.361,182.886 373.534,182.9 373.707,182.776 373.88,182.4 374.053,182.811 374.227,182.497 374.4,182.466 374.573,182.559 374.746,183.066 374.919,183.042 375.093,182.912 375.266,183.088 375.439,182.54 375.612,182.581 375.785,182.306 375.958,182.389 376.132,183.03 376.305,182.964 376.478,182.534 376.651,182.715 376.824,182.814 376.997,182.9 377.171,183.036 377.344,182.982 377.517,182.852 377.69,182.39 377.863,182.869 378.036,182.573 378.21,182.874 378.383,183.14 378.556,182.727 378.729,182.462 378.902,182.627 379.076,183.155 379.249,182.936 379.422,182.819 379.488,182.672" stroke="#0071bc" stroke-linecap="butt" stroke-linejoin="round" stroke-width="0.5"/>
   <polyline fill="none" points="160.649,177.342 166.649,183.342" stroke="#ff0000" stroke-linecap="square" stroke-linejoin="miter" stroke-width="0.5"/>
   <polyline fill="none" points="160.649,183.342 166.649,177.342" stroke="#ff0000" stroke-linecap="square" stroke-linejoin="miter" stroke-width="0.5"/>
   <polyline fill="none" points="175.888,177.342 181.888,183.342" stroke="#ff0000" stroke-linecap="square" stroke-linejoin="miter" stroke-width="0.5"/>
   <polyline fill="none" points="175.888,183.342 181.888,177.342" stroke="#ff0000" stroke-linecap="square" stroke-linejoin="miter" stroke-width="0.5"/>
   <polyline fill="none" points="235.979,177.342 241.979,183.342" stroke="#ff0000" stroke-linecap="square" stroke-linejoin="miter" stroke-width="0.5"/>
   <polyline fill="none" points="235.979,183.342 241.979,177.342" stroke="#ff0000" stroke-linecap="square" stroke-linejoin="miter" stroke-width="0.5"/>
   <polyline fill="none" points="278.233,177.342 284.233,183.342" stroke="#ff0000" stroke-linecap="square" stroke-linejoin="miter" stroke-width="0.5"/>
   <polyline fill="none" points="278.233,183.342 284.233,177.342" stroke="#ff0000" stroke-linecap="square" stroke-linejoin="miter" stroke-width="0.5"/>
   <polyline fill="none" points="280.658,177.342 286.658,183.342" stroke="#ff0000" stroke-linecap="square" stroke-linejoin="miter" stroke-width="0.5"/>
   <polyline fill="none" points="280.658,183.342 286.658,177.342" stroke="#ff0000" stroke-linecap="square" stroke-linejoin="miter" stroke-width="0.5"/>
   <polyline fill="none" points="281.004,177.342 287.004,183.342" stroke="#ff0000" stroke-linecap="square" stroke-linejoin="miter" stroke-width="0.5"/>
   <polyline fill="none" points="281.004,183.342 287.004,177.342" stroke="#ff0000" stroke-linecap="square" stroke-linejoin="miter" stroke-width="0.5"/>
   <polyline fill="none" points="281.177,177.342 287.177,183.342" stroke="#ff0000" stroke-linecap="square" stroke-linejoin="miter" stroke-width="0.5"/>
   <polyline fill="none" points="281.177,183.342 287.177,177.342" stroke="#ff0000" stroke-linecap="square" stroke-linejoin="miter" stroke-width="0.5"/>
   <polyline fill="none" points="281.35,177.342 287.35,183.342" stroke="#ff0000" stroke-linecap="square" stroke-linejoin="miter" stroke-width="0.5"/>
   <polyline fill="none" points="281.35,183.342 287.35,177.342" stroke="#ff0000" stroke-linecap="square" stroke-linejoin="miter" stroke-width="0.5"/>
   <polyline fill="none" points="281.523,177.342 287.523,183.342" stroke="#ff0000" stroke-linecap="square" stroke-linejoin="miter" stroke-width="0.5"/>
   <polyline fill="none" points="281.523,183.342 287.523,177.342" stroke="#ff0000" stroke-linecap="square" stroke-linejoin="miter" stroke-width="0.5"/>
   <polyline fill="none" points="281.697,177.342 287.697,183.342" stroke="#ff0000" stroke-linecap="square" stroke-linejoin="miter" stroke-width="0.5"/>
   <polyline fill="none" points="281.697,183.342 287.697,177.342" stroke="#ff0000" stroke-linecap="square" stroke-linejoin="miter" stroke-width="0.5"/>
   <polyline fill="none" points="281.87,177.342 287.87,183.342" stroke="#ff0000" stroke-linecap="square" stroke-linejoin="miter" stroke-width="0.5"/>
   <polyline fill="none" points="281.87,183.342 287.87,177.342" stroke="#ff0000" stroke-linecap="square" stroke-linejoin="miter" stroke-width="0.5"/>
   <polyline fill="none" points="282.043,177.342 288.043,183.342" stroke="#ff0000" stroke-linecap="square" stroke-linejoin="miter" stroke-width="0.5"/>
   <polyline fill="none" points="282.043,183.342 288.043,177.342" stroke="#ff0000" stroke-linecap="square" stroke-linejoin="miter" stroke-width="0.5"/>
   <polyline fill="none" points="282.216,177.342 288.216,183.342" stroke="#ff0000" stroke-linecap="square" stroke-linejoin="miter" stroke-width="0.5"/>
   <polyline fill="none" points="282.216,183.342 288.216,177.342" stroke="#ff0000" stroke-linecap="square" stroke-linejoin="miter" stroke-width="0.5"/>
   <polyline fill="none" points="282.389,177.342 288.389,183.342" stroke="#ff0000" stroke-linecap="square" stroke-linejoin="miter" stroke-width="0.5"/>
   <polyline fill="none" points="282.389,183.342 288.389,177.342" stroke="#ff0000" stroke-linecap="square" stroke-linejoin="miter" stroke-width="0.5"/>
   <polyline fill="none" points="318.063,177.342 324.063,183.342" stroke="#ff0000" stroke-linecap="square" stroke-linejoin="miter" stroke-width="0.5"/>
   <polyline fill="none" points="318.063,183.342 324.063,177.342" stroke="#ff0000" stroke-linecap="square" stroke-linejoin="miter" stroke-width="0.5"/>
   <polyline fill="none" points="338.67,177.342 344.67,183.342" stroke="#ff0000" stroke-linecap="square" stroke-linejoin="miter" stroke-width="0.5"/>
   <polyline fill="none" points="338.67,183.342 344.67,177.342" stroke="#ff0000" stroke-linecap="square" stroke-linejoin="miter" stroke-width="0.5"/>
   <polyline fill="none" points="338.844,177.342 344.843,183.342" stroke="#ff0000" stroke-linecap="square" stroke-linejoin="miter" stroke-width="0.5"/>
   <polyline fill="none" points="338.844,183.342 344.843,177.342" stroke="#ff0000" stroke-linecap="square" stroke-linejoin="miter" stroke-width="0.5"/>
   <polyline fill="none" points="339.017,177.342 345.017,183.342" stroke="#ff0000" stroke-linecap="square" stroke-linejoin="miter" stroke-width="0.5"/>
   <polyline fill="none" points="339.017,183.342 345.017,177.342" stroke="#ff0000" stroke-linecap="square" stroke-linejoin="miter" stroke-width="0.5"/>
  </g>
  <clipPath id="cp00418314">
   <polygon points="0,314 418,314 418,0 0,0"/>
  </clipPath>
  <g clip-path="url(#cp00418314)">
   <polygon fill="#ffffff" points="54.4654,279.659 379.163,279.659 379.163,220.261 54.4654,220.261" shape-rendering="crispEdges"/>
   <polyline fill="none" points="54.4654,279.659 54.4654,276.39" stroke="#262626" stroke-linecap="butt" stroke-linejoin="miter" stroke-width="0.5"/>
   <polyline fill="none" points="54.4654,220.261 54.4654,223.529" stroke="#262626" stroke-linecap="butt" stroke-linejoin="miter" stroke-width="0.5"/>
   <polyline fill="none" points="97.7584,279.659 97.7584,276.39" stroke="#262626" stroke-linecap="butt" stroke-linejoin="miter" stroke-width="0.5"/>
   <polyline fill="none" points="97.7584,220.261 97.7584,223.529" stroke="#262626" stroke-linecap="butt" stroke-linejoin="miter" stroke-width="0.5"/>
   <polyline fill="none" points="141.052,279.659 141.052,276.39" stroke="#262626" stroke-linecap="butt" stroke-linejoin="miter" stroke-width="0.5"/>
   <polyline fill="none" points="141.052,220.261 141.052,223.529" stroke="#262626" stroke-linecap="butt" stroke-linejoin="miter" stroke-width="0.5"/>
   <polyline fill="none" points="184.344,279.659 184.344,276.39" stroke="#262626" stroke-linecap="butt" stroke-linejoin="miter" stroke-width="0.5"/>
   <polyline fill="none" points="184.344,220.261 184.344,223.529" stroke="#262626" stroke-linecap="butt" stroke-linejoin="miter" stroke-width="0.5"/>
   <polyline fill="none" points="227.638,279.659 227.638,276.39" stroke="#262626" stroke-linecap="butt" stroke-linejoin="miter" stroke-width="0.5"/>
   <polyline fill="none" points="227.638,220.261 227.638,223.529" stroke="#262626" stroke-linecap="butt" stroke-linejoin="miter" stroke-width="0.5"/>
   <polyline fill="none" points="270.931,279.659 270.931,276.39" stroke="#262626" stroke-linecap="butt" stroke-linejoin="miter" stroke-width="0.5"/>
   <polyline fill="none" points="270.931,220.261 270.931,223.529" stroke="#262626" stroke-linecap="butt" stroke-linejoin="miter" stroke-width="0.5"/>
   <polyline fill="none" points="314.224,279.659 314.224,276.39" stroke="#262626" stroke-linecap="butt" stroke-linejoin="miter" stroke-width="0.5"/>
   <polyline fill="none" points="314.224,220.261 314.224,223.529" stroke="#262626" stroke-linecap="butt" stroke-linejoin="miter" stroke-width="0.5"/>
   <polyline fill="none" points="357.517,279.659 357.517,276.39" stroke="#262626" stroke-linecap="butt" stroke-linejoin="miter" stroke-width="0.5"/>
   <polyline fill="none" points="357.517,220.261 357.517,223.529" stroke="#262626" stroke-linecap="butt" stroke-linejoin="miter" stroke-width="0.5"/>
   <g font-family="FreeSans" font-size="10" font-style="normal" font-weight="normal" transform="translate(42.4655,295.21) rotate(-0,12,-8)" xml:space="preserve">
    <text fill="rgb(38,38,38)" x="0 3 9 12 18 " y="-0">-0.07</text>
   </g>
   <g font-family="FreeSans" font-size="10" font-style="normal" font-weight="normal" transform="translate(82.7585,295.21) rotate(-0,15,-8)" xml:space="preserve">
    <text fill="rgb(38,38,38)" x="0 3 9 12 18 24 " y="-0">-0.068</text>
   </g>
   <g font-family="FreeSans" font-size="10" font-style="normal" font-weight="normal" transform="translate(126.052,295.21) rotate(-0,15,-8)" xml:space="preserve">
    <text fill="rgb(38,38,38)" x="0 3 9 12 18 24 " y="-0">-0.066</text>
   </g>
   <g font-family="FreeSans" font-size="10" font-style="normal" font-weight="normal" transform="translate(169.345,295.21) rotate(-0,15,-8)" xml:space="preserve">
    <text fill="rgb(38,38,38)" x="0 3 9 12 18 24 " y="-0">-0.064</text>
   </g>
   <g font-family="FreeSans" font-size="10" font-style="normal" font-weight="normal" transform="translate(212.638,295.21) rotate(-0,15,-8)" xml:space="preserve">
    <text fill="rgb(38,38,38)" x="0 3 9 12 18 24 " y="-0">-0.062</text>
   </g>
   <g font-family="FreeSans" font-size="10" font-style="normal" font-weight="normal" transform="translate(258.931,295.21) rotate(-0,12,-8)" xml:space="preserve">
    <text fill="rgb(38,38,38)" x="0 3 9 12 18 " y="-0">-0.06</text>
   </g>
   <g font-family="FreeSans" font-size="10" font-style="normal" font-weight="normal" transform="translate(299.224,295.21) rotate(-0,15,-8)" xml:space="preserve">
    <text fill="rgb(38,38,38)" x="0 3 9 12 18 24 " y="-0">-0.058</text>
   </g>
   <g font-family="FreeSans" font-size="10" font-style="normal" font-weight="normal" transform="translate(342.517,295.21) rotate(-0,15,-8)" xml:space="preserve">
    <text fill="rgb(38,38,38)" x="0 3 9 12 18 24 " y="-0">-0.056</text>
   </g>
   <polyline fill="none" points="54.4654,279.659 57.7094,279.659" stroke="#262626" stroke-linecap="butt" stroke-linejoin="miter" stroke-width="0.5"/>
   <polyline fill="none" points="379.163,279.659 375.919,279.659" stroke="#262626" stroke-linecap="butt" stroke-linejoin="miter" stroke-width="0.5"/>
   <polyline fill="none" points="54.4654,269.759 57.7094,269.759" stroke="#262626" stroke-linecap="butt" stroke-linejoin="miter" stroke-width="0.5"/>
   <polyline fill="none" points="379.163,269.759 375.919,269.759" stroke="#262626" stroke-linecap="butt" stroke-linejoin="miter" stroke-width="0.5"/>
   <polyline fill="none" points="54.4654,259.86 57.7094,259.86" stroke="#262626" stroke-linecap="butt" stroke-linejoin="miter" stroke-width="0.5"/>
   <polyline fill="none" points="379.163,259.86 375.919,259.86" stroke="#262626" stroke-linecap="butt" stroke-linejoin="miter" stroke-width="0.5"/>
   <polyline fill="none" points="54.4654,249.96 57.7094,249.96" stroke="#262626" stroke-linecap="butt" stroke-linejoin="miter" stroke-width="0.5"/>
   <polyline fill="none" points="379.163,249.96 375.919,249.96" stroke="#262626" stroke-linecap="butt" stroke-linejoin="miter" stroke-width="0.5"/>
   <polyline fill="none" points="54.4654,240.06 57.7094,240.06" stroke="#262626" stroke-linecap="butt" stroke-linejoin="miter" stroke-width="0.5"/>
   <polyline fill="none" points="379.163,240.06 375.919,240.06" stroke="#262626" stroke-linecap="butt" stroke-linejoin="miter" stroke-width="0.5"/>
   <polyline fill="none" points="54.4654,230.16 57.7094,230.16" stroke="#262626" stroke-linecap="butt" stroke-linejoin="miter" stroke-width="0.5"/>
   <polyline fill="none" points="379.163,230.16 375.919,230.16" stroke="#262626" stroke-linecap="butt" stroke-linejoin="miter" stroke-width="0.5"/>
   <polyline fill="none" points="54.4654,220.261 57.7094,220.261" stroke="#262626" stroke-linecap="butt" stroke-linejoin="miter" stroke-width="0.5"/>
   <polyline fill="none" points="379.163,220.261 375.919,220.261" stroke="#262626" stroke-linecap="butt" stroke-linejoin="miter" stroke-width="0.5"/>
   <g font-family="FreeSans" font-size="10" font-style="normal" font-weight="normal" transform="translate(40.4701,283.659) rotate(-0,9,-4)" xml:space="preserve">
    <text fill="rgb(38,38,38)" x="0 3 " y="-0">-4</text>
   </g>
   <g font-family="FreeSans" font-size="10" font-style="normal" font-weight="normal" transform="translate(40.4701,273.759) rotate(-0,9,-4)" xml:space="preserve">
    <text fill="rgb(38,38,38)" x="0 3 " y="-0">-3</text>
   </g>
   <g font-family="FreeSans" font-size="10" font-style="normal" font-weight="normal" transform="translate(40.4701,263.86) rotate(-0,9,-4)" xml:space="preserve">
    <text fill="rgb(38,38,38)" x="0 3 " y="-0">-2</text>
   </g>
   <g font-family="FreeSans" font-size="10" font-style="normal" font-weight="normal" transform="translate(40.4701,253.96) rotate(-0,9,-4)" xml:space="preserve">
    <text fill="rgb(38,38,38)" x="0 3 " y="-0">-1</text>
   </g>
   <g font-family="FreeSans" font-size="10" font-style="normal" font-weight="normal" transform="translate(43.4701,244.06) rotate(-0,6,-4)" xml:space="preserve">
    <text fill="rgb(38,38,38)" x="0 " y="-0">0</text>
   </g>
   <g font-family="FreeSans" font-size="10" font-style="normal" font-weight="normal" transform="translate(43.4701,234.16) rotate(-0,6,-4)" xml:space="preserve">
    <text fill="rgb(38,38,38)" x="0 " y="-0">1</text>
   </g>
   <g font-family="FreeSans" font-size="10" font-style="normal" font-weight="normal" transform="translate(43.4701,224.261) rotate(-0,6,-4)" xml:space="preserve">
    <text fill="rgb(38,38,38)" x="0 " y="-0">2</text>
   </g>
   <polyline fill="none" points="54.4654,279.659 379.163,279.659" stroke="#262626" stroke-dasharray="16,0" stroke-linecap="square" stroke-linejoin="miter" stroke-width="0.5"/>
   <polyline fill="none" points="54.4654,220.261 379.163,220.261" stroke="#262626" stroke-dasharray="16,0" stroke-linecap="square" stroke-linejoin="miter" stroke-width="0.5"/>
   <polyline fill="none" points="54.4654,279.659 54.4654,220.261" stroke="#262626" stroke-dasharray="16,0" stroke-linecap="square" stroke-linejoin="miter" stroke-width="0.5"/>
   <polyline fill="none" points="379.163,279.659 379.163,220.261" stroke="#262626" stroke-dasharray="16,0" stroke-linecap="square" stroke-linejoin="miter" stroke-width="0.5"/>
   <g font-family="FreeSans" font-size="11" font-style="normal" font-weight="normal" transform="translate(-18.0299,249.96) rotate(-90,53.5,0)" xml:space="preserve">
    <text fill="rgb(38,38,38)" x="0 6 12 18 23 29 32 38 40 43 46 52 56 62 68 74 80 83 87 91 97 103 " y="-3">phase difference (rad)</text>
   </g>
   <g font-family="FreeSans" font-size="11" font-style="normal" font-weight="normal" transform="translate(156.314,312.21) rotate(-0,60.5,-12)" xml:space="preserve">
    <text fill="rgb(38,38,38)" x="0 6 11 18 24 30 34 36 42 46 49 52 56 62 68 74 80 86 92 97 100 104 112 117 " y="-3">2xFourier frequency (Hz)</text>
   </g>
   <polyline fill="none" points="160.649,267.163 166.649,273.163" stroke="#0071bc" stroke-linecap="square" stroke-linejoin="miter" stroke-width="0.5"/>
   <polyline fill="none" points="160.649,273.163 166.649,267.163" stroke="#0071bc" stroke-linecap="square" stroke-linejoin="miter" stroke-width="0.5"/>
   <polyline fill="none" points="175.888,269.121 181.888,275.121" stroke="#0071bc" stroke-linecap="square" stroke-linejoin="miter" stroke-width="0.5"/>
   <polyline fill="none" points="175.888,275.121 181.888,269.121" stroke="#0071bc" stroke-linecap="square" stroke-linejoin="miter" stroke-width="0.5"/>
   <polyline fill="none" points="235.979,268.542 241.979,274.542" stroke="#0071bc" stroke-linecap="square" stroke-linejoin="miter" stroke-width="0.5"/>
   <polyline fill="none" points="235.979,274.542 241.979,268.542" stroke="#0071bc" stroke-linecap="square" stroke-linejoin="miter" stroke-width="0.5"/>
   <polyline fill="none" points="278.233,265.855 284.233,271.855" stroke="#0071bc" stroke-linecap="square" stroke-linejoin="miter" stroke-width="0.5"/>
   <polyline fill="none" points="278.233,271.855 284.233,265.855" stroke="#0071bc" stroke-linecap="square" stroke-linejoin="miter" stroke-width="0.5"/>
   <polyline fill="none" points="280.658,269.016 286.658,275.016" stroke="#0071bc" stroke-linecap="square" stroke-linejoin="miter" stroke-width="0.5"/>
   <polyline fill="none" points="280.658,275.016 286.658,269.016" stroke="#0071bc" stroke-linecap="square" stroke-linejoin="miter" stroke-width="0.5"/>
   <polyline fill="none" points="281.004,270.463 287.004,276.463" stroke="#0071bc" stroke-linecap="square" stroke-linejoin="miter" stroke-width="0.5"/>
   <polyline fill="none" points="281.004,276.463 287.004,270.463" stroke="#0071bc" stroke-linecap="square" stroke-linejoin="miter" stroke-width="0.5"/>
   <polyline fill="none" points="281.177,268.573 287.177,274.573" stroke="#0071bc" stroke-linecap="square" stroke-linejoin="miter" stroke-width="0.5"/>
   <polyline fill="none" points="281.177,274.573 287.177,268.573" stroke="#0071bc" stroke-linecap="square" stroke-linejoin="miter" stroke-width="0.5"/>
   <polyline fill="none" points="281.35,267.994 287.35,273.994" stroke="#0071bc" stroke-linecap="square" stroke-linejoin="miter" stroke-width="0.5"/>
   <polyline fill="none" points="281.35,273.994 287.35,267.994" stroke="#0071bc" stroke-linecap="square" stroke-linejoin="miter" stroke-width="0.5"/>
   <polyline fill="none" points="281.523,268.712 287.523,274.712" stroke="#0071bc" stroke-linecap="square" stroke-linejoin="miter" stroke-width="0.5"/>
   <polyline fill="none" points="281.523,274.712 287.523,268.712" stroke="#0071bc" stroke-linecap="square" stroke-linejoin="miter" stroke-width="0.5"/>
   <polyline fill="none" points="281.697,268.634 287.697,274.634" stroke="#0071bc" stroke-linecap="square" stroke-linejoin="miter" stroke-width="0.5"/>
   <polyline fill="none" points="281.697,274.634 287.697,268.634" stroke="#0071bc" stroke-linecap="square" stroke-linejoin="miter" stroke-width="0.5"/>
   <polyline fill="none" points="281.87,268.444 287.87,274.444" stroke="#0071bc" stroke-linecap="square" stroke-linejoin="miter" stroke-width="0.5"/>
   <polyline fill="none" points="281.87,274.444 287.87,268.444" stroke="#0071bc" stroke-linecap="square" stroke-linejoin="miter" stroke-width="0.5"/>
   <polyline fill="none" points="282.043,268.63 288.043,274.63" stroke="#0071bc" stroke-linecap="square" stroke-linejoin="miter" stroke-width="0.5"/>
   <polyline fill="none" points="282.043,274.63 288.043,268.63" stroke="#0071bc" stroke-linecap="square" stroke-linejoin="miter" stroke-width="0.5"/>
   <polyline fill="none" points="282.216,270.03 288.216,276.031" stroke="#0071bc" stroke-linecap="square" stroke-linejoin="miter" stroke-width="0.5"/>
   <polyline fill="none" points="282.216,276.031 288.216,270.03" stroke="#0071bc" stroke-linecap="square" stroke-linejoin="miter" stroke-width="0.5"/>
   <polyline fill="none" points="282.389,266.616 288.389,272.616" stroke="#0071bc" stroke-linecap="square" stroke-linejoin="miter" stroke-width="0.5"/>
   <polyline fill="none" points="282.389,272.616 288.389,266.616" stroke="#0071bc" stroke-linecap="square" stroke-linejoin="miter" stroke-width="0.5"/>
   <polyline fill="none" points="318.063,268.502 324.063,274.502" stroke="#0071bc" stroke-linecap="square" stroke-linejoin="miter" stroke-width="0.5"/>
   <polyline fill="none" points="318.063,274.502 324.063,268.502" stroke="#0071bc" stroke-linecap="square" stroke-linejoin="miter" stroke-width="0.5"/>
   <polyline fill="none" points="338.67,268.477 344.67,274.477" stroke="#0071bc" stroke-linecap="square" stroke-linejoin="miter" stroke-width="0.5"/>
   <polyline fill="none" points="338.67,274.477 344.67,268.477" stroke="#0071bc" stroke-linecap="square" stroke-linejoin="miter" stroke-width="0.5"/>
   <polyline fill="none" points="338.844,268.058 344.843,274.058" stroke="#0071bc" stroke-linecap="square" stroke-linejoin="miter" stroke-width="0.5"/>
   <polyline fill="none" points="338.844,274.058 344.843,268.058" stroke="#0071bc" stroke-linecap="square" stroke-linejoin="miter" stroke-width="0.5"/>
   <polyline fill="none" points="339.017,269.378 345.017,275.378" stroke="#0071bc" stroke-linecap="square" stroke-linejoin="miter" stroke-width="0.5"/>
   <polyline fill="none" points="339.017,275.378 345.017,269.378" stroke="#0071bc" stroke-linecap="square" stroke-linejoin="miter" stroke-width="0.5"/>
  </g>
 </g>
</svg>
